<?xml version="1.0" standalone="no"?>
<!DOCTYPE svg PUBLIC "-//W3C//DTD SVG 1.1//EN" "http://www.w3.org/Graphics/SVG/1.1/DTD/svg11.dtd" >
<svg xmlns="http://www.w3.org/2000/svg" xmlns:xlink="http://www.w3.org/1999/xlink" version="1.1">
<metadata></metadata>
<defs>
<font id="atc_duelv12" horiz-adv-x="2007" >
<font-face units-per-em="2048" ascent="1638" descent="-410" />
<missing-glyph horiz-adv-x="819" />
<glyph unicode="fi" horiz-adv-x="2328" d="M1270 1434q41 -3 41 -43v-248q0 -43 -47 -37q-88 12 -137 6.5t-66.5 -24.5t-20.5 -64h230q41 0 41 -41v-307q0 -41 -41 -41h-232v-594q0 -41 -41 -41h-737q-41 0 -41 41v594h-143q-41 0 -41 41v307q0 41 41 41h143q4 99 24.5 169t68 125t123 86t193 45.5t273.5 10 t369 -25.5zM2198 1434q40 0 40 -41v-226q0 -41 -40 -41h-758q-41 0 -41 41v226q0 41 41 41h758zM2198 1024q40 0 40 -41v-942q0 -41 -40 -41h-758q-41 0 -41 41v942q0 41 41 41h758z" />
<glyph unicode="fl" horiz-adv-x="2328" d="M1270 1434q41 -3 41 -43v-248q0 -43 -47 -37q-88 12 -137 6.5t-66.5 -24.5t-20.5 -64h230q41 0 41 -41v-307q0 -41 -41 -41h-232v-594q0 -41 -41 -41h-737q-41 0 -41 41v594h-143q-41 0 -41 41v307q0 41 41 41h143q4 99 24.5 169t68 125t123 86t193 45.5t273.5 10 t369 -25.5zM2198 1434q40 0 40 -41v-1352q0 -41 -40 -41h-758q-41 0 -41 41v1352q0 41 41 41h758z" />
<glyph unicode=" "  horiz-adv-x="819" />
<glyph unicode="&#x09;" horiz-adv-x="819" />
<glyph unicode="&#xa0;" horiz-adv-x="819" />
<glyph unicode="!" horiz-adv-x="1085" d="M901 1434q41 0 41 -41v-369l-78 -575q-6 -39 -43 -39h-557q-37 0 -43 39l-78 575v369q0 41 41 41h717zM881 307q41 0 41 -41v-225q0 -41 -41 -41h-676q-41 0 -41 41v225q0 41 41 41h676z" />
<glyph unicode="&#x22;" horiz-adv-x="1310" d="M573 963q0 -41 -41 -41h-389q-41 0 -41 41v430q0 41 41 41h389q41 0 41 -41v-430zM1208 963q0 -41 -41 -41h-389q-41 0 -41 41v430q0 41 41 41h389q41 0 41 -41v-430z" />
<glyph unicode="#" horiz-adv-x="1656" d="M1616 1126q41 0 41 -41v-247q0 -41 -41 -41h-146l-20 -148h102q41 0 41 -41v-266q0 -41 -41 -41h-149l-35 -262q-6 -39 -45 -39h-475q-21 0 -31.5 11.5t-7.5 31.5l35 258h-154l-35 -262q-6 -39 -45 -39h-475q-21 0 -31.5 11.5t-7.5 31.5l35 258h-92q-41 0 -41 41v266 q0 41 41 41h141l21 148h-99q-41 0 -41 41v247q0 41 41 41h144l37 269q6 39 45 39h473q43 0 37 -43l-35 -265h155l37 269q6 39 45 39h473q43 0 37 -43l-34 -265h100zM893 649l20 148h-155l-21 -148h156z" />
<glyph unicode="$" horiz-adv-x="2129" d="M2073 434q0 -87 -16 -150.5t-57.5 -120.5t-113 -95t-183 -65t-267.5 -40l22 -330q3 -43 -39 -43h-610q-42 0 -39 43l23 324q-174 10 -298 35.5t-205 63t-128 96.5t-67 127.5t-23 164.5q0 41 41 41h745q37 0 43 -39q8 -57 44.5 -76.5t137.5 -19.5q93 0 126.5 20.5 t33.5 61.5q0 35 -40 56.5t-107.5 32.5t-154.5 18t-184 17t-193.5 25.5t-183.5 47.5t-154.5 78.5t-107.5 123.5t-40 177q0 80 17.5 141t64.5 116.5t126.5 93.5t206.5 65t302 38l-25 353q-3 43 39 43h610q42 0 39 -43l-24 -357q152 -12 260 -37t177.5 -61t110 -91.5t57 -119 t19.5 -152.5q0 -41 -41 -41h-745q-38 0 -41 39q-8 58 -40.5 77.5t-123.5 19.5q-95 0 -127.5 -19t-32.5 -61q0 -35 40 -57t107.5 -33t155 -18.5t184 -17.5t193 -25.5t184 -47.5t155 -78.5t107.5 -123.5t40 -177z" />
<glyph unicode="%" horiz-adv-x="2697" d="M543 1450q227 0 353 -112t126 -314q0 -146 -64 -251t-174.5 -156.5t-255.5 -51.5q-220 0 -353.5 114.5t-133.5 317.5q0 206 133 329.5t367 123.5h2zM670 -20q-25 0 -33 14.5t4 34.5l797 1386q14 29 49 29h530q25 0 33 -14.5t-4 -34.5l-797 -1387q-14 -28 -49 -28h-530z M532 1225q-122 0 -122 -217q0 -220 127 -220q58 0 87 52t29 168q0 109 -27 163t-91 54h-3zM2175 862q228 0 354.5 -111t126.5 -313q0 -218 -135.5 -337t-357.5 -119q-221 0 -353.5 114t-132.5 316q0 205 127.5 327.5t349.5 122.5h21zM2167 639q-123 0 -123 -219 q0 -217 127 -217q59 0 88 51.5t29 167.5q0 109 -27.5 163t-91.5 54h-2z" />
<glyph unicode="&#x26;" horiz-adv-x="2396" d="M2408 49q25 -17 19 -33t-35 -16h-750q-29 0 -53 16q-28 17 -63 45q-277 -81 -598 -81q-213 0 -369.5 18.5t-257 51t-161 85t-84 114t-23.5 144.5q0 64 27.5 118.5t72 95t112 75.5t136.5 59t156 47q-106 97 -143.5 166.5t-37.5 147.5q0 69 19.5 120.5t72.5 97t143 73.5 t234.5 44.5t343.5 16.5q198 0 339.5 -15t231 -42.5t141 -73t70.5 -98.5t19 -127q0 -67 -26 -124t-68.5 -98.5t-106 -78t-128.5 -61.5t-146 -48l131 -92q51 55 74 86q18 27 49 27l612 2q25 0 33.5 -15t-6.5 -37q-150 -207 -350 -350zM1174 1116q-67 0 -93 -28t-6.5 -72.5 t78.5 -89.5q145 47 145 112q0 43 -25.5 60.5t-98.5 17.5zM995 317q45 0 135 17q-50 35 -130.5 94t-110.5 80q-58 -39 -58 -88q0 -103 164 -103z" />
<glyph unicode="'" horiz-adv-x="675" d="M573 963q0 -41 -41 -41h-389q-41 0 -41 41v430q0 41 41 41h389q41 0 41 -41v-430z" />
<glyph unicode="(" horiz-adv-x="1167" d="M981 -223q10 -23 1.5 -36t-32.5 -13h-405q-35 0 -49 26q-580 962 0 1923q14 29 49 29h405q24 0 32.5 -13t-1.5 -36q-416 -945 0 -1880z" />
<glyph unicode=")" horiz-adv-x="1167" d="M186 -223q416 935 0 1880q-10 23 -1.5 36t32.5 13h406q35 0 49 -29q580 -961 0 -1923q-14 -26 -49 -26h-406q-24 0 -32.5 13t1.5 36z" />
<glyph unicode="*" horiz-adv-x="1011" d="M850 1403q18 -34 -12 -55l-95 -68l95 -68q30 -21 12 -55l-64 -113q-17 -33 -55 -16l-106 47l-13 -114q-3 -39 -43 -39h-127q-40 0 -43 39l-12 114l-106 -47q-36 -16 -54 19l-63 110q-18 35 10 55l94 68l-94 68q-30 21 -12 55l63 113q17 33 56 16l106 -47l12 114 q3 39 43 39h127q40 0 43 -39l13 -114l106 47q38 17 55 -16z" />
<glyph unicode="+" horiz-adv-x="1228" d="M719 473v-399q0 -41 -41 -41h-139q-41 0 -41 41v399h-357q-41 0 -41 41v129q0 41 41 41h357v371q0 41 41 41h139q41 0 41 -41v-371h354q41 0 41 -41v-129q0 -41 -41 -41h-354z" />
<glyph unicode="," horiz-adv-x="1085" d="M653 -178q-18 -27 -49 -27h-452q-22 0 -31.5 12.5t-3.5 34.5l139 432q9 33 45 33h623q25 0 32.5 -14.5t-6.5 -34.5z" />
<glyph unicode="-" horiz-adv-x="1290" d="M1147 348q0 -41 -41 -41h-922q-41 0 -41 41v348q0 41 41 41h922q41 0 41 -41v-348z" />
<glyph unicode="." horiz-adv-x="778" d="M676 41q0 -41 -41 -41h-492q-41 0 -41 41v348q0 41 41 41h492q41 0 41 -41v-348z" />
<glyph unicode="/" horiz-adv-x="1132" d="M504 1401q11 33 47 33h532q22 0 31 -13t2 -35l-485 -1378q-11 -33 -47 -33h-537q-22 0 -31 13t-2 35z" />
<glyph unicode="0" horiz-adv-x="2131" d="M1067 -20q-145 0 -265 11.5t-212 31.5t-165 53.5t-124 70t-88 88t-59 102t-35 117.5t-17 127.5t-4 139.5q0 77 4 136.5t17 125.5t35 116.5t59 102t88 89t124 71t165 54t212.5 32.5t264.5 12t264 -12t212 -32.5t164.5 -54t123.5 -71t88 -89t59 -102t35 -116.5t17 -125.5 t4 -136.5q0 -103 -7.5 -178t-31 -157t-65.5 -139t-114 -110.5t-173.5 -86t-246 -51.5t-329.5 -19zM1067 410q70 0 93.5 69t23.5 242q0 166 -23.5 237.5t-93.5 71.5q-71 0 -95 -71t-24 -238q0 -173 23.5 -242t95.5 -69z" />
<glyph unicode="1" horiz-adv-x="1695" d="M1325 430h246q41 0 41 -41v-348q0 -41 -41 -41h-1383q-41 0 -41 41v348q0 41 41 41h287v496l-280 -170q-22 -13 -36 -5t-14 33v424q0 32 31 47l363 168q22 11 51 11h694q41 0 41 -41v-963z" />
<glyph unicode="2" horiz-adv-x="2105" d="M1970 430q41 0 41 -41v-348q0 -41 -41 -41h-1853q-41 0 -41 41v233q0 123 38 217t101.5 150t146.5 94t174.5 55.5t183 29t174.5 19.5t146.5 21.5t101.5 41.5t38 73q0 53 -33.5 76.5t-102.5 23.5q-84 0 -109 -20.5t-28 -91.5q0 -43 -41 -43h-735q-41 0 -41 41 q3 101 19 170.5t58 128t108.5 93t175.5 58.5t253 33.5t347 9.5q199 0 349.5 -12.5t259 -40t180 -65.5t114 -94.5t59.5 -120.5t17 -150q0 -100 -32 -177t-88 -125.5t-129 -82.5t-156.5 -51.5t-168.5 -29t-168.5 -18.5t-152.5 -16t-123.5 -26t-79.5 -44l305 29h733z" />
<glyph unicode="3" horiz-adv-x="2097" d="M1954 639q44 -51 63 -108.5t19 -137.5q0 -55 -9.5 -97.5t-36 -87t-72 -77.5t-120.5 -62.5t-178 -48t-248.5 -29.5t-327.5 -11q-159 0 -281.5 5.5t-222.5 18.5t-171 31t-124.5 48t-86 64.5t-53.5 85.5t-29 105.5t-10 128.5q0 41 40 41h756q41 0 41 -41q4 -73 32.5 -96 t108.5 -23q61 0 91 25.5t30 83.5q0 67 -34.5 96t-86.5 29h-421q-41 0 -41 41v204q0 41 41 41h421q25 0 38 1t34 6.5t32 16t19.5 32.5t8.5 53q0 59 -33.5 83.5t-108.5 24.5q-61 0 -83 -21t-25 -77q-3 -41 -43 -41h-756q-41 0 -41 41q2 71 10.5 124t29.5 101.5t53 81.5 t84.5 62t121 46t165 29.5t214 17.5t270.5 5q185 0 331 -10t249.5 -27t177.5 -44.5t119 -58.5t71 -74t34.5 -84.5t8.5 -96.5q0 -149 -71 -258q-26 -40 -119 -86q58 -27 80.5 -41.5t38.5 -34.5z" />
<glyph unicode="4" horiz-adv-x="2191" d="M2091 625q41 0 41 -41v-308q0 -40 -41 -40h-143v-195q0 -41 -41 -41h-748q-41 0 -41 41v195h-964q-41 0 -41 40v322q0 26 20 49l711 764q23 23 51 23h1012q41 0 41 -41v-768h143zM1044 805l-176 -180h260v161l27 160z" />
<glyph unicode="5" horiz-adv-x="2072" d="M1118 942q122 0 212.5 -2t175.5 -7.5t144.5 -14t114 -23.5t89 -33t64.5 -46.5t46 -60t27.5 -75.5t15.5 -92.5t4 -112.5q0 -97 -15.5 -166t-55.5 -128t-107 -96.5t-172.5 -64t-248.5 -38t-339 -11.5q-209 0 -361 10.5t-264 36.5t-182 62t-113.5 94.5t-60.5 126t-20 164.5 q0 41 41 41h764q40 0 43 -41q4 -65 31 -90t91 -25q68 0 93.5 27t25.5 96q0 18 -0.5 31.5t-4.5 25t-6.5 19.5t-11.5 14.5t-14.5 10.5t-21.5 7t-25.5 4t-33.5 2t-39 1h-48h-817q-41 0 -41 41v764q0 41 41 41h1807q41 0 41 -41v-328q0 -41 -41 -41h-1049v-82h221z" />
<glyph unicode="6" horiz-adv-x="2215" d="M1614 887q85 0 152.5 -6.5t118.5 -22t88 -34t62.5 -48.5t41 -60t23.5 -74t11 -85t3 -98q0 -91 -16 -155.5t-57.5 -121t-112.5 -92.5t-182.5 -62t-266 -37t-365.5 -11q-180 0 -313.5 7t-239.5 28.5t-177 46t-122 73.5t-79 97.5t-43.5 131.5t-19.5 161t-3 200q0 86 4 149.5 t14 129.5t28 112.5t47 93.5t69 78.5t96.5 61t128 47.5t163.5 32t203 19.5t248 5.5q239 0 404.5 -16.5t276 -48.5t172.5 -88.5t88 -126.5t30 -173q0 -40 -41 -40h-748q-34 0 -40 38q-7 41 -38 53.5t-114 12.5q-46 0 -67.5 -4.5t-40 -27.5t-24.5 -65t-9 -122q186 29 276 35 t371 6zM1145 338q82 0 110.5 26t28.5 93q0 59 -17.5 79.5t-64.5 20.5h-237q2 -53 5.5 -87.5t12.5 -60t20 -39t33.5 -21t45.5 -9.5t63 -2z" />
<glyph unicode="7" horiz-adv-x="1980" d="M1898 1434q41 0 41 -41v-230q0 -30 -16 -51l-776 -1087q-19 -25 -49 -25h-803q-25 0 -33 14.5t6 34.5l555 776l162 179h-862q-41 0 -41 40v349q0 41 41 41h1775z" />
<glyph unicode="8" horiz-adv-x="2068" d="M1862 670q91 -54 122 -120t31 -157q0 -55 -9 -97.5t-35.5 -87t-71.5 -77.5t-119.5 -62.5t-176.5 -48t-245.5 -29.5t-323.5 -11t-323.5 11t-245.5 29.5t-176.5 48t-119.5 62.5t-71.5 77.5t-35.5 87t-9 97.5q0 91 32 157t124 120q33 21 129 49q-104 34 -129 53 q-146 97 -146 287q0 55 8.5 96.5t34 84.5t70 74t117.5 58.5t174 44.5t243.5 27t323.5 10t323.5 -10t243.5 -27t174 -44.5t117.5 -58.5t70 -74t34 -84.5t8.5 -96.5q0 -88 -31 -160t-114 -127q-25 -19 -129 -53q95 -28 131 -49zM1034 879q77 0 119.5 23.5t42.5 84.5 q0 45 -37.5 66.5t-124.5 21.5t-124.5 -21.5t-37.5 -66.5q0 -61 42.5 -84.5t119.5 -23.5zM1034 358q87 0 124.5 21.5t37.5 66.5q0 125 -162 125q-160 0 -160 -125q0 -45 37 -66.5t123 -21.5z" />
<glyph unicode="9" horiz-adv-x="2072" d="M1075 1454q180 0 313.5 -7t239.5 -28.5t177 -46t122.5 -73.5t79.5 -97.5t43.5 -131.5t19.5 -161t3 -200q0 -124 -8.5 -208t-32.5 -167.5t-69.5 -135t-117.5 -97.5t-180 -70t-253.5 -37.5t-340.5 -13.5q-199 0 -346.5 10.5t-255 34.5t-177 58t-111.5 87t-60 114.5 t-21 147.5q0 41 41 41h748q35 0 41 -39q7 -41 37.5 -53t113.5 -12q31 0 48 1.5t35 9.5t26.5 21t16 38.5t11 60.5t5.5 88q-185 -29 -276 -35t-372 -6q-85 0 -152.5 6.5t-118 22t-88 34t-62.5 48.5t-40.5 60t-24 74t-11 85t-2.5 98q0 91 15.5 155.5t57 121t112.5 92.5 t182.5 62t266 37t365.5 11zM905 977q0 -59 17.5 -79.5t64.5 -20.5h238q-2 79 -9.5 121t-30.5 65t-52 28t-89 5q-82 0 -110.5 -26t-28.5 -93z" />
<glyph unicode=":" horiz-adv-x="860" d="M717 635q0 -41 -41 -41h-492q-41 0 -41 41v348q0 41 41 41h492q41 0 41 -41v-348zM717 41q0 -41 -41 -41h-492q-41 0 -41 41v348q0 41 41 41h492q41 0 41 -41v-348z" />
<glyph unicode=";" horiz-adv-x="962" d="M788 666q0 -41 -40 -41h-492q-41 0 -41 41v348q0 41 41 41h492q40 0 40 -41v-348zM541 -193q-15 -24 -45 -24h-412q-19 0 -28 11.5t-3 31.5l127 393q6 29 41 29h565q23 0 30 -13t-5 -30z" />
<glyph unicode="&#x3c;" horiz-adv-x="1216" d="M135 455q-31 15 -31 47v153q0 31 31 47l926 431q22 10 35.5 1t13.5 -32v-139q0 -35 -31 -50l-766 -331v-4l768 -334q31 -16 31 -49v-142q0 -23 -13.5 -31.5t-35.5 1.5z" />
<glyph unicode="=" horiz-adv-x="1216" d="M141 705q-41 0 -41 40v129q0 41 41 41h932q41 0 41 -41v-129q0 -40 -41 -40h-932zM141 242q-41 0 -41 41v129q0 41 41 41h932q41 0 41 -41v-129q0 -41 -41 -41h-932z" />
<glyph unicode="&#x3e;" horiz-adv-x="1216" d="M1081 702q31 -16 31 -47v-155q0 -32 -31 -47l-927 -430q-22 -10 -36 -1.5t-14 31.5v142q0 33 31 49l768 334v4l-768 331q-31 15 -31 50v139q0 23 14 32t36 -1z" />
<glyph unicode="?" horiz-adv-x="2201" d="M184 920q-41 0 -41 41q4 118 33 199t93 142t175.5 96t270 51.5t387.5 16.5q147 0 269.5 -8.5t214.5 -22.5t164 -38t122 -49t85 -61t55 -68.5t30.5 -78t13.5 -83.5t2 -90q0 -48 -5 -89.5t-20 -90.5t-38.5 -88t-65 -76.5t-96.5 -62.5t-135.5 -40.5t-179.5 -15.5 q-63 0 -85.5 -18.5t-25.5 -75.5q-3 -41 -43 -41h-705q-41 0 -41 41v86q0 77 15 132t45 92.5t80 59.5t114 31.5t154 9.5q57 0 94.5 5t60 13.5t33.5 26t14 35.5t3 49q0 80 -12.5 117.5t-38.5 49t-82 11.5q-74 0 -98.5 -38.5t-26.5 -126.5q0 -41 -41 -41zM1405 41 q0 -41 -41 -41h-705q-41 0 -41 41v205q0 41 41 41h705q41 0 41 -41v-205z" />
<glyph unicode="@" horiz-adv-x="1787" d="M909 1313q201 0 368 -63.5t278 -173.5t172 -256.5t61 -313.5q0 -78 -13.5 -144.5t-47.5 -130t-87.5 -107.5t-138 -70.5t-194.5 -26.5q-96 0 -172 20.5t-123 54.5t-72.5 73.5t-30.5 82.5q-87 -133 -235 -133q-58 0 -99.5 10t-74 35t-46 67.5t-16.5 107t15 153.5 q19 111 49 184.5t74.5 115.5t98.5 59t130 17q137 0 186 -120l13 69q6 37 43 37h268q20 0 30 -12.5t7 -32.5l-64 -369q-29 -178 78 -178q59 0 97 73t38 165q0 119 -35 218.5t-105 176.5t-185.5 120.5t-266.5 43.5q-268 0 -414.5 -142t-146.5 -417q0 -265 135.5 -407.5 t384.5 -153.5q41 0 41 -41v-166q0 -41 -43 -41q-159 5 -293 49t-231.5 118t-165.5 174t-101.5 218.5t-33.5 249.5q0 168 56.5 313.5t163 256t273.5 174t375 63.5zM834 356q36 0 75 40.5t52 101.5l2 10q7 56 -17.5 95.5t-62.5 39.5q-35 0 -57 -33.5t-35 -111.5 q-24 -142 43 -142z" />
<glyph unicode="A" horiz-adv-x="2232" d="M2202 47q7 -22 -2 -34.5t-31 -12.5h-785q-36 0 -45 35l-34 151h-394l-34 -153q-9 -35 -46 -35l-784 2q-22 0 -31 12.5t-2 34.5l492 1354q11 33 47 33h1110q36 0 47 -33zM997 555h220l-89 377l-20 147l-23 -147z" />
<glyph unicode="B" horiz-adv-x="2150" d="M1784 737q315 -37 315 -338q0 -147 -74 -233t-240 -126t-452 -40h-1188q-41 0 -41 41v1352q0 41 41 41h1147q177 0 298.5 -10t215.5 -33.5t147 -65.5t79 -103.5t26 -150.5q0 -66 -10.5 -116t-38.5 -97.5t-84.5 -78t-140.5 -42.5zM1274 965q0 41 -26 60t-87 19h-258v-167 h258q61 0 87 22t26 66zM1182 397q61 0 86.5 21t25.5 63q0 52 -25 74.5t-87 22.5h-279v-181h279z" />
<glyph unicode="C" horiz-adv-x="2211" d="M1346 856q-37 0 -43 41q-10 86 -47.5 114.5t-127.5 28.5q-60 0 -95.5 -15.5t-54.5 -57t-24.5 -95.5t-5.5 -151q0 -84 3.5 -133.5t13.5 -90.5t31 -60t52 -28.5t80 -9.5q100 0 135 33.5t44 140.5q3 41 41 41h768q41 0 38 -41q-7 -132 -38 -225.5t-101.5 -170.5t-187.5 -123 t-294.5 -70.5t-424.5 -24.5q-181 0 -327 20t-252.5 55t-186 89t-129.5 116t-80.5 142.5t-42.5 161t-12 178.5q0 95 12 173.5t42.5 156.5t80.5 138t129.5 112t186 86t252.5 53.5t327 19.5q215 0 372.5 -13t273 -43t189.5 -72t120 -108.5t66 -143.5t25 -185q3 -41 -38 -41z " />
<glyph unicode="D" horiz-adv-x="2170" d="M1067 1434q244 0 420.5 -27t297 -80t192 -140.5t102 -198t30.5 -263.5q0 -147 -30 -257t-102.5 -201t-191.5 -148t-297.5 -88t-420.5 -31h-901q-41 0 -41 41v1352q0 41 41 41h901zM1087 420q113 0 160 78.5t47 226.5q0 145 -46.5 217t-160.5 72h-153v-594h153z" />
<glyph unicode="E" horiz-adv-x="1998" d="M1855 1044h-942v-153h942q41 0 41 -41v-266q0 -41 -41 -41h-942v-154h942q41 0 41 -41v-307q0 -41 -41 -41h-1699q-41 0 -41 41v1352q0 41 41 41h1699q41 0 41 -41v-308q0 -41 -41 -41z" />
<glyph unicode="F" horiz-adv-x="1947" d="M1855 1004h-911v-175h911q41 0 41 -41v-286q0 -41 -41 -41h-911v-420q0 -41 -41 -41h-747q-41 0 -41 41v1352q0 41 41 41h1699q41 0 41 -41v-349q0 -40 -41 -40z" />
<glyph unicode="G" horiz-adv-x="2254" d="M2138 788q41 0 41 -40q-2 -116 -11.5 -203t-33 -167.5t-61 -137.5t-96.5 -106t-138.5 -80t-188.5 -53.5t-244 -32t-308 -9.5q-181 0 -326.5 20t-251 55t-184 89.5t-127.5 116t-78.5 142t-41 161t-11.5 178.5q0 95 12.5 173.5t44.5 156t84 138t134 112.5t191 86 t259.5 53.5t335.5 19.5q206 0 359.5 -12.5t265 -41t184.5 -67.5t117 -99.5t63 -129.5t22 -164q0 -41 -41 -41h-763q-38 0 -41 41q-7 65 -41.5 85t-135.5 20q-48 0 -80 -12.5t-52 -35t-30.5 -65.5t-14 -91.5t-3.5 -125.5q0 -70 2 -116t9 -89t19 -68t32 -44.5t49 -27t69 -7.5 q118 0 166 26t52 117h-185q-41 0 -41 41v195q0 40 41 40h977z" />
<glyph unicode="H" horiz-adv-x="2150" d="M2015 1434q41 0 41 -41v-1352q0 -41 -41 -41h-758q-40 0 -40 41v451h-283v-451q0 -41 -41 -41h-758q-41 0 -41 41v1352q0 41 41 41h758q41 0 41 -41v-451h283v451q0 41 40 41h758z" />
<glyph unicode="I" horiz-adv-x="1148" d="M1026 41q0 -41 -41 -41h-809q-41 0 -41 41v1352q0 41 41 41h809q41 0 41 -41v-1352z" />
<glyph unicode="J" horiz-adv-x="1372" d="M61 414q0 43 45 37q46 -5 77.5 -8t62 -2t49 2t36.5 11.5t27.5 18.5t18 30.5t11.5 40t5.5 54.5t3 66.5t0.5 83.5v645q0 41 41 41h748q41 0 41 -41v-830q0 -104 -8.5 -180t-31.5 -145t-60.5 -114.5t-99 -82t-144 -54.5t-198 -25t-258 0t-327.5 26q-41 3 -41 43z" />
<glyph unicode="K" horiz-adv-x="2215" d="M2175 49q15 -20 8 -34.5t-33 -14.5h-888q-34 0 -50 29l-178 307l-100 -72v-223q0 -41 -41 -41h-748q-41 0 -41 41v1352q0 41 41 41h748q41 0 41 -41v-240l-12 -203l75 127l236 332q19 25 49 25h846q26 0 33.5 -16t-11.5 -36l-553 -589z" />
<glyph unicode="L" horiz-adv-x="1822" d="M1733 430q41 0 41 -41v-348q0 -41 -41 -41h-1577q-41 0 -41 41v1352q0 41 41 41h788q41 0 41 -41v-963h748z" />
<glyph unicode="M" horiz-adv-x="2703" d="M2540 1434q40 0 40 -41v-1352q0 -41 -40 -41h-627q-39 0 -39 41l33 924l-90 -494q-70 -315 -103 -436q-8 -35 -45 -35h-663q-36 0 -45 33q-16 55 -42.5 164.5t-45.5 191.5l-19 82l-82 449l33 -879q0 -41 -39 -41h-633q-41 0 -41 41v1352q0 41 41 41h1016q35 0 45 -37 l53 -240l76 -534l14 -193l13 193l75 534l54 240q10 37 45 37h1016z" />
<glyph unicode="N" horiz-adv-x="2293" d="M2144 1434q41 0 41 -41v-1352q0 -41 -41 -41h-936q-34 0 -47 33l-282 715l34 -279l15 -428q0 -41 -39 -41h-725q-41 0 -41 41v1352q0 41 41 41h934q34 0 47 -33l289 -727l-37 295l-11 424q0 41 41 41h717z" />
<glyph unicode="O" horiz-adv-x="2211" d="M1108 -41q-185 0 -336 20t-261 55t-193 89t-136 116.5t-86 142t-46 161t-13 178.5q0 95 13 173.5t46 156t86 138t136 112.5t193 86t261 53.5t336 19.5t335.5 -19.5t260.5 -53.5t193 -86t136 -112.5t85.5 -138t45.5 -156t13 -173.5q0 -97 -13 -178.5t-46 -161t-85.5 -142 t-135.5 -116.5t-193 -89t-260.5 -55t-335.5 -20zM1108 410q119 0 159 62.5t40 248.5q0 179 -41 244t-158 65q-119 0 -160 -65t-41 -244q0 -186 40.5 -248.5t160.5 -62.5z" />
<glyph unicode="P" horiz-adv-x="2068" d="M1087 1434q198 0 340.5 -9.5t254 -34t181 -60.5t114.5 -93.5t63 -130t18 -172.5q0 -115 -27 -196t-92 -144t-177 -100t-277 -55.5t-398 -18.5h-153v-379q0 -41 -41 -41h-748q-41 0 -41 41v1352q0 41 41 41h942zM1087 778q95 0 130.5 32t35.5 93q0 55 -35 83t-131 28h-153 v-236h153z" />
<glyph unicode="Q" horiz-adv-x="2211" d="M1894 133l125 -143q14 -17 11 -33t-23 -25l-438 -206q-37 -16 -56 16l-161 246q-152 -8 -244 -8q-185 0 -335.5 18.5t-261 52t-193.5 85.5t-136.5 112t-86 137.5t-45.5 158t-13 177.5q0 95 13 173.5t46 156t86 138t136 112.5t193 86t261 53.5t336 19.5t335.5 -19.5 t260.5 -53.5t193 -86t136 -112.5t85.5 -138t45.5 -156t13 -173.5q0 -201 -64 -347.5t-219 -240.5zM907 721q0 -189 41.5 -260.5t159.5 -71.5q117 0 158 71.5t41 260.5q0 179 -41 244t-158 65q-119 0 -160 -65t-41 -244z" />
<glyph unicode="R" horiz-adv-x="2109" d="M2071 49q13 -22 5.5 -35.5t-32.5 -13.5h-764q-33 0 -49 29l-225 391h-93v-379q0 -41 -41 -41h-727q-41 0 -41 41v1352q0 41 41 41h949q243 0 412 -19t277.5 -54.5t169 -98t83 -137.5t22.5 -185q0 -80 -13 -142t-44.5 -120.5t-91.5 -104t-148 -77.5zM1087 778 q95 0 130.5 32t35.5 93q0 55 -35 83t-131 28h-174v-236h174z" />
<glyph unicode="S" horiz-adv-x="2129" d="M2073 434q0 -87 -16 -150.5t-57 -120t-113 -94t-182.5 -65.5t-266.5 -40.5t-365 -12.5q-207 0 -360 12t-263.5 39.5t-182 65t-114 95.5t-60.5 124t-21 157q0 41 41 41h745q37 0 43 -39q8 -57 44.5 -76.5t137.5 -19.5q93 0 126.5 20.5t33.5 61.5q0 35 -40 56.5 t-107.5 32.5t-154.5 18t-184 17t-193.5 25.5t-183.5 47.5t-154.5 78.5t-107.5 123.5t-40 177q0 92 23 159t87.5 127t174.5 97t288.5 58t425.5 21q155 0 277.5 -6.5t220.5 -20.5t170.5 -34t126 -50t88 -64.5t56 -82t31 -98.5t11.5 -117q0 -41 -41 -41h-745q-38 0 -41 39 q-8 58 -40.5 77.5t-123.5 19.5q-95 0 -127.5 -19t-32.5 -61q0 -35 40 -57t107.5 -33t155 -18.5t184 -17.5t193 -25.5t184 -47.5t155 -78.5t107.5 -123.5t40 -177z" />
<glyph unicode="T" horiz-adv-x="2088" d="M2034 1434q41 0 41 -41v-349q0 -40 -41 -40h-543v-963q0 -41 -41 -41h-788q-41 0 -41 41v963h-543q-41 0 -41 40v349q0 41 41 41h1956z" />
<glyph unicode="U" horiz-adv-x="2232" d="M1286 680v713q0 41 41 41h768q41 0 41 -41v-713q0 -112 -13 -199.5t-44 -165.5t-83 -134.5t-129 -102t-183 -73t-243.5 -42t-312.5 -14.5q-204 0 -358.5 18.5t-266.5 59.5t-186 98t-118 142t-62 183.5t-18 229.5v713q0 41 41 41h768q41 0 41 -41v-713q0 -86 5 -133 t23.5 -77.5t47.5 -40t83 -9.5q102 0 130 47.5t28 212.5z" />
<glyph unicode="V" horiz-adv-x="2217" d="M2169 1434q22 0 31 -13t2 -35l-492 -1353q-11 -33 -47 -33h-1110q-36 0 -47 33l-490 1353q-7 22 2 35t31 13h782q37 0 46 -35l208 -899l23 -148l20 148l211 899q9 35 45 35h785z" />
<glyph unicode="W" horiz-adv-x="2682" d="M2623 1434q20 0 31 -12.5t8 -32.5l-217 -1352q-5 -37 -45 -37h-899q-40 0 -45 37l-57 362l-39 387l-39 -387l-57 -362q-5 -37 -45 -37h-900q-40 0 -45 37l-217 1352q-3 20 8 32.5t31 12.5h695q37 0 40 -39l60 -875l18 162l125 715q6 37 43 37h565q38 0 44 -37l124 -715 l19 -162l59 875q3 39 41 39h694z" />
<glyph unicode="X" horiz-adv-x="2211" d="M1720 717l455 -668q14 -22 7 -35.5t-32 -13.5h-819q-31 0 -47 31l-147 301l-50 133l-49 -133l-147 -301q-15 -31 -47 -31h-821q-25 0 -32 13.5t7 35.5l459 668l-457 667q-14 22 -7 36t32 14h821q34 0 47 -31l145 -301l49 -131l50 131l145 301q13 31 47 31h821 q25 0 32 -14t-7 -36z" />
<glyph unicode="Y" horiz-adv-x="2150" d="M2130 1434q25 0 33 -15t-6 -35l-650 -974v-369q0 -41 -41 -41h-796q-41 0 -41 41v377l-652 966q-14 20 -6 35t33 15h821q36 0 47 -31l146 -352l49 -148l49 148l146 352q11 31 47 31h821z" />
<glyph unicode="Z" horiz-adv-x="1884" d="M1817 1092l-474 -508l-182 -154h635q41 0 41 -41v-348q0 -41 -41 -41h-1690q-40 0 -40 41v252q0 26 20 49l451 483l217 179h-631q-41 0 -41 40v349q0 41 41 41h1673q41 0 41 -41v-252q0 -26 -20 -49z" />
<glyph unicode="[" horiz-adv-x="1013" d="M696 86h113q41 0 41 -41v-276q0 -41 -41 -41h-666q-41 0 -41 41v1896q0 41 41 41h666q41 0 41 -41v-276q0 -41 -41 -41h-113v-1262z" />
<glyph unicode="\" horiz-adv-x="1148" d="M629 1401l489 -1378q7 -22 -2 -35t-31 -13h-536q-36 0 -47 33l-486 1378q-7 22 2 35t31 13h533q36 0 47 -33z" />
<glyph unicode="]" horiz-adv-x="1116" d="M317 86v1262h-112q-41 0 -41 41v276q0 41 41 41h665q41 0 41 -41v-1896q0 -41 -41 -41h-665q-41 0 -41 41v276q0 41 41 41h112z" />
<glyph unicode="^" horiz-adv-x="1198" d="M915 551q-37 0 -49 31l-270 610l-274 -608q-13 -31 -50 -31h-137q-23 0 -31.5 13.5t0.5 35.5l375 787q13 30 47 30h144q34 0 47 -30l375 -789q9 -20 0.5 -33.5t-31.5 -13.5z" />
<glyph unicode="_" horiz-adv-x="2539" d="M2396 -440q0 -41 -41 -41h-2171q-41 0 -41 41v348q0 41 41 41h2171q41 0 41 -41v-348z" />
<glyph unicode="a" d="M1886 1024q41 0 41 -41v-942q0 -41 -41 -41h-737q-41 0 -41 41v82q-180 -143 -500 -143q-129 0 -217.5 14.5t-156 49t-106 96t-57 150.5t-18.5 218q0 162 26.5 263.5t94 163.5t169.5 85.5t265 23.5q318 0 500 -141v80q0 41 41 41h737zM961 328q60 0 113.5 51t53.5 139 q0 77 -54 127.5t-113 50.5q-53 0 -81 -41t-28 -147q0 -98 28 -139t81 -41z" />
<glyph unicode="b" horiz-adv-x="2048" d="M1413 1044q163 0 265 -23.5t169.5 -85.5t94 -163.5t26.5 -263.5q0 -129 -18.5 -218t-57 -150.5t-106 -96t-156 -49t-217.5 -14.5q-320 0 -500 143v-82q0 -41 -41 -41h-737q-41 0 -41 41v1352q0 41 41 41h737q41 0 41 -41v-490q182 141 500 141zM1061 328q53 0 80.5 41 t27.5 139q0 107 -28 147.5t-80 40.5q-59 0 -113.5 -50.5t-54.5 -127.5q0 -88 54 -139t114 -51z" />
<glyph unicode="c" horiz-adv-x="1986" d="M1122 582q-37 0 -43 41q-8 51 -27 72.5t-57 21.5q-63 0 -85.5 -52.5t-22.5 -158.5q0 -111 21.5 -155t86.5 -44q80 0 88 117q3 29 41 29h750q42 0 39 -41q-6 -95 -34.5 -161.5t-92 -120t-169.5 -85.5t-264 -48.5t-380 -16.5q-169 0 -303 13.5t-230 36.5t-166 60.5 t-112.5 79t-67.5 98t-34 112t-9 126.5q0 69 9 124t34 113t67.5 101t112.5 82t165.5 64t230.5 39.5t303 14.5q194 0 336 -9.5t246 -31.5t170 -53t107 -80.5t58.5 -106.5t22.5 -138q3 -41 -39 -41z" />
<glyph unicode="d" horiz-adv-x="2048" d="M1927 1434q41 0 41 -41v-1352q0 -41 -41 -41h-737q-41 0 -41 41v82q-180 -143 -500 -143q-129 0 -217.5 14.5t-156 49t-106 96t-57 150.5t-18.5 218q0 162 26.5 263.5t94 163.5t169.5 85.5t265 23.5q318 0 500 -141v490q0 41 41 41h737zM1001 328q60 0 114 51t54 139 q0 77 -54.5 127.5t-113.5 50.5q-52 0 -80 -40.5t-28 -147.5q0 -98 27.5 -139t80.5 -41z" />
<glyph unicode="e" horiz-adv-x="1966" d="M1915 459q0 -41 -41 -41h-1006q3 -85 28.5 -118.5t94.5 -33.5q46 0 64 12t30 50q12 34 45 34h732q22 0 31.5 -11.5t4.5 -31.5q-22 -92 -71.5 -152t-152.5 -104t-273.5 -63.5t-427.5 -19.5q-169 0 -303 13.5t-230 36.5t-166 60.5t-112.5 79t-67.5 98t-34 112t-9 126.5 q0 69 9 124t34 113t67.5 101t112.5 82t165.5 64t230.5 39.5t303 14.5q154 0 273 -6.5t214.5 -23t163.5 -38.5t118.5 -59t82 -78.5t51.5 -102.5t28 -125t11 -152zM979 758q-53 0 -86.5 -42t-36.5 -104h244q-2 146 -121 146z" />
<glyph unicode="f" horiz-adv-x="1345" d="M1264 1106q-88 12 -137 6.5t-66.5 -24.5t-20.5 -64h230q41 0 41 -41v-307q0 -41 -41 -41h-232v-594q0 -41 -41 -41h-737q-41 0 -41 41v594h-143q-41 0 -41 41v307q0 41 41 41h143q4 99 24.5 169t68 125t123 86t193 45.5t273.5 10t369 -25.5q41 -3 41 -43v-248 q0 -43 -47 -37z" />
<glyph unicode="g" horiz-adv-x="1992" d="M2017 1001q24 -41 -20 -53l-180 -51q57 -45 80.5 -110t23.5 -158q0 -77 -12.5 -128t-51 -93.5t-99.5 -66.5t-168.5 -40.5t-247.5 -22.5t-347 -6q-277 0 -491 27q-36 -7 -67 -22t-31 -31q0 -22 87 -26.5t502 -4.5q165 0 273.5 -1.5t213.5 -7t167 -14t119.5 -25.5 t85.5 -37.5t50 -53.5t28.5 -71.5t6.5 -92.5q0 -50 -10.5 -88t-38 -74t-75 -61.5t-121.5 -47t-177.5 -34.5t-243.5 -20t-319 -7q-197 0 -332 5.5t-237.5 21t-162 36.5t-97 59.5t-50.5 82.5t-16 111q0 41 41 41l754 -3q37 0 43 -40q1 -34 20 -44t78 -10q57 0 83 17t26 57 q0 44 -40 64t-151 20q-140 0 -238.5 1t-188.5 4.5t-147 9t-106 15.5t-75.5 22t-45.5 30.5t-25.5 40t-6.5 51.5q0 67 32.5 115.5t92.5 93.5q-85 45 -119.5 106t-34.5 142q0 77 15 131.5t54 102.5t106 78t172.5 52t251.5 31.5t345 9.5q210 0 363 -12l489 166q37 13 56 -19z M989 492q65 0 84 32t19 125q0 72 -19.5 98.5t-83.5 26.5q-65 0 -86.5 -27t-21.5 -98q0 -92 21 -124.5t87 -32.5z" />
<glyph unicode="h" d="M1393 1044q77 0 139 -5.5t110.5 -15.5t86 -27.5t64 -36.5t45.5 -48t30 -57.5t17.5 -69t8.5 -78t2 -88.5v-577q0 -41 -41 -41h-737q-41 0 -41 41v487q0 67 -7.5 92t-31.5 25q-56 0 -90.5 -71.5t-34.5 -225.5v-307q0 -41 -41 -41h-737q-41 0 -41 41v1352q0 41 41 41h737 q41 0 41 -41v-547q127 198 480 198z" />
<glyph unicode="i" horiz-adv-x="1024" d="M934 1167q0 -41 -41 -41h-758q-41 0 -41 41v226q0 41 41 41h758q41 0 41 -41v-226zM934 41q0 -41 -41 -41h-758q-41 0 -41 41v942q0 41 41 41h758q41 0 41 -41v-942z" />
<glyph unicode="j" horiz-adv-x="1024" d="M934 1167q0 -41 -41 -41h-758q-41 0 -41 41v226q0 41 41 41h758q41 0 41 -41v-226zM934 -369q0 -41 -41 -41h-758q-41 0 -41 41v1352q0 41 41 41h758q41 0 41 -41v-1352z" />
<glyph unicode="k" horiz-adv-x="2048" d="M1999 49q15 -22 7.5 -35.5t-32.5 -13.5h-774q-31 0 -49 27l-131 194l-127 -65v-115q0 -41 -41 -41h-737q-41 0 -41 41v1352q0 41 41 41h737q41 0 41 -41v-574l-6 -139l61 106l162 213q19 25 49 25h772q26 0 34 -15.5t-9 -35.5l-348 -400z" />
<glyph unicode="l" horiz-adv-x="1024" d="M934 41q0 -41 -41 -41h-758q-41 0 -41 41v1352q0 41 41 41h758q41 0 41 -41v-1352z" />
<glyph unicode="m" horiz-adv-x="2908" d="M2335 1044q82 0 147 -6.5t114 -21t85 -33t60.5 -47.5t39.5 -59t23.5 -74t11 -85.5t2.5 -99.5v-577q0 -41 -41 -41h-717q-41 0 -41 41v508q0 40 -0.5 56t-4 33.5t-11.5 22.5t-23 5q-57 0 -85.5 -95t-28.5 -264v-266q0 -41 -41 -41h-717q-41 0 -41 41v508q0 40 -0.5 56 t-4 33.5t-11.5 22.5t-23 5q-57 0 -86 -95t-29 -264v-266q0 -41 -41 -41h-737q-41 0 -41 41v942q0 41 41 41h737q41 0 41 -41v-141q117 202 469 202q159 0 258 -27t146 -76t65 -130q22 48 58.5 88t93.5 73.5t141.5 52.5t190.5 19z" />
<glyph unicode="n" horiz-adv-x="1986" d="M1393 1044q77 0 139 -5.5t110.5 -15.5t86 -27.5t64 -36.5t45.5 -48t30 -57.5t17.5 -69t8.5 -78t2 -88.5v-577q0 -41 -41 -41h-737q-41 0 -41 41v487q0 67 -7.5 92t-31.5 25q-56 0 -90.5 -71.5t-34.5 -225.5v-307q0 -41 -41 -41h-737q-41 0 -41 41v942q0 41 41 41h737 q41 0 41 -41v-137q127 198 480 198z" />
<glyph unicode="o" horiz-adv-x="2027" d="M1960 506q0 117 -25 200t-86.5 150t-169.5 106.5t-270.5 60.5t-392.5 21q-192 0 -337 -14t-250 -44t-174 -72t-109.5 -105t-57 -135t-16.5 -168q0 -97 16.5 -168t57 -132.5t109 -102t173.5 -69t249.5 -41.5t338.5 -13q233 0 397 20.5t271 59t168 104.5t84.5 146.5 t23.5 195.5zM1016 696q62 0 85 -49.5t23 -140.5q0 -97 -22 -137.5t-86 -40.5t-86.5 41t-22.5 137q0 90 23.5 140t85.5 50z" />
<glyph unicode="p" horiz-adv-x="2048" d="M1413 1044q129 0 217.5 -14.5t156 -49t106 -96t57 -150.5t18.5 -218q0 -162 -26.5 -263.5t-94 -163.5t-169.5 -85.5t-265 -23.5q-318 0 -500 141v-490q0 -41 -41 -41h-737q-41 0 -41 41v1352q0 41 41 41h737q41 0 41 -41v-82q180 143 500 143zM1061 328q52 0 80 40.5 t28 147.5q0 98 -27.5 139t-80.5 41q-60 0 -114 -51t-54 -139q0 -77 54.5 -127.5t113.5 -50.5z" />
<glyph unicode="q" horiz-adv-x="2048" d="M1927 1024q41 0 41 -41v-1352q0 -41 -41 -41h-737q-41 0 -41 41v490q-182 -141 -500 -141q-163 0 -265 23.5t-169.5 85.5t-94 163.5t-26.5 263.5q0 129 18.5 218t57 150.5t106 96t156 49t217.5 14.5q320 0 500 -143v82q0 41 41 41h737zM1001 328q59 0 113.5 50.5 t54.5 127.5q0 88 -54 139t-114 51q-53 0 -80.5 -41t-27.5 -139q0 -107 28 -147.5t80 -40.5z" />
<glyph unicode="r" horiz-adv-x="1443" d="M1389 1055q43 0 43 -41v-398q0 -41 -43 -41q-122 -1 -201 -10.5t-131 -26.5t-78 -50.5t-35.5 -74t-9.5 -106.5v-266q0 -41 -41 -41h-758q-41 0 -41 41v942q0 41 41 41h758q41 0 41 -41v-158q59 93 174 157.5t281 72.5z" />
<glyph unicode="s" horiz-adv-x="1925" d="M1870 317q0 -65 -14.5 -111.5t-53 -86t-102.5 -64.5t-165 -42.5t-238.5 -25t-325.5 -7.5q-273 0 -443.5 17t-269 59.5t-136 102t-42.5 156.5q-3 41 39 41h688q35 0 41 -41q6 -38 31.5 -50.5t89.5 -12.5q63 0 86.5 15t23.5 48q0 27 -34 42.5t-91.5 22t-132 9t-157 7 t-164.5 13.5t-156.5 31t-132 55.5t-91.5 91.5t-34 136q0 82 37.5 138t134 99.5t273.5 63.5t444 20q214 0 361 -11.5t246 -34t154.5 -63t79 -91.5t27.5 -127q3 -41 -39 -41h-684q-35 0 -41 41q-6 37 -30.5 49t-83.5 12q-57 0 -78 -14.5t-21 -48.5q0 -30 34.5 -48t92.5 -24.5 t133.5 -9t158.5 -6.5t166 -11t158.5 -27t133.5 -52t92.5 -88t34.5 -132z" />
<glyph unicode="t" horiz-adv-x="1372" d="M1038 637v-143q-2 -34 0 -61t4 -47t12.5 -33t24.5 -21t40.5 -10.5t60.5 -1t84 7.5q47 6 47 -37v-248q0 -38 -80 -47q-218 -21 -375 -23t-272 18t-185.5 56t-112 102t-55.5 145t-12 195v148h-143q-41 0 -41 41v307q0 41 41 41h143v367q0 41 41 41h737q41 0 41 -41v-367 h232q41 0 41 -41v-307q0 -41 -41 -41h-232z" />
<glyph unicode="u" d="M1855 1024q41 0 41 -41v-942q0 -41 -41 -41h-737q-41 0 -41 41v137q-127 -198 -479 -198q-77 0 -139 5.5t-110.5 15.5t-86 27.5t-64.5 36.5t-45.5 48t-30 57.5t-18 69t-8.5 78t-2 88.5v577q0 41 41 41h737q41 0 41 -41v-487q0 -67 7.5 -92t31.5 -25q56 0 90.5 71.5 t34.5 225.5v307q0 41 41 41h737z" />
<glyph unicode="v" horiz-adv-x="1939" d="M1886 1024q23 0 32.5 -12.5t0.5 -34.5l-424 -946q-12 -31 -49 -31h-954q-38 0 -50 31l-422 946q-9 22 0.5 34.5t32.5 12.5h735q37 0 46 -35l94 -383l41 -256l41 256l94 383q9 35 45 35h737z" />
<glyph unicode="w" horiz-adv-x="2557" d="M2511 1024q22 0 32 -12.5t5 -32.5l-211 -942q-10 -37 -45 -37h-869q-39 0 -45 37l-55 262l-25 217l-24 -217l-55 -262q-6 -37 -45 -37h-867q-38 0 -47 35l-248 944q-6 20 3.5 32.5t31.5 12.5h672q40 0 43 -39l76 -618l26 196l97 424q10 37 45 37h589q39 0 45 -37l93 -424 l26 -196l76 618q3 39 43 39h633z" />
<glyph unicode="x" horiz-adv-x="1966" d="M1565 512l387 -461q17 -22 9.5 -36.5t-34.5 -14.5h-733q-33 0 -51 27l-125 192l-33 76l-35 -76l-119 -192q-16 -27 -49 -27h-741q-26 0 -33 15.5t10 35.5l392 463l-390 459q-17 20 -10 35.5t33 15.5h733q31 0 49 -27l125 -190l35 -76l33 76l125 190q18 27 51 27h735 q26 0 33 -14.5t-10 -36.5z" />
<glyph unicode="y" horiz-adv-x="2107" d="M2052 1024q23 0 31.5 -14.5t-2.5 -34.5l-748 -1356q-15 -29 -49 -29h-733q-23 0 -31.5 14t0.5 36l146 307l-631 1028q-12 22 -5 35.5t31 13.5h781q36 0 45 -35l143 -450l23 -142l24 142l160 452q11 33 47 33h768z" />
<glyph unicode="z" horiz-adv-x="1656" d="M1571 754l-342 -283l-182 -102h507q41 0 41 -41v-287q0 -41 -41 -41h-1411q-41 0 -41 41v180q0 32 25 51l342 283l176 100h-487q-41 0 -41 41v287q0 41 41 41h1396q41 0 41 -41v-180q0 -31 -24 -49z" />
<glyph unicode="{" horiz-adv-x="1228" d="M932 184q0 -58 24 -78t88 -20q41 0 41 -41v-276q0 -41 -41 -41h-356q-76 0 -129 7t-93 25.5t-64 44.5t-38.5 70t-20 97t-5.5 130v238q0 102 -29 131t-125 29q-41 0 -41 41v348q0 41 21 41h20q67 0 97 12t43.5 49.5t13.5 118.5v221q0 93 8.5 152.5t29.5 105.5t62 70 t100 35.5t150 11.5h356q41 0 41 -41v-276q0 -41 -20 -41h-21q-64 0 -88 -20.5t-24 -78.5v-221q0 -64 -4 -104t-17.5 -79t-38 -60.5t-66 -39t-101 -24t-144.5 -6.5q86 0 144.5 -5t101 -20t66 -34.5t37.5 -55.5t18 -75.5t4 -102.5v-238z" />
<glyph unicode="|" horiz-adv-x="727" d="M465 1655q41 0 41 -41v-2124q0 -41 -41 -41h-205q-41 0 -41 41v2124q0 41 41 41h205z" />
<glyph unicode="}" horiz-adv-x="1146" d="M215 184v238q0 63 4 102.5t18 75.5t37.5 55.5t66 34.5t101 20t144.5 5q-85 0 -144.5 6.5t-101 24t-66 39t-38 60.5t-17.5 79t-4 104v221q0 58 -24.5 78.5t-88.5 20.5h-20q-21 0 -21 41v276q0 41 41 41h357q91 0 150 -11.5t100 -35.5t62 -70t29.5 -105.5t8.5 -152.5v-221 q0 -81 13.5 -118.5t43.5 -49.5t97 -12h20q21 0 21 -41v-348q0 -41 -41 -41q-96 0 -125 -29t-29 -131v-238q0 -77 -5.5 -130t-20 -97t-38.5 -70t-64 -44.5t-93 -25.5t-129 -7h-357q-41 0 -41 41v276q0 41 41 41q64 0 88.5 20.5t24.5 77.5z" />
<glyph unicode="~" horiz-adv-x="1216" d="M1118 657q27 -27 6 -57q-66 -93 -144.5 -143.5t-156.5 -50.5q-66 0 -116.5 17.5t-126.5 61.5q-37 24 -58 36t-55 23t-68 11q-53 0 -95.5 -30t-88.5 -85q-26 -33 -57 -2l-72 70q-27 27 -6 57q57 83 146 138t182 55q70 0 121 -18t104 -50q54 -34 74 -45.5t49.5 -22 t58.5 -10.5q87 0 174 111q27 35 58 4z" />
<glyph unicode="&#xa1;" horiz-adv-x="1085" d="M881 717h-676q-41 0 -41 41v225q0 41 41 41h676q41 0 41 -41v-225q0 -41 -41 -41zM901 -410h-717q-41 0 -41 41v369l78 575q6 39 43 39h557q37 0 43 -39l78 -575v-369q0 -41 -41 -41z" />
<glyph unicode="&#xa2;" horiz-adv-x="1986" d="M1874 453q42 0 39 -41q-6 -96 -35.5 -164t-95.5 -121.5t-176.5 -85.5t-274.5 -47l25 -361q3 -43 -39 -43h-610q-42 0 -39 43l24 357q-161 14 -277.5 47.5t-186 78t-110 109t-54 129.5t-13.5 152q0 85 13.5 150.5t54.5 131.5t110 112.5t186 81.5t277 50l-24 359 q-3 43 39 43h610q42 0 39 -43l-25 -359q172 -13 283.5 -42t175.5 -81t90.5 -118t32.5 -166q3 -41 -39 -41l-752 -2q-37 0 -43 41q-8 51 -27 72.5t-57 21.5q-63 0 -85.5 -52.5t-22.5 -158.5q0 -111 21.5 -155t86.5 -44q80 0 88 117q3 29 41 29h750z" />
<glyph unicode="&#xa3;" horiz-adv-x="2048" d="M1905 410q41 0 41 -41v-328q0 -41 -41 -41h-1762q-41 0 -41 41v328q0 41 41 41h64q40 0 65.5 10.5t37 32t15.5 41t5 49.5h-187q-41 0 -41 41v184q0 41 41 41h187v168q0 81 8.5 141.5t30 117t59.5 96t96.5 72t142 51.5t194.5 29.5t255 10.5q163 0 283 -12.5t207.5 -41 t143.5 -68t89.5 -101.5t47.5 -133.5t16 -171.5q0 -41 -41 -41h-605q-40 0 -40 43q-4 106 -29.5 142t-71.5 36q-32 0 -52 -14.5t-34 -67.5t-14 -150v-106h540q41 0 41 -41v-184q0 -41 -41 -41h-540q0 -40 -4.5 -65.5t-23.5 -46.5t-54 -21h971z" />
<glyph unicode="&#xa4;" horiz-adv-x="1331" d="M1069 154q-13 -14 -29 -12.5t-28 18.5l-113 143q-92 -72 -235 -72q-142 0 -234 72l-111 -143q-27 -33 -57 -6l-86 79q-30 30 -4 60l125 135q-92 122 -92 287q0 180 92 286l-121 119q-28 28 2 58l84 82q29 29 57 -5l109 -131q93 78 236 78q150 0 237 -76l111 131 q12 15 29 16t30 -13l82 -82q29 -29 0 -58l-121 -121q94 -101 94 -284q0 -80 -26 -155.5t-70 -129.5l127 -137q27 -31 -2 -60zM662 993q-95 0 -158.5 -80t-63.5 -198q0 -120 64 -197.5t162 -77.5t161.5 77.5t63.5 197.5q0 118 -64 198t-161 80h-4z" />
<glyph unicode="&#xa5;" horiz-adv-x="1904" d="M1882 1434q25 0 33 -15t-6 -35l-383 -536h203q40 0 40 -41v-170q0 -41 -40 -41h-345v-82h345q40 0 40 -41v-170q0 -41 -40 -41h-345v-221q0 -41 -41 -41h-796q-41 0 -41 41v221h-324q-41 0 -41 41v170q0 41 41 41h324v82h-324q-41 0 -41 41v170q0 41 41 41h189l-389 536 q-15 20 -8 35t32 15h688q32 0 47 -29l144 -272l59 -156l60 156l143 272q15 29 47 29h688z" />
<glyph unicode="&#xa6;" horiz-adv-x="727" d="M465 1491q41 0 41 -41v-692q0 -41 -41 -41h-205q-41 0 -41 41v692q0 41 41 41h205zM465 385q41 0 41 -41v-688q0 -41 -41 -41h-205q-41 0 -41 41v688q0 41 41 41h205z" />
<glyph unicode="&#xa7;" horiz-adv-x="2134" d="M2052 473q8 68 -44 116.5t-174.5 83.5t-306.5 56.5t-454 34.5q-537 27 -766 112.5t-229 274.5q0 57 16 99.5t57 80.5t112.5 63.5t182 44.5t267 27.5t364.5 8.5t359 -8.5t263.5 -29.5t183 -51t114 -77.5t61.5 -103.5t21 -136q0 -41 -41 -41h-746q-37 0 -43 39 q-7 51 -44 67.5t-138 16.5q-95 0 -127.5 -17.5t-32.5 -58.5q0 -28 40 -46t107.5 -28t155 -16.5t184 -15t193 -20t184 -35.5t155 -57.5t107.5 -89t40 -128.5q0 -94 -21 -166zM104 981q-8 -67 44 -115.5t172.5 -83.5t303.5 -57t451 -35q543 -27 773.5 -112t230.5 -275 q0 -57 -16 -100t-57 -82t-113 -65.5t-182 -46.5t-267 -29t-365 -9t-359.5 9t-263 31t-182 52.5t-114 79t-61.5 105.5t-21 137q0 41 41 41h745q37 0 43 -39q7 -50 44.5 -67t138.5 -17q95 0 127 17.5t32 58.5q0 35 -64.5 55t-167 29.5t-226.5 18t-248.5 27.5t-227 51.5 t-167 97.5t-64.5 157q0 97 20 166z" />
<glyph unicode="&#xac;" horiz-adv-x="1216" d="M934 231q-41 0 -41 41v392h-752q-41 0 -41 41v126q0 41 41 41h932q41 0 41 -41v-559q0 -41 -41 -41h-139z" />
<glyph unicode="&#xad;" horiz-adv-x="1290" d="M1147 348q0 -41 -41 -41h-922q-41 0 -41 41v348q0 41 41 41h922q41 0 41 -41v-348z" />
<glyph unicode="&#xb0;" horiz-adv-x="837" d="M416 1468q143 0 236 -98t93 -242q0 -157 -95 -248.5t-236 -91.5t-236.5 91.5t-95.5 248.5q0 153 96.5 246.5t235.5 93.5h2zM412 1333q-71 0 -115.5 -57t-44.5 -148q0 -90 46 -148t118 -58t115.5 56t43.5 144q0 92 -41 151.5t-120 59.5h-2z" />
<glyph unicode="&#xb1;" horiz-adv-x="1216" d="M717 678v-352q0 -41 -41 -41h-139q-41 0 -41 41v352h-355q-41 0 -41 41v131q0 41 41 41h355v334q0 41 41 41h139q41 0 41 -41v-334h352q41 0 41 -41v-131q0 -41 -41 -41h-352zM145 -18q-41 0 -41 41v127q0 40 41 40h926q41 0 41 -40v-127q0 -41 -41 -41h-926z" />
<glyph unicode="&#xb6;" horiz-adv-x="1300" d="M539 -102q-41 0 -41 41v630h-35q-51 0 -104 14.5t-105 48t-92.5 81.5t-65.5 121t-24 161q1 114 43 202.5t128 154.5t226 100.5t328 34.5q191 0 311 -19q35 -6 35 -45v-1484q0 -41 -41 -41h-160q-41 0 -41 41v1318h-162v-1318q0 -41 -41 -41h-159z" />
<glyph unicode="&#xb7;" horiz-adv-x="778" d="M676 348q0 -41 -41 -41h-492q-41 0 -41 41v348q0 41 41 41h492q41 0 41 -41v-348z" />
<glyph unicode="&#xbc;" horiz-adv-x="3444" d="M2302 1495q25 0 33 -14.5t-4 -34.5l-838 -1442q-16 -29 -49 -29h-367q-24 0 -32 15t4 35l841 1441q16 29 49 29h363zM1198 565q0 -26 -27 -26h-862q-26 0 -26 26v217q0 25 26 25h178v311l-176 -106q-12 -9 -21 -4t-9 20v266q0 19 20 29l225 104q15 9 33 9h434 q25 0 25 -27v-602h153q27 0 27 -25v-217zM3246 391q27 0 27 -26v-193q0 -25 -27 -25h-90v-120q0 -27 -25 -27h-467q-26 0 -26 27v120h-602q-27 0 -27 25v203q0 17 14 31l445 477q14 14 31 14h632q25 0 25 -27v-479h90zM2593 504l-111 -113h162v101l18 100z" />
<glyph unicode="&#xbd;" horiz-adv-x="3547" d="M2302 1495q25 0 33 -14.5t-4 -34.5l-838 -1442q-16 -29 -49 -29h-367q-24 0 -32 15t4 35l841 1441q16 29 49 29h363zM1198 565q0 -26 -27 -26h-862q-26 0 -26 26v217q0 25 26 25h178v311l-176 -106q-12 -9 -21 -4t-9 20v266q0 19 20 29l225 104q15 9 33 9h434 q25 0 25 -27v-602h153q27 0 27 -25v-217zM3297 268q27 0 27 -24v-217q0 -27 -27 -27h-1157q-26 0 -26 27v145q0 77 23.5 135.5t63.5 93.5t92 58.5t109 34.5t114 18t109 12.5t92 14t63.5 26t23.5 45.5q0 62 -84 62q-54 0 -69 -12.5t-17 -57.5q0 -27 -27 -27h-459 q-24 0 -24 25q2 64 12 107.5t36 80t67 58t109.5 36.5t158.5 21t217 6q149 0 255 -12t175 -35t109 -61t55.5 -84t15.5 -111q0 -79 -32.5 -135.5t-86 -85.5t-119 -46.5t-135.5 -24.5t-131 -13t-110.5 -18t-69.5 -33l191 18h456z" />
<glyph unicode="&#xbe;" horiz-adv-x="3694" d="M2552 1495q24 0 32 -14.5t-4 -34.5l-837 -1442q-16 -29 -49 -29h-367q-25 0 -33 15t4 35l842 1441q16 29 49 29h363zM1511 791q0 -49 -12 -84t-50 -70t-104.5 -56.5t-180 -35t-271.5 -13.5q-160 0 -264.5 10t-174.5 29.5t-106 57.5t-50.5 85.5t-16.5 123.5q0 24 26 24 h471q27 0 27 -24q3 -46 20 -61t68 -15q76 0 76 67q0 42 -22 61t-54 19h-264q-25 0 -25 25v129q0 24 25 24h264q20 0 30 1.5t24.5 7t21 20.5t6.5 39q0 38 -20.5 53t-67.5 15q-38 0 -52 -13t-16 -49q-3 -24 -28 -24h-472q-26 0 -26 24q2 72 16.5 118t50 82.5t104 55t169 28 t254.5 9.5q160 0 274 -12.5t180 -32t103.5 -53t49 -67.5t11.5 -83q0 -97 -45 -162q-19 -24 -74 -53q55 -25 74 -47q51 -59 51 -153zM3496 391q27 0 27 -26v-193q0 -25 -27 -25h-90v-120q0 -27 -25 -27h-467q-26 0 -26 27v120h-602q-27 0 -27 25v203q0 17 14 31l445 477 q14 14 30 14h633q25 0 25 -27v-479h90zM2843 504l-111 -113h162v101l18 100z" />
<glyph unicode="&#xbf;" horiz-adv-x="2201" d="M797 983q0 41 41 41h704q41 0 41 -41v-205q0 -41 -41 -41h-704q-41 0 -41 41v205zM2017 104q41 0 41 -41q-3 -98 -22.5 -169.5t-64.5 -129.5t-115 -96t-177.5 -63t-248 -36t-330.5 -11q-147 0 -269.5 8.5t-214.5 22.5t-164.5 37.5t-122 49t-85 61t-55 69t-30.5 78.5 t-14 83t-2 90q0 48 5 89.5t20 90.5t39 88t65.5 76.5t96.5 62.5t135.5 40.5t179.5 15.5q63 0 85.5 18.5t25.5 75.5q3 41 43 41h704q41 0 41 -41v-86q0 -96 -22.5 -158.5t-73.5 -100t-124.5 -52t-186.5 -14.5q-57 0 -94.5 -5t-60 -13.5t-33.5 -26t-14 -35.5t-3 -49 q0 -80 12.5 -117.5t38.5 -49t82 -11.5q74 0 98.5 38.5t26.5 126.5q0 41 41 41z" />
<glyph unicode="&#xc0;" horiz-adv-x="2232" d="M565 1772q-21 20 -14 35.5t35 15.5h592q31 0 51 -23l223 -254q17 -20 9 -35.5t-34 -15.5h-538q-28 0 -49 21zM2202 47q7 -22 -2 -34.5t-31 -12.5h-785q-36 0 -45 35l-34 151h-394l-34 -153q-9 -35 -46 -35l-784 2q-22 0 -31 12.5t-2 34.5l492 1354q11 33 47 33h1110 q36 0 47 -33zM997 555h220l-89 377l-20 147l-23 -147z" />
<glyph unicode="&#xc1;" horiz-adv-x="2232" d="M856 1495q-26 0 -34 15.5t9 35.5l224 254q20 23 51 23h592q28 0 34.5 -15.5t-14.5 -35.5l-274 -256q-21 -21 -49 -21h-539zM2202 47q7 -22 -2 -34.5t-31 -12.5h-785q-36 0 -45 35l-34 151h-394l-34 -153q-9 -35 -46 -35l-784 2q-22 0 -31 12.5t-2 34.5l492 1354 q11 33 47 33h1110q36 0 47 -33zM997 555h220l-89 377l-20 147l-23 -147z" />
<glyph unicode="&#xc2;" horiz-adv-x="2232" d="M600 1495q-25 0 -32.5 13.5t7.5 35.5l220 295q17 25 49 25h545q32 0 49 -25l219 -295q15 -22 7.5 -35.5t-32.5 -13.5h-379q-28 0 -51 23l-86 92l-86 -92q-23 -23 -51 -23h-379zM2202 47q7 -22 -2 -34.5t-31 -12.5h-785q-36 0 -45 35l-34 151h-394l-34 -153 q-9 -35 -46 -35l-784 2q-22 0 -31 12.5t-2 34.5l492 1354q11 33 47 33h1110q36 0 47 -33zM997 555h220l-89 377l-20 147l-23 -147z" />
<glyph unicode="&#xc3;" horiz-adv-x="2232" d="M647 1542q-43 -29 -43 21v176q0 28 17 51q65 68 182 68q74 0 159 -18.5t150 -40t149 -40t156 -18.5q95 0 166 47q45 28 45 -19v-178q0 -31 -18 -49q-33 -32 -85.5 -49.5t-99.5 -17.5q-91 0 -200 29t-217 58t-197 29q-94 0 -164 -49zM2202 47q7 -22 -2 -34.5t-31 -12.5 h-785q-36 0 -45 35l-34 151h-394l-34 -153q-9 -35 -46 -35l-784 2q-22 0 -31 12.5t-2 34.5l492 1354q11 33 47 33h1110q36 0 47 -33zM997 555h220l-89 377l-20 147l-23 -147z" />
<glyph unicode="&#xc4;" horiz-adv-x="2232" d="M580 1495q-41 0 -41 41v205q0 41 41 41h430q41 0 41 -41v-205q0 -41 -41 -41h-430zM1221 1495q-41 0 -41 41v205q0 41 41 41h430q41 0 41 -41v-205q0 -41 -41 -41h-430zM2202 47q7 -22 -2 -34.5t-31 -12.5h-785q-36 0 -45 35l-34 151h-394l-34 -153q-9 -35 -46 -35 l-784 2q-22 0 -31 12.5t-2 34.5l492 1354q11 33 47 33h1110q36 0 47 -33zM997 555h220l-89 377l-20 147l-23 -147z" />
<glyph unicode="&#xc5;" horiz-adv-x="2232" d="M2202 47q7 -22 -2 -34.5t-31 -12.5h-785q-36 0 -45 35l-34 151h-394l-34 -153q-9 -35 -46 -35l-784 2q-22 0 -31 12.5t-2 34.5l492 1354q11 33 47 33h266q-61 89 -61 200q0 148 105 253.5t253 105.5t253.5 -105.5t105.5 -253.5q0 -109 -62 -200h250q36 0 47 -33z M1116 1698q-26 0 -44.5 -19t-18.5 -45t18.5 -44.5t44.5 -18.5t45 18.5t19 44.5t-19 45t-45 19zM997 555h220l-89 377l-20 147l-23 -147z" />
<glyph unicode="&#xc6;" horiz-adv-x="2902" d="M874 33q-9 -35 -45 -35l-782 2q-22 0 -31 12.5t-2 34.5l492 1354q11 33 47 33h2206q41 0 41 -41v-308q0 -41 -41 -41h-922l37 -153h885q41 0 41 -41v-266q0 -41 -41 -41h-801l41 -154h760q41 0 41 -41v-307q0 -41 -41 -41h-1375q-41 0 -41 6v4l-40 176h-390zM997 555h222 l-91 377l-20 149l-23 -149z" />
<glyph unicode="&#xc7;" horiz-adv-x="2211" d="M2116 614q41 0 38 -41q-5 -94 -21.5 -167t-51 -138.5t-89.5 -113.5t-135 -86t-189.5 -61.5t-250.5 -35.5l-133 -276q-13 -31 -47 -31h-600q-25 0 -32.5 13.5t7.5 35.5l199 262q-176 20 -307 69t-211.5 114.5t-129.5 158t-67 188t-18 216.5q0 95 12 173.5t42.5 156.5 t80.5 138t129.5 112t186 86t252.5 53.5t327 19.5q215 0 372.5 -13t273 -43t189.5 -72t120 -108.5t66 -143.5t25 -185q3 -41 -38 -41l-770 2q-37 0 -43 41q-10 86 -47.5 114.5t-127.5 28.5q-60 0 -95.5 -15.5t-54.5 -57t-24.5 -95.5t-5.5 -151q0 -84 3.5 -133.5t13.5 -90.5 t31 -60t52 -28.5t80 -9.5q100 0 135 33.5t44 140.5q3 41 41 41h768z" />
<glyph unicode="&#xc8;" horiz-adv-x="1998" d="M449 1812q-21 20 -14.5 36t34.5 16h592q31 0 51 -23l223 -254q17 -20 9.5 -35.5t-33.5 -15.5h-539q-29 0 -49 20zM1855 1044h-942v-153h942q41 0 41 -41v-266q0 -41 -41 -41h-942v-154h942q41 0 41 -41v-307q0 -41 -41 -41h-1699q-41 0 -41 41v1352q0 41 41 41h1699 q41 0 41 -41v-308q0 -41 -41 -41z" />
<glyph unicode="&#xc9;" horiz-adv-x="1998" d="M739 1536q-26 0 -33.5 15.5t9.5 35.5l223 254q20 23 51 23h592q28 0 35 -16t-14 -36l-275 -256q-20 -20 -49 -20h-539zM1855 1044h-942v-153h942q41 0 41 -41v-266q0 -41 -41 -41h-942v-154h942q41 0 41 -41v-307q0 -41 -41 -41h-1699q-41 0 -41 41v1352q0 41 41 41h1699 q41 0 41 -41v-308q0 -41 -41 -41z" />
<glyph unicode="&#xca;" horiz-adv-x="1998" d="M483 1536q-25 0 -32 13.5t8 35.5l219 295q17 25 49 25h545q32 0 49 -25l219 -295q15 -22 8 -35.5t-32 -13.5h-379q-29 0 -52 23l-86 92l-86 -92q-23 -23 -51 -23h-379zM1855 1044h-942v-153h942q41 0 41 -41v-266q0 -41 -41 -41h-942v-154h942q41 0 41 -41v-307 q0 -41 -41 -41h-1699q-41 0 -41 41v1352q0 41 41 41h1699q41 0 41 -41v-308q0 -41 -41 -41z" />
<glyph unicode="&#xcb;" horiz-adv-x="1998" d="M463 1536q-41 0 -41 41v205q0 41 41 41h430q41 0 41 -41v-205q0 -41 -41 -41h-430zM1104 1536q-41 0 -41 41v205q0 41 41 41h430q41 0 41 -41v-205q0 -41 -41 -41h-430zM1855 1044h-942v-153h942q41 0 41 -41v-266q0 -41 -41 -41h-942v-154h942q41 0 41 -41v-307 q0 -41 -41 -41h-1699q-41 0 -41 41v1352q0 41 41 41h1699q41 0 41 -41v-308q0 -41 -41 -41z" />
<glyph unicode="&#xcc;" horiz-adv-x="1148" d="M911 1567q17 -20 9.5 -35.5t-33.5 -15.5h-539q-29 0 -49 20l-274 256q-21 20 -14.5 35.5t34.5 15.5h592q32 0 51 -22zM1026 41q0 -41 -41 -41h-809q-41 0 -41 41v1352q0 41 41 41h809q41 0 41 -41v-1352z" />
<glyph unicode="&#xcd;" horiz-adv-x="1148" d="M315 1516q-26 0 -33.5 15.5t9.5 35.5l223 254q19 22 51 22h592q28 0 35 -15.5t-14 -35.5l-275 -256q-20 -20 -49 -20h-539zM1026 41q0 -41 -41 -41h-809q-41 0 -41 41v1352q0 41 41 41h809q41 0 41 -41v-1352z" />
<glyph unicode="&#xce;" horiz-adv-x="1148" d="M59 1516q-25 0 -32 13.5t8 35.5l219 295q16 24 49 24h545q33 0 49 -24l219 -295q15 -22 8 -35.5t-32 -13.5h-379q-29 0 -51 22l-87 92l-86 -92q-22 -22 -51 -22h-379zM1026 41q0 -41 -41 -41h-809q-41 0 -41 41v1352q0 41 41 41h809q41 0 41 -41v-1352z" />
<glyph unicode="&#xcf;" horiz-adv-x="1148" d="M510 1556q0 -40 -41 -40h-430q-41 0 -41 40v205q0 41 41 41h430q41 0 41 -41v-205zM1151 1556q0 -40 -41 -40h-430q-41 0 -41 40v205q0 41 41 41h430q41 0 41 -41v-205zM1026 41q0 -41 -41 -41h-809q-41 0 -41 41v1352q0 41 41 41h809q41 0 41 -41v-1352z" />
<glyph unicode="&#xd0;" horiz-adv-x="2170" d="M1067 1434q244 0 420.5 -27t297 -80t192 -140.5t102 -198t30.5 -263.5q0 -147 -30 -257t-102.5 -201t-191.5 -148t-297.5 -88t-420.5 -31h-901q-41 0 -41 41v502h-78q-41 0 -41 41v266q0 41 41 41h78v502q0 41 41 41h901zM1087 420q113 0 160 78.5t47 226.5 q0 145 -46.5 217t-160.5 72h-153v-123h143q41 0 41 -41v-266q0 -41 -41 -41h-143v-123h153z" />
<glyph unicode="&#xd1;" horiz-adv-x="2293" d="M678 1563q-43 -29 -43 20v176q0 30 16 51q65 68 183 68q74 0 159 -18.5t150 -40t149 -40t156 -18.5q95 0 166 47q45 28 45 -18v-178q0 -30 -19 -49q-33 -32 -85.5 -50t-98.5 -18q-73 0 -158 18.5t-150.5 40t-149.5 40t-156 18.5q-94 0 -164 -49zM2144 1434q41 0 41 -41 v-1352q0 -41 -41 -41h-936q-34 0 -47 33l-282 715l34 -279l15 -428q0 -41 -39 -41h-725q-41 0 -41 41v1352q0 41 41 41h934q34 0 47 -33l289 -727l-37 295l-11 424q0 41 41 41h717z" />
<glyph unicode="&#xd2;" horiz-adv-x="2211" d="M1442 1567q17 -20 9 -35.5t-34 -15.5h-538q-30 0 -50 20l-274 256q-21 20 -14.5 35.5t34.5 15.5h592q33 0 52 -22zM1108 -41q-185 0 -336 20t-261 55t-193 89t-136 116.5t-86 142t-46 161t-13 178.5q0 95 13 173.5t46 156t86 138t136 112.5t193 86t261 53.5t336 19.5 t335.5 -19.5t260.5 -53.5t193 -86t136 -112.5t85.5 -138t45.5 -156t13 -173.5q0 -97 -13 -178.5t-46 -161t-85.5 -142t-135.5 -116.5t-193 -89t-260.5 -55t-335.5 -20zM1108 410q119 0 159 62.5t40 248.5q0 179 -41 244t-158 65q-119 0 -160 -65t-41 -244 q0 -186 40.5 -248.5t160.5 -62.5z" />
<glyph unicode="&#xd3;" horiz-adv-x="2211" d="M846 1516q-26 0 -34 15.5t9 35.5l223 254q19 22 52 22h592q28 0 34.5 -15.5t-14.5 -35.5l-274 -256q-20 -20 -50 -20h-538zM1108 -41q-185 0 -336 20t-261 55t-193 89t-136 116.5t-86 142t-46 161t-13 178.5q0 95 13 173.5t46 156t86 138t136 112.5t193 86t261 53.5 t336 19.5t335.5 -19.5t260.5 -53.5t193 -86t136 -112.5t85.5 -138t45.5 -156t13 -173.5q0 -97 -13 -178.5t-46 -161t-85.5 -142t-135.5 -116.5t-193 -89t-260.5 -55t-335.5 -20zM1108 410q119 0 159 62.5t40 248.5q0 179 -41 244t-158 65q-119 0 -160 -65t-41 -244 q0 -186 40.5 -248.5t160.5 -62.5z" />
<glyph unicode="&#xd4;" horiz-adv-x="2211" d="M590 1516q-25 0 -32.5 13.5t7.5 35.5l219 295q16 24 50 24h544q33 0 49 -24l220 -295q15 -22 7.5 -35.5t-32.5 -13.5h-379q-29 0 -51 22l-86 92l-86 -92q-22 -22 -51 -22h-379zM1108 -41q-185 0 -336 20t-261 55t-193 89t-136 116.5t-86 142t-46 161t-13 178.5 q0 95 13 173.5t46 156t86 138t136 112.5t193 86t261 53.5t336 19.5t335.5 -19.5t260.5 -53.5t193 -86t136 -112.5t85.5 -138t45.5 -156t13 -173.5q0 -97 -13 -178.5t-46 -161t-85.5 -142t-135.5 -116.5t-193 -89t-260.5 -55t-335.5 -20zM1108 410q119 0 159 62.5t40 248.5 q0 179 -41 244t-158 65q-119 0 -160 -65t-41 -244q0 -186 40.5 -248.5t160.5 -62.5z" />
<glyph unicode="&#xd5;" horiz-adv-x="2211" d="M1573 1808q45 28 45 -18v-178q0 -30 -19 -49q-33 -32 -85.5 -50t-98.5 -18q-73 0 -158 18.5t-150.5 40t-149.5 40t-156 18.5q-94 0 -164 -49q-43 -29 -43 20v176q0 30 16 51q65 68 183 68q74 0 159 -18.5t150 -40t149 -40t156 -18.5q95 0 166 47zM1108 -41 q-185 0 -336 20t-261 55t-193 89t-136 116.5t-86 142t-46 161t-13 178.5q0 95 13 173.5t46 156t86 138t136 112.5t193 86t261 53.5t336 19.5t335.5 -19.5t260.5 -53.5t193 -86t136 -112.5t85.5 -138t45.5 -156t13 -173.5q0 -97 -13 -178.5t-46 -161t-85.5 -142 t-135.5 -116.5t-193 -89t-260.5 -55t-335.5 -20zM1108 410q119 0 159 62.5t40 248.5q0 179 -41 244t-158 65q-119 0 -160 -65t-41 -244q0 -186 40.5 -248.5t160.5 -62.5z" />
<glyph unicode="&#xd6;" horiz-adv-x="2211" d="M1040 1556q0 -40 -41 -40h-430q-41 0 -41 40v205q0 41 41 41h430q41 0 41 -41v-205zM1681 1556q0 -40 -41 -40h-430q-41 0 -41 40v205q0 41 41 41h430q41 0 41 -41v-205zM1108 -41q-185 0 -336 20t-261 55t-193 89t-136 116.5t-86 142t-46 161t-13 178.5q0 95 13 173.5 t46 156t86 138t136 112.5t193 86t261 53.5t336 19.5t335.5 -19.5t260.5 -53.5t193 -86t136 -112.5t85.5 -138t45.5 -156t13 -173.5q0 -97 -13 -178.5t-46 -161t-85.5 -142t-135.5 -116.5t-193 -89t-260.5 -55t-335.5 -20zM1108 410q119 0 159 62.5t40 248.5q0 179 -41 244 t-158 65q-119 0 -160 -65t-41 -244q0 -186 40.5 -248.5t160.5 -62.5z" />
<glyph unicode="&#xd7;" horiz-adv-x="1216" d="M981 59q-27 -27 -57 2l-322 342l-319 -342q-30 -30 -58 -2l-98 95q-27 27 0 57l330 348l-326 346q-27 31 0 58l98 96q30 30 58 -2l323 -340l316 342q30 31 59 2l96 -92q27 -27 0 -58l-329 -350l327 -350q27 -30 0 -57z" />
<glyph unicode="&#xd8;" horiz-adv-x="2211" d="M2286 1417q22 9 34.5 0.5t12.5 -31.5v-364q0 -36 -31 -49l-141 -60q16 -81 16 -192q0 -97 -13 -178.5t-46 -161t-85.5 -142t-135.5 -116.5t-193 -89t-260.5 -55t-335.5 -20q-584 0 -844 201l-340 -146q-22 -9 -34.5 -0.5t-12.5 31.5v365q0 36 31 49l145 61 q-16 84 -16 201q0 95 13 173.5t46 156t86 138t136 112.5t193 86t261 53.5t336 19.5q577 0 836 -190zM1108 410q119 0 159 62.5t40 248.5q0 179 -41 244t-158 65q-119 0 -160 -65t-41 -244q0 -186 40.5 -248.5t160.5 -62.5z" />
<glyph unicode="&#xd9;" horiz-adv-x="2232" d="M1452 1567q17 -20 9 -35.5t-34 -15.5h-538q-29 0 -49 20l-275 256q-21 20 -14 35.5t35 15.5h592q32 0 51 -22zM1286 680v713q0 41 41 41h768q41 0 41 -41v-713q0 -112 -13 -199.5t-44 -165.5t-83 -134.5t-129 -102t-183 -73t-243.5 -42t-312.5 -14.5q-204 0 -358.5 18.5 t-266.5 59.5t-186 98t-118 142t-62 183.5t-18 229.5v713q0 41 41 41h768q41 0 41 -41v-713q0 -86 5 -133t23.5 -77.5t47.5 -40t83 -9.5q102 0 130 47.5t28 212.5z" />
<glyph unicode="&#xda;" horiz-adv-x="2232" d="M856 1516q-26 0 -34 15.5t9 35.5l224 254q19 22 51 22h592q28 0 34.5 -15.5t-14.5 -35.5l-274 -256q-20 -20 -49 -20h-539zM1286 680v713q0 41 41 41h768q41 0 41 -41v-713q0 -112 -13 -199.5t-44 -165.5t-83 -134.5t-129 -102t-183 -73t-243.5 -42t-312.5 -14.5 q-204 0 -358.5 18.5t-266.5 59.5t-186 98t-118 142t-62 183.5t-18 229.5v713q0 41 41 41h768q41 0 41 -41v-713q0 -86 5 -133t23.5 -77.5t47.5 -40t83 -9.5q102 0 130 47.5t28 212.5z" />
<glyph unicode="&#xdb;" horiz-adv-x="2232" d="M600 1516q-25 0 -32.5 13.5t7.5 35.5l220 295q16 24 49 24h545q33 0 49 -24l219 -295q15 -22 7.5 -35.5t-32.5 -13.5h-379q-29 0 -51 22l-86 92l-86 -92q-22 -22 -51 -22h-379zM1286 680v713q0 41 41 41h768q41 0 41 -41v-713q0 -112 -13 -199.5t-44 -165.5t-83 -134.5 t-129 -102t-183 -73t-243.5 -42t-312.5 -14.5q-204 0 -358.5 18.5t-266.5 59.5t-186 98t-118 142t-62 183.5t-18 229.5v713q0 41 41 41h768q41 0 41 -41v-713q0 -86 5 -133t23.5 -77.5t47.5 -40t83 -9.5q102 0 130 47.5t28 212.5z" />
<glyph unicode="&#xdc;" horiz-adv-x="2232" d="M1051 1556q0 -40 -41 -40h-430q-41 0 -41 40v205q0 41 41 41h430q41 0 41 -41v-205zM1692 1556q0 -40 -41 -40h-430q-41 0 -41 40v205q0 41 41 41h430q41 0 41 -41v-205zM1286 680v713q0 41 41 41h768q41 0 41 -41v-713q0 -112 -13 -199.5t-44 -165.5t-83 -134.5 t-129 -102t-183 -73t-243.5 -42t-312.5 -14.5q-204 0 -358.5 18.5t-266.5 59.5t-186 98t-118 142t-62 183.5t-18 229.5v713q0 41 41 41h768q41 0 41 -41v-713q0 -86 5 -133t23.5 -77.5t47.5 -40t83 -9.5q102 0 130 47.5t28 212.5z" />
<glyph unicode="&#xdd;" horiz-adv-x="2150" d="M815 1516q-26 0 -33.5 15.5t9.5 35.5l223 254q19 22 51 22h592q28 0 34.5 -15.5t-14.5 -35.5l-274 -256q-20 -20 -49 -20h-539zM2130 1434q25 0 33 -15t-6 -35l-650 -974v-369q0 -41 -41 -41h-796q-41 0 -41 41v377l-652 966q-14 20 -6 35t33 15h821q36 0 47 -31 l146 -352l49 -148l49 148l146 352q11 31 47 31h821z" />
<glyph unicode="&#xde;" horiz-adv-x="2048" d="M1087 1249q198 0 340.5 -9.5t254 -33.5t181 -60t114.5 -94t63 -130t18 -172q0 -115 -27 -196t-92 -144t-177 -100t-277 -55.5t-398 -18.5h-153v-195q0 -41 -41 -41h-748q-41 0 -41 41v1352q0 41 41 41h748q41 0 41 -41v-144h153zM1087 625q95 0 130.5 32t35.5 93 q0 55 -35 82.5t-131 27.5h-153v-235h153z" />
<glyph unicode="&#xdf;" horiz-adv-x="2031" d="M1702 762q104 -30 165.5 -72t94.5 -114.5t33 -182.5q0 -77 -18 -134.5t-70.5 -112t-141.5 -89.5t-237 -56t-350 -21q-180 0 -213 2q-39 3 -39 43v270q0 43 45 37q36 -4 63 -4q84 0 118 27.5t34 101.5q0 64 -16.5 96.5t-62.5 49.5t-138 20q-43 0 -43 41v204q0 41 43 41 q140 2 183.5 20t43.5 79q0 58 -35 78t-127 20q-102 0 -139 -24t-37 -85v-956q0 -41 -41 -41h-717q-41 0 -41 41v1018q0 55 9 96.5t35 84.5t70.5 74t117.5 58.5t175 44.5t244.5 27t323.5 10q177 0 316 -10t238.5 -27t171 -44.5t114.5 -58.5t68.5 -74t34 -84.5t8.5 -96.5 q0 -117 -69 -184.5t-214 -112.5z" />
<glyph unicode="&#xe0;" d="M453 1423q-21 20 -14.5 36t34.5 16h592q31 0 51 -23l223 -254q17 -20 9.5 -35.5t-33.5 -15.5h-539q-29 0 -49 20zM1886 1024q41 0 41 -41v-942q0 -41 -41 -41h-737q-41 0 -41 41v82q-180 -143 -500 -143q-129 0 -217.5 14.5t-156 49t-106 96t-57 150.5t-18.5 218 q0 162 26.5 263.5t94 163.5t169.5 85.5t265 23.5q318 0 500 -141v80q0 41 41 41h737zM961 328q60 0 113.5 51t53.5 139q0 77 -54 127.5t-113 50.5q-53 0 -81 -41t-28 -147q0 -98 28 -139t81 -41z" />
<glyph unicode="&#xe1;" d="M743 1147q-26 0 -33.5 15.5t9.5 35.5l223 254q20 23 51 23h592q28 0 35 -16t-14 -36l-275 -256q-20 -20 -49 -20h-539zM1886 1024q41 0 41 -41v-942q0 -41 -41 -41h-737q-41 0 -41 41v82q-180 -143 -500 -143q-129 0 -217.5 14.5t-156 49t-106 96t-57 150.5t-18.5 218 q0 162 26.5 263.5t94 163.5t169.5 85.5t265 23.5q318 0 500 -141v80q0 41 41 41h737zM961 328q60 0 113.5 51t53.5 139q0 77 -54 127.5t-113 50.5q-53 0 -81 -41t-28 -147q0 -98 28 -139t81 -41z" />
<glyph unicode="&#xe2;" d="M487 1147q-25 0 -32 13.5t8 35.5l219 295q17 25 49 25h545q32 0 49 -25l219 -295q15 -22 8 -35.5t-32 -13.5h-379q-29 0 -51 22l-86 93l-86 -93q-22 -22 -52 -22h-379zM1886 1024q41 0 41 -41v-942q0 -41 -41 -41h-737q-41 0 -41 41v82q-180 -143 -500 -143 q-129 0 -217.5 14.5t-156 49t-106 96t-57 150.5t-18.5 218q0 162 26.5 263.5t94 163.5t169.5 85.5t265 23.5q318 0 500 -141v80q0 41 41 41h737zM961 328q60 0 113.5 51t53.5 139q0 77 -54 127.5t-113 50.5q-53 0 -81 -41t-28 -147q0 -98 28 -139t81 -41z" />
<glyph unicode="&#xe3;" d="M535 1194q-43 -29 -43 20v177q0 30 16 51q64 67 182 67q92 0 201 -29t217 -58t197 -29q94 0 165 47q46 29 46 -19v-178q0 -30 -19 -49q-33 -32 -85.5 -50t-98.5 -18q-73 0 -158 18.5t-151 40t-150 40t-156 18.5q-93 0 -163 -49zM1886 1024q41 0 41 -41v-942 q0 -41 -41 -41h-737q-41 0 -41 41v82q-180 -143 -500 -143q-129 0 -217.5 14.5t-156 49t-106 96t-57 150.5t-18.5 218q0 162 26.5 263.5t94 163.5t169.5 85.5t265 23.5q318 0 500 -141v80q0 41 41 41h737zM961 328q60 0 113.5 51t53.5 139q0 77 -54 127.5t-113 50.5 q-53 0 -81 -41t-28 -147q0 -98 28 -139t81 -41z" />
<glyph unicode="&#xe4;" d="M467 1147q-41 0 -41 41v205q0 41 41 41h430q41 0 41 -41v-205q0 -41 -41 -41h-430zM1108 1147q-41 0 -41 41v205q0 41 41 41h430q41 0 41 -41v-205q0 -41 -41 -41h-430zM1886 1024q41 0 41 -41v-942q0 -41 -41 -41h-737q-41 0 -41 41v82q-180 -143 -500 -143 q-129 0 -217.5 14.5t-156 49t-106 96t-57 150.5t-18.5 218q0 162 26.5 263.5t94 163.5t169.5 85.5t265 23.5q318 0 500 -141v80q0 41 41 41h737zM961 328q60 0 113.5 51t53.5 139q0 77 -54 127.5t-113 50.5q-53 0 -81 -41t-28 -147q0 -98 28 -139t81 -41z" />
<glyph unicode="&#xe5;" d="M1886 1024q41 0 41 -41v-942q0 -41 -41 -41h-737q-41 0 -41 41v82q-180 -143 -500 -143q-129 0 -217.5 14.5t-156 49t-106 96t-57 150.5t-18.5 218q0 162 26.5 263.5t94 163.5t169.5 85.5t265 23.5q83 0 140 -8q-103 108 -103 250q0 148 105.5 253.5t253.5 105.5 t253 -105.5t105 -253.5q0 -75 -30.5 -143t-84.5 -119h639zM1004 1350q-26 0 -45 -19t-19 -45t19 -44.5t45 -18.5t44.5 18.5t18.5 44.5t-18.5 45t-44.5 19zM1108 944q-27 -8 -43 -10l43 -31v41zM961 328q60 0 113.5 51t53.5 139q0 77 -54 127.5t-113 50.5q-53 0 -81 -41 t-28 -147q0 -98 28 -139t81 -41z" />
<glyph unicode="&#xe6;" horiz-adv-x="3053" d="M3002 459q0 -41 -41 -41h-1005q3 -85 28.5 -118.5t94.5 -33.5q46 0 64 12t30 50q12 34 45 34h731q22 0 31.5 -11.5t5.5 -31.5q-22 -92 -71.5 -152t-153 -104t-274 -63.5t-427.5 -19.5q-478 0 -692 106q-202 -117 -702 -117q-180 0 -298 19t-188 62.5t-98.5 107 t-28.5 159.5q0 93 60 154.5t155.5 89t211.5 40t232 15t211.5 6t155.5 20.5t60 52q0 34 -23 49t-86 15q-65 0 -92 -12.5t-33 -49.5q-6 -41 -41 -41h-725q-41 0 -41 15q1 69 15.5 118.5t51.5 94t101 72.5t165 49.5t243.5 30.5t335.5 9q322 0 456 -77q215 77 594 77 q154 0 273 -6.5t214.5 -23t163.5 -38.5t118.5 -59t82 -78.5t51.5 -102.5t28 -125t11 -152zM2066 758q-52 0 -85.5 -42t-36.5 -104h243q-2 146 -121 146zM985 272q87 0 120.5 20.5t33.5 84.5v37q-140 -12 -207.5 -28t-67.5 -50q0 -33 25.5 -48.5t95.5 -15.5z" />
<glyph unicode="&#xe7;" horiz-adv-x="1986" d="M1874 453q42 0 39 -41q-6 -97 -36 -165.5t-97 -122.5t-181 -86t-284 -46l-144 -297q-13 -31 -47 -31h-600q-25 0 -32 13.5t8 35.5l209 277q-119 9 -214 28.5t-163.5 46t-118.5 63t-81 76t-49.5 90.5t-25 100.5t-6.5 111.5q0 69 9 124t34 113t67.5 101t112.5 82t165.5 64 t230.5 39.5t303 14.5q194 0 336 -9.5t246 -31.5t170 -53t107 -80.5t58.5 -106.5t22.5 -138q3 -41 -39 -41l-752 -2q-37 0 -43 41q-8 51 -27 72.5t-57 21.5q-63 0 -85.5 -52.5t-22.5 -158.5q0 -111 21.5 -155t86.5 -44q80 0 88 117q3 29 41 29h750z" />
<glyph unicode="&#xe8;" horiz-adv-x="1966" d="M432 1423q-21 20 -14 36t35 16h591q32 0 52 -23l223 -254q17 -20 9 -35.5t-34 -15.5h-538q-29 0 -49 20zM1915 459q0 -41 -41 -41h-1006q3 -85 28.5 -118.5t94.5 -33.5q46 0 64 12t30 50q12 34 45 34h732q22 0 31.5 -11.5t4.5 -31.5q-22 -92 -71.5 -152t-152.5 -104 t-273.5 -63.5t-427.5 -19.5q-169 0 -303 13.5t-230 36.5t-166 60.5t-112.5 79t-67.5 98t-34 112t-9 126.5q0 69 9 124t34 113t67.5 101t112.5 82t165.5 64t230.5 39.5t303 14.5q154 0 273 -6.5t214.5 -23t163.5 -38.5t118.5 -59t82 -78.5t51.5 -102.5t28 -125t11 -152z M979 758q-53 0 -86.5 -42t-36.5 -104h244q-2 146 -121 146z" />
<glyph unicode="&#xe9;" horiz-adv-x="1966" d="M723 1147q-26 0 -34 15.5t9 35.5l224 254q20 23 51 23h592q28 0 34.5 -16t-14.5 -36l-274 -256q-20 -20 -49 -20h-539zM1915 459q0 -41 -41 -41h-1006q3 -85 28.5 -118.5t94.5 -33.5q46 0 64 12t30 50q12 34 45 34h732q22 0 31.5 -11.5t4.5 -31.5q-22 -92 -71.5 -152 t-152.5 -104t-273.5 -63.5t-427.5 -19.5q-169 0 -303 13.5t-230 36.5t-166 60.5t-112.5 79t-67.5 98t-34 112t-9 126.5q0 69 9 124t34 113t67.5 101t112.5 82t165.5 64t230.5 39.5t303 14.5q154 0 273 -6.5t214.5 -23t163.5 -38.5t118.5 -59t82 -78.5t51.5 -102.5t28 -125 t11 -152zM979 758q-53 0 -86.5 -42t-36.5 -104h244q-2 146 -121 146z" />
<glyph unicode="&#xea;" horiz-adv-x="1966" d="M467 1147q-25 0 -32.5 13.5t7.5 35.5l220 295q17 25 49 25h544q33 0 50 -25l219 -295q15 -22 7.5 -35.5t-32.5 -13.5h-379q-29 0 -51 22l-86 93l-86 -93q-22 -22 -51 -22h-379zM1915 459q0 -41 -41 -41h-1006q3 -85 28.5 -118.5t94.5 -33.5q46 0 64 12t30 50q12 34 45 34 h732q22 0 31.5 -11.5t4.5 -31.5q-22 -92 -71.5 -152t-152.5 -104t-273.5 -63.5t-427.5 -19.5q-169 0 -303 13.5t-230 36.5t-166 60.5t-112.5 79t-67.5 98t-34 112t-9 126.5q0 69 9 124t34 113t67.5 101t112.5 82t165.5 64t230.5 39.5t303 14.5q154 0 273 -6.5t214.5 -23 t163.5 -38.5t118.5 -59t82 -78.5t51.5 -102.5t28 -125t11 -152zM979 758q-53 0 -86.5 -42t-36.5 -104h244q-2 146 -121 146z" />
<glyph unicode="&#xeb;" horiz-adv-x="1966" d="M446 1147q-40 0 -40 41v205q0 41 40 41h431q41 0 41 -41v-205q0 -41 -41 -41h-431zM1087 1147q-40 0 -40 41v205q0 41 40 41h431q41 0 41 -41v-205q0 -41 -41 -41h-431zM1915 459q0 -41 -41 -41h-1006q3 -85 28.5 -118.5t94.5 -33.5q46 0 64 12t30 50q12 34 45 34h732 q22 0 31.5 -11.5t4.5 -31.5q-22 -92 -71.5 -152t-152.5 -104t-273.5 -63.5t-427.5 -19.5q-169 0 -303 13.5t-230 36.5t-166 60.5t-112.5 79t-67.5 98t-34 112t-9 126.5q0 69 9 124t34 113t67.5 101t112.5 82t165.5 64t230.5 39.5t303 14.5q154 0 273 -6.5t214.5 -23 t163.5 -38.5t118.5 -59t82 -78.5t51.5 -102.5t28 -125t11 -152zM979 758q-53 0 -86.5 -42t-36.5 -104h244q-2 146 -121 146z" />
<glyph unicode="&#xec;" horiz-adv-x="1024" d="M848 1198q17 -20 9 -35.5t-34 -15.5h-538q-29 0 -49 20l-275 256q-21 20 -14 36t35 16h591q32 0 52 -23zM934 41q0 -41 -41 -41h-758q-41 0 -41 41v942q0 41 41 41h758q41 0 41 -41v-942z" />
<glyph unicode="&#xed;" horiz-adv-x="1024" d="M252 1147q-26 0 -34 15.5t9 35.5l224 254q20 23 51 23h592q28 0 34.5 -16t-14.5 -36l-274 -256q-20 -20 -49 -20h-539zM934 41q0 -41 -41 -41h-758q-41 0 -41 41v942q0 41 41 41h758q41 0 41 -41v-942z" />
<glyph unicode="&#xee;" horiz-adv-x="1024" d="M-4 1147q-25 0 -32.5 13.5t7.5 35.5l219 295q17 25 50 25h544q33 0 50 -25l219 -295q15 -22 7.5 -35.5t-32.5 -13.5h-379q-29 0 -51 22l-86 93l-86 -93q-22 -22 -51 -22h-379zM934 41q0 -41 -41 -41h-758q-41 0 -41 41v942q0 41 41 41h758q41 0 41 -41v-942z" />
<glyph unicode="&#xef;" horiz-adv-x="1024" d="M446 1188q0 -41 -40 -41h-431q-41 0 -41 41v205q0 41 41 41h431q40 0 40 -41v-205zM1087 1188q0 -41 -40 -41h-431q-41 0 -41 41v205q0 41 41 41h431q40 0 40 -41v-205zM934 41q0 -41 -41 -41h-758q-41 0 -41 41v942q0 41 41 41h758q41 0 41 -41v-942z" />
<glyph unicode="&#xf0;" horiz-adv-x="2013" d="M1673 1057q289 -295 289 -611q0 -93 -14.5 -158t-54 -120t-105 -88.5t-172.5 -57t-252 -33t-348 -9.5q-198 0 -346.5 12t-256 38.5t-177.5 63.5t-111 93t-57.5 120.5t-16.5 151.5q0 91 36.5 163.5t98 117t141.5 74.5t168 40t177 10t168 -11.5t142 -29.5t99 -39 q-55 90 -141 179l-563 -74q-39 -6 -45 33l-41 227q-6 41 33 47l290 37q-92 68 -225 149q-27 17 -23.5 34.5t33.5 17.5h752q24 0 51 -15q91 -58 141 -92l453 59q39 6 45 -32l41 -228q6 -41 -33 -47zM1030 219q31 0 49.5 6.5t30 16.5t16 38t6 55t1.5 83q0 39 -0.5 58.5t-4 42 t-9.5 32t-18 19t-28.5 12t-42.5 2.5q-72 0 -90 -31t-18 -135q0 -126 18 -162.5t90 -36.5z" />
<glyph unicode="&#xf1;" horiz-adv-x="1986" d="M524 1194q-43 -29 -43 20v177q0 28 17 51q64 67 182 67q92 0 201 -29t216.5 -58t196.5 -29q95 0 166 47q45 28 45 -19v-178q0 -31 -18 -49q-33 -32 -85.5 -50t-98.5 -18q-73 0 -158 18.5t-151 40t-150 40t-156 18.5q-94 0 -164 -49zM1393 1044q77 0 139 -5.5t110.5 -15.5 t86 -27.5t64 -36.5t45.5 -48t30 -57.5t17.5 -69t8.5 -78t2 -88.5v-577q0 -41 -41 -41h-737q-41 0 -41 41v487q0 67 -7.5 92t-31.5 25q-56 0 -90.5 -71.5t-34.5 -225.5v-307q0 -41 -41 -41h-737q-41 0 -41 41v942q0 41 41 41h737q41 0 41 -41v-137q127 198 480 198z" />
<glyph unicode="&#xf2;" horiz-adv-x="2027" d="M1350 1198q17 -20 9 -35.5t-34 -15.5h-539q-29 0 -49 20l-274 256q-21 20 -14.5 36t34.5 16h592q31 0 51 -23zM1960 506q0 117 -25 200t-86.5 150t-169.5 106.5t-270.5 60.5t-392.5 21q-192 0 -337 -14t-250 -44t-174 -72t-109.5 -105t-57 -135t-16.5 -168 q0 -97 16.5 -168t57 -132.5t109 -102t173.5 -69t249.5 -41.5t338.5 -13q233 0 397 20.5t271 59t168 104.5t84.5 146.5t23.5 195.5zM1016 696q62 0 85 -49.5t23 -140.5q0 -97 -22 -137.5t-86 -40.5t-86.5 41t-22.5 137q0 90 23.5 140t85.5 50z" />
<glyph unicode="&#xf3;" horiz-adv-x="2027" d="M754 1147q-26 0 -34 15.5t9 35.5l223 254q20 23 52 23h591q28 0 35 -16t-14 -36l-275 -256q-20 -20 -49 -20h-538zM1960 506q0 117 -25 200t-86.5 150t-169.5 106.5t-270.5 60.5t-392.5 21q-192 0 -337 -14t-250 -44t-174 -72t-109.5 -105t-57 -135t-16.5 -168 q0 -97 16.5 -168t57 -132.5t109 -102t173.5 -69t249.5 -41.5t338.5 -13q233 0 397 20.5t271 59t168 104.5t84.5 146.5t23.5 195.5zM1016 696q62 0 85 -49.5t23 -140.5q0 -97 -22 -137.5t-86 -40.5t-86.5 41t-22.5 137q0 90 23.5 140t85.5 50z" />
<glyph unicode="&#xf4;" horiz-adv-x="2027" d="M498 1147q-25 0 -32.5 13.5t7.5 35.5l219 295q17 25 49 25h545q32 0 49 -25l219 -295q15 -22 8 -35.5t-32 -13.5h-379q-29 0 -51 22l-86 93l-86 -93q-22 -22 -51 -22h-379zM1960 506q0 117 -25 200t-86.5 150t-169.5 106.5t-270.5 60.5t-392.5 21q-192 0 -337 -14 t-250 -44t-174 -72t-109.5 -105t-57 -135t-16.5 -168q0 -97 16.5 -168t57 -132.5t109 -102t173.5 -69t249.5 -41.5t338.5 -13q233 0 397 20.5t271 59t168 104.5t84.5 146.5t23.5 195.5zM1016 696q62 0 85 -49.5t23 -140.5q0 -97 -22 -137.5t-86 -40.5t-86.5 41t-22.5 137 q0 90 23.5 140t85.5 50z" />
<glyph unicode="&#xf5;" horiz-adv-x="2027" d="M1481 1440q45 28 45 -19v-178q0 -30 -19 -49q-33 -32 -85.5 -50t-98.5 -18q-73 0 -158 18.5t-150.5 40t-149.5 40t-156 18.5q-94 0 -164 -49q-43 -29 -43 20v177q0 30 16 51q64 67 182 67q92 0 201 -29t217 -58t197 -29q95 0 166 47zM1960 506q0 117 -25 200t-86.5 150 t-169.5 106.5t-270.5 60.5t-392.5 21q-192 0 -337 -14t-250 -44t-174 -72t-109.5 -105t-57 -135t-16.5 -168q0 -97 16.5 -168t57 -132.5t109 -102t173.5 -69t249.5 -41.5t338.5 -13q233 0 397 20.5t271 59t168 104.5t84.5 146.5t23.5 195.5zM1016 696q62 0 85 -49.5 t23 -140.5q0 -97 -22 -137.5t-86 -40.5t-86.5 41t-22.5 137q0 90 23.5 140t85.5 50z" />
<glyph unicode="&#xf6;" horiz-adv-x="2027" d="M948 1188q0 -41 -41 -41h-430q-41 0 -41 41v205q0 41 41 41h430q41 0 41 -41v-205zM1589 1188q0 -41 -41 -41h-430q-41 0 -41 41v205q0 41 41 41h430q41 0 41 -41v-205zM1960 506q0 117 -25 200t-86.5 150t-169.5 106.5t-270.5 60.5t-392.5 21q-192 0 -337 -14t-250 -44 t-174 -72t-109.5 -105t-57 -135t-16.5 -168q0 -97 16.5 -168t57 -132.5t109 -102t173.5 -69t249.5 -41.5t338.5 -13q233 0 397 20.5t271 59t168 104.5t84.5 146.5t23.5 195.5zM1016 696q62 0 85 -49.5t23 -140.5q0 -97 -22 -137.5t-86 -40.5t-86.5 41t-22.5 137 q0 90 23.5 140t85.5 50z" />
<glyph unicode="&#xf7;" horiz-adv-x="1216" d="M608 819q-57 0 -104 48.5t-47 113.5t48 114.5t107 49.5q63 0 108.5 -49t45.5 -115t-45.5 -114t-108.5 -48h-4zM141 473q-41 0 -41 41v129q0 41 41 41h932q41 0 41 -41v-129q0 -41 -41 -41h-932zM614 340q57 0 103.5 -48t46.5 -112t-47.5 -115t-106.5 -51q-65 0 -111 50 t-46 116t45.5 113t111.5 47h4z" />
<glyph unicode="&#xf8;" horiz-adv-x="2027" d="M1974 1208q22 10 35.5 1.5t13.5 -31.5v-363q0 -33 -28 -47l-70 -35q35 -92 35 -227q0 -115 -23.5 -195.5t-84.5 -146.5t-168 -104.5t-271 -59t-397 -20.5q-363 0 -555 47l-410 -213q-22 -10 -35.5 -1.5t-13.5 31.5v363q0 33 29 47l71 37q-30 80 -30 215q0 96 16.5 168 t57 135t109.5 105t174 72t250 44t337 14q352 0 555 -49zM1016 328q64 0 86 40.5t22 137.5q0 91 -23 140.5t-85 49.5t-85.5 -50t-23.5 -140q0 -96 22.5 -137t86.5 -41z" />
<glyph unicode="&#xf9;" d="M453 1423q-21 20 -14.5 36t34.5 16h592q31 0 51 -23l223 -254q17 -20 9.5 -35.5t-33.5 -15.5h-539q-29 0 -49 20zM1855 1024q41 0 41 -41v-942q0 -41 -41 -41h-737q-41 0 -41 41v137q-127 -198 -479 -198q-77 0 -139 5.5t-110.5 15.5t-86 27.5t-64.5 36.5t-45.5 48 t-30 57.5t-18 69t-8.5 78t-2 88.5v577q0 41 41 41h737q41 0 41 -41v-487q0 -67 7.5 -92t31.5 -25q56 0 90.5 71.5t34.5 225.5v307q0 41 41 41h737z" />
<glyph unicode="&#xfa;" d="M743 1147q-26 0 -33.5 15.5t9.5 35.5l223 254q20 23 51 23h592q28 0 35 -16t-14 -36l-275 -256q-20 -20 -49 -20h-539zM1855 1024q41 0 41 -41v-942q0 -41 -41 -41h-737q-41 0 -41 41v137q-127 -198 -479 -198q-77 0 -139 5.5t-110.5 15.5t-86 27.5t-64.5 36.5t-45.5 48 t-30 57.5t-18 69t-8.5 78t-2 88.5v577q0 41 41 41h737q41 0 41 -41v-487q0 -67 7.5 -92t31.5 -25q56 0 90.5 71.5t34.5 225.5v307q0 41 41 41h737z" />
<glyph unicode="&#xfb;" d="M487 1147q-25 0 -32 13.5t8 35.5l219 295q17 25 49 25h545q32 0 49 -25l219 -295q15 -22 8 -35.5t-32 -13.5h-379q-29 0 -51 22l-86 93l-86 -93q-22 -22 -52 -22h-379zM1855 1024q41 0 41 -41v-942q0 -41 -41 -41h-737q-41 0 -41 41v137q-127 -198 -479 -198 q-77 0 -139 5.5t-110.5 15.5t-86 27.5t-64.5 36.5t-45.5 48t-30 57.5t-18 69t-8.5 78t-2 88.5v577q0 41 41 41h737q41 0 41 -41v-487q0 -67 7.5 -92t31.5 -25q56 0 90.5 71.5t34.5 225.5v307q0 41 41 41h737z" />
<glyph unicode="&#xfc;" d="M467 1147q-41 0 -41 41v205q0 41 41 41h430q41 0 41 -41v-205q0 -41 -41 -41h-430zM1108 1147q-41 0 -41 41v205q0 41 41 41h430q41 0 41 -41v-205q0 -41 -41 -41h-430zM1855 1024q41 0 41 -41v-942q0 -41 -41 -41h-737q-41 0 -41 41v137q-127 -198 -479 -198 q-77 0 -139 5.5t-110.5 15.5t-86 27.5t-64.5 36.5t-45.5 48t-30 57.5t-18 69t-8.5 78t-2 88.5v577q0 41 41 41h737q41 0 41 -41v-487q0 -67 7.5 -92t31.5 -25q56 0 90.5 71.5t34.5 225.5v307q0 41 41 41h737z" />
<glyph unicode="&#xfd;" horiz-adv-x="2107" d="M795 1147q-26 0 -34 15.5t9 35.5l223 254q20 23 51 23h592q28 0 35 -16t-14 -36l-275 -256q-20 -20 -49 -20h-538zM2052 1024q23 0 31.5 -14.5t-2.5 -34.5l-748 -1356q-15 -29 -49 -29h-733q-23 0 -31.5 14t0.5 36l146 307l-631 1028q-12 22 -5 35.5t31 13.5h781 q36 0 45 -35l143 -450l23 -142l24 142l160 452q11 33 47 33h768z" />
<glyph unicode="&#xfe;" horiz-adv-x="2048" d="M1413 1044q129 0 217.5 -14.5t156 -49t106 -96t57 -150.5t18.5 -218q0 -162 -26.5 -263.5t-94 -163.5t-169.5 -85.5t-265 -23.5q-318 0 -500 141v-490q0 -41 -41 -41h-737q-41 0 -41 41v1762q0 41 41 41h737q41 0 41 -41v-492q180 143 500 143zM1061 328q52 0 80 40.5 t28 147.5q0 98 -27.5 139t-80.5 41q-60 0 -114 -51t-54 -139q0 -77 54.5 -127.5t113.5 -50.5z" />
<glyph unicode="&#xff;" horiz-adv-x="2107" d="M518 1147q-41 0 -41 41v205q0 41 41 41h430q41 0 41 -41v-205q0 -41 -41 -41h-430zM1159 1147q-41 0 -41 41v205q0 41 41 41h430q41 0 41 -41v-205q0 -41 -41 -41h-430zM2052 1024q23 0 31.5 -14.5t-2.5 -34.5l-748 -1356q-15 -29 -49 -29h-733q-23 0 -31.5 14t0.5 36 l146 307l-631 1028q-12 22 -5 35.5t31 13.5h781q36 0 45 -35l143 -450l23 -142l24 142l160 452q11 33 47 33h768z" />
<glyph unicode="&#x100;" horiz-adv-x="2232" d="M645 1495q-41 0 -41 41v205q0 41 41 41h942q41 0 41 -41v-205q0 -41 -41 -41h-942zM2202 47q7 -22 -2 -34.5t-31 -12.5h-785q-36 0 -45 35l-34 151h-394l-34 -153q-9 -35 -46 -35l-784 2q-22 0 -31 12.5t-2 34.5l492 1354q11 33 47 33h1110q36 0 47 -33zM997 555h220 l-89 377l-20 147l-23 -147z" />
<glyph unicode="&#x101;" d="M532 1147q-40 0 -40 41v205q0 41 40 41h943q41 0 41 -41v-205q0 -41 -41 -41h-943zM1886 1024q41 0 41 -41v-942q0 -41 -41 -41h-737q-41 0 -41 41v82q-180 -143 -500 -143q-129 0 -217.5 14.5t-156 49t-106 96t-57 150.5t-18.5 218q0 162 26.5 263.5t94 163.5 t169.5 85.5t265 23.5q318 0 500 -141v80q0 41 41 41h737zM961 328q60 0 113.5 51t53.5 139q0 77 -54 127.5t-113 50.5q-53 0 -81 -41t-28 -147q0 -98 28 -139t81 -41z" />
<glyph unicode="&#x102;" horiz-adv-x="2232" d="M1116 1475q-215 0 -345 66t-150 198q-3 43 41 43h272q11 0 19.5 -5t12 -9t13.5 -17q37 -43 137 -43t137 43q1 1 4 5t4 5t3.5 4.5t3.5 4.5t4 3.5t4.5 3t4 2t5 2t6 1t6.5 0.5h273q44 0 41 -43q-20 -132 -150.5 -198t-345.5 -66zM2202 47q7 -22 -2 -34.5t-31 -12.5h-785 q-36 0 -45 35l-34 151h-394l-34 -153q-9 -35 -46 -35l-784 2q-22 0 -31 12.5t-2 34.5l492 1354q11 33 47 33h1110q36 0 47 -33zM997 555h220l-89 377l-20 147l-23 -147z" />
<glyph unicode="&#x103;" d="M1004 1126q-215 0 -345.5 66.5t-150.5 198.5q-3 43 41 43h272q11 0 19.5 -5t12 -9t13.5 -17q37 -43 138 -43q100 0 137 43q1 1 4 5t4 5t3.5 4.5t3.5 4.5t4 3.5t4.5 3t4 2t5 2t6 1t6.5 0.5h272q44 0 41 -43q-20 -132 -150 -198.5t-345 -66.5zM1886 1024q41 0 41 -41v-942 q0 -41 -41 -41h-737q-41 0 -41 41v82q-180 -143 -500 -143q-129 0 -217.5 14.5t-156 49t-106 96t-57 150.5t-18.5 218q0 162 26.5 263.5t94 163.5t169.5 85.5t265 23.5q318 0 500 -141v80q0 41 41 41h737zM961 328q60 0 113.5 51t53.5 139q0 77 -54 127.5t-113 50.5 q-53 0 -81 -41t-28 -147q0 -98 28 -139t81 -41z" />
<glyph unicode="&#x104;" horiz-adv-x="2232" d="M2202 47q7 -22 -2 -34.5t-31 -12.5h16q-139 -43 -204 -63.5t-117.5 -40.5t-64.5 -31.5t-7 -24.5q8 -18 75 2.5t144 53.5q37 18 53 -21l76 -174q16 -40 -22 -55q-177 -66 -355 -69.5t-295.5 59.5t-117.5 178q0 155 209 186h-175q-36 0 -45 35l-34 151h-394l-34 -153 q-9 -35 -46 -35l-784 2q-22 0 -31 12.5t-2 34.5l492 1354q11 33 47 33h1110q36 0 47 -33zM997 555h220l-89 377l-20 147l-23 -147z" />
<glyph unicode="&#x105;" d="M1886 1024q41 0 41 -41v-942q0 -41 -41 -41h8q-139 -43 -204 -63.5t-117.5 -40.5t-64.5 -31.5t-7 -24.5q8 -18 75 2.5t144 53.5q38 18 54 -21l75 -174q16 -40 -22 -55q-177 -66 -355 -69.5t-295.5 59.5t-117.5 178q0 155 209 186h-119q-41 0 -41 41v82 q-180 -143 -500 -143q-129 0 -217.5 14.5t-156 49t-106 96t-57 150.5t-18.5 218q0 162 26.5 263.5t94 163.5t169.5 85.5t265 23.5q318 0 500 -141v80q0 41 41 41h737zM961 328q60 0 113.5 51t53.5 139q0 77 -54 127.5t-113 50.5q-53 0 -81 -41t-28 -147q0 -98 28 -139 t81 -41z" />
<glyph unicode="&#x106;" horiz-adv-x="2211" d="M846 1516q-26 0 -34 15.5t9 35.5l223 254q19 22 52 22h592q28 0 34.5 -15.5t-14.5 -35.5l-274 -256q-20 -20 -50 -20h-538zM1346 856q-37 0 -43 41q-10 86 -47.5 114.5t-127.5 28.5q-60 0 -95.5 -15.5t-54.5 -57t-24.5 -95.5t-5.5 -151q0 -84 3.5 -133.5t13.5 -90.5 t31 -60t52 -28.5t80 -9.5q100 0 135 33.5t44 140.5q3 41 41 41h768q41 0 38 -41q-7 -132 -38 -225.5t-101.5 -170.5t-187.5 -123t-294.5 -70.5t-424.5 -24.5q-181 0 -327 20t-252.5 55t-186 89t-129.5 116t-80.5 142.5t-42.5 161t-12 178.5q0 95 12 173.5t42.5 156.5 t80.5 138t129.5 112t186 86t252.5 53.5t327 19.5q215 0 372.5 -13t273 -43t189.5 -72t120 -108.5t66 -143.5t25 -185q3 -41 -38 -41z" />
<glyph unicode="&#x107;" horiz-adv-x="1986" d="M733 1147q-26 0 -33.5 15.5t9.5 35.5l223 254q20 23 51 23h592q28 0 34.5 -16t-14.5 -36l-274 -256q-20 -20 -49 -20h-539zM1122 582q-37 0 -43 41q-8 51 -27 72.5t-57 21.5q-63 0 -85.5 -52.5t-22.5 -158.5q0 -111 21.5 -155t86.5 -44q80 0 88 117q3 29 41 29h750 q42 0 39 -41q-6 -95 -34.5 -161.5t-92 -120t-169.5 -85.5t-264 -48.5t-380 -16.5q-169 0 -303 13.5t-230 36.5t-166 60.5t-112.5 79t-67.5 98t-34 112t-9 126.5q0 69 9 124t34 113t67.5 101t112.5 82t165.5 64t230.5 39.5t303 14.5q194 0 336 -9.5t246 -31.5t170 -53 t107 -80.5t58.5 -106.5t22.5 -138q3 -41 -39 -41z" />
<glyph unicode="&#x108;" horiz-adv-x="2211" d="M590 1516q-25 0 -32.5 13.5t7.5 35.5l219 295q16 24 50 24h544q33 0 49 -24l220 -295q15 -22 7.5 -35.5t-32.5 -13.5h-379q-29 0 -51 22l-86 92l-86 -92q-22 -22 -51 -22h-379zM1346 856q-37 0 -43 41q-10 86 -47.5 114.5t-127.5 28.5q-60 0 -95.5 -15.5t-54.5 -57 t-24.5 -95.5t-5.5 -151q0 -84 3.5 -133.5t13.5 -90.5t31 -60t52 -28.5t80 -9.5q100 0 135 33.5t44 140.5q3 41 41 41h768q41 0 38 -41q-7 -132 -38 -225.5t-101.5 -170.5t-187.5 -123t-294.5 -70.5t-424.5 -24.5q-181 0 -327 20t-252.5 55t-186 89t-129.5 116t-80.5 142.5 t-42.5 161t-12 178.5q0 95 12 173.5t42.5 156.5t80.5 138t129.5 112t186 86t252.5 53.5t327 19.5q215 0 372.5 -13t273 -43t189.5 -72t120 -108.5t66 -143.5t25 -185q3 -41 -38 -41z" />
<glyph unicode="&#x109;" horiz-adv-x="1986" d="M477 1147q-25 0 -32 13.5t8 35.5l219 295q17 25 49 25h545q32 0 49 -25l219 -295q15 -22 7.5 -35.5t-32.5 -13.5h-379q-29 0 -51 22l-86 93l-86 -93q-22 -22 -51 -22h-379zM1122 582q-37 0 -43 41q-8 51 -27 72.5t-57 21.5q-63 0 -85.5 -52.5t-22.5 -158.5 q0 -111 21.5 -155t86.5 -44q80 0 88 117q3 29 41 29h750q42 0 39 -41q-6 -95 -34.5 -161.5t-92 -120t-169.5 -85.5t-264 -48.5t-380 -16.5q-169 0 -303 13.5t-230 36.5t-166 60.5t-112.5 79t-67.5 98t-34 112t-9 126.5q0 69 9 124t34 113t67.5 101t112.5 82t165.5 64 t230.5 39.5t303 14.5q194 0 336 -9.5t246 -31.5t170 -53t107 -80.5t58.5 -106.5t22.5 -138q3 -41 -39 -41z" />
<glyph unicode="&#x10a;" horiz-adv-x="2211" d="M1362 1556q0 -40 -41 -40h-430q-41 0 -41 40v205q0 41 41 41h430q41 0 41 -41v-205zM1346 856q-37 0 -43 41q-10 86 -47.5 114.5t-127.5 28.5q-60 0 -95.5 -15.5t-54.5 -57t-24.5 -95.5t-5.5 -151q0 -84 3.5 -133.5t13.5 -90.5t31 -60t52 -28.5t80 -9.5q100 0 135 33.5 t44 140.5q3 41 41 41h768q41 0 38 -41q-7 -132 -38 -225.5t-101.5 -170.5t-187.5 -123t-294.5 -70.5t-424.5 -24.5q-181 0 -327 20t-252.5 55t-186 89t-129.5 116t-80.5 142.5t-42.5 161t-12 178.5q0 95 12 173.5t42.5 156.5t80.5 138t129.5 112t186 86t252.5 53.5t327 19.5 q215 0 372.5 -13t273 -43t189.5 -72t120 -108.5t66 -143.5t25 -185q3 -41 -38 -41z" />
<glyph unicode="&#x10b;" horiz-adv-x="1986" d="M1249 1188q0 -41 -41 -41h-430q-41 0 -41 41v205q0 41 41 41h430q41 0 41 -41v-205zM1122 582q-37 0 -43 41q-8 51 -27 72.5t-57 21.5q-63 0 -85.5 -52.5t-22.5 -158.5q0 -111 21.5 -155t86.5 -44q80 0 88 117q3 29 41 29h750q42 0 39 -41q-6 -95 -34.5 -161.5t-92 -120 t-169.5 -85.5t-264 -48.5t-380 -16.5q-169 0 -303 13.5t-230 36.5t-166 60.5t-112.5 79t-67.5 98t-34 112t-9 126.5q0 69 9 124t34 113t67.5 101t112.5 82t165.5 64t230.5 39.5t303 14.5q194 0 336 -9.5t246 -31.5t170 -53t107 -80.5t58.5 -106.5t22.5 -138q3 -41 -39 -41z " />
<glyph unicode="&#x10c;" horiz-adv-x="2211" d="M565 1835q-15 22 -7.5 35.5t32.5 13.5h379q29 0 51 -22l86 -93l86 93q22 22 51 22h379q25 0 32.5 -13.5t-7.5 -35.5l-220 -295q-16 -24 -49 -24h-544q-34 0 -50 24zM1346 856q-37 0 -43 41q-10 86 -47.5 114.5t-127.5 28.5q-60 0 -95.5 -15.5t-54.5 -57t-24.5 -95.5 t-5.5 -151q0 -84 3.5 -133.5t13.5 -90.5t31 -60t52 -28.5t80 -9.5q100 0 135 33.5t44 140.5q3 41 41 41h768q41 0 38 -41q-7 -132 -38 -225.5t-101.5 -170.5t-187.5 -123t-294.5 -70.5t-424.5 -24.5q-181 0 -327 20t-252.5 55t-186 89t-129.5 116t-80.5 142.5t-42.5 161 t-12 178.5q0 95 12 173.5t42.5 156.5t80.5 138t129.5 112t186 86t252.5 53.5t327 19.5q215 0 372.5 -13t273 -43t189.5 -72t120 -108.5t66 -143.5t25 -185q3 -41 -38 -41z" />
<glyph unicode="&#x10d;" horiz-adv-x="1986" d="M453 1466q-15 22 -8 36t32 14h379q28 0 51 -23l86 -92l86 92q23 23 51 23h379q25 0 32.5 -14t-7.5 -36l-219 -295q-16 -24 -49 -24h-545q-33 0 -49 24zM1122 582q-37 0 -43 41q-8 51 -27 72.5t-57 21.5q-63 0 -85.5 -52.5t-22.5 -158.5q0 -111 21.5 -155t86.5 -44 q80 0 88 117q3 29 41 29h750q42 0 39 -41q-6 -95 -34.5 -161.5t-92 -120t-169.5 -85.5t-264 -48.5t-380 -16.5q-169 0 -303 13.5t-230 36.5t-166 60.5t-112.5 79t-67.5 98t-34 112t-9 126.5q0 69 9 124t34 113t67.5 101t112.5 82t165.5 64t230.5 39.5t303 14.5 q194 0 336 -9.5t246 -31.5t170 -53t107 -80.5t58.5 -106.5t22.5 -138q3 -41 -39 -41z" />
<glyph unicode="&#x10e;" horiz-adv-x="2170" d="M764 1540l-219 295q-15 22 -8 35.5t32 13.5h379q29 0 51 -22l86 -93l86 93q22 22 52 22h379q25 0 32 -13.5t-8 -35.5l-219 -295q-16 -24 -49 -24h-545q-33 0 -49 24zM1067 1434q244 0 420.5 -27t297 -80t192 -140.5t102 -198t30.5 -263.5q0 -147 -30 -257t-102.5 -201 t-191.5 -148t-297.5 -88t-420.5 -31h-901q-41 0 -41 41v1352q0 41 41 41h901zM1087 420q113 0 160 78.5t47 226.5q0 145 -46.5 217t-160.5 72h-153v-594h153z" />
<glyph unicode="&#x10f;" horiz-adv-x="2048" d="M702 1520l-219 295q-15 22 -7.5 35.5t32.5 13.5h379q28 0 51 -23l86 -92l86 92q23 23 51 23h379q25 0 32.5 -13.5t-7.5 -35.5l-219 -295q-17 -25 -50 -25h-544q-33 0 -50 25zM1927 1434q41 0 41 -41v-1352q0 -41 -41 -41h-737q-41 0 -41 41v82q-180 -143 -500 -143 q-129 0 -217.5 14.5t-156 49t-106 96t-57 150.5t-18.5 218q0 162 26.5 263.5t94 163.5t169.5 85.5t265 23.5q318 0 500 -141v490q0 41 41 41h737zM1001 328q60 0 114 51t54 139q0 77 -54.5 127.5t-113.5 50.5q-52 0 -80 -40.5t-28 -147.5q0 -98 27.5 -139t80.5 -41z" />
<glyph unicode="&#x110;" horiz-adv-x="2170" d="M1067 1434q244 0 420.5 -27t297 -80t192 -140.5t102 -198t30.5 -263.5q0 -147 -30 -257t-102.5 -201t-191.5 -148t-297.5 -88t-420.5 -31h-901q-41 0 -41 41v502h-78q-41 0 -41 41v266q0 41 41 41h78v502q0 41 41 41h901zM1087 420q113 0 160 78.5t47 226.5 q0 145 -46.5 217t-160.5 72h-153v-123h143q41 0 41 -41v-266q0 -41 -41 -41h-143v-123h153z" />
<glyph unicode="&#x111;" horiz-adv-x="2048" d="M2075 1356q41 0 41 -41v-266q0 -41 -41 -41h-107v-967q0 -41 -41 -41h-737q-41 0 -41 41v82q-180 -143 -500 -143q-129 0 -217.5 14.5t-156 49t-106 96t-57 150.5t-18.5 218q0 162 26.5 263.5t94 163.5t169.5 85.5t265 23.5q318 0 500 -141v105h-105q-40 0 -40 41v266 q0 41 40 41h105v37q0 41 41 41h737q41 0 41 -41v-37h107zM1001 328q60 0 114 51t54 139q0 77 -54.5 127.5t-113.5 50.5q-52 0 -80 -40.5t-28 -147.5q0 -98 27.5 -139t80.5 -41z" />
<glyph unicode="&#x112;" horiz-adv-x="1998" d="M528 1536q-41 0 -41 41v205q0 41 41 41h942q41 0 41 -41v-205q0 -41 -41 -41h-942zM1855 1044h-942v-153h942q41 0 41 -41v-266q0 -41 -41 -41h-942v-154h942q41 0 41 -41v-307q0 -41 -41 -41h-1699q-41 0 -41 41v1352q0 41 41 41h1699q41 0 41 -41v-308q0 -41 -41 -41z " />
<glyph unicode="&#x113;" horiz-adv-x="1966" d="M512 1147q-41 0 -41 41v205q0 41 41 41h942q41 0 41 -41v-205q0 -41 -41 -41h-942zM1915 459q0 -41 -41 -41h-1006q3 -85 28.5 -118.5t94.5 -33.5q46 0 64 12t30 50q12 34 45 34h732q22 0 31.5 -11.5t4.5 -31.5q-22 -92 -71.5 -152t-152.5 -104t-273.5 -63.5 t-427.5 -19.5q-169 0 -303 13.5t-230 36.5t-166 60.5t-112.5 79t-67.5 98t-34 112t-9 126.5q0 69 9 124t34 113t67.5 101t112.5 82t165.5 64t230.5 39.5t303 14.5q154 0 273 -6.5t214.5 -23t163.5 -38.5t118.5 -59t82 -78.5t51.5 -102.5t28 -125t11 -152zM979 758 q-53 0 -86.5 -42t-36.5 -104h244q-2 146 -121 146z" />
<glyph unicode="&#x114;" horiz-adv-x="1998" d="M999 1516q-215 0 -345 66t-150 198q-3 43 41 43h272q11 0 19.5 -5t12 -9t13.5 -17q37 -43 137 -43q101 0 138 43q1 1 4 5t4 5t3.5 4.5t3.5 4.5t4 3.5t4.5 3t4 2t5 2t6 1t6.5 0.5h272q44 0 41 -43q-20 -132 -150.5 -198t-345.5 -66zM1855 1044h-942v-153h942q41 0 41 -41 v-266q0 -41 -41 -41h-942v-154h942q41 0 41 -41v-307q0 -41 -41 -41h-1699q-41 0 -41 41v1352q0 41 41 41h1699q41 0 41 -41v-308q0 -41 -41 -41z" />
<glyph unicode="&#x115;" horiz-adv-x="1966" d="M983 1126q-215 0 -345.5 66.5t-150.5 198.5q-3 43 41 43h273q11 0 19.5 -5t12 -9t13.5 -17q37 -43 137 -43t137 43q1 1 4 5t4 5t3.5 4.5t3.5 4.5t4 3.5t4.5 3t4 2t5 2t6 1t6.5 0.5h273q44 0 41 -43q-20 -132 -150.5 -198.5t-345.5 -66.5zM1915 459q0 -41 -41 -41h-1006 q3 -85 28.5 -118.5t94.5 -33.5q46 0 64 12t30 50q12 34 45 34h732q22 0 31.5 -11.5t4.5 -31.5q-22 -92 -71.5 -152t-152.5 -104t-273.5 -63.5t-427.5 -19.5q-169 0 -303 13.5t-230 36.5t-166 60.5t-112.5 79t-67.5 98t-34 112t-9 126.5q0 69 9 124t34 113t67.5 101t112.5 82 t165.5 64t230.5 39.5t303 14.5q154 0 273 -6.5t214.5 -23t163.5 -38.5t118.5 -59t82 -78.5t51.5 -102.5t28 -125t11 -152zM979 758q-53 0 -86.5 -42t-36.5 -104h244q-2 146 -121 146z" />
<glyph unicode="&#x116;" horiz-adv-x="1998" d="M784 1536q-41 0 -41 41v205q0 41 41 41h430q41 0 41 -41v-205q0 -41 -41 -41h-430zM1855 1044h-942v-153h942q41 0 41 -41v-266q0 -41 -41 -41h-942v-154h942q41 0 41 -41v-307q0 -41 -41 -41h-1699q-41 0 -41 41v1352q0 41 41 41h1699q41 0 41 -41v-308q0 -41 -41 -41z " />
<glyph unicode="&#x117;" horiz-adv-x="1966" d="M768 1147q-41 0 -41 41v205q0 41 41 41h430q41 0 41 -41v-205q0 -41 -41 -41h-430zM1915 459q0 -41 -41 -41h-1006q3 -85 28.5 -118.5t94.5 -33.5q46 0 64 12t30 50q12 34 45 34h732q22 0 31.5 -11.5t4.5 -31.5q-22 -92 -71.5 -152t-152.5 -104t-273.5 -63.5 t-427.5 -19.5q-169 0 -303 13.5t-230 36.5t-166 60.5t-112.5 79t-67.5 98t-34 112t-9 126.5q0 69 9 124t34 113t67.5 101t112.5 82t165.5 64t230.5 39.5t303 14.5q154 0 273 -6.5t214.5 -23t163.5 -38.5t118.5 -59t82 -78.5t51.5 -102.5t28 -125t11 -152zM979 758 q-53 0 -86.5 -42t-36.5 -104h244q-2 146 -121 146z" />
<glyph unicode="&#x118;" horiz-adv-x="1998" d="M1855 1044h-942v-153h942q41 0 41 -41v-266q0 -41 -41 -41h-942v-154h942q41 0 41 -41v-307q0 -41 -41 -41h9q-140 -43 -204 -63.5t-117.5 -41t-65.5 -31.5t-7 -24q8 -18 76 2.5t144 53.5q37 18 53 -21l76 -174q16 -39 -23 -55q-177 -66 -355 -69.5t-295.5 59.5 t-117.5 178q0 155 209 186h-1081q-41 0 -41 41v1352q0 41 41 41h1699q41 0 41 -41v-308q0 -41 -41 -41z" />
<glyph unicode="&#x119;" horiz-adv-x="1966" d="M1915 459q0 -41 -41 -41h-1006q3 -85 28.5 -118.5t94.5 -33.5q46 0 64 12t30 50q12 34 45 34h732q22 0 31.5 -11.5t4.5 -31.5q-21 -88 -65.5 -146t-138 -101.5t-242.5 -65.5q-119 -36 -180 -56t-105.5 -37.5t-56 -28.5t-6.5 -23q8 -18 76 2t143 53q38 18 53 -20l76 -175 q16 -40 -22 -55q-177 -66 -355 -69.5t-295.5 59.5t-117.5 178q0 103 94 152q-128 8 -230 27t-175 44.5t-126.5 63t-86.5 77t-53 91.5t-27 103t-7 114q0 69 9 124t34 113t67.5 101t112.5 82t165.5 64t230.5 39.5t303 14.5q154 0 273 -6.5t214.5 -23t163.5 -38.5t118.5 -59 t82 -78.5t51.5 -102.5t28 -125t11 -152zM979 758q-53 0 -86.5 -42t-36.5 -104h244q-2 146 -121 146z" />
<glyph unicode="&#x11a;" horiz-adv-x="1998" d="M678 1561l-219 294q-15 22 -8 36t32 14h379q28 0 51 -23l86 -92l86 92q23 23 52 23h379q25 0 32 -14t-8 -36l-219 -294q-17 -25 -49 -25h-545q-32 0 -49 25zM1855 1044h-942v-153h942q41 0 41 -41v-266q0 -41 -41 -41h-942v-154h942q41 0 41 -41v-307q0 -41 -41 -41 h-1699q-41 0 -41 41v1352q0 41 41 41h1699q41 0 41 -41v-308q0 -41 -41 -41z" />
<glyph unicode="&#x11b;" horiz-adv-x="1966" d="M662 1171l-220 295q-15 22 -7.5 36t32.5 14h379q28 0 51 -23l86 -92l86 92q23 23 51 23h379q25 0 32.5 -14t-7.5 -36l-219 -295q-16 -24 -50 -24h-544q-33 0 -49 24zM1915 459q0 -41 -41 -41h-1006q3 -85 28.5 -118.5t94.5 -33.5q46 0 64 12t30 50q12 34 45 34h732 q22 0 31.5 -11.5t4.5 -31.5q-22 -92 -71.5 -152t-152.5 -104t-273.5 -63.5t-427.5 -19.5q-169 0 -303 13.5t-230 36.5t-166 60.5t-112.5 79t-67.5 98t-34 112t-9 126.5q0 69 9 124t34 113t67.5 101t112.5 82t165.5 64t230.5 39.5t303 14.5q154 0 273 -6.5t214.5 -23 t163.5 -38.5t118.5 -59t82 -78.5t51.5 -102.5t28 -125t11 -152zM979 758q-53 0 -86.5 -42t-36.5 -104h244q-2 146 -121 146z" />
<glyph unicode="&#x11c;" horiz-adv-x="2254" d="M623 1516q-25 0 -32.5 13.5t7.5 35.5l219 295q16 24 49 24h545q33 0 49 -24l219 -295q15 -22 8 -35.5t-32 -13.5h-379q-29 0 -51 22l-86 92l-86 -92q-22 -22 -52 -22h-378zM2138 788q41 0 41 -40q-2 -116 -11.5 -203t-33 -167.5t-61 -137.5t-96.5 -106t-138.5 -80 t-188.5 -53.5t-244 -32t-308 -9.5q-181 0 -326.5 20t-251 55t-184 89.5t-127.5 116t-78.5 142t-41 161t-11.5 178.5q0 95 12.5 173.5t44.5 156t84 138t134 112.5t191 86t259.5 53.5t335.5 19.5q206 0 359.5 -12.5t265 -41t184.5 -67.5t117 -99.5t63 -129.5t22 -164 q0 -41 -41 -41h-763q-38 0 -41 41q-7 65 -41.5 85t-135.5 20q-48 0 -80 -12.5t-52 -35t-30.5 -65.5t-14 -91.5t-3.5 -125.5q0 -70 2 -116t9 -89t19 -68t32 -44.5t49 -27t69 -7.5q118 0 166 26t52 117h-185q-41 0 -41 41v195q0 40 41 40h977z" />
<glyph unicode="&#x11d;" horiz-adv-x="1992" d="M479 1157q-25 0 -32 13.5t8 35.5l219 295q17 25 49 25h545q32 0 49 -25l219 -295q15 -22 7.5 -35.5t-32.5 -13.5h-378q-29 0 -52 23l-86 92l-86 -92q-23 -23 -51 -23h-379zM2017 1001q24 -41 -20 -53l-180 -51q57 -45 80.5 -110t23.5 -158q0 -77 -12.5 -128t-51 -93.5 t-99.5 -66.5t-168.5 -40.5t-247.5 -22.5t-347 -6q-277 0 -491 27q-36 -7 -67 -22t-31 -31q0 -22 87 -26.5t502 -4.5q165 0 273.5 -1.5t213.5 -7t167 -14t119.5 -25.5t85.5 -37.5t50 -53.5t28.5 -71.5t6.5 -92.5q0 -50 -10.5 -88t-38 -74t-75 -61.5t-121.5 -47t-177.5 -34.5 t-243.5 -20t-319 -7q-197 0 -332 5.5t-237.5 21t-162 36.5t-97 59.5t-50.5 82.5t-16 111q0 41 41 41l754 -3q37 0 43 -40q1 -34 20 -44t78 -10q57 0 83 17t26 57q0 44 -40 64t-151 20q-140 0 -238.5 1t-188.5 4.5t-147 9t-106 15.5t-75.5 22t-45.5 30.5t-25.5 40t-6.5 51.5 q0 67 32.5 115.5t92.5 93.5q-85 45 -119.5 106t-34.5 142q0 77 15 131.5t54 102.5t106 78t172.5 52t251.5 31.5t345 9.5q210 0 363 -12l489 166q37 13 56 -19zM989 492q65 0 84 32t19 125q0 72 -19.5 98.5t-83.5 26.5q-65 0 -86.5 -27t-21.5 -98q0 -92 21 -124.5t87 -32.5z " />
<glyph unicode="&#x11e;" horiz-adv-x="2254" d="M1139 1495q-215 0 -345.5 66t-150.5 198q-3 43 41 43h272q11 0 19.5 -4.5t12 -9t13.5 -16.5q37 -43 138 -43q100 0 137 43q19 24 31 28q6 2 14 2h272q44 0 41 -43q-20 -132 -150 -198t-345 -66zM2138 788q41 0 41 -40q-2 -116 -11.5 -203t-33 -167.5t-61 -137.5 t-96.5 -106t-138.5 -80t-188.5 -53.5t-244 -32t-308 -9.5q-181 0 -326.5 20t-251 55t-184 89.5t-127.5 116t-78.5 142t-41 161t-11.5 178.5q0 95 12.5 173.5t44.5 156t84 138t134 112.5t191 86t259.5 53.5t335.5 19.5q206 0 359.5 -12.5t265 -41t184.5 -67.5t117 -99.5 t63 -129.5t22 -164q0 -41 -41 -41h-763q-38 0 -41 41q-7 65 -41.5 85t-135.5 20q-48 0 -80 -12.5t-52 -35t-30.5 -65.5t-14 -91.5t-3.5 -125.5q0 -70 2 -116t9 -89t19 -68t32 -44.5t49 -27t69 -7.5q118 0 166 26t52 117h-185q-41 0 -41 41v195q0 40 41 40h977z" />
<glyph unicode="&#x11f;" horiz-adv-x="1992" d="M995 1137q-215 0 -345 66t-150 198q-3 43 41 43h272q11 0 19.5 -5t12 -9t13.5 -17q37 -43 137 -43q101 0 138 43q1 1 4 5t4 5t3.5 4.5t3.5 4.5t4 3.5t4.5 3t4 2t5 2t6 1t6.5 0.5h272q44 0 41 -43q-20 -132 -150.5 -198t-345.5 -66zM2017 1001q24 -41 -20 -53l-180 -51 q57 -45 80.5 -110t23.5 -158q0 -77 -12.5 -128t-51 -93.5t-99.5 -66.5t-168.5 -40.5t-247.5 -22.5t-347 -6q-277 0 -491 27q-36 -7 -67 -22t-31 -31q0 -22 87 -26.5t502 -4.5q165 0 273.5 -1.5t213.5 -7t167 -14t119.5 -25.5t85.5 -37.5t50 -53.5t28.5 -71.5t6.5 -92.5 q0 -50 -10.5 -88t-38 -74t-75 -61.5t-121.5 -47t-177.5 -34.5t-243.5 -20t-319 -7q-197 0 -332 5.5t-237.5 21t-162 36.5t-97 59.5t-50.5 82.5t-16 111q0 41 41 41l754 -3q37 0 43 -40q1 -34 20 -44t78 -10q57 0 83 17t26 57q0 44 -40 64t-151 20q-140 0 -238.5 1 t-188.5 4.5t-147 9t-106 15.5t-75.5 22t-45.5 30.5t-25.5 40t-6.5 51.5q0 67 32.5 115.5t92.5 93.5q-85 45 -119.5 106t-34.5 142q0 77 15 131.5t54 102.5t106 78t172.5 52t251.5 31.5t345 9.5q210 0 363 -12l489 166q37 13 56 -19zM989 492q65 0 84 32t19 125 q0 72 -19.5 98.5t-83.5 26.5q-65 0 -86.5 -27t-21.5 -98q0 -92 21 -124.5t87 -32.5z" />
<glyph unicode="&#x120;" horiz-adv-x="2254" d="M924 1516q-41 0 -41 40v205q0 41 41 41h430q41 0 41 -41v-205q0 -40 -41 -40h-430zM2138 788q41 0 41 -40q-2 -116 -11.5 -203t-33 -167.5t-61 -137.5t-96.5 -106t-138.5 -80t-188.5 -53.5t-244 -32t-308 -9.5q-181 0 -326.5 20t-251 55t-184 89.5t-127.5 116t-78.5 142 t-41 161t-11.5 178.5q0 95 12.5 173.5t44.5 156t84 138t134 112.5t191 86t259.5 53.5t335.5 19.5q206 0 359.5 -12.5t265 -41t184.5 -67.5t117 -99.5t63 -129.5t22 -164q0 -41 -41 -41h-763q-38 0 -41 41q-7 65 -41.5 85t-135.5 20q-48 0 -80 -12.5t-52 -35t-30.5 -65.5 t-14 -91.5t-3.5 -125.5q0 -70 2 -116t9 -89t19 -68t32 -44.5t49 -27t69 -7.5q118 0 166 26t52 117h-185q-41 0 -41 41v195q0 40 41 40h977z" />
<glyph unicode="&#x121;" horiz-adv-x="1992" d="M780 1157q-41 0 -41 41v205q0 41 41 41h430q41 0 41 -41v-205q0 -41 -41 -41h-430zM2017 1001q24 -41 -20 -53l-180 -51q57 -45 80.5 -110t23.5 -158q0 -77 -12.5 -128t-51 -93.5t-99.5 -66.5t-168.5 -40.5t-247.5 -22.5t-347 -6q-277 0 -491 27q-36 -7 -67 -22t-31 -31 q0 -22 87 -26.5t502 -4.5q165 0 273.5 -1.5t213.5 -7t167 -14t119.5 -25.5t85.5 -37.5t50 -53.5t28.5 -71.5t6.5 -92.5q0 -50 -10.5 -88t-38 -74t-75 -61.5t-121.5 -47t-177.5 -34.5t-243.5 -20t-319 -7q-197 0 -332 5.5t-237.5 21t-162 36.5t-97 59.5t-50.5 82.5t-16 111 q0 41 41 41l754 -3q37 0 43 -40q1 -34 20 -44t78 -10q57 0 83 17t26 57q0 44 -40 64t-151 20q-140 0 -238.5 1t-188.5 4.5t-147 9t-106 15.5t-75.5 22t-45.5 30.5t-25.5 40t-6.5 51.5q0 67 32.5 115.5t92.5 93.5q-85 45 -119.5 106t-34.5 142q0 77 15 131.5t54 102.5t106 78 t172.5 52t251.5 31.5t345 9.5q210 0 363 -12l489 166q37 13 56 -19zM989 492q65 0 84 32t19 125q0 72 -19.5 98.5t-83.5 26.5q-65 0 -86.5 -27t-21.5 -98q0 -92 21 -124.5t87 -32.5z" />
<glyph unicode="&#x122;" horiz-adv-x="2254" d="M2138 788q41 0 41 -40q-2 -116 -11.5 -203t-33 -167.5t-61 -137.5t-96.5 -106t-138.5 -80t-188.5 -53.5t-244 -32t-308 -9.5q-181 0 -326.5 20t-251 55t-184 89.5t-127.5 116t-78.5 142t-41 161t-11.5 178.5q0 95 12.5 173.5t44.5 156t84 138t134 112.5t191 86 t259.5 53.5t335.5 19.5q206 0 359.5 -12.5t265 -41t184.5 -67.5t117 -99.5t63 -129.5t22 -164q0 -41 -41 -41h-763q-38 0 -41 41q-7 65 -41.5 85t-135.5 20q-48 0 -80 -12.5t-52 -35t-30.5 -65.5t-14 -91.5t-3.5 -125.5q0 -70 2 -116t9 -89t19 -68t32 -44.5t49 -27t69 -7.5 q118 0 166 26t52 117h-185q-41 0 -41 41v195q0 40 41 40h977zM1448 -104q25 0 33 -15t-6 -35l-297 -436q-17 -26 -50 -26h-452q-22 0 -31.5 12.5t-3.5 34.5l139 432q9 33 45 33h623z" />
<glyph unicode="&#x123;" horiz-adv-x="1961" d="M657 1124q-25 0 -32.5 15t6.5 35l297 436q17 26 49 26h453q22 0 31 -12.5t3 -34.5l-139 -432q-9 -33 -45 -33h-623zM2017 1001q24 -41 -20 -53l-180 -51q57 -45 80.5 -110t23.5 -158q0 -77 -12.5 -128t-51 -93.5t-99.5 -66.5t-168.5 -40.5t-247.5 -22.5t-347 -6 q-277 0 -491 27q-36 -7 -67 -22t-31 -31q0 -22 87 -26.5t502 -4.5q165 0 273.5 -1.5t213.5 -7t167 -14t119.5 -25.5t85.5 -37.5t50 -53.5t28.5 -71.5t6.5 -92.5q0 -50 -10.5 -88t-38 -74t-75 -61.5t-121.5 -47t-177.5 -34.5t-243.5 -20t-319 -7q-197 0 -332 5.5t-237.5 21 t-162 36.5t-97 59.5t-50.5 82.5t-16 111q0 41 41 41l754 -3q37 0 43 -40q1 -34 20 -44t78 -10q57 0 83 17t26 57q0 44 -40 64t-151 20q-140 0 -238.5 1t-188.5 4.5t-147 9t-106 15.5t-75.5 22t-45.5 30.5t-25.5 40t-6.5 51.5q0 67 32.5 115.5t92.5 93.5q-85 45 -119.5 106 t-34.5 142q0 77 15 131.5t54 102.5t106 78t172.5 52t251.5 31.5t345 9.5q210 0 363 -12l489 166q37 13 56 -19zM989 492q65 0 84 32t19 125q0 72 -19.5 98.5t-83.5 26.5q-65 0 -86.5 -27t-21.5 -98q0 -92 21 -124.5t87 -32.5z" />
<glyph unicode="&#x124;" horiz-adv-x="2150" d="M559 1516q-25 0 -32 13.5t8 35.5l219 295q16 24 49 24h545q33 0 49 -24l219 -295q15 -22 7.5 -35.5t-32.5 -13.5h-379q-29 0 -51 22l-86 92l-86 -92q-22 -22 -51 -22h-379zM2015 1434q41 0 41 -41v-1352q0 -41 -41 -41h-758q-40 0 -40 41v451h-283v-451q0 -41 -41 -41 h-758q-41 0 -41 41v1352q0 41 41 41h758q41 0 41 -41v-451h283v451q0 41 40 41h758z" />
<glyph unicode="&#x125;" d="M487 1495q-25 0 -32 13.5t8 35.5l219 295q17 25 49 25h545q32 0 49 -25l219 -295q15 -22 8 -35.5t-32 -13.5h-379q-28 0 -51 23l-86 92l-86 -92q-23 -23 -52 -23h-379zM1393 1044q77 0 139 -5.5t110.5 -15.5t86 -27.5t64 -36.5t45.5 -48t30 -57.5t17.5 -69t8.5 -78 t2 -88.5v-577q0 -41 -41 -41h-737q-41 0 -41 41v487q0 67 -7.5 92t-31.5 25q-56 0 -90.5 -71.5t-34.5 -225.5v-307q0 -41 -41 -41h-737q-41 0 -41 41v1352q0 41 41 41h737q41 0 41 -41v-547q127 198 480 198z" />
<glyph unicode="&#x126;" horiz-adv-x="2150" d="M2146 1337q41 0 41 -41v-225q0 -41 -41 -41h-90v-989q0 -41 -41 -41h-758q-40 0 -40 41v451h-283v-451q0 -41 -41 -41h-758q-41 0 -41 41v989h-92q-41 0 -41 41v225q0 41 41 41h92v56q0 41 41 41h758q41 0 41 -41v-56h283v56q0 41 40 41h758q41 0 41 -41v-56h90z M1217 942v88h-283v-88h283z" />
<glyph unicode="&#x127;" d="M1393 1044q77 0 139 -5.5t110.5 -15.5t86 -27.5t64 -36.5t45.5 -48t30 -57.5t17.5 -69t8.5 -78t2 -88.5v-577q0 -41 -41 -41h-737q-41 0 -41 41v487q0 67 -7.5 92t-31.5 25q-56 0 -90.5 -71.5t-34.5 -225.5v-307q0 -41 -41 -41h-737q-41 0 -41 41v963h-55q-41 0 -41 40 v267q0 41 41 41h55v41q0 41 41 41h737q41 0 41 -41v-41h156q41 0 41 -41v-267q0 -40 -41 -40h-156v-158q127 198 480 198z" />
<glyph unicode="&#x128;" horiz-adv-x="1148" d="M1042 1808q45 28 45 -18v-178q0 -31 -18 -49q-33 -32 -85.5 -50t-98.5 -18q-73 0 -158 18.5t-151 40t-150 40t-156 18.5q-94 0 -164 -49q-43 -29 -43 20v176q0 28 17 51q65 68 182 68q74 0 159 -18.5t150.5 -40t149.5 -40t156 -18.5q94 0 165 47zM1026 41q0 -41 -41 -41 h-809q-41 0 -41 41v1352q0 41 41 41h809q41 0 41 -41v-1352z" />
<glyph unicode="&#x129;" horiz-adv-x="1024" d="M979 1440q45 28 45 -19v-178q0 -31 -18 -49q-33 -32 -86 -50t-99 -18q-73 0 -158 18.5t-150.5 40t-149.5 40t-156 18.5q-94 0 -164 -49q-43 -29 -43 20v177q0 30 16 51q64 67 183 67q92 0 201 -29t216.5 -58t196.5 -29q95 0 166 47zM934 41q0 -41 -41 -41h-758 q-41 0 -41 41v942q0 41 41 41h758q41 0 41 -41v-942z" />
<glyph unicode="&#x12a;" horiz-adv-x="1148" d="M1047 1802q40 0 40 -41v-205q0 -40 -40 -40h-943q-41 0 -41 40v205q0 41 41 41h943zM1026 41q0 -41 -41 -41h-809q-41 0 -41 41v1352q0 41 41 41h809q41 0 41 -41v-1352z" />
<glyph unicode="&#x12b;" horiz-adv-x="1024" d="M983 1434q41 0 41 -41v-205q0 -41 -41 -41h-942q-41 0 -41 41v205q0 41 41 41h942zM934 41q0 -41 -41 -41h-758q-41 0 -41 41v942q0 41 41 41h758q41 0 41 -41v-942z" />
<glyph unicode="&#x12c;" horiz-adv-x="1148" d="M393 1802q11 0 19.5 -4.5t12 -9t13.5 -16.5q37 -43 137 -43q101 0 138 43q19 24 31 28q6 2 14 2h272q44 0 41 -43q-20 -132 -150.5 -198t-345.5 -66t-345 66t-150 198q-3 43 41 43h272zM1026 41q0 -41 -41 -41h-809q-41 0 -41 41v1352q0 41 41 41h809q41 0 41 -41v-1352z " />
<glyph unicode="&#x12d;" horiz-adv-x="1024" d="M330 1434q11 0 19.5 -5t12 -9t13.5 -17q37 -43 137 -43t137 43q1 1 4 5t4 5t3.5 4.5t3.5 4.5t4 3.5t4.5 3t4 2t5 2t6 1t6.5 0.5h273q44 0 41 -43q-20 -132 -150.5 -198.5t-345.5 -66.5t-345.5 66.5t-150.5 198.5q-3 43 41 43h273zM934 41q0 -41 -41 -41h-758 q-41 0 -41 41v942q0 41 41 41h758q41 0 41 -41v-942z" />
<glyph unicode="&#x12e;" horiz-adv-x="1148" d="M985 1434q41 0 41 -41v-1352q0 -41 -41 -41h8q-139 -43 -204 -63.5t-117.5 -40.5t-64.5 -31.5t-7 -24.5q8 -18 75 2.5t144 53.5q37 18 53 -21l76 -174q16 -40 -22 -55q-177 -66 -355 -69.5t-295.5 59.5t-117.5 178q0 155 209 186h-191q-41 0 -41 41v1352q0 41 41 41h809z " />
<glyph unicode="&#x12f;" horiz-adv-x="1024" d="M297 1147q-41 0 -41 41v205q0 41 41 41h430q41 0 41 -41v-205q0 -41 -41 -41h-430zM893 1024q41 0 41 -41v-942q0 -41 -41 -41h-70q-113 -35 -168.5 -53t-98.5 -35.5t-54 -28t-6 -22.5q8 -18 76 2t143 53q38 18 53 -20l76 -175q16 -39 -23 -55q-177 -66 -355 -69.5 t-295.5 59.5t-117.5 178q0 119 127 166h-45q-41 0 -41 41v942q0 41 41 41h758z" />
<glyph unicode="&#x130;" horiz-adv-x="1148" d="M831 1556q0 -40 -40 -40h-431q-41 0 -41 40v205q0 41 41 41h431q40 0 40 -41v-205zM1026 41q0 -41 -41 -41h-809q-41 0 -41 41v1352q0 41 41 41h809q41 0 41 -41v-1352z" />
<glyph unicode="&#x131;" horiz-adv-x="1024" d="M934 41q0 -41 -41 -41h-758q-41 0 -41 41v942q0 41 41 41h758q41 0 41 -41v-942z" />
<glyph unicode="&#x134;" horiz-adv-x="1372" d="M297 1516q-25 0 -32.5 13.5t7.5 35.5l220 295q16 24 49 24h544q34 0 50 -24l219 -295q15 -22 7.5 -35.5t-32.5 -13.5h-379q-29 0 -51 22l-86 92l-86 -92q-22 -22 -51 -22h-379zM61 414q0 43 45 37q46 -5 77.5 -8t62 -2t49 2t36.5 11.5t27.5 18.5t18 30.5t11.5 40 t5.5 54.5t3 66.5t0.5 83.5v645q0 41 41 41h748q41 0 41 -41v-830q0 -104 -8.5 -180t-31.5 -145t-60.5 -114.5t-99 -82t-144 -54.5t-198 -25t-258 0t-327.5 26q-41 3 -41 43z" />
<glyph unicode="&#x135;" horiz-adv-x="1024" d="M-4 1147q-25 0 -32.5 13.5t7.5 35.5l219 295q17 25 50 25h544q33 0 50 -25l219 -295q15 -22 7.5 -35.5t-32.5 -13.5h-379q-29 0 -51 22l-86 93l-86 -93q-22 -22 -51 -22h-379zM934 -369q0 -41 -41 -41h-758q-41 0 -41 41v1352q0 41 41 41h758q41 0 41 -41v-1352z" />
<glyph unicode="&#x136;" horiz-adv-x="2215" d="M2175 49q15 -20 8 -34.5t-33 -14.5h-888q-34 0 -50 29l-178 307l-100 -72v-223q0 -41 -41 -41h-748q-41 0 -41 41v1352q0 41 41 41h748q41 0 41 -41v-240l-12 -203l75 127l236 332q19 25 49 25h846q26 0 33.5 -16t-11.5 -36l-553 -589zM1427 -104q25 0 33 -15t-6 -35 l-297 -436q-17 -26 -49 -26h-453q-22 0 -31 12.5t-3 34.5l139 432q9 33 45 33h622z" />
<glyph unicode="&#x137;" horiz-adv-x="2048" d="M1999 49q15 -22 7.5 -35.5t-32.5 -13.5h-774q-31 0 -49 27l-131 194l-127 -65v-115q0 -41 -41 -41h-737q-41 0 -41 41v1352q0 41 41 41h737q41 0 41 -41v-574l-6 -139l61 106l162 213q19 25 49 25h772q26 0 34 -15.5t-9 -35.5l-348 -400zM1343 -104q25 0 33 -15t-6 -35 l-297 -436q-17 -26 -49 -26h-453q-22 0 -31 12.5t-3 34.5l139 432q9 33 45 33h622z" />
<glyph unicode="&#x138;" horiz-adv-x="2048" d="M1999 49q15 -22 7.5 -35.5t-32.5 -13.5h-774q-31 0 -49 27l-131 194l-127 -65v-115q0 -41 -41 -41h-737q-41 0 -41 41v942q0 41 41 41h737q41 0 41 -41v-164l-6 -139l61 106l162 213q19 25 49 25h772q26 0 34 -15.5t-9 -35.5l-348 -400z" />
<glyph unicode="&#x139;" horiz-adv-x="1822" d="M291 1516q-26 0 -34 15.5t9 35.5l223 254q19 22 52 22h592q28 0 34.5 -15.5t-14.5 -35.5l-274 -256q-20 -20 -50 -20h-538zM1733 430q41 0 41 -41v-348q0 -41 -41 -41h-1577q-41 0 -41 41v1352q0 41 41 41h788q41 0 41 -41v-963h748z" />
<glyph unicode="&#x13a;" horiz-adv-x="1024" d="M252 1516q-26 0 -34 15.5t9 35.5l224 254q19 22 51 22h592q28 0 34.5 -15.5t-14.5 -35.5l-274 -256q-20 -20 -49 -20h-539zM934 41q0 -41 -41 -41h-758q-41 0 -41 41v1352q0 41 41 41h758q41 0 41 -41v-1352z" />
<glyph unicode="&#x13b;" horiz-adv-x="1822" d="M1733 430q41 0 41 -41v-348q0 -41 -41 -41h-1577q-41 0 -41 41v1352q0 41 41 41h788q41 0 41 -41v-963h748zM1231 -104q25 0 32.5 -15t-6.5 -35l-296 -436q-17 -26 -50 -26h-452q-22 0 -31.5 12.5t-3.5 34.5l139 432q9 33 45 33h623z" />
<glyph unicode="&#x13c;" horiz-adv-x="1024" d="M934 41q0 -41 -41 -41h-758q-41 0 -41 41v1352q0 41 41 41h758q41 0 41 -41v-1352zM561 -590q-17 -26 -49 -26h-453q-22 0 -31 12.5t-3 34.5l139 432q9 33 45 33h622q25 0 33 -15t-6 -35z" />
<glyph unicode="&#x13d;" horiz-adv-x="1822" d="M279 1516q-34 0 -50 24l-219 295q-15 22 -7.5 35.5t32.5 13.5h379q29 0 51 -22l86 -93l86 93q22 22 51 22h379q25 0 32.5 -13.5t-7.5 -35.5l-220 -295q-16 -24 -49 -24h-544zM1733 430q41 0 41 -41v-348q0 -41 -41 -41h-1577q-41 0 -41 41v1352q0 41 41 41h788 q41 0 41 -41v-963h748z" />
<glyph unicode="&#x13e;" horiz-adv-x="1024" d="M-29 1835q-15 22 -7.5 35.5t32.5 13.5h379q29 0 51 -22l86 -93l86 93q22 22 51 22h379q25 0 32.5 -13.5t-7.5 -35.5l-219 -295q-16 -24 -50 -24h-544q-34 0 -50 24zM934 41q0 -41 -41 -41h-758q-41 0 -41 41v1352q0 41 41 41h758q41 0 41 -41v-1352z" />
<glyph unicode="&#x13f;" horiz-adv-x="1822" d="M1733 430q41 0 41 -41v-348q0 -41 -41 -41h-1577q-41 0 -41 41v1352q0 41 41 41h788q41 0 41 -41v-963h748zM1733 1057q41 0 41 -41v-348q0 -41 -41 -41h-492q-41 0 -41 41v348q0 41 41 41h492z" />
<glyph unicode="&#x140;" horiz-adv-x="1589" d="M934 41q0 -41 -41 -41h-758q-41 0 -41 41v1352q0 41 41 41h758q41 0 41 -41v-1352zM1589 532q0 -40 -41 -40h-491q-41 0 -41 40v349q0 41 41 41h491q41 0 41 -41v-349z" />
<glyph unicode="&#x141;" horiz-adv-x="1822" d="M1733 430q41 0 41 -41v-348q0 -41 -41 -41h-1577q-41 0 -41 41v365l-68 -23q-21 -7 -34 3t-13 32v346q0 33 35 45l80 25v559q0 41 41 41h788q41 0 41 -41v-279l252 80q21 7 34 -3t13 -32v-346q0 -33 -35 -45l-264 -84v-254h748z" />
<glyph unicode="&#x142;" horiz-adv-x="1024" d="M1126 1186q21 7 34.5 -3t13.5 -32v-346q0 -33 -35 -45l-205 -66v-653q0 -41 -41 -41h-758q-41 0 -41 41v385l-157 -51q-21 -7 -34.5 3t-13.5 32v346q0 33 35 45l170 55v537q0 41 41 41h758q41 0 41 -41v-269z" />
<glyph unicode="&#x143;" horiz-adv-x="2293" d="M887 1516q-26 0 -34 15.5t9 35.5l223 254q19 22 52 22h592q28 0 34.5 -15.5t-14.5 -35.5l-274 -256q-20 -20 -50 -20h-538zM2144 1434q41 0 41 -41v-1352q0 -41 -41 -41h-936q-34 0 -47 33l-282 715l34 -279l15 -428q0 -41 -39 -41h-725q-41 0 -41 41v1352q0 41 41 41 h934q34 0 47 -33l289 -727l-37 295l-11 424q0 41 41 41h717z" />
<glyph unicode="&#x144;" horiz-adv-x="1986" d="M733 1147q-26 0 -33.5 15.5t9.5 35.5l223 254q20 23 51 23h592q28 0 34.5 -16t-14.5 -36l-274 -256q-20 -20 -49 -20h-539zM1393 1044q77 0 139 -5.5t110.5 -15.5t86 -27.5t64 -36.5t45.5 -48t30 -57.5t17.5 -69t8.5 -78t2 -88.5v-577q0 -41 -41 -41h-737q-41 0 -41 41 v487q0 67 -7.5 92t-31.5 25q-56 0 -90.5 -71.5t-34.5 -225.5v-307q0 -41 -41 -41h-737q-41 0 -41 41v942q0 41 41 41h737q41 0 41 -41v-137q127 198 480 198z" />
<glyph unicode="&#x145;" horiz-adv-x="2293" d="M2144 1434q41 0 41 -41v-1352q0 -41 -41 -41h-936q-34 0 -47 33l-282 715l34 -279l15 -428q0 -41 -39 -41h-725q-41 0 -41 41v1352q0 41 41 41h934q34 0 47 -33l289 -727l-37 295l-11 424q0 41 41 41h717zM1466 -104q25 0 33 -15t-6 -35l-297 -436q-17 -26 -49 -26h-453 q-22 0 -31.5 12.5t-3.5 34.5l140 432q9 33 45 33h622z" />
<glyph unicode="&#x146;" horiz-adv-x="1986" d="M1393 1044q77 0 139 -5.5t110.5 -15.5t86 -27.5t64 -36.5t45.5 -48t30 -57.5t17.5 -69t8.5 -78t2 -88.5v-577q0 -41 -41 -41h-737q-41 0 -41 41v487q0 67 -7.5 92t-31.5 25q-56 0 -90.5 -71.5t-34.5 -225.5v-307q0 -41 -41 -41h-737q-41 0 -41 41v942q0 41 41 41h737 q41 0 41 -41v-137q127 198 480 198zM1313 -104q25 0 32.5 -15t-6.5 -35l-297 -436q-17 -26 -49 -26h-452q-22 0 -31.5 12.5t-3.5 34.5l139 432q9 33 45 33h623z" />
<glyph unicode="&#x147;" horiz-adv-x="2293" d="M825 1540l-219 295q-15 22 -7.5 35.5t32.5 13.5h379q29 0 51 -22l86 -93l86 93q22 22 51 22h379q25 0 32.5 -13.5t-7.5 -35.5l-220 -295q-16 -24 -49 -24h-545q-33 0 -49 24zM2144 1434q41 0 41 -41v-1352q0 -41 -41 -41h-936q-34 0 -47 33l-282 715l34 -279l15 -428 q0 -41 -39 -41h-725q-41 0 -41 41v1352q0 41 41 41h934q34 0 47 -33l289 -727l-37 295l-11 424q0 41 41 41h717z" />
<glyph unicode="&#x148;" horiz-adv-x="1986" d="M672 1171l-219 295q-15 22 -8 36t32 14h379q28 0 51 -23l86 -92l86 92q23 23 51 23h379q25 0 32.5 -14t-7.5 -36l-219 -295q-16 -24 -49 -24h-545q-33 0 -49 24zM1393 1044q77 0 139 -5.5t110.5 -15.5t86 -27.5t64 -36.5t45.5 -48t30 -57.5t17.5 -69t8.5 -78t2 -88.5 v-577q0 -41 -41 -41h-737q-41 0 -41 41v487q0 67 -7.5 92t-31.5 25q-56 0 -90.5 -71.5t-34.5 -225.5v-307q0 -41 -41 -41h-737q-41 0 -41 41v942q0 41 41 41h737q41 0 41 -41v-137q127 198 480 198z" />
<glyph unicode="&#x149;" horiz-adv-x="1986" d="M453 1135q-18 -27 -50 -27h-452q-22 0 -31.5 12.5t-3.5 34.5l139 432q9 33 45 33h623q25 0 33 -14.5t-6 -34.5zM1393 1044q77 0 139 -5.5t110.5 -15.5t86 -27.5t64 -36.5t45.5 -48t30 -57.5t17.5 -69t8.5 -78t2 -88.5v-577q0 -41 -41 -41h-737q-41 0 -41 41v487 q0 67 -7.5 92t-31.5 25q-56 0 -90.5 -71.5t-34.5 -225.5v-307q0 -41 -41 -41h-737q-41 0 -41 41v942q0 41 41 41h737q41 0 41 -41v-137q127 198 480 198z" />
<glyph unicode="&#x14c;" horiz-adv-x="2211" d="M1577 1802q41 0 41 -41v-205q0 -40 -41 -40h-942q-41 0 -41 40v205q0 41 41 41h942zM1108 -41q-185 0 -336 20t-261 55t-193 89t-136 116.5t-86 142t-46 161t-13 178.5q0 95 13 173.5t46 156t86 138t136 112.5t193 86t261 53.5t336 19.5t335.5 -19.5t260.5 -53.5t193 -86 t136 -112.5t85.5 -138t45.5 -156t13 -173.5q0 -97 -13 -178.5t-46 -161t-85.5 -142t-135.5 -116.5t-193 -89t-260.5 -55t-335.5 -20zM1108 410q119 0 159 62.5t40 248.5q0 179 -41 244t-158 65q-119 0 -160 -65t-41 -244q0 -186 40.5 -248.5t160.5 -62.5z" />
<glyph unicode="&#x14d;" horiz-adv-x="2027" d="M1485 1434q41 0 41 -41v-205q0 -41 -41 -41h-942q-41 0 -41 41v205q0 41 41 41h942zM1960 506q0 117 -25 200t-86.5 150t-169.5 106.5t-270.5 60.5t-392.5 21q-192 0 -337 -14t-250 -44t-174 -72t-109.5 -105t-57 -135t-16.5 -168q0 -97 16.5 -168t57 -132.5t109 -102 t173.5 -69t249.5 -41.5t338.5 -13q233 0 397 20.5t271 59t168 104.5t84.5 146.5t23.5 195.5zM1016 696q62 0 85 -49.5t23 -140.5q0 -97 -22 -137.5t-86 -40.5t-86.5 41t-22.5 137q0 90 23.5 140t85.5 50z" />
<glyph unicode="&#x14e;" horiz-adv-x="2211" d="M924 1802q11 0 19.5 -4.5t12 -9t13.5 -16.5q37 -43 137 -43t137 43q19 24 31 28q6 2 14 2h273q44 0 41 -43q-20 -132 -150.5 -198t-345.5 -66t-345.5 66t-150.5 198q-3 43 41 43h273zM1108 -41q-185 0 -336 20t-261 55t-193 89t-136 116.5t-86 142t-46 161t-13 178.5 q0 95 13 173.5t46 156t86 138t136 112.5t193 86t261 53.5t336 19.5t335.5 -19.5t260.5 -53.5t193 -86t136 -112.5t85.5 -138t45.5 -156t13 -173.5q0 -97 -13 -178.5t-46 -161t-85.5 -142t-135.5 -116.5t-193 -89t-260.5 -55t-335.5 -20zM1108 410q119 0 159 62.5t40 248.5 q0 179 -41 244t-158 65q-119 0 -160 -65t-41 -244q0 -186 40.5 -248.5t160.5 -62.5z" />
<glyph unicode="&#x14f;" horiz-adv-x="2027" d="M831 1434q11 0 19.5 -5t12.5 -9.5t14 -16.5q37 -43 137 -43t137 43q1 1 4 5t4 5t3.5 4.5t3.5 4.5t4 3.5t4.5 3t4 2t5 2t6 1t6.5 0.5h272q44 0 41 -43q-20 -132 -150 -198.5t-345 -66.5t-345.5 66.5t-150.5 198.5q-3 43 41 43h272zM1960 506q0 117 -25 200t-86.5 150 t-169.5 106.5t-270.5 60.5t-392.5 21q-192 0 -337 -14t-250 -44t-174 -72t-109.5 -105t-57 -135t-16.5 -168q0 -97 16.5 -168t57 -132.5t109 -102t173.5 -69t249.5 -41.5t338.5 -13q233 0 397 20.5t271 59t168 104.5t84.5 146.5t23.5 195.5zM1016 696q62 0 85 -49.5 t23 -140.5q0 -97 -22 -137.5t-86 -40.5t-86.5 41t-22.5 137q0 90 23.5 140t85.5 50z" />
<glyph unicode="&#x150;" horiz-adv-x="2211" d="M502 1516q-25 0 -32.5 13.5t7.5 35.5l191 254q16 24 49 24h555q26 0 32.5 -15.5t-12.5 -35.5l-248 -256q-18 -20 -51 -20h-491zM1196 1516q-26 0 -32.5 15.5t12.5 35.5l247 256q17 20 52 20h546q28 0 34.5 -16t-15.5 -35l-307 -258q-21 -18 -52 -18h-485zM1108 -41 q-185 0 -336 20t-261 55t-193 89t-136 116.5t-86 142t-46 161t-13 178.5q0 95 13 173.5t46 156t86 138t136 112.5t193 86t261 53.5t336 19.5t335.5 -19.5t260.5 -53.5t193 -86t136 -112.5t85.5 -138t45.5 -156t13 -173.5q0 -97 -13 -178.5t-46 -161t-85.5 -142 t-135.5 -116.5t-193 -89t-260.5 -55t-335.5 -20zM1108 410q119 0 159 62.5t40 248.5q0 179 -41 244t-158 65q-119 0 -160 -65t-41 -244q0 -186 40.5 -248.5t160.5 -62.5z" />
<glyph unicode="&#x151;" horiz-adv-x="2027" d="M410 1147q-25 0 -32.5 13.5t7.5 35.5l190 254q17 25 50 25h555q26 0 32.5 -16t-12.5 -36l-248 -256q-18 -20 -51 -20h-491zM1104 1147q-26 0 -33 15.5t12 35.5l248 256q18 21 51 21h547q28 0 34.5 -16.5t-15.5 -35.5l-308 -258q-21 -18 -51 -18h-485zM1960 506 q0 117 -25 200t-86.5 150t-169.5 106.5t-270.5 60.5t-392.5 21q-192 0 -337 -14t-250 -44t-174 -72t-109.5 -105t-57 -135t-16.5 -168q0 -97 16.5 -168t57 -132.5t109 -102t173.5 -69t249.5 -41.5t338.5 -13q233 0 397 20.5t271 59t168 104.5t84.5 146.5t23.5 195.5z M1016 696q62 0 85 -49.5t23 -140.5q0 -97 -22 -137.5t-86 -40.5t-86.5 41t-22.5 137q0 90 23.5 140t85.5 50z" />
<glyph unicode="&#x152;" horiz-adv-x="3117" d="M2974 1044h-942v-153h942q41 0 41 -41v-266q0 -41 -41 -41h-942v-154h942q41 0 41 -41v-307q0 -41 -41 -41h-1895q-244 0 -420.5 27t-297 80t-192 140.5t-102 198t-30.5 263.5q0 147 30 257t102.5 201t191.5 148t297.5 88t420.5 31h1895q41 0 41 -41v-308q0 -41 -41 -41z M1059 420h153v594h-153q-113 0 -160 -78.5t-47 -226.5q0 -145 46.5 -217t160.5 -72z" />
<glyph unicode="&#x153;" horiz-adv-x="3080" d="M2976 362q46 0 43 -18q-13 -66 -36.5 -114t-67.5 -91t-111.5 -71t-167 -48.5t-235 -30t-314.5 -9.5q-359 0 -520 79q-159 -79 -551 -79q-194 0 -338.5 13t-249.5 41.5t-173.5 69t-109 102t-57 132.5t-16.5 168q0 96 16.5 168t57 135t109.5 105t174 72t250 44t337 14 q389 0 551 -83q166 83 520 83q154 0 273 -6.5t214.5 -23t163.5 -38.5t118.5 -59t82 -78.5t51.5 -102.5t28 -125t11 -152q0 -41 -41 -41h-1006q3 -85 28.5 -118.5t94.5 -33.5q46 0 64.5 12.5t30.5 49.5q12 34 45 34h731zM2093 758q-53 0 -86.5 -42t-36.5 -104h244 q-2 146 -121 146zM1016 328q64 0 86 40.5t22 137.5q0 91 -23 140.5t-85 49.5t-85.5 -50t-23.5 -140q0 -96 22.5 -137t86.5 -41z" />
<glyph unicode="&#x154;" horiz-adv-x="2109" d="M795 1516q-26 0 -34 15.5t9 35.5l223 254q19 22 51 22h592q28 0 35 -15.5t-14 -35.5l-275 -256q-20 -20 -49 -20h-538zM2071 49q13 -22 5.5 -35.5t-32.5 -13.5h-764q-33 0 -49 29l-225 391h-93v-379q0 -41 -41 -41h-727q-41 0 -41 41v1352q0 41 41 41h949q243 0 412 -19 t277.5 -54.5t169 -98t83 -137.5t22.5 -185q0 -80 -13 -142t-44.5 -120.5t-91.5 -104t-148 -77.5zM1087 778q95 0 130.5 32t35.5 93q0 55 -35 83t-131 28h-174v-236h174z" />
<glyph unicode="&#x155;" horiz-adv-x="1443" d="M463 1147q-26 0 -34 15.5t9 35.5l224 254q20 23 51 23h592q28 0 34.5 -16t-14.5 -36l-274 -256q-20 -20 -50 -20h-538zM1389 1055q43 0 43 -41v-398q0 -41 -43 -41q-122 -1 -201 -10.5t-131 -26.5t-78 -50.5t-35.5 -74t-9.5 -106.5v-266q0 -41 -41 -41h-758q-41 0 -41 41 v942q0 41 41 41h758q41 0 41 -41v-158q59 93 174 157.5t281 72.5z" />
<glyph unicode="&#x156;" horiz-adv-x="2109" d="M2071 49q13 -22 5.5 -35.5t-32.5 -13.5h-764q-33 0 -49 29l-225 391h-93v-379q0 -41 -41 -41h-727q-41 0 -41 41v1352q0 41 41 41h949q243 0 412 -19t277.5 -54.5t169 -98t83 -137.5t22.5 -185q0 -80 -13 -142t-44.5 -120.5t-91.5 -104t-148 -77.5zM1087 778 q95 0 130.5 32t35.5 93q0 55 -35 83t-131 28h-174v-236h174zM1374 -104q25 0 33 -15t-6 -35l-297 -436q-17 -26 -49 -26h-453q-22 0 -31.5 12.5t-3.5 34.5l140 432q9 33 45 33h622z" />
<glyph unicode="&#x157;" horiz-adv-x="1443" d="M1389 1055q43 0 43 -41v-398q0 -41 -43 -41q-122 -1 -201 -10.5t-131 -26.5t-78 -50.5t-35.5 -74t-9.5 -106.5v-266q0 -41 -41 -41h-758q-41 0 -41 41v942q0 41 41 41h758q41 0 41 -41v-158q59 93 174 157.5t281 72.5zM823 -104q25 0 33 -15t-6 -35l-297 -436 q-17 -26 -49 -26h-453q-22 0 -31.5 12.5t-3.5 34.5l140 432q9 33 45 33h622z" />
<glyph unicode="&#x158;" horiz-adv-x="2109" d="M733 1540l-219 295q-15 22 -7.5 35.5t32.5 13.5h379q29 0 51 -22l86 -93l86 93q22 22 51 22h379q25 0 32 -13.5t-8 -35.5l-219 -295q-16 -24 -49 -24h-545q-33 0 -49 24zM2071 49q13 -22 5.5 -35.5t-32.5 -13.5h-764q-33 0 -49 29l-225 391h-93v-379q0 -41 -41 -41h-727 q-41 0 -41 41v1352q0 41 41 41h949q243 0 412 -19t277.5 -54.5t169 -98t83 -137.5t22.5 -185q0 -80 -13 -142t-44.5 -120.5t-91.5 -104t-148 -77.5zM1087 778q95 0 130.5 32t35.5 93q0 55 -35 83t-131 28h-174v-236h174z" />
<glyph unicode="&#x159;" horiz-adv-x="1443" d="M401 1171l-219 295q-15 22 -7.5 36t32.5 14h379q28 0 51 -23l86 -92l86 92q23 23 51 23h379q25 0 32.5 -14t-7.5 -36l-220 -295q-16 -24 -49 -24h-544q-34 0 -50 24zM1389 1055q43 0 43 -41v-398q0 -41 -43 -41q-122 -1 -201 -10.5t-131 -26.5t-78 -50.5t-35.5 -74 t-9.5 -106.5v-266q0 -41 -41 -41h-758q-41 0 -41 41v942q0 41 41 41h758q41 0 41 -41v-158q59 93 174 157.5t281 72.5z" />
<glyph unicode="&#x15a;" horiz-adv-x="2129" d="M815 1516q-26 0 -33.5 15.5t9.5 35.5l223 254q19 22 51 22h592q28 0 34.5 -15.5t-14.5 -35.5l-274 -256q-20 -20 -49 -20h-539zM2073 434q0 -87 -16 -150.5t-57 -120t-113 -94t-182.5 -65.5t-266.5 -40.5t-365 -12.5q-207 0 -360 12t-263.5 39.5t-182 65t-114 95.5 t-60.5 124t-21 157q0 41 41 41h745q37 0 43 -39q8 -57 44.5 -76.5t137.5 -19.5q93 0 126.5 20.5t33.5 61.5q0 35 -40 56.5t-107.5 32.5t-154.5 18t-184 17t-193.5 25.5t-183.5 47.5t-154.5 78.5t-107.5 123.5t-40 177q0 92 23 159t87.5 127t174.5 97t288.5 58t425.5 21 q155 0 277.5 -6.5t220.5 -20.5t170.5 -34t126 -50t88 -64.5t56 -82t31 -98.5t11.5 -117q0 -41 -41 -41h-745q-38 0 -41 39q-8 58 -40.5 77.5t-123.5 19.5q-95 0 -127.5 -19t-32.5 -61q0 -35 40 -57t107.5 -33t155 -18.5t184 -17.5t193 -25.5t184 -47.5t155 -78.5 t107.5 -123.5t40 -177z" />
<glyph unicode="&#x15b;" horiz-adv-x="1925" d="M702 1147q-26 0 -33.5 15.5t9.5 35.5l223 254q20 23 51 23h592q28 0 35 -16t-14 -36l-275 -256q-20 -20 -49 -20h-539zM1870 317q0 -65 -14.5 -111.5t-53 -86t-102.5 -64.5t-165 -42.5t-238.5 -25t-325.5 -7.5q-273 0 -443.5 17t-269 59.5t-136 102t-42.5 156.5 q-3 41 39 41h688q35 0 41 -41q6 -38 31.5 -50.5t89.5 -12.5q63 0 86.5 15t23.5 48q0 27 -34 42.5t-91.5 22t-132 9t-157 7t-164.5 13.5t-156.5 31t-132 55.5t-91.5 91.5t-34 136q0 82 37.5 138t134 99.5t273.5 63.5t444 20q214 0 361 -11.5t246 -34t154.5 -63t79 -91.5 t27.5 -127q3 -41 -39 -41h-684q-35 0 -41 41q-6 37 -30.5 49t-83.5 12q-57 0 -78 -14.5t-21 -48.5q0 -30 34.5 -48t92.5 -24.5t133.5 -9t158.5 -6.5t166 -11t158.5 -27t133.5 -52t92.5 -88t34.5 -132z" />
<glyph unicode="&#x15c;" horiz-adv-x="2129" d="M559 1516q-25 0 -32 13.5t8 35.5l219 295q16 24 49 24h545q33 0 49 -24l219 -295q15 -22 7.5 -35.5t-32.5 -13.5h-379q-29 0 -51 22l-86 92l-86 -92q-22 -22 -51 -22h-379zM2073 434q0 -87 -16 -150.5t-57 -120t-113 -94t-182.5 -65.5t-266.5 -40.5t-365 -12.5 q-207 0 -360 12t-263.5 39.5t-182 65t-114 95.5t-60.5 124t-21 157q0 41 41 41h745q37 0 43 -39q8 -57 44.5 -76.5t137.5 -19.5q93 0 126.5 20.5t33.5 61.5q0 35 -40 56.5t-107.5 32.5t-154.5 18t-184 17t-193.5 25.5t-183.5 47.5t-154.5 78.5t-107.5 123.5t-40 177 q0 92 23 159t87.5 127t174.5 97t288.5 58t425.5 21q155 0 277.5 -6.5t220.5 -20.5t170.5 -34t126 -50t88 -64.5t56 -82t31 -98.5t11.5 -117q0 -41 -41 -41h-745q-38 0 -41 39q-8 58 -40.5 77.5t-123.5 19.5q-95 0 -127.5 -19t-32.5 -61q0 -35 40 -57t107.5 -33t155 -18.5 t184 -17.5t193 -25.5t184 -47.5t155 -78.5t107.5 -123.5t40 -177z" />
<glyph unicode="&#x15d;" horiz-adv-x="1925" d="M446 1147q-25 0 -32 13.5t8 35.5l219 295q17 25 49 25h545q32 0 49 -25l219 -295q15 -22 8 -35.5t-32 -13.5h-379q-29 0 -51 22l-86 93l-86 -93q-22 -22 -52 -22h-379zM1870 317q0 -65 -14.5 -111.5t-53 -86t-102.5 -64.5t-165 -42.5t-238.5 -25t-325.5 -7.5 q-273 0 -443.5 17t-269 59.5t-136 102t-42.5 156.5q-3 41 39 41h688q35 0 41 -41q6 -38 31.5 -50.5t89.5 -12.5q63 0 86.5 15t23.5 48q0 27 -34 42.5t-91.5 22t-132 9t-157 7t-164.5 13.5t-156.5 31t-132 55.5t-91.5 91.5t-34 136q0 82 37.5 138t134 99.5t273.5 63.5t444 20 q214 0 361 -11.5t246 -34t154.5 -63t79 -91.5t27.5 -127q3 -41 -39 -41h-684q-35 0 -41 41q-6 37 -30.5 49t-83.5 12q-57 0 -78 -14.5t-21 -48.5q0 -30 34.5 -48t92.5 -24.5t133.5 -9t158.5 -6.5t166 -11t158.5 -27t133.5 -52t92.5 -88t34.5 -132z" />
<glyph unicode="&#x15e;" horiz-adv-x="2129" d="M2073 434q0 -89 -17 -154t-61 -122.5t-120.5 -95.5t-196.5 -64t-287 -37l-127 -266q-13 -31 -47 -31h-601q-25 0 -32 13.5t8 35.5l186 246q-170 10 -291.5 35.5t-200.5 63t-125.5 96.5t-66 127t-22.5 163q0 41 41 41h745q37 0 43 -39q8 -57 44.5 -76.5t137.5 -19.5 q93 0 126.5 20.5t33.5 61.5q0 35 -40 56.5t-107.5 32.5t-154.5 18t-184 17t-193.5 25.5t-183.5 47.5t-154.5 78.5t-107.5 123.5t-40 177q0 92 23 159t87.5 127t174.5 97t288.5 58t425.5 21q155 0 277.5 -6.5t220.5 -20.5t170.5 -34t126 -50t88 -64.5t56 -82t31 -98.5 t11.5 -117q0 -41 -41 -41h-745q-38 0 -41 39q-8 58 -40.5 77.5t-123.5 19.5q-95 0 -127.5 -19t-32.5 -61q0 -35 40 -57t107.5 -33t155 -18.5t184 -17.5t193 -25.5t184 -47.5t155 -78.5t107.5 -123.5t40 -177z" />
<glyph unicode="&#x15f;" horiz-adv-x="1925" d="M1870 317q0 -66 -15.5 -112.5t-53.5 -86t-105.5 -65t-169.5 -42.5t-246 -25l-139 -291q-13 -31 -47 -31h-600q-25 0 -32.5 13.5t7.5 35.5l207 273q-234 13 -363 52.5t-178.5 103.5t-54.5 173q-3 41 39 41h688q35 0 41 -41q6 -38 31.5 -50.5t89.5 -12.5q63 0 86.5 15 t23.5 48q0 27 -34 42.5t-91.5 22t-132 9t-157 7t-164.5 13.5t-156.5 31t-132 55.5t-91.5 91.5t-34 136q0 82 37.5 138t134 99.5t273.5 63.5t444 20q214 0 361 -11.5t246 -34t154.5 -63t79 -91.5t27.5 -127q3 -41 -39 -41h-684q-35 0 -41 41q-6 37 -30.5 49t-83.5 12 q-57 0 -78 -14.5t-21 -48.5q0 -30 34.5 -48t92.5 -24.5t133.5 -9t158.5 -6.5t166 -11t158.5 -27t133.5 -52t92.5 -88t34.5 -132z" />
<glyph unicode="&#x160;" horiz-adv-x="2129" d="M535 1835q-15 22 -8 35.5t32 13.5h379q29 0 51 -22l86 -93l86 93q22 22 51 22h379q25 0 32.5 -13.5t-7.5 -35.5l-219 -295q-16 -24 -49 -24h-545q-33 0 -49 24zM2073 434q0 -87 -16 -150.5t-57 -120t-113 -94t-182.5 -65.5t-266.5 -40.5t-365 -12.5q-207 0 -360 12 t-263.5 39.5t-182 65t-114 95.5t-60.5 124t-21 157q0 41 41 41h745q37 0 43 -39q8 -57 44.5 -76.5t137.5 -19.5q93 0 126.5 20.5t33.5 61.5q0 35 -40 56.5t-107.5 32.5t-154.5 18t-184 17t-193.5 25.5t-183.5 47.5t-154.5 78.5t-107.5 123.5t-40 177q0 92 23 159t87.5 127 t174.5 97t288.5 58t425.5 21q155 0 277.5 -6.5t220.5 -20.5t170.5 -34t126 -50t88 -64.5t56 -82t31 -98.5t11.5 -117q0 -41 -41 -41h-745q-38 0 -41 39q-8 58 -40.5 77.5t-123.5 19.5q-95 0 -127.5 -19t-32.5 -61q0 -35 40 -57t107.5 -33t155 -18.5t184 -17.5t193 -25.5 t184 -47.5t155 -78.5t107.5 -123.5t40 -177z" />
<glyph unicode="&#x161;" horiz-adv-x="1925" d="M422 1466q-15 22 -8 36t32 14h379q29 0 52 -23l86 -92l86 92q23 23 51 23h379q25 0 32 -14t-8 -36l-219 -295q-16 -24 -49 -24h-545q-33 0 -49 24zM1870 317q0 -65 -14.5 -111.5t-53 -86t-102.5 -64.5t-165 -42.5t-238.5 -25t-325.5 -7.5q-273 0 -443.5 17t-269 59.5 t-136 102t-42.5 156.5q-3 41 39 41h688q35 0 41 -41q6 -38 31.5 -50.5t89.5 -12.5q63 0 86.5 15t23.5 48q0 27 -34 42.5t-91.5 22t-132 9t-157 7t-164.5 13.5t-156.5 31t-132 55.5t-91.5 91.5t-34 136q0 82 37.5 138t134 99.5t273.5 63.5t444 20q214 0 361 -11.5t246 -34 t154.5 -63t79 -91.5t27.5 -127q3 -41 -39 -41h-684q-35 0 -41 41q-6 37 -30.5 49t-83.5 12q-57 0 -78 -14.5t-21 -48.5q0 -30 34.5 -48t92.5 -24.5t133.5 -9t158.5 -6.5t166 -11t158.5 -27t133.5 -52t92.5 -88t34.5 -132z" />
<glyph unicode="&#x162;" horiz-adv-x="2088" d="M2034 1434q41 0 41 -41v-349q0 -40 -41 -40h-543v-963q0 -41 -41 -41h-82l-145 -305q-13 -31 -47 -31h-601q-25 0 -32 13.5t8 35.5l217 287h-106q-41 0 -41 41v963h-543q-41 0 -41 40v349q0 41 41 41h1956z" />
<glyph unicode="&#x163;" horiz-adv-x="1372" d="M1038 637v-143q-2 -34 0 -61t4 -47t12.5 -33t24.5 -21t40.5 -10.5t60.5 -1t84 7.5q47 6 47 -37v-248q0 -38 -80 -47l-146 -12l-139 -289q-13 -31 -47 -31h-600q-25 0 -32.5 13.5t7.5 35.5l224 295q-85 23 -141 64t-86.5 103t-42 136t-9.5 178v148h-143q-41 0 -41 41v307 q0 41 41 41h143v367q0 41 41 41h737q41 0 41 -41v-367h232q41 0 41 -41v-307q0 -41 -41 -41h-232z" />
<glyph unicode="&#x164;" horiz-adv-x="2088" d="M723 1540l-219 295q-15 22 -8 35.5t32 13.5h379q29 0 51 -22l86 -93l86 93q22 22 52 22h379q25 0 32 -13.5t-8 -35.5l-219 -295q-16 -24 -49 -24h-545q-33 0 -49 24zM2034 1434q41 0 41 -41v-349q0 -40 -41 -40h-543v-963q0 -41 -41 -41h-788q-41 0 -41 41v963h-543 q-41 0 -41 40v349q0 41 41 41h1956z" />
<glyph unicode="&#x165;" horiz-adv-x="1372" d="M305 1540l-219 295q-15 22 -7.5 35.5t32.5 13.5h378q30 0 52 -22l86 -93l86 93q22 22 51 22h379q25 0 32 -13.5t-8 -35.5l-219 -295q-16 -24 -49 -24h-545q-33 0 -49 24zM1038 637v-143q-2 -34 0 -61t4 -47t12.5 -33t24.5 -21t40.5 -10.5t60.5 -1t84 7.5q47 6 47 -37 v-248q0 -38 -80 -47q-218 -21 -375 -23t-272 18t-185.5 56t-112 102t-55.5 145t-12 195v148h-143q-41 0 -41 41v307q0 41 41 41h143v367q0 41 41 41h737q41 0 41 -41v-367h232q41 0 41 -41v-307q0 -41 -41 -41h-232z" />
<glyph unicode="&#x166;" horiz-adv-x="2088" d="M2034 1434q41 0 41 -41v-349q0 -40 -41 -40h-543v-216h90q41 0 41 -40v-267q0 -41 -41 -41h-90v-399q0 -41 -41 -41h-788q-41 0 -41 41v399h-70q-41 0 -41 41v267q0 40 41 40h70v216h-543q-41 0 -41 40v349q0 41 41 41h1956z" />
<glyph unicode="&#x167;" horiz-adv-x="1372" d="M1270 637h-232v-53h230q41 0 41 -41v-123q0 -41 -41 -41h-224q10 -44 56.5 -54.5t163.5 3.5q47 6 47 -37v-248q0 -38 -80 -47q-198 -19 -345.5 -22t-259 11t-185 43t-121.5 80t-70.5 115.5t-28.5 155.5h-143q-41 0 -41 41v123q0 41 41 41h141v53h-143q-41 0 -41 41v307 q0 41 41 41h143v367q0 41 41 41h737q41 0 41 -41v-367h232q41 0 41 -41v-307q0 -41 -41 -41z" />
<glyph unicode="&#x168;" horiz-adv-x="2232" d="M1583 1808q45 28 45 -18v-178q0 -31 -18 -49q-33 -32 -86 -50t-99 -18q-73 0 -158 18.5t-150.5 40t-149.5 40t-156 18.5q-94 0 -164 -49q-43 -29 -43 20v176q0 28 17 51q65 68 182 68q74 0 159 -18.5t150 -40t149 -40t156 -18.5q95 0 166 47zM1286 680v713q0 41 41 41 h768q41 0 41 -41v-713q0 -112 -13 -199.5t-44 -165.5t-83 -134.5t-129 -102t-183 -73t-243.5 -42t-312.5 -14.5q-204 0 -358.5 18.5t-266.5 59.5t-186 98t-118 142t-62 183.5t-18 229.5v713q0 41 41 41h768q41 0 41 -41v-713q0 -86 5 -133t23.5 -77.5t47.5 -40t83 -9.5 q102 0 130 47.5t28 212.5z" />
<glyph unicode="&#x169;" d="M535 1194q-43 -29 -43 20v177q0 30 16 51q64 67 182 67q92 0 201 -29t217 -58t197 -29q94 0 165 47q46 29 46 -19v-178q0 -30 -19 -49q-33 -32 -85.5 -50t-98.5 -18q-73 0 -158 18.5t-151 40t-150 40t-156 18.5q-93 0 -163 -49zM1855 1024q41 0 41 -41v-942 q0 -41 -41 -41h-737q-41 0 -41 41v137q-127 -198 -479 -198q-77 0 -139 5.5t-110.5 15.5t-86 27.5t-64.5 36.5t-45.5 48t-30 57.5t-18 69t-8.5 78t-2 88.5v577q0 41 41 41h737q41 0 41 -41v-487q0 -67 7.5 -92t31.5 -25q56 0 90.5 71.5t34.5 225.5v307q0 41 41 41h737z" />
<glyph unicode="&#x16a;" horiz-adv-x="2232" d="M1587 1802q41 0 41 -41v-205q0 -40 -41 -40h-942q-41 0 -41 40v205q0 41 41 41h942zM1286 680v713q0 41 41 41h768q41 0 41 -41v-713q0 -112 -13 -199.5t-44 -165.5t-83 -134.5t-129 -102t-183 -73t-243.5 -42t-312.5 -14.5q-204 0 -358.5 18.5t-266.5 59.5t-186 98 t-118 142t-62 183.5t-18 229.5v713q0 41 41 41h768q41 0 41 -41v-713q0 -86 5 -133t23.5 -77.5t47.5 -40t83 -9.5q102 0 130 47.5t28 212.5z" />
<glyph unicode="&#x16b;" d="M532 1147q-40 0 -40 41v205q0 41 40 41h943q41 0 41 -41v-205q0 -41 -41 -41h-943zM1855 1024q41 0 41 -41v-942q0 -41 -41 -41h-737q-41 0 -41 41v137q-127 -198 -479 -198q-77 0 -139 5.5t-110.5 15.5t-86 27.5t-64.5 36.5t-45.5 48t-30 57.5t-18 69t-8.5 78t-2 88.5 v577q0 41 41 41h737q41 0 41 -41v-487q0 -67 7.5 -92t31.5 -25q56 0 90.5 71.5t34.5 225.5v307q0 41 41 41h737z" />
<glyph unicode="&#x16c;" horiz-adv-x="2232" d="M934 1802q11 0 19.5 -4.5t12 -9t13.5 -16.5q37 -43 137 -43t137 43q19 24 31 28q6 2 14 2h273q44 0 41 -43q-20 -132 -150.5 -198t-345.5 -66t-345 66t-150 198q-3 43 41 43h272zM1286 680v713q0 41 41 41h768q41 0 41 -41v-713q0 -112 -13 -199.5t-44 -165.5t-83 -134.5 t-129 -102t-183 -73t-243.5 -42t-312.5 -14.5q-204 0 -358.5 18.5t-266.5 59.5t-186 98t-118 142t-62 183.5t-18 229.5v713q0 41 41 41h768q41 0 41 -41v-713q0 -86 5 -133t23.5 -77.5t47.5 -40t83 -9.5q102 0 130 47.5t28 212.5z" />
<glyph unicode="&#x16d;" d="M1004 1126q-215 0 -345.5 66.5t-150.5 198.5q-3 43 41 43h272q11 0 19.5 -5t12 -9t13.5 -17q37 -43 138 -43q100 0 137 43q1 1 4 5t4 5t3.5 4.5t3.5 4.5t4 3.5t4.5 3t4 2t5 2t6 1t6.5 0.5h272q44 0 41 -43q-20 -132 -150 -198.5t-345 -66.5zM1855 1024q41 0 41 -41v-942 q0 -41 -41 -41h-737q-41 0 -41 41v137q-127 -198 -479 -198q-77 0 -139 5.5t-110.5 15.5t-86 27.5t-64.5 36.5t-45.5 48t-30 57.5t-18 69t-8.5 78t-2 88.5v577q0 41 41 41h737q41 0 41 -41v-487q0 -67 7.5 -92t31.5 -25q56 0 90.5 71.5t34.5 225.5v307q0 41 41 41h737z" />
<glyph unicode="&#x16e;" horiz-adv-x="2232" d="M2095 1434q41 0 41 -41v-713q0 -112 -13 -199.5t-44 -165.5t-83 -134.5t-129 -102t-183 -73t-243.5 -42t-312.5 -14.5q-204 0 -358.5 18.5t-266.5 59.5t-186 98t-118 142t-62 183.5t-18 229.5v713q0 41 41 41h676q-78 97 -78 221q0 148 105 253t253 105t253.5 -105 t105.5 -253q0 -124 -78 -221h698zM1116 1718q-26 0 -44.5 -18.5t-18.5 -44.5t18.5 -45t44.5 -19t45 19t19 45t-19 44.5t-45 18.5zM1128 420q102 0 130 47.5t28 212.5v659q-81 -43 -170 -43q-73 0 -147 33v-649q0 -86 5 -133t23.5 -77.5t47.5 -40t83 -9.5z" />
<glyph unicode="&#x16f;" d="M1855 1024q41 0 41 -41v-942q0 -41 -41 -41h-737q-41 0 -41 41v137q-127 -198 -479 -198q-77 0 -139 5.5t-110.5 15.5t-86 27.5t-64.5 36.5t-45.5 48t-30 57.5t-18 69t-8.5 78t-2 88.5v577q0 41 41 41h625q-54 51 -84.5 119t-30.5 143q0 148 105.5 253.5t253.5 105.5 t253 -105.5t105 -253.5q0 -75 -30.5 -143t-84.5 -119h608zM1004 1350q-26 0 -45 -19t-19 -45t19 -44.5t45 -18.5t44.5 18.5t18.5 44.5t-18.5 45t-44.5 19zM952 379q56 0 90.5 71.5t34.5 225.5v260q-33 -8 -73 -8q-48 0 -91 12v-444q0 -67 7.5 -92t31.5 -25z" />
<glyph unicode="&#x170;" horiz-adv-x="2232" d="M512 1516q-25 0 -32.5 13.5t7.5 35.5l191 254q16 24 49 24h555q26 0 33 -15.5t-12 -35.5l-248 -256q-17 -20 -51 -20h-492zM1206 1516q-26 0 -32.5 15.5t12.5 35.5l248 256q18 20 51 20h547q28 0 34 -16t-16 -35l-307 -258q-21 -18 -51 -18h-486zM1286 680v713 q0 41 41 41h768q41 0 41 -41v-713q0 -112 -13 -199.5t-44 -165.5t-83 -134.5t-129 -102t-183 -73t-243.5 -42t-312.5 -14.5q-204 0 -358.5 18.5t-266.5 59.5t-186 98t-118 142t-62 183.5t-18 229.5v713q0 41 41 41h768q41 0 41 -41v-713q0 -86 5 -133t23.5 -77.5t47.5 -40 t83 -9.5q102 0 130 47.5t28 212.5z" />
<glyph unicode="&#x171;" d="M399 1147q-25 0 -32 13.5t8 35.5l190 254q17 25 49 25h555q26 0 33 -16t-12 -36l-248 -256q-18 -20 -51 -20h-492zM1919 1475q28 0 34 -16.5t-16 -35.5l-307 -258q-21 -18 -51 -18h-485q-26 0 -33 15.5t12 35.5l248 256q18 21 51 21h547zM1855 1024q41 0 41 -41v-942 q0 -41 -41 -41h-737q-41 0 -41 41v137q-127 -198 -479 -198q-77 0 -139 5.5t-110.5 15.5t-86 27.5t-64.5 36.5t-45.5 48t-30 57.5t-18 69t-8.5 78t-2 88.5v577q0 41 41 41h737q41 0 41 -41v-487q0 -67 7.5 -92t31.5 -25q56 0 90.5 71.5t34.5 225.5v307q0 41 41 41h737z" />
<glyph unicode="&#x172;" horiz-adv-x="2232" d="M2095 1434q41 0 41 -41v-713q0 -155 -26 -266t-89 -200.5t-174 -146t-276 -85.5q-90 -29 -137 -45t-80.5 -30.5t-42.5 -24.5t-4 -21q8 -18 76 2t143 53q38 18 53 -20l76 -175q16 -39 -23 -55q-177 -66 -355 -69.5t-295.5 59.5t-117.5 178q0 75 49 121q-159 10 -280 35 t-209 69t-147 101.5t-94 138t-49.5 171.5t-14.5 210v713q0 41 41 41h768q41 0 41 -41v-713q0 -86 5 -133t23.5 -77.5t47.5 -40t83 -9.5q102 0 130 47.5t28 212.5v713q0 41 41 41h768z" />
<glyph unicode="&#x173;" d="M1855 1024q41 0 41 -41v-942q0 -41 -41 -41h-147q-114 -36 -169 -53.5t-98.5 -35t-54.5 -28t-6 -22.5q8 -18 76 2t143 53q39 19 54 -20l76 -175q16 -39 -23 -55q-177 -66 -355 -69.5t-295.5 59.5t-117.5 178q0 129 152 174q-13 10 -13 33v137q-127 -198 -479 -198 q-77 0 -139 5.5t-110.5 15.5t-86 27.5t-64.5 36.5t-45.5 48t-30 57.5t-18 69t-8.5 78t-2 88.5v577q0 41 41 41h737q41 0 41 -41v-487q0 -67 7.5 -92t31.5 -25q56 0 90.5 71.5t34.5 225.5v307q0 41 41 41h737z" />
<glyph unicode="&#x174;" horiz-adv-x="2682" d="M844 1516q-25 0 -32.5 13.5t7.5 35.5l219 295q16 24 49 24h545q33 0 49 -24l220 -295q15 -22 7.5 -35.5t-32.5 -13.5h-379q-29 0 -51 22l-86 92l-86 -92q-22 -22 -51 -22h-379zM2623 1434q20 0 31 -12.5t8 -32.5l-217 -1352q-5 -37 -45 -37h-899q-40 0 -45 37l-57 362 l-39 387l-39 -387l-57 -362q-5 -37 -45 -37h-900q-40 0 -45 37l-217 1352q-3 20 8 32.5t31 12.5h695q37 0 40 -39l60 -875l18 162l125 715q6 37 43 37h565q38 0 44 -37l124 -715l19 -162l59 875q3 39 41 39h694z" />
<glyph unicode="&#x175;" horiz-adv-x="2557" d="M764 1147q-25 0 -32.5 13.5t7.5 35.5l219 295q17 25 50 25h544q33 0 50 -25l219 -295q15 -22 7.5 -35.5t-32.5 -13.5h-379q-29 0 -51 22l-86 93l-86 -93q-22 -22 -51 -22h-379zM2511 1024q22 0 32 -12.5t5 -32.5l-211 -942q-10 -37 -45 -37h-869q-39 0 -45 37l-55 262 l-25 217l-24 -217l-55 -262q-6 -37 -45 -37h-867q-38 0 -47 35l-248 944q-6 20 3.5 32.5t31.5 12.5h672q40 0 43 -39l76 -618l26 196l97 424q10 37 45 37h589q39 0 45 -37l93 -424l26 -196l76 618q3 39 43 39h633z" />
<glyph unicode="&#x176;" horiz-adv-x="2150" d="M559 1516q-25 0 -32 13.5t8 35.5l219 295q16 24 49 24h545q33 0 49 -24l219 -295q15 -22 7.5 -35.5t-32.5 -13.5h-379q-29 0 -51 22l-86 92l-86 -92q-22 -22 -51 -22h-379zM2130 1434q25 0 33 -15t-6 -35l-650 -974v-369q0 -41 -41 -41h-796q-41 0 -41 41v377l-652 966 q-14 20 -6 35t33 15h821q36 0 47 -31l146 -352l49 -148l49 148l146 352q11 31 47 31h821z" />
<glyph unicode="&#x177;" horiz-adv-x="2107" d="M539 1147q-25 0 -32.5 13.5t7.5 35.5l219 295q17 25 49 25h545q32 0 49 -25l219 -295q15 -22 8 -35.5t-32 -13.5h-379q-29 0 -51 22l-86 93l-86 -93q-22 -22 -51 -22h-379zM2052 1024q23 0 31.5 -14.5t-2.5 -34.5l-748 -1356q-15 -29 -49 -29h-733q-23 0 -31.5 14t0.5 36 l146 307l-631 1028q-12 22 -5 35.5t31 13.5h781q36 0 45 -35l143 -450l23 -142l24 142l160 452q11 33 47 33h768z" />
<glyph unicode="&#x178;" horiz-adv-x="2150" d="M539 1516q-41 0 -41 40v205q0 41 41 41h430q41 0 41 -41v-205q0 -40 -41 -40h-430zM1180 1516q-41 0 -41 40v205q0 41 41 41h430q41 0 41 -41v-205q0 -40 -41 -40h-430zM2130 1434q25 0 33 -15t-6 -35l-650 -974v-369q0 -41 -41 -41h-796q-41 0 -41 41v377l-652 966 q-14 20 -6 35t33 15h821q36 0 47 -31l146 -352l49 -148l49 148l146 352q11 31 47 31h821z" />
<glyph unicode="&#x179;" horiz-adv-x="1884" d="M682 1516q-26 0 -34 15.5t9 35.5l224 254q19 22 51 22h592q28 0 34.5 -15.5t-14.5 -35.5l-274 -256q-20 -20 -49 -20h-539zM1817 1092l-474 -508l-182 -154h635q41 0 41 -41v-348q0 -41 -41 -41h-1690q-40 0 -40 41v252q0 26 20 49l451 483l217 179h-631q-41 0 -41 40 v349q0 41 41 41h1673q41 0 41 -41v-252q0 -26 -20 -49z" />
<glyph unicode="&#x17a;" horiz-adv-x="1656" d="M569 1147q-26 0 -33.5 15.5t9.5 35.5l223 254q20 23 51 23h592q28 0 35 -16t-14 -36l-275 -256q-20 -20 -49 -20h-539zM1571 754l-342 -283l-182 -102h507q41 0 41 -41v-287q0 -41 -41 -41h-1411q-41 0 -41 41v180q0 32 25 51l342 283l176 100h-487q-41 0 -41 41v287 q0 41 41 41h1396q41 0 41 -41v-180q0 -31 -24 -49z" />
<glyph unicode="&#x17b;" horiz-adv-x="1884" d="M727 1516q-41 0 -41 40v205q0 41 41 41h430q41 0 41 -41v-205q0 -40 -41 -40h-430zM1817 1092l-474 -508l-182 -154h635q41 0 41 -41v-348q0 -41 -41 -41h-1690q-40 0 -40 41v252q0 26 20 49l451 483l217 179h-631q-41 0 -41 40v349q0 41 41 41h1673q41 0 41 -41v-252 q0 -26 -20 -49z" />
<glyph unicode="&#x17c;" horiz-adv-x="1656" d="M614 1147q-41 0 -41 41v205q0 41 41 41h430q41 0 41 -41v-205q0 -41 -41 -41h-430zM1571 754l-342 -283l-182 -102h507q41 0 41 -41v-287q0 -41 -41 -41h-1411q-41 0 -41 41v180q0 32 25 51l342 283l176 100h-487q-41 0 -41 41v287q0 41 41 41h1396q41 0 41 -41v-180 q0 -31 -24 -49z" />
<glyph unicode="&#x17d;" horiz-adv-x="1884" d="M621 1540l-220 295q-15 22 -7.5 35.5t32.5 13.5h379q29 0 51 -22l86 -93l86 93q22 22 51 22h379q25 0 32.5 -13.5t-7.5 -35.5l-219 -295q-16 -24 -50 -24h-544q-33 0 -49 24zM1817 1092l-474 -508l-182 -154h635q41 0 41 -41v-348q0 -41 -41 -41h-1690q-40 0 -40 41v252 q0 26 20 49l451 483l217 179h-631q-41 0 -41 40v349q0 41 41 41h1673q41 0 41 -41v-252q0 -26 -20 -49z" />
<glyph unicode="&#x17e;" horiz-adv-x="1656" d="M508 1171l-219 295q-15 22 -8 36t32 14h379q28 0 51 -23l86 -92l86 92q23 23 52 23h379q25 0 32 -14t-8 -36l-219 -295q-16 -24 -49 -24h-545q-33 0 -49 24zM1571 754l-342 -283l-182 -102h507q41 0 41 -41v-287q0 -41 -41 -41h-1411q-41 0 -41 41v180q0 32 25 51 l342 283l176 100h-487q-41 0 -41 41v287q0 41 41 41h1396q41 0 41 -41v-180q0 -31 -24 -49z" />
<glyph unicode="&#x1fa;" horiz-adv-x="2232" d="M922 1829q-27 0 -33.5 16t12.5 35l154 154q20 20 49 20h559q31 0 35.5 -18t-23.5 -31l-329 -164q-24 -12 -52 -12h-372zM2202 47q7 -22 -2 -34.5t-31 -12.5h-785q-36 0 -45 35l-34 151h-394l-34 -153q-9 -35 -46 -35l-784 2q-22 0 -31 12.5t-2 34.5l449 1241q11 33 47 33 h272q-24 61 -24 129q0 148 105 253t253 105t253.5 -105t105.5 -253q0 -65 -25 -129h262q36 0 47 -33zM1116 1513q-26 0 -44.5 -18.5t-18.5 -44.5t18.5 -45t44.5 -19t45 19t19 45t-19 44.5t-45 18.5zM997 555h220l-89 377l-20 147l-23 -147z" />
<glyph unicode="&#x1fb;" d="M743 1704q-26 0 -33.5 15.5t9.5 35.5l223 254q20 23 51 23h592q28 0 35 -16t-14 -36l-275 -256q-20 -20 -49 -20h-539zM1886 1024q41 0 41 -41v-942q0 -41 -41 -41h-737q-41 0 -41 41v82q-180 -143 -500 -143q-129 0 -217.5 14.5t-156 49t-106 96t-57 150.5t-18.5 218 q0 162 26.5 263.5t94 163.5t169.5 85.5t265 23.5q108 0 199 -16q-74 48 -118 127.5t-44 171.5q0 148 105.5 253.5t253.5 105.5t253 -105.5t105 -253.5q0 -94 -45.5 -174.5t-122.5 -128.5h692zM1004 1391q-26 0 -45 -19t-19 -45t19 -44.5t45 -18.5t44.5 18.5t18.5 44.5 t-18.5 45t-44.5 19zM1004 969h-7q59 -27 111 -66v80v2q-53 -16 -104 -16zM961 328q60 0 113.5 51t53.5 139q0 77 -54 127.5t-113 50.5q-53 0 -81 -41t-28 -147q0 -98 28 -139t81 -41z" />
<glyph unicode="&#x1fc;" horiz-adv-x="2902" d="M1192 1495q-26 0 -34 15.5t9 35.5l224 254q20 23 51 23h592q28 0 34.5 -15.5t-14.5 -35.5l-274 -256q-21 -21 -49 -21h-539zM874 33q-9 -35 -45 -35l-782 2q-22 0 -31 12.5t-2 34.5l492 1354q11 33 47 33h2206q41 0 41 -41v-308q0 -41 -41 -41h-922l37 -153h885 q41 0 41 -41v-266q0 -41 -41 -41h-801l41 -154h760q41 0 41 -41v-307q0 -41 -41 -41h-1375q-41 0 -41 6v4l-40 176h-390zM997 555h222l-91 377l-20 149l-23 -149z" />
<glyph unicode="&#x1fd;" horiz-adv-x="3053" d="M1208 1147q-26 0 -33.5 15.5t9.5 35.5l223 254q20 23 51 23h592q28 0 35 -16t-14 -36l-275 -256q-20 -20 -49 -20h-539zM3002 459q0 -41 -41 -41h-1005q3 -85 28.5 -118.5t94.5 -33.5q46 0 64 12t30 50q12 34 45 34h731q22 0 31.5 -11.5t5.5 -31.5q-22 -92 -71.5 -152 t-153 -104t-274 -63.5t-427.5 -19.5q-478 0 -692 106q-202 -117 -702 -117q-180 0 -298 19t-188 62.5t-98.5 107t-28.5 159.5q0 93 60 154.5t155.5 89t211.5 40t232 15t211.5 6t155.5 20.5t60 52q0 34 -23 49t-86 15q-65 0 -92 -12.5t-33 -49.5q-6 -41 -41 -41h-725 q-41 0 -41 15q1 69 15.5 118.5t51.5 94t101 72.5t165 49.5t243.5 30.5t335.5 9q322 0 456 -77q215 77 594 77q154 0 273 -6.5t214.5 -23t163.5 -38.5t118.5 -59t82 -78.5t51.5 -102.5t28 -125t11 -152zM2066 758q-52 0 -85.5 -42t-36.5 -104h243q-2 146 -121 146zM985 272 q87 0 120.5 20.5t33.5 84.5v37q-140 -12 -207.5 -28t-67.5 -50q0 -33 25.5 -48.5t95.5 -15.5z" />
<glyph unicode="&#x1fe;" horiz-adv-x="2211" d="M846 1516q-26 0 -34 15.5t9 35.5l223 254q19 22 52 22h592q28 0 34.5 -15.5t-14.5 -35.5l-274 -256q-20 -20 -50 -20h-538zM2286 1417q22 9 34.5 0.5t12.5 -31.5v-364q0 -36 -31 -49l-141 -60q16 -81 16 -192q0 -97 -13 -178.5t-46 -161t-85.5 -142t-135.5 -116.5 t-193 -89t-260.5 -55t-335.5 -20q-584 0 -844 201l-340 -146q-22 -9 -34.5 -0.5t-12.5 31.5v365q0 36 31 49l145 61q-16 84 -16 201q0 95 13 173.5t46 156t86 138t136 112.5t193 86t261 53.5t336 19.5q577 0 836 -190zM1108 410q119 0 159 62.5t40 248.5q0 179 -41 244 t-158 65q-119 0 -160 -65t-41 -244q0 -186 40.5 -248.5t160.5 -62.5z" />
<glyph unicode="&#x1ff;" horiz-adv-x="2027" d="M754 1147q-26 0 -34 15.5t9 35.5l223 254q20 23 52 23h591q28 0 35 -16t-14 -36l-275 -256q-20 -20 -49 -20h-538zM1974 1208q22 10 35.5 1.5t13.5 -31.5v-363q0 -33 -28 -47l-70 -35q35 -92 35 -227q0 -115 -23.5 -195.5t-84.5 -146.5t-168 -104.5t-271 -59t-397 -20.5 q-363 0 -555 47l-410 -213q-22 -10 -35.5 -1.5t-13.5 31.5v363q0 33 29 47l71 37q-30 80 -30 215q0 96 16.5 168t57 135t109.5 105t174 72t250 44t337 14q352 0 555 -49zM1016 328q64 0 86 40.5t22 137.5q0 91 -23 140.5t-85 49.5t-85.5 -50t-23.5 -140q0 -96 22.5 -137 t86.5 -41z" />
<glyph unicode="&#x218;" horiz-adv-x="2129" d="M2073 434q0 -87 -16 -150.5t-57 -120t-113 -94t-182.5 -65.5t-266.5 -40.5t-365 -12.5q-207 0 -360 12t-263.5 39.5t-182 65t-114 95.5t-60.5 124t-21 157q0 41 41 41h745q37 0 43 -39q8 -57 44.5 -76.5t137.5 -19.5q93 0 126.5 20.5t33.5 61.5q0 35 -40 56.5 t-107.5 32.5t-154.5 18t-184 17t-193.5 25.5t-183.5 47.5t-154.5 78.5t-107.5 123.5t-40 177q0 92 23 159t87.5 127t174.5 97t288.5 58t425.5 21q155 0 277.5 -6.5t220.5 -20.5t170.5 -34t126 -50t88 -64.5t56 -82t31 -98.5t11.5 -117q0 -41 -41 -41h-745q-38 0 -41 39 q-8 58 -40.5 77.5t-123.5 19.5q-95 0 -127.5 -19t-32.5 -61q0 -35 40 -57t107.5 -33t155 -18.5t184 -17.5t193 -25.5t184 -47.5t155 -78.5t107.5 -123.5t40 -177zM1135 -590q-17 -26 -50 -26h-452q-22 0 -31.5 12.5t-3.5 34.5l139 432q9 33 45 33h623q25 0 33 -15t-6 -35z " />
<glyph unicode="&#x219;" horiz-adv-x="1925" d="M1870 317q0 -65 -14.5 -111.5t-53 -86t-102.5 -64.5t-165 -42.5t-238.5 -25t-325.5 -7.5q-273 0 -443.5 17t-269 59.5t-136 102t-42.5 156.5q-3 41 39 41h688q35 0 41 -41q6 -38 31.5 -50.5t89.5 -12.5q63 0 86.5 15t23.5 48q0 27 -34 42.5t-91.5 22t-132 9t-157 7 t-164.5 13.5t-156.5 31t-132 55.5t-91.5 91.5t-34 136q0 82 37.5 138t134 99.5t273.5 63.5t444 20q214 0 361 -11.5t246 -34t154.5 -63t79 -91.5t27.5 -127q3 -41 -39 -41h-684q-35 0 -41 41q-6 37 -30.5 49t-83.5 12q-57 0 -78 -14.5t-21 -48.5q0 -30 34.5 -48t92.5 -24.5 t133.5 -9t158.5 -6.5t166 -11t158.5 -27t133.5 -52t92.5 -88t34.5 -132zM1012 -590q-17 -26 -49 -26h-453q-22 0 -31.5 12.5t-3.5 34.5l139 432q9 33 45 33h623q25 0 33 -15t-6 -35z" />
<glyph unicode="&#x21a;" horiz-adv-x="2088" d="M2034 1434q41 0 41 -41v-349q0 -40 -41 -40h-543v-963q0 -41 -41 -41h-788q-41 0 -41 41v963h-543q-41 0 -41 40v349q0 41 41 41h1956zM1364 -104q25 0 33 -15t-6 -35l-297 -436q-17 -26 -50 -26h-452q-22 0 -31.5 12.5t-3.5 34.5l139 432q9 33 45 33h623z" />
<glyph unicode="&#x21b;" horiz-adv-x="1372" d="M1038 637v-143q-2 -34 0 -61t4 -47t12.5 -33t24.5 -21t40.5 -10.5t60.5 -1t84 7.5q47 6 47 -37v-248q0 -38 -80 -47q-218 -21 -375 -23t-272 18t-185.5 56t-112 102t-55.5 145t-12 195v148h-143q-41 0 -41 41v307q0 41 41 41h143v367q0 41 41 41h737q41 0 41 -41v-367 h232q41 0 41 -41v-307q0 -41 -41 -41h-232zM1087 -104q25 0 33 -15t-6 -35l-297 -436q-17 -26 -49 -26h-453q-22 0 -31 12.5t-3 34.5l139 432q9 33 45 33h622z" />
<glyph unicode="&#x237;" horiz-adv-x="1024" d="M934 -369q0 -41 -41 -41h-758q-41 0 -41 41v1352q0 41 41 41h758q41 0 41 -41v-1352z" />
<glyph unicode="&#x300;" horiz-adv-x="0" d="M-43 1198q17 -20 9 -35.5t-34 -15.5h-538q-29 0 -49 20l-275 256q-21 20 -14 36t35 16h592q31 0 51 -23z" />
<glyph unicode="&#x301;" horiz-adv-x="0" d="M-915 1147q-26 0 -34 15.5t9 35.5l223 254q20 23 51 23h592q28 0 35 -16t-14 -36l-275 -256q-20 -20 -49 -20h-538z" />
<glyph unicode="&#x302;" horiz-adv-x="0" d="M-1128 1147q-25 0 -32.5 13.5t7.5 35.5l219 295q17 25 49 25h545q32 0 49 -25l219 -295q15 -22 8 -35.5t-32 -13.5h-379q-29 0 -51 22l-86 93l-86 -93q-22 -22 -52 -22h-378z" />
<glyph unicode="&#x303;" horiz-adv-x="0" d="M-45 1440q45 28 45 -19v-178q0 -31 -18 -49q-33 -32 -86 -50t-99 -18q-73 0 -158 18.5t-150.5 40t-149.5 40t-156 18.5q-94 0 -164 -49q-43 -29 -43 20v177q0 30 16 51q64 67 183 67q92 0 201 -29t216.5 -58t196.5 -29q95 0 166 47z" />
<glyph unicode="&#x304;" horiz-adv-x="0" d="M-41 1434q41 0 41 -41v-205q0 -41 -41 -41h-942q-41 0 -41 41v205q0 41 41 41h942z" />
<glyph unicode="&#x306;" horiz-adv-x="0" d="M-680 1434q11 0 19.5 -5t12 -9t13.5 -17q37 -43 137 -43q101 0 138 43q1 1 4 5t4 5t3.5 4.5t3.5 4.5t4 3.5t4.5 3t4 2t5 2t6 1t6.5 0.5h272q44 0 41 -43q-20 -132 -150.5 -198.5t-345.5 -66.5t-345 66.5t-150 198.5q-3 43 41 43h272z" />
<glyph unicode="&#x307;" horiz-adv-x="0" d="M0 1188q0 -41 -41 -41h-430q-41 0 -41 41v205q0 41 41 41h430q41 0 41 -41v-205z" />
<glyph unicode="&#x308;" horiz-adv-x="0" d="M-641 1188q0 -41 -41 -41h-430q-41 0 -41 41v205q0 41 41 41h430q41 0 41 -41v-205zM0 1188q0 -41 -41 -41h-430q-41 0 -41 41v205q0 41 41 41h430q41 0 41 -41v-205z" />
<glyph unicode="&#x30a;" horiz-adv-x="0" d="M-242 928q-148 0 -253 105t-105 253t105 253.5t253 105.5t253.5 -105.5t105.5 -253.5t-105.5 -253t-253.5 -105zM-242 1223q26 0 45 18.5t19 44.5t-19 45t-45 19t-44.5 -19t-18.5 -45t18.5 -44.5t44.5 -18.5z" />
<glyph unicode="&#x30b;" horiz-adv-x="0" d="M-1597 1147q-25 0 -32.5 13.5t7.5 35.5l190 254q17 25 50 25h555q26 0 32.5 -16t-12.5 -36l-248 -256q-17 -20 -51 -20h-491zM-903 1147q-26 0 -33 15.5t12 35.5l248 256q18 21 51 21h547q28 0 34.5 -16.5t-15.5 -35.5l-308 -258q-21 -18 -51 -18h-485z" />
<glyph unicode="&#x30c;" horiz-adv-x="0" d="M-1153 1466q-15 22 -7.5 36t32.5 14h378q29 0 52 -23l86 -92l86 92q23 23 51 23h379q25 0 32 -14t-8 -36l-219 -295q-16 -24 -49 -24h-545q-33 0 -49 24z" />
<glyph unicode="&#x326;" horiz-adv-x="0" d="M-330 -590q-17 -26 -49 -26h-452q-22 0 -31.5 12.5t-3.5 34.5l139 432q9 33 45 33h623q25 0 32.5 -15t-6.5 -35z" />
<glyph unicode="&#x327;" horiz-adv-x="0" d="M-12 94q23 0 31 -13.5t-1 -35.5l-168 -350q-13 -31 -47 -31h-600q-25 0 -32 13.5t8 35.5l270 357q18 24 49 24h490z" />
<glyph unicode="&#x328;" horiz-adv-x="0" d="M-45 -299q16 -39 -23 -55q-177 -66 -355 -69.5t-295.5 59.5t-117.5 178q0 155 209 186h627q-139 -43 -204 -63.5t-117.5 -40.5t-64.5 -31.5t-7 -24.5q8 -18 75 2.5t144 53.5q37 18 53 -21z" />
<glyph unicode="&#x335;" horiz-adv-x="0" d="M-1372 1382q0 41 41 41h1030q41 0 41 -41v-266q0 -41 -41 -41h-1030q-41 0 -41 41v266z" />
<glyph unicode="&#x336;" horiz-adv-x="0" d="M-2226 1362q0 41 41 41h2144q41 0 41 -41v-225q0 -41 -41 -41h-2144q-41 0 -41 41v225z" />
<glyph unicode="&#x401;" horiz-adv-x="1998" d="M463 1556q-41 0 -41 41v205q0 41 41 41h430q41 0 41 -41v-205q0 -41 -41 -41h-430zM1104 1556q-41 0 -41 41v205q0 41 41 41h430q41 0 41 -41v-205q0 -41 -41 -41h-430zM1855 1044h-942v-153h942q41 0 41 -41v-266q0 -41 -41 -41h-942v-154h942q41 0 41 -41v-307 q0 -41 -41 -41h-1699q-41 0 -41 41v1352q0 41 41 41h1699q41 0 41 -41v-308q0 -41 -41 -41z" />
<glyph unicode="&#x404;" horiz-adv-x="2068" d="M1989 487q44 0 41 -41q-9 -100 -40.5 -173t-101 -135t-181.5 -99.5t-281.5 -58.5t-401.5 -21q-172 0 -312 20t-241.5 55t-178.5 89t-125.5 116t-78.5 142t-41.5 161t-11.5 179q0 95 11.5 173.5t41.5 156t78.5 138t125.5 112.5t178.5 86t241.5 53.5t312 19.5 q237 0 410.5 -21t283.5 -58t178 -97.5t97 -128.5t37 -162q3 -41 -41 -41l-732 2q-34 0 -43 39q-9 45 -49 64.5t-121 19.5q-96 0 -133 -47.5t-45 -173.5h549q41 0 41 -41v-184q0 -41 -41 -41h-549q4 -108 20.5 -161.5t52 -74t105.5 -20.5q94 0 130.5 23t42.5 89q3 41 43 41 h729z" />
<glyph unicode="&#x406;" horiz-adv-x="1148" d="M1026 41q0 -41 -41 -41h-809q-41 0 -41 41v1352q0 41 41 41h809q41 0 41 -41v-1352z" />
<glyph unicode="&#x407;" horiz-adv-x="1148" d="M510 1556q0 -40 -41 -40h-430q-41 0 -41 40v205q0 41 41 41h430q41 0 41 -41v-205zM1151 1556q0 -40 -41 -40h-430q-41 0 -41 40v205q0 41 41 41h430q41 0 41 -41v-205zM1026 41q0 -41 -41 -41h-809q-41 0 -41 41v1352q0 41 41 41h809q41 0 41 -41v-1352z" />
<glyph unicode="&#x410;" horiz-adv-x="2232" d="M2202 47q7 -22 -2 -34.5t-31 -12.5h-785q-36 0 -45 35l-34 151h-394l-34 -153q-9 -35 -46 -35l-784 2q-22 0 -31 12.5t-2 34.5l492 1354q11 33 47 33h1110q36 0 47 -33zM997 555h220l-89 377l-20 147l-23 -147z" />
<glyph unicode="&#x411;" horiz-adv-x="2109" d="M1087 877q196 0 340.5 -9t254 -30.5t180.5 -53.5t115.5 -80.5t62.5 -108.5t18 -142q0 -92 -18 -157.5t-63 -118t-114.5 -85t-181 -54t-254 -30t-340.5 -8.5h-942q-41 0 -41 41v1352q0 41 41 41h1700q41 0 41 -41v-349q0 -40 -41 -40h-911v-127h153zM1067 387 q145 0 145 82q0 43 -31 64.5t-114 21.5h-133v-168h133z" />
<glyph unicode="&#x412;" horiz-adv-x="2150" d="M1784 737q315 -37 315 -338q0 -147 -74 -233t-240 -126t-452 -40h-1188q-41 0 -41 41v1352q0 41 41 41h1147q177 0 298.5 -10t215.5 -33.5t147 -65.5t79 -103.5t26 -150.5q0 -66 -10.5 -116t-38.5 -97.5t-84.5 -78t-140.5 -42.5zM1274 965q0 41 -26 60t-87 19h-258v-167 h258q61 0 87 22t26 66zM1182 397q61 0 86.5 21t25.5 63q0 52 -25 74.5t-87 22.5h-279v-181h279z" />
<glyph unicode="&#x413;" horiz-adv-x="1947" d="M1855 1434q41 0 41 -41v-349q0 -40 -41 -40h-911v-963q0 -41 -41 -41h-747q-41 0 -41 41v1352q0 41 41 41h1699z" />
<glyph unicode="&#x414;" horiz-adv-x="2179" d="M2124 369q41 0 41 -41v-533q0 -41 -41 -41h-656q-41 0 -41 41v205h-692v-205q0 -41 -41 -41h-655q-41 0 -41 41v533q0 41 41 41h125q65 21 100.5 69t59.5 158l178 801q10 37 45 37h1433q41 0 41 -41v-1024h103zM1040 606q-15 -118 -45 -166.5t-98 -70.5h387v614h-192z " />
<glyph unicode="&#x415;" horiz-adv-x="1998" d="M1855 1044h-942v-153h942q41 0 41 -41v-266q0 -41 -41 -41h-942v-154h942q41 0 41 -41v-307q0 -41 -41 -41h-1699q-41 0 -41 41v1352q0 41 41 41h1699q41 0 41 -41v-308q0 -41 -41 -41z" />
<glyph unicode="&#x416;" horiz-adv-x="2908" d="M2361 717l506 -668q15 -22 8 -35.5t-32 -13.5h-795q-32 0 -47 29l-168 323l-55 174v-485q0 -41 -41 -41h-604q-41 0 -41 41v479l-54 -168l-168 -323q-14 -29 -47 -29h-796q-25 0 -32.5 14.5t7.5 34.5l510 668l-508 667q-15 22 -7.5 36t32.5 14h796q33 0 47 -29l166 -324 l54 -166v478q0 41 41 41h604q41 0 41 -41v-486l55 174l166 324q15 29 47 29h797q25 0 32 -14t-8 -36z" />
<glyph unicode="&#x417;" horiz-adv-x="2144" d="M1982 639q44 -51 63 -108.5t19 -137.5q0 -55 -9.5 -97.5t-36 -87t-71.5 -77.5t-120.5 -62.5t-178.5 -48t-248 -29.5t-327 -11q-159 0 -281.5 5.5t-222.5 18.5t-171 31t-124.5 48t-86.5 64.5t-54 85.5t-29 105.5t-10 128.5q0 41 41 41h756q41 0 41 -41q4 -73 32.5 -96 t108.5 -23q61 0 91 25.5t30 83.5q0 67 -34.5 96t-86.5 29h-422q-41 0 -41 41v204q0 41 41 41h422q25 0 38 1t34 6.5t31.5 16t19 32.5t8.5 53q0 59 -33 83.5t-108 24.5q-61 0 -83.5 -21t-25.5 -77q-3 -41 -43 -41h-755q-41 0 -41 41q2 71 10.5 124t29.5 101.5t53 81.5 t84.5 62t121 46t165 29.5t214 17.5t270.5 5q185 0 331 -10t249.5 -27t177.5 -44.5t119 -58.5t71 -74t34.5 -84.5t8.5 -96.5q0 -148 -72 -258q-27 -41 -118 -86q57 -27 79.5 -41.5t38.5 -34.5z" />
<glyph unicode="&#x418;" horiz-adv-x="2293" d="M2130 1434q41 0 41 -41v-1352q0 -41 -41 -41h-725q-39 0 -39 41l14 428l35 279l-282 -715q-13 -33 -48 -33h-935q-41 0 -41 41v1352q0 41 41 41h716q41 0 41 -41l-10 -424l-37 -295l289 727q13 33 47 33h934z" />
<glyph unicode="&#x419;" horiz-adv-x="2293" d="M1147 1536q-215 0 -345.5 66t-150.5 198q-3 43 41 43h273q11 0 19.5 -5t12 -9t13.5 -17q37 -43 137 -43t137 43q1 1 4 5t4 5t3.5 4.5t3.5 4.5t4 3.5t4.5 3t4 2t5 2t6 1t6.5 0.5h273q43 0 40 -43q-20 -132 -150 -198t-345 -66zM2130 1434q41 0 41 -41v-1352q0 -41 -41 -41 h-725q-39 0 -39 41l14 428l35 279l-282 -715q-13 -33 -48 -33h-935q-41 0 -41 41v1352q0 41 41 41h716q41 0 41 -41l-10 -424l-37 -295l289 727q13 33 47 33h934z" />
<glyph unicode="&#x41a;" horiz-adv-x="2215" d="M2175 49q15 -20 8 -34.5t-33 -14.5h-888q-34 0 -50 29l-178 307l-100 -72v-223q0 -41 -41 -41h-748q-41 0 -41 41v1352q0 41 41 41h748q41 0 41 -41v-240l-12 -203l75 127l236 332q19 25 49 25h846q26 0 33.5 -16t-11.5 -36l-553 -589z" />
<glyph unicode="&#x41b;" horiz-adv-x="2199" d="M2064 1434q41 0 41 -41v-1352q0 -41 -41 -41h-757q-41 0 -41 41v942h-172l-52 -377q-13 -90 -25.5 -156t-35 -151.5t-58.5 -156t-83 -122.5q-20 -20 -49 -20h-746q-26 0 -31.5 13.5t9.5 35.5q40 51 72 115.5t57.5 152t37 134t33.5 145.5l178 801q10 37 45 37h1618z" />
<glyph unicode="&#x41c;" horiz-adv-x="2703" d="M2540 1434q40 0 40 -41v-1352q0 -41 -40 -41h-627q-39 0 -39 41l33 924l-90 -494q-70 -315 -103 -436q-8 -35 -45 -35h-663q-36 0 -45 33q-16 55 -42.5 164.5t-45.5 191.5l-19 82l-82 449l33 -879q0 -41 -39 -41h-633q-41 0 -41 41v1352q0 41 41 41h1016q35 0 45 -37 l53 -240l76 -534l14 -193l13 193l75 534l54 240q10 37 45 37h1016z" />
<glyph unicode="&#x41d;" horiz-adv-x="2150" d="M2015 1434q41 0 41 -41v-1352q0 -41 -41 -41h-758q-40 0 -40 41v451h-283v-451q0 -41 -41 -41h-758q-41 0 -41 41v1352q0 41 41 41h758q41 0 41 -41v-451h283v451q0 41 40 41h758z" />
<glyph unicode="&#x41e;" horiz-adv-x="2211" d="M1108 -41q-185 0 -336 20t-261 55t-193 89t-136 116.5t-86 142t-46 161t-13 178.5q0 95 13 173.5t46 156t86 138t136 112.5t193 86t261 53.5t336 19.5t335.5 -19.5t260.5 -53.5t193 -86t136 -112.5t85.5 -138t45.5 -156t13 -173.5q0 -97 -13 -178.5t-46 -161t-85.5 -142 t-135.5 -116.5t-193 -89t-260.5 -55t-335.5 -20zM1108 410q119 0 159 62.5t40 248.5q0 179 -41 244t-158 65q-119 0 -160 -65t-41 -244q0 -186 40.5 -248.5t160.5 -62.5z" />
<glyph unicode="&#x41f;" horiz-adv-x="2150" d="M2015 1434q41 0 41 -41v-1352q0 -41 -41 -41h-758q-40 0 -40 41v942h-283v-942q0 -41 -41 -41h-758q-41 0 -41 41v1352q0 41 41 41h1880z" />
<glyph unicode="&#x420;" horiz-adv-x="2068" d="M1087 1434q198 0 340.5 -9.5t254 -34t181 -60.5t114.5 -93.5t63 -130t18 -172.5q0 -115 -27 -196t-92 -144t-177 -100t-277 -55.5t-398 -18.5h-153v-379q0 -41 -41 -41h-748q-41 0 -41 41v1352q0 41 41 41h942zM1087 778q95 0 130.5 32t35.5 93q0 55 -35 83t-131 28h-153 v-236h153z" />
<glyph unicode="&#x421;" horiz-adv-x="2211" d="M1346 856q-37 0 -43 41q-10 86 -47.5 114.5t-127.5 28.5q-60 0 -95.5 -15.5t-54.5 -57t-24.5 -95.5t-5.5 -151q0 -84 3.5 -133.5t13.5 -90.5t31 -60t52 -28.5t80 -9.5q100 0 135 33.5t44 140.5q3 41 41 41h768q41 0 38 -41q-7 -132 -38 -225.5t-101.5 -170.5t-187.5 -123 t-294.5 -70.5t-424.5 -24.5q-181 0 -327 20t-252.5 55t-186 89t-129.5 116t-80.5 142.5t-42.5 161t-12 178.5q0 95 12 173.5t42.5 156.5t80.5 138t129.5 112t186 86t252.5 53.5t327 19.5q215 0 372.5 -13t273 -43t189.5 -72t120 -108.5t66 -143.5t25 -185q3 -41 -38 -41z " />
<glyph unicode="&#x422;" horiz-adv-x="2088" d="M2034 1434q41 0 41 -41v-349q0 -40 -41 -40h-543v-963q0 -41 -41 -41h-788q-41 0 -41 41v963h-543q-41 0 -41 40v349q0 41 41 41h1956z" />
<glyph unicode="&#x423;" horiz-adv-x="2009" d="M1993 1434q23 0 31 -15t-3 -35l-747 -1355q-14 -29 -49 -29h-733q-23 0 -31.5 13.5t0.5 35.5l145 307l-631 1028q-12 22 -5 36t32 14h780q36 0 45 -35l144 -451l22 -141l25 141l160 453q11 33 47 33h768z" />
<glyph unicode="&#x424;" horiz-adv-x="2723" d="M2656 711q0 -86 -9.5 -150t-35.5 -125t-71.5 -103.5t-116.5 -79.5t-172 -61t-237 -40t-312 -23v-129h-676v129q-176 7 -311 22.5t-236.5 39t-172 60t-116.5 79t-72 103.5t-36 125.5t-10 152.5q0 102 14 175t52 140.5t105 112.5t172.5 81t256 56t354.5 29v231h676v-231 q174 -8 308.5 -24.5t236 -41t172.5 -62t117.5 -81.5t72.5 -105.5t36.5 -127t10.5 -152.5zM825 711q0 -44 2 -69t9.5 -51.5t22.5 -39.5t42.5 -26t67 -18.5t98.5 -8.5v436q-58 -5 -98.5 -13t-67 -22.5t-42 -29t-23 -42t-9.5 -51t-2 -65.5zM1661 498q59 3 98.5 8.5t67 18.5 t42.5 26t22.5 39.5t9.5 51.5t2 69q0 42 -2 65.5t-9.5 51t-23 42t-42 29t-67 22.5t-98.5 13v-436z" />
<glyph unicode="&#x425;" horiz-adv-x="2211" d="M1720 717l455 -668q14 -22 7 -35.5t-32 -13.5h-819q-31 0 -47 31l-147 301l-50 133l-49 -133l-147 -301q-15 -31 -47 -31h-821q-25 0 -32 13.5t7 35.5l459 668l-457 667q-14 22 -7 36t32 14h821q34 0 47 -31l145 -301l49 -131l50 131l145 301q13 31 47 31h821 q25 0 32 -14t-7 -36z" />
<glyph unicode="&#x426;" horiz-adv-x="2275" d="M2220 449q41 0 41 -41v-613q0 -41 -41 -41h-635q-41 0 -41 41v205h-1409q-41 0 -41 41v1352q0 41 41 41h758q41 0 41 -41v-942h283v942q0 41 40 41h758q41 0 41 -41v-944h164z" />
<glyph unicode="&#x427;" horiz-adv-x="2123" d="M1989 1434q41 0 41 -41v-1352q0 -41 -41 -41h-762q-41 0 -41 41l2 397q-306 -96 -684 -96q-225 0 -326.5 99.5t-101.5 308.5v643q0 41 41 41h757q41 0 41 -41v-457q0 -74 20.5 -97.5t82.5 -23.5q88 0 170 31l2 547q0 41 41 41h758z" />
<glyph unicode="&#x428;" horiz-adv-x="2564" d="M2429 1434q41 0 41 -41v-1352q0 -41 -41 -41h-2294q-41 0 -41 41v1352q0 41 41 41h625q41 0 41 -41v-1004h174v1006q0 41 41 41h532q41 0 41 -41v-1006h174v1004q0 41 41 41h625z" />
<glyph unicode="&#x429;" horiz-adv-x="2689" d="M2634 449q41 0 41 -41v-613q0 -41 -41 -41h-635q-41 0 -41 41v205h-1823q-41 0 -41 41v1352q0 41 41 41h625q41 0 41 -41v-1004h174v1006q0 41 41 41h532q41 0 41 -41v-1006h174v1004q0 41 41 41h625q41 0 41 -41v-944h164z" />
<glyph unicode="&#x42a;" horiz-adv-x="2613" d="M1563 1014q233 0 397.5 -18.5t277 -55.5t177 -100t91.5 -144t27 -196q0 -100 -18 -172.5t-62.5 -130t-114.5 -93.5t-181 -60.5t-253.5 -34t-340.5 -9.5h-942q-41 0 -41 41v963h-502q-41 0 -41 40v349q0 41 41 41h1290q41 0 41 -41v-379h154zM1563 420q96 0 131 27.5 t35 82.5q0 61 -35.5 93t-130.5 32h-154v-235h154z" />
<glyph unicode="&#x42b;" horiz-adv-x="3217" d="M1087 1014q233 0 398 -18.5t277 -55.5t177 -100t92 -144t27 -196q0 -100 -18 -172.5t-63 -130t-114.5 -93.5t-181 -60.5t-254 -34t-340.5 -9.5h-942q-41 0 -41 41v1352q0 41 41 41h748q41 0 41 -41v-379h153zM3054 1434q41 0 41 -41v-1352q0 -41 -41 -41h-809 q-41 0 -41 41v1352q0 41 41 41h809zM1087 420q96 0 131 27.5t35 82.5q0 61 -35.5 93t-130.5 32h-153v-235h153z" />
<glyph unicode="&#x42c;" horiz-adv-x="2068" d="M1087 1014q233 0 398 -18.5t277 -55.5t177 -100t92 -144t27 -196q0 -100 -18 -172.5t-63 -130t-114.5 -93.5t-181 -60.5t-254 -34t-340.5 -9.5h-942q-41 0 -41 41v1352q0 41 41 41h748q41 0 41 -41v-379h153zM1087 420q96 0 131 27.5t35 82.5q0 61 -35.5 93t-130.5 32 h-153v-235h153z" />
<glyph unicode="&#x42d;" horiz-adv-x="2068" d="M1044 1460q172 0 312 -19.5t242 -53.5t178.5 -86t125 -112.5t78.5 -138t42 -156t12 -173.5q0 -98 -12 -179t-42 -161t-78.5 -142t-125 -116t-178.5 -89t-242 -55t-312 -20q-232 0 -401.5 21t-281.5 58.5t-181.5 99.5t-100.5 135t-40 173q-3 41 41 41h729q40 0 43 -41 q6 -66 42 -89t130 -23q70 0 105.5 20.5t52 74t20.5 161.5h-549q-41 0 -41 41v184q0 41 41 41h549q-8 126 -45 173.5t-133 47.5q-81 0 -121 -19.5t-49 -64.5q-9 -39 -43 -39l-731 -2q-44 0 -41 41q8 94 37 162t96.5 128.5t178 97.5t283.5 58t410 21z" />
<glyph unicode="&#x42e;" horiz-adv-x="2977" d="M1956 1460q167 0 304.5 -19t239 -53.5t178.5 -86.5t127 -112.5t81 -137.5t44 -156.5t13 -173.5q0 -97 -13 -178.5t-44 -161t-81 -142t-127 -116t-178.5 -89t-239 -55.5t-304.5 -20q-176 0 -317 25.5t-240.5 71.5t-171.5 113.5t-113.5 146.5t-62.5 176h-117v-451 q0 -41 -41 -41h-758q-41 0 -41 41v1352q0 41 41 41h758q41 0 41 -41v-451h117q27 119 87 210.5t165 162.5t269.5 108t383.5 37zM1894 410q119 0 159 62.5t40 248.5q0 179 -41 244t-158 65q-119 0 -159.5 -65t-40.5 -244q0 -186 40 -248.5t160 -62.5z" />
<glyph unicode="&#x42f;" horiz-adv-x="2109" d="M1964 1434q41 0 41 -41v-1352q0 -41 -41 -41h-727q-41 0 -41 41v379h-92l-225 -391q-16 -29 -50 -29h-763q-25 0 -32.5 13.5t5.5 35.5l309 447q-88 32 -148 77.5t-91.5 104t-44.5 120.5t-13 142q0 91 15 157t55 124.5t108.5 96t176 65t257.5 39.5t353 12h948zM856 903 q0 -61 35.5 -93t130.5 -32h174v236h-174q-96 0 -131 -28t-35 -83z" />
<glyph unicode="&#x430;" horiz-adv-x="2017" d="M1010 1044q227 0 390.5 -14t267 -39t164 -66t83 -88.5t22.5 -113.5v-682q0 -41 -41 -41h-696q-41 0 -41 41v70q-176 -142 -493 -142q-180 0 -298 19t-188 62.5t-98.5 107t-28.5 159.5q0 82 46.5 140.5t123 89t174 50t199.5 24.5t199.5 10.5t174 11t123 23.5t46.5 49 q0 34 -23 48.5t-86 14.5q-66 0 -92.5 -12t-32.5 -49q-6 -41 -41 -41h-725q-41 0 -41 14q1 83 22.5 137.5t77.5 99t159.5 68.5t261.5 36.5t391 12.5zM985 272q87 0 120.5 20.5t33.5 84.5v37q-140 -12 -207.5 -28t-67.5 -50q0 -33 25.5 -48.5t95.5 -15.5z" />
<glyph unicode="&#x431;" horiz-adv-x="2172" d="M1522 969q167 0 273 -25t168 -84t85 -143t23 -217q0 -99 -18.5 -172.5t-62.5 -133t-114.5 -99t-179 -66t-251 -38t-333.5 -11.5q-180 0 -313.5 7t-239.5 28.5t-177 46t-122 73.5t-79 97.5t-43.5 131.5t-19.5 161t-3 200q0 69 3.5 120t15.5 112t32.5 105t56 92t86 81.5 t123.5 65.5t166 50.5t216 30t271 11.5q68 0 95 7t34 30q6 19 15.5 27.5t27.5 8.5h605q41 0 41 -20q-2 -94 -24.5 -159t-75 -115.5t-144 -79.5t-226 -43.5t-327.5 -14.5q-99 0 -130.5 -30.5t-35.5 -135.5q134 101 582 101zM1102 358q160 0 160 140q0 120 -123 120 q-111 0 -197 -38q2 -53 6 -89t13 -61.5t19 -39t30 -21t39 -9.5t53 -2z" />
<glyph unicode="&#x432;" horiz-adv-x="2150" d="M1792 528q227 -26 227 -241q0 -81 -31.5 -132.5t-115.5 -88t-229 -51.5t-375 -15h-1065q-41 0 -41 41v942q0 41 41 41h1036q190 0 313.5 -7t214 -23t137 -46.5t67 -73t20.5 -108.5q0 -48 -7.5 -83.5t-28 -69.5t-61.5 -55.5t-102 -29.5zM1245 670q0 30 -18.5 43.5 t-61.5 13.5h-266v-121h266q80 0 80 64zM1180 305q80 0 80 60q0 37 -18 53t-62 16h-281v-129h281z" />
<glyph unicode="&#x433;" horiz-adv-x="1437" d="M1384 1024q41 0 41 -41v-307q0 -41 -41 -41h-471v-594q0 -41 -41 -41h-737q-41 0 -41 41v942q0 41 41 41h1249z" />
<glyph unicode="&#x434;" horiz-adv-x="2136" d="M2015 328q41 0 41 -41v-492q0 -41 -41 -41h-696q-41 0 -41 41v205h-447v-205q0 -41 -40 -41h-697q-41 0 -41 41v492q0 41 41 41h19q54 14 100.5 107.5t95.5 246.5l103 309q11 33 45 33h1456q41 0 41 -41v-655h61zM1038 637q-54 -276 -127 -309h285v348h-149z" />
<glyph unicode="&#x435;" horiz-adv-x="1966" d="M1915 459q0 -41 -41 -41h-1006q3 -85 28.5 -118.5t94.5 -33.5q46 0 64 12t30 50q12 34 45 34h732q22 0 31.5 -11.5t4.5 -31.5q-22 -92 -71.5 -152t-152.5 -104t-273.5 -63.5t-427.5 -19.5q-169 0 -303 13.5t-230 36.5t-166 60.5t-112.5 79t-67.5 98t-34 112t-9 126.5 q0 69 9 124t34 113t67.5 101t112.5 82t165.5 64t230.5 39.5t303 14.5q154 0 273 -6.5t214.5 -23t163.5 -38.5t118.5 -59t82 -78.5t51.5 -102.5t28 -125t11 -152zM979 758q-53 0 -86.5 -42t-36.5 -104h244q-2 146 -121 146z" />
<glyph unicode="&#x436;" horiz-adv-x="2621" d="M2220 512l387 -461q17 -22 10 -36.5t-34 -14.5h-695q-31 0 -49 27l-145 213l-54 141v-340q0 -41 -41 -41h-573q-41 0 -41 41v344l-55 -145l-139 -213q-18 -27 -50 -27h-700q-26 0 -33 15.5t10 35.5l392 463l-390 459q-17 20 -10 35.5t33 15.5h694q31 0 49 -27l144 -211 l55 -143v340q0 41 41 41h573q41 0 41 -41v-336l54 139l145 211q18 27 49 27h697q26 0 32.5 -14.5t-10.5 -36.5z" />
<glyph unicode="&#x437;" horiz-adv-x="1968" d="M1792 473q56 -39 76 -84t20 -110q0 -40 -7 -70t-30 -63t-63.5 -56.5t-109.5 -45t-165 -35t-233.5 -21.5t-312.5 -8q-201 0 -342 6.5t-244 24t-164 41t-98 64.5t-50 87t-16 116q0 41 41 41h709q40 0 43 -41q3 -45 27.5 -59t93.5 -14q57 0 81.5 17.5t24.5 60.5 q0 51 -27 70.5t-79 19.5h-396q-41 0 -41 41v127q0 41 41 41h396q27 0 38.5 0.5t29.5 4t25.5 11.5t14 23t6.5 38q0 43 -27 60.5t-96 17.5q-53 0 -73 -12.5t-25 -46.5q-6 -41 -43 -41h-706q-41 0 -41 41q3 68 16 112.5t49.5 84t95.5 61.5t160 38.5t236.5 22.5t330.5 6 q177 0 315.5 -7t235 -19t165 -32.5t108.5 -42t62 -53t29 -60.5t7 -70q0 -132 -88 -201q-21 -17 -86 -47q21 -10 41 -18t28.5 -12t16.5 -9z" />
<glyph unicode="&#x438;" horiz-adv-x="2091" d="M1960 1024q41 0 41 -41v-942q0 -41 -41 -41h-700q-39 0 -39 41l10 295l22 176l-157 -479q-11 -33 -45 -33h-916q-41 0 -41 41v942q0 41 41 41h694q41 0 41 -41l-6 -291l-24 -192l161 491q11 33 46 33h913z" />
<glyph unicode="&#x439;" horiz-adv-x="2091" d="M1047 1126q-215 0 -345.5 66.5t-150.5 198.5q-3 43 41 43h272q11 0 19.5 -5t12 -9t13.5 -17q37 -43 138 -43q100 0 137 43q1 1 4 5t4 5t3.5 4.5t3.5 4.5t4 3.5t4.5 3t4 2t5 2t6 1t6.5 0.5h272q44 0 41 -43q-20 -132 -150 -198.5t-345 -66.5zM1960 1024q41 0 41 -41v-942 q0 -41 -41 -41h-700q-39 0 -39 41l10 295l22 176l-157 -479q-11 -33 -45 -33h-916q-41 0 -41 41v942q0 41 41 41h694q41 0 41 -41l-6 -291l-24 -192l161 491q11 33 46 33h913z" />
<glyph unicode="&#x43a;" horiz-adv-x="2048" d="M1999 49q15 -22 7.5 -35.5t-32.5 -13.5h-774q-31 0 -49 27l-131 194l-127 -65v-115q0 -41 -41 -41h-737q-41 0 -41 41v942q0 41 41 41h737q41 0 41 -41v-164l-6 -139l61 106l162 213q19 25 49 25h772q26 0 34 -15.5t-9 -35.5l-348 -400z" />
<glyph unicode="&#x43b;" horiz-adv-x="2115" d="M1985 1024q40 0 40 -41v-942q0 -41 -40 -41h-723q-41 0 -41 41v614h-131l-29 -221q-35 -294 -139 -414q-20 -20 -50 -20h-712q-25 0 -31.5 13.5t8.5 33.5q34 48 63 125.5t38.5 117.5t31.5 136l125 561q10 37 45 37h1545z" />
<glyph unicode="&#x43c;" horiz-adv-x="2209" d="M2079 1024q41 0 41 -41v-942q0 -41 -41 -41h-527q-39 0 -39 41l23 651l-66 -354q-44 -211 -69 -303q-8 -35 -45 -35h-496q-36 0 -45 33q-12 42 -30.5 118t-30.5 131l-13 56l-57 311l23 -608q0 -41 -39 -41h-533q-41 0 -41 41v942q0 41 41 41h848q35 0 45 -37l35 -160 l45 -372l43 372l35 160q10 37 45 37h848z" />
<glyph unicode="&#x43d;" horiz-adv-x="1998" d="M1868 1024q41 0 41 -41v-942q0 -41 -41 -41h-725q-41 0 -41 41v289h-201v-289q0 -41 -41 -41h-725q-41 0 -41 41v942q0 41 41 41h725q41 0 41 -41v-285h201v285q0 41 41 41h725z" />
<glyph unicode="&#x43e;" horiz-adv-x="2027" d="M1960 506q0 117 -25 200t-86.5 150t-169.5 106.5t-270.5 60.5t-392.5 21q-192 0 -337 -14t-250 -44t-174 -72t-109.5 -105t-57 -135t-16.5 -168q0 -97 16.5 -168t57 -132.5t109 -102t173.5 -69t249.5 -41.5t338.5 -13q233 0 397 20.5t271 59t168 104.5t84.5 146.5 t23.5 195.5zM1016 696q62 0 85 -49.5t23 -140.5q0 -97 -22 -137.5t-86 -40.5t-86.5 41t-22.5 137q0 90 23.5 140t85.5 50z" />
<glyph unicode="&#x43f;" horiz-adv-x="2023" d="M1892 1024q41 0 41 -41v-942q0 -41 -41 -41h-737q-41 0 -41 41v614h-201v-614q0 -41 -41 -41h-737q-41 0 -41 41v942q0 41 41 41h1757z" />
<glyph unicode="&#x440;" horiz-adv-x="2048" d="M1413 1044q129 0 217.5 -14.5t156 -49t106 -96t57 -150.5t18.5 -218q0 -162 -26.5 -263.5t-94 -163.5t-169.5 -85.5t-265 -23.5q-318 0 -500 141v-490q0 -41 -41 -41h-737q-41 0 -41 41v1352q0 41 41 41h737q41 0 41 -41v-82q180 143 500 143zM1061 328q52 0 80 40.5 t28 147.5q0 98 -27.5 139t-80.5 41q-60 0 -114 -51t-54 -139q0 -77 54.5 -127.5t113.5 -50.5z" />
<glyph unicode="&#x441;" horiz-adv-x="1986" d="M1122 582q-37 0 -43 41q-8 51 -27 72.5t-57 21.5q-63 0 -85.5 -52.5t-22.5 -158.5q0 -111 21.5 -155t86.5 -44q80 0 88 117q3 29 41 29h750q42 0 39 -41q-6 -95 -34.5 -161.5t-92 -120t-169.5 -85.5t-264 -48.5t-380 -16.5q-169 0 -303 13.5t-230 36.5t-166 60.5 t-112.5 79t-67.5 98t-34 112t-9 126.5q0 69 9 124t34 113t67.5 101t112.5 82t165.5 64t230.5 39.5t303 14.5q194 0 336 -9.5t246 -31.5t170 -53t107 -80.5t58.5 -106.5t22.5 -138q3 -41 -39 -41z" />
<glyph unicode="&#x442;" horiz-adv-x="1533" d="M1479 1024q41 0 41 -41v-307q0 -41 -41 -41h-291v-594q0 -41 -41 -41h-737q-41 0 -41 41v594h-291q-41 0 -41 41v307q0 41 41 41h1401z" />
<glyph unicode="&#x443;" horiz-adv-x="2107" d="M2052 1024q23 0 31.5 -14.5t-2.5 -34.5l-748 -1356q-15 -29 -49 -29h-733q-23 0 -31.5 14t0.5 36l146 307l-631 1028q-12 22 -5 35.5t31 13.5h781q36 0 45 -35l143 -450l23 -142l24 142l160 452q11 33 47 33h768z" />
<glyph unicode="&#x444;" horiz-adv-x="3100" d="M2363 1044q163 0 265 -23.5t169.5 -85.5t94 -163.5t26.5 -263.5q0 -129 -18.5 -218t-57 -150.5t-106 -96t-156 -49t-217.5 -14.5q-271 0 -438 137v-486q0 -41 -41 -41h-696q-41 0 -41 41v486q-162 -137 -436 -137q-129 0 -217.5 14.5t-156 49t-106 96t-57 150.5 t-18.5 218q0 162 26.5 263.5t94 163.5t169.5 85.5t265 23.5q270 0 436 -133v482q0 41 41 41h696q41 0 41 -41v-484q169 135 438 135zM954 508q0 -98 28 -139t81 -41q54 0 105 42.5t61 116.5v58q-10 66 -62 108.5t-104 42.5q-53 0 -81 -41t-28 -147zM2011 328q53 0 81 41 t28 139q0 106 -28 147t-81 41q-59 0 -113.5 -50.5t-54.5 -127.5q0 -88 54 -139t114 -51z" />
<glyph unicode="&#x445;" horiz-adv-x="1966" d="M1565 512l387 -461q17 -22 9.5 -36.5t-34.5 -14.5h-733q-33 0 -51 27l-125 192l-33 76l-35 -76l-119 -192q-16 -27 -49 -27h-741q-26 0 -33 15.5t10 35.5l392 463l-390 459q-17 20 -10 35.5t33 15.5h733q31 0 49 -27l125 -190l35 -76l33 76l125 190q18 27 51 27h735 q26 0 33 -14.5t-10 -36.5z" />
<glyph unicode="&#x446;" horiz-adv-x="2076" d="M2021 369q41 0 41 -41v-463q0 -41 -41 -41h-630q-41 0 -41 41v135h-1215q-41 0 -41 41v942q0 41 41 41h717q41 0 41 -41v-614h203v614q0 41 41 41h716q41 0 41 -41v-614h127z" />
<glyph unicode="&#x447;" horiz-adv-x="2039" d="M1888 1024q41 0 41 -41v-942q0 -41 -41 -41h-739q-41 0 -41 41v272q-216 -69 -504 -69q-157 0 -257.5 17t-156 55.5t-76 90t-20.5 130.5v446q0 41 41 41h737q41 0 41 -41v-313q0 -53 14.5 -69.5t59.5 -16.5q62 0 123 22v377q0 41 41 41h737z" />
<glyph unicode="&#x448;" horiz-adv-x="2498" d="M2367 1024q41 0 41 -41v-942q0 -41 -41 -41h-2232q-41 0 -41 41v942q0 41 41 41h629q41 0 41 -41v-614h125v616q0 41 41 41h561q41 0 41 -41v-616h125v614q0 41 41 41h628z" />
<glyph unicode="&#x449;" horiz-adv-x="2586" d="M2531 369q41 0 41 -41v-463q0 -41 -41 -41h-630q-41 0 -41 41v135h-1725q-41 0 -41 41v942q0 41 41 41h629q41 0 41 -41v-614h125v616q0 41 41 41h561q41 0 41 -41v-616h125v614q0 41 41 41h628q41 0 41 -41v-614h123z" />
<glyph unicode="&#x44a;" horiz-adv-x="2273" d="M1294 766q190 0 329.5 -8.5t240 -28.5t164 -47.5t100.5 -71t51 -93t14 -118.5q0 -84 -13.5 -141t-52 -104t-99.5 -74.5t-164.5 -46.5t-239 -26t-330.5 -7h-888q-41 0 -41 41v614h-287q-41 0 -41 41v287q0 41 41 41h1065q41 0 41 -41v-217h110zM1294 322q69 0 94 19t25 58 q0 43 -25.5 66.5t-93.5 23.5h-110v-167h110z" />
<glyph unicode="&#x44b;" horiz-adv-x="3037" d="M1024 766q190 0 329.5 -8.5t240 -28.5t164 -47.5t100.5 -71t51 -93t14 -118.5q0 -84 -13.5 -141t-52 -104t-99.5 -74.5t-164.5 -46.5t-239 -26t-330.5 -7h-889q-41 0 -41 41v942q0 41 41 41h737q41 0 41 -41v-217h111zM2906 1024q41 0 41 -41v-942q0 -41 -41 -41h-758 q-41 0 -41 41v942q0 41 41 41h758zM1024 322q69 0 94 19t25 58q0 43 -25.5 66.5t-93.5 23.5h-111v-167h111z" />
<glyph unicode="&#x44c;" horiz-adv-x="2013" d="M1024 766q190 0 329.5 -8.5t240 -28.5t164 -47.5t100.5 -71t51 -93t14 -118.5q0 -84 -13.5 -141t-52 -104t-99.5 -74.5t-164.5 -46.5t-239 -26t-330.5 -7h-889q-41 0 -41 41v942q0 41 41 41h737q41 0 41 -41v-217h111zM1024 322q69 0 94 19t25 58q0 43 -25.5 66.5 t-93.5 23.5h-111v-167h111z" />
<glyph unicode="&#x44d;" horiz-adv-x="2033" d="M1014 1044q134 0 247 -8.5t200.5 -23.5t158 -39t121.5 -51.5t89 -64t61.5 -74t37.5 -84t19.5 -91t5.5 -98.5q0 -72 -9 -129.5t-35 -116.5t-69.5 -103t-115 -83.5t-169 -64.5t-234 -39.5t-308.5 -14.5q-285 0 -471.5 21t-289.5 67t-145.5 104.5t-52.5 147.5q-3 41 41 41 h738q34 0 40 -41q6 -40 33 -55t92 -15q73 0 98.5 37t28.5 150h-452q-41 0 -41 41v110q0 41 41 41h452q-5 90 -32 125t-95 35q-55 0 -83.5 -12t-38.5 -41q-9 -37 -43 -37h-738q-45 0 -39 41q6 55 24.5 95.5t58.5 79.5t109 65t171.5 46t250.5 29.5t343 9.5z" />
<glyph unicode="&#x44e;" horiz-adv-x="3051" d="M2040 1044q230 0 392.5 -21t270.5 -60.5t169.5 -106.5t86.5 -150t25 -200q0 -115 -23.5 -195.5t-84.5 -146.5t-168 -104.5t-271 -59t-397 -20.5q-317 0 -510 37t-289 111.5t-127 199.5h-180v-287q0 -41 -41 -41h-758q-41 0 -41 41v942q0 41 41 41h758q41 0 41 -41v-287 h184q34 123 130.5 197t289.5 112.5t502 38.5zM2040 328q64 0 86 40.5t22 137.5q0 91 -23 140.5t-85 49.5t-85.5 -50t-23.5 -140q0 -96 22.5 -137t86.5 -41z" />
<glyph unicode="&#x44f;" horiz-adv-x="2109" d="M1905 1024q41 0 41 -41v-942q0 -41 -41 -41h-723q-41 0 -41 41v178h-127l-133 -192q-18 -27 -50 -27h-722q-26 0 -33 14.5t10 36.5l215 254q-69 25 -115 60.5t-69 80t-32 87.5t-9 98q0 54 6 94t23 80t46 68.5t75.5 54.5t111.5 42.5t153 29.5t202 18.5t257 5.5h955z M899 606q0 -43 25.5 -66.5t93.5 -23.5h123v168h-123q-68 0 -93.5 -20t-25.5 -58z" />
<glyph unicode="&#x451;" horiz-adv-x="1966" d="M446 1147q-40 0 -40 41v205q0 41 40 41h431q41 0 41 -41v-205q0 -41 -41 -41h-431zM1087 1147q-40 0 -40 41v205q0 41 40 41h431q41 0 41 -41v-205q0 -41 -41 -41h-431zM1915 459q0 -41 -41 -41h-1006q3 -85 28.5 -118.5t94.5 -33.5q46 0 64 12t30 50q12 34 45 34h732 q22 0 31.5 -11.5t4.5 -31.5q-22 -92 -71.5 -152t-152.5 -104t-273.5 -63.5t-427.5 -19.5q-169 0 -303 13.5t-230 36.5t-166 60.5t-112.5 79t-67.5 98t-34 112t-9 126.5q0 69 9 124t34 113t67.5 101t112.5 82t165.5 64t230.5 39.5t303 14.5q154 0 273 -6.5t214.5 -23 t163.5 -38.5t118.5 -59t82 -78.5t51.5 -102.5t28 -125t11 -152zM979 758q-53 0 -86.5 -42t-36.5 -104h244q-2 146 -121 146z" />
<glyph unicode="&#x454;" horiz-adv-x="2033" d="M1937 340q44 0 41 -41q-8 -71 -35 -121t-90.5 -93.5t-169 -70t-270 -41t-393.5 -14.5q-172 0 -308.5 14.5t-234 39.5t-169 64.5t-115 83.5t-69.5 103t-35 116.5t-9 129.5q0 54 5.5 98.5t19.5 91t37.5 84t61.5 74t89 64t121.5 51.5t158 39t200.5 23.5t247 8.5 q233 0 400 -14.5t270.5 -40t166 -68t87.5 -89.5t32 -113q6 -41 -39 -41h-737q-34 0 -43 37q-10 29 -39 41t-84 12q-68 0 -95 -35t-32 -125h453q41 0 41 -41v-110q0 -41 -41 -41h-453q3 -113 28.5 -150t98.5 -37q65 0 92 15t33 55q6 41 41 41h737z" />
<glyph unicode="&#x456;" horiz-adv-x="1024" d="M934 1167q0 -41 -41 -41h-758q-41 0 -41 41v226q0 41 41 41h758q41 0 41 -41v-226zM934 41q0 -41 -41 -41h-758q-41 0 -41 41v942q0 41 41 41h758q41 0 41 -41v-942z" />
<glyph unicode="&#x457;" horiz-adv-x="1024" d="M446 1188q0 -41 -40 -41h-431q-41 0 -41 41v205q0 41 41 41h431q40 0 40 -41v-205zM1087 1188q0 -41 -40 -41h-431q-41 0 -41 41v205q0 41 41 41h431q40 0 40 -41v-205zM934 41q0 -41 -41 -41h-758q-41 0 -41 41v942q0 41 41 41h758q41 0 41 -41v-942z" />
<glyph unicode="&#x490;" horiz-adv-x="1947" d="M1855 1638q41 0 41 -41v-553q0 -40 -41 -40h-911v-963q0 -41 -41 -41h-747q-41 0 -41 41v1352q0 41 41 41h1106v163q0 41 41 41h552z" />
<glyph unicode="&#x491;" horiz-adv-x="1437" d="M1384 1208q41 0 41 -41v-491q0 -41 -41 -41h-471v-594q0 -41 -41 -41h-737q-41 0 -41 41v942q0 41 41 41h881v143q0 41 41 41h327z" />
<glyph unicode="&#x1e80;" horiz-adv-x="2682" d="M809 1792q-21 20 -14.5 35.5t34.5 15.5h592q33 0 52 -22l223 -254q17 -20 9 -35.5t-34 -15.5h-538q-30 0 -50 20zM2623 1434q20 0 31 -12.5t8 -32.5l-217 -1352q-5 -37 -45 -37h-899q-40 0 -45 37l-57 362l-39 387l-39 -387l-57 -362q-5 -37 -45 -37h-900q-40 0 -45 37 l-217 1352q-3 20 8 32.5t31 12.5h695q37 0 40 -39l60 -875l18 162l125 715q6 37 43 37h565q38 0 44 -37l124 -715l19 -162l59 875q3 39 41 39h694z" />
<glyph unicode="&#x1e81;" horiz-adv-x="2557" d="M729 1423q-21 20 -14 36t35 16h591q32 0 52 -23l223 -254q17 -20 9 -35.5t-34 -15.5h-538q-29 0 -49 20zM2511 1024q22 0 32 -12.5t5 -32.5l-211 -942q-10 -37 -45 -37h-869q-39 0 -45 37l-55 262l-25 217l-24 -217l-55 -262q-6 -37 -45 -37h-867q-38 0 -47 35l-248 944 q-6 20 3.5 32.5t31.5 12.5h672q40 0 43 -39l76 -618l26 196l97 424q10 37 45 37h589q39 0 45 -37l93 -424l26 -196l76 618q3 39 43 39h633z" />
<glyph unicode="&#x1e82;" horiz-adv-x="2682" d="M1100 1516q-26 0 -34 15.5t9 35.5l223 254q19 22 52 22h592q28 0 34.5 -15.5t-14.5 -35.5l-274 -256q-20 -20 -50 -20h-538zM2623 1434q20 0 31 -12.5t8 -32.5l-217 -1352q-5 -37 -45 -37h-899q-40 0 -45 37l-57 362l-39 387l-39 -387l-57 -362q-5 -37 -45 -37h-900 q-40 0 -45 37l-217 1352q-3 20 8 32.5t31 12.5h695q37 0 40 -39l60 -875l18 162l125 715q6 37 43 37h565q38 0 44 -37l124 -715l19 -162l59 875q3 39 41 39h694z" />
<glyph unicode="&#x1e83;" horiz-adv-x="2557" d="M1020 1147q-26 0 -34 15.5t9 35.5l224 254q20 23 51 23h592q28 0 34.5 -16t-14.5 -36l-274 -256q-20 -20 -49 -20h-539zM2511 1024q22 0 32 -12.5t5 -32.5l-211 -942q-10 -37 -45 -37h-869q-39 0 -45 37l-55 262l-25 217l-24 -217l-55 -262q-6 -37 -45 -37h-867 q-38 0 -47 35l-248 944q-6 20 3.5 32.5t31.5 12.5h672q40 0 43 -39l76 -618l26 196l97 424q10 37 45 37h589q39 0 45 -37l93 -424l26 -196l76 618q3 39 43 39h633z" />
<glyph unicode="&#x1e84;" horiz-adv-x="2682" d="M823 1516q-41 0 -41 40v205q0 41 41 41h430q41 0 41 -41v-205q0 -40 -41 -40h-430zM1464 1516q-41 0 -41 40v205q0 41 41 41h430q41 0 41 -41v-205q0 -40 -41 -40h-430zM2623 1434q20 0 31 -12.5t8 -32.5l-217 -1352q-5 -37 -45 -37h-899q-40 0 -45 37l-57 362l-39 387 l-39 -387l-57 -362q-5 -37 -45 -37h-900q-40 0 -45 37l-217 1352q-3 20 8 32.5t31 12.5h695q37 0 40 -39l60 -875l18 162l125 715q6 37 43 37h565q38 0 44 -37l124 -715l19 -162l59 875q3 39 41 39h694z" />
<glyph unicode="&#x1e85;" horiz-adv-x="2557" d="M743 1147q-41 0 -41 41v205q0 41 41 41h431q40 0 40 -41v-205q0 -41 -40 -41h-431zM1384 1147q-41 0 -41 41v205q0 41 41 41h431q40 0 40 -41v-205q0 -41 -40 -41h-431zM2511 1024q22 0 32 -12.5t5 -32.5l-211 -942q-10 -37 -45 -37h-869q-39 0 -45 37l-55 262l-25 217 l-24 -217l-55 -262q-6 -37 -45 -37h-867q-38 0 -47 35l-248 944q-6 20 3.5 32.5t31.5 12.5h672q40 0 43 -39l76 -618l26 196l97 424q10 37 45 37h589q39 0 45 -37l93 -424l26 -196l76 618q3 39 43 39h633z" />
<glyph unicode="&#x1ef2;" horiz-adv-x="2150" d="M524 1792q-21 20 -14 35.5t35 15.5h592q32 0 51 -22l223 -254q17 -20 9 -35.5t-34 -15.5h-538q-29 0 -49 20zM2130 1434q25 0 33 -15t-6 -35l-650 -974v-369q0 -41 -41 -41h-796q-41 0 -41 41v377l-652 966q-14 20 -6 35t33 15h821q36 0 47 -31l146 -352l49 -148l49 148 l146 352q11 31 47 31h821z" />
<glyph unicode="&#x1ef3;" horiz-adv-x="2107" d="M504 1423q-21 20 -14.5 36t34.5 16h592q31 0 51 -23l224 -254q17 -20 9 -35.5t-34 -15.5h-539q-29 0 -49 20zM2052 1024q23 0 31.5 -14.5t-2.5 -34.5l-748 -1356q-15 -29 -49 -29h-733q-23 0 -31.5 14t0.5 36l146 307l-631 1028q-12 22 -5 35.5t31 13.5h781q36 0 45 -35 l143 -450l23 -142l24 142l160 452q11 33 47 33h768z" />
<glyph unicode="&#x2000;" horiz-adv-x="1027" />
<glyph unicode="&#x2001;" horiz-adv-x="2054" />
<glyph unicode="&#x2002;" horiz-adv-x="1027" />
<glyph unicode="&#x2003;" horiz-adv-x="2054" />
<glyph unicode="&#x2004;" horiz-adv-x="684" />
<glyph unicode="&#x2005;" horiz-adv-x="513" />
<glyph unicode="&#x2006;" horiz-adv-x="342" />
<glyph unicode="&#x2007;" horiz-adv-x="342" />
<glyph unicode="&#x2008;" horiz-adv-x="256" />
<glyph unicode="&#x2009;" horiz-adv-x="410" />
<glyph unicode="&#x200a;" horiz-adv-x="114" />
<glyph unicode="&#x2010;" horiz-adv-x="1290" d="M1147 348q0 -41 -41 -41h-922q-41 0 -41 41v348q0 41 41 41h922q41 0 41 -41v-348z" />
<glyph unicode="&#x2011;" horiz-adv-x="1290" d="M1147 348q0 -41 -41 -41h-922q-41 0 -41 41v348q0 41 41 41h922q41 0 41 -41v-348z" />
<glyph unicode="&#x2012;" horiz-adv-x="1290" d="M1147 348q0 -41 -41 -41h-922q-41 0 -41 41v348q0 41 41 41h922q41 0 41 -41v-348z" />
<glyph unicode="&#x2013;" horiz-adv-x="1617" d="M1475 348q0 -41 -41 -41h-1250q-41 0 -41 41v348q0 41 41 41h1250q41 0 41 -41v-348z" />
<glyph unicode="&#x2014;" horiz-adv-x="2539" d="M2396 348q0 -41 -41 -41h-2171q-41 0 -41 41v348q0 41 41 41h2171q41 0 41 -41v-348z" />
<glyph unicode="&#x2018;" horiz-adv-x="1167" d="M473 1407q18 27 49 27h453q22 0 31.5 -13t3.5 -35l-140 -432q-8 -32 -45 -32h-622q-25 0 -33 14.5t6 34.5z" />
<glyph unicode="&#x2019;" horiz-adv-x="1167" d="M694 948q-17 -26 -49 -26h-452q-22 0 -31.5 12.5t-3.5 34.5l139 432q9 33 45 33h623q25 0 32.5 -15t-6.5 -35z" />
<glyph unicode="&#x201a;" horiz-adv-x="1228" d="M653 -178q-18 -27 -49 -27h-452q-22 0 -31.5 12.5t-3.5 34.5l139 432q9 33 45 33h623q25 0 32.5 -14.5t-6.5 -34.5z" />
<glyph unicode="&#x201c;" horiz-adv-x="1800" d="M442 1407q18 27 50 27h403q22 0 31.5 -13t3.5 -35l-125 -387q-8 -32 -45 -32h-557q-25 0 -33 14.5t6 34.5zM1155 1407q18 27 49 27h404q22 0 31 -13t3 -35l-124 -387q-8 -32 -45 -32h-558q-25 0 -32.5 14.5t6.5 34.5z" />
<glyph unicode="&#x201d;" horiz-adv-x="1800" d="M645 993q-17 -26 -49 -26h-403q-22 0 -31.5 12.5t-3.5 34.5l125 387q9 33 45 33h557q25 0 32.5 -15t-6.5 -35zM1358 993q-17 -26 -49 -26h-404q-22 0 -31.5 12.5t-3.5 34.5l125 387q9 33 45 33h557q25 0 33 -15t-6 -35z" />
<glyph unicode="&#x201e;" horiz-adv-x="1718" d="M604 -96q-18 -27 -49 -27h-403q-22 0 -31.5 12.5t-3.5 34.5l125 387q9 33 45 33h557q25 0 32.5 -14.5t-6.5 -34.5zM1317 -96q-18 -27 -49 -27h-404q-22 0 -31.5 12.5t-3.5 34.5l125 387q9 33 45 33h557q25 0 33 -14.5t-6 -34.5z" />
<glyph unicode="&#x2020;" horiz-adv-x="1243" d="M760 1477q42 0 39 -43l-31 -377l358 22q20 1 31.5 -10t11.5 -31v-235q0 -20 -11.5 -31t-31.5 -10l-358 24l33 -854q0 -41 -39 -41h-281q-39 0 -39 41l31 854l-358 -24q-20 -1 -31.5 10t-11.5 31v235q0 20 11.5 31t31.5 10l358 -22l-29 377q-3 43 39 43h277z" />
<glyph unicode="&#x2021;" horiz-adv-x="1243" d="M752 1477q44 0 41 -43l-25 -330l358 24q20 1 31.5 -10t11.5 -31v-231q0 -20 -11.5 -31t-31.5 -10l-358 27v-305l358 26q20 1 31.5 -10t11.5 -31v-231q0 -20 -11.5 -31t-31.5 -10l-358 24l25 -340q3 -43 -41 -43h-265q-44 0 -41 43l23 340l-352 -24q-20 -1 -31.5 10 t-11.5 31v231q0 42 43 39l352 -24v305l-352 -25q-43 -3 -43 39v231q0 20 11.5 31t31.5 10l352 -24l-23 330q-3 43 41 43h265z" />
<glyph unicode="&#x2022;" horiz-adv-x="1044" d="M522 274q-154 0 -256 102.5t-102 256.5t102 256t256 102t256.5 -102t102.5 -256t-102.5 -256.5t-256.5 -102.5z" />
<glyph unicode="&#x2026;" horiz-adv-x="2375" d="M676 41q0 -41 -41 -41h-492q-41 0 -41 41v348q0 41 41 41h492q41 0 41 -41v-348zM1475 41q0 -41 -41 -41h-492q-41 0 -41 41v348q0 41 41 41h492q41 0 41 -41v-348zM2273 41q0 -41 -41 -41h-491q-41 0 -41 41v348q0 41 41 41h491q41 0 41 -41v-348z" />
<glyph unicode="&#x202f;" horiz-adv-x="410" />
<glyph unicode="&#x2030;" horiz-adv-x="3022" d="M496 1450q186 0 301.5 -114t115.5 -312q0 -144 -62 -250.5t-158.5 -157.5t-211.5 -51t-210.5 49.5t-155.5 149.5t-60 233q0 201 123 327t316 126h2zM561 -20q-25 0 -33 14.5t4 34.5l797 1386q15 29 49 29h121q25 0 33 -14.5t-4 -34.5l-797 -1387q-14 -28 -49 -28h-121z M485 1243q-133 0 -133 -235q0 -238 137 -238q63 0 95 57t32 181q0 119 -29.5 177t-99.5 58h-2zM1595 862q186 0 303 -113t117 -311q0 -109 -35.5 -197t-96 -143.5t-137.5 -85.5t-163 -30q-115 0 -210.5 49.5t-154.5 149t-59 231.5q0 202 120.5 326t313.5 124h2zM2546 862 q186 0 303 -113t117 -311q0 -109 -36 -197t-96.5 -143.5t-137.5 -85.5t-163 -30q-116 0 -211.5 49t-155 148.5t-59.5 232.5q0 201 122 325.5t315 124.5h2zM1587 657q-133 0 -133 -237q0 -236 137 -236q63 0 95 57t32 181q0 119 -29.5 177t-99.5 58h-2zM2537 657 q-133 0 -133 -235q0 -238 136 -238q129 0 129 238q0 119 -29.5 177t-99.5 58h-3z" />
<glyph unicode="&#x2039;" horiz-adv-x="675" d="M526 938q22 9 34.5 0.5t12.5 -31.5v-262q0 -32 -30 -47l-105 -51l105 -51q30 -15 30 -47v-263q0 -23 -12.5 -31t-34.5 1l-393 176q-31 16 -31 49v332q0 33 31 49z" />
<glyph unicode="&#x203a;" horiz-adv-x="675" d="M150 938l393 -176q30 -15 30 -49v-332q0 -34 -30 -49l-393 -176q-22 -9 -35 -1t-13 31v263q0 31 31 47l105 51l-105 51q-31 16 -31 47v262q0 23 13 31.5t35 -0.5z" />
<glyph unicode="&#x2044;" horiz-adv-x="1257" d="M829 1466q16 29 50 29h362q25 0 33 -14.5t-4 -34.5l-838 -1442q-16 -29 -49 -29h-367q-24 0 -32 15t4 35z" />
<glyph unicode="&#x205f;" horiz-adv-x="513" />
<glyph unicode="&#x20ac;" horiz-adv-x="2068" d="M1989 487q44 0 41 -41q-9 -100 -40.5 -173t-101 -135t-181.5 -99.5t-281.5 -58.5t-401.5 -21q-172 0 -312 20t-241.5 55t-178.5 89t-125.5 116t-78.5 142t-41.5 161t-11.5 179q0 95 11.5 173.5t41.5 156t78.5 138t125.5 112.5t178.5 86t241.5 53.5t312 19.5 q237 0 410.5 -21t283.5 -58t178 -97.5t97 -128.5t37 -162q3 -41 -41 -41l-732 2q-34 0 -43 39q-9 45 -49 64.5t-121 19.5q-96 0 -133 -47.5t-45 -173.5h549q41 0 41 -41v-184q0 -41 -41 -41h-549q4 -108 20.5 -161.5t52 -74t105.5 -20.5q94 0 130.5 23t42.5 89q3 41 43 41 h729z" />
<glyph unicode="&#x2113;" horiz-adv-x="1261" d="M1194 330q25 -26 6 -58q-182 -286 -518 -286q-350 0 -432 293q-2 6 -2 16q-23 -13 -66 -43q-38 -26 -57 14l-59 117q-16 36 14 57q25 18 79.5 55.5t80.5 57.5v436q0 286 120.5 433t333.5 147q93 0 165 -31t116 -85.5t66 -124t22 -150.5q0 -174 -111.5 -335.5 t-339.5 -350.5l4 -66q5 -60 49 -99.5t113 -39.5q131 0 258 145q31 34 60 2zM612 813q90 94 142.5 196.5t52.5 178.5q0 131 -88 131q-107 0 -107 -272v-234z" />
<glyph unicode="&#x2122;" horiz-adv-x="2904" d="M1233 1434q41 0 41 -41v-183q0 -41 -41 -41h-318v-575q0 -41 -41 -41h-452q-41 0 -41 41v575h-318q-40 0 -40 41v183q0 41 40 41h1170zM2822 1434q41 0 41 -41v-799q0 -41 -41 -41h-354q-39 0 -39 41l18 543l-53 -295q-39 -172 -59 -254q-8 -35 -45 -35h-381 q-37 0 -45 35l-62 254l-49 278l19 -526q0 -41 -39 -41h-357q-41 0 -41 41v799q0 41 41 41h592q35 0 45 -37l31 -133l47 -328l8 -117l8 117l45 328l31 133q10 37 45 37h594z" />
<glyph unicode="&#x212e;" horiz-adv-x="1785" d="M383 698q-12 0 -12 -8v-403q0 -23 18 -45q99 -103 229.5 -161t274.5 -58q157 0 294 65t236 180h117q-110 -132 -282 -209t-367 -77q-168 0 -320 58t-261.5 157t-174.5 235.5t-65 286.5q0 151 65 288.5t174.5 236.5t261.5 157.5t320 58.5t320 -58.5t262.5 -157.5 t175.5 -236.5t65 -288.5v-21h-1331zM1411 1157q0 29 -18 47q-100 98 -229 154.5t-271 56.5t-272 -58t-230 -159q-20 -20 -20 -49v-397q0 -4 3.5 -8.5t8.5 -4.5h1020q8 0 8 13v405z" />
<glyph unicode="&#x215b;" horiz-adv-x="3442" d="M2302 1495q25 0 33 -14.5t-4 -34.5l-838 -1442q-16 -29 -49 -29h-367q-24 0 -32 15t4 35l841 1441q16 29 49 29h363zM1198 565q0 -26 -27 -26h-862q-26 0 -26 26v217q0 25 26 25h178v311l-176 -106q-12 -9 -21 -4t-9 20v266q0 19 20 29l225 104q15 9 33 9h434 q25 0 25 -27v-602h153q27 0 27 -25v-217zM3244 410q57 -33 76.5 -73.5t19.5 -98.5q0 -49 -12 -84t-49.5 -70t-103.5 -56t-178.5 -34.5t-268.5 -13.5q-157 0 -270 13.5t-178.5 34.5t-103.5 56t-50 70t-12 84q0 58 20 98.5t78 73.5q25 15 82 30q-57 20 -82 35q-92 59 -92 178 q0 49 11.5 83t48 67.5t102 53.5t177.5 32t269 12t268.5 -12t176.5 -32t101.5 -53.5t48 -67.5t11.5 -83q0 -118 -90 -178q-37 -19 -84 -35q61 -15 84 -30zM2728 541q48 0 74 14.5t26 52.5q0 29 -23 42.5t-77 13.5q-55 0 -78.5 -13.5t-23.5 -42.5q0 -38 27 -52.5t75 -14.5z M2728 215q54 0 77 13.5t23 41.5q0 78 -100 78t-100 -78q0 -28 23 -41.5t77 -13.5z" />
<glyph unicode="&#x215c;" horiz-adv-x="3692" d="M2552 1495q24 0 32 -14.5t-4 -34.5l-837 -1442q-16 -29 -49 -29h-367q-25 0 -33 15t4 35l842 1441q16 29 49 29h363zM1511 791q0 -49 -12 -84t-50 -70t-104.5 -56.5t-180 -35t-271.5 -13.5q-160 0 -264.5 10t-174.5 29.5t-106 57.5t-50.5 85.5t-16.5 123.5q0 24 26 24 h471q27 0 27 -24q3 -46 20 -61t68 -15q76 0 76 67q0 42 -22 61t-54 19h-264q-25 0 -25 25v129q0 24 25 24h264q20 0 30 1.5t24.5 7t21 20.5t6.5 39q0 38 -20.5 53t-67.5 15q-38 0 -52 -13t-16 -49q-3 -24 -28 -24h-472q-26 0 -26 24q2 72 16.5 118t50 82.5t104 55t169 28 t254.5 9.5q160 0 274 -12.5t180 -32t103.5 -53t49 -67.5t11.5 -83q0 -97 -45 -162q-19 -24 -74 -53q55 -25 74 -47q51 -59 51 -153zM3494 410q57 -33 76.5 -73.5t19.5 -98.5q0 -49 -12 -84t-49.5 -70t-103.5 -56t-178.5 -34.5t-268.5 -13.5q-157 0 -270 13.5t-179 34.5 t-104 56t-50 70t-12 84q0 58 20.5 98.5t78.5 73.5q25 15 82 30q-57 20 -82 35q-92 59 -92 178q0 49 11.5 83t48 67.5t102 53.5t177.5 32t269 12t268.5 -12t176.5 -32t101.5 -53.5t48 -67.5t11.5 -83q0 -118 -90 -178q-37 -19 -84 -35q61 -15 84 -30zM2978 541q48 0 74 14.5 t26 52.5q0 29 -23 42.5t-77 13.5q-56 0 -79.5 -13.5t-23.5 -42.5q0 -67 103 -67zM2978 215q54 0 77 13.5t23 41.5q0 78 -100 78q-101 0 -101 -78q0 -28 23.5 -41.5t77.5 -13.5z" />
<glyph unicode="&#x215d;" horiz-adv-x="3491" d="M2351 1495q25 0 33 -14.5t-4 -34.5l-838 -1442q-16 -29 -49 -29h-367q-24 0 -32 15t4 35l841 1441q16 29 50 29h362zM1315 836q0 -72 -15 -121t-52 -88.5t-104 -61.5t-168 -33.5t-247 -11.5q-196 0 -316 15t-189.5 54t-94.5 94t-27 146q0 25 25 25h479q24 0 27 -25 q3 -40 20 -55.5t56 -15.5q42 0 57.5 17t15.5 59q0 51 -21 61t-106 10h-510q-26 0 -26 27v477q0 27 26 27h1129q24 0 24 -27v-205q0 -24 -24 -24h-656v-52h138q128 0 209.5 -3.5t148.5 -16t102.5 -31t60 -53.5t31.5 -78t7 -110zM3293 410q57 -33 76.5 -73.5t19.5 -98.5 q0 -49 -12 -84t-49.5 -70t-103.5 -56t-178.5 -34.5t-268.5 -13.5q-157 0 -270 13.5t-178.5 34.5t-103.5 56t-50 70t-12 84q0 58 20 98.5t78 73.5q25 15 82 30q-57 20 -82 35q-92 59 -92 178q0 49 11.5 83t48 67.5t102 53.5t177.5 32t269 12t268.5 -12t176.5 -32t101.5 -53.5 t48 -67.5t11.5 -83q0 -118 -90 -178q-37 -19 -84 -35q61 -15 84 -30zM2777 541q48 0 74 14.5t26 52.5q0 29 -23 42.5t-77 13.5q-55 0 -78.5 -13.5t-23.5 -42.5q0 -38 27 -52.5t75 -14.5zM2777 215q54 0 77 13.5t23 41.5q0 78 -100 78t-100 -78q0 -28 23 -41.5t77 -13.5z" />
<glyph unicode="&#x215e;" horiz-adv-x="3434" d="M2294 1495q24 0 32 -14.5t-4 -34.5l-837 -1442q-16 -29 -49 -29h-367q-25 0 -33 15t4 35l842 1441q16 29 49 29h363zM1442 1266q0 -20 -10 -33l-486 -678q-13 -16 -31 -16h-501q-15 0 -20.5 9t3.5 21l346 486l101 110h-537q-26 0 -26 27v217q0 27 26 27h1108q27 0 27 -27 v-143zM3236 410q57 -33 76.5 -73.5t19.5 -98.5q0 -49 -12 -84t-49.5 -70t-103.5 -56t-178.5 -34.5t-268.5 -13.5q-157 0 -270 13.5t-179 34.5t-104 56t-50 70t-12 84q0 58 20.5 98.5t78.5 73.5q25 15 82 30q-57 20 -82 35q-93 60 -93 178q0 49 11.5 83t48.5 67.5t102.5 53.5 t177.5 32t269 12t268.5 -12t176.5 -32t101.5 -53.5t48 -67.5t11.5 -83q0 -118 -90 -178q-37 -19 -84 -35q61 -15 84 -30zM2720 541q48 0 74 14.5t26 52.5q0 29 -23 42.5t-77 13.5q-56 0 -79.5 -13.5t-23.5 -42.5q0 -67 103 -67zM2720 215q54 0 77 13.5t23 41.5q0 78 -100 78 q-101 0 -101 -78q0 -28 23.5 -41.5t77.5 -13.5z" />
<glyph unicode="&#x2190;" horiz-adv-x="1863" d="M1708 1143q43 3 43 -39v-805q0 -42 -43 -39l-729 74l18 -328q2 -27 -13.5 -34.5t-35.5 10.5l-803 692q-32 29 0 57l803 692q20 18 35.5 10.5t13.5 -34.5l-18 -330z" />
<glyph unicode="&#x2191;" horiz-adv-x="1757" d="M1599 803q17 -20 9.5 -35.5t-33.5 -13.5l-328 18l74 -729q3 -43 -39 -43h-805q-42 0 -39 43l74 729l-330 -18q-26 -2 -33.5 13.5t9.5 35.5l692 803q29 36 57 0z" />
<glyph unicode="&#x2192;" horiz-adv-x="1863" d="M1718 731q32 -29 0 -57l-803 -692q-20 -18 -35.5 -10.5t-13.5 34.5l19 328l-729 -74q-43 -3 -43 39v805q0 42 43 39l729 -74l-19 330q-2 27 13.5 34.5t35.5 -10.5z" />
<glyph unicode="&#x2193;" horiz-adv-x="1757" d="M1575 885q26 2 33.5 -13.5t-9.5 -35.5l-692 -803q-28 -36 -57 0l-692 803q-17 20 -9.5 35.5t33.5 13.5l330 -19l-74 729q-3 43 39 43h805q42 0 39 -43l-74 -729z" />
<glyph unicode="&#x2194;" horiz-adv-x="2404" d="M2259 731q32 -29 0 -57l-801 -688q-20 -19 -35 -12t-12 36l31 287h-479l30 -287q3 -29 -12 -36t-35 12l-801 688q-32 29 0 57l801 688q22 19 36 12t11 -36l-32 -289h483l-33 289q-3 29 11 36t36 -12z" />
<glyph unicode="&#x2195;" horiz-adv-x="1757" d="M1571 494q28 3 35.5 -12.5t-11.5 -35.5l-688 -800q-28 -36 -57 0l-688 800q-19 22 -11.5 36.5t35.5 11.5l289 -33v483l-289 -33q-28 -3 -35.5 11t11.5 36l688 801q29 36 57 0l688 -801q19 -20 11.5 -35t-35.5 -12l-287 31v-479z" />
<glyph unicode="&#x2196;" horiz-adv-x="1697" d="M1552 719q31 -28 2 -57l-567 -570q-13 -14 -29 -13.5t-28 15.5l-465 568l-219 -244q-19 -21 -35 -15t-18 33l-76 1055q-1 20 10 31.5t31 9.5l1054 -76q27 -2 33 -18t-14 -35l-246 -219z" />
<glyph unicode="&#x2197;" horiz-adv-x="1697" d="M1540 1532q20 2 31 -9.5t10 -31.5l-78 -1055q-2 -27 -17 -33t-34 15l-219 244l-465 -568q-12 -15 -28 -15.5t-29 13.5l-568 570q-29 29 2 57l568 465l-246 219q-20 19 -14 35t32 18z" />
<glyph unicode="&#x2198;" horiz-adv-x="1699" d="M1583 121q1 -20 -10 -31.5t-31 -9.5l-1055 78q-27 2 -32.5 17t14.5 34l244 219l-568 465q-31 28 -2 57l570 568q13 14 29 13.5t28 -15.5l465 -568l219 246q19 21 35 15t18 -33z" />
<glyph unicode="&#x2199;" horiz-adv-x="1699" d="M1556 950q29 -29 -2 -57l-567 -465l244 -219q20 -19 14 -35t-33 -18l-1054 -76q-20 -2 -31 9.5t-10 31.5l76 1055q2 27 18 33t35 -15l219 -246l465 568q12 15 28 15.5t29 -13.5z" />
<glyph unicode="&#x2202;" horiz-adv-x="1359" d="M135 1456q-12 35 17 55q184 109 432 109q145 0 270.5 -55t217.5 -155.5t145 -251t53 -331.5q0 -193 -51 -351t-142 -265t-219 -165t-280 -58q-101 0 -187.5 32.5t-145 84.5t-100 118t-60.5 133.5t-19 130.5q0 237 138.5 390t362.5 153q63 0 119.5 -17t96 -43.5t65 -50.5 t41.5 -47h2q2 8 2 41q0 74 -23.5 145.5t-67 130.5t-114.5 95.5t-158 36.5q-143 0 -268 -70q-37 -22 -53 19zM621 285q62 0 114.5 51.5t81.5 120.5t39 139q-11 48 -65.5 96.5t-133.5 48.5q-95 0 -153 -77.5t-58 -186.5q0 -82 49.5 -137t122.5 -55h3z" />
<glyph unicode="&#x220f;" horiz-adv-x="1667" d="M1399 1100v-1256q0 -41 -41 -41h-295q-41 0 -41 41v1256h-379v-1256q0 -41 -41 -41h-295q-41 0 -41 41v1256h-182q-41 0 -41 41v243q0 41 41 41h1499q41 0 41 -41v-243q0 -41 -41 -41h-184z" />
<glyph unicode="&#x2211;" horiz-adv-x="1294" d="M88 -197q-41 0 -41 41v148q0 26 19 51l479 567l-459 543q-18 24 -18 51v180q0 41 41 41h1067q41 0 41 -41v-231q0 -41 -41 -41h-586v-6l362 -416q23 -28 0 -57l-411 -494v-8h682q41 0 41 -41v-246q0 -41 -41 -41h-1135z" />
<glyph unicode="&#x2212;" horiz-adv-x="1216" d="M141 473q-41 0 -41 41v129q0 41 41 41h932q41 0 41 -41v-129q0 -41 -41 -41h-932z" />
<glyph unicode="&#x221a;" horiz-adv-x="1386" d="M920 -254q-9 -35 -48 -35h-223q-34 0 -47 33l-321 825l-123 -49q-39 -16 -52 25l-34 108q-12 36 24 52l367 153q42 17 53 -22l195 -555q41 -143 53 -189l4 -2q41 208 41 209l356 1380q9 35 45 35h181q22 0 31 -12.5t3 -32.5z" />
<glyph unicode="&#x221e;" horiz-adv-x="1665" d="M1569 588q0 -91 -30.5 -166.5t-81.5 -124t-115.5 -75.5t-133.5 -27q-47 0 -87 8.5t-89.5 31t-100.5 71t-100 120.5q-87 -115 -176 -173t-209 -58q-68 0 -131.5 27t-112.5 75t-78.5 120.5t-29.5 157.5q0 171 106.5 278.5t266.5 107.5q117 0 206 -54t171 -166 q4 5 28.5 32.5t34.5 38t36 35.5t43 37t46.5 30t55.5 26.5t60.5 15t70.5 5.5q146 0 248 -102.5t102 -268.5v-2zM473 385q71 0 131.5 49t124.5 133q-73 104 -101 134q-71 75 -163 75q-78 0 -128 -54.5t-50 -146.5q0 -77 53.5 -133.5t128.5 -56.5h4zM1198 776q-28 0 -54 -7.5 t-52 -26.5t-42 -31.5t-42.5 -44t-34 -41t-33.5 -43.5q86 -117 142.5 -157t129.5 -40q72 0 117 60.5t45 127.5q0 86 -47.5 144.5t-126.5 58.5h-2z" />
<glyph unicode="&#x222b;" horiz-adv-x="907" d="M848 1563q-5 -39 -47 -33q-24 4 -41 4q-75 0 -115 -59q-45 -67 -45 -322q0 -164 17.5 -450.5t17.5 -487.5q0 -267 -70 -401q-51 -97 -140.5 -143t-193.5 -46q-90 0 -161 23q-35 9 -29 49l29 168q6 40 47 31q28 -7 53 -7q67 0 100 41q28 36 40 101t12 184 q0 204 -18.5 500.5t-18.5 474.5q0 183 34.5 295t110.5 190q50 53 130 80t167 27q44 0 111 -13q36 -9 30 -47z" />
<glyph unicode="&#x2248;" horiz-adv-x="1204" d="M1116 877q27 -27 6 -58q-65 -94 -143 -144t-156 -50q-67 0 -118 18t-125 62q-37 23 -58.5 35t-55 22t-67.5 10q-53 0 -96 -29.5t-88 -83.5q-12 -15 -28 -15.5t-29 13.5l-70 70q-26 26 -8 57q58 84 146.5 138.5t181.5 54.5q70 0 121 -18t104 -50q54 -34 74 -45.5t49.5 -22 t58.5 -10.5q87 0 174 111q12 17 28.5 17.5t29.5 -13.5zM1116 453q27 -27 6 -58q-135 -196 -303 -196q-63 0 -114.5 19.5t-124.5 62.5q-57 35 -95 51t-84 16q-56 0 -97 -28t-89 -84q-12 -17 -28 -18t-29 13l-70 72q-26 29 -6 57q57 83 146 138t182 55q48 0 91.5 -11t69 -23.5 t60.5 -33.5q15 -9 45 -27.5t46 -27t41 -16.5t50 -8q51 0 91 27.5t85 84.5q12 17 28.5 17.5t29.5 -13.5z" />
<glyph unicode="&#x2260;" horiz-adv-x="1228" d="M844 911h229q41 0 41 -41v-120q0 -41 -41 -41h-311l-113 -260h424q41 0 41 -41v-121q0 -41 -41 -41h-508l-88 -203q-14 -36 -53 -20l-88 36q-38 15 -23 54l60 133h-232q-41 0 -41 41v121q0 41 41 41h314l112 260h-426q-41 0 -41 41v120q0 41 41 41h510l86 197 q15 35 54 20l88 -34q38 -15 22 -56z" />
<glyph unicode="&#x2264;" horiz-adv-x="1218" d="M137 686q-31 16 -31 47v156q0 31 31 47l924 422q22 10 34.5 1.5t12.5 -32.5v-141q0 -36 -31 -49l-760 -324v-4l762 -326q31 -13 31 -49v-141q0 -24 -12.5 -32.5t-34.5 1.5zM143 -39q-41 0 -41 41v127q0 41 41 41h932q41 0 41 -41v-127q0 -41 -41 -41h-932z" />
<glyph unicode="&#x2265;" horiz-adv-x="1216" d="M1081 934q31 -16 31 -47v-156q0 -31 -31 -47l-921 -422q-22 -10 -34.5 -1.5t-12.5 32.5v141q0 34 30 49l760 326v4l-762 324q-30 13 -30 49v141q0 24 12.5 32.5t34.5 -1.5zM145 -39q-41 0 -41 41v127q0 41 41 41h920q41 0 41 -41v-127q0 -41 -41 -41h-920z" />
<glyph unicode="&#x25ca;" horiz-adv-x="1386" d="M850 -74q-14 -28 -49 -28h-230q-33 0 -49 28l-409 756q-15 27 2 57l417 758q14 29 50 29h229q35 0 49 -29l414 -758q14 -25 -2 -57zM733 1137q-2 7 -18 49t-21 61h-6q-10 -43 -41 -110l-221 -420l225 -441q27 -64 37 -102h8q24 74 37 98l225 430z" />
<glyph unicode="&#x25fc;" horiz-adv-x="1024" d="M0 1024h1024v-1024h-1024v1024z" />
<glyph unicode="&#xfb00;" horiz-adv-x="2486" d="M2404 1106q-88 12 -136.5 6.5t-66 -24.5t-20.5 -64h229q41 0 41 -41v-307q0 -41 -41 -41h-231v-594q0 -41 -41 -41h-737q-41 0 -41 41v594h-322v-594q0 -41 -41 -41h-737q-41 0 -41 41v594h-143q-41 0 -41 41v307q0 41 41 41h143q4 99 24.5 169t68 125t123 86t193 45.5 t273.5 10t369 -25.5q41 -3 41 -43v-248q0 -43 -47 -37q-88 12 -137 6.5t-66.5 -24.5t-20.5 -64h320q4 99 24 169t68 125t123 85.5t192.5 45.5t273.5 10.5t369 -25.5q41 -3 41 -43v-248q0 -43 -47 -37z" />
<glyph unicode="&#xfb03;" horiz-adv-x="3530" d="M2451 1434q41 -3 41 -43v-248q0 -43 -47 -37q-88 12 -136.5 6.5t-66 -24.5t-20.5 -64h229q41 0 41 -41v-307q0 -41 -41 -41h-231v-594q0 -41 -41 -41h-737q-41 0 -41 41v594h-363v-594q0 -41 -41 -41h-737q-41 0 -41 41v594h-143q-41 0 -41 41v307q0 41 41 41h143 q4 99 24.5 169t68 125t123 86t193 45.5t273.5 10t369 -25.5q41 -3 41 -43v-248q0 -43 -47 -37q-88 12 -137 6.5t-66.5 -24.5t-20.5 -64h361q4 99 24 169t68 125t123 85.5t192.5 45.5t273.5 10.5t369 -25.5zM3400 1434q41 0 41 -41v-226q0 -41 -41 -41h-758q-41 0 -41 41v226 q0 41 41 41h758zM3400 1024q41 0 41 -41v-942q0 -41 -41 -41h-758q-41 0 -41 41v942q0 41 41 41h758z" />
<glyph unicode="&#xfb04;" horiz-adv-x="3510" d="M2451 1434q41 -3 41 -43v-248q0 -43 -47 -37q-88 12 -136.5 6.5t-66 -24.5t-20.5 -64h229q41 0 41 -41v-307q0 -41 -41 -41h-231v-594q0 -41 -41 -41h-737q-41 0 -41 41v594h-363v-594q0 -41 -41 -41h-737q-41 0 -41 41v594h-143q-41 0 -41 41v307q0 41 41 41h143 q4 99 24.5 169t68 125t123 86t193 45.5t273.5 10t369 -25.5q41 -3 41 -43v-248q0 -43 -47 -37q-88 12 -137 6.5t-66.5 -24.5t-20.5 -64h361q4 99 24 169t68 125t123 85.5t192.5 45.5t273.5 10.5t369 -25.5zM3379 1434q41 0 41 -41v-1352q0 -41 -41 -41h-758q-41 0 -41 41 v1352q0 41 41 41h758z" />
<glyph horiz-adv-x="1755" d="M1620 1004h-328v-574h328q41 0 41 -41v-348q0 -41 -41 -41h-1485q-41 0 -41 41v348q0 41 41 41h328v574h-328q-41 0 -41 40v349q0 41 41 41h1485q41 0 41 -41v-349q0 -40 -41 -40z" />
<glyph horiz-adv-x="1755" d="M618 1556q-26 0 -33.5 16t9.5 36l223 254q19 22 51 22h592q28 0 35 -15.5t-14 -35.5l-275 -256q-21 -21 -49 -21h-539zM1620 1004h-328v-574h328q41 0 41 -41v-348q0 -41 -41 -41h-1485q-41 0 -41 41v348q0 41 41 41h328v574h-328q-41 0 -41 40v349q0 41 41 41h1485 q41 0 41 -41v-349q0 -40 -41 -40z" />
<glyph horiz-adv-x="1755" d="M879 1536q-215 0 -345.5 66t-150.5 198q-3 43 41 43h272q11 0 19.5 -5t12 -9t13.5 -17q37 -43 138 -43q100 0 137 43q1 1 4 5t4 5t3.5 4.5t3.5 4.5t4 3.5t4.5 3t4 2t5 2t6 1t6.5 0.5h272q44 0 41 -43q-20 -132 -150 -198t-345 -66zM1620 1004h-328v-574h328q41 0 41 -41 v-348q0 -41 -41 -41h-1485q-41 0 -41 41v348q0 41 41 41h328v574h-328q-41 0 -41 40v349q0 41 41 41h1485q41 0 41 -41v-349q0 -40 -41 -40z" />
<glyph horiz-adv-x="1755" d="M362 1556q-25 0 -32 14t8 36l219 295q16 24 49 24h545q33 0 49 -24l219 -295q15 -22 8 -36t-32 -14h-379q-28 0 -51 23l-86 92l-86 -92q-23 -23 -52 -23h-379zM1620 1004h-328v-574h328q41 0 41 -41v-348q0 -41 -41 -41h-1485q-41 0 -41 41v348q0 41 41 41h328v574h-328 q-41 0 -41 40v349q0 41 41 41h1485q41 0 41 -41v-349q0 -40 -41 -40z" />
<glyph horiz-adv-x="1755" d="M342 1556q-41 0 -41 41v205q0 41 41 41h430q41 0 41 -41v-205q0 -41 -41 -41h-430zM983 1556q-41 0 -41 41v205q0 41 41 41h430q41 0 41 -41v-205q0 -41 -41 -41h-430zM1620 1004h-328v-574h328q41 0 41 -41v-348q0 -41 -41 -41h-1485q-41 0 -41 41v348q0 41 41 41h328 v574h-328q-41 0 -41 40v349q0 41 41 41h1485q41 0 41 -41v-349q0 -40 -41 -40z" />
<glyph horiz-adv-x="1755" d="M664 1556q-41 0 -41 41v205q0 41 41 41h430q41 0 41 -41v-205q0 -41 -41 -41h-430zM1620 1004h-328v-574h328q41 0 41 -41v-348q0 -41 -41 -41h-1485q-41 0 -41 41v348q0 41 41 41h328v574h-328q-41 0 -41 40v349q0 41 41 41h1485q41 0 41 -41v-349q0 -40 -41 -40z" />
<glyph horiz-adv-x="1755" d="M328 1833q-21 20 -14.5 35.5t34.5 15.5h592q32 0 51 -22l223 -254q17 -20 9.5 -36t-33.5 -16h-539q-28 0 -49 21zM1620 1004h-328v-574h328q41 0 41 -41v-348q0 -41 -41 -41h-1485q-41 0 -41 41v348q0 41 41 41h328v574h-328q-41 0 -41 40v349q0 41 41 41h1485 q41 0 41 -41v-349q0 -40 -41 -40z" />
<glyph horiz-adv-x="1755" d="M408 1556q-41 0 -41 41v205q0 41 41 41h942q41 0 41 -41v-205q0 -41 -41 -41h-942zM1620 1004h-328v-574h328q41 0 41 -41v-348q0 -41 -41 -41h-1485q-41 0 -41 41v348q0 41 41 41h328v574h-328q-41 0 -41 40v349q0 41 41 41h1485q41 0 41 -41v-349q0 -40 -41 -40z" />
<glyph horiz-adv-x="1755" d="M1620 1004h-328v-574h328q41 0 41 -41v-348q0 -41 -41 -41h8q-139 -43 -204 -63.5t-117.5 -40.5t-64.5 -31.5t-7 -24.5q8 -18 75 2.5t144 53.5q37 18 53 -21l76 -174q16 -40 -22 -55q-177 -66 -355 -69.5t-295.5 59.5t-117.5 178q0 156 208 186h-866q-41 0 -41 41v348 q0 41 41 41h328v574h-328q-41 0 -41 40v349q0 41 41 41h1485q41 0 41 -41v-349q0 -40 -41 -40z" />
<glyph horiz-adv-x="1755" d="M410 1604q-43 -29 -43 20v176q0 30 16 51q65 68 182 68q74 0 159 -18.5t150.5 -40t149.5 -40t156 -18.5q95 0 166 47q45 28 45 -18v-178q0 -30 -19 -49q-33 -32 -85.5 -50t-98.5 -18q-73 0 -158 18.5t-151 40t-150 40t-156 18.5q-93 0 -163 -49zM1620 1004h-328v-574h328 q41 0 41 -41v-348q0 -41 -41 -41h-1485q-41 0 -41 41v348q0 41 41 41h328v574h-328q-41 0 -41 40v349q0 41 41 41h1485q41 0 41 -41v-349q0 -40 -41 -40z" />
<glyph horiz-adv-x="1576" d="M1485 1434q41 0 41 -41v-349q0 -40 -41 -40h-217v-441q0 -104 -8.5 -180t-31.5 -145t-60.5 -114.5t-99 -82t-144 -54.5t-198 -25t-258 0t-327.5 26q-41 3 -41 43l2 383q0 43 45 37q46 -5 77.5 -8t62 -2t49 2t36.5 11.5t27.5 18.5t18 30.5t11.5 40t5.5 54.5t3 66.5 t0.5 83.5v256h-297q-41 0 -41 40l2 349q0 41 41 41h1342z" />
<glyph horiz-adv-x="1576" d="M299 1556q-25 0 -32.5 14t7.5 36l220 295q16 24 49 24h544q34 0 50 -24l219 -295q15 -22 7.5 -36t-32.5 -14h-379q-28 0 -51 23l-86 92l-86 -92q-23 -23 -51 -23h-379zM1485 1434q41 0 41 -41v-349q0 -40 -41 -40h-217v-441q0 -104 -8.5 -180t-31.5 -145t-60.5 -114.5 t-99 -82t-144 -54.5t-198 -25t-258 0t-327.5 26q-41 3 -41 43l2 383q0 43 45 37q46 -5 77.5 -8t62 -2t49 2t36.5 11.5t27.5 18.5t18 30.5t11.5 40t5.5 54.5t3 66.5t0.5 83.5v256h-297q-41 0 -41 40l2 349q0 41 41 41h1342z" />
<glyph horiz-adv-x="2017" d="M1010 1044q227 0 390.5 -14t267 -39t164 -66t83 -88.5t22.5 -113.5v-682q0 -41 -41 -41h-696q-41 0 -41 41v70q-176 -142 -493 -142q-180 0 -298 19t-188 62.5t-98.5 107t-28.5 159.5q0 82 46.5 140.5t123 89t174 50t199.5 24.5t199.5 10.5t174 11t123 23.5t46.5 49 q0 34 -23 48.5t-86 14.5q-66 0 -92.5 -12t-32.5 -49q-6 -41 -41 -41h-725q-41 0 -41 14q1 83 22.5 137.5t77.5 99t159.5 68.5t261.5 36.5t391 12.5zM985 272q87 0 120.5 20.5t33.5 84.5v37q-140 -12 -207.5 -28t-67.5 -50q0 -33 25.5 -48.5t95.5 -15.5z" />
<glyph horiz-adv-x="2017" d="M750 1147q-26 0 -34 15.5t9 35.5l223 254q20 23 51 23h592q28 0 35 -16t-14 -36l-275 -256q-20 -20 -49 -20h-538zM1010 1044q227 0 390.5 -14t267 -39t164 -66t83 -88.5t22.5 -113.5v-682q0 -41 -41 -41h-696q-41 0 -41 41v70q-176 -142 -493 -142q-180 0 -298 19 t-188 62.5t-98.5 107t-28.5 159.5q0 82 46.5 140.5t123 89t174 50t199.5 24.5t199.5 10.5t174 11t123 23.5t46.5 49q0 34 -23 48.5t-86 14.5q-66 0 -92.5 -12t-32.5 -49q-6 -41 -41 -41h-725q-41 0 -41 14q1 83 22.5 137.5t77.5 99t159.5 68.5t261.5 36.5t391 12.5zM985 272 q87 0 120.5 20.5t33.5 84.5v37q-140 -12 -207.5 -28t-67.5 -50q0 -33 25.5 -48.5t95.5 -15.5z" />
<glyph horiz-adv-x="2017" d="M1010 1126q-215 0 -345.5 66.5t-150.5 198.5q-3 43 41 43h272q11 0 19.5 -5t12 -9t13.5 -17q37 -43 138 -43q100 0 137 43q1 1 4 5t4 5t3.5 4.5t3.5 4.5t4 3.5t4.5 3t4 2t5 2t6 1t6.5 0.5h272q44 0 41 -43q-20 -132 -150 -198.5t-345 -66.5zM1010 1044q227 0 390.5 -14 t267 -39t164 -66t83 -88.5t22.5 -113.5v-682q0 -41 -41 -41h-696q-41 0 -41 41v70q-176 -142 -493 -142q-180 0 -298 19t-188 62.5t-98.5 107t-28.5 159.5q0 82 46.5 140.5t123 89t174 50t199.5 24.5t199.5 10.5t174 11t123 23.5t46.5 49q0 34 -23 48.5t-86 14.5 q-66 0 -92.5 -12t-32.5 -49q-6 -41 -41 -41h-725q-41 0 -41 14q1 83 22.5 137.5t77.5 99t159.5 68.5t261.5 36.5t391 12.5zM985 272q87 0 120.5 20.5t33.5 84.5v37q-140 -12 -207.5 -28t-67.5 -50q0 -33 25.5 -48.5t95.5 -15.5z" />
<glyph horiz-adv-x="2017" d="M494 1147q-25 0 -32.5 13.5t7.5 35.5l219 295q17 25 49 25h545q32 0 49 -25l219 -295q15 -22 8 -35.5t-32 -13.5h-379q-29 0 -51 22l-86 93l-86 -93q-22 -22 -52 -22h-378zM1010 1044q227 0 390.5 -14t267 -39t164 -66t83 -88.5t22.5 -113.5v-682q0 -41 -41 -41h-696 q-41 0 -41 41v70q-176 -142 -493 -142q-180 0 -298 19t-188 62.5t-98.5 107t-28.5 159.5q0 82 46.5 140.5t123 89t174 50t199.5 24.5t199.5 10.5t174 11t123 23.5t46.5 49q0 34 -23 48.5t-86 14.5q-66 0 -92.5 -12t-32.5 -49q-6 -41 -41 -41h-725q-41 0 -41 14 q1 83 22.5 137.5t77.5 99t159.5 68.5t261.5 36.5t391 12.5zM985 272q87 0 120.5 20.5t33.5 84.5v37q-140 -12 -207.5 -28t-67.5 -50q0 -33 25.5 -48.5t95.5 -15.5z" />
<glyph horiz-adv-x="2017" d="M473 1147q-41 0 -41 41v205q0 41 41 41h430q41 0 41 -41v-205q0 -41 -41 -41h-430zM1114 1147q-41 0 -41 41v205q0 41 41 41h430q41 0 41 -41v-205q0 -41 -41 -41h-430zM1010 1044q227 0 390.5 -14t267 -39t164 -66t83 -88.5t22.5 -113.5v-682q0 -41 -41 -41h-696 q-41 0 -41 41v70q-176 -142 -493 -142q-180 0 -298 19t-188 62.5t-98.5 107t-28.5 159.5q0 82 46.5 140.5t123 89t174 50t199.5 24.5t199.5 10.5t174 11t123 23.5t46.5 49q0 34 -23 48.5t-86 14.5q-66 0 -92.5 -12t-32.5 -49q-6 -41 -41 -41h-725q-41 0 -41 14 q1 83 22.5 137.5t77.5 99t159.5 68.5t261.5 36.5t391 12.5zM985 272q87 0 120.5 20.5t33.5 84.5v37q-140 -12 -207.5 -28t-67.5 -50q0 -33 25.5 -48.5t95.5 -15.5z" />
<glyph horiz-adv-x="2017" d="M459 1423q-21 20 -14.5 36t34.5 16h592q31 0 51 -23l224 -254q17 -20 9 -35.5t-34 -15.5h-539q-29 0 -49 20zM1010 1044q227 0 390.5 -14t267 -39t164 -66t83 -88.5t22.5 -113.5v-682q0 -41 -41 -41h-696q-41 0 -41 41v70q-176 -142 -493 -142q-180 0 -298 19t-188 62.5 t-98.5 107t-28.5 159.5q0 82 46.5 140.5t123 89t174 50t199.5 24.5t199.5 10.5t174 11t123 23.5t46.5 49q0 34 -23 48.5t-86 14.5q-66 0 -92.5 -12t-32.5 -49q-6 -41 -41 -41h-725q-41 0 -41 14q1 83 22.5 137.5t77.5 99t159.5 68.5t261.5 36.5t391 12.5zM985 272 q87 0 120.5 20.5t33.5 84.5v37q-140 -12 -207.5 -28t-67.5 -50q0 -33 25.5 -48.5t95.5 -15.5z" />
<glyph horiz-adv-x="2017" d="M539 1147q-41 0 -41 41v205q0 41 41 41h942q41 0 41 -41v-205q0 -41 -41 -41h-942zM1010 1044q227 0 390.5 -14t267 -39t164 -66t83 -88.5t22.5 -113.5v-682q0 -41 -41 -41h-696q-41 0 -41 41v70q-176 -142 -493 -142q-180 0 -298 19t-188 62.5t-98.5 107t-28.5 159.5 q0 82 46.5 140.5t123 89t174 50t199.5 24.5t199.5 10.5t174 11t123 23.5t46.5 49q0 34 -23 48.5t-86 14.5q-66 0 -92.5 -12t-32.5 -49q-6 -41 -41 -41h-725q-41 0 -41 14q1 83 22.5 137.5t77.5 99t159.5 68.5t261.5 36.5t391 12.5zM985 272q87 0 120.5 20.5t33.5 84.5v37 q-140 -12 -207.5 -28t-67.5 -50q0 -33 25.5 -48.5t95.5 -15.5z" />
<glyph horiz-adv-x="2017" d="M1010 1044q227 0 390.5 -14t267 -39t164 -66t83 -88.5t22.5 -113.5v-682q0 -41 -41 -41h9q-140 -43 -204 -63.5t-117.5 -41t-65.5 -31.5t-7 -24q8 -18 76 2.5t144 53.5q37 18 53 -21l76 -174q16 -39 -23 -55q-177 -66 -355 -69.5t-295.5 59.5t-117.5 178q0 155 209 186 h-78q-41 0 -41 41v70q-176 -142 -493 -142q-180 0 -298 19t-188 62.5t-98.5 107t-28.5 159.5q0 82 46.5 140.5t123 89t174 50t199.5 24.5t199.5 10.5t174 11t123 23.5t46.5 49q0 34 -23 48.5t-86 14.5q-66 0 -92.5 -12t-32.5 -49q-6 -41 -41 -41h-725q-41 0 -41 14 q1 83 22.5 137.5t77.5 99t159.5 68.5t261.5 36.5t391 12.5zM985 272q87 0 120.5 20.5t33.5 84.5v37q-140 -12 -207.5 -28t-67.5 -50q0 -33 25.5 -48.5t95.5 -15.5z" />
<glyph horiz-adv-x="2017" d="M1268 1038q200 -9 333.5 -33.5t206 -66.5t101 -92.5t28.5 -122.5v-682q0 -41 -41 -41h-696q-41 0 -41 41v70q-176 -142 -493 -142q-180 0 -298 19t-188 62.5t-98.5 107t-28.5 159.5q0 82 46.5 140.5t123 89t174 50t199.5 24.5t199.5 10.5t174 11t123 23.5t46.5 49 q0 34 -23 48.5t-86 14.5q-66 0 -92.5 -12t-32.5 -49q-6 -41 -41 -41h-725q-41 0 -41 14q2 91 27.5 148.5t96 102.5t198 67.5t330.5 31.5q-99 102 -99 246q0 148 105.5 253.5t253.5 105.5t253 -105.5t105 -253.5q0 -140 -100 -248zM1010 1350q-26 0 -45 -19t-19 -45t19 -44.5 t45 -18.5t44.5 18.5t18.5 44.5t-18.5 45t-44.5 19zM985 272q87 0 120.5 20.5t33.5 84.5v37q-140 -12 -207.5 -28t-67.5 -50q0 -33 25.5 -48.5t95.5 -15.5z" />
<glyph horiz-adv-x="2017" d="M750 1704q-26 0 -34 15.5t9 35.5l223 254q20 23 51 23h592q28 0 35 -16t-14 -36l-275 -256q-20 -20 -49 -20h-538zM1247 1040q167 -7 288 -24.5t198 -43.5t123 -65t63.5 -82.5t17.5 -101.5v-682q0 -41 -41 -41h-696q-41 0 -41 41v70q-176 -142 -493 -142q-180 0 -298 19 t-188 62.5t-98.5 107t-28.5 159.5q0 82 46.5 140.5t123 89t174 50t199.5 24.5t199.5 10.5t174 11t123 23.5t46.5 49q0 34 -23 48.5t-86 14.5q-66 0 -92.5 -12t-32.5 -49q-6 -41 -41 -41h-725q-41 0 -41 14q1 74 17.5 124t59 93t118 69t192.5 42.5t285 21.5q-55 51 -87 121 t-32 146q0 148 105.5 253t253.5 105t253 -105t105 -253q0 -77 -32.5 -147t-88.5 -120zM1010 1370q-26 0 -45 -18.5t-19 -44.5t19 -45t45 -19t44.5 19t18.5 45t-18.5 44.5t-44.5 18.5zM985 272q87 0 120.5 20.5t33.5 84.5v37q-140 -12 -207.5 -28t-67.5 -50q0 -33 25.5 -48.5 t95.5 -15.5z" />
<glyph horiz-adv-x="2017" d="M541 1194q-43 -29 -43 20v177q0 30 16 51q64 67 182 67q92 0 201 -29t217 -58t197 -29q95 0 166 47q45 28 45 -19v-178q0 -30 -19 -49q-33 -32 -85.5 -50t-98.5 -18q-73 0 -158 18.5t-150.5 40t-149.5 40t-156 18.5q-94 0 -164 -49zM1010 1044q227 0 390.5 -14t267 -39 t164 -66t83 -88.5t22.5 -113.5v-682q0 -41 -41 -41h-696q-41 0 -41 41v70q-176 -142 -493 -142q-180 0 -298 19t-188 62.5t-98.5 107t-28.5 159.5q0 82 46.5 140.5t123 89t174 50t199.5 24.5t199.5 10.5t174 11t123 23.5t46.5 49q0 34 -23 48.5t-86 14.5q-66 0 -92.5 -12 t-32.5 -49q-6 -41 -41 -41h-725q-41 0 -41 14q1 83 22.5 137.5t77.5 99t159.5 68.5t261.5 36.5t391 12.5zM985 272q87 0 120.5 20.5t33.5 84.5v37q-140 -12 -207.5 -28t-67.5 -50q0 -33 25.5 -48.5t95.5 -15.5z" />
<glyph horiz-adv-x="1024" d="M768 1188q0 -41 -41 -41h-430q-41 0 -41 41v205q0 41 41 41h430q41 0 41 -41v-205zM934 41q0 -41 -41 -41h-758q-41 0 -41 41v942q0 41 41 41h758q41 0 41 -41v-942z" />
<glyph horiz-adv-x="2021" d="M1886 1024q41 0 41 -41v-850q0 -103 -10 -174t-42 -138.5t-84.5 -109t-145 -76.5t-217 -50.5t-306 -22t-405 0t-522.5 23.5q-43 3 -43 41l-5 273q0 42 46 39q485 -33 637 -27q184 7 247 66q54 50 59 173q1 13 1 27v47q-51 -103 -187.5 -169t-361.5 -66q-84 0 -150.5 6 t-117 20t-87 31.5t-61.5 45.5t-40.5 57.5t-24 72.5t-11 84t-2.5 99v577q0 41 41 41h768q41 0 41 -41v-508q0 -67 12 -92t48 -25q59 0 86.5 77t27.5 241v307q0 41 41 41h727z" />
<glyph horiz-adv-x="2021" d="M752 1147q-26 0 -34 15.5t9 35.5l223 254q20 23 51 23h592q28 0 35 -16t-14 -36l-275 -256q-20 -20 -49 -20h-538zM1886 1024q41 0 41 -41v-850q0 -103 -10 -174t-42 -138.5t-84.5 -109t-145 -76.5t-217 -50.5t-306 -22t-405 0t-522.5 23.5q-43 3 -43 41l-5 273 q0 42 46 39q485 -33 637 -27q184 7 247 66q54 50 59 173q1 13 1 27v47q-51 -103 -187.5 -169t-361.5 -66q-84 0 -150.5 6t-117 20t-87 31.5t-61.5 45.5t-40.5 57.5t-24 72.5t-11 84t-2.5 99v577q0 41 41 41h768q41 0 41 -41v-508q0 -67 12 -92t48 -25q59 0 86.5 77t27.5 241 v307q0 41 41 41h727z" />
</font>
</defs>
</svg>
