<?xml version="1.0" standalone="no"?>
<!DOCTYPE svg PUBLIC "-//W3C//DTD SVG 1.1//EN" "http://www.w3.org/Graphics/SVG/1.1/DTD/svg11.dtd" >
<svg xmlns="http://www.w3.org/2000/svg" xmlns:xlink="http://www.w3.org/1999/xlink" version="1.1">
<metadata></metadata>
<defs>
<font id="atc_duelv10" horiz-adv-x="1957" >
<font-face units-per-em="2048" ascent="1638" descent="-410" />
<missing-glyph horiz-adv-x="716" />
<glyph unicode="fi" horiz-adv-x="2050" d="M1112 1436q41 -6 41 -45v-240q0 -43 -47 -37q-85 15 -131.5 9t-62.5 -27.5t-19 -71.5h219q41 0 41 -41v-289q0 -41 -41 -41h-219v-612q0 -41 -41 -41h-610q-41 0 -41 41v612h-125q-41 0 -41 41v289q0 41 41 41h125q4 118 32 197t89.5 135t166.5 80t256 24.5t367 -24.5z M1913 1434q41 0 41 -41v-219q0 -41 -41 -41h-625q-41 0 -41 41v219q0 41 41 41h625zM1913 1024q41 0 41 -41v-942q0 -41 -41 -41h-625q-41 0 -41 41v942q0 41 41 41h625z" />
<glyph unicode="fl" horiz-adv-x="2050" d="M1112 1436q41 -6 41 -45v-240q0 -43 -47 -37q-85 15 -131.5 9t-62.5 -27.5t-19 -71.5h219q41 0 41 -41v-289q0 -41 -41 -41h-219v-612q0 -41 -41 -41h-610q-41 0 -41 41v612h-125q-41 0 -41 41v289q0 41 41 41h125q4 118 32 197t89.5 135t166.5 80t256 24.5t367 -24.5z M1913 1434q41 0 41 -41v-1352q0 -41 -41 -41h-625q-41 0 -41 41v1352q0 41 41 41h625z" />
<glyph unicode=" "  horiz-adv-x="716" />
<glyph unicode="&#x09;" horiz-adv-x="716" />
<glyph unicode="&#xa0;" horiz-adv-x="716" />
<glyph unicode="!" horiz-adv-x="933" d="M766 1434q41 0 41 -41v-369l-72 -575q-6 -39 -43 -39h-450q-37 0 -43 39l-70 575v369q0 41 41 41h596zM752 301q41 0 41 -41v-219q0 -41 -41 -41h-570q-41 0 -41 41v219q0 41 41 41h570z" />
<glyph unicode="&#x22;" horiz-adv-x="1208" d="M528 963q0 -41 -41 -41h-344q-41 0 -41 41v430q0 41 41 41h344q41 0 41 -41v-430zM1106 963q0 -41 -41 -41h-344q-41 0 -41 41v430q0 41 41 41h344q41 0 41 -41v-430z" />
<glyph unicode="#" horiz-adv-x="1529" d="M1489 1126q41 0 41 -41v-241q0 -41 -41 -41h-146l-20 -160h102q41 0 41 -41v-254q0 -41 -41 -41h-147l-37 -268q-6 -39 -45 -39h-412q-21 0 -31.5 11.5t-7.5 31.5l37 264h-153l-37 -268q-6 -39 -45 -39h-412q-21 0 -31.5 11.5t-7.5 31.5l37 264h-94q-41 0 -41 41v254 q0 41 41 41h139l23 160h-99q-41 0 -41 41v241q0 41 41 41h144l37 269q6 39 45 39h409q43 0 37 -43l-35 -265h156l37 269q6 39 45 39h409q43 0 37 -43l-34 -265h100zM827 643l23 160h-156l-20 -160h153z" />
<glyph unicode="$" horiz-adv-x="1875" d="M1819 434q0 -108 -25.5 -183.5t-89 -135.5t-176 -95.5t-281.5 -50.5l25 -336q3 -43 -39 -43h-510q-42 0 -39 43l23 330q-150 10 -258 34t-179.5 61.5t-114.5 95.5t-61.5 126.5t-21.5 163.5q0 41 41 41h618q37 0 43 -39q7 -61 43.5 -81.5t138.5 -20.5q94 0 127 21.5 t33 66.5q0 35 -35.5 56.5t-95.5 32.5t-138 18t-164 17t-172 25.5t-164 47.5t-138 78.5t-95.5 123.5t-35.5 177q0 79 17 140.5t59.5 117t113.5 94t181.5 65t259.5 37.5l-25 355q-3 43 39 43h510q42 0 39 -43l-27 -357q167 -15 275.5 -48t170 -93t86 -135t27.5 -187 q0 -41 -41 -41h-618q-38 0 -41 39q-8 62 -40 82.5t-124 20.5q-96 0 -128 -20t-32 -66q0 -35 35.5 -57t95.5 -33t138 -18.5t164.5 -17.5t172.5 -25.5t164 -47.5t138 -78.5t95.5 -123.5t35.5 -177z" />
<glyph unicode="%" horiz-adv-x="2494" d="M524 1450q214 0 336.5 -112.5t122.5 -313.5q0 -217 -133 -338t-340 -121t-338 115t-131 317q0 205 129.5 329t351.5 124h2zM631 -20q-25 0 -33 14.5t4 34.5l797 1386q15 29 49 29h403q25 0 33 -14.5t-4 -34.5l-797 -1387q-14 -28 -49 -28h-403zM514 1231 q-127 0 -127 -223q0 -226 131 -226q60 0 89.5 53.5t29.5 172.5q0 112 -28 167.5t-93 55.5h-2zM1991 862q216 0 339.5 -111.5t123.5 -312.5q0 -109 -36.5 -196.5t-101 -144t-151 -86t-187.5 -29.5q-208 0 -337.5 114.5t-129.5 315.5q0 204 125.5 327t339.5 123h15zM1982 645 q-124 0 -124 -225q0 -223 129 -223q60 0 90 53t30 172q0 112 -28.5 167.5t-93.5 55.5h-3z" />
<glyph unicode="&#x26;" horiz-adv-x="2091" d="M2111 49q23 -17 17 -33t-35 -16h-635q-30 0 -53 18l-62 50q-245 -88 -542 -88q-176 0 -308 18t-219.5 51.5t-141.5 85.5t-76.5 114.5t-22.5 143.5q0 78 34 141.5t97 110t135 79.5t166 62q-100 98 -136 168t-36 148q0 68 19 120t67 97t127.5 74t204.5 45t293 16 q167 0 288.5 -15t200.5 -43t126 -72.5t66 -98.5t19 -127q0 -67 -22.5 -124t-59 -98.5t-91.5 -77.5t-111 -60.5t-126 -47.5l121 -96q35 38 70 88q18 27 49 27l512 2q25 0 33.5 -15t-6.5 -37q-135 -204 -301 -344zM1008 1122q-67 0 -91 -29t-2 -75t82 -96q144 52 144 120 q0 41 -28 60.5t-105 19.5zM868 311q62 0 138 21q-32 25 -81 64t-86 68.5t-67 53.5q-61 -42 -61 -96q0 -55 37 -83t120 -28z" />
<glyph unicode="'" horiz-adv-x="630" d="M528 963q0 -41 -41 -41h-344q-41 0 -41 41v430q0 41 41 41h344q41 0 41 -41v-430z" />
<glyph unicode="(" horiz-adv-x="1099" d="M913 -223q10 -23 2 -36t-32 -13h-348q-33 0 -50 26q-559 962 0 1923q17 29 50 29h348q24 0 32 -13t-2 -36q-416 -945 0 -1880z" />
<glyph unicode=")" horiz-adv-x="1099" d="M186 -223q416 935 0 1880q-10 23 -1.5 36t32.5 13h348q35 0 49 -29q562 -961 0 -1923q-14 -26 -49 -26h-348q-24 0 -32.5 13t1.5 36z" />
<glyph unicode="*" horiz-adv-x="948" d="M819 1403q18 -34 -12 -55l-94 -68l94 -68q30 -21 12 -55l-63 -113q-17 -33 -56 -16l-106 47l-12 -114q-3 -39 -43 -39h-127q-40 0 -43 39l-13 114l-106 -47q-35 -15 -53 19l-64 110q-18 35 10 55l95 68l-95 68q-30 21 -12 55l64 113q17 33 55 16l106 -47l13 114 q3 39 43 39h127q40 0 43 -39l12 -114l106 47q39 17 56 -16z" />
<glyph unicode="+" horiz-adv-x="1224" d="M719 473v-399q0 -41 -41 -41h-139q-41 0 -41 41v399h-357q-41 0 -41 41v129q0 41 41 41h357v371q0 41 41 41h139q41 0 41 -41v-371h354q41 0 41 -41v-129q0 -41 -41 -41h-354z" />
<glyph unicode="," horiz-adv-x="991" d="M569 -178q-18 -27 -49 -27h-356q-22 0 -32 12.5t-5 34.5l117 430q8 35 45 35h528q25 0 33 -14.5t-4 -34.5z" />
<glyph unicode="-" horiz-adv-x="1226" d="M1083 358q0 -41 -41 -41h-858q-41 0 -41 41v328q0 41 41 41h858q41 0 41 -41v-328z" />
<glyph unicode="." horiz-adv-x="714" d="M612 41q0 -41 -41 -41h-428q-41 0 -41 41v330q0 41 41 41h428q41 0 41 -41v-330z" />
<glyph unicode="/" horiz-adv-x="1050" d="M485 1401q11 33 47 33h469q22 0 31 -13t2 -35l-467 -1378q-11 -33 -47 -33h-473q-22 0 -31 13t-2 35z" />
<glyph unicode="0" horiz-adv-x="1878" d="M940 -20q-124 0 -227 11.5t-182.5 32t-143 53t-108.5 70t-77.5 88.5t-52.5 101.5t-31.5 117t-15.5 128t-4 139.5q0 76 4 136.5t15.5 126t31.5 116t52.5 102t77.5 89t108.5 71t143 54t182.5 32.5t227 12q123 0 226 -12t182.5 -32.5t142.5 -54t108 -71t77.5 -89t52.5 -102 t31.5 -116t15.5 -126t4 -136.5q0 -78 -4 -139.5t-15.5 -128t-31.5 -117t-52.5 -101.5t-77.5 -88.5t-108 -70t-142.5 -53t-182.5 -32t-226 -11.5zM940 397q75 0 99 70.5t24 253.5q0 176 -24.5 248.5t-98.5 72.5q-39 0 -64 -18.5t-38.5 -61t-18 -98t-4.5 -143.5 q0 -183 24.5 -253.5t100.5 -70.5z" />
<glyph unicode="1" horiz-adv-x="1495" d="M1151 412h213q41 0 41 -41v-330q0 -41 -41 -41h-1186q-41 0 -41 41v330q0 41 41 41h256v528l-250 -156q-22 -14 -35.5 -6t-13.5 33v397q0 31 29 47l334 166q21 13 51 13h561q41 0 41 -41v-981z" />
<glyph unicode="2" horiz-adv-x="1847" d="M1716 412q41 0 41 -41v-330q0 -41 -41 -41h-1599q-41 0 -41 41v233q0 120 33.5 212t90.5 147.5t131 93.5t155.5 56t162.5 30.5t155 21.5t131 23.5t90.5 43t33.5 73.5q0 57 -33.5 81.5t-107.5 24.5q-89 0 -115 -20.5t-29 -91.5q0 -43 -41 -43h-602q-41 0 -41 41 q3 99 18.5 168.5t53.5 126t96.5 91.5t153 58.5t217.5 33t295 9.5q200 0 346 -19t243.5 -56t155.5 -97t82.5 -134.5t24.5 -176.5q0 -100 -30.5 -177.5t-82.5 -125.5t-120 -81.5t-145 -50.5t-155 -28t-152.5 -19t-135 -18.5t-104.5 -31t-60 -52.5l256 25h669z" />
<glyph unicode="3" horiz-adv-x="1841" d="M1700 639q44 -51 63 -108.5t19 -137.5q0 -77 -18.5 -134.5t-73.5 -112.5t-148.5 -89.5t-250.5 -55.5t-373 -21q-182 0 -310.5 9.5t-225 34t-155 58.5t-95 91.5t-50.5 124.5t-16 165q0 41 40 41h617q41 0 41 -41q4 -75 34 -98t120 -23q69 0 101 25t32 84q0 127 -133 127 h-359q-41 0 -41 40v213q0 41 41 41h359q28 0 44 1t37.5 7t33 17t20 32.5t8.5 53.5q0 60 -35 84.5t-119 24.5q-69 0 -93.5 -21.5t-27.5 -79.5q-3 -41 -43 -41h-616q-41 0 -41 41q3 94 17 159t50 119.5t93 87.5t149.5 56t215.5 32t296 9q158 0 283.5 -10t216 -27t156 -44.5 t105.5 -58.5t63.5 -73.5t32 -85t8.5 -96.5q0 -148 -72 -258q-26 -40 -119 -86q58 -27 80.5 -41.5t38.5 -34.5z" />
<glyph unicode="4" horiz-adv-x="1937" d="M1837 614q41 0 41 -41v-286q0 -41 -41 -41h-143v-205q0 -41 -41 -41h-621q-41 0 -41 41v205h-837q-41 0 -41 41v311q0 26 20 49l680 764q23 23 51 23h789q41 0 41 -41v-779h143zM924 811l-183 -197h260v179l23 147z" />
<glyph unicode="5" horiz-adv-x="1816" d="M991 938q127 0 218 -3t172.5 -13t135 -24.5t98.5 -41t70 -59t42.5 -81.5t23.5 -106t6 -135q0 -115 -22.5 -194.5t-75.5 -141.5t-147.5 -97.5t-231.5 -53t-334 -17.5q-178 0 -309 11t-228.5 36t-160 61.5t-101.5 93.5t-55.5 124.5t-19.5 161.5q0 41 41 41h630q40 0 43 -41 q4 -65 32.5 -90t96.5 -25q73 0 99 28t26 101q0 24 -1 40t-7.5 29.5t-11 22t-20 14.5t-26 8.5t-38.5 4.5t-46.5 2h-60.5h-690q-41 0 -41 41v758q0 41 41 41h1553q41 0 41 -41v-316q0 -41 -41 -41h-922v-98h221z" />
<glyph unicode="6" horiz-adv-x="1941" d="M1411 881q84 0 148 -9.5t110 -25.5t78.5 -44.5t52 -60t30 -78.5t14 -93t3.5 -111q0 -90 -15 -155.5t-53 -121.5t-101 -92t-161 -62t-230.5 -37t-311.5 -11q-155 0 -271 7.5t-208.5 28t-155 46t-107.5 74t-70 97.5t-39 131t-17.5 161t-2.5 200q0 85 4 149.5t13.5 129.5 t25.5 112.5t42 94t61.5 78.5t85 61t112 47t142 31.5t176 19.5t213.5 6q168 0 294 -10.5t219.5 -34.5t155 -58t100 -86t55.5 -113t20 -144q0 -41 -41 -41h-615q-35 0 -41 39q-6 44 -36.5 56.5t-120.5 12.5q-39 0 -59.5 -3.5t-39.5 -15t-27.5 -38.5t-14.5 -68.5t-9 -111.5 q185 30 270 36.5t322 6.5zM1006 338q86 0 115.5 26t29.5 93q0 64 -18 85t-70 21h-246q2 -55 5.5 -90t13 -61.5t20.5 -40t35 -21.5t48 -10t67 -2z" />
<glyph unicode="7" horiz-adv-x="1722" d="M1638 1434q41 0 41 -41v-224q0 -29 -14 -51l-684 -1091q-18 -27 -49 -27h-660q-24 0 -31.5 13.5t5.5 35.5l504 815l133 158h-772q-41 0 -41 41v330q0 41 41 41h1527z" />
<glyph unicode="8" horiz-adv-x="1808" d="M1630 659q76 -52 103.5 -115t27.5 -151q0 -77 -18.5 -134.5t-72.5 -112.5t-147 -89.5t-248 -55.5t-368 -21t-368 21t-248 55.5t-147 89.5t-72.5 112.5t-18.5 134.5q0 89 27.5 151.5t105.5 114.5q43 31 129 60q-101 37 -129 61q-123 98 -123 279q0 77 17.5 132.5t70 108 t144 84.5t245 51t367.5 19t367.5 -19t245 -51t144 -84.5t70 -108t17.5 -132.5q0 -181 -123 -279q-28 -24 -127 -61q86 -29 129 -60zM907 874q82 0 125 25t43 92q0 50 -38 72t-130 22t-130 -22t-38 -72q0 -67 43 -92t125 -25zM907 348q91 0 128.5 22t37.5 72q0 133 -166 133 q-164 0 -164 -133q0 -50 37 -72t127 -22z" />
<glyph unicode="9" horiz-adv-x="1843" d="M948 1454q155 0 271 -7.5t208.5 -28t155 -46t107.5 -74t70 -97.5t39 -131t17.5 -161t2.5 -200q0 -85 -4 -149.5t-13.5 -129.5t-25.5 -112.5t-42 -94t-61.5 -78.5t-85 -61t-112 -47t-142 -31.5t-176 -19.5t-213.5 -6q-168 0 -294 10.5t-219.5 34.5t-155 58t-100 86 t-55.5 113t-20 144q0 41 41 41h615q35 0 41 -39q6 -44 37 -57t120 -13q33 0 51 2t36.5 10t27 22.5t16.5 42t11.5 65.5t5.5 96q-184 -30 -268.5 -36.5t-321.5 -6.5q-84 0 -148 9.5t-110 25.5t-78.5 44.5t-52 60t-30 78.5t-14 93t-3.5 111q0 90 15 155.5t53 121.5t101 92 t161 62t230.5 37t311.5 11zM772 977q0 -64 18 -85.5t70 -21.5h246q-2 55 -5 90.5t-13 62t-21 40t-34.5 21.5t-47.5 10t-67 2q-87 0 -116.5 -26t-29.5 -93z" />
<glyph unicode=":" horiz-adv-x="796" d="M653 653q0 -41 -41 -41h-428q-41 0 -41 41v330q0 41 41 41h428q41 0 41 -41v-330zM653 41q0 -41 -41 -41h-428q-41 0 -41 41v330q0 41 41 41h428q41 0 41 -41v-330z" />
<glyph unicode=";" horiz-adv-x="874" d="M707 676q0 -41 -41 -41h-428q-41 0 -41 41v328q0 40 41 40h428q41 0 41 -40v-328zM471 -201q-13 -24 -45 -24h-334q-20 0 -29.5 11.5t-5.5 31.5l109 403q9 33 43 33h496q23 0 30 -13t-4 -32z" />
<glyph unicode="&#x3c;" horiz-adv-x="1216" d="M135 455q-31 15 -31 47v153q0 31 31 47l926 431q22 10 35.5 1t13.5 -32v-139q0 -35 -31 -50l-766 -331v-4l768 -334q31 -16 31 -49v-142q0 -23 -13.5 -31.5t-35.5 1.5z" />
<glyph unicode="=" horiz-adv-x="1216" d="M141 705q-41 0 -41 40v129q0 41 41 41h932q41 0 41 -41v-129q0 -40 -41 -40h-932zM141 242q-41 0 -41 41v129q0 41 41 41h932q41 0 41 -41v-129q0 -41 -41 -41h-932z" />
<glyph unicode="&#x3e;" horiz-adv-x="1216" d="M1081 702q31 -16 31 -47v-155q0 -32 -31 -47l-927 -430q-22 -10 -36 -1.5t-14 31.5v142q0 33 31 49l768 334v4l-768 331q-31 15 -31 50v139q0 23 14 32t36 -1z" />
<glyph unicode="?" horiz-adv-x="1935" d="M184 920q-41 0 -41 41q4 116 31.5 198t85.5 143t155.5 96t233 51.5t326.5 16.5q128 0 233.5 -8.5t186 -22.5t143.5 -37.5t106.5 -49t75 -61t49 -69t27.5 -78.5t12.5 -83.5t1.5 -89.5q0 -48 -5 -90t-18.5 -90.5t-35 -87.5t-58.5 -76.5t-85.5 -62.5t-118.5 -40.5 t-156 -15.5q-63 0 -85 -18t-25 -76q-3 -41 -43 -41h-584q-41 0 -41 41v86q0 182 85 250.5t284 68.5q64 0 101.5 6.5t56 25t23.5 40.5t5 63q0 80 -12.5 117t-39.5 49t-87 12q-41 0 -67.5 -10t-40 -33.5t-18 -50.5t-5.5 -71q0 -41 -41 -41zM1221 41q0 -41 -41 -41h-584 q-41 0 -41 41v205q0 41 41 41h584q41 0 41 -41v-205z" />
<glyph unicode="@" horiz-adv-x="1787" d="M909 1313q195 0 355.5 -62t268 -170t166 -256t58.5 -319q0 -78 -13.5 -145t-47 -129.5t-85.5 -107t-134.5 -71t-188.5 -26.5q-174 0 -271.5 69.5t-107.5 161.5q-87 -133 -235 -133q-45 0 -79.5 7t-63.5 23t-46.5 44t-27 69t-7.5 98.5t15 131.5q19 111 49 185t73.5 115.5 t95 58.5t122.5 17q137 0 186 -120l13 69q6 37 43 37h249q20 0 30 -12.5t7 -32.5l-63 -369q-29 -178 78 -178q59 0 97 73t38 165q0 123 -34.5 223.5t-103.5 176.5t-180 117.5t-256 41.5q-267 0 -414 -144t-147 -415q0 -262 136 -406t384 -155q41 0 41 -41v-166q0 -41 -43 -41 q-190 7 -343.5 71t-254.5 172t-155 252.5t-54 313.5q0 172 57 319t163 256t268 170.5t362 61.5zM834 356q36 0 75 40.5t52 101.5l2 10q7 56 -17.5 95.5t-62.5 39.5q-72 0 -97 -145q-24 -142 48 -142z" />
<glyph unicode="A" horiz-adv-x="1972" d="M1950 47q6 -22 -3.5 -34.5t-31.5 -12.5h-658q-36 0 -45 35l-41 176h-380l-41 -178q-9 -35 -45 -35l-658 2q-22 0 -31.5 12.5t-3.5 34.5l457 1354q9 33 47 33h930q38 0 47 -33zM870 561h222l-93 402l-18 133l-18 -133z" />
<glyph unicode="B" horiz-adv-x="1896" d="M1561 737q151 -20 217.5 -109t66.5 -222q0 -221 -161.5 -313.5t-540.5 -92.5h-998q-41 0 -41 41v1352q0 41 41 41h957q158 0 267.5 -10t196.5 -34t137 -66.5t75.5 -105.5t25.5 -153q0 -64 -10 -113.5t-35 -95.5t-75 -76.5t-123 -42.5zM1147 969q0 43 -26 64.5t-87 21.5 h-258v-178h258q113 0 113 92zM1055 387q112 0 112 90q0 53 -25.5 77t-86.5 24h-279v-191h279z" />
<glyph unicode="C" d="M1225 856q-37 0 -43 41q-10 89 -49 119.5t-132 30.5q-116 0 -154 -70.5t-38 -255.5q0 -197 37 -262.5t155 -65.5q103 0 139.5 35t45.5 145q3 41 41 41h635q42 0 39 -41q-6 -108 -27 -190.5t-65 -152.5t-112.5 -118t-169 -82t-235.5 -49.5t-311 -15.5q-154 0 -280 19.5 t-219 54.5t-163.5 88t-115.5 115t-73.5 140.5t-40 160t-11.5 178.5q0 94 11.5 173.5t40 156.5t73.5 137.5t115.5 112.5t163.5 86.5t219 53.5t280 19q220 0 374 -20t258.5 -60t165.5 -110t88.5 -158t33.5 -217q3 -41 -39 -41z" />
<glyph unicode="D" horiz-adv-x="1916" d="M940 1434q206 0 358.5 -27t259.5 -80.5t172.5 -140t95 -198.5t29.5 -263q0 -182 -47 -313t-153 -225.5t-283.5 -140.5t-431.5 -46h-774q-41 0 -41 41v1352q0 41 41 41h774zM954 408q220 0 220 317q0 149 -51 225t-169 76h-147v-618h147z" />
<glyph unicode="E" horiz-adv-x="1744" d="M1602 1051h-816v-160h816q40 0 40 -41v-266q0 -41 -40 -41h-816v-160h816q40 0 40 -41v-301q0 -41 -40 -41h-1446q-41 0 -41 41v1352q0 41 41 41h1446q40 0 40 -41v-301q0 -41 -40 -41z" />
<glyph unicode="F" horiz-adv-x="1693" d="M1602 1016h-785v-187h785q40 0 40 -41v-280q0 -41 -40 -41h-785v-426q0 -41 -41 -41h-620q-41 0 -41 41v1352q0 41 41 41h1446q40 0 40 -41v-336q0 -41 -40 -41z" />
<glyph unicode="G" horiz-adv-x="1994" d="M1884 788q41 0 41 -40q-2 -154 -18.5 -262.5t-58 -200.5t-108.5 -149t-174.5 -97.5t-251.5 -57t-343 -16.5q-154 0 -279.5 19.5t-217.5 54.5t-161.5 88t-113.5 114.5t-71.5 141t-38.5 160.5t-11 178q0 133 24.5 239t88 202t167 159.5t269 101t385.5 37.5q175 0 307 -12.5 t229.5 -40.5t162.5 -68t105.5 -99.5t58.5 -129.5t21 -164q0 -41 -41 -41h-630q-38 0 -41 41q-8 68 -43.5 89.5t-139.5 21.5q-115 0 -153.5 -75t-38.5 -261q0 -202 38 -280.5t154 -78.5q122 0 171.5 28.5t52.5 121.5h-185q-41 0 -41 41v195q0 40 41 40h844z" />
<glyph unicode="H" horiz-adv-x="1914" d="M1780 1434q41 0 41 -41v-1352q0 -41 -41 -41h-631q-41 0 -41 41v463h-301v-463q0 -41 -41 -41h-631q-41 0 -41 41v1352q0 41 41 41h631q41 0 41 -41v-463h301v463q0 41 41 41h631z" />
<glyph unicode="I" horiz-adv-x="1009" d="M887 41q0 -41 -41 -41h-670q-41 0 -41 41v1352q0 41 41 41h670q41 0 41 -41v-1352z" />
<glyph unicode="J" horiz-adv-x="1214" d="M61 387q0 43 45 37q69 -10 108 -13.5t72 7.5t46.5 25t23 59t10.5 88t1 133v670q0 41 41 41h620q41 0 41 -41v-830q0 -103 -8 -179.5t-29 -144.5t-55 -113.5t-88 -81.5t-125 -54.5t-169.5 -26t-219 -2t-275.5 22.5q-41 3 -41 43z" />
<glyph unicode="K" horiz-adv-x="1947" d="M1911 49q15 -20 8 -34.5t-33 -14.5h-733q-33 0 -49 29l-201 344l-96 -74v-258q0 -41 -41 -41h-621q-41 0 -41 41v1352q0 41 41 41h621q41 0 41 -41v-265l-10 -196l71 127l238 350q19 25 49 25h709q26 0 33.5 -16t-9.5 -36l-512 -589z" />
<glyph unicode="L" horiz-adv-x="1587" d="M1505 412q41 0 41 -41v-330q0 -41 -41 -41h-1349q-41 0 -41 41v1352q0 41 41 41h661q41 0 41 -41v-981h647z" />
<glyph unicode="M" horiz-adv-x="2418" d="M2261 1434q41 0 41 -41v-1352q0 -41 -41 -41h-532q-39 0 -39 41l28 928l-110 -561q-59 -262 -90 -373q-8 -35 -45 -35h-549q-36 0 -45 33q-15 50 -38.5 144t-40.5 163l-16 68l-104 528l31 -895q0 -41 -39 -41h-539q-41 0 -41 41v1352q0 41 41 41h871q35 0 45 -37l53 -240 l80 -541l16 -186l14 186l80 541l54 240q10 37 45 37h870z" />
<glyph unicode="N" horiz-adv-x="2039" d="M1890 1434q41 0 41 -41v-1352q0 -41 -41 -41h-796q-32 0 -45 33l-293 780l30 -281l15 -491q0 -41 -39 -41h-598q-41 0 -41 41v1352q0 41 41 41h794q35 0 48 -33l297 -791l-33 295l-10 488q0 41 40 41h590z" />
<glyph unicode="O" d="M981 -35q-220 0 -386.5 38t-271.5 103t-170 163t-90.5 206.5t-25.5 245.5q0 133 25.5 239t90.5 202t170 159.5t271.5 101t386.5 37.5t385.5 -37.5t270.5 -101t170 -159.5t90.5 -202t25.5 -239q0 -137 -25.5 -245.5t-90.5 -206.5t-170 -163t-270.5 -103t-385.5 -38z M981 403q120 0 165.5 67t45.5 251q0 177 -46 246t-165 69q-120 0 -166.5 -69t-46.5 -246q0 -184 46 -251t167 -67z" />
<glyph unicode="P" horiz-adv-x="1826" d="M961 1434q165 0 286.5 -10t218 -33.5t159 -60.5t104 -94t58.5 -130t17 -172q0 -114 -26 -196t-84.5 -144t-157.5 -99.5t-239.5 -56t-335.5 -18.5h-154v-379q0 -41 -41 -41h-621q-41 0 -41 41v1352q0 41 41 41h816zM961 774q95 0 130 35.5t35 97.5q0 56 -35 86.5 t-130 30.5h-154v-250h154z" />
<glyph unicode="Q" d="M1669 137l125 -153q27 -39 -12 -58l-379 -192q-35 -18 -55 14l-158 240q-126 -8 -209 -8q-221 0 -386.5 36.5t-271 99.5t-170.5 158.5t-90.5 203t-25.5 243.5q0 133 25.5 239t90.5 202t170 159.5t271.5 101t386.5 37.5t385.5 -37.5t270.5 -101t170 -159.5t90.5 -202 t25.5 -239q0 -198 -58.5 -344.5t-195.5 -239.5zM768 721q0 -187 47 -262.5t166 -75.5q118 0 164.5 75.5t46.5 262.5q0 177 -46 246t-165 69q-120 0 -166.5 -69t-46.5 -246z" />
<glyph unicode="R" horiz-adv-x="1849" d="M1815 49q12 -22 4 -35.5t-33 -13.5h-633q-33 0 -49 29l-211 391h-107v-379q0 -41 -41 -41h-600q-41 0 -41 41v1352q0 41 41 41h822q171 0 299.5 -12t221.5 -39.5t154 -65.5t97 -95.5t50.5 -124.5t14.5 -157q0 -163 -58 -271.5t-208 -170.5zM961 774q95 0 130 35.5 t35 97.5q0 56 -35 86.5t-130 30.5h-175v-250h175z" />
<glyph unicode="S" horiz-adv-x="1875" d="M1819 434q0 -86 -15.5 -150t-53 -119.5t-101.5 -92.5t-161 -64t-230.5 -39t-311.5 -12q-176 0 -307.5 11.5t-228.5 38t-160 64t-102 94t-56 123t-20 156.5q0 41 41 41h618q37 0 43 -39q7 -61 43.5 -81.5t138.5 -20.5q94 0 127 21.5t33 66.5q0 35 -35.5 56.5t-95.5 32.5 t-138 18t-164 17t-172 25.5t-164 47.5t-138 78.5t-95.5 123.5t-35.5 177q0 91 22 159t80 127t155.5 96.5t251 58.5t363.5 21t356.5 -17.5t243 -51.5t151.5 -93.5t77.5 -131.5t25.5 -179q0 -41 -41 -41h-618q-38 0 -41 39q-8 62 -40 82.5t-124 20.5q-96 0 -128 -20t-32 -66 q0 -35 35.5 -57t95.5 -33t138 -18.5t164.5 -17.5t172.5 -25.5t164 -47.5t138 -78.5t95.5 -123.5t35.5 -177z" />
<glyph unicode="T" horiz-adv-x="1828" d="M1774 1434q41 0 41 -41v-330q0 -41 -41 -41h-480v-981q0 -41 -41 -41h-655q-41 0 -41 41v981h-479q-41 0 -41 41v330q0 41 41 41h1696z" />
<glyph unicode="U" horiz-adv-x="1996" d="M1178 680v713q0 41 41 41h641q41 0 41 -41v-713q0 -130 -17.5 -229t-58.5 -182.5t-108 -140.5t-166.5 -96.5t-233.5 -58t-309 -18.5q-211 0 -363 27.5t-255 81.5t-164 143.5t-87 203t-26 269.5v713q0 41 41 41h641q41 0 41 -41v-713q0 -88 7 -139.5t28 -82t52 -40.5 t85 -10t85 10t51 40.5t27 81.5t7 140z" />
<glyph unicode="V" horiz-adv-x="1937" d="M1890 1434q22 0 30.5 -13t2.5 -35l-448 -1353q-11 -33 -48 -33h-919q-36 0 -45 33l-449 1353q-6 22 3.5 35t31.5 13h656q39 0 45 -35l178 -781l41 -247l39 247l178 781q9 35 45 35h659z" />
<glyph unicode="W" horiz-adv-x="2428" d="M2370 1434q20 0 30.5 -12.5t7.5 -32.5l-210 -1352q-5 -37 -46 -37h-772q-40 0 -45 37l-51 323l-51 474l-51 -474l-52 -323q-5 -37 -45 -37h-772q-40 0 -45 37l-211 1352q-3 20 8 32.5t31 12.5h586q40 0 43 -39l68 -897l24 209l125 690q6 37 43 37h496q37 0 43 -37 l125 -690l24 -209l68 897q3 39 43 39h586z" />
<glyph unicode="X" horiz-adv-x="1951" d="M1489 717l428 -668q13 -22 6 -35.5t-31 -13.5h-682q-32 0 -47 31l-153 301l-49 139l-50 -139l-153 -301q-16 -31 -47 -31h-684q-24 0 -31 13.5t6 35.5l432 668l-430 667q-13 22 -6 36t31 14h684q34 0 47 -31l151 -301l50 -139l49 139l151 301q13 31 47 31h684 q24 0 31 -14t-6 -36z" />
<glyph unicode="Y" horiz-adv-x="1890" d="M1872 1434q25 0 33 -15t-4 -35l-584 -954v-389q0 -41 -41 -41h-670q-41 0 -41 41v399l-583 944q-14 20 -6.5 35t32.5 15h684q36 0 47 -31l146 -352l55 -177l55 177l146 352q11 31 47 31h684z" />
<glyph unicode="Z" horiz-adv-x="1681" d="M1616 1098l-483 -561l-146 -125h606q41 0 41 -41v-330q0 -41 -41 -41h-1487q-40 0 -40 41v246q0 25 18 49l465 541l170 145h-596q-41 0 -41 41v330q0 41 41 41h1470q41 0 41 -41v-246q0 -25 -18 -49z" />
<glyph unicode="[" horiz-adv-x="956" d="M627 74h125q41 0 41 -41v-264q0 -41 -41 -41h-609q-41 0 -41 41v1896q0 41 41 41h609q41 0 41 -41v-264q0 -41 -41 -41h-125v-1286z" />
<glyph unicode="\" horiz-adv-x="1060" d="M578 1401l471 -1378q7 -22 -2 -35t-31 -13h-473q-36 0 -47 33l-467 1378q-7 22 1.5 35t30.5 13h469q37 0 48 -33z" />
<glyph unicode="]" horiz-adv-x="1058" d="M330 74v1286h-125q-41 0 -41 41v264q0 41 41 41h608q41 0 41 -41v-1896q0 -41 -41 -41h-608q-41 0 -41 41v264q0 41 41 41h125z" />
<glyph unicode="^" horiz-adv-x="1198" d="M915 551q-37 0 -49 31l-270 610l-274 -608q-13 -31 -50 -31h-137q-23 0 -31.5 13.5t0.5 35.5l375 787q13 30 47 30h144q34 0 47 -30l375 -789q9 -20 0.5 -33.5t-31.5 -13.5z" />
<glyph unicode="_" horiz-adv-x="2381" d="M2238 -418q0 -41 -40 -41h-2014q-41 0 -41 41v330q0 41 41 41h2014q40 0 40 -41v-330z" />
<glyph unicode="a" horiz-adv-x="1753" d="M1632 1024q41 0 41 -41v-942q0 -41 -41 -41h-610q-41 0 -41 41v88q-156 -149 -436 -149q-137 0 -225.5 23t-151 82t-89 161.5t-26.5 261.5q0 161 26 264t87.5 164t150.5 84.5t228 23.5q278 0 436 -147v86q0 41 41 41h610zM840 322q59 0 110 53.5t51 142.5q0 78 -52 131 t-109 53q-52 0 -80.5 -43.5t-28.5 -150.5q0 -186 109 -186z" />
<glyph unicode="b" horiz-adv-x="1781" d="M1223 1044q139 0 228 -23.5t150 -84.5t87 -164t26 -264q0 -159 -26.5 -261.5t-88.5 -161.5t-150.5 -82t-225.5 -23q-281 0 -437 149v-88q0 -41 -41 -41h-610q-41 0 -41 41v1352q0 41 41 41h610q41 0 41 -41v-496q158 147 437 147zM928 322q108 0 108 186q0 107 -28 150.5 t-80 43.5q-57 0 -109.5 -53t-52.5 -131q0 -89 51.5 -142.5t110.5 -53.5z" />
<glyph unicode="c" horiz-adv-x="1738" d="M1008 588q-37 0 -43 41q-8 51 -28 72.5t-63 21.5q-67 0 -90.5 -53.5t-23.5 -163.5q0 -116 22.5 -160.5t91.5 -44.5q87 0 95 117q3 28 41 28h616q42 0 39 -40q-6 -92 -33 -158t-83.5 -119t-149 -84.5t-227.5 -48t-320 -16.5q-142 0 -256 13.5t-196.5 37t-143.5 60.5 t-98.5 79t-60.5 98t-31.5 112t-8.5 126q0 97 17.5 171.5t68.5 146t137.5 118t230.5 74.5t341 28q196 0 332 -14.5t228 -43.5t145.5 -80t77.5 -115.5t30 -159.5q3 -41 -39 -41z" />
<glyph unicode="d" horiz-adv-x="1787" d="M1667 1434q41 0 41 -41v-1352q0 -41 -41 -41h-610q-41 0 -41 41v88q-156 -149 -436 -149q-137 0 -225.5 23t-151 82t-89 161.5t-26.5 261.5q0 161 26 264t87.5 164t150.5 84.5t228 23.5q278 0 436 -147v496q0 41 41 41h610zM874 322q59 0 110.5 53.5t51.5 142.5 q0 78 -52.5 131t-109.5 53q-52 0 -80 -43.5t-28 -150.5q0 -186 108 -186z" />
<glyph unicode="e" horiz-adv-x="1712" d="M1661 465q0 -41 -41 -41h-885q3 -89 29.5 -123.5t99.5 -34.5q51 0 70 12t31 50q12 34 45 34h598q22 0 31.5 -11.5t5.5 -31.5q-29 -122 -105.5 -193t-244 -108.5t-449.5 -37.5q-142 0 -256 13.5t-196.5 37t-143.5 60.5t-98.5 79t-60.5 98t-31.5 112t-8.5 126 q0 97 17.5 171.5t68.5 146t137.5 118t230.5 74.5t341 28q131 0 232 -6.5t183.5 -22t141.5 -37.5t103.5 -58t72 -77t45.5 -101t26 -124.5t11 -152.5zM852 758q-57 0 -91.5 -42t-37.5 -104h258q-3 83 -37 114.5t-92 31.5z" />
<glyph unicode="f" horiz-adv-x="1193" d="M1106 1114q-85 15 -131.5 9t-62.5 -27.5t-19 -71.5h219q41 0 41 -41v-289q0 -41 -41 -41h-219v-612q0 -41 -41 -41h-610q-41 0 -41 41v612h-125q-41 0 -41 41v289q0 41 41 41h125q4 118 32 197t89.5 135t166.5 80t256 24.5t367 -24.5q41 -6 41 -45v-240q0 -43 -47 -37z " />
<glyph unicode="g" horiz-adv-x="1742" d="M1778 1024q24 -40 -19 -55l-188 -66q102 -85 102 -274q0 -76 -12 -127.5t-46.5 -94t-88.5 -66.5t-147 -40.5t-212 -22.5t-293 -6q-229 0 -413 27q-74 -24 -74 -51q0 -12 12 -18t62 -11t145 -6.5t268 -1.5q111 0 188.5 -1t157 -4t131.5 -7.5t104.5 -13.5t83 -20 t60.5 -28.5t45 -38t27.5 -49.5t16.5 -61.5t4 -75.5q0 -58 -14 -101.5t-50 -82.5t-98 -65t-156.5 -45.5t-228.5 -28.5t-311 -9q-166 0 -280.5 5.5t-202.5 20.5t-139.5 37t-84.5 59.5t-45.5 82t-15.5 111.5q0 41 40 41l621 -3q37 0 43 -40q1 -33 21.5 -43.5t82.5 -10.5 q61 0 88 16.5t27 57.5q0 30 -15 47t-58.5 27t-122.5 10q-154 0 -254 2t-185.5 9.5t-132 18.5t-80 31.5t-44.5 47t-11 65.5q0 114 113 209q-142 82 -142 248q0 91 21.5 154.5t74.5 113.5t147 79t234 43.5t340 14.5q207 0 336 -14l410 170q36 16 55 -16zM868 485q69 0 89 34.5 t20 129.5q0 73 -20.5 102t-88.5 29q-69 0 -91.5 -29.5t-22.5 -101.5q0 -93 22.5 -128.5t91.5 -35.5z" />
<glyph unicode="h" horiz-adv-x="1765" d="M1214 1044q85 0 149.5 -9.5t111.5 -25.5t79.5 -44.5t52 -60t30.5 -79.5t14.5 -94.5t3.5 -112.5v-577q0 -41 -41 -41h-610q-41 0 -41 41v506q0 66 -9.5 91.5t-35.5 25.5q-59 0 -95.5 -79.5t-36.5 -236.5v-307q0 -41 -41 -41h-610q-41 0 -41 41v1352q0 41 41 41h610 q41 0 41 -41v-545q52 87 158.5 141.5t269.5 54.5z" />
<glyph unicode="i" horiz-adv-x="903" d="M807 1174q0 -41 -41 -41h-625q-41 0 -41 41v219q0 41 41 41h625q41 0 41 -41v-219zM807 41q0 -41 -41 -41h-625q-41 0 -41 41v942q0 41 41 41h625q41 0 41 -41v-942z" />
<glyph unicode="j" horiz-adv-x="903" d="M807 1174q0 -41 -41 -41h-625q-41 0 -41 41v219q0 41 41 41h625q41 0 41 -41v-219zM807 -369q0 -41 -41 -41h-625q-41 0 -41 41v1352q0 41 41 41h625q41 0 41 -41v-1352z" />
<glyph unicode="k" horiz-adv-x="1794" d="M1745 49q15 -22 7.5 -35.5t-32.5 -13.5h-641q-31 0 -49 27l-147 219l-117 -64v-141q0 -41 -41 -41h-610q-41 0 -41 41v1352q0 41 41 41h610q41 0 41 -41v-574l-6 -147l67 114l162 213q19 25 49 25h641q26 0 33 -15.5t-8 -35.5l-340 -400z" />
<glyph unicode="l" horiz-adv-x="903" d="M807 41q0 -41 -41 -41h-625q-41 0 -41 41v1352q0 41 41 41h625q41 0 41 -41v-1352z" />
<glyph unicode="m" horiz-adv-x="2572" d="M2056 1044q82 0 144.5 -9.5t107.5 -25.5t76.5 -44.5t50.5 -60t29.5 -79.5t14 -94.5t3.5 -112.5v-577q0 -41 -41 -41h-596q-41 0 -41 41v520q0 68 -8.5 92.5t-36.5 24.5q-60 0 -92.5 -96t-32.5 -263v-278q0 -41 -41 -41h-596q-41 0 -41 41v520q0 68 -8.5 92.5t-36.5 24.5 q-60 0 -92.5 -96t-32.5 -263v-278q0 -41 -41 -41h-610q-41 0 -41 41v942q0 41 41 41h610q41 0 41 -41v-139q50 90 154.5 145t267.5 55q138 0 224.5 -26.5t128.5 -75t59 -127.5q46 101 153.5 165t282.5 64z" />
<glyph unicode="n" horiz-adv-x="1744" d="M1214 1044q85 0 149.5 -9.5t111.5 -25.5t79.5 -44.5t52 -60t30.5 -79.5t14.5 -94.5t3.5 -112.5v-577q0 -41 -41 -41h-610q-41 0 -41 41v506q0 66 -9.5 91.5t-35.5 25.5q-59 0 -95.5 -79.5t-36.5 -236.5v-307q0 -41 -41 -41h-610q-41 0 -41 41v942q0 41 41 41h610 q41 0 41 -41v-135q52 87 158.5 141.5t269.5 54.5z" />
<glyph unicode="o" horiz-adv-x="1767" d="M1706 506q0 116 -24 200t-79.5 150t-150 106.5t-233 61t-330.5 20.5q-193 0 -332 -21t-233 -61.5t-149.5 -107t-79 -150t-23.5 -198.5q0 -145 37 -240t129.5 -161.5t250.5 -95.5t400 -29q195 0 335 20t233.5 59t148.5 104.5t77.5 147t22.5 195.5zM889 709q67 0 91 -51.5 t24 -151.5q0 -105 -23 -148t-92 -43t-92 43t-23 148q0 100 24 151.5t91 51.5z" />
<glyph unicode="p" horiz-adv-x="1787" d="M1223 1044q137 0 225.5 -23t150.5 -82t88.5 -161.5t26.5 -261.5q0 -161 -26 -264t-87 -164t-150 -84.5t-228 -23.5q-279 0 -437 147v-496q0 -41 -41 -41h-610q-41 0 -41 41v1352q0 41 41 41h610q41 0 41 -41v-88q156 149 437 149zM928 322q52 0 80 43.5t28 150.5 q0 186 -108 186q-59 0 -110.5 -53.5t-51.5 -142.5q0 -78 52.5 -131t109.5 -53z" />
<glyph unicode="q" horiz-adv-x="1794" d="M1673 1024q41 0 41 -41v-1352q0 -41 -41 -41h-610q-41 0 -41 41v496q-158 -147 -436 -147q-139 0 -228 23.5t-150.5 84.5t-87.5 164t-26 264q0 159 26.5 261.5t89 161.5t151 82t225.5 23q280 0 436 -149v88q0 41 41 41h610zM881 322q57 0 109 53t52 131q0 89 -51 142.5 t-110 53.5q-109 0 -109 -186q0 -107 28.5 -150.5t80.5 -43.5z" />
<glyph unicode="r" horiz-adv-x="1265" d="M1210 1055q43 0 43 -41v-373q0 -41 -43 -41q-91 -1 -155.5 -7t-110.5 -21t-73.5 -34t-43.5 -52t-21 -69t-5 -91v-285q0 -41 -41 -41h-625q-41 0 -41 41v942q0 41 41 41h625q41 0 41 -41v-152q55 89 159 151.5t250 72.5z" />
<glyph unicode="s" horiz-adv-x="1697" d="M1642 317q0 -97 -33.5 -158t-122.5 -103t-240 -59t-390 -17q-232 0 -379.5 17.5t-235 59.5t-122 102t-39.5 156q-3 41 39 41h573q35 0 41 -41q6 -38 32.5 -50.5t92.5 -12.5q64 0 88.5 15t24.5 48t-49 49t-127 20.5t-172 8.5t-188.5 20.5t-172.5 47.5t-127 98t-49 164 q0 81 35.5 138t122 99.5t239 63t377.5 20.5q226 0 369 -16.5t228.5 -57.5t119.5 -100t39 -153q3 -41 -39 -41h-571q-35 0 -41 41q-6 37 -31 49t-86 12q-59 0 -81 -14.5t-22 -48.5q0 -36 49.5 -53t128.5 -22t175 -8t191.5 -18t174.5 -44t128.5 -93.5t49.5 -159.5z" />
<glyph unicode="t" horiz-adv-x="1206" d="M893 655v-155q-2 -36 0 -63.5t4 -49t11.5 -35.5t23 -22.5t38 -11.5t57 -1t79.5 9q47 6 47 -37v-246q0 -38 -70 -47q-185 -21 -320.5 -23t-235.5 17.5t-163 56.5t-100.5 102t-51 145.5t-11.5 194.5v166h-125q-41 0 -41 41v289q0 41 41 41h125v367q0 41 41 41h610 q41 0 41 -41v-367h219q41 0 41 -41v-289q0 -41 -41 -41h-219z" />
<glyph unicode="u" horiz-adv-x="1765" d="M1614 1024q41 0 41 -41v-942q0 -41 -41 -41h-610q-41 0 -41 41v135q-52 -87 -158.5 -141.5t-269.5 -54.5q-85 0 -149.5 9.5t-111.5 25.5t-79.5 44.5t-52 60t-30.5 79.5t-14.5 94.5t-3.5 112.5v577q0 41 41 41h610q41 0 41 -41v-506q0 -66 9.5 -91.5t35.5 -25.5 q59 0 95.5 79.5t36.5 236.5v307q0 41 41 41h610z" />
<glyph unicode="v" horiz-adv-x="1705" d="M1655 1024q23 0 32.5 -12.5t0.5 -34.5l-390 -946q-12 -31 -47 -31h-796q-35 0 -47 31l-388 946q-7 22 2 34.5t31 12.5h611q36 0 45 -35l94 -377l51 -286l49 286l94 377q9 35 45 35h613z" />
<glyph unicode="w" horiz-adv-x="2267" d="M2220 1024q22 0 32 -12.5t5 -32.5l-201 -942q-6 -37 -43 -37h-735q-39 0 -45 37l-47 231l-39 299l-39 -299l-49 -231q-6 -37 -43 -37h-733q-38 0 -47 35l-226 944q-5 20 5 32.5t32 12.5h557q40 0 43 -39l78 -623l29 195l98 430q10 37 45 37h502q39 0 45 -37l96 -430 l27 -195l78 623q3 39 43 39h532z" />
<glyph unicode="x" horiz-adv-x="1724" d="M1348 512l364 -461q17 -22 10 -36.5t-34 -14.5h-609q-33 0 -51 27l-131 198l-33 74l-35 -74l-124 -198q-16 -27 -50 -27h-616q-25 0 -32.5 15.5t9.5 35.5l371 463l-369 459q-17 20 -9.5 35.5t32.5 15.5h608q31 0 49 -27l131 -196l35 -74l33 74l131 196q18 27 51 27h611 q26 0 32.5 -14.5t-8.5 -36.5z" />
<glyph unicode="y" horiz-adv-x="1839" d="M1786 1024q23 0 31.5 -13.5t-0.5 -35.5l-668 -1354q-13 -31 -49 -31h-606q-23 0 -31.5 14t0.5 36l145 317l-577 1018q-11 22 -3.5 35.5t31.5 13.5h648q35 0 47 -35l147 -450l25 -148l26 148l152 452q9 33 45 33h637z" />
<glyph unicode="z" horiz-adv-x="1492" d="M1407 766l-344 -326l-139 -90h465q41 0 41 -41v-268q0 -41 -41 -41h-1246q-41 0 -41 41v168q0 28 23 51l344 326l135 88h-446q-41 0 -41 41v268q0 41 41 41h1231q41 0 41 -41v-168q0 -32 -23 -49z" />
<glyph unicode="{" horiz-adv-x="1153" d="M856 172q0 -57 24.5 -77.5t88.5 -20.5q41 0 41 -41v-264q0 -41 -41 -41h-293q-109 0 -173 16.5t-102 62t-50.5 112.5t-12.5 183v248q0 102 -29 131t-125 29q-41 0 -41 41v321q0 41 21 41h20q51 0 77.5 5.5t45.5 25.5t25 54t6 96v231q0 116 12.5 183.5t50.5 113t102.5 62 t172.5 16.5h293q41 0 41 -41v-264q0 -41 -21 -41h-20q-64 0 -88.5 -20.5t-24.5 -78.5v-231q0 -55 -2 -90.5t-9.5 -72t-21.5 -58t-37 -41.5t-58.5 -30t-84 -15.5t-113.5 -5.5q58 0 101 -3t77.5 -11t58 -17.5t40 -28.5t26 -38.5t15 -52t7 -63.5t1.5 -79v-246z" />
<glyph unicode="|" horiz-adv-x="727" d="M465 1655q41 0 41 -41v-2124q0 -41 -41 -41h-205q-41 0 -41 41v2124q0 41 41 41h205z" />
<glyph unicode="}" horiz-adv-x="1083" d="M227 172v246q0 65 3 103t14.5 75t32 55.5t58 34t90 20.5t130.5 5q-77 0 -130.5 6.5t-90 24t-57.5 38.5t-32.5 61t-14.5 79t-3 104v231q0 58 -24 78.5t-88 20.5h-21q-20 0 -20 41v264q0 41 41 41h293q72 0 123 -7t90 -25.5t62 -45t37.5 -70.5t19.5 -97t5 -130v-231 q0 -62 6 -96t25 -54t45.5 -25.5t77.5 -5.5h21q20 0 20 -41v-321q0 -41 -41 -41q-96 0 -125 -29t-29 -131v-248q0 -77 -5 -130t-19.5 -97t-37.5 -70.5t-62 -44.5t-90 -25t-123 -7h-293q-41 0 -41 41v264q0 41 41 41q64 0 88 20t24 78z" />
<glyph unicode="~" horiz-adv-x="1216" d="M1118 657q27 -27 6 -57q-66 -93 -144.5 -143.5t-156.5 -50.5q-66 0 -116.5 17.5t-126.5 61.5q-37 24 -58 36t-55 23t-68 11q-53 0 -95.5 -30t-88.5 -85q-26 -33 -57 -2l-72 70q-27 27 -6 57q57 83 146 138t182 55q70 0 121 -18t104 -50q54 -34 74 -45.5t49.5 -22 t58.5 -10.5q87 0 174 111q27 35 58 4z" />
<glyph unicode="&#xa1;" horiz-adv-x="964" d="M766 723h-567q-41 0 -41 41v219q0 41 41 41h567q41 0 41 -41v-219q0 -41 -41 -41zM780 -410h-596q-41 0 -41 41v369l72 575q6 39 43 39h449q40 0 43 -39l71 -575v-369q0 -41 -41 -41z" />
<glyph unicode="&#xa2;" horiz-adv-x="1738" d="M1626 446q42 0 39 -40q-6 -93 -34 -160.5t-86 -120t-153.5 -84.5t-234.5 -47l25 -361q3 -43 -39 -43h-510q-42 0 -39 43l27 357q-138 14 -239 47t-163 77.5t-99 108.5t-50 130.5t-13 152.5q0 69 9.5 126t32 114.5t64 102t102.5 82.5t151 63.5t205 37.5l-27 359 q-3 43 39 43h510q42 0 39 -43l-25 -359q146 -13 242 -42t153.5 -79.5t82.5 -116.5t30 -163q3 -41 -39 -41l-618 -2q-37 0 -43 41q-8 51 -28 72.5t-63 21.5q-67 0 -90.5 -53.5t-23.5 -163.5q0 -116 22.5 -160.5t91.5 -44.5q87 0 95 117q3 28 41 28h616z" />
<glyph unicode="&#xa3;" horiz-adv-x="1857" d="M1714 397q41 0 41 -41v-315q0 -41 -41 -41h-1571q-41 0 -41 41v315q0 41 41 41h64q33 0 57 9t36.5 21.5t19.5 33t8.5 37t1.5 39.5h-187q-41 0 -41 41v178q0 41 41 41h187v180q0 94 11 163t40 130t78.5 101t126.5 69t184.5 42t251.5 13q168 0 285 -19.5t195.5 -56.5 t123.5 -103t64 -148t22 -201q0 -41 -41 -41h-508q-41 0 -41 43q-4 106 -29 142t-71 36q-32 0 -52 -14.5t-34 -67.5t-14 -150v-118h477q41 0 41 -41v-178q0 -41 -41 -41h-477q-1 -31 -3.5 -49.5t-9.5 -42.5t-24.5 -36t-44.5 -12h874z" />
<glyph unicode="&#xa4;" horiz-adv-x="1331" d="M1069 154q-13 -14 -29 -12.5t-28 18.5l-113 143q-92 -72 -235 -72q-142 0 -234 72l-111 -143q-27 -33 -57 -6l-86 79q-30 30 -4 60l125 135q-92 122 -92 287q0 180 92 286l-121 119q-28 28 2 58l84 82q29 29 57 -5l109 -131q93 78 236 78q150 0 237 -76l111 131 q12 15 29 16t30 -13l82 -82q29 -29 0 -58l-121 -121q94 -101 94 -284q0 -80 -26 -155.5t-70 -129.5l127 -137q27 -31 -2 -60zM662 993q-95 0 -158.5 -80t-63.5 -198q0 -120 64 -197.5t162 -77.5t161.5 77.5t63.5 197.5q0 118 -64 198t-161 80h-4z" />
<glyph unicode="&#xa5;" horiz-adv-x="1720" d="M1700 1434q25 0 32.5 -15t-6.5 -35l-370 -548h188q41 0 41 -41v-158q0 -41 -41 -41h-311v-82h311q41 0 41 -41v-158q0 -41 -41 -41h-311v-233q0 -41 -41 -41h-670q-41 0 -41 41v233h-293q-41 0 -41 41v158q0 41 41 41h293v82h-293q-41 0 -41 41v158q0 41 41 41h174 l-376 548q-15 20 -8 35t32 15h596q32 0 47 -29l144 -272l59 -156l59 156l144 272q15 29 47 29h594z" />
<glyph unicode="&#xa6;" horiz-adv-x="727" d="M465 1491q41 0 41 -41v-692q0 -41 -41 -41h-205q-41 0 -41 41v692q0 41 41 41h205zM465 385q41 0 41 -41v-688q0 -41 -41 -41h-205q-41 0 -41 41v688q0 41 41 41h205z" />
<glyph unicode="&#xa7;" horiz-adv-x="1880" d="M1798 473q7 67 -42 116t-161 83t-267.5 56.5t-381.5 39.5q-150 11 -264.5 25.5t-215.5 36t-170.5 50.5t-119.5 67.5t-74 89t-24 114.5q0 86 36.5 143t132 99.5t267.5 62t436 19.5q178 0 308 -8.5t228 -29.5t160.5 -51t102 -77.5t56.5 -104t20 -135.5q0 -41 -41 -41h-619 q-37 0 -43 39q-7 51 -44 67.5t-138 16.5q-94 0 -127 -16.5t-33 -53.5q0 -34 57.5 -54t149 -29.5t202.5 -19t221.5 -29.5t202 -53.5t149 -99t57.5 -157.5q0 -94 -21 -166zM104 981q-7 -66 41.5 -115t159.5 -83.5t265.5 -57t377.5 -39.5q151 -11 267 -25t217.5 -35t172 -50 t121.5 -68t75 -90t24 -115q0 -69 -22.5 -118.5t-80 -91.5t-156 -68t-251 -40t-363.5 -14q-212 0 -359 14.5t-247 43t-157 79.5t-82 116t-29 161q0 41 41 41h618q37 0 43 -39q7 -50 44.5 -67t138.5 -17q94 0 126.5 16.5t32.5 53.5q0 27 -35.5 45t-95.5 27.5t-138 16.5 t-164 16t-172 22t-164 37t-138 58.5t-95.5 90.5t-35.5 129q0 97 20 166z" />
<glyph unicode="&#xac;" horiz-adv-x="1216" d="M934 231q-41 0 -41 41v392h-752q-41 0 -41 41v126q0 41 41 41h932q41 0 41 -41v-559q0 -41 -41 -41h-139z" />
<glyph unicode="&#xad;" horiz-adv-x="1226" d="M1083 358q0 -41 -41 -41h-858q-41 0 -41 41v328q0 41 41 41h858q41 0 41 -41v-328z" />
<glyph unicode="&#xb0;" horiz-adv-x="837" d="M416 1468q143 0 236 -98t93 -242q0 -157 -95 -248.5t-236 -91.5t-236.5 91.5t-95.5 248.5q0 153 96.5 246.5t235.5 93.5h2zM412 1333q-71 0 -115.5 -57t-44.5 -148q0 -90 46 -148t118 -58t115.5 56t43.5 144q0 92 -41 151.5t-120 59.5h-2z" />
<glyph unicode="&#xb1;" horiz-adv-x="1216" d="M717 678v-352q0 -41 -41 -41h-139q-41 0 -41 41v352h-355q-41 0 -41 41v131q0 41 41 41h355v334q0 41 41 41h139q41 0 41 -41v-334h352q41 0 41 -41v-131q0 -41 -41 -41h-352zM145 -18q-41 0 -41 41v127q0 40 41 40h926q41 0 41 -40v-127q0 -41 -41 -41h-926z" />
<glyph unicode="&#xb6;" horiz-adv-x="1300" d="M539 -102q-41 0 -41 41v630h-35q-51 0 -104 14.5t-105 48t-92.5 81.5t-65.5 121t-24 161q1 114 43 202.5t128 154.5t226 100.5t328 34.5q191 0 311 -19q35 -6 35 -45v-1484q0 -41 -41 -41h-160q-41 0 -41 41v1318h-162v-1318q0 -41 -41 -41h-159z" />
<glyph unicode="&#xb7;" horiz-adv-x="714" d="M612 358q0 -41 -41 -41h-428q-41 0 -41 41v328q0 41 41 41h428q41 0 41 -41v-328z" />
<glyph unicode="&#xbc;" horiz-adv-x="3049" d="M2105 1495q25 0 33 -14.5t-4 -34.5l-838 -1442q-16 -29 -49 -29h-315q-25 0 -33 15t4 35l842 1441q16 29 49 29h311zM1069 565q0 -26 -27 -26h-741q-25 0 -25 26v205q0 25 25 25h160v331l-156 -98q-12 -9 -21.5 -2.5t-9.5 21.5v247q0 20 19 29l209 104q15 9 30 9h351 q26 0 26 -27v-614h133q27 0 27 -25v-205zM2873 385q25 0 25 -27v-180q0 -24 -25 -24h-90v-127q0 -27 -26 -27h-387q-25 0 -25 27v127h-524q-27 0 -27 24v197q0 16 12 31l426 475q13 16 31 16h494q26 0 26 -27v-485h90zM2302 508l-113 -123h162v111l14 92z" />
<glyph unicode="&#xbd;" horiz-adv-x="3139" d="M2105 1495q25 0 33 -14.5t-4 -34.5l-838 -1442q-16 -29 -49 -29h-315q-25 0 -33 15t4 35l842 1441q16 29 49 29h311zM1069 565q0 -26 -27 -26h-741q-25 0 -25 26v205q0 25 25 25h160v331l-156 -98q-12 -9 -21.5 -2.5t-9.5 21.5v247q0 20 19 29l209 104q15 9 30 9h351 q26 0 26 -27v-614h133q27 0 27 -25v-205zM2925 256q24 0 24 -25v-204q0 -27 -24 -27h-1000q-27 0 -27 27v145q0 84 26.5 146t69.5 95.5t98.5 56t113 30.5t113 16.5t98.5 16t69.5 27t26.5 50.5q0 66 -88 66q-55 0 -71.5 -13.5t-18.5 -58.5q0 -24 -25 -24h-377q-24 0 -24 24 q2 75 16.5 124t47.5 86t93.5 56.5t147 29t215.5 9.5q206 0 324 -34t163 -98t45 -171q0 -92 -41.5 -153.5t-104 -87t-139 -41t-144 -19.5t-120.5 -19.5t-67 -43.5l160 14h420z" />
<glyph unicode="&#xbe;" horiz-adv-x="3266" d="M2322 1495q25 0 33 -14.5t-4 -34.5l-838 -1442q-16 -29 -49 -29h-315q-25 0 -33 15t4 35l842 1441q16 29 49 29h311zM1354 791q0 -48 -11.5 -84t-46 -70.5t-93 -56t-157 -35t-233.5 -13.5q-136 0 -226 10t-151 29.5t-93.5 57.5t-46 85.5t-15.5 121.5q0 24 26 24h385 q25 0 25 -24q3 -47 22 -62.5t74 -15.5q44 0 64 15.5t20 51.5q0 82 -84 82h-223q-27 0 -27 25v131q0 27 27 27h223q23 0 35 1.5t27 7.5t21.5 21t6.5 39q0 37 -22 52.5t-74 15.5q-44 0 -59 -13.5t-17 -50.5q-3 -24 -26 -24h-386q-26 0 -26 24q2 71 15.5 117t45.5 82t91.5 55 t145.5 28t216 9q138 0 236.5 -12t157 -32.5t92 -53.5t44.5 -67.5t11 -82.5q0 -92 -45 -162q-19 -24 -76 -53q53 -24 76 -47q51 -59 51 -153zM3090 385q25 0 25 -27v-180q0 -24 -25 -24h-90v-127q0 -27 -26 -27h-387q-25 0 -25 27v127h-524q-27 0 -27 24v197q0 16 12 31 l426 475q13 16 31 16h494q26 0 26 -27v-485h90zM2519 508l-113 -123h162v111l15 92z" />
<glyph unicode="&#xbf;" horiz-adv-x="1953" d="M733 983q0 41 41 41h584q41 0 41 -41v-205q0 -41 -41 -41h-584q-41 0 -41 41v205zM1769 104q41 0 41 -41q-4 -117 -31.5 -198.5t-85 -142.5t-155 -96t-233 -51.5t-326.5 -16.5q-128 0 -234 8.5t-186 22.5t-143.5 37.5t-107 49t-74.5 61t-49 69t-27.5 78.5t-12.5 83.5 t-2 89.5q1 69 10.5 127t40.5 123t81 109.5t138.5 74t207.5 29.5q63 0 85 18t25 76q3 41 43 41h584q41 0 41 -41v-86q0 -182 -85 -250.5t-284 -68.5q-64 0 -101.5 -6.5t-56 -25t-23.5 -40.5t-5 -63q0 -80 12.5 -117t39.5 -49t87 -12q41 0 67.5 10t40 33.5t18 50.5t5.5 71 q0 41 41 41z" />
<glyph unicode="&#xc0;" horiz-adv-x="1972" d="M750 1524l-254 254q-20 22 -13 36.5t35 14.5h492q32 0 51 -25l203 -252q15 -20 7.5 -35.5t-32.5 -15.5h-440q-29 0 -49 23zM1950 47q6 -22 -3.5 -34.5t-31.5 -12.5h-658q-36 0 -45 35l-41 176h-380l-41 -178q-9 -35 -45 -35l-658 2q-22 0 -31.5 12.5t-3.5 34.5l457 1354 q9 33 47 33h930q38 0 47 -33zM870 561h222l-93 402l-18 133l-18 -133z" />
<glyph unicode="&#xc1;" horiz-adv-x="1972" d="M770 1501q-25 0 -32.5 15.5t7.5 35.5l203 252q19 25 51 25h492q28 0 35 -14.5t-13 -36.5l-253 -254q-20 -23 -50 -23h-440zM1950 47q6 -22 -3.5 -34.5t-31.5 -12.5h-658q-36 0 -45 35l-41 176h-380l-41 -178q-9 -35 -45 -35l-658 2q-22 0 -31.5 12.5t-3.5 34.5l457 1354 q9 33 47 33h930q38 0 47 -33zM870 561h222l-93 402l-18 133l-18 -133z" />
<glyph unicode="&#xc2;" horiz-adv-x="1972" d="M522 1501q-25 0 -32 13.5t8 35.5l219 295q17 25 49 25h442q32 0 49 -25l220 -295q15 -22 7.5 -35.5t-32.5 -13.5h-322q-28 0 -51 23l-92 98l-92 -98q-23 -23 -51 -23h-322zM1950 47q6 -22 -3.5 -34.5t-31.5 -12.5h-658q-36 0 -45 35l-41 176h-380l-41 -178 q-9 -35 -45 -35l-658 2q-22 0 -31.5 12.5t-3.5 34.5l457 1354q9 33 47 33h930q38 0 47 -33zM870 561h222l-93 402l-18 133l-18 -133z" />
<glyph unicode="&#xc3;" horiz-adv-x="1972" d="M569 1548q-45 -28 -45 21v170q0 28 17 51q63 63 176 63q82 0 174 -27.5t182.5 -55t169.5 -27.5q88 0 158 45q45 28 45 -19v-172q0 -30 -19 -49q-66 -63 -176 -63q-81 0 -173 27t-183 54t-170 27q-91 0 -156 -45zM1950 47q6 -22 -3.5 -34.5t-31.5 -12.5h-658q-36 0 -45 35 l-41 176h-380l-41 -178q-9 -35 -45 -35l-658 2q-22 0 -31.5 12.5t-3.5 34.5l457 1354q9 33 47 33h930q38 0 47 -33zM870 561h222l-93 402l-18 133l-18 -133z" />
<glyph unicode="&#xc4;" horiz-adv-x="1972" d="M508 1501q-41 0 -41 41v205q0 41 41 41h381q41 0 41 -41v-205q0 -41 -41 -41h-381zM1083 1501q-41 0 -41 41v205q0 41 41 41h381q41 0 41 -41v-205q0 -41 -41 -41h-381zM1950 47q6 -22 -3.5 -34.5t-31.5 -12.5h-658q-36 0 -45 35l-41 176h-380l-41 -178q-9 -35 -45 -35 l-658 2q-22 0 -31.5 12.5t-3.5 34.5l457 1354q9 33 47 33h930q38 0 47 -33zM870 561h222l-93 402l-18 133l-18 -133z" />
<glyph unicode="&#xc5;" horiz-adv-x="1972" d="M1950 47q6 -22 -3.5 -34.5t-31.5 -12.5h-658q-36 0 -45 35l-41 176h-380l-41 -178q-9 -35 -45 -35l-658 2q-22 0 -31.5 12.5t-3.5 34.5l457 1354q9 33 47 33h254q-106 95 -106 237q0 132 95 227t228 95q132 0 227 -95t95 -227q0 -139 -105 -237h242q38 0 47 -33z M987 1743q-29 0 -50.5 -21.5t-21.5 -50.5t21.5 -50.5t50.5 -21.5t50.5 21.5t21.5 50.5t-21.5 50.5t-50.5 21.5zM870 561h222l-93 402l-18 133l-18 -133z" />
<glyph unicode="&#xc6;" horiz-adv-x="2578" d="M748 33q-9 -35 -46 -35l-655 2q-22 0 -31.5 12.5t-3.5 34.5l457 1354q9 33 47 33h1919q41 0 41 -41v-301q0 -41 -41 -41h-821l37 -160h784q41 0 41 -41v-266q0 -41 -41 -41h-702l41 -160h661q41 0 41 -41v-301q0 -41 -41 -41h-1178q-40 0 -40 6v4l-46 201h-380zM870 561 h222l-93 402l-18 133l-18 -133z" />
<glyph unicode="&#xc7;" d="M1862 614q42 0 39 -41q-7 -140 -41.5 -239t-108.5 -175.5t-197.5 -120.5t-304.5 -61l-137 -280q-16 -31 -47 -31h-500q-25 0 -32.5 14.5t6.5 34.5l188 267q-152 20 -266 67.5t-186.5 113t-117 156t-62 187t-17.5 215.5q0 94 11.5 173.5t40 156.5t73.5 137.5t115.5 112.5 t163.5 86.5t219 53.5t280 19q220 0 374 -20t258.5 -60t165.5 -110t88.5 -158t33.5 -217q3 -41 -39 -41l-637 2q-37 0 -43 41q-10 89 -49 119.5t-132 30.5q-116 0 -154 -70.5t-38 -255.5q0 -197 37 -262.5t155 -65.5q103 0 139.5 35t45.5 145q3 41 41 41h635z" />
<glyph unicode="&#xc8;" horiz-adv-x="1744" d="M639 1546l-254 254q-20 22 -12.5 36.5t35.5 14.5h491q32 0 51 -24l203 -252q15 -20 7.5 -35.5t-32.5 -15.5h-440q-30 0 -49 22zM1602 1051h-816v-160h816q40 0 40 -41v-266q0 -41 -40 -41h-816v-160h816q40 0 40 -41v-301q0 -41 -40 -41h-1446q-41 0 -41 41v1352 q0 41 41 41h1446q40 0 40 -41v-301q0 -41 -40 -41z" />
<glyph unicode="&#xc9;" horiz-adv-x="1744" d="M659 1524q-25 0 -32 15.5t8 35.5l203 252q19 24 51 24h491q28 0 35.5 -14.5t-12.5 -36.5l-254 -254q-19 -22 -49 -22h-441zM1602 1051h-816v-160h816q40 0 40 -41v-266q0 -41 -40 -41h-816v-160h816q40 0 40 -41v-301q0 -41 -40 -41h-1446q-41 0 -41 41v1352q0 41 41 41 h1446q40 0 40 -41v-301q0 -41 -40 -41z" />
<glyph unicode="&#xca;" horiz-adv-x="1744" d="M412 1524q-25 0 -32.5 13.5t7.5 35.5l219 295q16 24 49 24h443q33 0 49 -24l219 -295q15 -22 7.5 -35.5t-32.5 -13.5h-321q-29 0 -51 22l-92 99l-93 -99q-22 -22 -51 -22h-321zM1602 1051h-816v-160h816q40 0 40 -41v-266q0 -41 -40 -41h-816v-160h816q40 0 40 -41v-301 q0 -41 -40 -41h-1446q-41 0 -41 41v1352q0 41 41 41h1446q40 0 40 -41v-301q0 -41 -40 -41z" />
<glyph unicode="&#xcb;" horiz-adv-x="1744" d="M397 1524q-41 0 -41 41v204q0 41 41 41h381q41 0 41 -41v-204q0 -41 -41 -41h-381zM973 1524q-41 0 -41 41v204q0 41 41 41h381q41 0 41 -41v-204q0 -41 -41 -41h-381zM1602 1051h-816v-160h816q40 0 40 -41v-266q0 -41 -40 -41h-816v-160h816q40 0 40 -41v-301 q0 -41 -40 -41h-1446q-41 0 -41 41v1352q0 41 41 41h1446q40 0 40 -41v-301q0 -41 -40 -41z" />
<glyph unicode="&#xcc;" horiz-adv-x="1009" d="M784 1561q15 -20 8 -36t-32 -16h-441q-29 0 -49 23l-254 254q-20 22 -12.5 36.5t35.5 14.5h491q33 0 52 -25zM887 41q0 -41 -41 -41h-670q-41 0 -41 41v1352q0 41 41 41h670q41 0 41 -41v-1352z" />
<glyph unicode="&#xcd;" horiz-adv-x="1009" d="M291 1509q-25 0 -32.5 16t7.5 36l203 251q19 25 51 25h492q28 0 35 -14.5t-13 -36.5l-254 -254q-20 -23 -49 -23h-440zM887 41q0 -41 -41 -41h-670q-41 0 -41 41v1352q0 41 41 41h670q41 0 41 -41v-1352z" />
<glyph unicode="&#xce;" horiz-adv-x="1009" d="M41 1509q-25 0 -32.5 14t7.5 36l220 294q17 25 49 25h442q32 0 49 -25l219 -294q15 -22 8 -36t-32 -14h-322q-28 0 -51 23l-92 98l-92 -98q-23 -23 -52 -23h-321zM887 41q0 -41 -41 -41h-670q-41 0 -41 41v1352q0 41 41 41h670q41 0 41 -41v-1352z" />
<glyph unicode="&#xcf;" horiz-adv-x="1009" d="M449 1550q0 -41 -41 -41h-381q-41 0 -41 41v205q0 41 41 41h381q41 0 41 -41v-205zM1024 1550q0 -41 -41 -41h-381q-41 0 -41 41v205q0 41 41 41h381q41 0 41 -41v-205zM887 41q0 -41 -41 -41h-670q-41 0 -41 41v1352q0 41 41 41h670q41 0 41 -41v-1352z" />
<glyph unicode="&#xd0;" horiz-adv-x="1916" d="M940 1434q206 0 358.5 -27t259.5 -80.5t172.5 -140t95 -198.5t29.5 -263q0 -182 -47 -313t-153 -225.5t-283.5 -140.5t-431.5 -46h-774q-41 0 -41 41v506h-78q-41 0 -41 41v258q0 41 41 41h78v506q0 41 41 41h774zM954 408q220 0 220 317q0 149 -51 225t-169 76h-147 v-139h158q41 0 41 -41v-258q0 -41 -41 -41h-158v-139h147z" />
<glyph unicode="&#xd1;" horiz-adv-x="2039" d="M604 1556q-45 -28 -45 21v170q0 30 16 51q64 64 177 64q66 0 138.5 -17.5t127 -38t126 -38t134.5 -17.5q88 0 158 45q45 28 45 -18v-172q0 -31 -19 -50q-66 -63 -176 -63q-65 0 -137.5 17t-127 37.5t-126.5 37.5t-135 17q-89 0 -156 -46zM1890 1434q41 0 41 -41v-1352 q0 -41 -41 -41h-796q-32 0 -45 33l-293 780l30 -281l15 -491q0 -41 -39 -41h-598q-41 0 -41 41v1352q0 41 41 41h794q35 0 48 -33l297 -791l-33 295l-10 488q0 41 40 41h590z" />
<glyph unicode="&#xd2;" d="M1257 1567q15 -20 8 -35.5t-32 -15.5h-440q-31 0 -50 22l-254 254q-20 22 -12.5 36.5t35.5 14.5h492q32 0 51 -24zM981 -35q-220 0 -386.5 38t-271.5 103t-170 163t-90.5 206.5t-25.5 245.5q0 133 25.5 239t90.5 202t170 159.5t271.5 101t386.5 37.5t385.5 -37.5 t270.5 -101t170 -159.5t90.5 -202t25.5 -239q0 -137 -25.5 -245.5t-90.5 -206.5t-170 -163t-270.5 -103t-385.5 -38zM981 403q120 0 165.5 67t45.5 251q0 177 -46 246t-165 69q-120 0 -166.5 -69t-46.5 -246q0 -184 46 -251t167 -67z" />
<glyph unicode="&#xd3;" d="M764 1516q-25 0 -32.5 15.5t7.5 35.5l203 252q19 24 51 24h492q28 0 35 -14.5t-13 -36.5l-254 -254q-19 -22 -49 -22h-440zM981 -35q-220 0 -386.5 38t-271.5 103t-170 163t-90.5 206.5t-25.5 245.5q0 133 25.5 239t90.5 202t170 159.5t271.5 101t386.5 37.5t385.5 -37.5 t270.5 -101t170 -159.5t90.5 -202t25.5 -239q0 -137 -25.5 -245.5t-90.5 -206.5t-170 -163t-270.5 -103t-385.5 -38zM981 403q120 0 165.5 67t45.5 251q0 177 -46 246t-165 69q-120 0 -166.5 -69t-46.5 -246q0 -184 46 -251t167 -67z" />
<glyph unicode="&#xd4;" d="M514 1516q-25 0 -32.5 13.5t7.5 35.5l220 295q16 24 49 24h442q33 0 49 -24l219 -295q15 -22 8 -35.5t-32 -13.5h-322q-29 0 -51 22l-92 98l-92 -98q-22 -22 -51 -22h-322zM981 -35q-220 0 -386.5 38t-271.5 103t-170 163t-90.5 206.5t-25.5 245.5q0 133 25.5 239 t90.5 202t170 159.5t271.5 101t386.5 37.5t385.5 -37.5t270.5 -101t170 -159.5t90.5 -202t25.5 -239q0 -137 -25.5 -245.5t-90.5 -206.5t-170 -163t-270.5 -103t-385.5 -38zM981 403q120 0 165.5 67t45.5 251q0 177 -46 246t-165 69q-120 0 -166.5 -69t-46.5 -246 q0 -184 46 -251t167 -67z" />
<glyph unicode="&#xd5;" d="M1395 1802q45 28 45 -18v-172q0 -30 -19 -49q-67 -64 -176 -64q-65 0 -137.5 17t-127 37.5t-126.5 37.5t-135 17q-91 0 -156 -45q-45 -28 -45 20v170q0 28 17 51q64 64 176 64q66 0 138.5 -17.5t127 -38t126 -38t134.5 -17.5q88 0 158 45zM981 -35q-220 0 -386.5 38 t-271.5 103t-170 163t-90.5 206.5t-25.5 245.5q0 133 25.5 239t90.5 202t170 159.5t271.5 101t386.5 37.5t385.5 -37.5t270.5 -101t170 -159.5t90.5 -202t25.5 -239q0 -137 -25.5 -245.5t-90.5 -206.5t-170 -163t-270.5 -103t-385.5 -38zM981 403q120 0 165.5 67t45.5 251 q0 177 -46 246t-165 69q-120 0 -166.5 -69t-46.5 -246q0 -184 46 -251t167 -67z" />
<glyph unicode="&#xd6;" d="M922 1556q0 -40 -41 -40h-381q-41 0 -41 40v205q0 41 41 41h381q41 0 41 -41v-205zM1497 1556q0 -40 -41 -40h-381q-41 0 -41 40v205q0 41 41 41h381q41 0 41 -41v-205zM981 -35q-220 0 -386.5 38t-271.5 103t-170 163t-90.5 206.5t-25.5 245.5q0 133 25.5 239t90.5 202 t170 159.5t271.5 101t386.5 37.5t385.5 -37.5t270.5 -101t170 -159.5t90.5 -202t25.5 -239q0 -137 -25.5 -245.5t-90.5 -206.5t-170 -163t-270.5 -103t-385.5 -38zM981 403q120 0 165.5 67t45.5 251q0 177 -46 246t-165 69q-120 0 -166.5 -69t-46.5 -246q0 -184 46 -251 t167 -67z" />
<glyph unicode="&#xd7;" horiz-adv-x="1216" d="M981 59q-27 -27 -57 2l-322 342l-319 -342q-30 -30 -58 -2l-98 95q-27 27 0 57l330 348l-326 346q-27 31 0 58l98 96q30 30 58 -2l323 -340l316 342q30 31 59 2l96 -92q27 -27 0 -58l-329 -350l327 -350q27 -30 0 -57z" />
<glyph unicode="&#xd8;" d="M2005 1411q22 10 35.5 2t13.5 -31v-342q0 -34 -29 -49l-122 -59q20 -94 20 -211q0 -137 -25.5 -245.5t-90.5 -206.5t-170 -163t-270.5 -103t-385.5 -38q-507 0 -737 201l-293 -146q-20 -11 -33.5 -2.5t-13.5 31.5v342q0 35 28 49l125 62q-20 97 -20 219q0 133 25.5 239 t90.5 202t170 159.5t271.5 101t386.5 37.5q505 0 731 -194zM981 403q120 0 165.5 67t45.5 251q0 177 -46 246t-165 69q-120 0 -166.5 -69t-46.5 -246q0 -184 46 -251t167 -67z" />
<glyph unicode="&#xd9;" horiz-adv-x="1996" d="M1276 1561q15 -20 7.5 -36t-32.5 -16h-440q-29 0 -49 23l-254 254q-20 22 -13 36.5t35 14.5h492q32 0 51 -25zM1178 680v713q0 41 41 41h641q41 0 41 -41v-713q0 -130 -17.5 -229t-58.5 -182.5t-108 -140.5t-166.5 -96.5t-233.5 -58t-309 -18.5q-211 0 -363 27.5 t-255 81.5t-164 143.5t-87 203t-26 269.5v713q0 41 41 41h641q41 0 41 -41v-713q0 -88 7 -139.5t28 -82t52 -40.5t85 -10t85 10t51 40.5t27 81.5t7 140z" />
<glyph unicode="&#xda;" horiz-adv-x="1996" d="M784 1509q-25 0 -32 16t8 36l203 251q19 25 51 25h491q28 0 35.5 -14.5t-12.5 -36.5l-254 -254q-20 -23 -49 -23h-441zM1178 680v713q0 41 41 41h641q41 0 41 -41v-713q0 -130 -17.5 -229t-58.5 -182.5t-108 -140.5t-166.5 -96.5t-233.5 -58t-309 -18.5q-211 0 -363 27.5 t-255 81.5t-164 143.5t-87 203t-26 269.5v713q0 41 41 41h641q41 0 41 -41v-713q0 -88 7 -139.5t28 -82t52 -40.5t85 -10t85 10t51 40.5t27 81.5t7 140z" />
<glyph unicode="&#xdb;" horiz-adv-x="1996" d="M535 1509q-25 0 -32.5 14t7.5 36l219 294q17 25 49 25h443q32 0 49 -25l219 -294q15 -22 7.5 -36t-32.5 -14h-321q-28 0 -51 23l-93 98l-92 -98q-23 -23 -51 -23h-321zM1178 680v713q0 41 41 41h641q41 0 41 -41v-713q0 -130 -17.5 -229t-58.5 -182.5t-108 -140.5 t-166.5 -96.5t-233.5 -58t-309 -18.5q-211 0 -363 27.5t-255 81.5t-164 143.5t-87 203t-26 269.5v713q0 41 41 41h641q41 0 41 -41v-713q0 -88 7 -139.5t28 -82t52 -40.5t85 -10t85 10t51 40.5t27 81.5t7 140z" />
<glyph unicode="&#xdc;" horiz-adv-x="1996" d="M942 1550q0 -41 -41 -41h-381q-41 0 -41 41v205q0 41 41 41h381q41 0 41 -41v-205zM1518 1550q0 -41 -41 -41h-381q-41 0 -41 41v205q0 41 41 41h381q41 0 41 -41v-205zM1178 680v713q0 41 41 41h641q41 0 41 -41v-713q0 -130 -17.5 -229t-58.5 -182.5t-108 -140.5 t-166.5 -96.5t-233.5 -58t-309 -18.5q-211 0 -363 27.5t-255 81.5t-164 143.5t-87 203t-26 269.5v713q0 41 41 41h641q41 0 41 -41v-713q0 -88 7 -139.5t28 -82t52 -40.5t85 -10t85 10t51 40.5t27 81.5t7 140z" />
<glyph unicode="&#xdd;" horiz-adv-x="1890" d="M729 1509q-25 0 -32 16t8 36l202 251q19 25 51 25h492q28 0 35.5 -14.5t-12.5 -36.5l-254 -254q-20 -23 -50 -23h-440zM1872 1434q25 0 33 -15t-4 -35l-584 -954v-389q0 -41 -41 -41h-670q-41 0 -41 41v399l-583 944q-14 20 -6.5 35t32.5 15h684q36 0 47 -31l146 -352 l55 -177l55 177l146 352q11 31 47 31h684z" />
<glyph unicode="&#xde;" horiz-adv-x="1800" d="M961 1243q165 0 286.5 -10t218 -33.5t159 -60.5t104 -94t58.5 -130t17 -172q0 -114 -26 -196t-84.5 -144t-157.5 -99.5t-239.5 -56t-335.5 -18.5h-154v-188q0 -41 -41 -41h-621q-41 0 -41 41v1352q0 41 41 41h621q41 0 41 -41v-150h154zM961 612q95 0 130 34.5t35 96.5 q0 56 -35 86.5t-130 30.5h-154v-248h154z" />
<glyph unicode="&#xdf;" horiz-adv-x="1783" d="M1477 760q148 -47 209 -126t61 -241q0 -76 -17.5 -134t-66.5 -112.5t-130 -89.5t-214 -56t-313 -21q-135 0 -162 2q-39 3 -39 43v270q0 43 45 37q32 -4 57 -4q87 0 122.5 26.5t35.5 96.5q0 98 -42 133t-175 39q-43 0 -43 41v204q0 41 43 41q142 2 184.5 18.5t42.5 76.5 q0 59 -36.5 80.5t-131.5 21.5q-102 0 -139 -24t-37 -85v-956q0 -41 -41 -41h-590q-41 0 -41 41v1018q0 54 8.5 96.5t32 85t63.5 73.5t104.5 58.5t152.5 44.5t210.5 27t276.5 10q151 0 271 -10t206.5 -27t149.5 -44.5t101.5 -58.5t61.5 -73.5t31.5 -85t8.5 -96.5 q0 -116 -62.5 -183.5t-197.5 -115.5z" />
<glyph unicode="&#xe0;" horiz-adv-x="1753" d="M641 1169l-254 254q-20 22 -12.5 37t35.5 15h491q32 0 51 -25l203 -252q15 -20 7.5 -35.5t-32.5 -15.5h-440q-30 0 -49 22zM1632 1024q41 0 41 -41v-942q0 -41 -41 -41h-610q-41 0 -41 41v88q-156 -149 -436 -149q-137 0 -225.5 23t-151 82t-89 161.5t-26.5 261.5 q0 161 26 264t87.5 164t150.5 84.5t228 23.5q278 0 436 -147v86q0 41 41 41h610zM840 322q59 0 110 53.5t51 142.5q0 78 -52 131t-109 53q-52 0 -80.5 -43.5t-28.5 -150.5q0 -186 109 -186z" />
<glyph unicode="&#xe1;" horiz-adv-x="1753" d="M662 1147q-25 0 -32.5 15.5t7.5 35.5l203 252q19 25 51 25h491q28 0 35.5 -15t-12.5 -37l-254 -254q-19 -22 -49 -22h-440zM1632 1024q41 0 41 -41v-942q0 -41 -41 -41h-610q-41 0 -41 41v88q-156 -149 -436 -149q-137 0 -225.5 23t-151 82t-89 161.5t-26.5 261.5 q0 161 26 264t87.5 164t150.5 84.5t228 23.5q278 0 436 -147v86q0 41 41 41h610zM840 322q59 0 110 53.5t51 142.5q0 78 -52 131t-109 53q-52 0 -80.5 -43.5t-28.5 -150.5q0 -186 109 -186z" />
<glyph unicode="&#xe2;" horiz-adv-x="1753" d="M412 1147q-25 0 -32.5 13.5t7.5 35.5l219 295q17 25 49 25h443q32 0 49 -25l219 -295q15 -22 7.5 -35.5t-32.5 -13.5h-321q-29 0 -51 22l-92 99l-93 -99q-22 -22 -51 -22h-321zM1632 1024q41 0 41 -41v-942q0 -41 -41 -41h-610q-41 0 -41 41v88q-156 -149 -436 -149 q-137 0 -225.5 23t-151 82t-89 161.5t-26.5 261.5q0 161 26 264t87.5 164t150.5 84.5t228 23.5q278 0 436 -147v86q0 41 41 41h610zM840 322q59 0 110 53.5t51 142.5q0 78 -52 131t-109 53q-52 0 -80.5 -43.5t-28.5 -150.5q0 -186 109 -186z" />
<glyph unicode="&#xe3;" horiz-adv-x="1753" d="M461 1194q-45 -28 -45 20v170q0 31 16 52q63 63 176 63q82 0 174.5 -27.5t183 -55t169.5 -27.5q87 0 157 45q45 28 45 -19v-172q0 -31 -18 -49q-67 -64 -176 -64q-65 0 -138 17t-127.5 37.5t-126.5 37.5t-135 17q-90 0 -155 -45zM1632 1024q41 0 41 -41v-942 q0 -41 -41 -41h-610q-41 0 -41 41v88q-156 -149 -436 -149q-137 0 -225.5 23t-151 82t-89 161.5t-26.5 261.5q0 161 26 264t87.5 164t150.5 84.5t228 23.5q278 0 436 -147v86q0 41 41 41h610zM840 322q59 0 110 53.5t51 142.5q0 78 -52 131t-109 53q-52 0 -80.5 -43.5 t-28.5 -150.5q0 -186 109 -186z" />
<glyph unicode="&#xe4;" horiz-adv-x="1753" d="M397 1147q-41 0 -41 41v205q0 41 41 41h381q41 0 41 -41v-205q0 -41 -41 -41h-381zM973 1147q-41 0 -41 41v205q0 41 41 41h381q41 0 41 -41v-205q0 -41 -41 -41h-381zM1632 1024q41 0 41 -41v-942q0 -41 -41 -41h-610q-41 0 -41 41v88q-156 -149 -436 -149 q-137 0 -225.5 23t-151 82t-89 161.5t-26.5 261.5q0 161 26 264t87.5 164t150.5 84.5t228 23.5q278 0 436 -147v86q0 41 41 41h610zM840 322q59 0 110 53.5t51 142.5q0 78 -52 131t-109 53q-52 0 -80.5 -43.5t-28.5 -150.5q0 -186 109 -186z" />
<glyph unicode="&#xe5;" horiz-adv-x="1753" d="M1632 1024q41 0 41 -41v-942q0 -41 -41 -41h-610q-41 0 -41 41v88q-156 -149 -436 -149q-137 0 -225.5 23t-151 82t-89 161.5t-26.5 261.5q0 161 26 264t87.5 164t150.5 84.5t228 23.5q114 0 213 -26q-91 36 -148 117t-57 182q0 132 95.5 226.5t228.5 94.5 q132 0 226.5 -94.5t94.5 -226.5q0 -133 -94.5 -227.5t-226.5 -94.5q-39 0 -76 9q106 -37 180 -107v86q0 41 41 41h610zM877 1389q-29 0 -50.5 -21.5t-21.5 -50.5t21.5 -50.5t50.5 -21.5t50 21.5t21 50.5t-21 50.5t-50 21.5zM840 322q59 0 110 53.5t51 142.5q0 78 -52 131 t-109 53q-52 0 -80.5 -43.5t-28.5 -150.5q0 -186 109 -186z" />
<glyph unicode="&#xe6;" horiz-adv-x="2672" d="M2621 465q0 -41 -41 -41h-884q3 -89 29.5 -123.5t99.5 -34.5q51 0 69.5 12t30.5 50q12 34 45 34h598q22 0 31.5 -11.5t5.5 -31.5q-29 -122 -105.5 -193t-244 -108.5t-449.5 -37.5q-415 0 -600 112q-76 -57 -231.5 -90t-378.5 -33q-205 0 -323.5 36t-169 110.5 t-50.5 201.5q0 72 33 125.5t88.5 84t127 50t151 27t159.5 11.5t151.5 6.5t127 8.5t88.5 21.5t33 42.5q0 34 -23 49t-86 15q-65 0 -92 -12.5t-33 -49.5q-6 -41 -41 -41h-598q-41 0 -41 19q2 103 34.5 168t118 113t238.5 68.5t394 20.5q292 0 417 -77q184 77 506 77 q131 0 232 -6.5t183.5 -22t141.5 -37.5t103.5 -58t72 -77t45.5 -101t26 -124.5t11 -152.5zM1812 758q-57 0 -91.5 -42t-37.5 -104h259q-3 82 -37.5 114t-92.5 32zM858 272q87 0 120.5 20.5t33.5 84.5v41q-74 -8 -110.5 -12.5t-82 -14t-64 -23t-18.5 -32.5q0 -33 25.5 -48.5 t95.5 -15.5z" />
<glyph unicode="&#xe7;" horiz-adv-x="1738" d="M1626 446q42 0 39 -40q-6 -94 -34 -161.5t-88 -120t-157.5 -85t-240.5 -47.5l-144 -295q-15 -31 -47 -31h-499q-25 0 -33 14.5t6 34.5l197 275q-139 14 -241 47t-164.5 77.5t-99.5 108.5t-50 130.5t-13 152.5q0 97 17.5 171.5t68.5 146t137.5 118t230.5 74.5t341 28 q196 0 332 -14.5t228 -43.5t145.5 -80t77.5 -115.5t30 -159.5q3 -41 -39 -41l-618 -2q-37 0 -43 41q-8 51 -28 72.5t-63 21.5q-67 0 -90.5 -53.5t-23.5 -163.5q0 -116 22.5 -160.5t91.5 -44.5q87 0 95 117q3 28 41 28h616z" />
<glyph unicode="&#xe8;" horiz-adv-x="1712" d="M616 1169l-254 254q-20 22 -12.5 37t35.5 15h492q32 0 51 -25l202 -252q15 -20 8 -35.5t-32 -15.5h-440q-31 0 -50 22zM1661 465q0 -41 -41 -41h-885q3 -89 29.5 -123.5t99.5 -34.5q51 0 70 12t31 50q12 34 45 34h598q22 0 31.5 -11.5t5.5 -31.5q-29 -122 -105.5 -193 t-244 -108.5t-449.5 -37.5q-142 0 -256 13.5t-196.5 37t-143.5 60.5t-98.5 79t-60.5 98t-31.5 112t-8.5 126q0 97 17.5 171.5t68.5 146t137.5 118t230.5 74.5t341 28q131 0 232 -6.5t183.5 -22t141.5 -37.5t103.5 -58t72 -77t45.5 -101t26 -124.5t11 -152.5zM852 758 q-57 0 -91.5 -42t-37.5 -104h258q-3 83 -37 114.5t-92 31.5z" />
<glyph unicode="&#xe9;" horiz-adv-x="1712" d="M637 1147q-25 0 -32.5 15.5t7.5 35.5l203 252q19 25 51 25h492q28 0 35 -15t-13 -37l-254 -254q-19 -22 -49 -22h-440zM1661 465q0 -41 -41 -41h-885q3 -89 29.5 -123.5t99.5 -34.5q51 0 70 12t31 50q12 34 45 34h598q22 0 31.5 -11.5t5.5 -31.5q-29 -122 -105.5 -193 t-244 -108.5t-449.5 -37.5q-142 0 -256 13.5t-196.5 37t-143.5 60.5t-98.5 79t-60.5 98t-31.5 112t-8.5 126q0 97 17.5 171.5t68.5 146t137.5 118t230.5 74.5t341 28q131 0 232 -6.5t183.5 -22t141.5 -37.5t103.5 -58t72 -77t45.5 -101t26 -124.5t11 -152.5zM852 758 q-57 0 -91.5 -42t-37.5 -104h258q-3 83 -37 114.5t-92 31.5z" />
<glyph unicode="&#xea;" horiz-adv-x="1712" d="M389 1147q-25 0 -32 13.5t8 35.5l219 295q17 25 49 25h442q32 0 49 -25l219 -295q15 -22 8 -35.5t-32 -13.5h-322q-29 0 -51 22l-92 99l-92 -99q-22 -22 -51 -22h-322zM1661 465q0 -41 -41 -41h-885q3 -89 29.5 -123.5t99.5 -34.5q51 0 70 12t31 50q12 34 45 34h598 q22 0 31.5 -11.5t5.5 -31.5q-29 -122 -105.5 -193t-244 -108.5t-449.5 -37.5q-142 0 -256 13.5t-196.5 37t-143.5 60.5t-98.5 79t-60.5 98t-31.5 112t-8.5 126q0 97 17.5 171.5t68.5 146t137.5 118t230.5 74.5t341 28q131 0 232 -6.5t183.5 -22t141.5 -37.5t103.5 -58 t72 -77t45.5 -101t26 -124.5t11 -152.5zM852 758q-57 0 -91.5 -42t-37.5 -104h258q-3 83 -37 114.5t-92 31.5z" />
<glyph unicode="&#xeb;" horiz-adv-x="1712" d="M375 1147q-41 0 -41 41v205q0 41 41 41h381q41 0 41 -41v-205q0 -41 -41 -41h-381zM950 1147q-41 0 -41 41v205q0 41 41 41h381q41 0 41 -41v-205q0 -41 -41 -41h-381zM1661 465q0 -41 -41 -41h-885q3 -89 29.5 -123.5t99.5 -34.5q51 0 70 12t31 50q12 34 45 34h598 q22 0 31.5 -11.5t5.5 -31.5q-29 -122 -105.5 -193t-244 -108.5t-449.5 -37.5q-142 0 -256 13.5t-196.5 37t-143.5 60.5t-98.5 79t-60.5 98t-31.5 112t-8.5 126q0 97 17.5 171.5t68.5 146t137.5 118t230.5 74.5t341 28q131 0 232 -6.5t183.5 -22t141.5 -37.5t103.5 -58 t72 -77t45.5 -101t26 -124.5t11 -152.5zM852 758q-57 0 -91.5 -42t-37.5 -104h258q-3 83 -37 114.5t-92 31.5z" />
<glyph unicode="&#xec;" horiz-adv-x="890" d="M723 1198q15 -20 7.5 -35.5t-32.5 -15.5h-440q-30 0 -49 22l-254 254q-20 22 -13 37t35 15h492q32 0 51 -25zM801 41q0 -41 -41 -41h-625q-41 0 -41 41v942q0 41 41 41h625q41 0 41 -41v-942z" />
<glyph unicode="&#xed;" horiz-adv-x="890" d="M229 1147q-25 0 -32 15.5t8 35.5l203 252q19 25 51 25h491q28 0 35.5 -15t-12.5 -37l-254 -254q-19 -22 -49 -22h-441zM801 41q0 -41 -41 -41h-625q-41 0 -41 41v942q0 41 41 41h625q41 0 41 -41v-942z" />
<glyph unicode="&#xee;" horiz-adv-x="890" d="M-20 1147q-25 0 -32.5 13.5t7.5 35.5l219 295q17 25 49 25h443q32 0 49 -25l219 -295q15 -22 7.5 -35.5t-32.5 -13.5h-321q-29 0 -51 22l-93 99l-92 -99q-22 -22 -51 -22h-321zM801 41q0 -41 -41 -41h-625q-41 0 -41 41v942q0 41 41 41h625q41 0 41 -41v-942z" />
<glyph unicode="&#xef;" horiz-adv-x="890" d="M389 1188q0 -41 -41 -41h-381q-41 0 -41 41v205q0 41 41 41h381q41 0 41 -41v-205zM965 1188q0 -41 -41 -41h-381q-41 0 -41 41v205q0 41 41 41h381q41 0 41 -41v-205zM801 41q0 -41 -41 -41h-625q-41 0 -41 41v942q0 41 41 41h625q41 0 41 -41v-942z" />
<glyph unicode="&#xf0;" horiz-adv-x="1759" d="M1419 1079q289 -318 289 -633q0 -92 -13.5 -157.5t-49.5 -120t-94 -88.5t-151 -57.5t-216.5 -33t-294.5 -9.5q-200 0 -343 18.5t-238.5 53.5t-151.5 94.5t-80 134t-25 178.5q-1 99 38 175.5t104.5 120.5t148.5 71t171 32.5t170.5 -1t148.5 -24t104 -40.5q-45 78 -131 178 l-447 -80q-39 -9 -49 31l-49 208q-6 41 31 50l250 43q-89 74 -209 159q-24 19 -19 35.5t33 16.5h633q27 0 51 -19q90 -67 113 -86l379 68q38 9 47 -31l49 -209q9 -40 -31 -49zM897 213q74 0 91.5 38t17.5 167q0 106 -17.5 139t-91.5 33q-75 0 -95 -34t-20 -138 q0 -126 20 -165.5t95 -39.5z" />
<glyph unicode="&#xf1;" horiz-adv-x="1744" d="M457 1194q-45 -28 -45 20v170q0 31 16 52q63 63 176 63q82 0 174 -27.5t182.5 -55t169.5 -27.5q88 0 158 45q45 28 45 -19v-172q0 -31 -18 -49q-67 -64 -176 -64q-65 0 -138 17t-127.5 37.5t-126.5 37.5t-135 17q-90 0 -155 -45zM1214 1044q85 0 149.5 -9.5t111.5 -25.5 t79.5 -44.5t52 -60t30.5 -79.5t14.5 -94.5t3.5 -112.5v-577q0 -41 -41 -41h-610q-41 0 -41 41v506q0 66 -9.5 91.5t-35.5 25.5q-59 0 -95.5 -79.5t-36.5 -236.5v-307q0 -41 -41 -41h-610q-41 0 -41 41v942q0 41 41 41h610q41 0 41 -41v-135q52 87 158.5 141.5t269.5 54.5z " />
<glyph unicode="&#xf2;" horiz-adv-x="1767" d="M1165 1198q15 -20 8 -35.5t-32 -15.5h-441q-30 0 -49 22l-254 254q-20 22 -12.5 37t35.5 15h491q33 0 52 -25zM1706 506q0 116 -24 200t-79.5 150t-150 106.5t-233 61t-330.5 20.5q-193 0 -332 -21t-233 -61.5t-149.5 -107t-79 -150t-23.5 -198.5q0 -145 37 -240 t129.5 -161.5t250.5 -95.5t400 -29q195 0 335 20t233.5 59t148.5 104.5t77.5 147t22.5 195.5zM889 709q67 0 91 -51.5t24 -151.5q0 -105 -23 -148t-92 -43t-92 43t-23 148q0 100 24 151.5t91 51.5z" />
<glyph unicode="&#xf3;" horiz-adv-x="1767" d="M672 1147q-25 0 -32.5 15.5t7.5 35.5l203 252q19 25 51 25h492q28 0 35 -15t-13 -37l-254 -254q-19 -22 -49 -22h-440zM1706 506q0 116 -24 200t-79.5 150t-150 106.5t-233 61t-330.5 20.5q-193 0 -332 -21t-233 -61.5t-149.5 -107t-79 -150t-23.5 -198.5q0 -145 37 -240 t129.5 -161.5t250.5 -95.5t400 -29q195 0 335 20t233.5 59t148.5 104.5t77.5 147t22.5 195.5zM889 709q67 0 91 -51.5t24 -151.5q0 -105 -23 -148t-92 -43t-92 43t-23 148q0 100 24 151.5t91 51.5z" />
<glyph unicode="&#xf4;" horiz-adv-x="1767" d="M422 1147q-25 0 -32.5 13.5t7.5 35.5l219 295q17 25 50 25h442q32 0 49 -25l219 -295q15 -22 8 -35.5t-32 -13.5h-322q-29 0 -51 22l-92 99l-92 -99q-22 -22 -52 -22h-321zM1706 506q0 116 -24 200t-79.5 150t-150 106.5t-233 61t-330.5 20.5q-193 0 -332 -21t-233 -61.5 t-149.5 -107t-79 -150t-23.5 -198.5q0 -145 37 -240t129.5 -161.5t250.5 -95.5t400 -29q195 0 335 20t233.5 59t148.5 104.5t77.5 147t22.5 195.5zM889 709q67 0 91 -51.5t24 -151.5q0 -105 -23 -148t-92 -43t-92 43t-23 148q0 100 24 151.5t91 51.5z" />
<glyph unicode="&#xf5;" horiz-adv-x="1767" d="M1303 1434q45 28 45 -19v-172q0 -30 -19 -49q-67 -64 -176 -64q-65 0 -137.5 17t-127 37.5t-126.5 37.5t-135 17q-91 0 -156 -45q-45 -28 -45 20v170q0 31 16 52q63 63 176 63q82 0 174.5 -27.5t183 -55t169.5 -27.5q88 0 158 45zM1706 506q0 116 -24 200t-79.5 150 t-150 106.5t-233 61t-330.5 20.5q-193 0 -332 -21t-233 -61.5t-149.5 -107t-79 -150t-23.5 -198.5q0 -145 37 -240t129.5 -161.5t250.5 -95.5t400 -29q195 0 335 20t233.5 59t148.5 104.5t77.5 147t22.5 195.5zM889 709q67 0 91 -51.5t24 -151.5q0 -105 -23 -148t-92 -43 t-92 43t-23 148q0 100 24 151.5t91 51.5z" />
<glyph unicode="&#xf6;" horiz-adv-x="1767" d="M829 1188q0 -41 -41 -41h-380q-41 0 -41 41v205q0 41 41 41h380q41 0 41 -41v-205zM1405 1188q0 -41 -41 -41h-381q-41 0 -41 41v205q0 41 41 41h381q41 0 41 -41v-205zM1706 506q0 116 -24 200t-79.5 150t-150 106.5t-233 61t-330.5 20.5q-193 0 -332 -21t-233 -61.5 t-149.5 -107t-79 -150t-23.5 -198.5q0 -145 37 -240t129.5 -161.5t250.5 -95.5t400 -29q195 0 335 20t233.5 59t148.5 104.5t77.5 147t22.5 195.5zM889 709q67 0 91 -51.5t24 -151.5q0 -105 -23 -148t-92 -43t-92 43t-23 148q0 100 24 151.5t91 51.5z" />
<glyph unicode="&#xf7;" horiz-adv-x="1216" d="M608 819q-57 0 -104 48.5t-47 113.5t48 114.5t107 49.5q63 0 108.5 -49t45.5 -115t-45.5 -114t-108.5 -48h-4zM141 473q-41 0 -41 41v129q0 41 41 41h932q41 0 41 -41v-129q0 -41 -41 -41h-932zM614 340q57 0 103.5 -48t46.5 -112t-47.5 -115t-106.5 -51q-65 0 -111 50 t-46 116t45.5 113t111.5 47h4z" />
<glyph unicode="&#xf8;" horiz-adv-x="1773" d="M1712 1202q20 12 34.5 4t14.5 -32v-340q0 -34 -26 -48l-66 -38q37 -93 37 -242q0 -114 -22.5 -195.5t-77.5 -147t-148.5 -104.5t-233.5 -59t-335 -20q-313 0 -486 51l-344 -209q-20 -13 -34.5 -5t-14.5 31v340q0 32 27 50l67 41q-32 88 -32 227q0 115 23.5 198.5t79 150 t149.5 107t233 61.5t332 21q306 0 479 -51zM889 315q69 0 92 43t23 148q0 100 -24 151.5t-91 51.5t-91 -51.5t-24 -151.5q0 -105 23 -148t92 -43z" />
<glyph unicode="&#xf9;" horiz-adv-x="1765" d="M647 1169l-254 254q-20 22 -12.5 37t35.5 15h491q32 0 51 -25l203 -252q15 -20 8 -35.5t-32 -15.5h-441q-30 0 -49 22zM1614 1024q41 0 41 -41v-942q0 -41 -41 -41h-610q-41 0 -41 41v135q-52 -87 -158.5 -141.5t-269.5 -54.5q-85 0 -149.5 9.5t-111.5 25.5t-79.5 44.5 t-52 60t-30.5 79.5t-14.5 94.5t-3.5 112.5v577q0 41 41 41h610q41 0 41 -41v-506q0 -66 9.5 -91.5t35.5 -25.5q59 0 95.5 79.5t36.5 236.5v307q0 41 41 41h610z" />
<glyph unicode="&#xfa;" horiz-adv-x="1765" d="M668 1147q-25 0 -32.5 15.5t7.5 35.5l203 252q19 25 51 25h492q28 0 35 -15t-13 -37l-254 -254q-19 -22 -49 -22h-440zM1614 1024q41 0 41 -41v-942q0 -41 -41 -41h-610q-41 0 -41 41v135q-52 -87 -158.5 -141.5t-269.5 -54.5q-85 0 -149.5 9.5t-111.5 25.5t-79.5 44.5 t-52 60t-30.5 79.5t-14.5 94.5t-3.5 112.5v577q0 41 41 41h610q41 0 41 -41v-506q0 -66 9.5 -91.5t35.5 -25.5q59 0 95.5 79.5t36.5 236.5v307q0 41 41 41h610z" />
<glyph unicode="&#xfb;" horiz-adv-x="1765" d="M418 1147q-25 0 -32.5 13.5t7.5 35.5l219 295q17 25 50 25h442q32 0 49 -25l219 -295q15 -22 8 -35.5t-32 -13.5h-322q-29 0 -51 22l-92 99l-92 -99q-22 -22 -52 -22h-321zM1614 1024q41 0 41 -41v-942q0 -41 -41 -41h-610q-41 0 -41 41v135q-52 -87 -158.5 -141.5 t-269.5 -54.5q-85 0 -149.5 9.5t-111.5 25.5t-79.5 44.5t-52 60t-30.5 79.5t-14.5 94.5t-3.5 112.5v577q0 41 41 41h610q41 0 41 -41v-506q0 -66 9.5 -91.5t35.5 -25.5q59 0 95.5 79.5t36.5 236.5v307q0 41 41 41h610z" />
<glyph unicode="&#xfc;" horiz-adv-x="1765" d="M403 1147q-41 0 -41 41v205q0 41 41 41h381q41 0 41 -41v-205q0 -41 -41 -41h-381zM979 1147q-41 0 -41 41v205q0 41 41 41h381q41 0 41 -41v-205q0 -41 -41 -41h-381zM1614 1024q41 0 41 -41v-942q0 -41 -41 -41h-610q-41 0 -41 41v135q-52 -87 -158.5 -141.5 t-269.5 -54.5q-85 0 -149.5 9.5t-111.5 25.5t-79.5 44.5t-52 60t-30.5 79.5t-14.5 94.5t-3.5 112.5v577q0 41 41 41h610q41 0 41 -41v-506q0 -66 9.5 -91.5t35.5 -25.5q59 0 95.5 79.5t36.5 236.5v307q0 41 41 41h610z" />
<glyph unicode="&#xfd;" horiz-adv-x="1839" d="M705 1147q-25 0 -32.5 15.5t7.5 35.5l203 252q19 25 51 25h491q28 0 35.5 -15t-12.5 -37l-254 -254q-19 -22 -49 -22h-440zM1786 1024q23 0 31.5 -13.5t-0.5 -35.5l-668 -1354q-13 -31 -49 -31h-606q-23 0 -31.5 14t0.5 36l145 317l-577 1018q-11 22 -3.5 35.5t31.5 13.5 h648q35 0 47 -35l147 -450l25 -148l26 148l152 452q9 33 45 33h637z" />
<glyph unicode="&#xfe;" horiz-adv-x="1794" d="M1223 1044q137 0 225.5 -23t150.5 -82t88.5 -161.5t26.5 -261.5q0 -161 -26 -264t-87 -164t-150 -84.5t-228 -23.5q-279 0 -437 147v-496q0 -41 -41 -41h-610q-41 0 -41 41v1762q0 41 41 41h610q41 0 41 -41v-498q156 149 437 149zM928 322q52 0 80 43.5t28 150.5 q0 186 -108 186q-59 0 -110.5 -53.5t-51.5 -142.5q0 -78 52.5 -131t109.5 -53z" />
<glyph unicode="&#xff;" horiz-adv-x="1839" d="M442 1147q-41 0 -41 41v205q0 41 41 41h381q41 0 41 -41v-205q0 -41 -41 -41h-381zM1018 1147q-41 0 -41 41v205q0 41 41 41h381q41 0 41 -41v-205q0 -41 -41 -41h-381zM1786 1024q23 0 31.5 -13.5t-0.5 -35.5l-668 -1354q-13 -31 -49 -31h-606q-23 0 -31.5 14t0.5 36 l145 317l-577 1018q-11 22 -3.5 35.5t31.5 13.5h648q35 0 47 -35l147 -450l25 -148l26 148l152 452q9 33 45 33h637z" />
<glyph unicode="&#x100;" horiz-adv-x="1972" d="M565 1501q-41 0 -41 41v205q0 41 41 41h840q41 0 41 -41v-205q0 -41 -41 -41h-840zM1950 47q6 -22 -3.5 -34.5t-31.5 -12.5h-658q-36 0 -45 35l-41 176h-380l-41 -178q-9 -35 -45 -35l-658 2q-22 0 -31.5 12.5t-3.5 34.5l457 1354q9 33 47 33h930q38 0 47 -33zM870 561 h222l-93 402l-18 133l-18 -133z" />
<glyph unicode="&#x101;" horiz-adv-x="1753" d="M457 1147q-41 0 -41 41v205q0 41 41 41h839q41 0 41 -41v-205q0 -41 -41 -41h-839zM1632 1024q41 0 41 -41v-942q0 -41 -41 -41h-610q-41 0 -41 41v88q-156 -149 -436 -149q-137 0 -225.5 23t-151 82t-89 161.5t-26.5 261.5q0 161 26 264t87.5 164t150.5 84.5t228 23.5 q278 0 436 -147v86q0 41 41 41h610zM840 322q59 0 110 53.5t51 142.5q0 78 -52 131t-109 53q-52 0 -80.5 -43.5t-28.5 -150.5q0 -186 109 -186z" />
<glyph unicode="&#x102;" horiz-adv-x="1972" d="M985 1481q-192 0 -312 66.5t-138 197.5q-3 43 40 43h242q11 0 19.5 -5t12 -9t13.5 -17q34 -43 123 -43q88 0 125 43q1 1 4 5t4 5t3.5 4.5t3.5 4.5t4 3.5t4.5 3t4 2t5 2t6 1t6.5 0.5h242q44 0 41 -43q-18 -131 -138.5 -197.5t-314.5 -66.5zM1950 47q6 -22 -3.5 -34.5 t-31.5 -12.5h-658q-36 0 -45 35l-41 176h-380l-41 -178q-9 -35 -45 -35l-658 2q-22 0 -31.5 12.5t-3.5 34.5l457 1354q9 33 47 33h930q38 0 47 -33zM870 561h222l-93 402l-18 133l-18 -133z" />
<glyph unicode="&#x103;" horiz-adv-x="1753" d="M877 1126q-192 0 -312.5 67t-138.5 198q-3 43 41 43h242q11 0 19.5 -5t12 -9t13.5 -17q34 -43 123 -43q87 0 124 43q8 10 10.5 13t8.5 8.5t12.5 7.5t14.5 2h241q44 0 41 -43q-18 -131 -138 -198t-314 -67zM1632 1024q41 0 41 -41v-942q0 -41 -41 -41h-610q-41 0 -41 41 v88q-156 -149 -436 -149q-137 0 -225.5 23t-151 82t-89 161.5t-26.5 261.5q0 161 26 264t87.5 164t150.5 84.5t228 23.5q278 0 436 -147v86q0 41 41 41h610zM840 322q59 0 110 53.5t51 142.5q0 78 -52 131t-109 53q-52 0 -80.5 -43.5t-28.5 -150.5q0 -186 109 -186z" />
<glyph unicode="&#x104;" horiz-adv-x="1972" d="M1950 47q6 -22 -3.5 -34.5t-31.5 -12.5h16q-117 -38 -175 -58t-105 -40t-59.5 -32.5t-6.5 -25.5q3 -13 35.5 -7.5t67 17.5t69.5 27q37 18 55 -20l74 -160q16 -40 -20 -57q-115 -45 -235.5 -56t-215.5 10.5t-156 78t-61 137.5q0 155 205 186h-146q-36 0 -45 35l-41 176 h-380l-41 -178q-9 -35 -45 -35l-658 2q-22 0 -31.5 12.5t-3.5 34.5l457 1354q9 33 47 33h930q38 0 47 -33zM870 561h222l-93 402l-18 133l-18 -133z" />
<glyph unicode="&#x105;" horiz-adv-x="1753" d="M1632 1024q41 0 41 -41v-942q0 -41 -41 -41h8q-117 -38 -175 -58t-105 -40t-59.5 -32.5t-6.5 -25.5q3 -13 35.5 -7.5t67 17.5t69.5 27q38 18 56 -20l73 -160q16 -40 -20 -57q-115 -45 -235.5 -56t-215.5 10.5t-156 78t-61 137.5q0 155 205 186h-90q-41 0 -41 41v88 q-156 -149 -436 -149q-137 0 -225.5 23t-151 82t-89 161.5t-26.5 261.5q0 161 26 264t87.5 164t150.5 84.5t228 23.5q278 0 436 -147v86q0 41 41 41h610zM840 322q59 0 110 53.5t51 142.5q0 78 -52 131t-109 53q-52 0 -80.5 -43.5t-28.5 -150.5q0 -186 109 -186z" />
<glyph unicode="&#x106;" d="M776 1516q-25 0 -32 15.5t8 35.5l202 252q19 24 52 24h491q28 0 35.5 -14.5t-12.5 -36.5l-254 -254q-19 -22 -49 -22h-441zM1225 856q-37 0 -43 41q-10 89 -49 119.5t-132 30.5q-116 0 -154 -70.5t-38 -255.5q0 -197 37 -262.5t155 -65.5q103 0 139.5 35t45.5 145 q3 41 41 41h635q42 0 39 -41q-6 -108 -27 -190.5t-65 -152.5t-112.5 -118t-169 -82t-235.5 -49.5t-311 -15.5q-154 0 -280 19.5t-219 54.5t-163.5 88t-115.5 115t-73.5 140.5t-40 160t-11.5 178.5q0 94 11.5 173.5t40 156.5t73.5 137.5t115.5 112.5t163.5 86.5t219 53.5 t280 19q220 0 374 -20t258.5 -60t165.5 -110t88.5 -158t33.5 -217q3 -41 -39 -41z" />
<glyph unicode="&#x107;" horiz-adv-x="1738" d="M653 1147q-25 0 -32 15.5t8 35.5l202 252q19 25 52 25h491q28 0 35.5 -15t-12.5 -37l-254 -254q-19 -22 -49 -22h-441zM1008 588q-37 0 -43 41q-8 51 -28 72.5t-63 21.5q-67 0 -90.5 -53.5t-23.5 -163.5q0 -116 22.5 -160.5t91.5 -44.5q87 0 95 117q3 28 41 28h616 q42 0 39 -40q-6 -92 -33 -158t-83.5 -119t-149 -84.5t-227.5 -48t-320 -16.5q-142 0 -256 13.5t-196.5 37t-143.5 60.5t-98.5 79t-60.5 98t-31.5 112t-8.5 126q0 97 17.5 171.5t68.5 146t137.5 118t230.5 74.5t341 28q196 0 332 -14.5t228 -43.5t145.5 -80t77.5 -115.5 t30 -159.5q3 -41 -39 -41z" />
<glyph unicode="&#x108;" d="M526 1516q-25 0 -32 13.5t8 35.5l219 295q16 24 49 24h442q34 0 50 -24l219 -295q15 -22 7.5 -35.5t-32.5 -13.5h-321q-30 0 -52 22l-92 98l-92 -98q-22 -22 -51 -22h-322zM1225 856q-37 0 -43 41q-10 89 -49 119.5t-132 30.5q-116 0 -154 -70.5t-38 -255.5 q0 -197 37 -262.5t155 -65.5q103 0 139.5 35t45.5 145q3 41 41 41h635q42 0 39 -41q-6 -108 -27 -190.5t-65 -152.5t-112.5 -118t-169 -82t-235.5 -49.5t-311 -15.5q-154 0 -280 19.5t-219 54.5t-163.5 88t-115.5 115t-73.5 140.5t-40 160t-11.5 178.5q0 94 11.5 173.5 t40 156.5t73.5 137.5t115.5 112.5t163.5 86.5t219 53.5t280 19q220 0 374 -20t258.5 -60t165.5 -110t88.5 -158t33.5 -217q3 -41 -39 -41z" />
<glyph unicode="&#x109;" horiz-adv-x="1738" d="M406 1147q-25 0 -32.5 13.5t7.5 35.5l219 295q17 25 49 25h443q32 0 49 -25l219 -295q15 -22 7.5 -35.5t-32.5 -13.5h-321q-29 0 -51 22l-93 99l-92 -99q-22 -22 -51 -22h-321zM1008 588q-37 0 -43 41q-8 51 -28 72.5t-63 21.5q-67 0 -90.5 -53.5t-23.5 -163.5 q0 -116 22.5 -160.5t91.5 -44.5q87 0 95 117q3 28 41 28h616q42 0 39 -40q-6 -92 -33 -158t-83.5 -119t-149 -84.5t-227.5 -48t-320 -16.5q-142 0 -256 13.5t-196.5 37t-143.5 60.5t-98.5 79t-60.5 98t-31.5 112t-8.5 126q0 97 17.5 171.5t68.5 146t137.5 118t230.5 74.5 t341 28q196 0 332 -14.5t228 -43.5t145.5 -80t77.5 -115.5t30 -159.5q3 -41 -39 -41z" />
<glyph unicode="&#x10a;" d="M1229 1556q0 -40 -41 -40h-391q-41 0 -41 40v205q0 41 41 41h391q41 0 41 -41v-205zM1225 856q-37 0 -43 41q-10 89 -49 119.5t-132 30.5q-116 0 -154 -70.5t-38 -255.5q0 -197 37 -262.5t155 -65.5q103 0 139.5 35t45.5 145q3 41 41 41h635q42 0 39 -41 q-6 -108 -27 -190.5t-65 -152.5t-112.5 -118t-169 -82t-235.5 -49.5t-311 -15.5q-154 0 -280 19.5t-219 54.5t-163.5 88t-115.5 115t-73.5 140.5t-40 160t-11.5 178.5q0 94 11.5 173.5t40 156.5t73.5 137.5t115.5 112.5t163.5 86.5t219 53.5t280 19q220 0 374 -20t258.5 -60 t165.5 -110t88.5 -158t33.5 -217q3 -41 -39 -41z" />
<glyph unicode="&#x10b;" horiz-adv-x="1738" d="M1106 1188q0 -41 -41 -41h-391q-41 0 -41 41v205q0 41 41 41h391q41 0 41 -41v-205zM1008 588q-37 0 -43 41q-8 51 -28 72.5t-63 21.5q-67 0 -90.5 -53.5t-23.5 -163.5q0 -116 22.5 -160.5t91.5 -44.5q87 0 95 117q3 28 41 28h616q42 0 39 -40q-6 -92 -33 -158 t-83.5 -119t-149 -84.5t-227.5 -48t-320 -16.5q-142 0 -256 13.5t-196.5 37t-143.5 60.5t-98.5 79t-60.5 98t-31.5 112t-8.5 126q0 97 17.5 171.5t68.5 146t137.5 118t230.5 74.5t341 28q196 0 332 -14.5t228 -43.5t145.5 -80t77.5 -115.5t30 -159.5q3 -41 -39 -41z" />
<glyph unicode="&#x10c;" d="M502 1835q-15 22 -8 35.5t32 13.5h322q29 0 51 -22l92 -99l92 99q22 22 52 22h323q25 0 32.5 -13.5t-7.5 -35.5l-219 -295q-16 -24 -50 -24h-444q-33 0 -49 24zM1225 856q-37 0 -43 41q-10 89 -49 119.5t-132 30.5q-116 0 -154 -70.5t-38 -255.5q0 -197 37 -262.5 t155 -65.5q103 0 139.5 35t45.5 145q3 41 41 41h635q42 0 39 -41q-6 -108 -27 -190.5t-65 -152.5t-112.5 -118t-169 -82t-235.5 -49.5t-311 -15.5q-154 0 -280 19.5t-219 54.5t-163.5 88t-115.5 115t-73.5 140.5t-40 160t-11.5 178.5q0 94 11.5 173.5t40 156.5t73.5 137.5 t115.5 112.5t163.5 86.5t219 53.5t280 19q220 0 374 -20t258.5 -60t165.5 -110t88.5 -158t33.5 -217q3 -41 -39 -41z" />
<glyph unicode="&#x10d;" horiz-adv-x="1738" d="M379 1466q-15 22 -8 36t32 14h322q28 0 51 -23l92 -98l93 98q23 23 51 23h323q25 0 32.5 -14t-7.5 -36l-219 -295q-16 -24 -49 -24h-445q-33 0 -49 24zM1008 588q-37 0 -43 41q-8 51 -28 72.5t-63 21.5q-67 0 -90.5 -53.5t-23.5 -163.5q0 -116 22.5 -160.5t91.5 -44.5 q87 0 95 117q3 28 41 28h616q42 0 39 -40q-6 -92 -33 -158t-83.5 -119t-149 -84.5t-227.5 -48t-320 -16.5q-142 0 -256 13.5t-196.5 37t-143.5 60.5t-98.5 79t-60.5 98t-31.5 112t-8.5 126q0 97 17.5 171.5t68.5 146t137.5 118t230.5 74.5t341 28q196 0 332 -14.5t228 -43.5 t145.5 -80t77.5 -115.5t30 -159.5q3 -41 -39 -41z" />
<glyph unicode="&#x10e;" horiz-adv-x="1916" d="M662 1534l-220 295q-15 22 -7.5 35.5t32.5 13.5h321q29 0 52 -23l92 -98l92 98q23 23 51 23h324q25 0 32 -13.5t-8 -35.5l-219 -295q-17 -25 -49 -25h-444q-32 0 -49 25zM940 1434q206 0 358.5 -27t259.5 -80.5t172.5 -140t95 -198.5t29.5 -263q0 -182 -47 -313 t-153 -225.5t-283.5 -140.5t-431.5 -46h-774q-41 0 -41 41v1352q0 41 41 41h774zM954 408q220 0 220 317q0 149 -51 225t-169 76h-147v-618h147z" />
<glyph unicode="&#x10f;" horiz-adv-x="1787" d="M621 1520l-220 295q-15 22 -7.5 35.5t32.5 13.5h322q28 0 51 -23l92 -98l92 98q23 23 51 23h324q25 0 32 -13.5t-8 -35.5l-219 -295q-17 -25 -49 -25h-444q-32 0 -49 25zM1667 1434q41 0 41 -41v-1352q0 -41 -41 -41h-610q-41 0 -41 41v88q-156 -149 -436 -149 q-137 0 -225.5 23t-151 82t-89 161.5t-26.5 261.5q0 161 26 264t87.5 164t150.5 84.5t228 23.5q278 0 436 -147v496q0 41 41 41h610zM874 322q59 0 110.5 53.5t51.5 142.5q0 78 -52.5 131t-109.5 53q-52 0 -80 -43.5t-28 -150.5q0 -186 108 -186z" />
<glyph unicode="&#x110;" horiz-adv-x="1916" d="M940 1434q206 0 358.5 -27t259.5 -80.5t172.5 -140t95 -198.5t29.5 -263q0 -182 -47 -313t-153 -225.5t-283.5 -140.5t-431.5 -46h-774q-41 0 -41 41v506h-78q-41 0 -41 41v258q0 41 41 41h78v506q0 41 41 41h774zM954 408q220 0 220 317q0 149 -51 225t-169 76h-147 v-139h158q41 0 41 -41v-258q0 -41 -41 -41h-158v-139h147z" />
<glyph unicode="&#x111;" horiz-adv-x="1787" d="M1821 1354q41 0 41 -41v-258q0 -41 -41 -41h-113v-973q0 -41 -41 -41h-610q-41 0 -41 41v88q-156 -149 -436 -149q-137 0 -225.5 23t-151 82t-89 161.5t-26.5 261.5q0 161 26 264t87.5 164t150.5 84.5t228 23.5q278 0 436 -147v117h-113q-41 0 -41 41v258q0 41 41 41h113 v39q0 41 41 41h610q41 0 41 -41v-39h113zM874 322q59 0 110.5 53.5t51.5 142.5q0 78 -52.5 131t-109.5 53q-52 0 -80 -43.5t-28 -150.5q0 -186 108 -186z" />
<glyph unicode="&#x112;" horiz-adv-x="1744" d="M455 1524q-41 0 -41 41v204q0 41 41 41h839q41 0 41 -41v-204q0 -41 -41 -41h-839zM1602 1051h-816v-160h816q40 0 40 -41v-266q0 -41 -40 -41h-816v-160h816q40 0 40 -41v-301q0 -41 -40 -41h-1446q-41 0 -41 41v1352q0 41 41 41h1446q40 0 40 -41v-301q0 -41 -40 -41z " />
<glyph unicode="&#x113;" horiz-adv-x="1712" d="M432 1147q-41 0 -41 41v205q0 41 41 41h840q41 0 41 -41v-205q0 -41 -41 -41h-840zM1661 465q0 -41 -41 -41h-885q3 -89 29.5 -123.5t99.5 -34.5q51 0 70 12t31 50q12 34 45 34h598q22 0 31.5 -11.5t5.5 -31.5q-29 -122 -105.5 -193t-244 -108.5t-449.5 -37.5 q-142 0 -256 13.5t-196.5 37t-143.5 60.5t-98.5 79t-60.5 98t-31.5 112t-8.5 126q0 97 17.5 171.5t68.5 146t137.5 118t230.5 74.5t341 28q131 0 232 -6.5t183.5 -22t141.5 -37.5t103.5 -58t72 -77t45.5 -101t26 -124.5t11 -152.5zM852 758q-57 0 -91.5 -42t-37.5 -104h258 q-3 83 -37 114.5t-92 31.5z" />
<glyph unicode="&#x114;" horiz-adv-x="1744" d="M874 1503q-192 0 -312 66.5t-138 197.5q-3 43 41 43h242q11 0 19.5 -4.5t12 -9t13.5 -16.5q34 -43 122 -43t125 43q19 24 31 28q6 2 14 2h242q44 0 41 -43q-18 -131 -138.5 -197.5t-314.5 -66.5zM1602 1051h-816v-160h816q40 0 40 -41v-266q0 -41 -40 -41h-816v-160h816 q40 0 40 -41v-301q0 -41 -40 -41h-1446q-41 0 -41 41v1352q0 41 41 41h1446q40 0 40 -41v-301q0 -41 -40 -41z" />
<glyph unicode="&#x115;" horiz-adv-x="1712" d="M852 1126q-192 0 -312.5 67t-138.5 198q-3 43 41 43h242q11 0 19.5 -5t12 -9t13.5 -17q34 -43 123 -43q88 0 125 43q1 1 4 5t4 5t3.5 4.5t3.5 4.5t4 3.5t4.5 3t4 2t5 2t6 1t6.5 0.5h242q44 0 41 -43q-18 -131 -138.5 -198t-314.5 -67zM1661 465q0 -41 -41 -41h-885 q3 -89 29.5 -123.5t99.5 -34.5q51 0 70 12t31 50q12 34 45 34h598q22 0 31.5 -11.5t5.5 -31.5q-29 -122 -105.5 -193t-244 -108.5t-449.5 -37.5q-142 0 -256 13.5t-196.5 37t-143.5 60.5t-98.5 79t-60.5 98t-31.5 112t-8.5 126q0 97 17.5 171.5t68.5 146t137.5 118 t230.5 74.5t341 28q131 0 232 -6.5t183.5 -22t141.5 -37.5t103.5 -58t72 -77t45.5 -101t26 -124.5t11 -152.5zM852 758q-57 0 -91.5 -42t-37.5 -104h258q-3 83 -37 114.5t-92 31.5z" />
<glyph unicode="&#x116;" horiz-adv-x="1744" d="M680 1524q-41 0 -41 41v204q0 41 41 41h391q41 0 41 -41v-204q0 -41 -41 -41h-391zM1602 1051h-816v-160h816q40 0 40 -41v-266q0 -41 -40 -41h-816v-160h816q40 0 40 -41v-301q0 -41 -40 -41h-1446q-41 0 -41 41v1352q0 41 41 41h1446q40 0 40 -41v-301q0 -41 -40 -41z " />
<glyph unicode="&#x117;" horiz-adv-x="1712" d="M657 1147q-41 0 -41 41v205q0 41 41 41h392q41 0 41 -41v-205q0 -41 -41 -41h-392zM1661 465q0 -41 -41 -41h-885q3 -89 29.5 -123.5t99.5 -34.5q51 0 70 12t31 50q12 34 45 34h598q22 0 31.5 -11.5t5.5 -31.5q-29 -122 -105.5 -193t-244 -108.5t-449.5 -37.5 q-142 0 -256 13.5t-196.5 37t-143.5 60.5t-98.5 79t-60.5 98t-31.5 112t-8.5 126q0 97 17.5 171.5t68.5 146t137.5 118t230.5 74.5t341 28q131 0 232 -6.5t183.5 -22t141.5 -37.5t103.5 -58t72 -77t45.5 -101t26 -124.5t11 -152.5zM852 758q-57 0 -91.5 -42t-37.5 -104h258 q-3 83 -37 114.5t-92 31.5z" />
<glyph unicode="&#x118;" horiz-adv-x="1744" d="M1602 1051h-816v-160h816q40 0 40 -41v-266q0 -41 -40 -41h-816v-160h816q40 0 40 -41v-301q0 -41 -40 -41h8q-117 -38 -175 -58t-105 -40t-59.5 -32.5t-6.5 -25.5q3 -13 35.5 -7.5t67 17.5t69.5 27q37 18 55 -20l74 -160q16 -39 -21 -57q-115 -45 -235.5 -56t-215 10.5 t-155.5 78t-61 137.5q0 155 204 186h-925q-41 0 -41 41v1352q0 41 41 41h1446q40 0 40 -41v-301q0 -41 -40 -41z" />
<glyph unicode="&#x119;" horiz-adv-x="1712" d="M1661 465q0 -41 -41 -41h-885q3 -89 29.5 -123.5t99.5 -34.5q51 0 70 12t31 50q12 34 45 34h598q22 0 31.5 -11.5t5.5 -31.5q-20 -88 -65 -148.5t-131.5 -103t-221.5 -63.5q-98 -33 -148 -50.5t-89.5 -35t-50 -29.5t-5.5 -24q3 -13 35.5 -7.5t67 17.5t69.5 27 q37 18 55 -21l74 -160q16 -39 -21 -57q-115 -45 -235.5 -56t-215 10.5t-155.5 78t-61 137.5q0 104 96 154q-145 12 -251.5 44t-171.5 77t-103.5 110t-52 132t-13.5 155q0 97 17.5 171.5t68.5 146t137.5 118t230.5 74.5t341 28q131 0 232 -6.5t183.5 -22t141.5 -37.5 t103.5 -58t72 -77t45.5 -101t26 -124.5t11 -152.5zM852 758q-57 0 -91.5 -42t-37.5 -104h258q-3 83 -37 114.5t-92 31.5z" />
<glyph unicode="&#x11a;" horiz-adv-x="1744" d="M604 1548l-219 295q-15 22 -7.5 35.5t32.5 13.5h321q29 0 51 -22l92 -98l93 98q22 22 51 22h323q25 0 32.5 -13.5t-7.5 -35.5l-219 -295q-16 -24 -49 -24h-445q-33 0 -49 24zM1602 1051h-816v-160h816q40 0 40 -41v-266q0 -41 -40 -41h-816v-160h816q40 0 40 -41v-301 q0 -41 -40 -41h-1446q-41 0 -41 41v1352q0 41 41 41h1446q40 0 40 -41v-301q0 -41 -40 -41z" />
<glyph unicode="&#x11b;" horiz-adv-x="1712" d="M582 1171l-220 295q-15 22 -7.5 36t32.5 14h322q28 0 51 -23l92 -98l92 98q23 23 51 23h324q25 0 32 -14t-8 -36l-219 -295q-16 -24 -49 -24h-444q-33 0 -49 24zM1661 465q0 -41 -41 -41h-885q3 -89 29.5 -123.5t99.5 -34.5q51 0 70 12t31 50q12 34 45 34h598 q22 0 31.5 -11.5t5.5 -31.5q-29 -122 -105.5 -193t-244 -108.5t-449.5 -37.5q-142 0 -256 13.5t-196.5 37t-143.5 60.5t-98.5 79t-60.5 98t-31.5 112t-8.5 126q0 97 17.5 171.5t68.5 146t137.5 118t230.5 74.5t341 28q131 0 232 -6.5t183.5 -22t141.5 -37.5t103.5 -58 t72 -77t45.5 -101t26 -124.5t11 -152.5zM852 758q-57 0 -91.5 -42t-37.5 -104h258q-3 83 -37 114.5t-92 31.5z" />
<glyph unicode="&#x11c;" horiz-adv-x="1994" d="M547 1516q-25 0 -32.5 13.5t7.5 35.5l219 295q16 24 50 24h442q33 0 49 -24l219 -295q15 -22 8 -35.5t-32 -13.5h-322q-29 0 -51 22l-92 98l-92 -98q-22 -22 -52 -22h-321zM1884 788q41 0 41 -40q-2 -154 -18.5 -262.5t-58 -200.5t-108.5 -149t-174.5 -97.5t-251.5 -57 t-343 -16.5q-154 0 -279.5 19.5t-217.5 54.5t-161.5 88t-113.5 114.5t-71.5 141t-38.5 160.5t-11 178q0 133 24.5 239t88 202t167 159.5t269 101t385.5 37.5q175 0 307 -12.5t229.5 -40.5t162.5 -68t105.5 -99.5t58.5 -129.5t21 -164q0 -41 -41 -41h-630q-38 0 -41 41 q-8 68 -43.5 89.5t-139.5 21.5q-115 0 -153.5 -75t-38.5 -261q0 -202 38 -280.5t154 -78.5q122 0 171.5 28.5t52.5 121.5h-185q-41 0 -41 41v195q0 40 41 40h844z" />
<glyph unicode="&#x11d;" horiz-adv-x="1742" d="M410 1161q-25 0 -32.5 13.5t7.5 35.5l219 295q17 25 49 25h443q32 0 49 -25l219 -295q15 -22 7.5 -35.5t-32.5 -13.5h-321q-28 0 -51 23l-93 98l-92 -98q-23 -23 -51 -23h-321zM1778 1024q24 -40 -19 -55l-188 -66q102 -85 102 -274q0 -76 -12 -127.5t-46.5 -94 t-88.5 -66.5t-147 -40.5t-212 -22.5t-293 -6q-229 0 -413 27q-74 -24 -74 -51q0 -12 12 -18t62 -11t145 -6.5t268 -1.5q111 0 188.5 -1t157 -4t131.5 -7.5t104.5 -13.5t83 -20t60.5 -28.5t45 -38t27.5 -49.5t16.5 -61.5t4 -75.5q0 -58 -14 -101.5t-50 -82.5t-98 -65 t-156.5 -45.5t-228.5 -28.5t-311 -9q-166 0 -280.5 5.5t-202.5 20.5t-139.5 37t-84.5 59.5t-45.5 82t-15.5 111.5q0 41 40 41l621 -3q37 0 43 -40q1 -33 21.5 -43.5t82.5 -10.5q61 0 88 16.5t27 57.5q0 30 -15 47t-58.5 27t-122.5 10q-154 0 -254 2t-185.5 9.5t-132 18.5 t-80 31.5t-44.5 47t-11 65.5q0 114 113 209q-142 82 -142 248q0 91 21.5 154.5t74.5 113.5t147 79t234 43.5t340 14.5q207 0 336 -14l410 170q36 16 55 -16zM868 485q69 0 89 34.5t20 129.5q0 73 -20.5 102t-88.5 29q-69 0 -91.5 -29.5t-22.5 -101.5q0 -93 22.5 -128.5 t91.5 -35.5z" />
<glyph unicode="&#x11e;" horiz-adv-x="1994" d="M1012 1495q-193 0 -313 66.5t-138 197.5q-3 43 41 43h242q11 0 19.5 -4.5t12 -9t13.5 -16.5q34 -43 123 -43q88 0 125 43q19 24 31 28q6 2 14 2h241q44 0 41 -43q-18 -131 -138 -197.5t-314 -66.5zM1884 788q41 0 41 -40q-2 -154 -18.5 -262.5t-58 -200.5t-108.5 -149 t-174.5 -97.5t-251.5 -57t-343 -16.5q-154 0 -279.5 19.5t-217.5 54.5t-161.5 88t-113.5 114.5t-71.5 141t-38.5 160.5t-11 178q0 133 24.5 239t88 202t167 159.5t269 101t385.5 37.5q175 0 307 -12.5t229.5 -40.5t162.5 -68t105.5 -99.5t58.5 -129.5t21 -164q0 -41 -41 -41 h-630q-38 0 -41 41q-8 68 -43.5 89.5t-139.5 21.5q-115 0 -153.5 -75t-38.5 -261q0 -202 38 -280.5t154 -78.5q122 0 171.5 28.5t52.5 121.5h-185q-41 0 -41 41v195q0 40 41 40h844z" />
<glyph unicode="&#x11f;" horiz-adv-x="1742" d="M874 1141q-192 0 -312 66.5t-138 197.5q-3 43 41 43h242q11 0 19.5 -5t12 -9t13.5 -17q34 -43 122 -43t125 43q1 1 4 5t4 5t3.5 4.5t3.5 4.5t4 3.5t4.5 3t4 2t5 2t6 1t6.5 0.5h242q44 0 41 -43q-18 -131 -138.5 -197.5t-314.5 -66.5zM1778 1024q24 -40 -19 -55l-188 -66 q102 -85 102 -274q0 -76 -12 -127.5t-46.5 -94t-88.5 -66.5t-147 -40.5t-212 -22.5t-293 -6q-229 0 -413 27q-74 -24 -74 -51q0 -12 12 -18t62 -11t145 -6.5t268 -1.5q111 0 188.5 -1t157 -4t131.5 -7.5t104.5 -13.5t83 -20t60.5 -28.5t45 -38t27.5 -49.5t16.5 -61.5 t4 -75.5q0 -58 -14 -101.5t-50 -82.5t-98 -65t-156.5 -45.5t-228.5 -28.5t-311 -9q-166 0 -280.5 5.5t-202.5 20.5t-139.5 37t-84.5 59.5t-45.5 82t-15.5 111.5q0 41 40 41l621 -3q37 0 43 -40q1 -33 21.5 -43.5t82.5 -10.5q61 0 88 16.5t27 57.5q0 30 -15 47t-58.5 27 t-122.5 10q-154 0 -254 2t-185.5 9.5t-132 18.5t-80 31.5t-44.5 47t-11 65.5q0 114 113 209q-142 82 -142 248q0 91 21.5 154.5t74.5 113.5t147 79t234 43.5t340 14.5q207 0 336 -14l410 170q36 16 55 -16zM868 485q69 0 89 34.5t20 129.5q0 73 -20.5 102t-88.5 29 q-69 0 -91.5 -29.5t-22.5 -101.5q0 -93 22.5 -128.5t91.5 -35.5z" />
<glyph unicode="&#x120;" horiz-adv-x="1994" d="M815 1516q-41 0 -41 40v205q0 41 41 41h391q41 0 41 -41v-205q0 -40 -41 -40h-391zM1884 788q41 0 41 -40q-2 -154 -18.5 -262.5t-58 -200.5t-108.5 -149t-174.5 -97.5t-251.5 -57t-343 -16.5q-154 0 -279.5 19.5t-217.5 54.5t-161.5 88t-113.5 114.5t-71.5 141 t-38.5 160.5t-11 178q0 133 24.5 239t88 202t167 159.5t269 101t385.5 37.5q175 0 307 -12.5t229.5 -40.5t162.5 -68t105.5 -99.5t58.5 -129.5t21 -164q0 -41 -41 -41h-630q-38 0 -41 41q-8 68 -43.5 89.5t-139.5 21.5q-115 0 -153.5 -75t-38.5 -261q0 -202 38 -280.5 t154 -78.5q122 0 171.5 28.5t52.5 121.5h-185q-41 0 -41 41v195q0 40 41 40h844z" />
<glyph unicode="&#x121;" horiz-adv-x="1742" d="M678 1161q-41 0 -41 41v205q0 41 41 41h391q41 0 41 -41v-205q0 -41 -41 -41h-391zM1778 1024q24 -40 -19 -55l-188 -66q102 -85 102 -274q0 -76 -12 -127.5t-46.5 -94t-88.5 -66.5t-147 -40.5t-212 -22.5t-293 -6q-229 0 -413 27q-74 -24 -74 -51q0 -12 12 -18t62 -11 t145 -6.5t268 -1.5q111 0 188.5 -1t157 -4t131.5 -7.5t104.5 -13.5t83 -20t60.5 -28.5t45 -38t27.5 -49.5t16.5 -61.5t4 -75.5q0 -58 -14 -101.5t-50 -82.5t-98 -65t-156.5 -45.5t-228.5 -28.5t-311 -9q-166 0 -280.5 5.5t-202.5 20.5t-139.5 37t-84.5 59.5t-45.5 82 t-15.5 111.5q0 41 40 41l621 -3q37 0 43 -40q1 -33 21.5 -43.5t82.5 -10.5q61 0 88 16.5t27 57.5q0 30 -15 47t-58.5 27t-122.5 10q-154 0 -254 2t-185.5 9.5t-132 18.5t-80 31.5t-44.5 47t-11 65.5q0 114 113 209q-142 82 -142 248q0 91 21.5 154.5t74.5 113.5t147 79 t234 43.5t340 14.5q207 0 336 -14l410 170q36 16 55 -16zM868 485q69 0 89 34.5t20 129.5q0 73 -20.5 102t-88.5 29q-69 0 -91.5 -29.5t-22.5 -101.5q0 -93 22.5 -128.5t91.5 -35.5z" />
<glyph unicode="&#x122;" horiz-adv-x="1994" d="M1884 788q41 0 41 -40q-2 -154 -18.5 -262.5t-58 -200.5t-108.5 -149t-174.5 -97.5t-251.5 -57t-343 -16.5q-154 0 -279.5 19.5t-217.5 54.5t-161.5 88t-113.5 114.5t-71.5 141t-38.5 160.5t-11 178q0 133 24.5 239t88 202t167 159.5t269 101t385.5 37.5q175 0 307 -12.5 t229.5 -40.5t162.5 -68t105.5 -99.5t58.5 -129.5t21 -164q0 -41 -41 -41h-630q-38 0 -41 41q-8 68 -43.5 89.5t-139.5 21.5q-115 0 -153.5 -75t-38.5 -261q0 -202 38 -280.5t154 -78.5q122 0 171.5 28.5t52.5 121.5h-185q-41 0 -41 41v195q0 40 41 40h844zM1266 -104 q23 0 31 -15t-5 -35l-274 -436q-17 -26 -49 -26h-359q-21 0 -31 13t-4 34l117 430q8 35 45 35h529z" />
<glyph unicode="&#x123;" horiz-adv-x="1722" d="M596 1124q-25 0 -33 15t4 35l275 436q17 26 49 26h358q22 0 32 -12.5t5 -34.5l-119 -430q-6 -35 -43 -35h-528zM1778 1024q24 -40 -19 -55l-188 -66q102 -85 102 -274q0 -76 -12 -127.5t-46.5 -94t-88.5 -66.5t-147 -40.5t-212 -22.5t-293 -6q-229 0 -413 27 q-74 -24 -74 -51q0 -12 12 -18t62 -11t145 -6.5t268 -1.5q111 0 188.5 -1t157 -4t131.5 -7.5t104.5 -13.5t83 -20t60.5 -28.5t45 -38t27.5 -49.5t16.5 -61.5t4 -75.5q0 -58 -14 -101.5t-50 -82.5t-98 -65t-156.5 -45.5t-228.5 -28.5t-311 -9q-166 0 -280.5 5.5t-202.5 20.5 t-139.5 37t-84.5 59.5t-45.5 82t-15.5 111.5q0 41 40 41l621 -3q37 0 43 -40q1 -33 21.5 -43.5t82.5 -10.5q61 0 88 16.5t27 57.5q0 30 -15 47t-58.5 27t-122.5 10q-154 0 -254 2t-185.5 9.5t-132 18.5t-80 31.5t-44.5 47t-11 65.5q0 114 113 209q-142 82 -142 248 q0 91 21.5 154.5t74.5 113.5t147 79t234 43.5t340 14.5q207 0 336 -14l410 170q36 16 55 -16zM868 485q69 0 89 34.5t20 129.5q0 73 -20.5 102t-88.5 29q-69 0 -91.5 -29.5t-22.5 -101.5q0 -93 22.5 -128.5t91.5 -35.5z" />
<glyph unicode="&#x124;" horiz-adv-x="1914" d="M494 1509q-25 0 -32.5 14t7.5 36l219 294q17 25 49 25h443q32 0 49 -25l219 -294q15 -22 7.5 -36t-32.5 -14h-321q-28 0 -51 23l-93 98l-92 -98q-23 -23 -51 -23h-321zM1780 1434q41 0 41 -41v-1352q0 -41 -41 -41h-631q-41 0 -41 41v463h-301v-463q0 -41 -41 -41h-631 q-41 0 -41 41v1352q0 41 41 41h631q41 0 41 -41v-463h301v463q0 41 41 41h631z" />
<glyph unicode="&#x125;" horiz-adv-x="1765" d="M418 1495q-25 0 -32.5 13.5t7.5 35.5l219 295q17 25 50 25h442q32 0 49 -25l219 -295q15 -22 8 -35.5t-32 -13.5h-322q-28 0 -51 23l-92 98l-92 -98q-23 -23 -52 -23h-321zM1214 1044q85 0 149.5 -9.5t111.5 -25.5t79.5 -44.5t52 -60t30.5 -79.5t14.5 -94.5t3.5 -112.5 v-577q0 -41 -41 -41h-610q-41 0 -41 41v506q0 66 -9.5 91.5t-35.5 25.5q-59 0 -95.5 -79.5t-36.5 -236.5v-307q0 -41 -41 -41h-610q-41 0 -41 41v1352q0 41 41 41h610q41 0 41 -41v-545q52 87 158.5 141.5t269.5 54.5z" />
<glyph unicode="&#x126;" horiz-adv-x="1914" d="M1919 1327q41 0 41 -41v-213q0 -41 -41 -41h-98v-991q0 -41 -41 -41h-631q-41 0 -41 41v463h-301v-463q0 -41 -41 -41h-631q-41 0 -41 41v991h-98q-41 0 -41 41v213q0 41 41 41h98v66q0 41 41 41h631q41 0 41 -41v-66h301v66q0 41 41 41h631q41 0 41 -41v-66h98z M1108 930v102h-301v-102h301z" />
<glyph unicode="&#x127;" horiz-adv-x="1765" d="M1214 1044q85 0 149.5 -9.5t111.5 -25.5t79.5 -44.5t52 -60t30.5 -79.5t14.5 -94.5t3.5 -112.5v-577q0 -41 -41 -41h-610q-41 0 -41 41v506q0 66 -9.5 91.5t-35.5 25.5q-59 0 -95.5 -79.5t-36.5 -236.5v-307q0 -41 -41 -41h-610q-41 0 -41 41v971h-67q-41 0 -41 41v258 q0 41 41 41h67v41q0 41 41 41h610q41 0 41 -41v-41h158q41 0 41 -41v-258q0 -41 -41 -41h-158v-164q52 87 158.5 141.5t269.5 54.5z" />
<glyph unicode="&#x128;" horiz-adv-x="1009" d="M922 1796q45 28 45 -18v-172q0 -31 -19 -50q-66 -63 -176 -63q-65 0 -137.5 17t-127 37.5t-126.5 37.5t-135 17q-89 0 -156 -46q-45 -28 -45 21v170q0 30 16 51q64 64 177 64q66 0 138.5 -17.5t127 -38t126 -38t134.5 -17.5q88 0 158 45zM887 41q0 -41 -41 -41h-670 q-41 0 -41 41v1352q0 41 41 41h670q41 0 41 -41v-1352z" />
<glyph unicode="&#x129;" horiz-adv-x="890" d="M860 1434q45 28 45 -19v-172q0 -31 -18 -49q-67 -64 -176 -64q-65 0 -138 17t-127.5 37.5t-126.5 37.5t-135 17q-90 0 -155 -45q-45 -28 -45 20v170q0 31 16 52q63 63 176 63q82 0 174 -27.5t182.5 -55t169.5 -27.5q88 0 158 45zM801 41q0 -41 -41 -41h-625q-41 0 -41 41 v942q0 41 41 41h625q41 0 41 -41v-942z" />
<glyph unicode="&#x12a;" horiz-adv-x="1009" d="M926 1796q41 0 41 -41v-205q0 -41 -41 -41h-840q-41 0 -41 41v205q0 41 41 41h840zM887 41q0 -41 -41 -41h-670q-41 0 -41 41v1352q0 41 41 41h670q41 0 41 -41v-1352z" />
<glyph unicode="&#x12b;" horiz-adv-x="890" d="M864 1434q41 0 41 -41v-205q0 -41 -41 -41h-839q-41 0 -41 41v205q0 41 41 41h839zM801 41q0 -41 -41 -41h-625q-41 0 -41 41v942q0 41 41 41h625q41 0 41 -41v-942z" />
<glyph unicode="&#x12c;" horiz-adv-x="1009" d="M338 1796q11 0 19.5 -5t12 -9t13.5 -17q34 -43 123 -43q88 0 125 43q1 1 4 5t4 5t3.5 4.5t3.5 4.5t4 3.5t4.5 3t4 2t5 2t6 1t6.5 0.5h242q43 0 40 -43q-18 -131 -138 -197.5t-314 -66.5q-193 0 -313 66.5t-138 197.5q-3 43 41 43h242zM887 41q0 -41 -41 -41h-670 q-41 0 -41 41v1352q0 41 41 41h670q41 0 41 -41v-1352z" />
<glyph unicode="&#x12d;" horiz-adv-x="890" d="M276 1434q11 0 19.5 -5t12.5 -9.5t14 -16.5q34 -43 122 -43t125 43q1 1 4 5t4 5t3.5 4.5t3.5 4.5t4 3.5t4.5 3t4 2t5 2t6 1t6.5 0.5h242q44 0 41 -43q-18 -131 -138.5 -198t-314.5 -67q-192 0 -312 67t-138 198q-3 43 41 43h241zM801 41q0 -41 -41 -41h-625q-41 0 -41 41 v942q0 41 41 41h625q41 0 41 -41v-942z" />
<glyph unicode="&#x12e;" horiz-adv-x="1009" d="M846 1434q41 0 41 -41v-1352q0 -41 -41 -41h8q-117 -38 -175 -58t-105 -40t-59.5 -32.5t-6.5 -25.5q3 -13 35.5 -7.5t67 17.5t69.5 27q37 18 55 -20l74 -160q16 -39 -21 -57q-115 -45 -235.5 -56t-215 10.5t-155.5 78t-61 137.5q0 155 205 186h-150q-41 0 -41 41v1352 q0 41 41 41h670z" />
<glyph unicode="&#x12f;" horiz-adv-x="890" d="M250 1147q-41 0 -41 41v205q0 41 41 41h391q41 0 41 -41v-205q0 -41 -41 -41h-391zM760 1024q41 0 41 -41v-942q0 -41 -41 -41h-53q-178 -59 -235.5 -85t-47.5 -50q3 -13 35.5 -7.5t67 17.5t69.5 27q37 18 55 -21l74 -160q16 -40 -20 -57q-115 -45 -235.5 -56 t-215.5 10.5t-156 78t-61 137.5q0 118 125 166h-27q-41 0 -41 41v942q0 41 41 41h625z" />
<glyph unicode="&#x130;" horiz-adv-x="1009" d="M741 1550q0 -41 -41 -41h-391q-41 0 -41 41v205q0 41 41 41h391q41 0 41 -41v-205zM887 41q0 -41 -41 -41h-670q-41 0 -41 41v1352q0 41 41 41h670q41 0 41 -41v-1352z" />
<glyph unicode="&#x131;" horiz-adv-x="890" d="M801 41q0 -41 -41 -41h-625q-41 0 -41 41v942q0 41 41 41h625q41 0 41 -41v-942z" />
<glyph unicode="&#x134;" horiz-adv-x="1214" d="M254 1509q-25 0 -32.5 14t7.5 36l220 294q17 25 49 25h442q32 0 49 -25l219 -294q15 -22 8 -36t-32 -14h-322q-28 0 -51 23l-92 98l-92 -98q-23 -23 -52 -23h-321zM61 387q0 43 45 37q69 -10 108 -13.5t72 7.5t46.5 25t23 59t10.5 88t1 133v670q0 41 41 41h620 q41 0 41 -41v-830q0 -103 -8 -179.5t-29 -144.5t-55 -113.5t-88 -81.5t-125 -54.5t-169.5 -26t-219 -2t-275.5 22.5q-41 3 -41 43z" />
<glyph unicode="&#x135;" horiz-adv-x="890" d="M-20 1147q-25 0 -32.5 13.5t7.5 35.5l219 295q17 25 49 25h443q32 0 49 -25l219 -295q15 -22 7.5 -35.5t-32.5 -13.5h-321q-29 0 -51 22l-93 99l-92 -99q-22 -22 -51 -22h-321zM801 -369q0 -41 -41 -41h-625q-41 0 -41 41v1352q0 41 41 41h625q41 0 41 -41v-1352z" />
<glyph unicode="&#x136;" horiz-adv-x="1947" d="M1911 49q15 -20 8 -34.5t-33 -14.5h-733q-33 0 -49 29l-201 344l-96 -74v-258q0 -41 -41 -41h-621q-41 0 -41 41v1352q0 41 41 41h621q41 0 41 -41v-265l-10 -196l71 127l238 350q19 25 49 25h709q26 0 33.5 -16t-9.5 -36l-512 -589zM1241 -104q24 0 32 -15t-5 -35 l-275 -436q-17 -26 -49 -26h-358q-21 0 -31 13t-4 34l117 430q8 35 45 35h528z" />
<glyph unicode="&#x137;" horiz-adv-x="1794" d="M1745 49q15 -22 7.5 -35.5t-32.5 -13.5h-641q-31 0 -49 27l-147 219l-117 -64v-141q0 -41 -41 -41h-610q-41 0 -41 41v1352q0 41 41 41h610q41 0 41 -41v-574l-6 -147l67 114l162 213q19 25 49 25h641q26 0 33 -15.5t-8 -35.5l-340 -400zM1165 -104q24 0 32 -15t-5 -35 l-274 -436q-17 -26 -50 -26h-358q-21 0 -31 13t-4 34l117 430q8 35 45 35h528z" />
<glyph unicode="&#x138;" horiz-adv-x="1794" d="M1745 49q15 -22 7.5 -35.5t-32.5 -13.5h-641q-31 0 -49 27l-147 219l-117 -64v-141q0 -41 -41 -41h-610q-41 0 -41 41v942q0 41 41 41h610q41 0 41 -41v-164l-6 -147l67 114l162 213q19 25 49 25h641q26 0 33 -15.5t-8 -35.5l-340 -400z" />
<glyph unicode="&#x139;" horiz-adv-x="1587" d="M272 1509q-25 0 -32 16t8 36l203 251q19 25 51 25h491q28 0 35.5 -14.5t-12.5 -36.5l-254 -254q-20 -23 -49 -23h-441zM1505 412q41 0 41 -41v-330q0 -41 -41 -41h-1349q-41 0 -41 41v1352q0 41 41 41h661q41 0 41 -41v-981h647z" />
<glyph unicode="&#x13a;" horiz-adv-x="903" d="M236 1516q-25 0 -32.5 15.5t7.5 35.5l203 252q19 24 51 24h491q28 0 35.5 -14.5t-12.5 -36.5l-254 -254q-19 -22 -49 -22h-440zM807 41q0 -41 -41 -41h-625q-41 0 -41 41v1352q0 41 41 41h625q41 0 41 -41v-1352z" />
<glyph unicode="&#x13b;" horiz-adv-x="1587" d="M1505 412q41 0 41 -41v-330q0 -41 -41 -41h-1349q-41 0 -41 41v1352q0 41 41 41h661q41 0 41 -41v-981h647zM1061 -104q23 0 31 -15t-5 -35l-274 -436q-17 -26 -49 -26h-358q-21 0 -31 13t-4 34l116 430q8 35 45 35h529z" />
<glyph unicode="&#x13c;" horiz-adv-x="903" d="M807 41q0 -41 -41 -41h-625q-41 0 -41 41v1352q0 41 41 41h625q41 0 41 -41v-1352zM471 -590q-17 -26 -49 -26h-359q-21 0 -30.5 13t-3.5 34l116 430q8 35 45 35h529q23 0 31 -15t-5 -35z" />
<glyph unicode="&#x13d;" horiz-adv-x="1587" d="M266 1509q-32 0 -49 25l-219 295q-15 22 -7.5 35.5t32.5 13.5h321q28 0 51 -23l92 -98l93 98q23 23 51 23h323q25 0 32.5 -13.5t-7.5 -35.5l-219 -295q-17 -25 -49 -25h-445zM1505 412q41 0 41 -41v-330q0 -41 -41 -41h-1349q-41 0 -41 41v1352q0 41 41 41h661 q41 0 41 -41v-981h647z" />
<glyph unicode="&#x13e;" horiz-adv-x="903" d="M-39 1835q-15 22 -7.5 35.5t32.5 13.5h321q29 0 51 -22l93 -99l92 99q22 22 51 22h324q25 0 32 -13.5t-8 -35.5l-219 -295q-16 -24 -49 -24h-445q-33 0 -49 24zM807 41q0 -41 -41 -41h-625q-41 0 -41 41v1352q0 41 41 41h625q41 0 41 -41v-1352z" />
<glyph unicode="&#x13f;" horiz-adv-x="1587" d="M1505 412q41 0 41 -41v-330q0 -41 -41 -41h-1349q-41 0 -41 41v1352q0 41 41 41h661q41 0 41 -41v-981h647zM1522 1008q41 0 41 -41v-328q0 -41 -41 -41h-428q-41 0 -41 41v328q0 41 41 41h428z" />
<glyph unicode="&#x140;" horiz-adv-x="1394" d="M807 41q0 -41 -41 -41h-625q-41 0 -41 41v1352q0 41 41 41h625q41 0 41 -41v-1352zM1401 553q0 -41 -41 -41h-428q-41 0 -41 41v328q0 41 41 41h428q41 0 41 -41v-328z" />
<glyph unicode="&#x141;" horiz-adv-x="1587" d="M1505 412q41 0 41 -41v-330q0 -41 -41 -41h-1349q-41 0 -41 41v391l-68 -24q-22 -7 -34.5 1.5t-12.5 30.5v316q0 32 33 45l82 28v564q0 41 41 41h661q41 0 41 -41v-299l252 88q22 7 34.5 -2t12.5 -31v-315q0 -33 -33 -46l-266 -94v-282h647z" />
<glyph unicode="&#x142;" horiz-adv-x="903" d="M1004 1157q22 7 34.5 -2t12.5 -31v-315q0 -32 -33 -45l-211 -74v-649q0 -41 -41 -41h-625q-41 0 -41 41v399l-159 -57q-22 -7 -34.5 2t-12.5 31v315q0 32 32 45l174 62v555q0 41 41 41h625q41 0 41 -41v-306z" />
<glyph unicode="&#x143;" horiz-adv-x="2039" d="M805 1509q-25 0 -32.5 16t7.5 36l203 251q19 25 51 25h492q28 0 35 -14.5t-13 -36.5l-254 -254q-20 -23 -49 -23h-440zM1890 1434q41 0 41 -41v-1352q0 -41 -41 -41h-796q-32 0 -45 33l-293 780l30 -281l15 -491q0 -41 -39 -41h-598q-41 0 -41 41v1352q0 41 41 41h794 q35 0 48 -33l297 -791l-33 295l-10 488q0 41 40 41h590z" />
<glyph unicode="&#x144;" horiz-adv-x="1744" d="M657 1147q-25 0 -32 15.5t8 35.5l203 252q19 25 51 25h491q28 0 35.5 -15t-12.5 -37l-254 -254q-19 -22 -49 -22h-441zM1214 1044q85 0 149.5 -9.5t111.5 -25.5t79.5 -44.5t52 -60t30.5 -79.5t14.5 -94.5t3.5 -112.5v-577q0 -41 -41 -41h-610q-41 0 -41 41v506 q0 66 -9.5 91.5t-35.5 25.5q-59 0 -95.5 -79.5t-36.5 -236.5v-307q0 -41 -41 -41h-610q-41 0 -41 41v942q0 41 41 41h610q41 0 41 -41v-135q52 87 158.5 141.5t269.5 54.5z" />
<glyph unicode="&#x145;" horiz-adv-x="2039" d="M1890 1434q41 0 41 -41v-1352q0 -41 -41 -41h-796q-32 0 -45 33l-293 780l30 -281l15 -491q0 -41 -39 -41h-598q-41 0 -41 41v1352q0 41 41 41h794q35 0 48 -33l297 -791l-33 295l-10 488q0 41 40 41h590zM1288 -104q24 0 32 -15t-5 -35l-275 -436q-17 -26 -49 -26h-358 q-21 0 -31 13t-4 34l117 430q8 35 45 35h528z" />
<glyph unicode="&#x146;" horiz-adv-x="1744" d="M1214 1044q85 0 149.5 -9.5t111.5 -25.5t79.5 -44.5t52 -60t30.5 -79.5t14.5 -94.5t3.5 -112.5v-577q0 -41 -41 -41h-610q-41 0 -41 41v506q0 66 -9.5 91.5t-35.5 25.5q-59 0 -95.5 -79.5t-36.5 -236.5v-307q0 -41 -41 -41h-610q-41 0 -41 41v942q0 41 41 41h610 q41 0 41 -41v-135q52 87 158.5 141.5t269.5 54.5zM1141 -104q23 0 31 -15t-5 -35l-274 -436q-17 -26 -49 -26h-359q-21 0 -30.5 13t-3.5 34l116 430q8 35 45 35h529z" />
<glyph unicode="&#x147;" horiz-adv-x="2039" d="M750 1534l-220 295q-15 22 -7.5 35.5t32.5 13.5h322q28 0 51 -23l92 -98l92 98q23 23 51 23h324q25 0 32 -13.5t-8 -35.5l-219 -295q-17 -25 -49 -25h-444q-32 0 -49 25zM1890 1434q41 0 41 -41v-1352q0 -41 -41 -41h-796q-32 0 -45 33l-293 780l30 -281l15 -491 q0 -41 -39 -41h-598q-41 0 -41 41v1352q0 41 41 41h794q35 0 48 -33l297 -791l-33 295l-10 488q0 41 40 41h590z" />
<glyph unicode="&#x148;" horiz-adv-x="1744" d="M602 1171l-219 295q-15 22 -7.5 36t32.5 14h321q28 0 51 -23l92 -98l93 98q23 23 51 23h323q25 0 32.5 -14t-7.5 -36l-219 -295q-16 -24 -49 -24h-445q-33 0 -49 24zM1214 1044q85 0 149.5 -9.5t111.5 -25.5t79.5 -44.5t52 -60t30.5 -79.5t14.5 -94.5t3.5 -112.5v-577 q0 -41 -41 -41h-610q-41 0 -41 41v506q0 66 -9.5 91.5t-35.5 25.5q-59 0 -95.5 -79.5t-36.5 -236.5v-307q0 -41 -41 -41h-610q-41 0 -41 41v942q0 41 41 41h610q41 0 41 -41v-135q52 87 158.5 141.5t269.5 54.5z" />
<glyph unicode="&#x149;" horiz-adv-x="1744" d="M360 1133q-18 -27 -49 -27h-356q-22 0 -32 12.5t-5 32.5l117 432q8 35 45 35h528q25 0 33 -14.5t-4 -34.5zM1214 1044q85 0 149.5 -9.5t111.5 -25.5t79.5 -44.5t52 -60t30.5 -79.5t14.5 -94.5t3.5 -112.5v-577q0 -41 -41 -41h-610q-41 0 -41 41v506q0 66 -9.5 91.5 t-35.5 25.5q-59 0 -95.5 -79.5t-36.5 -236.5v-307q0 -41 -41 -41h-610q-41 0 -41 41v942q0 41 41 41h610q41 0 41 -41v-135q52 87 158.5 141.5t269.5 54.5z" />
<glyph unicode="&#x14c;" d="M1399 1802q41 0 41 -41v-205q0 -40 -41 -40h-840q-41 0 -41 40v205q0 41 41 41h840zM981 -35q-220 0 -386.5 38t-271.5 103t-170 163t-90.5 206.5t-25.5 245.5q0 133 25.5 239t90.5 202t170 159.5t271.5 101t386.5 37.5t385.5 -37.5t270.5 -101t170 -159.5t90.5 -202 t25.5 -239q0 -137 -25.5 -245.5t-90.5 -206.5t-170 -163t-270.5 -103t-385.5 -38zM981 403q120 0 165.5 67t45.5 251q0 177 -46 246t-165 69q-120 0 -166.5 -69t-46.5 -246q0 -184 46 -251t167 -67z" />
<glyph unicode="&#x14d;" horiz-adv-x="1767" d="M1307 1434q41 0 41 -41v-205q0 -41 -41 -41h-840q-41 0 -41 41v205q0 41 41 41h840zM1706 506q0 116 -24 200t-79.5 150t-150 106.5t-233 61t-330.5 20.5q-193 0 -332 -21t-233 -61.5t-149.5 -107t-79 -150t-23.5 -198.5q0 -145 37 -240t129.5 -161.5t250.5 -95.5 t400 -29q195 0 335 20t233.5 59t148.5 104.5t77.5 147t22.5 195.5zM889 709q67 0 91 -51.5t24 -151.5q0 -105 -23 -148t-92 -43t-92 43t-23 148q0 100 24 151.5t91 51.5z" />
<glyph unicode="&#x14e;" d="M811 1802q11 0 19.5 -4.5t12 -9t13.5 -16.5q34 -43 123 -43q88 0 125 43q19 24 31 28q6 2 14 2h242q44 0 41 -43q-18 -131 -138.5 -197.5t-314.5 -66.5q-193 0 -313 66.5t-138 197.5q-3 43 41 43h242zM981 -35q-220 0 -386.5 38t-271.5 103t-170 163t-90.5 206.5 t-25.5 245.5q0 133 25.5 239t90.5 202t170 159.5t271.5 101t386.5 37.5t385.5 -37.5t270.5 -101t170 -159.5t90.5 -202t25.5 -239q0 -137 -25.5 -245.5t-90.5 -206.5t-170 -163t-270.5 -103t-385.5 -38zM981 403q120 0 165.5 67t45.5 251q0 177 -46 246t-165 69 q-120 0 -166.5 -69t-46.5 -246q0 -184 46 -251t167 -67z" />
<glyph unicode="&#x14f;" horiz-adv-x="1767" d="M719 1434q11 0 19.5 -5t12 -9t13.5 -17q34 -43 123 -43q88 0 125 43q1 1 4 5t4 5t3.5 4.5t3.5 4.5t4 3.5t4.5 3t4 2t5 2t6 1t6.5 0.5h241q44 0 41 -43q-18 -131 -138 -198t-314 -67q-192 0 -312.5 67t-138.5 198q-3 43 41 43h242zM1706 506q0 116 -24 200t-79.5 150 t-150 106.5t-233 61t-330.5 20.5q-193 0 -332 -21t-233 -61.5t-149.5 -107t-79 -150t-23.5 -198.5q0 -145 37 -240t129.5 -161.5t250.5 -95.5t400 -29q195 0 335 20t233.5 59t148.5 104.5t77.5 147t22.5 195.5zM889 709q67 0 91 -51.5t24 -151.5q0 -105 -23 -148t-92 -43 t-92 43t-23 148q0 100 24 151.5t91 51.5z" />
<glyph unicode="&#x150;" d="M469 1516q-25 0 -32.5 13.5t5.5 35.5l176 252q16 26 50 26h460q26 0 33 -15.5t-10 -35.5l-227 -254q-15 -22 -50 -22h-405zM1079 1516q-25 0 -31.5 15.5t11.5 35.5l227 254q15 22 49 22h455q28 0 34 -16t-14 -35l-280 -256q-20 -20 -51 -20h-400zM981 -35 q-220 0 -386.5 38t-271.5 103t-170 163t-90.5 206.5t-25.5 245.5q0 133 25.5 239t90.5 202t170 159.5t271.5 101t386.5 37.5t385.5 -37.5t270.5 -101t170 -159.5t90.5 -202t25.5 -239q0 -137 -25.5 -245.5t-90.5 -206.5t-170 -163t-270.5 -103t-385.5 -38zM981 403 q120 0 165.5 67t45.5 251q0 177 -46 246t-165 69q-120 0 -166.5 -69t-46.5 -246q0 -184 46 -251t167 -67z" />
<glyph unicode="&#x151;" horiz-adv-x="1767" d="M377 1147q-25 0 -32.5 13.5t5.5 35.5l176 252q16 27 49 27h461q26 0 33 -16t-10 -36l-228 -254q-15 -22 -49 -22h-405zM987 1147q-25 0 -31.5 15.5t11.5 35.5l227 254q15 23 49 23h455q28 0 34 -16.5t-14 -35.5l-280 -256q-20 -20 -52 -20h-399zM1706 506q0 116 -24 200 t-79.5 150t-150 106.5t-233 61t-330.5 20.5q-193 0 -332 -21t-233 -61.5t-149.5 -107t-79 -150t-23.5 -198.5q0 -145 37 -240t129.5 -161.5t250.5 -95.5t400 -29q195 0 335 20t233.5 59t148.5 104.5t77.5 147t22.5 195.5zM889 709q67 0 91 -51.5t24 -151.5q0 -105 -23 -148 t-92 -43t-92 43t-23 148q0 100 24 151.5t91 51.5z" />
<glyph unicode="&#x152;" horiz-adv-x="2736" d="M2593 1051h-815v-160h815q41 0 41 -41v-266q0 -41 -41 -41h-815v-160h815q41 0 41 -41v-301q0 -41 -41 -41h-1641q-206 0 -358.5 27t-259.5 80.5t-172.5 140t-95 198.5t-29.5 263q0 182 47 313t153 225.5t283.5 140.5t431.5 46h1641q41 0 41 -41v-301q0 -41 -41 -41z M938 408h147v618h-147q-117 0 -168 -82.5t-51 -234.5q0 -150 50.5 -225.5t168.5 -75.5z" />
<glyph unicode="&#x153;" horiz-adv-x="2699" d="M2648 465q0 -41 -41 -41h-885q3 -89 29.5 -123.5t99.5 -34.5q51 0 70 12t31 50q12 34 45 34h598q22 0 33 -6t8 -18q-19 -97 -63.5 -160.5t-135 -110t-237.5 -67t-367 -20.5q-318 0 -459 83q-140 -83 -485 -83q-242 0 -400 29t-250.5 95.5t-129.5 161.5t-37 240 q0 115 23.5 198.5t79 150t149.5 107t233 61.5t332 21q343 0 485 -90q145 90 459 90q131 0 232 -6.5t183.5 -22t141.5 -37.5t103.5 -58t72 -77t45.5 -101t26 -124.5t11 -152.5zM1839 758q-57 0 -91.5 -42t-37.5 -104h258q-3 83 -37 114.5t-92 31.5zM889 315q69 0 92 43 t23 148q0 100 -24 151.5t-91 51.5t-91 -51.5t-24 -151.5q0 -105 23 -148t92 -43z" />
<glyph unicode="&#x154;" horiz-adv-x="1849" d="M709 1509q-25 0 -32.5 16t7.5 36l203 251q19 25 51 25h492q28 0 35 -14.5t-13 -36.5l-254 -254q-20 -23 -49 -23h-440zM1815 49q12 -22 4 -35.5t-33 -13.5h-633q-33 0 -49 29l-211 391h-107v-379q0 -41 -41 -41h-600q-41 0 -41 41v1352q0 41 41 41h822q171 0 299.5 -12 t221.5 -39.5t154 -65.5t97 -95.5t50.5 -124.5t14.5 -157q0 -163 -58 -271.5t-208 -170.5zM961 774q95 0 130 35.5t35 97.5q0 56 -35 86.5t-130 30.5h-175v-250h175z" />
<glyph unicode="&#x155;" horiz-adv-x="1265" d="M420 1147q-25 0 -32.5 15.5t7.5 35.5l203 252q19 25 51 25h492q28 0 35 -15t-13 -37l-254 -254q-19 -22 -49 -22h-440zM1210 1055q43 0 43 -41v-373q0 -41 -43 -41q-91 -1 -155.5 -7t-110.5 -21t-73.5 -34t-43.5 -52t-21 -69t-5 -91v-285q0 -41 -41 -41h-625 q-41 0 -41 41v942q0 41 41 41h625q41 0 41 -41v-152q55 89 159 151.5t250 72.5z" />
<glyph unicode="&#x156;" horiz-adv-x="1849" d="M1815 49q12 -22 4 -35.5t-33 -13.5h-633q-33 0 -49 29l-211 391h-107v-379q0 -41 -41 -41h-600q-41 0 -41 41v1352q0 41 41 41h822q171 0 299.5 -12t221.5 -39.5t154 -65.5t97 -95.5t50.5 -124.5t14.5 -157q0 -163 -58 -271.5t-208 -170.5zM961 774q95 0 130 35.5 t35 97.5q0 56 -35 86.5t-130 30.5h-175v-250h175zM1192 -104q24 0 32 -15t-5 -35l-275 -436q-17 -26 -49 -26h-358q-21 0 -31 13t-4 34l116 430q8 35 46 35h528z" />
<glyph unicode="&#x157;" horiz-adv-x="1265" d="M1210 1055q43 0 43 -41v-373q0 -41 -43 -41q-91 -1 -155.5 -7t-110.5 -21t-73.5 -34t-43.5 -52t-21 -69t-5 -91v-285q0 -41 -41 -41h-625q-41 0 -41 41v942q0 41 41 41h625q41 0 41 -41v-152q55 89 159 151.5t250 72.5zM709 -104q23 0 31 -15t-5 -35l-274 -436 q-17 -26 -49 -26h-359q-21 0 -31 13t-4 34l117 430q8 35 45 35h529z" />
<glyph unicode="&#x158;" horiz-adv-x="1849" d="M653 1534l-219 295q-15 22 -7.5 35.5t32.5 13.5h321q28 0 51 -23l93 -98l92 98q23 23 51 23h324q25 0 32 -13.5t-8 -35.5l-219 -295q-17 -25 -49 -25h-445q-32 0 -49 25zM1815 49q12 -22 4 -35.5t-33 -13.5h-633q-33 0 -49 29l-211 391h-107v-379q0 -41 -41 -41h-600 q-41 0 -41 41v1352q0 41 41 41h822q171 0 299.5 -12t221.5 -39.5t154 -65.5t97 -95.5t50.5 -124.5t14.5 -157q0 -163 -58 -271.5t-208 -170.5zM961 774q95 0 130 35.5t35 97.5q0 56 -35 86.5t-130 30.5h-175v-250h175z" />
<glyph unicode="&#x159;" horiz-adv-x="1265" d="M365 1171l-220 295q-15 22 -7.5 36t32.5 14h322q28 0 51 -23l92 -98l92 98q23 23 51 23h324q25 0 32 -14t-8 -36l-219 -295q-16 -24 -49 -24h-444q-33 0 -49 24zM1210 1055q43 0 43 -41v-373q0 -41 -43 -41q-91 -1 -155.5 -7t-110.5 -21t-73.5 -34t-43.5 -52t-21 -69 t-5 -91v-285q0 -41 -41 -41h-625q-41 0 -41 41v942q0 41 41 41h625q41 0 41 -41v-152q55 89 159 151.5t250 72.5z" />
<glyph unicode="&#x15a;" horiz-adv-x="1875" d="M729 1516q-25 0 -32 15.5t8 35.5l202 252q19 24 51 24h492q28 0 35.5 -14.5t-12.5 -36.5l-254 -254q-19 -22 -50 -22h-440zM1819 434q0 -86 -15.5 -150t-53 -119.5t-101.5 -92.5t-161 -64t-230.5 -39t-311.5 -12q-176 0 -307.5 11.5t-228.5 38t-160 64t-102 94t-56 123 t-20 156.5q0 41 41 41h618q37 0 43 -39q7 -61 43.5 -81.5t138.5 -20.5q94 0 127 21.5t33 66.5q0 35 -35.5 56.5t-95.5 32.5t-138 18t-164 17t-172 25.5t-164 47.5t-138 78.5t-95.5 123.5t-35.5 177q0 91 22 159t80 127t155.5 96.5t251 58.5t363.5 21t356.5 -17.5t243 -51.5 t151.5 -93.5t77.5 -131.5t25.5 -179q0 -41 -41 -41h-618q-38 0 -41 39q-8 62 -40 82.5t-124 20.5q-96 0 -128 -20t-32 -66q0 -35 35.5 -57t95.5 -33t138 -18.5t164.5 -17.5t172.5 -25.5t164 -47.5t138 -78.5t95.5 -123.5t35.5 -177z" />
<glyph unicode="&#x15b;" horiz-adv-x="1697" d="M633 1147q-25 0 -32.5 15.5t7.5 35.5l203 252q19 25 51 25h492q28 0 35 -15t-13 -37l-254 -254q-19 -22 -49 -22h-440zM1642 317q0 -97 -33.5 -158t-122.5 -103t-240 -59t-390 -17q-232 0 -379.5 17.5t-235 59.5t-122 102t-39.5 156q-3 41 39 41h573q35 0 41 -41 q6 -38 32.5 -50.5t92.5 -12.5q64 0 88.5 15t24.5 48t-49 49t-127 20.5t-172 8.5t-188.5 20.5t-172.5 47.5t-127 98t-49 164q0 81 35.5 138t122 99.5t239 63t377.5 20.5q226 0 369 -16.5t228.5 -57.5t119.5 -100t39 -153q3 -41 -39 -41h-571q-35 0 -41 41q-6 37 -31 49 t-86 12q-59 0 -81 -14.5t-22 -48.5q0 -36 49.5 -53t128.5 -22t175 -8t191.5 -18t174.5 -44t128.5 -93.5t49.5 -159.5z" />
<glyph unicode="&#x15c;" horiz-adv-x="1875" d="M481 1516q-25 0 -32 13.5t8 35.5l219 295q16 24 49 24h442q34 0 50 -24l219 -295q15 -22 7.5 -35.5t-32.5 -13.5h-321q-30 0 -52 22l-92 98l-92 -98q-22 -22 -51 -22h-322zM1819 434q0 -86 -15.5 -150t-53 -119.5t-101.5 -92.5t-161 -64t-230.5 -39t-311.5 -12 q-176 0 -307.5 11.5t-228.5 38t-160 64t-102 94t-56 123t-20 156.5q0 41 41 41h618q37 0 43 -39q7 -61 43.5 -81.5t138.5 -20.5q94 0 127 21.5t33 66.5q0 35 -35.5 56.5t-95.5 32.5t-138 18t-164 17t-172 25.5t-164 47.5t-138 78.5t-95.5 123.5t-35.5 177q0 91 22 159 t80 127t155.5 96.5t251 58.5t363.5 21t356.5 -17.5t243 -51.5t151.5 -93.5t77.5 -131.5t25.5 -179q0 -41 -41 -41h-618q-38 0 -41 39q-8 62 -40 82.5t-124 20.5q-96 0 -128 -20t-32 -66q0 -35 35.5 -57t95.5 -33t138 -18.5t164.5 -17.5t172.5 -25.5t164 -47.5t138 -78.5 t95.5 -123.5t35.5 -177z" />
<glyph unicode="&#x15d;" horiz-adv-x="1697" d="M383 1147q-25 0 -32.5 13.5t7.5 35.5l220 295q17 25 49 25h442q32 0 49 -25l219 -295q15 -22 8 -35.5t-32 -13.5h-322q-29 0 -51 22l-92 99l-92 -99q-22 -22 -51 -22h-322zM1642 317q0 -97 -33.5 -158t-122.5 -103t-240 -59t-390 -17q-232 0 -379.5 17.5t-235 59.5 t-122 102t-39.5 156q-3 41 39 41h573q35 0 41 -41q6 -38 32.5 -50.5t92.5 -12.5q64 0 88.5 15t24.5 48t-49 49t-127 20.5t-172 8.5t-188.5 20.5t-172.5 47.5t-127 98t-49 164q0 81 35.5 138t122 99.5t239 63t377.5 20.5q226 0 369 -16.5t228.5 -57.5t119.5 -100t39 -153 q3 -41 -39 -41h-571q-35 0 -41 41q-6 37 -31 49t-86 12q-59 0 -81 -14.5t-22 -48.5q0 -36 49.5 -53t128.5 -22t175 -8t191.5 -18t174.5 -44t128.5 -93.5t49.5 -159.5z" />
<glyph unicode="&#x15e;" horiz-adv-x="1875" d="M1819 434q0 -111 -26.5 -187.5t-93 -136.5t-185 -94.5t-297.5 -48.5l-132 -270q-15 -31 -47 -31h-499q-25 0 -33 14.5t6 34.5l178 250q-146 10 -250.5 35t-174.5 62t-111.5 94.5t-60 125.5t-21.5 162q0 41 41 41h618q37 0 43 -39q7 -61 43.5 -81.5t138.5 -20.5 q94 0 127 21.5t33 66.5q0 35 -35.5 56.5t-95.5 32.5t-138 18t-164 17t-172 25.5t-164 47.5t-138 78.5t-95.5 123.5t-35.5 177q0 91 22 159t80 127t155.5 96.5t251 58.5t363.5 21t356.5 -17.5t243 -51.5t151.5 -93.5t77.5 -131.5t25.5 -179q0 -41 -41 -41h-618q-38 0 -41 39 q-8 62 -40 82.5t-124 20.5q-96 0 -128 -20t-32 -66q0 -35 35.5 -57t95.5 -33t138 -18.5t164.5 -17.5t172.5 -25.5t164 -47.5t138 -78.5t95.5 -123.5t35.5 -177z" />
<glyph unicode="&#x15f;" horiz-adv-x="1697" d="M1642 317q0 -109 -44.5 -174t-158 -104.5t-317.5 -52.5l-141 -289q-15 -31 -47 -31h-500q-25 0 -32.5 14.5t6.5 34.5l192 271q-199 13 -312 53t-158 104.5t-50 171.5q-3 41 39 41h573q35 0 41 -41q6 -38 32.5 -50.5t92.5 -12.5q64 0 88.5 15t24.5 48t-49 49t-127 20.5 t-172 8.5t-188.5 20.5t-172.5 47.5t-127 98t-49 164q0 81 35.5 138t122 99.5t239 63t377.5 20.5q226 0 369 -16.5t228.5 -57.5t119.5 -100t39 -153q3 -41 -39 -41h-571q-35 0 -41 41q-6 37 -31 49t-86 12q-59 0 -81 -14.5t-22 -48.5q0 -36 49.5 -53t128.5 -22t175 -8 t191.5 -18t174.5 -44t128.5 -93.5t49.5 -159.5z" />
<glyph unicode="&#x160;" horiz-adv-x="1875" d="M455 1835q-15 22 -8 35.5t32 13.5h322q29 0 51 -22l92 -99l92 99q22 22 51 22h324q25 0 32.5 -13.5t-7.5 -35.5l-219 -295q-16 -24 -50 -24h-444q-33 0 -49 24zM1819 434q0 -86 -15.5 -150t-53 -119.5t-101.5 -92.5t-161 -64t-230.5 -39t-311.5 -12q-176 0 -307.5 11.5 t-228.5 38t-160 64t-102 94t-56 123t-20 156.5q0 41 41 41h618q37 0 43 -39q7 -61 43.5 -81.5t138.5 -20.5q94 0 127 21.5t33 66.5q0 35 -35.5 56.5t-95.5 32.5t-138 18t-164 17t-172 25.5t-164 47.5t-138 78.5t-95.5 123.5t-35.5 177q0 91 22 159t80 127t155.5 96.5 t251 58.5t363.5 21t356.5 -17.5t243 -51.5t151.5 -93.5t77.5 -131.5t25.5 -179q0 -41 -41 -41h-618q-38 0 -41 39q-8 62 -40 82.5t-124 20.5q-96 0 -128 -20t-32 -66q0 -35 35.5 -57t95.5 -33t138 -18.5t164.5 -17.5t172.5 -25.5t164 -47.5t138 -78.5t95.5 -123.5t35.5 -177 z" />
<glyph unicode="&#x161;" horiz-adv-x="1697" d="M358 1466q-15 22 -7.5 36t32.5 14h322q28 0 51 -23l92 -98l92 98q23 23 51 23h324q25 0 32 -14t-8 -36l-219 -295q-16 -24 -49 -24h-444q-33 0 -49 24zM1642 317q0 -97 -33.5 -158t-122.5 -103t-240 -59t-390 -17q-232 0 -379.5 17.5t-235 59.5t-122 102t-39.5 156 q-3 41 39 41h573q35 0 41 -41q6 -38 32.5 -50.5t92.5 -12.5q64 0 88.5 15t24.5 48t-49 49t-127 20.5t-172 8.5t-188.5 20.5t-172.5 47.5t-127 98t-49 164q0 81 35.5 138t122 99.5t239 63t377.5 20.5q226 0 369 -16.5t228.5 -57.5t119.5 -100t39 -153q3 -41 -39 -41h-571 q-35 0 -41 41q-6 37 -31 49t-86 12q-59 0 -81 -14.5t-22 -48.5q0 -36 49.5 -53t128.5 -22t175 -8t191.5 -18t174.5 -44t128.5 -93.5t49.5 -159.5z" />
<glyph unicode="&#x162;" horiz-adv-x="1828" d="M1774 1434q41 0 41 -41v-330q0 -41 -41 -41h-480v-981q0 -41 -41 -41h-57l-147 -303q-15 -31 -48 -31h-499q-25 0 -33 14.5t6 34.5l203 285h-80q-41 0 -41 41v981h-479q-41 0 -41 41v330q0 41 41 41h1696z" />
<glyph unicode="&#x163;" horiz-adv-x="1206" d="M893 655v-155q-2 -36 0 -63.5t4 -49t11.5 -35.5t23 -22.5t38 -11.5t57 -1t79.5 9q47 6 47 -37v-246q0 -38 -70 -47q-67 -9 -133 -12l-139 -287q-15 -31 -47 -31h-500q-25 0 -32.5 14.5t6.5 34.5l211 295q-144 48 -198.5 161.5t-49.5 317.5v166h-125q-41 0 -41 41v289 q0 41 41 41h125v367q0 41 41 41h610q41 0 41 -41v-367h219q41 0 41 -41v-289q0 -41 -41 -41h-219z" />
<glyph unicode="&#x164;" horiz-adv-x="1828" d="M643 1534l-219 295q-15 22 -7.5 35.5t32.5 13.5h321q28 0 51 -23l92 -98l93 98q23 23 51 23h323q25 0 32.5 -13.5t-7.5 -35.5l-219 -295q-17 -25 -49 -25h-445q-32 0 -49 25zM1774 1434q41 0 41 -41v-330q0 -41 -41 -41h-480v-981q0 -41 -41 -41h-655q-41 0 -41 41v981 h-479q-41 0 -41 41v330q0 41 41 41h1696z" />
<glyph unicode="&#x165;" horiz-adv-x="1206" d="M276 1540l-219 295q-15 22 -7.5 35.5t32.5 13.5h321q30 0 52 -22l92 -99l92 99q22 22 51 22h324q25 0 32 -13.5t-8 -35.5l-219 -295q-16 -24 -49 -24h-444q-34 0 -50 24zM893 655v-155q-2 -36 0 -63.5t4 -49t11.5 -35.5t23 -22.5t38 -11.5t57 -1t79.5 9q47 6 47 -37v-246 q0 -38 -70 -47q-185 -21 -320.5 -23t-235.5 17.5t-163 56.5t-100.5 102t-51 145.5t-11.5 194.5v166h-125q-41 0 -41 41v289q0 41 41 41h125v367q0 41 41 41h610q41 0 41 -41v-367h219q41 0 41 -41v-289q0 -41 -41 -41h-219z" />
<glyph unicode="&#x166;" horiz-adv-x="1828" d="M1774 1434q41 0 41 -41v-330q0 -41 -41 -41h-480v-207h101q41 0 41 -41v-258q0 -41 -41 -41h-101v-434q0 -41 -41 -41h-655q-41 0 -41 41v434h-80q-41 0 -41 41v258q0 41 41 41h80v207h-479q-41 0 -41 41v330q0 41 41 41h1696z" />
<glyph unicode="&#x167;" horiz-adv-x="1206" d="M1112 655h-219v-61h217q41 0 41 -41v-123q0 -41 -41 -41h-215q9 -54 51.5 -67t159.5 4q47 6 47 -37v-246q0 -38 -70 -47q-170 -19 -298 -22.5t-225.5 11t-163 45t-108 82t-62.5 118.5t-25 159h-123q-41 0 -41 41v123q0 41 41 41h123v61h-125q-41 0 -41 41v289q0 41 41 41 h125v367q0 41 41 41h610q41 0 41 -41v-367h219q41 0 41 -41v-289q0 -41 -41 -41z" />
<glyph unicode="&#x168;" horiz-adv-x="1996" d="M1413 1796q45 28 45 -18v-172q0 -32 -18 -50q-66 -63 -176 -63q-65 0 -138 17t-127.5 37.5t-126.5 37.5t-135 17q-88 0 -155 -46q-45 -28 -45 21v170q0 30 16 51q64 64 176 64q66 0 138.5 -17.5t127 -38t126 -38t134.5 -17.5q88 0 158 45zM1178 680v713q0 41 41 41h641 q41 0 41 -41v-713q0 -130 -17.5 -229t-58.5 -182.5t-108 -140.5t-166.5 -96.5t-233.5 -58t-309 -18.5q-211 0 -363 27.5t-255 81.5t-164 143.5t-87 203t-26 269.5v713q0 41 41 41h641q41 0 41 -41v-713q0 -88 7 -139.5t28 -82t52 -40.5t85 -10t85 10t51 40.5t27 81.5t7 140z " />
<glyph unicode="&#x169;" horiz-adv-x="1765" d="M467 1194q-45 -28 -45 20v170q0 31 16 52q63 63 176 63q82 0 174.5 -27.5t183 -55t169.5 -27.5q87 0 157 45q45 28 45 -19v-172q0 -31 -18 -49q-67 -64 -176 -64q-65 0 -137.5 17t-127 37.5t-126.5 37.5t-135 17q-91 0 -156 -45zM1614 1024q41 0 41 -41v-942 q0 -41 -41 -41h-610q-41 0 -41 41v135q-52 -87 -158.5 -141.5t-269.5 -54.5q-85 0 -149.5 9.5t-111.5 25.5t-79.5 44.5t-52 60t-30.5 79.5t-14.5 94.5t-3.5 112.5v577q0 41 41 41h610q41 0 41 -41v-506q0 -66 9.5 -91.5t35.5 -25.5q59 0 95.5 79.5t36.5 236.5v307 q0 41 41 41h610z" />
<glyph unicode="&#x16a;" horiz-adv-x="1996" d="M1417 1796q41 0 41 -41v-205q0 -41 -41 -41h-839q-41 0 -41 41v205q0 41 41 41h839zM1178 680v713q0 41 41 41h641q41 0 41 -41v-713q0 -130 -17.5 -229t-58.5 -182.5t-108 -140.5t-166.5 -96.5t-233.5 -58t-309 -18.5q-211 0 -363 27.5t-255 81.5t-164 143.5t-87 203 t-26 269.5v713q0 41 41 41h641q41 0 41 -41v-713q0 -88 7 -139.5t28 -82t52 -40.5t85 -10t85 10t51 40.5t27 81.5t7 140z" />
<glyph unicode="&#x16b;" horiz-adv-x="1765" d="M463 1147q-41 0 -41 41v205q0 41 41 41h840q40 0 40 -41v-205q0 -41 -40 -41h-840zM1614 1024q41 0 41 -41v-942q0 -41 -41 -41h-610q-41 0 -41 41v135q-52 -87 -158.5 -141.5t-269.5 -54.5q-85 0 -149.5 9.5t-111.5 25.5t-79.5 44.5t-52 60t-30.5 79.5t-14.5 94.5 t-3.5 112.5v577q0 41 41 41h610q41 0 41 -41v-506q0 -66 9.5 -91.5t35.5 -25.5q59 0 95.5 79.5t36.5 236.5v307q0 41 41 41h610z" />
<glyph unicode="&#x16c;" horiz-adv-x="1996" d="M829 1796q11 0 19.5 -5t12 -9t13.5 -17q34 -43 123 -43q88 0 125 43q1 1 4 5t4 5t3.5 4.5t3.5 4.5t4 3.5t4.5 3t4 2t5 2t6 1t6.5 0.5h242q44 0 41 -43q-18 -131 -138.5 -197.5t-314.5 -66.5q-192 0 -312 66.5t-138 197.5q-3 43 41 43h241zM1178 680v713q0 41 41 41h641 q41 0 41 -41v-713q0 -130 -17.5 -229t-58.5 -182.5t-108 -140.5t-166.5 -96.5t-233.5 -58t-309 -18.5q-211 0 -363 27.5t-255 81.5t-164 143.5t-87 203t-26 269.5v713q0 41 41 41h641q41 0 41 -41v-713q0 -88 7 -139.5t28 -82t52 -40.5t85 -10t85 10t51 40.5t27 81.5t7 140z " />
<glyph unicode="&#x16d;" horiz-adv-x="1765" d="M883 1126q-192 0 -312.5 67t-138.5 198q-3 43 41 43h242q11 0 19.5 -5t12 -9t13.5 -17q34 -43 123 -43q88 0 125 43q1 1 4 5t4 5t3.5 4.5t3.5 4.5t4 3.5t4.5 3t4 2t5 2t6 1t6.5 0.5h241q44 0 41 -43q-18 -131 -138 -198t-314 -67zM1614 1024q41 0 41 -41v-942 q0 -41 -41 -41h-610q-41 0 -41 41v135q-52 -87 -158.5 -141.5t-269.5 -54.5q-85 0 -149.5 9.5t-111.5 25.5t-79.5 44.5t-52 60t-30.5 79.5t-14.5 94.5t-3.5 112.5v577q0 41 41 41h610q41 0 41 -41v-506q0 -66 9.5 -91.5t35.5 -25.5q59 0 95.5 79.5t36.5 236.5v307 q0 41 41 41h610z" />
<glyph unicode="&#x16e;" horiz-adv-x="1996" d="M1860 1434q41 0 41 -41v-713q0 -130 -17.5 -229t-58.5 -182.5t-108 -140.5t-166.5 -96.5t-233.5 -58t-309 -18.5q-211 0 -363 27.5t-255 81.5t-164 143.5t-87 203t-26 269.5v713q0 41 41 41h637q-54 45 -84.5 109t-30.5 136q0 132 95 227t228 95q132 0 227 -95t95 -227 q0 -151 -117 -247q4 2 15 2h641zM999 1751q-29 0 -50 -21.5t-21 -50.5t21 -50t50 -21t50.5 21t21.5 50t-21.5 50.5t-50.5 21.5zM1178 680v713q0 13 6 22q-82 -57 -185 -57q-90 0 -163 45v-10v-713q0 -88 7 -139.5t28 -82t52 -40.5t85 -10t85 10t51 40.5t27 81.5t7 140z" />
<glyph unicode="&#x16f;" horiz-adv-x="1765" d="M1614 1024q41 0 41 -41v-942q0 -41 -41 -41h-610q-41 0 -41 41v135q-52 -87 -158.5 -141.5t-269.5 -54.5q-85 0 -149.5 9.5t-111.5 25.5t-79.5 44.5t-52 60t-30.5 79.5t-14.5 94.5t-3.5 112.5v577q0 41 41 41h610h5q-86 39 -138.5 117.5t-52.5 175.5q0 132 95.5 226.5 t228.5 94.5q132 0 226.5 -94.5t94.5 -226.5q0 -97 -51.5 -175.5t-136.5 -117.5h598zM883 1389q-29 0 -50.5 -21.5t-21.5 -50.5t21.5 -50.5t50.5 -21.5t50 21.5t21 50.5t-21 50.5t-50 21.5zM831 360q59 0 95.5 79.5t36.5 236.5v307q0 16 6 25q-44 -13 -86 -13q-55 0 -107 19 q10 -13 10 -31v-506q0 -66 9.5 -91.5t35.5 -25.5z" />
<glyph unicode="&#x170;" horiz-adv-x="1996" d="M487 1509q-25 0 -32 14t6 36l176 251q16 27 49 27h461q26 0 32.5 -15.5t-10.5 -35.5l-227 -254q-15 -23 -49 -23h-406zM1098 1509q-25 0 -32 16t11 36l228 254q15 22 49 22h454q28 0 34.5 -16t-13.5 -35l-281 -256q-21 -21 -51 -21h-399zM1178 680v713q0 41 41 41h641 q41 0 41 -41v-713q0 -130 -17.5 -229t-58.5 -182.5t-108 -140.5t-166.5 -96.5t-233.5 -58t-309 -18.5q-211 0 -363 27.5t-255 81.5t-164 143.5t-87 203t-26 269.5v713q0 41 41 41h641q41 0 41 -41v-713q0 -88 7 -139.5t28 -82t52 -40.5t85 -10t85 10t51 40.5t27 81.5t7 140z " />
<glyph unicode="&#x171;" horiz-adv-x="1765" d="M373 1147q-25 0 -32.5 13.5t5.5 35.5l176 252q16 27 49 27h461q26 0 33 -16t-10 -36l-228 -254q-15 -22 -49 -22h-405zM1694 1475q28 0 34 -16.5t-14 -35.5l-280 -256q-20 -20 -52 -20h-399q-25 0 -31.5 15.5t11.5 35.5l227 254q15 23 49 23h455zM1614 1024q41 0 41 -41 v-942q0 -41 -41 -41h-610q-41 0 -41 41v135q-52 -87 -158.5 -141.5t-269.5 -54.5q-85 0 -149.5 9.5t-111.5 25.5t-79.5 44.5t-52 60t-30.5 79.5t-14.5 94.5t-3.5 112.5v577q0 41 41 41h610q41 0 41 -41v-506q0 -66 9.5 -91.5t35.5 -25.5q59 0 95.5 79.5t36.5 236.5v307 q0 41 41 41h610z" />
<glyph unicode="&#x172;" horiz-adv-x="1996" d="M1860 1434q41 0 41 -41v-713q0 -155 -25.5 -267.5t-85 -201t-161 -144t-249.5 -83.5q-146 -49 -195.5 -73.5t-39.5 -45.5q3 -13 35.5 -7.5t67 17.5t69.5 27q37 18 55 -21l74 -160q16 -39 -21 -57q-115 -45 -235.5 -56t-215 10.5t-155.5 78t-61 137.5q0 82 57 127 q-164 12 -283.5 47.5t-200 92t-129 142.5t-69 191t-20.5 246v713q0 41 41 41h641q41 0 41 -41v-713q0 -88 7 -139.5t28 -82t52 -40.5t85 -10t85 10t51 40.5t27 81.5t7 140v713q0 41 41 41h641z" />
<glyph unicode="&#x173;" horiz-adv-x="1765" d="M1614 1024q41 0 41 -41v-942q0 -41 -41 -41h-96q-104 -34 -154 -51.5t-92.5 -35.5t-53 -30t-4.5 -24q3 -13 35.5 -7.5t67 17.5t69.5 27q37 18 56 -21l74 -160q16 -39 -21 -57q-115 -45 -235.5 -56t-215.5 10.5t-156 78t-61 137.5q0 134 156 176q-20 10 -20 37v135 q-52 -87 -158.5 -141.5t-269.5 -54.5q-85 0 -149.5 9.5t-111.5 25.5t-79.5 44.5t-52 60t-30.5 79.5t-14.5 94.5t-3.5 112.5v577q0 41 41 41h610q41 0 41 -41v-506q0 -66 9.5 -91.5t35.5 -25.5q59 0 95.5 79.5t36.5 236.5v307q0 41 41 41h610z" />
<glyph unicode="&#x174;" horiz-adv-x="2428" d="M768 1509q-25 0 -32.5 14t7.5 36l220 294q17 25 49 25h442q32 0 49 -25l219 -294q15 -22 8 -36t-32 -14h-322q-28 0 -51 23l-92 98l-92 -98q-23 -23 -51 -23h-322zM2370 1434q20 0 30.5 -12.5t7.5 -32.5l-210 -1352q-5 -37 -46 -37h-772q-40 0 -45 37l-51 323l-51 474 l-51 -474l-52 -323q-5 -37 -45 -37h-772q-40 0 -45 37l-211 1352q-3 20 8 32.5t31 12.5h586q40 0 43 -39l68 -897l24 209l125 690q6 37 43 37h496q37 0 43 -37l125 -690l24 -209l68 897q3 39 43 39h586z" />
<glyph unicode="&#x175;" horiz-adv-x="2267" d="M670 1147q-25 0 -32.5 13.5t7.5 35.5l219 295q17 25 49 25h443q32 0 49 -25l219 -295q15 -22 7.5 -35.5t-32.5 -13.5h-321q-29 0 -51 22l-92 99l-93 -99q-22 -22 -51 -22h-321zM2220 1024q22 0 32 -12.5t5 -32.5l-201 -942q-6 -37 -43 -37h-735q-39 0 -45 37l-47 231 l-39 299l-39 -299l-49 -231q-6 -37 -43 -37h-733q-38 0 -47 35l-226 944q-5 20 5 32.5t32 12.5h557q40 0 43 -39l78 -623l29 195l98 430q10 37 45 37h502q39 0 45 -37l96 -430l27 -195l78 623q3 39 43 39h532z" />
<glyph unicode="&#x176;" horiz-adv-x="1890" d="M481 1509q-25 0 -32 14t8 36l219 294q17 25 49 25h442q33 0 50 -25l219 -294q15 -22 7.5 -36t-32.5 -14h-321q-29 0 -52 23l-92 98l-92 -98q-23 -23 -51 -23h-322zM1872 1434q25 0 33 -15t-4 -35l-584 -954v-389q0 -41 -41 -41h-670q-41 0 -41 41v399l-583 944 q-14 20 -6.5 35t32.5 15h684q36 0 47 -31l146 -352l55 -177l55 177l146 352q11 31 47 31h684z" />
<glyph unicode="&#x177;" horiz-adv-x="1839" d="M457 1147q-25 0 -32.5 13.5t7.5 35.5l219 295q17 25 49 25h443q32 0 49 -25l219 -295q15 -22 7.5 -35.5t-32.5 -13.5h-321q-29 0 -51 22l-92 99l-93 -99q-22 -22 -51 -22h-321zM1786 1024q23 0 31.5 -13.5t-0.5 -35.5l-668 -1354q-13 -31 -49 -31h-606q-23 0 -31.5 14 t0.5 36l145 317l-577 1018q-11 22 -3.5 35.5t31.5 13.5h648q35 0 47 -35l147 -450l25 -148l26 148l152 452q9 33 45 33h637z" />
<glyph unicode="&#x178;" horiz-adv-x="1890" d="M467 1509q-41 0 -41 41v205q0 41 41 41h381q41 0 41 -41v-205q0 -41 -41 -41h-381zM1042 1509q-41 0 -41 41v205q0 41 41 41h381q41 0 41 -41v-205q0 -41 -41 -41h-381zM1872 1434q25 0 33 -15t-4 -35l-584 -954v-389q0 -41 -41 -41h-670q-41 0 -41 41v399l-583 944 q-14 20 -6.5 35t32.5 15h684q36 0 47 -31l146 -352l55 -177l55 177l146 352q11 31 47 31h684z" />
<glyph unicode="&#x179;" horiz-adv-x="1681" d="M625 1528q-25 0 -32.5 15.5t7.5 35.5l203 252q19 24 51 24h492q28 0 35 -14.5t-13 -36.5l-254 -254q-19 -22 -49 -22h-440zM1616 1098l-483 -561l-146 -125h606q41 0 41 -41v-330q0 -41 -41 -41h-1487q-40 0 -40 41v246q0 25 18 49l465 541l170 145h-596q-41 0 -41 41 v330q0 41 41 41h1470q41 0 41 -41v-246q0 -25 -18 -49z" />
<glyph unicode="&#x17a;" horiz-adv-x="1492" d="M532 1147q-25 0 -32 15.5t8 35.5l203 252q19 25 51 25h491q28 0 35.5 -15t-12.5 -37l-254 -254q-19 -22 -49 -22h-441zM1407 766l-344 -326l-139 -90h465q41 0 41 -41v-268q0 -41 -41 -41h-1246q-41 0 -41 41v168q0 28 23 51l344 326l135 88h-446q-41 0 -41 41v268 q0 41 41 41h1231q41 0 41 -41v-168q0 -32 -23 -49z" />
<glyph unicode="&#x17b;" horiz-adv-x="1681" d="M645 1528q-41 0 -41 41v205q0 41 41 41h391q41 0 41 -41v-205q0 -41 -41 -41h-391zM1616 1098l-483 -561l-146 -125h606q41 0 41 -41v-330q0 -41 -41 -41h-1487q-40 0 -40 41v246q0 25 18 49l465 541l170 145h-596q-41 0 -41 41v330q0 41 41 41h1470q41 0 41 -41v-246 q0 -25 -18 -49z" />
<glyph unicode="&#x17c;" horiz-adv-x="1492" d="M551 1147q-41 0 -41 41v205q0 41 41 41h391q41 0 41 -41v-205q0 -41 -41 -41h-391zM1407 766l-344 -326l-139 -90h465q41 0 41 -41v-268q0 -41 -41 -41h-1246q-41 0 -41 41v168q0 28 23 51l344 326l135 88h-446q-41 0 -41 41v268q0 41 41 41h1231q41 0 41 -41v-168 q0 -32 -23 -49z" />
<glyph unicode="&#x17d;" horiz-adv-x="1681" d="M569 1552l-219 295q-15 22 -7.5 35.5t32.5 13.5h321q30 0 52 -22l92 -98l92 98q22 22 51 22h324q25 0 32 -13.5t-8 -35.5l-219 -295q-16 -24 -49 -24h-445q-33 0 -49 24zM1616 1098l-483 -561l-146 -125h606q41 0 41 -41v-330q0 -41 -41 -41h-1487q-40 0 -40 41v246 q0 25 18 49l465 541l170 145h-596q-41 0 -41 41v330q0 41 41 41h1470q41 0 41 -41v-246q0 -25 -18 -49z" />
<glyph unicode="&#x17e;" horiz-adv-x="1492" d="M475 1171l-219 295q-15 22 -7.5 36t32.5 14h321q28 0 51 -23l92 -98l93 98q23 23 51 23h323q25 0 32.5 -14t-7.5 -36l-219 -295q-16 -24 -49 -24h-445q-33 0 -49 24zM1407 766l-344 -326l-139 -90h465q41 0 41 -41v-268q0 -41 -41 -41h-1246q-41 0 -41 41v168q0 28 23 51 l344 326l135 88h-446q-41 0 -41 41v268q0 41 41 41h1231q41 0 41 -41v-168q0 -32 -23 -49z" />
<glyph unicode="&#x1fa;" horiz-adv-x="1972" d="M819 1786q-28 0 -33.5 15.5t13.5 35.5l149 160q20 20 49 20h469q29 0 34.5 -17t-19.5 -32l-287 -168q-22 -14 -51 -14h-324zM1950 47q6 -22 -3.5 -34.5t-31.5 -12.5h-658q-36 0 -45 35l-41 176h-380l-41 -178q-9 -35 -45 -35l-658 2q-22 0 -31.5 12.5t-3.5 34.5l416 1239 q9 33 47 33h211q-22 61 -22 121q0 132 94.5 226.5t226.5 94.5q133 0 228.5 -94.5t95.5 -226.5q0 -51 -25 -121h207q36 0 47 -33zM985 1511q-29 0 -50.5 -21t-21.5 -50t21.5 -50.5t50.5 -21.5t50.5 21.5t21.5 50.5t-21.5 50t-50.5 21zM870 561h222l-93 402l-18 133l-18 -133z " />
<glyph unicode="&#x1fb;" horiz-adv-x="1753" d="M662 1655q-25 0 -32.5 15.5t7.5 35.5l203 254q19 22 51 22h491q28 0 35.5 -14.5t-12.5 -36.5l-254 -254q-19 -22 -49 -22h-440zM1632 1024q41 0 41 -41v-942q0 -41 -41 -41h-610q-41 0 -41 41v88q-156 -149 -436 -149q-137 0 -225.5 23t-151 82t-89 161.5t-26.5 261.5 q0 161 26 264t87.5 164t150.5 84.5t228 23.5q76 0 162 -14q-70 44 -112 117t-42 158q0 132 95.5 226.5t228.5 94.5q132 0 226.5 -94.5t94.5 -226.5q0 -88 -44.5 -163.5t-117.5 -117.5h596zM877 1376q-29 0 -50.5 -21t-21.5 -50q0 -30 21 -51t51 -21q29 0 50 20.5t21 51.5 q0 29 -21 50t-50 21zM877 981h-21q74 -36 125 -84v86q0 12 2 16q-49 -18 -106 -18zM840 322q59 0 110 53.5t51 142.5q0 78 -52 131t-109 53q-52 0 -80.5 -43.5t-28.5 -150.5q0 -186 109 -186z" />
<glyph unicode="&#x1fc;" horiz-adv-x="2578" d="M1075 1495q-25 0 -32 15.5t8 35.5l202 252q19 25 52 25h491q28 0 35.5 -14.5t-12.5 -36.5l-254 -254q-20 -23 -49 -23h-441zM748 33q-9 -35 -46 -35l-655 2q-22 0 -31.5 12.5t-3.5 34.5l457 1354q9 33 47 33h1919q41 0 41 -41v-301q0 -41 -41 -41h-821l37 -160h784 q41 0 41 -41v-266q0 -41 -41 -41h-702l41 -160h661q41 0 41 -41v-301q0 -41 -41 -41h-1178q-40 0 -40 6v4l-46 201h-380zM870 561h222l-93 402l-18 133l-18 -133z" />
<glyph unicode="&#x1fd;" horiz-adv-x="2672" d="M1090 1147q-25 0 -32.5 15.5t7.5 35.5l203 252q19 25 51 25h491q28 0 35.5 -15t-12.5 -37l-254 -254q-19 -22 -49 -22h-440zM2621 465q0 -41 -41 -41h-884q3 -89 29.5 -123.5t99.5 -34.5q51 0 69.5 12t30.5 50q12 34 45 34h598q22 0 31.5 -11.5t5.5 -31.5 q-29 -122 -105.5 -193t-244 -108.5t-449.5 -37.5q-415 0 -600 112q-76 -57 -231.5 -90t-378.5 -33q-205 0 -323.5 36t-169 110.5t-50.5 201.5q0 72 33 125.5t88.5 84t127 50t151 27t159.5 11.5t151.5 6.5t127 8.5t88.5 21.5t33 42.5q0 34 -23 49t-86 15q-65 0 -92 -12.5 t-33 -49.5q-6 -41 -41 -41h-598q-41 0 -41 19q2 103 34.5 168t118 113t238.5 68.5t394 20.5q292 0 417 -77q184 77 506 77q131 0 232 -6.5t183.5 -22t141.5 -37.5t103.5 -58t72 -77t45.5 -101t26 -124.5t11 -152.5zM1812 758q-57 0 -91.5 -42t-37.5 -104h259 q-3 82 -37.5 114t-92.5 32zM858 272q87 0 120.5 20.5t33.5 84.5v41q-74 -8 -110.5 -12.5t-82 -14t-64 -23t-18.5 -32.5q0 -33 25.5 -48.5t95.5 -15.5z" />
<glyph unicode="&#x1fe;" d="M764 1516q-25 0 -32.5 15.5t7.5 35.5l203 252q19 24 51 24h492q28 0 35 -14.5t-13 -36.5l-254 -254q-19 -22 -49 -22h-440zM2005 1411q22 10 35.5 2t13.5 -31v-342q0 -34 -29 -49l-122 -59q20 -94 20 -211q0 -137 -25.5 -245.5t-90.5 -206.5t-170 -163t-270.5 -103 t-385.5 -38q-507 0 -737 201l-293 -146q-20 -11 -33.5 -2.5t-13.5 31.5v342q0 35 28 49l125 62q-20 97 -20 219q0 133 25.5 239t90.5 202t170 159.5t271.5 101t386.5 37.5q505 0 731 -194zM981 403q120 0 165.5 67t45.5 251q0 177 -46 246t-165 69q-120 0 -166.5 -69 t-46.5 -246q0 -184 46 -251t167 -67z" />
<glyph unicode="&#x1ff;" horiz-adv-x="1773" d="M672 1147q-25 0 -32.5 15.5t7.5 35.5l203 252q19 25 51 25h492q28 0 35 -15t-13 -37l-254 -254q-19 -22 -49 -22h-440zM1712 1202q20 12 34.5 4t14.5 -32v-340q0 -34 -26 -48l-66 -38q37 -93 37 -242q0 -114 -22.5 -195.5t-77.5 -147t-148.5 -104.5t-233.5 -59t-335 -20 q-313 0 -486 51l-344 -209q-20 -13 -34.5 -5t-14.5 31v340q0 32 27 50l67 41q-32 88 -32 227q0 115 23.5 198.5t79 150t149.5 107t233 61.5t332 21q306 0 479 -51zM889 315q69 0 92 43t23 148q0 100 -24 151.5t-91 51.5t-91 -51.5t-24 -151.5q0 -105 23 -148t92 -43z" />
<glyph unicode="&#x218;" horiz-adv-x="1875" d="M1819 434q0 -86 -15.5 -150t-53 -119.5t-101.5 -92.5t-161 -64t-230.5 -39t-311.5 -12q-176 0 -307.5 11.5t-228.5 38t-160 64t-102 94t-56 123t-20 156.5q0 41 41 41h618q37 0 43 -39q7 -61 43.5 -81.5t138.5 -20.5q94 0 127 21.5t33 66.5q0 35 -35.5 56.5t-95.5 32.5 t-138 18t-164 17t-172 25.5t-164 47.5t-138 78.5t-95.5 123.5t-35.5 177q0 91 22 159t80 127t155.5 96.5t251 58.5t363.5 21t356.5 -17.5t243 -51.5t151.5 -93.5t77.5 -131.5t25.5 -179q0 -41 -41 -41h-618q-38 0 -41 39q-8 62 -40 82.5t-124 20.5q-96 0 -128 -20t-32 -66 q0 -35 35.5 -57t95.5 -33t138 -18.5t164.5 -17.5t172.5 -25.5t164 -47.5t138 -78.5t95.5 -123.5t35.5 -177zM971 -590q-17 -26 -49 -26h-359q-21 0 -31 13t-4 34l117 430q8 35 45 35h529q23 0 31 -15t-5 -35z" />
<glyph unicode="&#x219;" horiz-adv-x="1697" d="M1642 317q0 -97 -33.5 -158t-122.5 -103t-240 -59t-390 -17q-232 0 -379.5 17.5t-235 59.5t-122 102t-39.5 156q-3 41 39 41h573q35 0 41 -41q6 -38 32.5 -50.5t92.5 -12.5q64 0 88.5 15t24.5 48t-49 49t-127 20.5t-172 8.5t-188.5 20.5t-172.5 47.5t-127 98t-49 164 q0 81 35.5 138t122 99.5t239 63t377.5 20.5q226 0 369 -16.5t228.5 -57.5t119.5 -100t39 -153q3 -41 -39 -41h-571q-35 0 -41 41q-6 37 -31 49t-86 12q-59 0 -81 -14.5t-22 -48.5q0 -36 49.5 -53t128.5 -22t175 -8t191.5 -18t174.5 -44t128.5 -93.5t49.5 -159.5zM868 -590 q-17 -26 -49 -26h-358q-21 0 -31 13t-4 34l117 430q8 35 45 35h528q24 0 32 -15t-5 -35z" />
<glyph unicode="&#x21a;" horiz-adv-x="1828" d="M1774 1434q41 0 41 -41v-330q0 -41 -41 -41h-480v-981q0 -41 -41 -41h-655q-41 0 -41 41v981h-479q-41 0 -41 41v330q0 41 41 41h1696zM1184 -104q23 0 31 -15t-5 -35l-274 -436q-17 -26 -49 -26h-359q-21 0 -30.5 13t-3.5 34l116 430q8 35 45 35h529z" />
<glyph unicode="&#x21b;" horiz-adv-x="1206" d="M893 655v-155q-2 -36 0 -63.5t4 -49t11.5 -35.5t23 -22.5t38 -11.5t57 -1t79.5 9q47 6 47 -37v-246q0 -38 -70 -47q-185 -21 -320.5 -23t-235.5 17.5t-163 56.5t-100.5 102t-51 145.5t-11.5 194.5v166h-125q-41 0 -41 41v289q0 41 41 41h125v367q0 41 41 41h610 q41 0 41 -41v-367h219q41 0 41 -41v-289q0 -41 -41 -41h-219zM946 -104q24 0 32 -15t-5 -35l-275 -436q-17 -26 -49 -26h-358q-21 0 -31 13t-4 34l117 430q8 35 45 35h528z" />
<glyph unicode="&#x237;" horiz-adv-x="890" d="M801 -369q0 -41 -41 -41h-625q-41 0 -41 41v1352q0 41 41 41h625q41 0 41 -41v-1352z" />
<glyph unicode="&#x300;" horiz-adv-x="0" d="M-39 1198q15 -20 8 -35.5t-32 -15.5h-441q-30 0 -49 22l-254 254q-20 22 -12.5 37t35.5 15h491q32 0 51 -25z" />
<glyph unicode="&#x301;" horiz-adv-x="0" d="M-793 1147q-25 0 -32 15.5t8 35.5l203 252q19 25 51 25h491q28 0 35.5 -15t-12.5 -37l-254 -254q-19 -22 -49 -22h-441z" />
<glyph unicode="&#x302;" horiz-adv-x="0" d="M-1077 1147q-25 0 -32.5 13.5t7.5 35.5l219 295q17 25 49 25h443q32 0 49 -25l219 -295q15 -22 8 -35.5t-32 -13.5h-322q-29 0 -51 22l-92 99l-93 -99q-22 -22 -51 -22h-321z" />
<glyph unicode="&#x303;" horiz-adv-x="0" d="M-45 1434q45 28 45 -19v-172q0 -31 -18 -49q-33 -32 -81.5 -48t-95.5 -16q-65 0 -137.5 17t-127 37.5t-126.5 37.5t-135 17q-91 0 -156 -45q-45 -28 -45 20v170q0 29 17 52q63 63 176 63q82 0 174 -27.5t182.5 -55t169.5 -27.5q88 0 158 45z" />
<glyph unicode="&#x304;" horiz-adv-x="0" d="M-41 1434q41 0 41 -41v-205q0 -41 -41 -41h-840q-41 0 -41 41v205q0 41 41 41h840z" />
<glyph unicode="&#x306;" horiz-adv-x="0" d="M-623 1434q11 0 19.5 -5t12 -9t13.5 -17q34 -43 123 -43q88 0 125 43q1 1 4 5t4 5t3.5 4.5t3.5 4.5t4 3.5t4.5 3t4 2t5 2t6 1t6.5 0.5h242q44 0 41 -43q-18 -131 -138.5 -198t-314.5 -67q-192 0 -312 67t-138 198q-3 43 41 43h241z" />
<glyph unicode="&#x307;" horiz-adv-x="0" d="M0 1188q0 -41 -41 -41h-391q-41 0 -41 41v205q0 41 41 41h391q41 0 41 -41v-205z" />
<glyph unicode="&#x308;" horiz-adv-x="0" d="M-594 1188q0 -41 -41 -41h-381q-41 0 -41 41v205q0 41 41 41h381q41 0 41 -41v-205zM-18 1188q0 -41 -41 -41h-381q-41 0 -41 41v205q0 41 41 41h381q41 0 41 -41v-205z" />
<glyph unicode="&#x30a;" horiz-adv-x="0" d="M-242 995q-134 0 -228.5 94.5t-94.5 227.5q0 132 95 226.5t228 94.5q132 0 227 -94.5t95 -226.5q0 -133 -95 -227.5t-227 -94.5zM-242 1245q29 0 50.5 21.5t21.5 50.5t-21.5 50.5t-50.5 21.5t-50 -21.5t-21 -50.5t21 -50.5t50 -21.5z" />
<glyph unicode="&#x30b;" horiz-adv-x="0" d="M-1397 1147q-25 0 -32 13.5t6 35.5l176 252q16 27 49 27h461q26 0 32.5 -16t-10.5 -36l-227 -254q-15 -22 -49 -22h-406zM-786 1147q-25 0 -32 15.5t11 35.5l227 254q15 23 50 23h454q28 0 34.5 -16.5t-13.5 -35.5l-281 -256q-20 -20 -51 -20h-399z" />
<glyph unicode="&#x30c;" horiz-adv-x="0" d="M-1040 1466q-15 22 -8 36t32 14h322q28 0 51 -23l92 -98l92 98q23 23 51 23h324q25 0 32.5 -14t-7.5 -36l-220 -295q-16 -24 -49 -24h-444q-33 0 -49 24z" />
<glyph unicode="&#x326;" horiz-adv-x="0" d="M-305 -590q-17 -26 -49 -26h-359q-21 0 -31 13t-4 34l117 430q8 35 45 35h529q23 0 31 -15t-5 -35z" />
<glyph unicode="&#x327;" horiz-adv-x="0" d="M-27 90q23 0 31.5 -13.5t-0.5 -35.5l-168 -344q-16 -31 -47 -31h-500q-25 0 -32.5 14.5t6.5 34.5l250 351q18 24 49 24h411z" />
<glyph unicode="&#x328;" horiz-adv-x="0" d="M-45 -299q16 -39 -21 -57q-115 -45 -235.5 -56t-215 10.5t-155.5 78t-61 137.5q0 155 205 186h528q-117 -38 -175 -58t-105 -40t-59.5 -32.5t-6.5 -25.5q3 -13 35.5 -7.5t67 17.5t69.5 27q37 18 55 -20z" />
<glyph unicode="&#x335;" horiz-adv-x="0" d="M-1180 1378q0 41 41 41h918q41 0 41 -41v-258q0 -41 -41 -41h-918q-41 0 -41 41v258z" />
<glyph unicode="&#x336;" horiz-adv-x="0" d="M-2005 1356q0 41 41 41h1923q41 0 41 -41v-213q0 -41 -41 -41h-1923q-41 0 -41 41v213z" />
<glyph unicode="&#x401;" horiz-adv-x="1744" d="M393 1556q-41 0 -41 41v205q0 41 41 41h381q41 0 41 -41v-205q0 -41 -41 -41h-381zM969 1556q-41 0 -41 41v205q0 41 41 41h381q41 0 41 -41v-205q0 -41 -41 -41h-381zM1602 1051h-816v-160h816q40 0 40 -41v-266q0 -41 -40 -41h-816v-160h816q40 0 40 -41v-301 q0 -41 -40 -41h-1446q-41 0 -41 41v1352q0 41 41 41h1446q40 0 40 -41v-301q0 -41 -40 -41z" />
<glyph unicode="&#x404;" horiz-adv-x="1841" d="M1761 489q44 0 41 -43q-8 -97 -38.5 -170t-94 -133.5t-163 -98.5t-248 -58.5t-347.5 -20.5q-206 0 -361 38t-252 103t-157 163t-83 206.5t-23 245.5q0 133 23 239t83 202t157 159.5t252 101t361 37.5q171 0 304.5 -13.5t229 -41t162 -65.5t107.5 -91t61 -112.5t27 -135.5 q3 -40 -41 -40h-610q-34 0 -43 38q-11 45 -52.5 65.5t-123.5 20.5q-98 0 -139 -51.5t-50 -181.5h490q41 0 41 -41v-184q0 -41 -41 -41h-492q9 -148 49 -199t142 -51q96 0 134 24.5t44 88.5q3 40 43 40h608z" />
<glyph unicode="&#x406;" horiz-adv-x="1009" d="M887 41q0 -41 -41 -41h-670q-41 0 -41 41v1352q0 41 41 41h670q41 0 41 -41v-1352z" />
<glyph unicode="&#x407;" horiz-adv-x="1009" d="M449 1550q0 -41 -41 -41h-381q-41 0 -41 41v205q0 41 41 41h381q41 0 41 -41v-205zM1024 1550q0 -41 -41 -41h-381q-41 0 -41 41v205q0 41 41 41h381q41 0 41 -41v-205zM887 41q0 -41 -41 -41h-670q-41 0 -41 41v1352q0 41 41 41h670q41 0 41 -41v-1352z" />
<glyph unicode="&#x410;" horiz-adv-x="1972" d="M1950 47q6 -22 -3.5 -34.5t-31.5 -12.5h-658q-36 0 -45 35l-41 176h-380l-41 -178q-9 -35 -45 -35l-658 2q-22 0 -31.5 12.5t-3.5 34.5l457 1354q9 33 47 33h930q38 0 47 -33zM870 561h222l-93 402l-18 133l-18 -133z" />
<glyph unicode="&#x411;" horiz-adv-x="1855" d="M961 877q325 0 507 -42.5t259 -134.5t77 -254q0 -89 -17 -154.5t-58.5 -116.5t-103.5 -83.5t-159 -53.5t-218 -29.5t-287 -8.5h-816q-41 0 -41 41v1352q0 41 41 41h1446q41 0 41 -41v-336q0 -41 -41 -41h-784v-139h154zM946 377q86 0 119 22.5t33 63.5q0 45 -32.5 66.5 t-119.5 21.5h-139v-174h139z" />
<glyph unicode="&#x412;" horiz-adv-x="1896" d="M1561 737q151 -20 217.5 -109t66.5 -222q0 -221 -161.5 -313.5t-540.5 -92.5h-998q-41 0 -41 41v1352q0 41 41 41h957q158 0 267.5 -10t196.5 -34t137 -66.5t75.5 -105.5t25.5 -153q0 -64 -10 -113.5t-35 -95.5t-75 -76.5t-123 -42.5zM1147 969q0 43 -26 64.5t-87 21.5 h-258v-178h258q113 0 113 92zM1055 387q112 0 112 90q0 53 -25.5 77t-86.5 24h-279v-191h279z" />
<glyph unicode="&#x413;" horiz-adv-x="1693" d="M1602 1434q40 0 40 -41v-336q0 -41 -40 -41h-785v-975q0 -41 -41 -41h-620q-41 0 -41 41v1352q0 41 41 41h1446z" />
<glyph unicode="&#x414;" horiz-adv-x="1951" d="M1903 369q41 0 41 -41v-533q0 -41 -41 -41h-549q-41 0 -41 41v205h-686v-205q0 -41 -41 -41h-547q-41 0 -41 41v533q0 41 41 41h117q61 31 99.5 97.5t61.5 186.5l150 744q9 37 45 37h1249q41 0 41 -41v-1024h101zM922 643q-19 -125 -47.5 -186t-81.5 -88h381v639h-201z " />
<glyph unicode="&#x415;" horiz-adv-x="1744" d="M1602 1051h-816v-160h816q40 0 40 -41v-266q0 -41 -40 -41h-816v-160h816q40 0 40 -41v-301q0 -41 -40 -41h-1446q-41 0 -41 41v1352q0 41 41 41h1446q40 0 40 -41v-301q0 -41 -40 -41z" />
<glyph unicode="&#x416;" horiz-adv-x="2572" d="M2073 717l462 -668q13 -22 6 -35.5t-32 -13.5h-664q-33 0 -47 29l-168 323l-55 183v-494q0 -41 -41 -41h-528q-41 0 -41 41v489l-54 -178l-168 -323q-15 -29 -47 -29h-665q-25 0 -33 14.5t6 34.5l469 668l-467 667q-13 22 -5.5 36t32.5 14h665q32 0 47 -29l166 -324 l54 -178v490q0 41 41 41h528q41 0 41 -41v-492l55 180l166 324q14 29 47 29h666q25 0 32 -14t-6 -36z" />
<glyph unicode="&#x417;" horiz-adv-x="1878" d="M1729 639q44 -50 62.5 -107.5t18.5 -138.5q0 -77 -18.5 -134.5t-73.5 -112.5t-148.5 -89.5t-250.5 -55.5t-373 -21q-182 0 -310.5 9.5t-225 34t-155 58.5t-95 91.5t-50.5 124.5t-16 165q0 41 41 41h617q41 0 41 -41q4 -75 33.5 -98t119.5 -23q69 0 101 25t32 84 q0 127 -133 127h-358q-41 0 -41 40v213q0 41 41 41h358q36 0 55 2.5t43 12t35 33.5t11 63q0 60 -35 84.5t-119 24.5q-69 0 -93.5 -21.5t-27.5 -79.5q-3 -41 -43 -41h-616q-41 0 -41 41q3 94 17 159t50 119.5t93 87.5t149.5 56t215.5 32t296 9q220 0 377.5 -19t251 -51 t147 -84.5t71 -108t17.5 -132.5q0 -149 -71 -258q-27 -40 -119 -86q58 -27 80.5 -41.5t38.5 -34.5z" />
<glyph unicode="&#x418;" horiz-adv-x="2039" d="M1876 1434q41 0 41 -41v-1352q0 -41 -41 -41h-598q-39 0 -39 41l14 491l29 277l-289 -776q-13 -33 -47 -33h-796q-41 0 -41 41v1352q0 41 41 41h589q41 0 41 -41l-10 -488l-31 -293l297 789q13 33 45 33h795z" />
<glyph unicode="&#x419;" horiz-adv-x="2039" d="M1020 1536q-193 0 -313 66.5t-138 197.5q-3 43 41 43h242q11 0 19.5 -5t12 -9t13.5 -17q34 -43 123 -43q88 0 125 43q1 1 4 5t4 5t3.5 4.5t3.5 4.5t4 3.5t4.5 3t4 2t5 2t6 1t6.5 0.5h242q44 0 41 -43q-18 -131 -138.5 -197.5t-314.5 -66.5zM1876 1434q41 0 41 -41v-1352 q0 -41 -41 -41h-598q-39 0 -39 41l14 491l29 277l-289 -776q-13 -33 -47 -33h-796q-41 0 -41 41v1352q0 41 41 41h589q41 0 41 -41l-10 -488l-31 -293l297 789q13 33 45 33h795z" />
<glyph unicode="&#x41a;" horiz-adv-x="1947" d="M1911 49q15 -20 8 -34.5t-33 -14.5h-733q-33 0 -49 29l-201 344l-96 -74v-258q0 -41 -41 -41h-621q-41 0 -41 41v1352q0 41 41 41h621q41 0 41 -41v-265l-10 -196l71 127l238 350q19 25 49 25h709q26 0 33.5 -16t-9.5 -36l-512 -589z" />
<glyph unicode="&#x41b;" d="M1823 1434q41 0 41 -41v-1352q0 -41 -41 -41h-631q-41 0 -41 41v967h-178l-64 -459q-12 -80 -23.5 -139.5t-32.5 -136.5t-53.5 -141.5t-74.5 -111.5q-20 -20 -49 -20h-627q-26 0 -31.5 13.5t9.5 35.5q121 154 194 512l168 836q6 37 45 37h1389z" />
<glyph unicode="&#x41c;" horiz-adv-x="2418" d="M2261 1434q41 0 41 -41v-1352q0 -41 -41 -41h-532q-39 0 -39 41l28 928l-110 -561q-59 -262 -90 -373q-8 -35 -45 -35h-549q-36 0 -45 33q-15 50 -38.5 144t-40.5 163l-16 68l-104 528l31 -895q0 -41 -39 -41h-539q-41 0 -41 41v1352q0 41 41 41h871q35 0 45 -37l53 -240 l80 -541l16 -186l14 186l80 541l54 240q10 37 45 37h870z" />
<glyph unicode="&#x41d;" horiz-adv-x="1914" d="M1780 1434q41 0 41 -41v-1352q0 -41 -41 -41h-631q-41 0 -41 41v463h-301v-463q0 -41 -41 -41h-631q-41 0 -41 41v1352q0 41 41 41h631q41 0 41 -41v-463h301v463q0 41 41 41h631z" />
<glyph unicode="&#x41e;" d="M981 -35q-220 0 -386.5 38t-271.5 103t-170 163t-90.5 206.5t-25.5 245.5q0 133 25.5 239t90.5 202t170 159.5t271.5 101t386.5 37.5t385.5 -37.5t270.5 -101t170 -159.5t90.5 -202t25.5 -239q0 -137 -25.5 -245.5t-90.5 -206.5t-170 -163t-270.5 -103t-385.5 -38z M981 403q120 0 165.5 67t45.5 251q0 177 -46 246t-165 69q-120 0 -166.5 -69t-46.5 -246q0 -184 46 -251t167 -67z" />
<glyph unicode="&#x41f;" horiz-adv-x="1914" d="M1780 1434q41 0 41 -41v-1352q0 -41 -41 -41h-631q-41 0 -41 41v967h-301v-967q0 -41 -41 -41h-631q-41 0 -41 41v1352q0 41 41 41h1645z" />
<glyph unicode="&#x420;" horiz-adv-x="1826" d="M961 1434q165 0 286.5 -10t218 -33.5t159 -60.5t104 -94t58.5 -130t17 -172q0 -114 -26 -196t-84.5 -144t-157.5 -99.5t-239.5 -56t-335.5 -18.5h-154v-379q0 -41 -41 -41h-621q-41 0 -41 41v1352q0 41 41 41h816zM961 774q95 0 130 35.5t35 97.5q0 56 -35 86.5 t-130 30.5h-154v-250h154z" />
<glyph unicode="&#x421;" d="M1225 856q-37 0 -43 41q-10 89 -49 119.5t-132 30.5q-116 0 -154 -70.5t-38 -255.5q0 -197 37 -262.5t155 -65.5q103 0 139.5 35t45.5 145q3 41 41 41h635q42 0 39 -41q-6 -108 -27 -190.5t-65 -152.5t-112.5 -118t-169 -82t-235.5 -49.5t-311 -15.5q-154 0 -280 19.5 t-219 54.5t-163.5 88t-115.5 115t-73.5 140.5t-40 160t-11.5 178.5q0 94 11.5 173.5t40 156.5t73.5 137.5t115.5 112.5t163.5 86.5t219 53.5t280 19q220 0 374 -20t258.5 -60t165.5 -110t88.5 -158t33.5 -217q3 -41 -39 -41z" />
<glyph unicode="&#x422;" horiz-adv-x="1828" d="M1774 1434q41 0 41 -41v-330q0 -41 -41 -41h-480v-981q0 -41 -41 -41h-655q-41 0 -41 41v981h-479q-41 0 -41 41v330q0 41 41 41h1696z" />
<glyph unicode="&#x423;" horiz-adv-x="1748" d="M1735 1434q23 0 31 -14t-1 -36l-667 -1353q-13 -31 -49 -31h-607q-23 0 -31 13.5t1 35.5l145 318l-577 1017q-12 22 -4.5 36t30.5 14h649q36 0 45 -35l150 -451l24 -145l25 145l152 453q11 33 47 33h637z" />
<glyph unicode="&#x424;" horiz-adv-x="2418" d="M2357 711q0 -96 -13 -166t-47.5 -133.5t-94.5 -106.5t-154 -77t-226 -53.5t-311 -27.5v-147h-593v147q-153 7 -271 22.5t-207.5 39t-153 59t-105.5 77.5t-66 100t-33.5 120.5t-9.5 145.5q0 96 13.5 167t48.5 135.5t95.5 108.5t154 78.5t225.5 54.5t309 29v234h593v-234 q177 -8 308.5 -27.5t225 -54t154.5 -78.5t96 -108.5t48.5 -136t13.5 -168.5zM717 711q0 -45 2 -70.5t9.5 -52.5t22 -40t41.5 -25.5t65 -18t95 -8.5v438q-56 -5 -95 -12t-65 -21t-41 -28.5t-22.5 -41.5t-9.5 -52t-2 -68zM1477 496q57 3 95.5 8.5t65.5 18t41 25.5t22 40.5 t9.5 52t1.5 70.5q0 44 -2 68t-9 51.5t-22 42t-41 28.5t-65 21t-96 12v-438z" />
<glyph unicode="&#x425;" horiz-adv-x="1951" d="M1489 717l428 -668q13 -22 6 -35.5t-31 -13.5h-682q-32 0 -47 31l-153 301l-49 139l-50 -139l-153 -301q-16 -31 -47 -31h-684q-24 0 -31 13.5t6 35.5l432 668l-430 667q-13 22 -6 36t31 14h684q34 0 47 -31l151 -301l50 -139l49 139l151 301q13 31 47 31h684 q24 0 31 -14t-6 -36z" />
<glyph unicode="&#x426;" horiz-adv-x="2021" d="M1972 424q41 0 41 -41v-588q0 -41 -41 -41h-545q-41 0 -41 41v205h-1251q-41 0 -41 41v1352q0 41 41 41h631q41 0 41 -41v-967h301v967q0 41 41 41h631q41 0 41 -41v-969h151z" />
<glyph unicode="&#x427;" horiz-adv-x="1888" d="M1753 1434q41 0 41 -41v-1352q0 -41 -41 -41h-635q-41 0 -41 41l2 424q-273 -98 -600 -98q-215 0 -309 98.5t-94 308.5v619q0 41 41 41h631q40 0 40 -41v-463q0 -74 20.5 -97.5t82.5 -23.5q94 0 190 35v549q0 41 41 41h631z" />
<glyph unicode="&#x428;" horiz-adv-x="2342" d="M2208 1434q41 0 41 -41v-1352q0 -41 -41 -41h-2073q-41 0 -41 41v1352q0 41 41 41h539q41 0 41 -41v-1010h184v1012q0 41 41 41h463q41 0 41 -41v-1012h182v1010q0 41 41 41h541z" />
<glyph unicode="&#x429;" horiz-adv-x="2447" d="M2398 424q41 0 41 -41v-588q0 -41 -41 -41h-547q-41 0 -41 41v205h-1675q-41 0 -41 41v1352q0 41 41 41h539q41 0 41 -41v-1010h184v1012q0 41 41 41h463q41 0 41 -41v-1012h182v1010q0 41 41 41h541q41 0 41 -41v-969h149z" />
<glyph unicode="&#x42a;" horiz-adv-x="2295" d="M1384 1014q195 0 336 -18.5t239.5 -56t157.5 -99.5t85 -144t26 -196q0 -119 -26.5 -201.5t-84 -142t-158.5 -93t-238.5 -48.5t-336.5 -15h-815q-41 0 -41 41v975h-450q-41 0 -41 41v336q0 41 41 41h1112q41 0 41 -41v-379h153zM1384 410q95 0 130.5 30t35.5 86 q0 62 -35.5 97.5t-130.5 35.5h-153v-249h153z" />
<glyph unicode="&#x42b;" horiz-adv-x="2836" d="M961 1014q195 0 335.5 -18.5t239.5 -56t157.5 -99.5t84.5 -144t26 -196q0 -99 -17 -172t-58.5 -130t-104 -94t-159 -60.5t-218 -33.5t-286.5 -10h-816q-41 0 -41 41v1352q0 41 41 41h621q41 0 41 -41v-379h154zM2673 1434q41 0 41 -41v-1352q0 -41 -41 -41h-670 q-41 0 -41 41v1352q0 41 41 41h670zM961 410q95 0 130 30t35 86q0 62 -35 97.5t-130 35.5h-154v-249h154z" />
<glyph unicode="&#x42c;" horiz-adv-x="1826" d="M961 1014q195 0 335.5 -18.5t239.5 -56t157.5 -99.5t84.5 -144t26 -196q0 -99 -17 -172t-58.5 -130t-104 -94t-159 -60.5t-218 -33.5t-286.5 -10h-816q-41 0 -41 41v1352q0 41 41 41h621q41 0 41 -41v-379h154zM961 410q95 0 130 30t35 86q0 62 -35 97.5t-130 35.5h-154 v-249h154z" />
<glyph unicode="&#x42d;" horiz-adv-x="1841" d="M930 1460q206 0 361 -37.5t252 -101t157 -159.5t83 -202t23 -239q0 -137 -23 -245.5t-83 -206.5t-157 -163t-252 -103t-361 -38q-199 0 -347.5 20.5t-248 58.5t-163 98.5t-94 133.5t-38.5 170q-3 43 41 43h608q40 0 43 -40q6 -64 44 -88.5t134 -24.5q103 0 143.5 51 t47.5 199h-492q-41 0 -41 41v184q0 41 41 41h492q-11 130 -52.5 181.5t-138.5 51.5q-82 0 -123.5 -20.5t-52.5 -65.5q-9 -38 -43 -38h-610q-44 0 -41 40q7 76 27 135.5t61 112.5t107.5 91t162 65.5t229 41t304.5 13.5z" />
<glyph unicode="&#x42e;" horiz-adv-x="2689" d="M1767 1460q203 0 358 -37t254.5 -101.5t162 -159.5t87.5 -202t25 -239q0 -136 -25 -245.5t-87.5 -207t-162 -162.5t-254.5 -103t-358 -38q-197 0 -346 38.5t-245.5 112t-152.5 169t-81 219.5h-135v-463q0 -41 -41 -41h-631q-41 0 -41 41v1352q0 41 41 41h631q41 0 41 -41 v-463h135q104 530 825 530zM1726 403q120 0 165.5 67t45.5 251q0 177 -46 246t-165 69q-120 0 -167.5 -69t-47.5 -246q0 -184 46.5 -251t168.5 -67z" />
<glyph unicode="&#x42f;" horiz-adv-x="1849" d="M1704 1434q41 0 41 -41v-1352q0 -41 -41 -41h-600q-41 0 -41 41v379h-107l-211 -391q-16 -29 -49 -29h-633q-25 0 -32.5 13.5t4.5 35.5l276 449q-149 62 -207.5 171t-58.5 271q0 109 21.5 185t76 137.5t150 97.5t240.5 55t350 19h821zM723 907q0 -62 35.5 -97.5 t130.5 -35.5h174v250h-174q-95 0 -130.5 -30.5t-35.5 -86.5z" />
<glyph unicode="&#x430;" horiz-adv-x="1763" d="M883 1044q236 0 394 -20.5t246 -63t124 -99t36 -138.5v-682q0 -41 -41 -41h-569q-41 0 -41 41v78q-153 -150 -436 -150q-205 0 -323.5 36t-169 110.5t-50.5 201.5q0 93 53 156t137.5 93t186.5 45.5t204.5 20t187 10t137.5 22.5t53 51t-23 48.5t-86 14.5q-66 0 -92.5 -12 t-32.5 -49q-6 -41 -41 -41h-598q-41 0 -41 18q2 68 15.5 116t47.5 89t89.5 67t143.5 44.5t207 26t282 7.5zM858 272q87 0 120.5 20.5t33.5 84.5v41q-74 -8 -110.5 -12.5t-82 -14t-64 -23t-18.5 -32.5q0 -33 25.5 -48.5t95.5 -15.5z" />
<glyph unicode="&#x431;" horiz-adv-x="1931" d="M1343 969q144 0 237 -25t149 -83.5t78 -144t22 -216.5q0 -148 -41 -244.5t-141 -159.5t-259 -89.5t-403 -26.5q-155 0 -271 7.5t-208.5 28t-154.5 46t-107 74t-70 97.5t-39 131t-17.5 161t-2.5 200q0 92 6 157t26 140t55.5 125.5t98 101t150.5 79.5t215.5 47t291.5 18 q65 0 90.5 7t32.5 30q6 19 15.5 27.5t27.5 8.5h516q41 0 41 -24q-4 -148 -66 -231t-213 -123.5t-423 -40.5q-71 0 -102.5 -12.5t-45.5 -49t-16 -117.5q132 101 528 101zM987 352q160 0 160 146q0 66 -26 102.5t-97 36.5q-121 0 -209 -47q2 -58 6 -96t13.5 -65.5t20 -42 t32 -22.5t42.5 -10t58 -2z" />
<glyph unicode="&#x432;" horiz-adv-x="1880" d="M1556 528q205 -26 205 -237q0 -110 -57.5 -170.5t-205 -90.5t-417.5 -30h-899q-41 0 -41 41v942q0 41 41 41h871q169 0 279 -7t192.5 -23t125.5 -47t63 -75t20 -110q0 -96 -38 -157t-139 -77zM1098 678q0 32 -18.5 47.5t-61.5 15.5h-242v-129h242q80 0 80 66zM1032 291 q80 0 80 65q0 38 -18.5 55t-61.5 17h-256v-137h256z" />
<glyph unicode="&#x433;" horiz-adv-x="1290" d="M1239 1024q41 0 41 -41v-289q0 -41 -41 -41h-446v-612q0 -41 -41 -41h-611q-41 0 -41 41v942q0 41 41 41h1098z" />
<glyph unicode="&#x434;" horiz-adv-x="1882" d="M1761 315q41 0 41 -41v-479q0 -41 -41 -41h-569q-41 0 -41 41v205h-446v-205q0 -41 -41 -41h-570q-41 0 -41 41v479q0 41 41 41h19q29 7 56 40t53 91t44.5 109t42.5 127l103 309q11 33 45 33h1202q41 0 41 -41v-668h61zM911 637q-55 -289 -127 -322h285v373h-145z" />
<glyph unicode="&#x435;" horiz-adv-x="1712" d="M1661 465q0 -41 -41 -41h-885q3 -89 29.5 -123.5t99.5 -34.5q51 0 70 12t31 50q12 34 45 34h598q22 0 31.5 -11.5t5.5 -31.5q-29 -122 -105.5 -193t-244 -108.5t-449.5 -37.5q-142 0 -256 13.5t-196.5 37t-143.5 60.5t-98.5 79t-60.5 98t-31.5 112t-8.5 126 q0 97 17.5 171.5t68.5 146t137.5 118t230.5 74.5t341 28q131 0 232 -6.5t183.5 -22t141.5 -37.5t103.5 -58t72 -77t45.5 -101t26 -124.5t11 -152.5zM852 758q-57 0 -91.5 -42t-37.5 -104h258q-3 83 -37 114.5t-92 31.5z" />
<glyph unicode="&#x436;" horiz-adv-x="2293" d="M1915 512l366 -461q15 -22 8.5 -36.5t-32.5 -14.5h-576q-31 0 -49 27l-145 219l-51 131v-336q0 -41 -41 -41h-492q-41 0 -41 41v340l-53 -135l-139 -219q-18 -27 -49 -27h-582q-25 0 -32.5 15.5t9.5 35.5l371 463l-369 459q-17 20 -9.5 35.5t32.5 15.5h575q32 0 50 -27 l143 -217l53 -133v336q0 41 41 41h492q41 0 41 -41v-332l51 129l145 217q18 27 49 27h578q25 0 32 -14.5t-10 -36.5z" />
<glyph unicode="&#x437;" horiz-adv-x="1718" d="M1567 469q48 -39 66 -83t18 -107q0 -40 -7 -70.5t-28 -63t-57 -56t-96.5 -45t-144 -35t-203 -21.5t-269.5 -8q-172 0 -293 6.5t-210.5 24t-143 41t-86.5 64t-45 86.5t-15 115q0 41 41 41h586q40 0 43 -41q3 -46 27.5 -60.5t95.5 -14.5q60 0 85 17t25 60q0 53 -27.5 73 t-82.5 20h-318q-41 0 -41 41v131q0 41 41 41h318q26 0 40 1t31.5 5t26 12t15 23.5t6.5 38.5q0 43 -27.5 60t-99.5 17q-55 0 -75.5 -12.5t-25.5 -48.5q-6 -41 -43 -41h-583q-41 0 -41 41q3 67 15 112t44.5 83.5t84.5 61t139 38.5t203 22t282 6q153 0 272 -7t203.5 -19 t144.5 -32.5t95.5 -42t55.5 -53t26.5 -61t6.5 -69.5q0 -125 -75 -197q-33 -28 -88 -51q69 -30 88 -43z" />
<glyph unicode="&#x438;" horiz-adv-x="1859" d="M1729 1024q40 0 40 -41v-942q0 -41 -40 -41h-582q-39 0 -39 41l10 340l21 188l-178 -536q-11 -33 -46 -33h-780q-41 0 -41 41v942q0 41 41 41h576q41 0 41 -41l-7 -336l-22 -203l182 547q11 33 45 33h779z" />
<glyph unicode="&#x439;" horiz-adv-x="1859" d="M930 1126q-192 0 -312.5 67t-138.5 198q-3 43 41 43h242q11 0 19.5 -5t12 -9t13.5 -17q34 -43 123 -43q88 0 125 43q1 1 4 5t4 5t3.5 4.5t3.5 4.5t4 3.5t4.5 3t4 2t5 2t6 1t6.5 0.5h241q44 0 41 -43q-18 -131 -138 -198t-314 -67zM1729 1024q40 0 40 -41v-942 q0 -41 -40 -41h-582q-39 0 -39 41l10 340l21 188l-178 -536q-11 -33 -46 -33h-780q-41 0 -41 41v942q0 41 41 41h576q41 0 41 -41l-7 -336l-22 -203l182 547q11 33 45 33h779z" />
<glyph unicode="&#x43a;" horiz-adv-x="1794" d="M1745 49q15 -22 7.5 -35.5t-32.5 -13.5h-641q-31 0 -49 27l-147 219l-117 -64v-141q0 -41 -41 -41h-610q-41 0 -41 41v942q0 41 41 41h610q41 0 41 -41v-164l-6 -147l67 114l162 213q19 25 49 25h641q26 0 33 -15.5t-8 -35.5l-340 -400z" />
<glyph unicode="&#x43b;" horiz-adv-x="1849" d="M1718 1024q41 0 41 -41v-942q0 -41 -41 -41h-600q-41 0 -41 41v627h-135l-39 -275q-30 -259 -125 -373q-20 -20 -49 -20h-596q-25 0 -31 13.5t9 33.5q32 45 59.5 115t40 116.5t29.5 122.5l116 586q6 37 45 37h1317z" />
<glyph unicode="&#x43c;" horiz-adv-x="2011" d="M1880 1024q41 0 41 -41v-942q0 -41 -41 -41h-453q-38 0 -38 41l20 653l-80 -401q-38 -176 -61 -258q-8 -35 -45 -35h-428q-36 0 -45 33q-11 37 -27.5 102t-27.5 111l-11 47l-72 369l21 -621q0 -41 -39 -41h-459q-41 0 -41 41v942q0 41 41 41h744q35 0 45 -37l37 -160 l47 -368l47 368l37 160q10 37 45 37h743z" />
<glyph unicode="&#x43d;" horiz-adv-x="1767" d="M1636 1024q41 0 41 -41v-942q0 -41 -41 -41h-602q-41 0 -41 41v295h-215v-295q0 -41 -41 -41h-602q-41 0 -41 41v942q0 41 41 41h602q41 0 41 -41v-291h215v291q0 41 41 41h602z" />
<glyph unicode="&#x43e;" horiz-adv-x="1767" d="M1706 506q0 116 -24 200t-79.5 150t-150 106.5t-233 61t-330.5 20.5q-193 0 -332 -21t-233 -61.5t-149.5 -107t-79 -150t-23.5 -198.5q0 -145 37 -240t129.5 -161.5t250.5 -95.5t400 -29q195 0 335 20t233.5 59t148.5 104.5t77.5 147t22.5 195.5zM889 709q67 0 91 -51.5 t24 -151.5q0 -105 -23 -148t-92 -43t-92 43t-23 148q0 100 24 151.5t91 51.5z" />
<glyph unicode="&#x43f;" horiz-adv-x="1783" d="M1653 1024q41 0 41 -41v-942q0 -41 -41 -41h-611q-41 0 -41 41v627h-215v-627q0 -41 -41 -41h-610q-41 0 -41 41v942q0 41 41 41h1518z" />
<glyph unicode="&#x440;" horiz-adv-x="1787" d="M1223 1044q137 0 225.5 -23t150.5 -82t88.5 -161.5t26.5 -261.5q0 -161 -26 -264t-87 -164t-150 -84.5t-228 -23.5q-279 0 -437 147v-496q0 -41 -41 -41h-610q-41 0 -41 41v1352q0 41 41 41h610q41 0 41 -41v-88q156 149 437 149zM928 322q52 0 80 43.5t28 150.5 q0 186 -108 186q-59 0 -110.5 -53.5t-51.5 -142.5q0 -78 52.5 -131t109.5 -53z" />
<glyph unicode="&#x441;" horiz-adv-x="1738" d="M1008 588q-37 0 -43 41q-8 51 -28 72.5t-63 21.5q-67 0 -90.5 -53.5t-23.5 -163.5q0 -116 22.5 -160.5t91.5 -44.5q87 0 95 117q3 28 41 28h616q42 0 39 -40q-6 -92 -33 -158t-83.5 -119t-149 -84.5t-227.5 -48t-320 -16.5q-142 0 -256 13.5t-196.5 37t-143.5 60.5 t-98.5 79t-60.5 98t-31.5 112t-8.5 126q0 97 17.5 171.5t68.5 146t137.5 118t230.5 74.5t341 28q196 0 332 -14.5t228 -43.5t145.5 -80t77.5 -115.5t30 -159.5q3 -41 -39 -41z" />
<glyph unicode="&#x442;" horiz-adv-x="1406" d="M1352 1024q41 0 41 -41v-289q0 -41 -41 -41h-291v-612q0 -41 -41 -41h-610q-41 0 -41 41v612h-291q-41 0 -41 41v289q0 41 41 41h1274z" />
<glyph unicode="&#x443;" horiz-adv-x="1839" d="M1786 1024q23 0 31.5 -13.5t-0.5 -35.5l-668 -1354q-13 -31 -49 -31h-606q-23 0 -31.5 14t0.5 36l145 317l-577 1018q-11 22 -3.5 35.5t31.5 13.5h648q35 0 47 -35l147 -450l25 -148l26 148l152 452q9 33 45 33h637z" />
<glyph unicode="&#x444;" horiz-adv-x="2719" d="M2079 1044q139 0 228 -23.5t150 -84.5t87 -164t26 -264q0 -159 -26.5 -261.5t-88.5 -161.5t-150.5 -82t-225.5 -23q-248 0 -393 145v-494q0 -41 -41 -41h-584q-41 0 -41 41v492q-143 -143 -391 -143q-137 0 -225.5 23t-151 82t-89 161.5t-26.5 261.5q0 161 26 264 t87.5 164t150.5 84.5t228 23.5q246 0 391 -141v490q0 41 41 41h584q41 0 41 -41v-490q149 141 393 141zM815 508q0 -186 109 -186q53 0 102 46t57 124v49q-9 69 -58.5 115t-100.5 46q-52 0 -80.5 -43.5t-28.5 -150.5zM1784 322q108 0 108 186q0 107 -28 150.5t-80 43.5 q-57 0 -109.5 -53t-52.5 -131q0 -89 51.5 -142.5t110.5 -53.5z" />
<glyph unicode="&#x445;" horiz-adv-x="1724" d="M1348 512l364 -461q17 -22 10 -36.5t-34 -14.5h-609q-33 0 -51 27l-131 198l-33 74l-35 -74l-124 -198q-16 -27 -50 -27h-616q-25 0 -32.5 15.5t9.5 35.5l371 463l-369 459q-17 20 -9.5 35.5t32.5 15.5h608q31 0 49 -27l131 -196l35 -74l33 74l131 196q18 27 51 27h611 q26 0 32.5 -14.5t-8.5 -36.5z" />
<glyph unicode="&#x446;" horiz-adv-x="1832" d="M1784 356q41 0 41 -41v-450q0 -41 -41 -41h-537q-41 0 -41 41v135h-1071q-41 0 -41 41v942q0 41 41 41h596q41 0 41 -41v-627h217v627q0 41 41 41h596q41 0 41 -41v-627h117z" />
<glyph unicode="&#x447;" horiz-adv-x="1794" d="M1642 1024q41 0 41 -41v-942q0 -41 -41 -41h-614q-41 0 -41 41l2 293q-198 -72 -446 -72q-137 0 -225.5 17t-137.5 55.5t-67.5 90t-18.5 130.5v428q0 41 41 41h610q41 0 41 -41v-317q0 -53 14.5 -69.5t59.5 -16.5q65 0 129 22l2 381q0 41 41 41h610z" />
<glyph unicode="&#x448;" horiz-adv-x="2244" d="M2114 1024q40 0 40 -41v-942q0 -41 -40 -41h-1979q-41 0 -41 41v942q0 41 41 41h535q41 0 41 -41v-627h133v629q0 41 41 41h479q41 0 41 -41v-629h133v627q0 41 41 41h535z" />
<glyph unicode="&#x449;" horiz-adv-x="2326" d="M2277 356q41 0 41 -41v-450q0 -41 -41 -41h-536q-41 0 -41 41v135h-1565q-41 0 -41 41v942q0 41 41 41h535q41 0 41 -41v-627h133v629q0 41 41 41h479q41 0 41 -41v-629h133v627q0 41 41 41h535q40 0 40 -41v-627h123z" />
<glyph unicode="&#x44a;" horiz-adv-x="1976" d="M1128 766q193 0 327 -13.5t223.5 -40t140 -73t70.5 -104.5t20 -142q0 -81 -13 -138t-48 -103t-89.5 -73.5t-144.5 -46t-206 -25.5t-280 -7h-761q-41 0 -41 41v627h-248q-41 0 -41 41v274q0 41 41 41h899q41 0 41 -41v-217h110zM1128 315q69 0 94 20.5t25 61.5 q0 95 -119 95h-110v-177h110z" />
<glyph unicode="&#x44b;" horiz-adv-x="2656" d="M897 766q240 0 391.5 -19.5t238 -67t118.5 -114t32 -172.5q0 -81 -13 -138t-48 -103t-89 -73.5t-144 -46t-206 -25.5t-280 -7h-762q-41 0 -41 41v942q0 41 41 41h610q41 0 41 -41v-217h111zM2527 1024q41 0 41 -41v-942q0 -41 -41 -41h-624q-41 0 -41 41v942q0 41 41 41 h624zM897 315q69 0 94 20.5t25 61.5q0 95 -119 95h-111v-177h111z" />
<glyph unicode="&#x44c;" horiz-adv-x="1767" d="M897 766q240 0 391.5 -19.5t238 -67t118.5 -114t32 -172.5q0 -81 -13 -138t-48 -103t-89 -73.5t-144 -46t-206 -25.5t-280 -7h-762q-41 0 -41 41v942q0 41 41 41h610q41 0 41 -41v-217h111zM897 315q69 0 94 20.5t25 61.5q0 95 -119 95h-111v-177h111z" />
<glyph unicode="&#x44d;" horiz-adv-x="1800" d="M897 1047q149 0 269 -14t206.5 -38.5t150.5 -63t103.5 -81.5t63 -100t32.5 -113t9 -125q0 -72 -9 -129.5t-32.5 -115.5t-63 -102t-103.5 -83t-150.5 -64t-206.5 -39t-269 -14q-196 0 -339.5 15t-236 42t-150 71t-83 94.5t-33.5 119.5q-3 43 41 43h617q35 0 41 -41 q6 -39 35 -55t94 -16q77 0 109.5 36.5t39.5 137.5h-403q-41 0 -41 41v122q0 41 41 41h401q-9 83 -42 117.5t-105 34.5q-108 0 -125 -53q-6 -20 -15.5 -28.5t-27.5 -8.5h-619q-45 0 -39 43q6 54 23.5 95t53.5 79.5t97.5 65t151.5 47t218.5 30t295.5 9.5z" />
<glyph unicode="&#x44e;" horiz-adv-x="2664" d="M1786 1044q192 0 330.5 -20.5t233 -61t150 -106.5t79.5 -150t24 -200q0 -114 -22.5 -195.5t-77.5 -147t-148.5 -104.5t-233.5 -59t-335 -20q-267 0 -433.5 37.5t-252.5 113.5t-115 203h-178v-293q0 -41 -41 -41h-625q-41 0 -41 41v942q0 41 41 41h625q41 0 41 -41v-293 h182q30 124 117 200t253 115t427 39zM1786 315q69 0 92 43t23 148q0 100 -24 151.5t-91 51.5t-91 -51.5t-24 -151.5q0 -105 23 -148t92 -43z" />
<glyph unicode="&#x44f;" horiz-adv-x="1841" d="M1659 1024q41 0 41 -41v-942q0 -41 -41 -41h-598q-41 0 -41 41v176h-137l-119 -190q-18 -27 -49 -27h-600q-26 0 -33 14.5t8 36.5l193 262q-115 54 -159 135t-44 189q0 86 17 144t64 107.5t133 77t222 43t332 15.5h811zM776 604q0 -44 25.5 -69t93.5 -25h125v178h-125 q-68 0 -93.5 -22t-25.5 -62z" />
<glyph unicode="&#x451;" horiz-adv-x="1712" d="M381 1147q-41 0 -41 41v205q0 41 41 41h381q41 0 41 -41v-205q0 -41 -41 -41h-381zM956 1147q-41 0 -41 41v205q0 41 41 41h381q41 0 41 -41v-205q0 -41 -41 -41h-381zM1661 465q0 -41 -41 -41h-885q3 -89 29.5 -123.5t99.5 -34.5q51 0 70 12t31 50q12 34 45 34h598 q22 0 31.5 -11.5t5.5 -31.5q-29 -122 -105.5 -193t-244 -108.5t-449.5 -37.5q-142 0 -256 13.5t-196.5 37t-143.5 60.5t-98.5 79t-60.5 98t-31.5 112t-8.5 126q0 97 17.5 171.5t68.5 146t137.5 118t230.5 74.5t341 28q131 0 232 -6.5t183.5 -22t141.5 -37.5t103.5 -58 t72 -77t45.5 -101t26 -124.5t11 -152.5zM852 758q-57 0 -91.5 -42t-37.5 -104h258q-3 83 -37 114.5t-92 31.5z" />
<glyph unicode="&#x454;" horiz-adv-x="1800" d="M1704 350q44 0 41 -43q-8 -69 -33.5 -119.5t-83 -94.5t-150 -71t-236 -42t-339.5 -15q-207 0 -358.5 28t-241.5 73.5t-143.5 118.5t-71.5 149t-18 178q0 99 18 173t71.5 145.5t143.5 116.5t241.5 72.5t358.5 27.5q167 0 295.5 -9.5t218.5 -30t151.5 -47t97.5 -65 t53.5 -79.5t23.5 -95q6 -43 -39 -43h-619q-18 0 -27.5 8.5t-15.5 28.5q-17 53 -124 53q-72 0 -105.5 -34.5t-42.5 -117.5h401q41 0 41 -41v-122q0 -41 -41 -41h-403q9 -101 41.5 -137.5t108.5 -36.5q65 0 94 16t35 55q6 41 40 41h617z" />
<glyph unicode="&#x456;" horiz-adv-x="903" d="M807 1174q0 -41 -41 -41h-625q-41 0 -41 41v219q0 41 41 41h625q41 0 41 -41v-219zM807 41q0 -41 -41 -41h-625q-41 0 -41 41v942q0 41 41 41h625q41 0 41 -41v-942z" />
<glyph unicode="&#x457;" horiz-adv-x="890" d="M389 1188q0 -41 -41 -41h-381q-41 0 -41 41v205q0 41 41 41h381q41 0 41 -41v-205zM965 1188q0 -41 -41 -41h-381q-41 0 -41 41v205q0 41 41 41h381q41 0 41 -41v-205zM801 41q0 -41 -41 -41h-625q-41 0 -41 41v942q0 41 41 41h625q41 0 41 -41v-942z" />
<glyph unicode="&#x490;" horiz-adv-x="1693" d="M1602 1638q40 0 40 -41v-540q0 -41 -40 -41h-785v-975q0 -41 -41 -41h-620q-41 0 -41 41v1352q0 41 41 41h934v163q0 41 40 41h472z" />
<glyph unicode="&#x491;" horiz-adv-x="1290" d="M1239 1227q41 0 41 -41v-492q0 -41 -41 -41h-446v-612q0 -41 -41 -41h-611q-41 0 -41 41v942q0 41 41 41h766v162q0 41 41 41h291z" />
<glyph unicode="&#x1e80;" horiz-adv-x="2428" d="M997 1532l-254 254q-20 22 -12.5 36.5t35.5 14.5h491q33 0 52 -25l202 -251q15 -20 8 -36t-32 -16h-440q-30 0 -50 23zM2370 1434q20 0 30.5 -12.5t7.5 -32.5l-210 -1352q-5 -37 -46 -37h-772q-40 0 -45 37l-51 323l-51 474l-51 -474l-52 -323q-5 -37 -45 -37h-772 q-40 0 -45 37l-211 1352q-3 20 8 32.5t31 12.5h586q40 0 43 -39l68 -897l24 209l125 690q6 37 43 37h496q37 0 43 -37l125 -690l24 -209l68 897q3 39 43 39h586z" />
<glyph unicode="&#x1e81;" horiz-adv-x="2267" d="M897 1169l-254 254q-20 22 -12.5 37t35.5 15h491q32 0 51 -25l203 -252q15 -20 7.5 -35.5t-32.5 -15.5h-440q-30 0 -49 22zM2220 1024q22 0 32 -12.5t5 -32.5l-201 -942q-6 -37 -43 -37h-735q-39 0 -45 37l-47 231l-39 299l-39 -299l-49 -231q-6 -37 -43 -37h-733 q-38 0 -47 35l-226 944q-5 20 5 32.5t32 12.5h557q40 0 43 -39l78 -623l29 195l98 430q10 37 45 37h502q39 0 45 -37l96 -430l27 -195l78 623q3 39 43 39h532z" />
<glyph unicode="&#x1e82;" horiz-adv-x="2428" d="M1018 1509q-25 0 -32.5 16t7.5 36l203 251q19 25 51 25h492q28 0 35 -14.5t-13 -36.5l-254 -254q-20 -23 -49 -23h-440zM2370 1434q20 0 30.5 -12.5t7.5 -32.5l-210 -1352q-5 -37 -46 -37h-772q-40 0 -45 37l-51 323l-51 474l-51 -474l-52 -323q-5 -37 -45 -37h-772 q-40 0 -45 37l-211 1352q-3 20 8 32.5t31 12.5h586q40 0 43 -39l68 -897l24 209l125 690q6 37 43 37h496q37 0 43 -37l125 -690l24 -209l68 897q3 39 43 39h586z" />
<glyph unicode="&#x1e83;" horiz-adv-x="2267" d="M920 1147q-25 0 -32.5 15.5t7.5 35.5l203 252q19 25 51 25h491q28 0 35.5 -15t-12.5 -37l-254 -254q-19 -22 -49 -22h-440zM2220 1024q22 0 32 -12.5t5 -32.5l-201 -942q-6 -37 -43 -37h-735q-39 0 -45 37l-47 231l-39 299l-39 -299l-49 -231q-6 -37 -43 -37h-733 q-38 0 -47 35l-226 944q-5 20 5 32.5t32 12.5h557q40 0 43 -39l78 -623l29 195l98 430q10 37 45 37h502q39 0 45 -37l96 -430l27 -195l78 623q3 39 43 39h532z" />
<glyph unicode="&#x1e84;" horiz-adv-x="2428" d="M754 1509q-41 0 -41 41v205q0 41 41 41h381q41 0 41 -41v-205q0 -41 -41 -41h-381zM1329 1509q-41 0 -41 41v205q0 41 41 41h381q41 0 41 -41v-205q0 -41 -41 -41h-381zM2370 1434q20 0 30.5 -12.5t7.5 -32.5l-210 -1352q-5 -37 -46 -37h-772q-40 0 -45 37l-51 323 l-51 474l-51 -474l-52 -323q-5 -37 -45 -37h-772q-40 0 -45 37l-211 1352q-3 20 8 32.5t31 12.5h586q40 0 43 -39l68 -897l24 209l125 690q6 37 43 37h496q37 0 43 -37l125 -690l24 -209l68 897q3 39 43 39h586z" />
<glyph unicode="&#x1e85;" horiz-adv-x="2267" d="M655 1147q-41 0 -41 41v205q0 41 41 41h381q41 0 41 -41v-205q0 -41 -41 -41h-381zM1231 1147q-41 0 -41 41v205q0 41 41 41h381q41 0 41 -41v-205q0 -41 -41 -41h-381zM2220 1024q22 0 32 -12.5t5 -32.5l-201 -942q-6 -37 -43 -37h-735q-39 0 -45 37l-47 231l-39 299 l-39 -299l-49 -231q-6 -37 -43 -37h-733q-38 0 -47 35l-226 944q-5 20 5 32.5t32 12.5h557q40 0 43 -39l78 -623l29 195l98 430q10 37 45 37h502q39 0 45 -37l96 -430l27 -195l78 623q3 39 43 39h532z" />
<glyph unicode="&#x1ef2;" horiz-adv-x="1890" d="M709 1532l-254 254q-20 22 -13 36.5t35 14.5h492q32 0 51 -25l203 -251q15 -20 7.5 -36t-32.5 -16h-440q-29 0 -49 23zM1872 1434q25 0 33 -15t-4 -35l-584 -954v-389q0 -41 -41 -41h-670q-41 0 -41 41v399l-583 944q-14 20 -6.5 35t32.5 15h684q36 0 47 -31l146 -352 l55 -177l55 177l146 352q11 31 47 31h684z" />
<glyph unicode="&#x1ef3;" horiz-adv-x="1839" d="M684 1169l-254 254q-20 22 -12.5 37t35.5 15h491q32 0 51 -25l203 -252q15 -20 8 -35.5t-32 -15.5h-441q-30 0 -49 22zM1786 1024q23 0 31.5 -13.5t-0.5 -35.5l-668 -1354q-13 -31 -49 -31h-606q-23 0 -31.5 14t0.5 36l145 317l-577 1018q-11 22 -3.5 35.5t31.5 13.5h648 q35 0 47 -35l147 -450l25 -148l26 148l152 452q9 33 45 33h637z" />
<glyph unicode="&#x2000;" horiz-adv-x="1008" />
<glyph unicode="&#x2001;" horiz-adv-x="2017" />
<glyph unicode="&#x2002;" horiz-adv-x="1008" />
<glyph unicode="&#x2003;" horiz-adv-x="2017" />
<glyph unicode="&#x2004;" horiz-adv-x="672" />
<glyph unicode="&#x2005;" horiz-adv-x="504" />
<glyph unicode="&#x2006;" horiz-adv-x="336" />
<glyph unicode="&#x2007;" horiz-adv-x="336" />
<glyph unicode="&#x2008;" horiz-adv-x="252" />
<glyph unicode="&#x2009;" horiz-adv-x="403" />
<glyph unicode="&#x200a;" horiz-adv-x="112" />
<glyph unicode="&#x2010;" horiz-adv-x="1226" d="M1083 358q0 -41 -41 -41h-858q-41 0 -41 41v328q0 41 41 41h858q41 0 41 -41v-328z" />
<glyph unicode="&#x2011;" horiz-adv-x="1226" d="M1083 358q0 -41 -41 -41h-858q-41 0 -41 41v328q0 41 41 41h858q41 0 41 -41v-328z" />
<glyph unicode="&#x2012;" horiz-adv-x="1226" d="M1083 358q0 -41 -41 -41h-858q-41 0 -41 41v328q0 41 41 41h858q41 0 41 -41v-328z" />
<glyph unicode="&#x2013;" horiz-adv-x="1523" d="M1380 358q0 -41 -41 -41h-1155q-41 0 -41 41v328q0 41 41 41h1155q41 0 41 -41v-328z" />
<glyph unicode="&#x2014;" horiz-adv-x="2381" d="M2238 358q0 -41 -40 -41h-2014q-41 0 -41 41v328q0 41 41 41h2014q40 0 40 -41v-328z" />
<glyph unicode="&#x2018;" horiz-adv-x="1046" d="M449 1407q18 27 49 27h356q22 0 32 -13t5 -35l-117 -430q-8 -34 -45 -34h-528q-25 0 -33 14.5t4 34.5z" />
<glyph unicode="&#x2019;" horiz-adv-x="1046" d="M598 948q-17 -26 -49 -26h-356q-22 0 -32 12.5t-5 34.5l116 430q8 35 45 35h529q24 0 32 -15t-4 -35z" />
<glyph unicode="&#x201a;" horiz-adv-x="1083" d="M569 -178q-18 -27 -49 -27h-356q-22 0 -32 12.5t-5 34.5l117 430q8 35 45 35h528q25 0 33 -14.5t-4 -34.5z" />
<glyph unicode="&#x201c;" horiz-adv-x="1605" d="M440 1405q14 29 47 29h320q21 0 31 -13.5t4 -34.5l-105 -387q-8 -32 -45 -32h-471q-25 0 -32.5 13.5t4.5 35.5zM1069 1405q15 29 47 29h318q22 0 31.5 -13t4.5 -35l-104 -387q-8 -32 -45 -32h-471q-25 0 -33 13.5t4 35.5z" />
<glyph unicode="&#x201d;" horiz-adv-x="1587" d="M539 993q-17 -26 -50 -26h-317q-22 0 -32 12.5t-5 32.5l107 387q8 35 45 35h471q23 0 31 -15t-5 -35zM1167 993q-17 -26 -49 -26h-317q-22 0 -32 12.5t-5 32.5l106 387q6 35 45 35h471q24 0 32 -15t-5 -35z" />
<glyph unicode="&#x201e;" horiz-adv-x="1550" d="M528 -94q-14 -29 -47 -29h-317q-22 0 -32 12.5t-5 34.5l104 387q9 33 45 33h472q25 0 32.5 -13.5t-4.5 -35.5zM1157 -94q-15 -29 -47 -29h-319q-21 0 -31 13t-4 34l104 387q9 33 45 33h471q25 0 33 -13.5t-4 -35.5z" />
<glyph unicode="&#x2020;" horiz-adv-x="1243" d="M760 1477q42 0 39 -43l-31 -377l358 22q20 1 31.5 -10t11.5 -31v-235q0 -20 -11.5 -31t-31.5 -10l-358 24l33 -854q0 -41 -39 -41h-281q-39 0 -39 41l31 854l-358 -24q-20 -1 -31.5 10t-11.5 31v235q0 20 11.5 31t31.5 10l358 -22l-29 377q-3 43 39 43h277z" />
<glyph unicode="&#x2021;" horiz-adv-x="1243" d="M752 1477q44 0 41 -43l-25 -330l358 24q20 1 31.5 -10t11.5 -31v-231q0 -20 -11.5 -31t-31.5 -10l-358 27v-305l358 26q20 1 31.5 -10t11.5 -31v-231q0 -20 -11.5 -31t-31.5 -10l-358 24l25 -340q3 -43 -41 -43h-265q-44 0 -41 43l23 340l-352 -24q-20 -1 -31.5 10 t-11.5 31v231q0 42 43 39l352 -24v305l-352 -25q-43 -3 -43 39v231q0 20 11.5 31t31.5 10l352 -24l-23 330q-3 43 41 43h265z" />
<glyph unicode="&#x2022;" horiz-adv-x="1044" d="M522 274q-154 0 -256 102.5t-102 256.5t102 256t256 102t256.5 -102t102.5 -256t-102.5 -256.5t-256.5 -102.5z" />
<glyph unicode="&#x2026;" horiz-adv-x="2209" d="M612 41q0 -41 -41 -41h-428q-41 0 -41 41v328q0 41 41 41h428q41 0 41 -41v-328zM1360 41q0 -41 -41 -41h-428q-41 0 -41 41v328q0 41 41 41h428q41 0 41 -41v-328zM2107 41q0 -41 -41 -41h-428q-41 0 -41 41v328q0 41 41 41h428q41 0 41 -41v-328z" />
<glyph unicode="&#x202f;" horiz-adv-x="403" />
<glyph unicode="&#x2030;" horiz-adv-x="3022" d="M496 1450q186 0 301.5 -114t115.5 -312q0 -144 -62 -250.5t-158.5 -157.5t-211.5 -51t-210.5 49.5t-155.5 149.5t-60 233q0 201 123 327t316 126h2zM561 -20q-25 0 -33 14.5t4 34.5l797 1386q15 29 49 29h121q25 0 33 -14.5t-4 -34.5l-797 -1387q-14 -28 -49 -28h-121z M485 1243q-133 0 -133 -235q0 -238 137 -238q63 0 95 57t32 181q0 119 -29.5 177t-99.5 58h-2zM1595 862q186 0 303 -113t117 -311q0 -109 -35.5 -197t-96 -143.5t-137.5 -85.5t-163 -30q-115 0 -210.5 49.5t-154.5 149t-59 231.5q0 202 120.5 326t313.5 124h2zM2546 862 q186 0 303 -113t117 -311q0 -109 -36 -197t-96.5 -143.5t-137.5 -85.5t-163 -30q-116 0 -211.5 49t-155 148.5t-59.5 232.5q0 201 122 325.5t315 124.5h2zM1587 657q-133 0 -133 -237q0 -236 137 -236q63 0 95 57t32 181q0 119 -29.5 177t-99.5 58h-2zM2537 657 q-133 0 -133 -235q0 -238 136 -238q129 0 129 238q0 119 -29.5 177t-99.5 58h-3z" />
<glyph unicode="&#x2039;" horiz-adv-x="645" d="M494 934q22 10 35.5 2t13.5 -31v-241q0 -31 -29 -50l-106 -67l106 -68q29 -19 29 -49v-242q0 -23 -13.5 -31t-35.5 3l-363 190q-29 14 -29 49v295q0 34 29 49z" />
<glyph unicode="&#x203a;" horiz-adv-x="645" d="M150 934l362 -191q31 -15 31 -49v-295q0 -33 -31 -49l-362 -190q-20 -11 -34 -3t-14 31v242q0 30 29 49l107 68l-107 67q-29 19 -29 50v241q0 23 14 31.5t34 -2.5z" />
<glyph unicode="&#x2044;" horiz-adv-x="1169" d="M811 1466q16 29 49 29h311q25 0 33 -14.5t-4 -34.5l-838 -1442q-16 -29 -49 -29h-315q-25 0 -33 15t4 35z" />
<glyph unicode="&#x205f;" horiz-adv-x="504" />
<glyph unicode="&#x20ac;" horiz-adv-x="1841" d="M1761 489q44 0 41 -43q-8 -97 -38.5 -170t-94 -133.5t-163 -98.5t-248 -58.5t-347.5 -20.5q-206 0 -361 38t-252 103t-157 163t-83 206.5t-23 245.5q0 133 23 239t83 202t157 159.5t252 101t361 37.5q171 0 304.5 -13.5t229 -41t162 -65.5t107.5 -91t61 -112.5t27 -135.5 q3 -40 -41 -40h-610q-34 0 -43 38q-11 45 -52.5 65.5t-123.5 20.5q-98 0 -139 -51.5t-50 -181.5h490q41 0 41 -41v-184q0 -41 -41 -41h-492q9 -148 49 -199t142 -51q96 0 134 24.5t44 88.5q3 40 43 40h608z" />
<glyph unicode="&#x2113;" horiz-adv-x="1261" d="M1194 330q25 -26 6 -58q-182 -286 -518 -286q-350 0 -432 293q-2 6 -2 16q-23 -13 -66 -43q-38 -26 -57 14l-59 117q-16 36 14 57q25 18 79.5 55.5t80.5 57.5v436q0 286 120.5 433t333.5 147q93 0 165 -31t116 -85.5t66 -124t22 -150.5q0 -174 -111.5 -335.5 t-339.5 -350.5l4 -66q5 -60 49 -99.5t113 -39.5q131 0 258 145q31 34 60 2zM612 813q90 94 142.5 196.5t52.5 178.5q0 131 -88 131q-107 0 -107 -272v-234z" />
<glyph unicode="&#x2122;" horiz-adv-x="2547" d="M1063 1434q41 0 41 -41v-168q0 -41 -41 -41h-277v-576q0 -41 -41 -41h-366q-41 0 -41 41v576h-275q-40 0 -40 41v168q0 41 40 41h1000zM2466 1434q41 0 41 -41v-785q0 -41 -41 -41h-291q-41 0 -41 41l16 541l-65 -336q-31 -139 -49 -211q-8 -35 -45 -35h-310 q-37 0 -45 35l-53 211l-61 322l18 -527q0 -41 -39 -41h-295q-41 0 -41 41v785q0 41 41 41h498q35 0 45 -37l29 -131l49 -326l10 -111l8 111l47 326l31 131q10 37 45 37h498z" />
<glyph unicode="&#x212e;" horiz-adv-x="1785" d="M383 698q-12 0 -12 -8v-403q0 -23 18 -45q99 -103 229.5 -161t274.5 -58q157 0 294 65t236 180h117q-110 -132 -282 -209t-367 -77q-168 0 -320 58t-261.5 157t-174.5 235.5t-65 286.5q0 151 65 288.5t174.5 236.5t261.5 157.5t320 58.5t320 -58.5t262.5 -157.5 t175.5 -236.5t65 -288.5v-21h-1331zM1411 1157q0 29 -18 47q-100 98 -229 154.5t-271 56.5t-272 -58t-230 -159q-20 -20 -20 -49v-397q0 -4 3.5 -8.5t8.5 -4.5h1020q8 0 8 13v405z" />
<glyph unicode="&#x215b;" horiz-adv-x="3069" d="M2105 1495q25 0 33 -14.5t-4 -34.5l-838 -1442q-16 -29 -49 -29h-315q-25 0 -33 15t4 35l842 1441q16 29 49 29h311zM1069 565q0 -26 -27 -26h-741q-25 0 -25 26v205q0 25 25 25h160v331l-156 -98q-12 -9 -21.5 -2.5t-9.5 21.5v247q0 20 19 29l209 104q15 9 30 9h351 q26 0 26 -27v-614h133q27 0 27 -25v-205zM2884 403q49 -32 66.5 -70.5t17.5 -94.5q0 -48 -11.5 -84t-46 -70t-92.5 -56t-155 -35t-230 -13q-134 0 -231 13t-155 35t-92 56.5t-45.5 70t-11.5 83.5q0 56 17.5 94.5t66.5 70.5q19 16 80 37q-57 21 -80 39q-77 62 -77 174 q0 48 11 82.5t43.5 67.5t90 53.5t153.5 32.5t230 12q133 0 229 -12t153 -32.5t89.5 -53.5t43.5 -67.5t11 -82.5q0 -114 -75 -174q-23 -18 -80 -39q61 -21 80 -37zM2433 539q51 0 77.5 15t26.5 56q0 32 -23.5 46t-80.5 14t-80.5 -14t-23.5 -46q0 -41 26.5 -56t77.5 -15z M2433 209q56 0 79 14t23 45q0 82 -102 82t-102 -82q0 -31 23 -45t79 -14z" />
<glyph unicode="&#x215c;" horiz-adv-x="3284" d="M2322 1495q25 0 33 -14.5t-4 -34.5l-838 -1442q-16 -29 -49 -29h-315q-25 0 -33 15t4 35l842 1441q16 29 49 29h311zM1354 791q0 -48 -11.5 -84t-46 -70.5t-93 -56t-157 -35t-233.5 -13.5q-136 0 -226 10t-151 29.5t-93.5 57.5t-46 85.5t-15.5 121.5q0 24 26 24h385 q25 0 25 -24q3 -47 22 -62.5t74 -15.5q44 0 64 15.5t20 51.5q0 82 -84 82h-223q-27 0 -27 25v131q0 27 27 27h223q23 0 35 1.5t27 7.5t21.5 21t6.5 39q0 37 -22 52.5t-74 15.5q-44 0 -59 -13.5t-17 -50.5q-3 -24 -26 -24h-386q-26 0 -26 24q2 71 15.5 117t45.5 82t91.5 55 t145.5 28t216 9q138 0 236.5 -12t157 -32.5t92 -53.5t44.5 -67.5t11 -82.5q0 -92 -45 -162q-19 -24 -76 -53q53 -24 76 -47q51 -59 51 -153zM3101 403q49 -32 66.5 -70.5t17.5 -94.5q0 -48 -11.5 -84t-46 -70t-92.5 -56t-155 -35t-230 -13q-112 0 -198 8.5t-143.5 26 t-96.5 39t-59.5 52.5t-28.5 61.5t-8 70.5q0 56 17.5 94.5t66.5 70.5q20 17 79 37q-55 20 -79 39q-78 63 -78 174q0 48 11 82.5t43.5 67.5t90 53.5t153.5 32.5t230 12q133 0 229 -12t153 -32.5t89.5 -53.5t43.5 -67.5t11 -82.5q0 -114 -75 -174q-23 -18 -80 -39 q61 -21 80 -37zM2650 539q51 0 78 15t27 56q0 31 -24 45.5t-81 14.5t-80.5 -14t-23.5 -46q0 -41 26.5 -56t77.5 -15zM2650 209q56 0 79.5 14t23.5 45q0 82 -103 82q-102 0 -102 -82q0 -31 23 -45t79 -14z" />
<glyph unicode="&#x215d;" horiz-adv-x="3086" d="M2124 1495q24 0 32 -14.5t-4 -34.5l-837 -1442q-16 -29 -49 -29h-316q-24 0 -32 15t4 35l841 1441q16 29 49 29h312zM1155 836q0 -90 -22 -147t-79 -96.5t-154.5 -56t-250.5 -16.5q-220 0 -337 30.5t-162 93.5t-48 181q0 25 25 25h395q24 0 27 -25q3 -41 20.5 -56 t59.5 -15q45 0 62.5 17.5t17.5 62.5q0 54 -21.5 64.5t-112.5 10.5h-430q-26 0 -26 27v473q0 27 26 27h969q12 0 19.5 -7.5t7.5 -19.5v-197q0 -26 -27 -26h-575v-62h139q79 0 135.5 -2t107.5 -8t84.5 -15t61.5 -25.5t43.5 -36.5t26.5 -50.5t14.5 -66t3.5 -84.5zM2900 403 q49 -32 66.5 -70.5t17.5 -94.5q0 -48 -11.5 -84t-46 -70t-92.5 -56t-155 -35t-230 -13q-112 0 -198 8.5t-143.5 26t-96.5 39t-59.5 52.5t-28.5 61.5t-8 70.5q0 56 17.5 94.5t66.5 70.5q19 16 80 37q-57 21 -80 39q-78 63 -78 174q0 48 11 82.5t43.5 67.5t90 53.5t153.5 32.5 t230 12q112 0 197 -8t142 -24t95 -36.5t58 -50t27.5 -59.5t7.5 -70q0 -113 -76 -174q-23 -18 -80 -39q61 -21 80 -37zM2449 539q51 0 78 15t27 56q0 31 -24 45.5t-81 14.5t-80.5 -14t-23.5 -46q0 -41 26.5 -56t77.5 -15zM2449 209q56 0 79.5 14t23.5 45q0 82 -103 82 q-102 0 -102 -82q0 -31 23 -45t79 -14z" />
<glyph unicode="&#x215e;" horiz-adv-x="3053" d="M2091 1495q25 0 33 -14.5t-4 -34.5l-838 -1442q-16 -29 -49 -29h-315q-25 0 -33 15t4 35l842 1441q16 29 49 29h311zM1280 1270q0 -16 -10 -33l-428 -682q-10 -16 -31 -16h-412q-14 0 -18.5 8.5t2.5 21.5l315 508l82 101h-481q-27 0 -27 26v205q0 12 7.5 19.5t19.5 7.5 h954q12 0 19.5 -7.5t7.5 -19.5v-139zM2867 403q49 -32 66.5 -70.5t17.5 -94.5q0 -48 -11.5 -84t-45.5 -70t-92 -56t-155 -35t-230 -13q-134 0 -231 13t-155 35t-92 56.5t-45.5 70t-11.5 83.5q0 56 17.5 94.5t66.5 70.5q19 16 80 37q-57 21 -80 39q-78 63 -78 174 q0 48 11 82.5t44 67.5t90 53.5t153.5 32.5t230.5 12q133 0 229 -12t153 -32.5t89.5 -53.5t43.5 -67.5t11 -82.5q0 -113 -76 -174q-23 -18 -80 -39q61 -21 80 -37zM2417 539q51 0 77.5 15t26.5 56q0 32 -23.5 46t-80.5 14t-81 -14.5t-24 -45.5q0 -41 27 -56t78 -15zM2417 209 q56 0 79 14t23 45q0 82 -102 82q-103 0 -103 -82q0 -31 23.5 -45t79.5 -14z" />
<glyph unicode="&#x2190;" horiz-adv-x="1863" d="M1708 1087q43 3 43 -38v-674q0 -42 -43 -39l-819 63l22 -297q2 -27 -13.5 -35.5t-35.5 9.5l-715 608q-36 28 0 57l715 609q20 18 35.5 9.5t13.5 -36.5l-22 -299z" />
<glyph unicode="&#x2191;" horiz-adv-x="1589" d="M1430 889q17 -20 9 -35.5t-34 -13.5l-297 22l63 -819q3 -43 -38 -43h-674q-42 0 -39 43l63 819l-299 -22q-28 -1 -35.5 14t9.5 35l608 715q28 36 57 0z" />
<glyph unicode="&#x2192;" horiz-adv-x="1863" d="M1716 741q36 -29 0 -57l-715 -606q-20 -18 -35.5 -10.5t-13.5 34.5l23 297l-819 -63q-43 -3 -43 39v674q0 41 43 38l819 -63l-23 299q-2 28 13.5 36.5t35.5 -9.5z" />
<glyph unicode="&#x2193;" horiz-adv-x="1589" d="M1405 799q27 2 35.5 -13.5t-8.5 -35.5l-609 -715q-29 -36 -57 0l-608 715q-17 20 -9.5 35t35.5 14l299 -23l-63 819q-3 43 39 43h674q41 0 38 -43l-63 -819z" />
<glyph unicode="&#x2194;" horiz-adv-x="2404" d="M2257 731q32 -29 0 -57l-713 -604q-22 -19 -36 -11.5t-11 35.5l29 264h-649l30 -264q3 -28 -12 -35.5t-35 11.5l-713 604q-36 28 0 57l713 604q22 19 36 11.5t11 -35.5l-30 -267h651l-31 267q-5 28 9.5 35.5t37.5 -11.5z" />
<glyph unicode="&#x2195;" horiz-adv-x="1589" d="M1403 408q28 4 35.5 -11t-11.5 -37l-606 -712q-29 -36 -57 0l-604 712q-17 22 -9.5 37t35.5 11l267 -31v651l-267 -31q-28 -3 -35.5 11t11.5 36l604 713q28 36 57 0l604 -713q19 -20 11.5 -35t-35.5 -12l-266 31v-649z" />
<glyph unicode="&#x2196;" horiz-adv-x="1650" d="M1505 629q32 -28 2 -58l-473 -475q-32 -29 -57 2l-537 625l-194 -225q-19 -21 -35 -16t-18 32l-76 934q-3 44 41 41l934 -74q26 -3 32 -19.5t-14 -33.5l-229 -197z" />
<glyph unicode="&#x2197;" horiz-adv-x="1650" d="M1493 1489q44 3 41 -41l-76 -934q-3 -27 -18.5 -32t-34.5 16l-195 225l-536 -625q-12 -15 -28.5 -15.5t-29.5 13.5l-473 475q-30 30 2 58l625 536l-227 197q-21 17 -16 33.5t32 19.5z" />
<glyph unicode="&#x2198;" horiz-adv-x="1652" d="M1536 115q2 -20 -9.5 -31.5t-31.5 -9.5l-934 76q-27 3 -32 18.5t16 34.5l225 194l-625 537q-31 28 -2 57l475 473q13 14 29.5 13.5t28.5 -15.5l536 -624l195 227q19 22 35 17t18 -33z" />
<glyph unicode="&#x2199;" horiz-adv-x="1652" d="M1509 993q29 -29 -2 -57l-624 -535l227 -196q20 -17 14 -33.5t-32 -19.5l-934 -74q-20 -2 -31 9.5t-10 31.5l76 934q2 28 18 33t35 -17l194 -227l537 624q12 15 28 15.5t29 -13.5z" />
<glyph unicode="&#x2202;" horiz-adv-x="1359" d="M135 1456q-12 35 17 55q184 109 432 109q145 0 270.5 -55t217.5 -155.5t145 -251t53 -331.5q0 -193 -51 -351t-142 -265t-219 -165t-280 -58q-101 0 -187.5 32.5t-145 84.5t-100 118t-60.5 133.5t-19 130.5q0 237 138.5 390t362.5 153q63 0 119.5 -17t96 -43.5t65 -50.5 t41.5 -47h2q2 8 2 41q0 74 -23.5 145.5t-67 130.5t-114.5 95.5t-158 36.5q-143 0 -268 -70q-37 -22 -53 19zM621 285q62 0 114.5 51.5t81.5 120.5t39 139q-11 48 -65.5 96.5t-133.5 48.5q-95 0 -153 -77.5t-58 -186.5q0 -82 49.5 -137t122.5 -55h3z" />
<glyph unicode="&#x220f;" horiz-adv-x="1667" d="M1399 1100v-1256q0 -41 -41 -41h-295q-41 0 -41 41v1256h-379v-1256q0 -41 -41 -41h-295q-41 0 -41 41v1256h-182q-41 0 -41 41v243q0 41 41 41h1499q41 0 41 -41v-243q0 -41 -41 -41h-184z" />
<glyph unicode="&#x2211;" horiz-adv-x="1294" d="M88 -197q-41 0 -41 41v148q0 26 19 51l479 567l-459 543q-18 24 -18 51v180q0 41 41 41h1067q41 0 41 -41v-231q0 -41 -41 -41h-586v-6l362 -416q23 -28 0 -57l-411 -494v-8h682q41 0 41 -41v-246q0 -41 -41 -41h-1135z" />
<glyph unicode="&#x2212;" horiz-adv-x="1216" d="M141 473q-41 0 -41 41v129q0 41 41 41h932q41 0 41 -41v-129q0 -41 -41 -41h-932z" />
<glyph unicode="&#x221a;" horiz-adv-x="1386" d="M920 -254q-9 -35 -48 -35h-223q-34 0 -47 33l-321 825l-123 -49q-39 -16 -52 25l-34 108q-12 36 24 52l367 153q42 17 53 -22l195 -555q41 -143 53 -189l4 -2q41 208 41 209l356 1380q9 35 45 35h181q22 0 31 -12.5t3 -32.5z" />
<glyph unicode="&#x221e;" horiz-adv-x="1665" d="M1569 588q0 -91 -30.5 -166.5t-81.5 -124t-115.5 -75.5t-133.5 -27q-47 0 -87 8.5t-89.5 31t-100.5 71t-100 120.5q-87 -115 -176 -173t-209 -58q-68 0 -131.5 27t-112.5 75t-78.5 120.5t-29.5 157.5q0 171 106.5 278.5t266.5 107.5q117 0 206 -54t171 -166 q4 5 28.5 32.5t34.5 38t36 35.5t43 37t46.5 30t55.5 26.5t60.5 15t70.5 5.5q146 0 248 -102.5t102 -268.5v-2zM473 385q71 0 131.5 49t124.5 133q-73 104 -101 134q-71 75 -163 75q-78 0 -128 -54.5t-50 -146.5q0 -77 53.5 -133.5t128.5 -56.5h4zM1198 776q-28 0 -54 -7.5 t-52 -26.5t-42 -31.5t-42.5 -44t-34 -41t-33.5 -43.5q86 -117 142.5 -157t129.5 -40q72 0 117 60.5t45 127.5q0 86 -47.5 144.5t-126.5 58.5h-2z" />
<glyph unicode="&#x222b;" horiz-adv-x="907" d="M848 1563q-5 -39 -47 -33q-24 4 -41 4q-75 0 -115 -59q-45 -67 -45 -322q0 -164 17.5 -450.5t17.5 -487.5q0 -267 -70 -401q-51 -97 -140.5 -143t-193.5 -46q-90 0 -161 23q-35 9 -29 49l29 168q6 40 47 31q28 -7 53 -7q67 0 100 41q28 36 40 101t12 184 q0 204 -18.5 500.5t-18.5 474.5q0 183 34.5 295t110.5 190q50 53 130 80t167 27q44 0 111 -13q36 -9 30 -47z" />
<glyph unicode="&#x2248;" horiz-adv-x="1208" d="M1116 877q27 -27 6 -58q-65 -94 -143 -144t-156 -50q-67 0 -118 18t-125 62q-37 23 -58.5 35t-55 22t-67.5 10q-53 0 -96 -29.5t-88 -83.5q-12 -15 -28 -15.5t-29 13.5l-70 70q-26 26 -8 57q58 84 146.5 138.5t181.5 54.5q70 0 121 -18t104 -50q54 -34 74 -45.5t49.5 -22 t58.5 -10.5q87 0 174 111q12 17 28.5 17.5t29.5 -13.5zM1116 453q27 -27 6 -58q-135 -196 -303 -196q-63 0 -114.5 19.5t-124.5 62.5q-57 35 -95 51t-84 16q-56 0 -97 -28t-89 -84q-12 -17 -28 -18t-29 13l-70 72q-26 29 -6 57q57 83 146 138t182 55q48 0 91.5 -11t69 -23.5 t60.5 -33.5q15 -9 45 -27.5t46 -27t41 -16.5t50 -8q51 0 91 27.5t85 84.5q12 17 28.5 17.5t29.5 -13.5z" />
<glyph unicode="&#x2260;" horiz-adv-x="1228" d="M844 911h229q41 0 41 -41v-120q0 -41 -41 -41h-311l-113 -260h424q41 0 41 -41v-121q0 -41 -41 -41h-508l-88 -203q-14 -36 -53 -20l-88 36q-38 15 -23 54l60 133h-232q-41 0 -41 41v121q0 41 41 41h314l112 260h-426q-41 0 -41 41v120q0 41 41 41h510l86 197 q15 35 54 20l88 -34q38 -15 22 -56z" />
<glyph unicode="&#x2264;" horiz-adv-x="1218" d="M137 686q-31 16 -31 47v156q0 31 31 47l924 422q22 10 34.5 1.5t12.5 -32.5v-141q0 -36 -31 -49l-760 -324v-4l762 -326q31 -13 31 -49v-141q0 -24 -12.5 -32.5t-34.5 1.5zM143 -39q-41 0 -41 41v127q0 41 41 41h932q41 0 41 -41v-127q0 -41 -41 -41h-932z" />
<glyph unicode="&#x2265;" horiz-adv-x="1216" d="M1081 934q31 -16 31 -47v-156q0 -31 -31 -47l-921 -422q-22 -10 -34.5 -1.5t-12.5 32.5v141q0 34 30 49l760 326v4l-762 324q-30 13 -30 49v141q0 24 12.5 32.5t34.5 -1.5zM145 -39q-41 0 -41 41v127q0 41 41 41h920q41 0 41 -41v-127q0 -41 -41 -41h-920z" />
<glyph unicode="&#x25ca;" horiz-adv-x="1386" d="M850 -74q-14 -28 -49 -28h-230q-33 0 -49 28l-409 756q-15 27 2 57l417 758q14 29 50 29h229q35 0 49 -29l414 -758q14 -25 -2 -57zM733 1137q-2 7 -18 49t-21 61h-6q-10 -43 -41 -110l-221 -420l225 -441q27 -64 37 -102h8q24 74 37 98l225 430z" />
<glyph unicode="&#x25fc;" horiz-adv-x="1024" d="M0 1024h1024v-1024h-1024v1024z" />
<glyph unicode="&#xfb00;" horiz-adv-x="2195" d="M2105 1114q-83 16 -129 9.5t-62.5 -28.5t-19.5 -71h217q41 0 41 -41v-289q0 -41 -41 -41h-217v-612q0 -41 -41 -41h-610q-41 0 -41 41v612h-125h-8h-176v-612q0 -41 -41 -41h-610q-41 0 -41 41v612h-125q-41 0 -41 41v289q0 41 41 41h125q4 118 32 197t89.5 135t166.5 80 t256 24.5t367 -24.5q41 -6 41 -45v-240q0 -43 -47 -37q-85 15 -131.5 9t-62.5 -27.5t-19 -71.5h309q4 98 23 168t62 124.5t109.5 86t168.5 46.5t235.5 11t313.5 -24q38 -6 38 -45v-240q0 -43 -47 -37z" />
<glyph unicode="&#xfb03;" horiz-adv-x="3104" d="M2148 1436q39 -6 39 -45v-240q0 -43 -47 -37q-83 16 -129 9.5t-62.5 -28.5t-19.5 -71h217q41 0 41 -41v-289q0 -41 -41 -41h-217v-612q0 -41 -41 -41h-612q-41 0 -41 41v612h-123h-8h-211v-612q0 -41 -41 -41h-610q-41 0 -41 41v612h-125q-41 0 -41 41v289q0 41 41 41 h125q4 118 32 197t89.5 135t166.5 80t256 24.5t367 -24.5q41 -6 41 -45v-240q0 -43 -47 -37q-85 15 -131.5 9t-62.5 -27.5t-19 -71.5h219h123q4 98 23 168t62 124.5t110 86t168.5 46.5t235.5 11t314 -24zM2968 1434q41 0 41 -41v-219q0 -41 -41 -41h-625q-41 0 -41 41v219 q0 41 41 41h625zM2968 1024q41 0 41 -41v-942q0 -41 -41 -41h-625q-41 0 -41 41v942q0 41 41 41h625z" />
<glyph unicode="&#xfb04;" horiz-adv-x="3084" d="M2148 1436q39 -6 39 -45v-240q0 -43 -47 -37q-83 16 -129 9.5t-62.5 -28.5t-19.5 -71h217q41 0 41 -41v-289q0 -41 -41 -41h-217v-612q0 -41 -41 -41h-612q-41 0 -41 41v612h-123h-8h-211v-612q0 -41 -41 -41h-610q-41 0 -41 41v612h-125q-41 0 -41 41v289q0 41 41 41 h125q4 118 32 197t89.5 135t166.5 80t256 24.5t367 -24.5q41 -6 41 -45v-240q0 -43 -47 -37q-85 15 -131.5 9t-62.5 -27.5t-19 -71.5h219h123q4 98 23 168t62 124.5t110 86t168.5 46.5t235.5 11t314 -24zM2947 1434q41 0 41 -41v-1352q0 -41 -41 -41h-625q-41 0 -41 41v1352 q0 41 41 41h625z" />
<glyph horiz-adv-x="1527" d="M1393 1022h-279v-610h279q41 0 41 -41v-330q0 -41 -41 -41h-1258q-41 0 -41 41v330q0 41 41 41h277v610h-277q-41 0 -41 41v330q0 41 41 41h1258q41 0 41 -41v-330q0 -41 -41 -41z" />
<glyph horiz-adv-x="1527" d="M549 1556q-25 0 -32.5 16t7.5 36l203 252q19 24 51 24h492q28 0 35 -14.5t-13 -36.5l-254 -254q-20 -23 -49 -23h-440zM1393 1022h-279v-610h279q41 0 41 -41v-330q0 -41 -41 -41h-1258q-41 0 -41 41v330q0 41 41 41h277v610h-277q-41 0 -41 41v330q0 41 41 41h1258 q41 0 41 -41v-330q0 -41 -41 -41z" />
<glyph horiz-adv-x="1527" d="M764 1536q-193 0 -313 66.5t-138 197.5q-3 43 41 43h242q11 0 19.5 -5t12 -9t13.5 -17q34 -43 123 -43q88 0 125 43q1 1 4 5t4 5t3.5 4.5t3.5 4.5t4 3.5t4.5 3t4 2t5 2t6 1t6.5 0.5h242q44 0 41 -43q-18 -131 -138.5 -197.5t-314.5 -66.5zM1393 1022h-279v-610h279 q41 0 41 -41v-330q0 -41 -41 -41h-1258q-41 0 -41 41v330q0 41 41 41h277v610h-277q-41 0 -41 41v330q0 41 41 41h1258q41 0 41 -41v-330q0 -41 -41 -41z" />
<glyph horiz-adv-x="1527" d="M299 1556q-25 0 -32.5 14t7.5 36l220 295q16 24 49 24h442q33 0 49 -24l219 -295q15 -22 8 -36t-32 -14h-322q-28 0 -51 23l-92 98l-92 -98q-23 -23 -51 -23h-322zM1393 1022h-279v-610h279q41 0 41 -41v-330q0 -41 -41 -41h-1258q-41 0 -41 41v330q0 41 41 41h277v610 h-277q-41 0 -41 41v330q0 41 41 41h1258q41 0 41 -41v-330q0 -41 -41 -41z" />
<glyph horiz-adv-x="1527" d="M285 1556q-41 0 -41 41v205q0 41 41 41h381q41 0 41 -41v-205q0 -41 -41 -41h-381zM860 1556q-41 0 -41 41v205q0 41 41 41h381q41 0 41 -41v-205q0 -41 -41 -41h-381zM1393 1022h-279v-610h279q41 0 41 -41v-330q0 -41 -41 -41h-1258q-41 0 -41 41v330q0 41 41 41h277 v610h-277q-41 0 -41 41v330q0 41 41 41h1258q41 0 41 -41v-330q0 -41 -41 -41z" />
<glyph horiz-adv-x="1527" d="M569 1556q-41 0 -41 41v205q0 41 41 41h392q40 0 40 -41v-205q0 -41 -40 -41h-392zM1393 1022h-279v-610h279q41 0 41 -41v-330q0 -41 -41 -41h-1258q-41 0 -41 41v330q0 41 41 41h277v610h-277q-41 0 -41 41v330q0 41 41 41h1258q41 0 41 -41v-330q0 -41 -41 -41z" />
<glyph horiz-adv-x="1527" d="M528 1579l-254 254q-20 22 -12.5 36.5t35.5 14.5h491q33 0 52 -24l202 -252q15 -20 8 -36t-32 -16h-440q-30 0 -50 23zM1393 1022h-279v-610h279q41 0 41 -41v-330q0 -41 -41 -41h-1258q-41 0 -41 41v330q0 41 41 41h277v610h-277q-41 0 -41 41v330q0 41 41 41h1258 q41 0 41 -41v-330q0 -41 -41 -41z" />
<glyph horiz-adv-x="1527" d="M344 1556q-41 0 -41 41v205q0 41 41 41h840q41 0 41 -41v-205q0 -41 -41 -41h-840zM1393 1022h-279v-610h279q41 0 41 -41v-330q0 -41 -41 -41h-1258q-41 0 -41 41v330q0 41 41 41h277v610h-277q-41 0 -41 41v330q0 41 41 41h1258q41 0 41 -41v-330q0 -41 -41 -41z" />
<glyph horiz-adv-x="1527" d="M1393 1022h-279v-610h279q41 0 41 -41v-330q0 -41 -41 -41h8q-117 -38 -175 -58t-105 -40t-59.5 -32.5t-6.5 -25.5q3 -13 35.5 -7.5t67 17.5t69.5 27q37 18 55 -20l74 -160q16 -39 -21 -57q-115 -45 -235.5 -56t-215 10.5t-155.5 78t-61 137.5q0 155 204 186h-737 q-41 0 -41 41v330q0 41 41 41h277v610h-277q-41 0 -41 41v330q0 41 41 41h1258q41 0 41 -41v-330q0 -41 -41 -41z" />
<glyph horiz-adv-x="1527" d="M348 1604q-45 -28 -45 20v170q0 30 16 51q64 64 177 64q66 0 138.5 -17.5t127 -38t126 -38t134.5 -17.5q88 0 158 45q45 28 45 -18v-172q0 -30 -19 -49q-67 -64 -176 -64q-65 0 -137.5 17t-127 37.5t-126.5 37.5t-135 17q-91 0 -156 -45zM1393 1022h-279v-610h279 q41 0 41 -41v-330q0 -41 -41 -41h-1258q-41 0 -41 41v330q0 41 41 41h277v610h-277q-41 0 -41 41v330q0 41 41 41h1258q41 0 41 -41v-330q0 -41 -41 -41z" />
<glyph horiz-adv-x="1398" d="M1307 1434q41 0 41 -41v-330q0 -41 -41 -41h-197v-459q0 -103 -8 -179.5t-29 -144.5t-55 -113.5t-88 -81.5t-125 -54.5t-169.5 -26t-219 -2t-275.5 22.5q-41 3 -41 43l2 360q0 43 45 37q69 -10 108 -13.5t72 7.5t46.5 25t23 59t10.5 88t1 133v299h-267q-41 0 -41 41 l2 330q0 41 41 41h1164z" />
<glyph horiz-adv-x="1398" d="M262 1556q-25 0 -32 14t8 36l219 295q16 24 49 24h442q33 0 49 -24l220 -295q15 -22 7.5 -36t-32.5 -14h-322q-28 0 -51 23l-92 98l-92 -98q-23 -23 -51 -23h-322zM1307 1434q41 0 41 -41v-330q0 -41 -41 -41h-197v-459q0 -103 -8 -179.5t-29 -144.5t-55 -113.5 t-88 -81.5t-125 -54.5t-169.5 -26t-219 -2t-275.5 22.5q-41 3 -41 43l2 360q0 43 45 37q69 -10 108 -13.5t72 7.5t46.5 25t23 59t10.5 88t1 133v299h-267q-41 0 -41 41l2 330q0 41 41 41h1164z" />
<glyph horiz-adv-x="1763" d="M883 1044q236 0 394 -20.5t246 -63t124 -99t36 -138.5v-682q0 -41 -41 -41h-569q-41 0 -41 41v78q-153 -150 -436 -150q-205 0 -323.5 36t-169 110.5t-50.5 201.5q0 93 53 156t137.5 93t186.5 45.5t204.5 20t187 10t137.5 22.5t53 51t-23 48.5t-86 14.5q-66 0 -92.5 -12 t-32.5 -49q-6 -41 -41 -41h-598q-41 0 -41 18q2 68 15.5 116t47.5 89t89.5 67t143.5 44.5t207 26t282 7.5zM858 272q87 0 120.5 20.5t33.5 84.5v41q-74 -8 -110.5 -12.5t-82 -14t-64 -23t-18.5 -32.5q0 -33 25.5 -48.5t95.5 -15.5z" />
<glyph horiz-adv-x="1763" d="M668 1147q-25 0 -32.5 15.5t7.5 35.5l203 252q19 25 51 25h492q28 0 35 -15t-13 -37l-254 -254q-19 -22 -49 -22h-440zM883 1044q236 0 394 -20.5t246 -63t124 -99t36 -138.5v-682q0 -41 -41 -41h-569q-41 0 -41 41v78q-153 -150 -436 -150q-205 0 -323.5 36t-169 110.5 t-50.5 201.5q0 93 53 156t137.5 93t186.5 45.5t204.5 20t187 10t137.5 22.5t53 51t-23 48.5t-86 14.5q-66 0 -92.5 -12t-32.5 -49q-6 -41 -41 -41h-598q-41 0 -41 18q2 68 15.5 116t47.5 89t89.5 67t143.5 44.5t207 26t282 7.5zM858 272q87 0 120.5 20.5t33.5 84.5v41 q-74 -8 -110.5 -12.5t-82 -14t-64 -23t-18.5 -32.5q0 -33 25.5 -48.5t95.5 -15.5z" />
<glyph horiz-adv-x="1763" d="M883 1126q-192 0 -312.5 67t-138.5 198q-3 43 41 43h242q11 0 19.5 -5t12 -9t13.5 -17q34 -43 123 -43q88 0 125 43q1 1 4 5t4 5t3.5 4.5t3.5 4.5t4 3.5t4.5 3t4 2t5 2t6 1t6.5 0.5h241q44 0 41 -43q-18 -131 -138 -198t-314 -67zM883 1044q236 0 394 -20.5t246 -63 t124 -99t36 -138.5v-682q0 -41 -41 -41h-569q-41 0 -41 41v78q-153 -150 -436 -150q-205 0 -323.5 36t-169 110.5t-50.5 201.5q0 93 53 156t137.5 93t186.5 45.5t204.5 20t187 10t137.5 22.5t53 51t-23 48.5t-86 14.5q-66 0 -92.5 -12t-32.5 -49q-6 -41 -41 -41h-598 q-41 0 -41 18q2 68 15.5 116t47.5 89t89.5 67t143.5 44.5t207 26t282 7.5zM858 272q87 0 120.5 20.5t33.5 84.5v41q-74 -8 -110.5 -12.5t-82 -14t-64 -23t-18.5 -32.5q0 -33 25.5 -48.5t95.5 -15.5z" />
<glyph horiz-adv-x="1763" d="M418 1147q-25 0 -32.5 13.5t7.5 35.5l219 295q17 25 50 25h442q32 0 49 -25l219 -295q15 -22 8 -35.5t-32 -13.5h-322q-29 0 -51 22l-92 99l-92 -99q-22 -22 -52 -22h-321zM883 1044q236 0 394 -20.5t246 -63t124 -99t36 -138.5v-682q0 -41 -41 -41h-569q-41 0 -41 41v78 q-153 -150 -436 -150q-205 0 -323.5 36t-169 110.5t-50.5 201.5q0 93 53 156t137.5 93t186.5 45.5t204.5 20t187 10t137.5 22.5t53 51t-23 48.5t-86 14.5q-66 0 -92.5 -12t-32.5 -49q-6 -41 -41 -41h-598q-41 0 -41 18q2 68 15.5 116t47.5 89t89.5 67t143.5 44.5t207 26 t282 7.5zM858 272q87 0 120.5 20.5t33.5 84.5v41q-74 -8 -110.5 -12.5t-82 -14t-64 -23t-18.5 -32.5q0 -33 25.5 -48.5t95.5 -15.5z" />
<glyph horiz-adv-x="1763" d="M403 1147q-41 0 -41 41v205q0 41 41 41h381q41 0 41 -41v-205q0 -41 -41 -41h-381zM979 1147q-41 0 -41 41v205q0 41 41 41h381q41 0 41 -41v-205q0 -41 -41 -41h-381zM883 1044q236 0 394 -20.5t246 -63t124 -99t36 -138.5v-682q0 -41 -41 -41h-569q-41 0 -41 41v78 q-153 -150 -436 -150q-205 0 -323.5 36t-169 110.5t-50.5 201.5q0 93 53 156t137.5 93t186.5 45.5t204.5 20t187 10t137.5 22.5t53 51t-23 48.5t-86 14.5q-66 0 -92.5 -12t-32.5 -49q-6 -41 -41 -41h-598q-41 0 -41 18q2 68 15.5 116t47.5 89t89.5 67t143.5 44.5t207 26 t282 7.5zM858 272q87 0 120.5 20.5t33.5 84.5v41q-74 -8 -110.5 -12.5t-82 -14t-64 -23t-18.5 -32.5q0 -33 25.5 -48.5t95.5 -15.5z" />
<glyph horiz-adv-x="1763" d="M647 1169l-254 254q-20 22 -12.5 37t35.5 15h491q32 0 51 -25l203 -252q15 -20 8 -35.5t-32 -15.5h-441q-30 0 -49 22zM883 1044q236 0 394 -20.5t246 -63t124 -99t36 -138.5v-682q0 -41 -41 -41h-569q-41 0 -41 41v78q-153 -150 -436 -150q-205 0 -323.5 36t-169 110.5 t-50.5 201.5q0 93 53 156t137.5 93t186.5 45.5t204.5 20t187 10t137.5 22.5t53 51t-23 48.5t-86 14.5q-66 0 -92.5 -12t-32.5 -49q-6 -41 -41 -41h-598q-41 0 -41 18q2 68 15.5 116t47.5 89t89.5 67t143.5 44.5t207 26t282 7.5zM858 272q87 0 120.5 20.5t33.5 84.5v41 q-74 -8 -110.5 -12.5t-82 -14t-64 -23t-18.5 -32.5q0 -33 25.5 -48.5t95.5 -15.5z" />
<glyph horiz-adv-x="1763" d="M463 1147q-41 0 -41 41v205q0 41 41 41h840q40 0 40 -41v-205q0 -41 -40 -41h-840zM883 1044q236 0 394 -20.5t246 -63t124 -99t36 -138.5v-682q0 -41 -41 -41h-569q-41 0 -41 41v78q-153 -150 -436 -150q-205 0 -323.5 36t-169 110.5t-50.5 201.5q0 93 53 156t137.5 93 t186.5 45.5t204.5 20t187 10t137.5 22.5t53 51t-23 48.5t-86 14.5q-66 0 -92.5 -12t-32.5 -49q-6 -41 -41 -41h-598q-41 0 -41 18q2 68 15.5 116t47.5 89t89.5 67t143.5 44.5t207 26t282 7.5zM858 272q87 0 120.5 20.5t33.5 84.5v41q-74 -8 -110.5 -12.5t-82 -14t-64 -23 t-18.5 -32.5q0 -33 25.5 -48.5t95.5 -15.5z" />
<glyph horiz-adv-x="1763" d="M883 1044q236 0 394 -20.5t246 -63t124 -99t36 -138.5v-682q0 -41 -41 -41h9q-117 -38 -175 -58t-105 -40t-59.5 -32.5t-6.5 -25.5q3 -13 35.5 -7.5t67 17.5t69.5 27q37 18 55 -20l74 -160q16 -39 -21 -57q-115 -45 -235.5 -56t-215 10.5t-155.5 78t-61 137.5 q0 155 204 186h-49q-41 0 -41 41v78q-153 -150 -436 -150q-205 0 -323.5 36t-169 110.5t-50.5 201.5q0 93 53 156t137.5 93t186.5 45.5t204.5 20t187 10t137.5 22.5t53 51t-23 48.5t-86 14.5q-66 0 -92.5 -12t-32.5 -49q-6 -41 -41 -41h-598q-41 0 -41 18q2 68 15.5 116 t47.5 89t89.5 67t143.5 44.5t207 26t282 7.5zM858 272q87 0 120.5 20.5t33.5 84.5v41q-74 -8 -110.5 -12.5t-82 -14t-64 -23t-18.5 -32.5q0 -33 25.5 -48.5t95.5 -15.5z" />
<glyph horiz-adv-x="1763" d="M1049 1042q185 -7 310 -31t195.5 -66t99.5 -95t29 -127v-682q0 -41 -41 -41h-569q-41 0 -41 41v78q-153 -150 -436 -150q-205 0 -323.5 36t-169 110.5t-50.5 201.5q0 93 53 156t137.5 93t186.5 45.5t204.5 20t187 10t137.5 22.5t53 51t-23 48.5t-86 14.5q-66 0 -92.5 -12 t-32.5 -49q-6 -41 -41 -41h-598q-41 0 -41 18q2 74 18.5 125t56.5 93t110 68t175.5 41.5t256.5 20.5q-71 42 -113.5 115t-42.5 160q0 132 95.5 226.5t228.5 94.5q132 0 226.5 -94.5t94.5 -226.5q0 -86 -42.5 -159.5t-112.5 -115.5zM883 1389q-29 0 -50.5 -21.5t-21.5 -50.5 t21.5 -50.5t50.5 -21.5t50 21.5t21 50.5t-21 50.5t-50 21.5zM858 272q87 0 120.5 20.5t33.5 84.5v41q-74 -8 -110.5 -12.5t-82 -14t-64 -23t-18.5 -32.5q0 -33 25.5 -48.5t95.5 -15.5z" />
<glyph horiz-adv-x="1763" d="M668 1655q-25 0 -32.5 15.5t7.5 35.5l203 254q19 22 51 22h492q28 0 35 -14.5t-13 -36.5l-254 -254q-19 -22 -49 -22h-440zM1085 1040q174 -9 292 -34t184.5 -66.5t94 -93t27.5 -123.5v-682q0 -41 -41 -41h-569q-41 0 -41 41v78q-153 -150 -436 -150q-205 0 -323.5 36 t-169 110.5t-50.5 201.5q0 93 53 156t137.5 93t186.5 45.5t204.5 20t187 10t137.5 22.5t53 51t-23 48.5t-86 14.5q-66 0 -92.5 -12t-32.5 -49q-6 -41 -41 -41h-598q-41 0 -41 18q2 90 27 148t89 102t176 66.5t288 29.5q-55 45 -87 110.5t-32 139.5q0 132 95.5 227t228.5 95 q132 0 226.5 -95t94.5 -227q0 -74 -32 -139.5t-87 -110.5zM883 1362q-29 0 -50.5 -21.5t-21.5 -50.5q0 -30 21 -50.5t51 -20.5t50.5 20.5t20.5 50.5q0 29 -21 50.5t-50 21.5zM858 272q87 0 120.5 20.5t33.5 84.5v41q-74 -8 -110.5 -12.5t-82 -14t-64 -23t-18.5 -32.5 q0 -33 25.5 -48.5t95.5 -15.5z" />
<glyph horiz-adv-x="1763" d="M467 1194q-45 -28 -45 20v170q0 31 16 52q63 63 176 63q82 0 174.5 -27.5t183 -55t169.5 -27.5q87 0 157 45q45 28 45 -19v-172q0 -31 -18 -49q-67 -64 -176 -64q-65 0 -137.5 17t-127 37.5t-126.5 37.5t-135 17q-91 0 -156 -45zM883 1044q236 0 394 -20.5t246 -63 t124 -99t36 -138.5v-682q0 -41 -41 -41h-569q-41 0 -41 41v78q-153 -150 -436 -150q-205 0 -323.5 36t-169 110.5t-50.5 201.5q0 93 53 156t137.5 93t186.5 45.5t204.5 20t187 10t137.5 22.5t53 51t-23 48.5t-86 14.5q-66 0 -92.5 -12t-32.5 -49q-6 -41 -41 -41h-598 q-41 0 -41 18q2 68 15.5 116t47.5 89t89.5 67t143.5 44.5t207 26t282 7.5zM858 272q87 0 120.5 20.5t33.5 84.5v41q-74 -8 -110.5 -12.5t-82 -14t-64 -23t-18.5 -32.5q0 -33 25.5 -48.5t95.5 -15.5z" />
<glyph horiz-adv-x="890" d="M682 1188q0 -41 -41 -41h-391q-41 0 -41 41v205q0 41 41 41h391q41 0 41 -41v-205zM801 41q0 -41 -41 -41h-625q-41 0 -41 41v942q0 41 41 41h625q41 0 41 -41v-942z" />
<glyph horiz-adv-x="1763" d="M1632 1024q41 0 41 -41v-850q0 -102 -9.5 -173.5t-38 -137.5t-75.5 -108t-127 -76t-186.5 -50t-260.5 -23t-342.5 -1t-438.5 22q-43 3 -43 41l-5 262q0 42 46 39q428 -32 561 -26q153 8 206 64q44 48 49 172l1 30v55q-49 -101 -171.5 -167t-314.5 -66q-96 0 -166 10.5 t-117.5 35.5t-76.5 56t-44.5 82t-20.5 103t-5 129v577q0 41 41 41h629q41 0 41 -41v-520q0 -66 12 -91.5t47 -25.5q127 0 127 330v307q0 41 41 41h600z" />
<glyph horiz-adv-x="1763" d="M668 1147q-25 0 -32.5 15.5t7.5 35.5l203 252q19 25 51 25h492q28 0 35 -15t-13 -37l-254 -254q-19 -22 -49 -22h-440zM1632 1024q41 0 41 -41v-850q0 -102 -9.5 -173.5t-38 -137.5t-75.5 -108t-127 -76t-186.5 -50t-260.5 -23t-342.5 -1t-438.5 22q-43 3 -43 41l-5 262 q0 42 46 39q428 -32 561 -26q153 8 206 64q44 48 49 172l1 30v55q-49 -101 -171.5 -167t-314.5 -66q-96 0 -166 10.5t-117.5 35.5t-76.5 56t-44.5 82t-20.5 103t-5 129v577q0 41 41 41h629q41 0 41 -41v-520q0 -66 12 -91.5t47 -25.5q127 0 127 330v307q0 41 41 41h600z" />
<glyph horiz-adv-x="1763" d="M418 1147q-25 0 -32.5 13.5t7.5 35.5l219 295q17 25 50 25h442q32 0 49 -25l219 -295q15 -22 8 -35.5t-32 -13.5h-322q-29 0 -51 22l-92 99l-92 -99q-22 -22 -52 -22h-321zM1632 1024q41 0 41 -41v-850q0 -102 -9.5 -173.5t-38 -137.5t-75.5 -108t-127 -76t-186.5 -50 t-260.5 -23t-342.5 -1t-438.5 22q-43 3 -43 41l-5 262q0 42 46 39q428 -32 561 -26q153 8 206 64q44 48 49 172l1 30v55q-49 -101 -171.5 -167t-314.5 -66q-96 0 -166 10.5t-117.5 35.5t-76.5 56t-44.5 82t-20.5 103t-5 129v577q0 41 41 41h629q41 0 41 -41v-520 q0 -66 12 -91.5t47 -25.5q127 0 127 330v307q0 41 41 41h600z" />
<glyph horiz-adv-x="1763" d="M403 1147q-41 0 -41 41v205q0 41 41 41h381q41 0 41 -41v-205q0 -41 -41 -41h-381zM979 1147q-41 0 -41 41v205q0 41 41 41h381q41 0 41 -41v-205q0 -41 -41 -41h-381zM1632 1024q41 0 41 -41v-850q0 -102 -9.5 -173.5t-38 -137.5t-75.5 -108t-127 -76t-186.5 -50 t-260.5 -23t-342.5 -1t-438.5 22q-43 3 -43 41l-5 262q0 42 46 39q428 -32 561 -26q153 8 206 64q44 48 49 172l1 30v55q-49 -101 -171.5 -167t-314.5 -66q-96 0 -166 10.5t-117.5 35.5t-76.5 56t-44.5 82t-20.5 103t-5 129v577q0 41 41 41h629q41 0 41 -41v-520 q0 -66 12 -91.5t47 -25.5q127 0 127 330v307q0 41 41 41h600z" />
<glyph horiz-adv-x="1763" d="M645 1169l-254 254q-20 22 -12.5 37t35.5 15h491q32 0 51 -25l203 -252q15 -20 8 -35.5t-32 -15.5h-441q-30 0 -49 22zM1632 1024q41 0 41 -41v-850q0 -102 -9.5 -173.5t-38 -137.5t-75.5 -108t-127 -76t-186.5 -50t-260.5 -23t-342.5 -1t-438.5 22q-43 3 -43 41l-5 262 q0 42 46 39q428 -32 561 -26q153 8 206 64q44 48 49 172l1 30v55q-49 -101 -171.5 -167t-314.5 -66q-96 0 -166 10.5t-117.5 35.5t-76.5 56t-44.5 82t-20.5 103t-5 129v577q0 41 41 41h629q41 0 41 -41v-520q0 -66 12 -91.5t47 -25.5q127 0 127 330v307q0 41 41 41h600z" />
<glyph horiz-adv-x="1878" d="M940 -20q-124 0 -227 11.5t-182.5 32t-143 53t-108.5 70t-77.5 88.5t-52.5 101.5t-31.5 117t-15.5 128t-4 139.5q0 76 4 136.5t15.5 126t31.5 116t52.5 102t77.5 89t108.5 71t143 54t182.5 32.5t227 12q123 0 226 -12t182.5 -32.5t142.5 -54t108 -71t77.5 -89t52.5 -102 t31.5 -116t15.5 -126t4 -136.5q0 -78 -4 -139.5t-15.5 -128t-31.5 -117t-52.5 -101.5t-77.5 -88.5t-108 -70t-142.5 -53t-182.5 -32t-226 -11.5zM940 397q75 0 99 70.5t24 253.5q0 176 -24.5 248.5t-98.5 72.5q-39 0 -64 -18.5t-38.5 -61t-18 -98t-4.5 -143.5 q0 -183 24.5 -253.5t100.5 -70.5z" />
<glyph horiz-adv-x="1495" d="M1151 412h213q41 0 41 -41v-330q0 -41 -41 -41h-1186q-41 0 -41 41v330q0 41 41 41h256v528l-250 -156q-22 -14 -35.5 -6t-13.5 33v397q0 31 29 47l334 166q21 13 51 13h561q41 0 41 -41v-981z" />
<glyph horiz-adv-x="1847" d="M1716 412q41 0 41 -41v-330q0 -41 -41 -41h-1599q-41 0 -41 41v233q0 120 33.5 212t90.5 147.5t131 93.5t155.5 56t162.5 30.5t155 21.5t131 23.5t90.5 43t33.5 73.5q0 57 -33.5 81.5t-107.5 24.5q-89 0 -115 -20.5t-29 -91.5q0 -43 -41 -43h-602q-41 0 -41 41 q3 99 18.5 168.5t53.5 126t96.5 91.5t153 58.5t217.5 33t295 9.5q200 0 346 -19t243.5 -56t155.5 -97t82.5 -134.5t24.5 -176.5q0 -100 -30.5 -177.5t-82.5 -125.5t-120 -81.5t-145 -50.5t-155 -28t-152.5 -19t-135 -18.5t-104.5 -31t-60 -52.5l256 25h669z" />
<glyph horiz-adv-x="1841" d="M1700 639q44 -51 63 -108.5t19 -137.5q0 -77 -18.5 -134.5t-73.5 -112.5t-148.5 -89.5t-250.5 -55.5t-373 -21q-182 0 -310.5 9.5t-225 34t-155 58.5t-95 91.5t-50.5 124.5t-16 165q0 41 40 41h617q41 0 41 -41q4 -75 34 -98t120 -23q69 0 101 25t32 84q0 127 -133 127 h-359q-41 0 -41 40v213q0 41 41 41h359q28 0 44 1t37.5 7t33 17t20 32.5t8.5 53.5q0 60 -35 84.5t-119 24.5q-69 0 -93.5 -21.5t-27.5 -79.5q-3 -41 -43 -41h-616q-41 0 -41 41q3 94 17 159t50 119.5t93 87.5t149.5 56t215.5 32t296 9q158 0 283.5 -10t216 -27t156 -44.5 t105.5 -58.5t63.5 -73.5t32 -85t8.5 -96.5q0 -148 -72 -258q-26 -40 -119 -86q58 -27 80.5 -41.5t38.5 -34.5z" />
<glyph horiz-adv-x="1937" d="M1837 614q41 0 41 -41v-286q0 -41 -41 -41h-143v-205q0 -41 -41 -41h-621q-41 0 -41 41v205h-837q-41 0 -41 41v311q0 26 20 49l680 764q23 23 51 23h789q41 0 41 -41v-779h143zM924 811l-183 -197h260v179l23 147z" />
<glyph horiz-adv-x="1816" d="M991 938q127 0 218 -3t172.5 -13t135 -24.5t98.5 -41t70 -59t42.5 -81.5t23.5 -106t6 -135q0 -115 -22.5 -194.5t-75.5 -141.5t-147.5 -97.5t-231.5 -53t-334 -17.5q-178 0 -309 11t-228.5 36t-160 61.5t-101.5 93.5t-55.5 124.5t-19.5 161.5q0 41 41 41h630q40 0 43 -41 q4 -65 32.5 -90t96.5 -25q73 0 99 28t26 101q0 24 -1 40t-7.5 29.5t-11 22t-20 14.5t-26 8.5t-38.5 4.5t-46.5 2h-60.5h-690q-41 0 -41 41v758q0 41 41 41h1553q41 0 41 -41v-316q0 -41 -41 -41h-922v-98h221z" />
</font>
</defs>
</svg>
