<?xml version="1.0" standalone="no"?>
<!DOCTYPE svg PUBLIC "-//W3C//DTD SVG 1.1//EN" "http://www.w3.org/Graphics/SVG/1.1/DTD/svg11.dtd" >
<svg xmlns="http://www.w3.org/2000/svg" xmlns:xlink="http://www.w3.org/1999/xlink" version="1.1">
<metadata></metadata>
<defs>
<font id="atc_duelv8" horiz-adv-x="1544" >
<font-face units-per-em="2048" ascent="1638" descent="-410" />
<missing-glyph horiz-adv-x="630" />
<glyph unicode="fi" horiz-adv-x="1808" d="M977 1436q39 -6 39 -43v-236q0 -43 -47 -37q-125 21 -161.5 2t-39.5 -98h207q41 0 41 -41v-272q0 -41 -41 -41h-209v-629q0 -41 -41 -41h-500q-41 0 -41 41v629h-108q-41 0 -41 41v272q0 41 41 41h108q4 97 22 167.5t56.5 124.5t98 85.5t147.5 46.5t202.5 11.5 t266.5 -23.5zM1667 1434q41 0 41 -41v-213q0 -41 -41 -41h-510q-41 0 -41 41v213q0 41 41 41h510zM1667 1024q41 0 41 -41v-942q0 -41 -41 -41h-510q-41 0 -41 41v942q0 41 41 41h510z" />
<glyph unicode="fl" horiz-adv-x="1808" d="M977 1436q39 -6 39 -43v-236q0 -43 -47 -37q-125 21 -161.5 2t-39.5 -98h207q41 0 41 -41v-272q0 -41 -41 -41h-209v-629q0 -41 -41 -41h-500q-41 0 -41 41v629h-108q-41 0 -41 41v272q0 41 41 41h108q4 97 22 167.5t56.5 124.5t98 85.5t147.5 46.5t202.5 11.5 t266.5 -23.5zM1667 1434q41 0 41 -41v-1352q0 -41 -41 -41h-510q-41 0 -41 41v1352q0 41 41 41h510z" />
<glyph unicode=" "  horiz-adv-x="630" />
<glyph unicode="&#x09;" horiz-adv-x="630" />
<glyph unicode="&#xa0;" horiz-adv-x="630" />
<glyph unicode="!" horiz-adv-x="802" d="M649 1434q41 0 41 -41v-369l-67 -575q-3 -39 -43 -39h-357q-37 0 -43 39l-65 575v369q0 41 41 41h493zM639 295q41 0 41 -41v-213q0 -41 -41 -41h-475q-41 0 -41 41v213q0 41 41 41h475z" />
<glyph unicode="&#x22;" horiz-adv-x="1122" d="M492 963q0 -41 -41 -41h-308q-41 0 -41 41v430q0 41 41 41h308q41 0 41 -41v-430zM1020 963q0 -41 -41 -41h-307q-41 0 -41 41v430q0 41 41 41h307q41 0 41 -41v-430z" />
<glyph unicode="#" horiz-adv-x="1421" d="M1380 1124q41 0 41 -41v-233q0 -41 -41 -41h-145l-23 -172h105q41 0 41 -41v-242q0 -41 -41 -41h-148l-36 -274q-6 -39 -46 -39h-358q-21 0 -31.5 11.5t-7.5 31.5l39 270h-156l-36 -274q-6 -39 -45 -39h-357q-21 0 -31.5 11.5t-7.5 31.5l37 270h-94q-41 0 -41 41v242 q0 41 41 41h139l25 172h-101q-41 0 -41 41v233q0 41 41 41h144l37 271q6 39 45 39h354q43 0 37 -43l-35 -267h156l37 271q6 39 45 39h356q43 0 37 -43l-37 -267h102zM772 637l25 172h-156l-23 -172h154z" />
<glyph unicode="$" horiz-adv-x="1656" d="M1599 434q0 -107 -24.5 -183.5t-83 -135.5t-158 -93t-248.5 -49l25 -340q3 -43 -39 -43h-422q-42 0 -39 43l25 336q-162 12 -269 44t-171 92t-91.5 140.5t-31.5 198.5q0 41 41 41h510q38 0 41 -41q8 -63 44.5 -84.5t139.5 -21.5q94 0 127 22.5t33 71.5q0 35 -32 56.5 t-85.5 32.5t-123.5 18t-147 17t-154 25.5t-147 47.5t-123.5 78.5t-85.5 123.5t-32 177q0 98 26.5 172t88.5 134t172.5 97t269.5 51l-25 357q-3 43 39 43h422q42 0 39 -43l-25 -359q146 -14 242 -47t152 -92.5t79.5 -135.5t26.5 -188q0 -41 -41 -41h-508q-38 0 -41 41 q-8 65 -40 86t-124 21q-96 0 -127.5 -20.5t-31.5 -71.5q0 -35 31.5 -57t85.5 -33t123.5 -18.5t146.5 -17.5t153.5 -25.5t146 -47.5t123.5 -78.5t85.5 -123.5t31.5 -177z" />
<glyph unicode="%" horiz-adv-x="2320" d="M508 1450q202 0 322 -113t120 -313q0 -145 -62.5 -250.5t-164.5 -157t-229 -51.5t-229 49.5t-163 149t-61 233.5q0 204 127 328.5t338 124.5h2zM598 -20q-25 0 -33 14.5t4 34.5l797 1386q14 29 49 29h295q25 0 33 -14.5t-4 -34.5l-797 -1387q-14 -28 -49 -28h-295z M498 1235q-129 0 -129 -227q0 -230 133 -230q123 0 123 230q0 113 -29 170t-96 57h-2zM1833 862q204 0 325 -112t121 -312q0 -145 -62.5 -250t-165 -155.5t-230.5 -50.5q-197 0 -324 115t-127 315q0 203 124 326.5t329 123.5h10zM1825 649q-129 0 -129 -229q0 -227 133 -227 q62 0 92.5 54.5t30.5 174.5q0 113 -29 170t-96 57h-2z" />
<glyph unicode="&#x26;" horiz-adv-x="1828" d="M1855 51q21 -20 15 -35.5t-33 -15.5h-537q-27 0 -53 20l-59 54q-216 -94 -496 -94q-179 0 -307 27.5t-205 81.5t-112 128.5t-35 175.5q0 62 20 115.5t52.5 93.5t81.5 74.5t100.5 58.5t115.5 47q-95 102 -130 172.5t-35 147.5q0 68 18 120.5t62 97t114.5 73.5t178.5 45 t251 16q229 0 366 -41.5t192 -117.5t55 -197q0 -66 -19.5 -122.5t-51.5 -98t-79.5 -78t-95.5 -61.5t-109 -48l115 -100q13 16 35 47.5t30 42.5q17 29 50 29l426 2q24 0 31.5 -14.5t-5.5 -37.5q-117 -193 -258 -337zM866 1128q-104 -3 -102 -64t96 -146q144 52 144 126 q0 41 -29.5 62.5t-108.5 21.5zM760 305q60 0 133 25q-166 146 -221 196q-66 -43 -66 -102q0 -60 36.5 -89.5t117.5 -29.5z" />
<glyph unicode="'" horiz-adv-x="593" d="M492 963q0 -41 -41 -41h-308q-41 0 -41 41v430q0 41 41 41h308q41 0 41 -41v-430z" />
<glyph unicode="(" horiz-adv-x="1042" d="M856 -223q10 -23 1.5 -36t-32.5 -13h-299q-32 0 -49 28q-544 960 0 1921q17 29 49 29h299q24 0 32.5 -13t-1.5 -36q-416 -945 0 -1880z" />
<glyph unicode=")" horiz-adv-x="1042" d="M186 -223q416 935 0 1880q-10 23 -1.5 36t32.5 13h299q34 0 49 -29q549 -960 0 -1921q-14 -28 -49 -28h-299q-24 0 -32.5 13t1.5 36z" />
<glyph unicode="*" horiz-adv-x="892" d="M791 1403q18 -34 -13 -55l-94 -68l94 -68q31 -21 13 -55l-64 -113q-17 -33 -55 -16l-107 47l-12 -114q-3 -39 -43 -39h-127q-40 0 -43 39l-12 114l-107 -47q-35 -15 -53 19l-64 110q-18 35 11 55l94 68l-94 68q-31 21 -13 55l64 113q17 33 55 16l107 -47l12 114 q3 39 43 39h127q40 0 43 -39l12 -114l107 47q38 17 55 -16z" />
<glyph unicode="+" horiz-adv-x="1222" d="M719 473v-399q0 -41 -41 -41h-139q-41 0 -41 41v399h-357q-41 0 -41 41v129q0 41 41 41h357v371q0 41 41 41h139q41 0 41 -41v-371h354q41 0 41 -41v-129q0 -41 -41 -41h-354z" />
<glyph unicode="," horiz-adv-x="909" d="M498 -176q-17 -29 -49 -29h-277q-20 0 -30.5 12.5t-6.5 32.5l101 432q6 35 43 35h446q25 0 33 -13.5t-4 -35.5z" />
<glyph unicode="-" horiz-adv-x="1171" d="M1028 367q0 -41 -41 -41h-803q-41 0 -41 41v311q0 41 41 41h803q41 0 41 -41v-311z" />
<glyph unicode="." horiz-adv-x="659" d="M557 41q0 -41 -41 -41h-373q-41 0 -41 41v313q0 41 41 41h373q41 0 41 -41v-313z" />
<glyph unicode="/" horiz-adv-x="978" d="M469 1399q12 35 47 35h414q22 0 31.5 -13t3.5 -35l-453 -1376q-12 -35 -47 -35h-418q-22 0 -31.5 13t-3.5 35z" />
<glyph unicode="0" horiz-adv-x="1658" d="M831 -20q-136 0 -243 19t-183.5 51.5t-132 85.5t-89 111.5t-53 138.5t-26 157.5t-6.5 177.5q0 98 6.5 174t26.5 155.5t53 138t88.5 112t131.5 87t184 53t243 19.5q134 0 241.5 -19.5t183 -53t131 -87t88.5 -112t52.5 -138t26.5 -155.5t7 -174q0 -100 -7 -177.5 t-26.5 -157.5t-52.5 -138.5t-88.5 -111.5t-131.5 -85.5t-182.5 -51.5t-241.5 -19zM831 385q78 0 102.5 71.5t24.5 264.5q0 185 -24.5 259.5t-102.5 74.5q-80 0 -105.5 -74t-25.5 -260q0 -193 25 -264.5t106 -71.5z" />
<glyph unicode="1" horiz-adv-x="1320" d="M999 395h187q41 0 41 -41v-313q0 -41 -41 -41h-1016q-41 0 -41 41v313q0 41 41 41h227v559l-221 -147q-22 -13 -35.5 -5.5t-13.5 32.5v374q0 32 29 49l307 164q26 13 49 13h446q41 0 41 -41v-998z" />
<glyph unicode="2" horiz-adv-x="1624" d="M1497 395q41 0 41 -41v-313q0 -41 -41 -41h-1380q-41 0 -41 41v233q0 94 21 171t49.5 128.5t82.5 93.5t95.5 64.5t114.5 42.5t112.5 27.5t114.5 19.5q63 10 93 15.5t75 18t66 27t37.5 38t16.5 55.5q0 62 -34 87t-111 25q-92 0 -119.5 -21t-30.5 -93q0 -41 -41 -41h-487 q-41 0 -41 41q3 96 18 165.5t49.5 125t86.5 90.5t134.5 58t187 32.5t249.5 9.5q277 0 441 -53.5t232 -157t68 -272.5q0 -101 -28.5 -178t-76.5 -124.5t-111 -81t-133.5 -50t-141.5 -28t-137.5 -20.5t-119.5 -21t-89 -35t-45 -58l209 20h614z" />
<glyph unicode="3" horiz-adv-x="1619" d="M1481 639q44 -51 63 -108.5t19 -137.5q0 -76 -17.5 -134t-67 -112.5t-132 -89.5t-218 -56t-319.5 -21q-154 0 -265 9.5t-195 33.5t-136 58.5t-85 91t-46.5 124.5t-15.5 164q0 41 40 41h496q41 0 41 -41q4 -77 36.5 -101t129.5 -24q76 0 109.5 24.5t33.5 83.5 q0 73 -37.5 102t-105.5 29h-305q-41 0 -41 41v218q0 40 41 40h305q38 0 60.5 3t47 13.5t35.5 35t11 63.5q0 60 -36.5 84.5t-127.5 24.5q-77 0 -103.5 -22t-29.5 -83q-3 -41 -43 -41h-496q-41 0 -41 41q3 93 16.5 158.5t46 119t83 87t131 56t185.5 31.5t251 9 q188 0 323.5 -19t218 -51.5t130.5 -84.5t64.5 -108t16.5 -132q0 -149 -71 -258q-27 -40 -119 -86q58 -27 80.5 -41.5t38.5 -34.5z" />
<glyph unicode="4" horiz-adv-x="1718" d="M1618 606q41 0 41 -41v-270q0 -41 -41 -41h-143v-213q0 -41 -41 -41h-510q-41 0 -41 41v213h-729q-41 0 -41 41v303q0 27 18 51l655 760q19 25 50 25h598q41 0 41 -41v-787h143zM819 817l-186 -211h260v193l18 135z" />
<glyph unicode="5" horiz-adv-x="1597" d="M883 932q105 0 181 -3.5t145 -12.5t115 -24t85.5 -40.5t62 -58t38.5 -80.5t22 -105t6 -133q0 -142 -33 -235t-115 -155t-215 -88t-337 -26q-227 0 -371.5 24.5t-232 84.5t-122.5 147.5t-40 225.5q0 41 41 41h516q40 0 43 -41q4 -65 34 -90t101 -25q76 0 102.5 29 t26.5 106q0 20 -0.5 34.5t-4.5 27.5t-6.5 21.5t-12 16t-15 12t-22.5 7.5t-27 4.5t-35.5 2.5t-41 1h-50.5h-582q-41 0 -41 41v752q0 41 41 41h1334q40 0 40 -41v-303q0 -41 -40 -41h-811v-117h221z" />
<glyph unicode="6" horiz-adv-x="1705" d="M1237 874q72 0 127.5 -9t96 -24.5t68.5 -43t45.5 -58.5t27 -77.5t13 -92.5t3.5 -110q0 -134 -34.5 -221t-122 -147t-234 -85.5t-373.5 -25.5q-180 0 -302 13t-209.5 52t-136 87.5t-75 142.5t-33.5 191.5t-6 258.5q0 84 3.5 149.5t12.5 129.5t23.5 112t38 94t55 78.5 t75 61.5t98 47t124 31.5t152.5 19.5t184 6q213 0 352 -23.5t223 -79t119.5 -135.5t40.5 -202q0 -41 -41 -41h-497q-37 0 -43 39q-6 46 -37 58.5t-127 12.5q-35 0 -53.5 -1.5t-38 -10t-28.5 -23.5t-17 -44t-11.5 -68.5t-5.5 -101.5q182 28 262 34t281 6zM885 338q91 0 121 26 t30 93q0 68 -19 90t-75 22h-250q2 -56 5.5 -92.5t13 -63.5t21 -41t36 -22t49 -10t68.5 -2z" />
<glyph unicode="7" horiz-adv-x="1499" d="M1415 1434q41 0 41 -41v-219q0 -30 -14 -52l-604 -1093q-16 -29 -50 -29h-534q-24 0 -32.5 13.5t3.5 33.5l463 850l107 141h-697q-41 0 -41 41v314q0 41 41 41h1317z" />
<glyph unicode="8" horiz-adv-x="1585" d="M1432 651q63 -51 86.5 -112t23.5 -146q0 -76 -17.5 -134t-66.5 -112.5t-130 -89.5t-214.5 -56t-314.5 -21q-182 0 -316 21t-215.5 56t-130.5 89.5t-66.5 112.5t-17.5 134q0 85 24.5 146t88.5 112q41 33 127 66q-97 41 -127 71q-103 100 -103 271q0 76 16.5 132t64 108 t128 84.5t213 51.5t314.5 19q181 0 313 -19t212.5 -51.5t127.5 -84.5t63.5 -108t16.5 -132q0 -172 -102 -271q-30 -30 -125 -71q87 -34 127 -66zM799 872q85 0 128.5 25.5t43.5 95.5q0 55 -38 78t-134 23q-97 0 -135.5 -23t-38.5 -78q0 -70 44 -95.5t130 -25.5zM799 340 q93 0 130.5 23t37.5 77q0 138 -168 138t-168 -138q0 -54 37.5 -77t130.5 -23z" />
<glyph unicode="9" horiz-adv-x="1644" d="M840 1454q107 0 192 -4.5t157 -17.5t125.5 -28.5t97 -44.5t73 -59t51 -78t34 -95t19.5 -117.5t9 -138t1 -162.5q0 -84 -3.5 -149.5t-12.5 -129.5t-23.5 -112t-37.5 -94t-54.5 -78.5t-75 -61.5t-97.5 -47t-123.5 -31.5t-152 -19.5t-183.5 -6q-213 0 -352 23.5t-223.5 79 t-120 135.5t-40.5 202q0 41 41 41h498q37 0 43 -39q6 -46 37.5 -59t126.5 -13q41 0 62 3.5t41 15.5t28 41t14 72.5t8 117.5q-185 -29 -264.5 -35t-277.5 -6q-84 0 -145.5 11t-103.5 36t-68 56.5t-40 82.5t-19 103t-5 127q0 134 34.5 221t122 147t234 85.5t373.5 25.5z M657 977q0 -68 19.5 -90.5t75.5 -22.5h249q-2 57 -5 93t-13 63.5t-21.5 41t-35.5 22t-48.5 10.5t-68.5 2q-91 0 -121.5 -26t-30.5 -93z" />
<glyph unicode=":" horiz-adv-x="741" d="M598 670q0 -41 -41 -41h-373q-41 0 -41 41v313q0 41 41 41h373q41 0 41 -41v-313zM598 41q0 -41 -41 -41h-373q-41 0 -41 41v313q0 41 41 41h373q41 0 41 -41v-313z" />
<glyph unicode=";" horiz-adv-x="796" d="M637 684q0 -41 -41 -41h-375q-41 0 -41 41v311q0 41 41 41h375q41 0 41 -41v-311zM410 -207q-17 -26 -50 -26h-264q-20 0 -30 12t-7 31l97 415q5 33 43 33h428q24 0 31.5 -12.5t-3.5 -34.5z" />
<glyph unicode="&#x3c;" horiz-adv-x="1216" d="M135 455q-31 15 -31 47v153q0 31 31 47l926 431q22 10 35.5 1t13.5 -32v-139q0 -35 -31 -50l-766 -331v-4l768 -334q31 -16 31 -49v-142q0 -23 -13.5 -31.5t-35.5 1.5z" />
<glyph unicode="=" horiz-adv-x="1216" d="M141 705q-41 0 -41 40v129q0 41 41 41h932q41 0 41 -41v-129q0 -40 -41 -40h-932zM141 242q-41 0 -41 41v129q0 41 41 41h932q41 0 41 -41v-129q0 -41 -41 -41h-932z" />
<glyph unicode="&#x3e;" horiz-adv-x="1216" d="M1081 702q31 -16 31 -47v-155q0 -32 -31 -47l-927 -430q-22 -10 -36 -1.5t-14 31.5v142q0 33 31 49l768 334v4l-768 331q-31 15 -31 50v139q0 23 14 32t36 -1z" />
<glyph unicode="?" horiz-adv-x="1705" d="M184 920q-41 0 -41 43q5 144 44 239t127 154.5t220 84.5t332 25q141 0 252.5 -14t188 -36.5t131 -60t85.5 -76.5t48.5 -94t22 -103.5t3.5 -114.5q-5 -463 -421 -463q-63 0 -85.5 -18.5t-25.5 -75.5q-3 -41 -43 -41h-481q-41 0 -41 41v86q0 177 79.5 245t258.5 68 q58 0 91.5 6.5t50.5 25.5t21.5 42t4.5 67q0 80 -13 117t-41 49t-90 12q-82 0 -108.5 -38.5t-28.5 -126.5q0 -41 -41 -41zM1063 41q0 -41 -41 -41h-481q-41 0 -41 41v205q0 41 41 41h481q41 0 41 -41v-205z" />
<glyph unicode="@" horiz-adv-x="1787" d="M909 1313q189 0 344 -60t259 -167.5t160.5 -256t56.5 -323.5q0 -77 -13.5 -144.5t-46.5 -130t-84 -107t-131 -71t-182 -26.5q-164 0 -258.5 69.5t-104.5 161.5q-87 -133 -235 -133q-42 0 -74.5 7t-60 23t-44.5 44.5t-26 69t-7 98t15 131.5q19 110 48.5 184.5t72 116 t92 58.5t115.5 17q137 0 186 -120l13 69q6 37 43 37h233q20 0 30 -12.5t7 -32.5l-64 -369q-29 -178 78 -178q59 0 97 73t38 165q0 259 -140.5 409t-416.5 150q-265 0 -413 -146t-148 -413q0 -258 136.5 -403.5t383.5 -157.5q41 0 41 -41v-166q0 -41 -41 -41 q-244 9 -425 115.5t-274 285.5t-93 408q0 175 57.5 323.5t163 256t263 167.5t349.5 60zM834 356q36 0 75 40.5t52 101.5l2 10q7 56 -17.5 95.5t-62.5 39.5q-74 0 -99 -145q-24 -142 50 -142z" />
<glyph unicode="A" horiz-adv-x="1748" d="M1733 45q6 -20 -3.5 -32.5t-31.5 -12.5h-549q-35 0 -45 37l-45 196h-373l-45 -198q-10 -37 -45 -37l-551 2q-22 0 -31 12.5t-2 32.5l424 1354q8 35 47 35h777q39 0 47 -35zM760 567h223l-96 424l-15 117l-16 -117z" />
<glyph unicode="B" horiz-adv-x="1677" d="M1368 737q133 -21 195.5 -109.5t62.5 -215.5q0 -223 -153 -317.5t-494 -94.5h-834q-41 0 -41 41v1352q0 41 41 41h793q141 0 240.5 -10t180.5 -34.5t128.5 -67t72.5 -107.5t25 -156q0 -61 -9.5 -110t-32.5 -94t-67 -75.5t-108 -42.5zM1038 971q0 46 -25.5 69t-86.5 23 h-258v-186h258q112 0 112 94zM946 379q113 0 113 96q0 53 -26 78t-87 25h-278v-199h278z" />
<glyph unicode="C" horiz-adv-x="1738" d="M1120 854q-37 0 -43 41q-10 91 -49.5 124.5t-134.5 33.5q-117 0 -161 -75t-44 -257q0 -194 42.5 -264t162.5 -70q105 0 142 37.5t46 148.5q3 41 41 41h520q42 0 39 -43q-9 -161 -52 -270t-136.5 -185t-245 -110.5t-375.5 -34.5q-131 0 -240 19t-190 54t-143.5 86.5 t-104 113.5t-68 139.5t-37.5 159.5t-11 178q0 132 22.5 238.5t78 202t144.5 160t228 101.5t321 37q188 0 321.5 -20t226 -60t147.5 -109t81.5 -158t32.5 -216q3 -43 -39 -43h-522z" />
<glyph unicode="D" horiz-adv-x="1697" d="M831 1434q428 0 616.5 -168.5t188.5 -540.5q0 -362 -191.5 -543.5t-613.5 -181.5h-665q-41 0 -41 41v1352q0 41 41 41h665zM840 395q229 0 229 330q0 155 -53 234t-176 79h-142v-643h142z" />
<glyph unicode="E" horiz-adv-x="1525" d="M1382 1057h-704v-166h704q41 0 41 -41v-266q0 -41 -41 -41h-704v-166h704q41 0 41 -41v-295q0 -41 -41 -41h-1226q-41 0 -41 41v1352q0 41 41 41h1226q41 0 41 -41v-295q0 -41 -41 -41z" />
<glyph unicode="F" horiz-adv-x="1474" d="M1382 1028h-673v-199h673q41 0 41 -41v-274q0 -41 -41 -41h-673v-432q0 -41 -41 -41h-512q-41 0 -41 41v1352q0 41 41 41h1226q41 0 41 -41v-324q0 -41 -41 -41z" />
<glyph unicode="G" horiz-adv-x="1771" d="M1665 788q41 0 41 -43q-2 -151 -17.5 -260t-53.5 -199t-98 -147t-155.5 -96t-221 -55.5t-298.5 -16.5q-183 0 -320.5 37.5t-225 101.5t-141.5 161t-75.5 205.5t-21.5 244.5q0 132 23.5 239t82 202t151 159.5t236.5 101.5t332 37q178 0 306.5 -19t218 -56.5t143 -100.5 t78 -144t28.5 -194q0 -41 -41 -41h-516q-38 0 -41 39q-5 48 -21.5 72.5t-54.5 35.5t-110 11q-116 0 -160.5 -79.5t-44.5 -262.5q0 -199 44 -282t161 -83q122 0 173.5 31t55.5 125h-186q-41 0 -41 41v195q0 40 41 40h729z" />
<glyph unicode="H" horiz-adv-x="1714" d="M1579 1434q41 0 41 -41v-1352q0 -41 -41 -41h-522q-41 0 -41 41v475h-318v-475q0 -41 -41 -41h-522q-41 0 -41 41v1352q0 41 41 41h522q41 0 41 -41v-475h318v475q0 41 41 41h522z" />
<glyph unicode="I" horiz-adv-x="888" d="M766 41q0 -41 -41 -41h-549q-41 0 -41 41v1352q0 41 41 41h549q41 0 41 -41v-1352z" />
<glyph unicode="J" horiz-adv-x="1077" d="M61 365q0 44 48 34q36 -6 61 -9.5t48.5 -3t38.5 1.5t29 11.5t21.5 19t14 31.5t9 41t4.5 55.5t2.5 68.5t0.5 85v693q0 41 41 41h512q41 0 41 -41v-830q0 -136 -14 -230.5t-51 -169.5t-96.5 -117.5t-154.5 -65t-220 -21t-298 22.5q-39 3 -39 43z" />
<glyph unicode="K" horiz-adv-x="1718" d="M1686 49q14 -20 6 -34.5t-33 -14.5h-598q-33 0 -49 29l-221 374l-93 -73v-289q0 -41 -41 -41h-512q-41 0 -41 41v1352q0 41 41 41h512q41 0 41 -41v-287l-12 -191l74 127l237 365q16 27 50 27h589q27 0 34.5 -15t-9.5 -35l-475 -589z" />
<glyph unicode="L" horiz-adv-x="1386" d="M1307 395q41 0 41 -41v-313q0 -41 -41 -41h-1151q-41 0 -41 41v1352q0 41 41 41h553q41 0 41 -41v-998h557z" />
<glyph unicode="M" horiz-adv-x="2172" d="M2019 1434q41 0 41 -41v-1352q0 -41 -41 -41h-448q-41 0 -41 41l24 924l-127 -613q-48 -217 -79 -319q-9 -33 -45 -33h-451q-36 0 -45 33q-14 45 -34.5 125t-34.5 137l-13 57l-125 590l29 -901q0 -41 -39 -41h-457q-41 0 -41 41v1352q0 41 41 41h744q35 0 45 -37l53 -240 l84 -547l18 -178l17 178l84 547l53 240q10 37 45 37h743z" />
<glyph unicode="N" horiz-adv-x="1820" d="M1671 1434q41 0 41 -41v-1352q0 -41 -41 -41h-676q-34 0 -45 33l-299 837l27 -282l14 -547q0 -41 -39 -41h-489q-41 0 -41 41v1352q0 41 41 41h674q36 0 47 -33l303 -848l-27 297l-10 543q0 41 41 41h479z" />
<glyph unicode="O" horiz-adv-x="1738" d="M872 -29q-189 0 -333.5 37t-238.5 102t-154 161t-84.5 205.5t-24.5 244.5q0 131 24.5 238.5t84.5 202.5t154 159.5t239 101.5t333 37q157 0 283.5 -25t216.5 -73.5t155 -113t103.5 -149.5t56 -177t17.5 -201q0 -135 -25 -244.5t-84.5 -205.5t-153 -161t-238 -102 t-331.5 -37zM872 397q121 0 171.5 70.5t50.5 253.5q0 176 -51 248.5t-171 72.5q-121 0 -173 -73t-52 -248q0 -183 51.5 -253.5t173.5 -70.5z" />
<glyph unicode="P" horiz-adv-x="1619" d="M852 1434q165 0 282 -15t206.5 -49t141.5 -92.5t77.5 -142t25.5 -201.5q0 -140 -39 -236t-127 -159t-226 -91t-341 -28h-154v-379q0 -41 -41 -41h-512q-41 0 -41 41v1352q0 41 41 41h707zM852 772q94 0 130 37t36 100q0 57 -35.5 90t-130.5 33h-154v-260h154z" />
<glyph unicode="Q" horiz-adv-x="1738" d="M1477 141l122 -164q27 -38 -12 -57l-325 -180q-36 -19 -56 14l-153 234q-114 -8 -181 -8q-158 0 -285 24.5t-217.5 72t-155.5 111.5t-103.5 149t-56 178.5t-17.5 205.5q0 131 24.5 238.5t84.5 202.5t154 159.5t239 101.5t333 37q157 0 283.5 -25t216.5 -73.5t155 -113 t103.5 -149.5t56 -177t17.5 -201q0 -403 -227 -580zM647 721q0 -185 52.5 -264.5t172.5 -79.5q119 0 170.5 79.5t51.5 264.5q0 176 -51 248.5t-171 72.5q-121 0 -173 -73t-52 -248z" />
<glyph unicode="R" horiz-adv-x="1626" d="M1593 47q10 -22 2.5 -34.5t-30.5 -12.5h-521q-36 0 -49 31l-196 389h-121v-379q0 -41 -41 -41h-492q-41 0 -41 41v1352q0 41 41 41h713q172 0 295.5 -18.5t207.5 -55t133 -97.5t70 -138t21 -185q0 -105 -20 -184t-74.5 -147t-144.5 -111zM852 772q94 0 130 37t36 100 q0 57 -35.5 90t-130.5 33h-174v-260h174z" />
<glyph unicode="S" horiz-adv-x="1656" d="M1599 434q0 -128 -34.5 -213t-121 -145t-233.5 -86.5t-372 -26.5q-151 0 -264.5 11.5t-198 37t-141 62.5t-92 92.5t-51.5 122t-19 155.5q0 41 41 41h510q38 0 41 -41q8 -63 44.5 -84.5t139.5 -21.5q94 0 127 22.5t33 71.5q0 35 -32 56.5t-85.5 32.5t-123.5 18t-147 17 t-154 25.5t-147 47.5t-123.5 78.5t-85.5 123.5t-32 177q0 90 21.5 159t74.5 127.5t139 96t218.5 58.5t310.5 21q179 0 305 -17.5t210 -51.5t133 -93t70.5 -132t24.5 -179q0 -41 -41 -41h-508q-38 0 -41 41q-8 65 -40 86t-124 21q-96 0 -127.5 -20.5t-31.5 -71.5 q0 -35 31.5 -57t85.5 -33t123.5 -18.5t146.5 -17.5t153.5 -25.5t146 -47.5t123.5 -78.5t85.5 -123.5t31.5 -177z" />
<glyph unicode="T" horiz-adv-x="1605" d="M1550 1434q41 0 41 -41v-314q0 -41 -41 -41h-426v-997q0 -41 -41 -41h-540q-41 0 -41 41v997h-424q-41 0 -41 41v314q0 41 41 41h1472z" />
<glyph unicode="U" horiz-adv-x="1796" d="M1085 680v713q0 41 41 41h533q41 0 41 -41v-713q0 -194 -39.5 -326t-132.5 -222t-245.5 -130.5t-379.5 -40.5t-379.5 40.5t-245.5 130.5t-132.5 222t-39.5 326v713q0 41 41 41h533q41 0 41 -41v-713q0 -121 18 -182t54.5 -82t109.5 -21t109.5 21t54.5 82t18 182z" />
<glyph unicode="V" horiz-adv-x="1697" d="M1649 1434q22 0 31 -12.5t3 -32.5l-411 -1354q-9 -35 -45 -35h-756q-35 0 -47 35l-410 1354q-7 20 2 32.5t31 12.5h549q39 0 45 -37l152 -676l55 -334l55 334l152 676q10 37 45 37h549z" />
<glyph unicode="W" horiz-adv-x="2209" d="M2150 1434q21 0 31.5 -11.5t7.5 -31.5l-204 -1354q-5 -37 -46 -37h-663q-40 0 -45 37l-45 291l-62 534l-63 -534l-45 -291q-5 -37 -45 -37h-664q-40 0 -45 37l-205 1354q-3 20 7.5 31.5t31.5 11.5h494q40 0 43 -39l76 -908l30 242l123 668q6 37 43 37h436q37 0 43 -37 l123 -668l31 -242l78 908q3 39 41 39h493z" />
<glyph unicode="X" horiz-adv-x="1728" d="M1290 717l406 -668q12 -20 4 -34.5t-31 -14.5h-563q-32 0 -47 29l-158 303l-49 145l-49 -145l-158 -303q-15 -29 -49 -29h-563q-25 0 -33 14.5t4 34.5l412 668l-410 667q-12 20 -4 35t33 15h563q33 0 49 -29l156 -303l49 -144l49 144l156 303q16 29 47 29h565 q23 0 31 -15t-4 -35z" />
<glyph unicode="Y" horiz-adv-x="1667" d="M1649 1434q24 0 32.5 -14t-2.5 -36l-526 -935v-408q0 -41 -41 -41h-561q-41 0 -41 41v418l-526 925q-12 22 -3.5 36t31.5 14h566q36 0 47 -31l145 -352l61 -203l60 203l145 352q11 31 47 31h566z" />
<glyph unicode="Z" horiz-adv-x="1507" d="M1442 1102l-490 -604l-112 -103h579q41 0 41 -41v-313q0 -41 -41 -41h-1313q-40 0 -40 41v240q0 30 18 51l477 590l127 116h-565q-41 0 -41 41v314q0 41 41 41h1296q41 0 41 -41v-240q0 -27 -18 -51z" />
<glyph unicode="[" horiz-adv-x="907" d="M567 61h135q41 0 41 -41v-251q0 -41 -41 -41h-559q-41 0 -41 41v1896q0 41 41 41h559q41 0 41 -41v-252q0 -41 -41 -41h-135v-1311z" />
<glyph unicode="\" horiz-adv-x="983" d="M532 1399l457 -1376q7 -22 -2 -35t-31 -13h-419q-36 0 -45 35l-453 1376q-6 22 3.5 35t31.5 13h413q36 0 45 -35z" />
<glyph unicode="]" horiz-adv-x="1009" d="M342 61v1311h-137q-41 0 -41 41v252q0 41 41 41h559q41 0 41 -41v-1896q0 -41 -41 -41h-559q-41 0 -41 41v251q0 41 41 41h137z" />
<glyph unicode="^" horiz-adv-x="1198" d="M915 551q-37 0 -49 31l-270 610l-274 -608q-13 -31 -50 -31h-137q-23 0 -31.5 13.5t0.5 35.5l375 787q13 30 47 30h144q34 0 47 -30l375 -789q9 -20 0.5 -33.5t-31.5 -13.5z" />
<glyph unicode="_" horiz-adv-x="2244" d="M2101 -399q0 -41 -41 -41h-1876q-41 0 -41 41v313q0 41 41 41h1876q41 0 41 -41v-313z" />
<glyph unicode="a" horiz-adv-x="1533" d="M1413 1024q41 0 41 -41v-942q0 -41 -41 -41h-500q-41 0 -41 41v94q-136 -155 -383 -155q-92 0 -159 14t-121.5 49.5t-87.5 95.5t-50.5 151t-17.5 218q0 159 25 263.5t81 164.5t134 84t196 24q245 0 383 -153v92q0 41 41 41h500zM735 315q58 0 108 57t50 146q0 79 -51 135 t-107 56q-108 0 -108 -201q0 -193 108 -193z" />
<glyph unicode="b" horiz-adv-x="1552" d="M1059 1044q118 0 196 -24t134 -84t81 -164.5t25 -263.5q0 -127 -17.5 -218t-50.5 -151t-87.5 -95.5t-121.5 -49.5t-159 -14q-249 0 -381 155v-94q0 -41 -41 -41h-502q-41 0 -41 41v1352q0 41 41 41h502q41 0 41 -41v-502q134 153 381 153zM813 315q109 0 109 193 q0 201 -109 201q-56 0 -106 -56t-50 -135q0 -89 49 -146t107 -57z" />
<glyph unicode="c" horiz-adv-x="1525" d="M909 594q-37 0 -43 39q-8 53 -29 74.5t-67 21.5q-70 0 -94.5 -54t-24.5 -169q0 -121 23.5 -166t95.5 -45q92 0 100 117q3 28 41 28h502q42 0 39 -41q-10 -149 -77.5 -238.5t-219.5 -135t-407 -45.5q-138 0 -246 17t-182 51.5t-125 79t-79.5 106t-40.5 126.5t-12 146 q0 96 17 171.5t62.5 146.5t120.5 117.5t198 74.5t287 28t280 -14.5t196.5 -43.5t128.5 -79t70.5 -114t28.5 -156q3 -41 -39 -41z" />
<glyph unicode="d" horiz-adv-x="1564" d="M1444 1434q41 0 41 -41v-1352q0 -41 -41 -41h-502q-41 0 -41 41v94q-132 -155 -381 -155q-93 0 -160 14t-122 49.5t-88 95.5t-50.5 151t-17.5 218q0 159 25 263.5t81 164.5t134.5 84t197.5 24q247 0 381 -153v502q0 41 41 41h502zM766 315q58 0 107 57t49 146 q0 79 -50 135t-106 56q-109 0 -109 -201q0 -193 109 -193z" />
<glyph unicode="e" horiz-adv-x="1492" d="M1442 471q0 -41 -41 -41h-780q3 -92 30.5 -128t104.5 -36q53 0 72.5 12t31.5 50q11 34 45 34h484q45 0 36 -45q-27 -119 -98.5 -191t-215 -109t-374.5 -37q-119 0 -215.5 13.5t-167.5 37t-124 60t-87 79t-55 98t-29 112.5t-8 126q0 96 16.5 171.5t62.5 146.5t121 117.5 t198 74.5t288 28q148 0 253.5 -11t184.5 -40t127.5 -69.5t79.5 -108.5t43.5 -147.5t16.5 -196.5zM743 758q-59 0 -95.5 -41.5t-39.5 -104.5h269q-3 82 -38.5 114t-95.5 32z" />
<glyph unicode="f" horiz-adv-x="1062" d="M969 1120q-125 21 -161.5 2t-39.5 -98h207q41 0 41 -41v-272q0 -41 -41 -41h-209v-629q0 -41 -41 -41h-500q-41 0 -41 41v629h-108q-41 0 -41 41v272q0 41 41 41h108q4 97 22 167.5t56.5 124.5t98 85.5t147.5 46.5t202.5 11.5t266.5 -23.5q39 -6 39 -43v-236 q0 -43 -47 -37z" />
<glyph unicode="g" horiz-adv-x="1527" d="M1573 1042q21 -37 -17 -55l-192 -82q96 -91 96 -276q0 -75 -11.5 -127.5t-43 -94t-79 -66.5t-128 -41t-181.5 -22t-247 -6q-206 0 -344 27q-55 -27 -55 -51q0 -12 11 -18.5t52 -11.5t120 -7t216 -2q94 0 159 -1t133.5 -3.5t113 -7.5t90.5 -13.5t73 -19.5t54 -28t41 -38 t25.5 -49.5t15.5 -61.5t4 -75q0 -69 -20 -119.5t-70 -92.5t-135 -67.5t-215 -39t-310 -13.5q-167 0 -275.5 9t-185 29t-117 58.5t-58.5 89.5t-21 130q0 41 41 41l505 -3q38 0 44 -40q1 -34 22 -44t86 -10t93 16.5t28 57.5q0 45 -42 65.5t-161 20.5q-126 0 -207.5 2t-154 9 t-112.5 18t-70 31t-41 46.5t-11 65.5q0 111 101 209q-130 83 -130 248q0 90 20.5 154t68.5 113.5t130.5 79t201.5 44t286 14.5q179 0 305 -18l348 176q36 19 56 -14zM764 479q72 0 93.5 37t21.5 133q0 75 -21.5 106t-93.5 31q-71 0 -95 -32t-24 -105q0 -94 23.5 -132 t95.5 -38z" />
<glyph unicode="h" horiz-adv-x="1558" d="M1063 1044q73 0 129 -9.5t97 -25.5t69.5 -44.5t46 -60.5t27 -79t13 -94.5t3.5 -112.5v-577q0 -41 -41 -41h-502q-41 0 -41 41v522q0 64 -11.5 90.5t-39.5 26.5q-61 0 -98 -86.5t-37 -245.5v-307q0 -41 -41 -41h-502q-41 0 -41 41v1352q0 41 41 41h502q41 0 41 -41v-545 q50 87 147.5 141.5t237.5 54.5z" />
<glyph unicode="i" horiz-adv-x="798" d="M698 1180q0 -41 -41 -41h-510q-41 0 -41 41v213q0 41 41 41h510q41 0 41 -41v-213zM698 41q0 -41 -41 -41h-510q-41 0 -41 41v942q0 41 41 41h510q41 0 41 -41v-942z" />
<glyph unicode="j" horiz-adv-x="798" d="M698 1180q0 -41 -41 -41h-510q-41 0 -41 41v213q0 41 41 41h510q41 0 41 -41v-213zM698 -369q0 -41 -41 -41h-510q-41 0 -41 41v1352q0 41 41 41h510q41 0 41 -41v-1352z" />
<glyph unicode="k" horiz-adv-x="1574" d="M1528 49q14 -22 7 -35.5t-32 -13.5h-528q-31 0 -49 27l-162 241l-107 -61v-166q0 -41 -41 -41h-501q-41 0 -41 41v1352q0 41 41 41h501q41 0 41 -41v-574l-8 -153l74 120l162 213q19 25 49 25h528q26 0 33 -14.5t-8 -34.5l-332 -402z" />
<glyph unicode="l" horiz-adv-x="798" d="M698 41q0 -41 -41 -41h-510q-41 0 -41 41v1352q0 41 41 41h510q41 0 41 -41v-1352z" />
<glyph unicode="m" horiz-adv-x="2281" d="M1815 1044q71 0 126 -9.5t94.5 -25.5t67.5 -44.5t45 -60.5t26.5 -79t13 -94.5t3.5 -112.5v-577q0 -41 -41 -41h-491q-41 0 -41 41v532q0 65 -11 91t-40 26q-62 0 -96.5 -96t-34.5 -262v-291q0 -41 -41 -41h-494q-41 0 -41 41v532q0 65 -11 91t-40 26q-62 0 -96.5 -96 t-34.5 -262v-291q0 -41 -41 -41h-502q-41 0 -41 41v942q0 41 41 41h502q41 0 41 -41v-137q49 88 144 143t235 55q120 0 196 -26.5t113.5 -74.5t52.5 -126q46 99 145.5 163t250.5 64z" />
<glyph unicode="n" horiz-adv-x="1538" d="M1063 1044q73 0 129 -9.5t97 -25.5t69.5 -44.5t46 -60.5t27 -79t13 -94.5t3.5 -112.5v-577q0 -41 -41 -41h-502q-41 0 -41 41v522q0 64 -11.5 90.5t-39.5 26.5q-61 0 -98 -86.5t-37 -245.5v-307q0 -41 -41 -41h-502q-41 0 -41 41v942q0 41 41 41h502q41 0 41 -41v-135 q50 87 147.5 141.5t237.5 54.5z" />
<glyph unicode="o" d="M1487 506q0 191 -66.5 306.5t-222 173.5t-418.5 58q-200 0 -336 -31.5t-218.5 -99.5t-118 -166.5t-35.5 -240.5q0 -143 35 -239.5t117.5 -162t218 -95t337.5 -29.5q203 0 339 30t217.5 96.5t116 162.5t34.5 237zM780 721q70 0 94.5 -53t24.5 -162q0 -114 -23.5 -158.5 t-95.5 -44.5q-73 0 -97 44.5t-24 158.5q0 109 25 162t96 53z" />
<glyph unicode="p" horiz-adv-x="1564" d="M1059 1044q92 0 159 -14t121.5 -49.5t87.5 -95.5t50.5 -151t17.5 -218q0 -159 -25 -263.5t-81 -164.5t-134 -84t-196 -24q-247 0 -381 153v-502q0 -41 -41 -41h-502q-41 0 -41 41v1352q0 41 41 41h502q41 0 41 -41v-94q132 155 381 155zM813 315q109 0 109 201 q0 193 -109 193q-58 0 -107 -57t-49 -146q0 -79 50 -135t106 -56z" />
<glyph unicode="q" horiz-adv-x="1574" d="M1454 1024q41 0 41 -41v-1352q0 -41 -41 -41h-500q-41 0 -41 41v502q-138 -153 -383 -153q-118 0 -196 24t-134 84t-81 164.5t-25 263.5q0 127 17.5 218t50.5 151t87.5 95.5t121.5 49.5t159 14q247 0 383 -155v94q0 41 41 41h500zM776 315q56 0 107 56t51 135 q0 89 -50 146t-108 57q-108 0 -108 -193q0 -201 108 -201z" />
<glyph unicode="r" horiz-adv-x="1112" d="M1059 1053q43 3 43 -41v-348q0 -41 -43 -41q-100 -2 -166 -13t-107.5 -30t-63 -55t-29 -76.5t-7.5 -106.5v-301q0 -41 -41 -41h-510q-41 0 -41 41v942q0 41 41 41h510q41 0 41 -41v-147q52 86 147 146.5t226 70.5z" />
<glyph unicode="s" horiz-adv-x="1499" d="M1444 317q0 -128 -61 -199t-209 -104.5t-416 -33.5q-261 0 -406 34t-205.5 104.5t-66.5 196.5q-3 41 39 41h475q35 0 41 -41q6 -38 33 -50.5t94 -12.5t92 15t25 48q0 25 -27 40t-73 21t-105.5 9.5t-125 9t-131.5 15.5t-125.5 32.5t-105.5 56.5t-73 91t-27 133 q0 80 34 138t111.5 100t209 62.5t321.5 20.5q191 0 314 -17t198.5 -57.5t106.5 -100t36 -152.5q3 -41 -39 -41h-471q-35 0 -41 41q-6 37 -31.5 49t-89.5 12q-61 0 -82.5 -14.5t-21.5 -48.5q0 -33 44.5 -49.5t115 -21.5t156 -9t171.5 -19.5t156.5 -45.5t115 -94.5 t44.5 -158.5z" />
<glyph unicode="t" horiz-adv-x="1064" d="M766 672v-166q-2 -37 0 -66.5t4 -52t11 -37.5t21.5 -24t36 -11.5t54.5 -0.5t76 10q22 4 34.5 -5.5t12.5 -29.5v-248q0 -36 -58 -45q-158 -21 -275 -23t-205 17.5t-144.5 57t-91 101.5t-47.5 145.5t-11 194.5v183h-108q-41 0 -41 41v270q0 41 41 41h108v369q0 41 41 41 h500q41 0 41 -41v-369h209q41 0 41 -41v-270q0 -41 -41 -41h-209z" />
<glyph unicode="u" horiz-adv-x="1558" d="M1407 1024q41 0 41 -41v-942q0 -41 -41 -41h-502q-41 0 -41 41v135q-50 -87 -147.5 -141.5t-237.5 -54.5q-73 0 -129 9.5t-97 25.5t-69.5 44.5t-46 60.5t-27 79t-13 94.5t-3.5 112.5v577q0 41 41 41h502q41 0 41 -41v-522q0 -64 11.5 -90.5t37.5 -26.5q62 0 99.5 86 t37.5 246v307q0 41 41 41h502z" />
<glyph unicode="v" horiz-adv-x="1505" d="M1456 1024q22 0 31 -12.5t2 -34.5l-359 -944q-11 -33 -47 -33h-659q-36 0 -47 33l-357 944q-7 22 2.5 34.5t32.5 12.5h500q36 0 45 -35l94 -371l60 -309l59 309l94 371q9 35 45 35h504z" />
<glyph unicode="w" horiz-adv-x="2015" d="M1968 1024q22 0 32 -12.5t5 -32.5l-188 -942q-9 -37 -45 -37h-621q-37 0 -43 37l-41 203l-51 360l-53 -360l-41 -203q-6 -37 -43 -37h-619q-36 0 -45 37l-205 942q-4 20 5.5 32.5t29.5 12.5h461q40 0 43 -39l78 -627l30 193l103 438q9 35 45 35h424q39 0 45 -37l98 -436 l31 -193l78 627q3 39 43 39h444z" />
<glyph unicode="x" horiz-adv-x="1517" d="M1159 512l348 -463q15 -22 8 -35.5t-32 -13.5h-502q-33 0 -51 27l-137 204l-33 72l-35 -72l-129 -204q-18 -27 -49 -27h-508q-26 0 -33 14.5t8 34.5l353 465l-351 461q-15 20 -8 34.5t33 14.5h500q31 0 49 -27l135 -202l35 -70l33 70l137 202q18 27 51 27h502 q26 0 32.5 -13.5t-8.5 -35.5z" />
<glyph unicode="y" horiz-adv-x="1609" d="M1556 1024q23 0 32 -13t1 -34l-598 -1356q-15 -31 -49 -31h-496q-23 0 -31 13t1 35l143 327l-530 1012q-11 22 -3.5 34.5t31.5 12.5h535q36 0 45 -33l151 -452l29 -154l27 154l143 450q11 35 47 35h522z" />
<glyph unicode="z" horiz-adv-x="1351" d="M1268 774l-346 -362l-109 -78h434q41 0 41 -41v-252q0 -41 -41 -41h-1104q-41 0 -41 41v158q0 30 21 51l346 364l104 76h-415q-41 0 -41 41v252q0 41 41 41h1089q41 0 41 -41v-158q0 -28 -20 -51z" />
<glyph unicode="{" horiz-adv-x="1087" d="M791 160q0 -58 24 -78.5t88 -20.5q41 0 41 -41v-251q0 -41 -41 -41h-239q-104 0 -165.5 16.5t-98.5 61.5t-49.5 113t-12.5 183v256q0 102 -29 131t-125 29q-41 0 -41 41v301q0 41 21 41h20q67 0 97 12t43.5 49.5t13.5 118.5v238q0 115 12.5 183t49.5 113.5t98.5 62 t165.5 16.5h239q41 0 41 -41v-252q0 -41 -20 -41h-21q-64 0 -88 -20t-24 -78v-240q0 -50 -1 -80.5t-5.5 -65.5t-12.5 -55t-22 -41.5t-35 -32.5t-51.5 -21t-70 -13.5t-91.5 -3.5q53 0 92 -2.5t69.5 -11t51 -17.5t35.5 -29t22.5 -38t12 -52t5.5 -63.5t1 -79.5v-256z" />
<glyph unicode="|" horiz-adv-x="727" d="M465 1655q41 0 41 -41v-2124q0 -41 -41 -41h-205q-41 0 -41 41v2124q0 41 41 41h205z" />
<glyph unicode="}" horiz-adv-x="1028" d="M240 160v256q0 40 0.5 64.5t3 54.5t6.5 46.5t11.5 37t18 31t26.5 22.5t36.5 17.5t48 11t60.5 7t75 1.5q-52 0 -91.5 3.5t-69.5 13.5t-50.5 20.5t-35 33t-22 41.5t-11.5 55t-5 65.5t-1 80.5v240q0 57 -24.5 77.5t-88.5 20.5h-21q-20 0 -20 41v252q0 41 41 41h238 q104 0 165.5 -16.5t98 -62t49 -113.5t12.5 -183v-238q0 -81 13.5 -118.5t43.5 -49.5t97 -12h20q21 0 21 -41v-301q0 -41 -41 -41q-96 0 -125 -29t-29 -131v-256q0 -115 -12.5 -183t-49 -113t-98 -61.5t-165.5 -16.5h-238q-41 0 -41 41v251q0 41 41 41q64 0 88.5 20.5 t24.5 78.5z" />
<glyph unicode="~" horiz-adv-x="1216" d="M1118 657q27 -27 6 -57q-66 -93 -144.5 -143.5t-156.5 -50.5q-66 0 -116.5 17.5t-126.5 61.5q-37 24 -58 36t-55 23t-68 11q-53 0 -95.5 -30t-88.5 -85q-26 -33 -57 -2l-72 70q-27 27 -6 57q57 83 146 138t182 55q70 0 121 -18t104 -50q54 -34 74 -45.5t49.5 -22 t58.5 -10.5q87 0 174 111q27 35 58 4z" />
<glyph unicode="&#xa1;" horiz-adv-x="860" d="M668 729h-475q-41 0 -41 41v213q0 41 41 41h475q41 0 41 -41v-213q0 -41 -41 -41zM676 -410h-492q-41 0 -41 41v369l66 575q6 39 43 39h356q40 0 43 -39l66 -575v-369q0 -41 -41 -41z" />
<glyph unicode="&#xa2;" horiz-adv-x="1525" d="M1413 440q42 0 39 -41q-12 -180 -114 -277.5t-332 -127.5l24 -361q3 -43 -39 -43h-420q-42 0 -39 43l25 357q-118 13 -205.5 45.5t-142 77.5t-88 109t-46 131.5t-12.5 152.5q0 84 12.5 151.5t46 132.5t88 112t142.5 82t205 50l-25 357q-3 43 39 43h420q42 0 39 -43 l-24 -359q125 -13 208.5 -42t134.5 -78.5t74.5 -115t28.5 -159.5q3 -41 -39 -41l-504 -2q-37 0 -43 39q-8 53 -29 74.5t-67 21.5q-70 0 -94.5 -54t-24.5 -169q0 -121 23.5 -166t95.5 -45q92 0 100 117q3 28 41 28h502z" />
<glyph unicode="&#xa3;" horiz-adv-x="1693" d="M1550 385q41 0 41 -41v-303q0 -41 -41 -41h-1407q-41 0 -41 41v303q0 41 41 41h64q41 0 68 13.5t38 38t14 44.5t3 49h-187q-41 0 -41 41v172q0 41 41 41h187v193q0 141 25.5 233t93 159t187 96.5t304.5 29.5q179 0 295 -28t185 -94.5t97 -161.5t31 -242q0 -43 -41 -43 h-426q-41 0 -41 43q-4 106 -29 142t-71 36q-32 0 -52 -14.5t-34 -67.5t-14 -150v-131h422q41 0 41 -41v-172q0 -41 -41 -41h-422l-1.5 -31.5t-3 -31.5t-8 -32.5t-14 -24.5t-22.5 -19t-33 -6h792z" />
<glyph unicode="&#xa4;" horiz-adv-x="1331" d="M1069 154q-13 -14 -29 -12.5t-28 18.5l-113 143q-92 -72 -235 -72q-142 0 -234 72l-111 -143q-27 -33 -57 -6l-86 79q-30 30 -4 60l125 135q-92 122 -92 287q0 180 92 286l-121 119q-28 28 2 58l84 82q29 29 57 -5l109 -131q93 78 236 78q150 0 237 -76l111 131 q12 15 29 16t30 -13l82 -82q29 -29 0 -58l-121 -121q94 -101 94 -284q0 -80 -26 -155.5t-70 -129.5l127 -137q27 -31 -2 -60zM662 993q-95 0 -158.5 -80t-63.5 -198q0 -120 64 -197.5t162 -77.5t161.5 77.5t63.5 197.5q0 118 -64 198t-161 80h-4z" />
<glyph unicode="&#xa5;" horiz-adv-x="1562" d="M1542 1434q25 0 33 -15t-4 -35l-363 -561h178q41 0 41 -41v-145q0 -41 -41 -41h-284v-82h284q41 0 41 -41v-145q0 -41 -41 -41h-284v-246q0 -41 -41 -41h-561q-41 0 -41 41v246h-264q-41 0 -41 41v145q0 41 41 41h264v82h-264q-41 0 -41 41v145q0 41 41 41h161l-368 561 q-12 22 -4.5 36t32.5 14h512q32 0 47 -29l144 -272l59 -156l60 156l143 272q15 29 47 29h514z" />
<glyph unicode="&#xa6;" horiz-adv-x="727" d="M465 1491q41 0 41 -41v-692q0 -41 -41 -41h-205q-41 0 -41 41v692q0 41 41 41h205zM465 385q41 0 41 -41v-688q0 -41 -41 -41h-205q-41 0 -41 41v688q0 41 41 41h205z" />
<glyph unicode="&#xa7;" horiz-adv-x="1660" d="M1579 473q6 53 -25.5 95.5t-91 73t-157.5 55t-208 41t-259 32.5q-125 13 -219.5 27.5t-184.5 36t-152 49.5t-110 66t-71 88.5t-23 113.5q0 114 64.5 182t234 105t465.5 37q182 0 308 -13.5t214.5 -41t139.5 -77t74.5 -114.5t27.5 -160q0 -41 -41 -41h-508q-37 0 -43 39 q-7 50 -44.5 67t-138.5 17q-93 0 -126 -16t-33 -48q0 -29 40 -48t105 -27.5t148.5 -19t170 -21t170 -35t148.5 -59t105 -96t40 -142.5q0 -97 -20 -166zM104 981q-7 -65 39.5 -114t149 -83.5t231.5 -57t316 -42.5q126 -13 220.5 -27.5t185.5 -35.5t153.5 -49t111 -66 t72 -88.5t23.5 -114.5q0 -85 -35 -144t-120.5 -103t-235 -64.5t-371.5 -20.5q-181 0 -308.5 14t-215.5 43t-139.5 80t-75 116.5t-27.5 160.5q0 41 41 41h510q37 0 43 -39q7 -51 44 -67.5t138 -16.5q93 0 126.5 16t33.5 48q0 29 -40 48t-105.5 27.5t-149 19t-170.5 21 t-170.5 35t-149 59t-105.5 96t-40 142.5q0 97 20 166z" />
<glyph unicode="&#xac;" horiz-adv-x="1216" d="M934 231q-41 0 -41 41v392h-752q-41 0 -41 41v126q0 41 41 41h932q41 0 41 -41v-559q0 -41 -41 -41h-139z" />
<glyph unicode="&#xad;" horiz-adv-x="1171" d="M1028 367q0 -41 -41 -41h-803q-41 0 -41 41v311q0 41 41 41h803q41 0 41 -41v-311z" />
<glyph unicode="&#xb0;" horiz-adv-x="837" d="M416 1468q143 0 236 -98t93 -242q0 -157 -95 -248.5t-236 -91.5t-236.5 91.5t-95.5 248.5q0 153 96.5 246.5t235.5 93.5h2zM412 1333q-71 0 -115.5 -57t-44.5 -148q0 -90 46 -148t118 -58t115.5 56t43.5 144q0 92 -41 151.5t-120 59.5h-2z" />
<glyph unicode="&#xb1;" horiz-adv-x="1216" d="M717 678v-352q0 -41 -41 -41h-139q-41 0 -41 41v352h-355q-41 0 -41 41v131q0 41 41 41h355v334q0 41 41 41h139q41 0 41 -41v-334h352q41 0 41 -41v-131q0 -41 -41 -41h-352zM145 -18q-41 0 -41 41v127q0 40 41 40h926q41 0 41 -40v-127q0 -41 -41 -41h-926z" />
<glyph unicode="&#xb6;" horiz-adv-x="1300" d="M539 -102q-41 0 -41 41v630h-35q-51 0 -104 14.5t-105 48t-92.5 81.5t-65.5 121t-24 161q1 114 43 202.5t128 154.5t226 100.5t328 34.5q191 0 311 -19q35 -6 35 -45v-1484q0 -41 -41 -41h-160q-41 0 -41 41v1318h-162v-1318q0 -41 -41 -41h-159z" />
<glyph unicode="&#xb7;" horiz-adv-x="659" d="M557 367q0 -41 -41 -41h-373q-41 0 -41 41v311q0 41 41 41h373q41 0 41 -41v-311z" />
<glyph unicode="&#xbc;" horiz-adv-x="2709" d="M1937 1495q25 0 33 -14.5t-4 -34.5l-838 -1442q-16 -29 -49 -29h-272q-25 0 -33 15t4 35l842 1441q16 29 49 29h268zM956 565q0 -26 -24 -26h-635q-27 0 -27 26v195q0 24 27 24h141v351l-137 -93q-13 -8 -22 -2.5t-9 21.5v233q0 20 17 29l192 104q15 9 31 9h278 q27 0 27 -27v-625h117q24 0 24 -24v-195zM2552 379q26 0 26 -25v-170q0 -26 -26 -26h-90v-131q0 -27 -25 -27h-319q-27 0 -27 27v131h-455q-26 0 -26 26v191q0 16 12 31l410 475q13 16 30 16h375q25 0 25 -27v-491h90zM2052 510l-117 -131h162v121l12 84z" />
<glyph unicode="&#xbd;" horiz-adv-x="2787" d="M1937 1495q25 0 33 -14.5t-4 -34.5l-838 -1442q-16 -29 -49 -29h-272q-25 0 -33 15t4 35l842 1441q16 29 49 29h268zM956 565q0 -26 -24 -26h-635q-27 0 -27 26v195q0 24 27 24h141v351l-137 -93q-13 -8 -22 -2.5t-9 21.5v233q0 20 17 29l192 104q15 9 31 9h278 q27 0 27 -27v-625h117q24 0 24 -24v-195zM2603 246q27 0 27 -25v-194q0 -27 -27 -27h-862q-27 0 -27 27v145q0 74 19 130t50.5 90t73 57.5t87 35.5t91.5 20t87.5 14.5t73 16t50.5 28t19 46.5q0 38 -22 54t-70 16q-58 0 -75 -13.5t-19 -58.5q0 -26 -25 -26h-305q-25 0 -25 26 q3 120 43 183t135 90.5t275 27.5q256 0 359.5 -72t103.5 -231q0 -80 -28.5 -136t-74.5 -84.5t-102 -45.5t-113.5 -24.5t-106.5 -14.5t-84 -22.5t-42 -42.5l129 10h385z" />
<glyph unicode="&#xbe;" horiz-adv-x="2895" d="M2126 1495q24 0 32 -14.5t-4 -34.5l-837 -1442q-16 -29 -49 -29h-273q-24 0 -32 15t4 35l841 1441q16 29 50 29h268zM1217 791q0 -47 -11 -83.5t-42 -70.5t-82.5 -56.5t-136.5 -35.5t-200 -13q-144 0 -231.5 14t-140 51t-71.5 91.5t-21 145.5q0 24 26 24h309q25 0 25 -24 q3 -49 22.5 -63.5t81.5 -14.5q49 0 70 15t21 52q0 82 -91 82h-190q-27 0 -27 25v135q0 12 7.5 19.5t19.5 7.5h190q24 0 38 1.5t29.5 8t22.5 22t7 39.5q0 37 -23 52.5t-80 15.5q-48 0 -65 -14t-19 -52q0 -24 -26 -24h-310q-26 0 -26 24q2 70 15 116t41.5 81.5t80 54.5 t125.5 28t184 9q117 0 202 -12t136.5 -32.5t81.5 -53t40.5 -67.5t10.5 -83q0 -97 -45 -162q-20 -25 -75 -53q51 -23 75 -47q52 -60 52 -153zM2738 379q27 0 27 -25v-170q0 -26 -27 -26h-90v-131q0 -27 -25 -27h-319q-27 0 -27 27v131h-454q-27 0 -27 26v191q0 16 12 31 l410 475q13 16 31 16h374q25 0 25 -27v-491h90zM2238 510l-116 -131h162v121l12 84z" />
<glyph unicode="&#xbf;" horiz-adv-x="1740" d="M678 983q0 41 41 41h481q41 0 41 -41v-205q0 -41 -41 -41h-481q-41 0 -41 41v205zM1556 104q41 0 41 -43q-5 -144 -44 -239t-127 -154.5t-220 -84.5t-332 -25q-141 0 -252.5 14t-188 36.5t-131 60t-85.5 76.5t-48.5 94t-22 103.5t-3.5 114.5q1 68 10 127t37 123t72.5 109 t122.5 74.5t180 29.5q63 0 85.5 18.5t25.5 75.5q3 41 43 41h481q41 0 41 -41v-86q0 -177 -79 -245t-259 -68q-58 0 -91.5 -6.5t-50.5 -25.5t-21.5 -42t-4.5 -67q0 -80 13 -117t41 -49t90 -12q83 0 109 38t28 127q0 41 41 41z" />
<glyph unicode="&#xc0;" horiz-adv-x="1748" d="M674 1530l-236 256q-20 20 -12.5 34.5t35.5 14.5h405q33 0 52 -25l184 -254q14 -20 7 -34.5t-32 -14.5h-354q-29 0 -49 23zM1733 45q6 -20 -3.5 -32.5t-31.5 -12.5h-549q-35 0 -45 37l-45 196h-373l-45 -198q-10 -37 -45 -37l-551 2q-22 0 -31 12.5t-2 32.5l424 1354 q8 35 47 35h777q39 0 47 -35zM760 567h223l-96 424l-15 117l-16 -117z" />
<glyph unicode="&#xc1;" horiz-adv-x="1748" d="M698 1507q-25 0 -32 14.5t8 34.5l184 254q19 25 51 25h406q27 0 33.5 -14.5t-11.5 -34.5l-235 -256q-20 -23 -49 -23h-355zM1733 45q6 -20 -3.5 -32.5t-31.5 -12.5h-549q-35 0 -45 37l-45 196h-373l-45 -198q-10 -37 -45 -37l-551 2q-22 0 -31 12.5t-2 32.5l424 1354 q8 35 47 35h777q39 0 47 -35zM760 567h223l-96 424l-15 117l-16 -117z" />
<glyph unicode="&#xc2;" horiz-adv-x="1748" d="M453 1507q-25 0 -32.5 13.5t7.5 35.5l219 295q17 25 49 25h357q32 0 49 -25l219 -295q15 -22 7.5 -35.5t-32.5 -13.5h-272q-28 0 -51 23l-99 104l-98 -104q-23 -23 -51 -23h-272zM1733 45q6 -20 -3.5 -32.5t-31.5 -12.5h-549q-35 0 -45 37l-45 196h-373l-45 -198 q-10 -37 -45 -37l-551 2q-22 0 -31 12.5t-2 32.5l424 1354q8 35 47 35h777q39 0 47 -35zM760 567h223l-96 424l-15 117l-16 -117z" />
<glyph unicode="&#xc3;" horiz-adv-x="1748" d="M502 1554q-20 -15 -32.5 -9.5t-12.5 30.5v164q0 30 18 51q61 61 168 61q73 0 150.5 -26t154 -52t146.5 -26q89 0 151 43q47 29 47 -21v-165q0 -32 -20 -50q-67 -61 -170 -61q-72 0 -149.5 26t-154.5 52t-147 26q-89 0 -149 -43zM1733 45q6 -20 -3.5 -32.5t-31.5 -12.5 h-549q-35 0 -45 37l-45 196h-373l-45 -198q-10 -37 -45 -37l-551 2q-22 0 -31 12.5t-2 32.5l424 1354q8 35 47 35h777q39 0 47 -35zM760 567h223l-96 424l-15 117l-16 -117z" />
<glyph unicode="&#xc4;" horiz-adv-x="1748" d="M446 1507q-40 0 -40 41v205q0 41 40 41h336q41 0 41 -41v-205q0 -41 -41 -41h-336zM967 1507q-41 0 -41 41v205q0 41 41 41h336q40 0 40 -41v-205q0 -41 -40 -41h-336zM1733 45q6 -20 -3.5 -32.5t-31.5 -12.5h-549q-35 0 -45 37l-45 196h-373l-45 -198q-10 -37 -45 -37 l-551 2q-22 0 -31 12.5t-2 32.5l424 1354q8 35 47 35h777q39 0 47 -35zM760 567h223l-96 424l-15 117l-16 -117z" />
<glyph unicode="&#xc5;" horiz-adv-x="1748" d="M1733 45q6 -20 -3.5 -32.5t-31.5 -12.5h-549q-35 0 -45 37l-45 196h-373l-45 -198q-10 -37 -45 -37l-551 2q-22 0 -31 12.5t-2 32.5l424 1354q8 35 47 35h283q-83 33 -133.5 106t-50.5 164q0 120 85 205.5t205 85.5q121 0 207 -85.5t86 -205.5q0 -91 -50.5 -164 t-133.5 -106h279q39 0 47 -35zM872 1782q-32 0 -54.5 -23t-22.5 -55q0 -33 22.5 -56.5t54.5 -23.5t56 24t24 56t-24 55t-56 23zM760 567h223l-96 424l-15 117l-16 -117z" />
<glyph unicode="&#xc6;" horiz-adv-x="2299" d="M639 35q-10 -37 -45 -37l-549 2q-22 0 -31 12.5t-2 32.5l424 1354q8 35 47 35h1674q41 0 41 -41v-295q0 -41 -41 -41h-734l37 -166h697q41 0 41 -41v-266q0 -41 -41 -41h-617l39 -166h578q41 0 41 -41v-295q0 -41 -41 -41h-1008q-41 0 -41 6v4l-49 223h-373zM760 567h223 l-96 424l-15 117l-16 -117z" />
<glyph unicode="&#xc7;" horiz-adv-x="1738" d="M1642 614q42 0 39 -43q-7 -138 -39 -236.5t-99 -173t-174.5 -118t-262.5 -61.5l-139 -283q-15 -31 -47 -31h-416q-25 0 -33 14.5t6 34.5l182 269q-132 20 -233 66.5t-166.5 112t-106.5 154.5t-58 186t-17 216q0 132 22.5 238.5t78 202t144.5 160t228 101.5t321 37 q188 0 321.5 -20t226 -60t147.5 -109t81.5 -158t32.5 -216q3 -43 -39 -43h-522q-37 0 -43 41q-10 91 -49.5 124.5t-134.5 33.5q-117 0 -161 -75t-44 -257q0 -194 42.5 -264t162.5 -70q105 0 142 37.5t46 148.5q3 41 41 41h520z" />
<glyph unicode="&#xc8;" horiz-adv-x="1525" d="M567 1534l-235 256q-20 20 -13 34.5t35 14.5h406q32 0 51 -24l184 -254q14 -20 7 -35t-31 -15h-355q-29 0 -49 23zM1382 1057h-704v-166h704q41 0 41 -41v-266q0 -41 -41 -41h-704v-166h704q41 0 41 -41v-295q0 -41 -41 -41h-1226q-41 0 -41 41v1352q0 41 41 41h1226 q41 0 41 -41v-295q0 -41 -41 -41z" />
<glyph unicode="&#xc9;" horiz-adv-x="1525" d="M594 1511q-25 0 -32.5 15t7.5 35l185 254q19 24 51 24h405q27 0 34 -14.5t-11 -34.5l-236 -256q-20 -23 -49 -23h-354zM1382 1057h-704v-166h704q41 0 41 -41v-266q0 -41 -41 -41h-704v-166h704q41 0 41 -41v-295q0 -41 -41 -41h-1226q-41 0 -41 41v1352q0 41 41 41h1226 q41 0 41 -41v-295q0 -41 -41 -41z" />
<glyph unicode="&#xca;" horiz-adv-x="1525" d="M348 1511q-25 0 -32 14t8 36l219 294q17 25 49 25h356q32 0 49 -25l220 -294q15 -22 7.5 -36t-32.5 -14h-272q-29 0 -52 23l-98 104l-98 -104q-23 -23 -51 -23h-273zM1382 1057h-704v-166h704q41 0 41 -41v-266q0 -41 -41 -41h-704v-166h704q41 0 41 -41v-295 q0 -41 -41 -41h-1226q-41 0 -41 41v1352q0 41 41 41h1226q41 0 41 -41v-295q0 -41 -41 -41z" />
<glyph unicode="&#xcb;" horiz-adv-x="1525" d="M340 1511q-41 0 -41 41v205q0 41 41 41h336q41 0 41 -41v-205q0 -41 -41 -41h-336zM860 1511q-41 0 -41 41v205q0 41 41 41h336q41 0 41 -41v-205q0 -41 -41 -41h-336zM1382 1057h-704v-166h704q41 0 41 -41v-266q0 -41 -41 -41h-704v-166h704q41 0 41 -41v-295 q0 -41 -41 -41h-1226q-41 0 -41 41v1352q0 41 41 41h1226q41 0 41 -41v-295q0 -41 -41 -41z" />
<glyph unicode="&#xcc;" horiz-adv-x="888" d="M672 1552q14 -20 7 -34.5t-32 -14.5h-354q-29 0 -49 23l-236 256q-20 20 -12.5 34.5t35.5 14.5h405q32 0 51 -25zM766 41q0 -41 -41 -41h-549q-41 0 -41 41v1352q0 41 41 41h549q41 0 41 -41v-1352z" />
<glyph unicode="&#xcd;" horiz-adv-x="888" d="M270 1503q-25 0 -32 14.5t8 34.5l184 254q19 25 51 25h406q27 0 33.5 -14.5t-11.5 -34.5l-235 -256q-20 -23 -49 -23h-355zM766 41q0 -41 -41 -41h-549q-41 0 -41 41v1352q0 41 41 41h549q41 0 41 -41v-1352z" />
<glyph unicode="&#xce;" horiz-adv-x="888" d="M25 1503q-25 0 -32.5 13.5t7.5 35.5l219 295q17 25 49 25h357q32 0 49 -25l219 -295q15 -22 7.5 -35.5t-32.5 -13.5h-272q-28 0 -51 23l-99 104l-98 -104q-23 -23 -51 -23h-272zM766 41q0 -41 -41 -41h-549q-41 0 -41 41v1352q0 41 41 41h549q41 0 41 -41v-1352z" />
<glyph unicode="&#xcf;" horiz-adv-x="888" d="M393 1544q0 -41 -41 -41h-336q-41 0 -41 41v205q0 41 41 41h336q41 0 41 -41v-205zM913 1544q0 -41 -41 -41h-335q-41 0 -41 41v205q0 41 41 41h335q41 0 41 -41v-205zM766 41q0 -41 -41 -41h-549q-41 0 -41 41v1352q0 41 41 41h549q41 0 41 -41v-1352z" />
<glyph unicode="&#xd0;" horiz-adv-x="1697" d="M831 1434q428 0 616.5 -168.5t188.5 -540.5q0 -362 -191.5 -543.5t-613.5 -181.5h-665q-41 0 -41 41v508h-82q-41 0 -41 41v254q0 41 41 41h82v508q0 41 41 41h665zM840 395q229 0 229 330q0 155 -53 234t-176 79h-142v-153h168q41 0 41 -41v-254q0 -41 -41 -41h-168 v-154h142z" />
<glyph unicode="&#xd1;" horiz-adv-x="1820" d="M539 1550q-20 -15 -32.5 -9.5t-12.5 30.5v164q0 30 18 51q61 61 168 61q73 0 150.5 -26t153.5 -52t146 -26q90 0 152 43q47 29 47 -21v-166q0 -31 -20 -49q-67 -61 -170 -61q-72 0 -149.5 26t-154.5 52t-147 26q-89 0 -149 -43zM1671 1434q41 0 41 -41v-1352 q0 -41 -41 -41h-676q-34 0 -45 33l-299 837l27 -282l14 -547q0 -41 -39 -41h-489q-41 0 -41 41v1352q0 41 41 41h674q36 0 47 -33l303 -848l-27 297l-10 543q0 41 41 41h479z" />
<glyph unicode="&#xd2;" horiz-adv-x="1738" d="M1098 1565q14 -20 7 -34.5t-32 -14.5h-354q-30 0 -49 22l-236 256q-20 20 -12.5 34.5t35.5 14.5h405q32 0 51 -24zM872 -29q-189 0 -333.5 37t-238.5 102t-154 161t-84.5 205.5t-24.5 244.5q0 131 24.5 238.5t84.5 202.5t154 159.5t239 101.5t333 37q157 0 283.5 -25 t216.5 -73.5t155 -113t103.5 -149.5t56 -177t17.5 -201q0 -135 -25 -244.5t-84.5 -205.5t-153 -161t-238 -102t-331.5 -37zM872 397q121 0 171.5 70.5t50.5 253.5q0 176 -51 248.5t-171 72.5q-121 0 -173 -73t-52 -248q0 -183 51.5 -253.5t173.5 -70.5z" />
<glyph unicode="&#xd3;" horiz-adv-x="1738" d="M694 1516q-25 0 -32 14.5t8 34.5l184 254q19 24 51 24h406q27 0 33.5 -14.5t-11.5 -34.5l-235 -256q-19 -22 -49 -22h-355zM872 -29q-189 0 -333.5 37t-238.5 102t-154 161t-84.5 205.5t-24.5 244.5q0 131 24.5 238.5t84.5 202.5t154 159.5t239 101.5t333 37 q157 0 283.5 -25t216.5 -73.5t155 -113t103.5 -149.5t56 -177t17.5 -201q0 -135 -25 -244.5t-84.5 -205.5t-153 -161t-238 -102t-331.5 -37zM872 397q121 0 171.5 70.5t50.5 253.5q0 176 -51 248.5t-171 72.5q-121 0 -173 -73t-52 -248q0 -183 51.5 -253.5t173.5 -70.5z" />
<glyph unicode="&#xd4;" horiz-adv-x="1738" d="M449 1516q-25 0 -32.5 13.5t7.5 35.5l219 295q16 24 49 24h357q33 0 49 -24l219 -295q15 -22 7.5 -35.5t-32.5 -13.5h-272q-29 0 -51 22l-99 104l-98 -104q-22 -22 -51 -22h-272zM872 -29q-189 0 -333.5 37t-238.5 102t-154 161t-84.5 205.5t-24.5 244.5 q0 131 24.5 238.5t84.5 202.5t154 159.5t239 101.5t333 37q157 0 283.5 -25t216.5 -73.5t155 -113t103.5 -149.5t56 -177t17.5 -201q0 -135 -25 -244.5t-84.5 -205.5t-153 -161t-238 -102t-331.5 -37zM872 397q121 0 171.5 70.5t50.5 253.5q0 176 -51 248.5t-171 72.5 q-121 0 -173 -73t-52 -248q0 -183 51.5 -253.5t173.5 -70.5z" />
<glyph unicode="&#xd5;" horiz-adv-x="1738" d="M1241 1798q47 29 47 -20v-166q0 -32 -20 -49q-68 -62 -170 -62q-57 0 -119 16.5t-108 36t-107 36t-117 16.5q-89 0 -149 -43q-20 -15 -32.5 -10t-12.5 30v164q0 30 18 51q62 62 168 62q58 0 120 -16.5t107.5 -36t106.5 -36t117 -16.5q89 0 151 43zM872 -29 q-189 0 -333.5 37t-238.5 102t-154 161t-84.5 205.5t-24.5 244.5q0 131 24.5 238.5t84.5 202.5t154 159.5t239 101.5t333 37q157 0 283.5 -25t216.5 -73.5t155 -113t103.5 -149.5t56 -177t17.5 -201q0 -135 -25 -244.5t-84.5 -205.5t-153 -161t-238 -102t-331.5 -37z M872 397q121 0 171.5 70.5t50.5 253.5q0 176 -51 248.5t-171 72.5q-121 0 -173 -73t-52 -248q0 -183 51.5 -253.5t173.5 -70.5z" />
<glyph unicode="&#xd6;" horiz-adv-x="1738" d="M817 1556q0 -40 -41 -40h-336q-41 0 -41 40v205q0 41 41 41h336q41 0 41 -41v-205zM1337 1556q0 -40 -41 -40h-335q-41 0 -41 40v205q0 41 41 41h335q41 0 41 -41v-205zM872 -29q-189 0 -333.5 37t-238.5 102t-154 161t-84.5 205.5t-24.5 244.5q0 131 24.5 238.5 t84.5 202.5t154 159.5t239 101.5t333 37q157 0 283.5 -25t216.5 -73.5t155 -113t103.5 -149.5t56 -177t17.5 -201q0 -135 -25 -244.5t-84.5 -205.5t-153 -161t-238 -102t-331.5 -37zM872 397q121 0 171.5 70.5t50.5 253.5q0 176 -51 248.5t-171 72.5q-121 0 -173 -73 t-52 -248q0 -183 51.5 -253.5t173.5 -70.5z" />
<glyph unicode="&#xd7;" horiz-adv-x="1216" d="M981 59q-27 -27 -57 2l-322 342l-319 -342q-30 -30 -58 -2l-98 95q-27 27 0 57l330 348l-326 346q-27 31 0 58l98 96q30 30 58 -2l323 -340l316 342q30 31 59 2l96 -92q27 -27 0 -58l-329 -350l327 -350q27 -30 0 -57z" />
<glyph unicode="&#xd8;" horiz-adv-x="1738" d="M1765 1409q20 12 33.5 4t13.5 -31v-325q0 -33 -26 -49l-105 -58q23 -104 23 -229q0 -135 -25 -244.5t-84.5 -205.5t-153 -161t-238 -102t-331.5 -37q-440 0 -645 199l-252 -143q-22 -12 -35.5 -4.5t-13.5 30.5v326q0 33 27 49l106 59q-22 102 -22 234q0 131 24.5 238.5 t84.5 202.5t154 159.5t239 101.5t333 37q432 0 639 -194zM872 397q121 0 171.5 70.5t50.5 253.5q0 176 -51 248.5t-171 72.5q-121 0 -173 -73t-52 -248q0 -183 51.5 -253.5t173.5 -70.5z" />
<glyph unicode="&#xd9;" horiz-adv-x="1796" d="M1124 1552q14 -20 7 -34.5t-31 -14.5h-355q-29 0 -49 23l-235 256q-20 20 -13 34.5t35 14.5h406q32 0 51 -25zM1085 680v713q0 41 41 41h533q41 0 41 -41v-713q0 -194 -39.5 -326t-132.5 -222t-245.5 -130.5t-379.5 -40.5t-379.5 40.5t-245.5 130.5t-132.5 222t-39.5 326 v713q0 41 41 41h533q41 0 41 -41v-713q0 -121 18 -182t54.5 -82t109.5 -21t109.5 21t54.5 82t18 182z" />
<glyph unicode="&#xda;" horiz-adv-x="1796" d="M723 1503q-25 0 -32.5 14.5t7.5 34.5l185 254q19 25 51 25h405q27 0 34 -14.5t-11 -34.5l-236 -256q-20 -23 -49 -23h-354zM1085 680v713q0 41 41 41h533q41 0 41 -41v-713q0 -194 -39.5 -326t-132.5 -222t-245.5 -130.5t-379.5 -40.5t-379.5 40.5t-245.5 130.5 t-132.5 222t-39.5 326v713q0 41 41 41h533q41 0 41 -41v-713q0 -121 18 -182t54.5 -82t109.5 -21t109.5 21t54.5 82t18 182z" />
<glyph unicode="&#xdb;" horiz-adv-x="1796" d="M475 1503q-25 0 -32 13.5t8 35.5l219 295q17 25 49 25h356q32 0 49 -25l219 -295q15 -22 8 -35.5t-32 -13.5h-272q-29 0 -52 23l-98 104l-98 -104q-23 -23 -51 -23h-273zM1085 680v713q0 41 41 41h533q41 0 41 -41v-713q0 -194 -39.5 -326t-132.5 -222t-245.5 -130.5 t-379.5 -40.5t-379.5 40.5t-245.5 130.5t-132.5 222t-39.5 326v713q0 41 41 41h533q41 0 41 -41v-713q0 -121 18 -182t54.5 -82t109.5 -21t109.5 21t54.5 82t18 182z" />
<glyph unicode="&#xdc;" horiz-adv-x="1796" d="M846 1544q0 -41 -41 -41h-336q-41 0 -41 41v205q0 41 41 41h336q41 0 41 -41v-205zM1366 1544q0 -41 -41 -41h-336q-41 0 -41 41v205q0 41 41 41h336q41 0 41 -41v-205zM1085 680v713q0 41 41 41h533q41 0 41 -41v-713q0 -194 -39.5 -326t-132.5 -222t-245.5 -130.5 t-379.5 -40.5t-379.5 40.5t-245.5 130.5t-132.5 222t-39.5 326v713q0 41 41 41h533q41 0 41 -41v-713q0 -121 18 -182t54.5 -82t109.5 -21t109.5 21t54.5 82t18 182z" />
<glyph unicode="&#xdd;" horiz-adv-x="1667" d="M657 1503q-25 0 -32 14.5t8 34.5l184 254q19 25 51 25h406q27 0 33.5 -14.5t-11.5 -34.5l-235 -256q-20 -23 -49 -23h-355zM1649 1434q24 0 32.5 -14t-2.5 -36l-526 -935v-408q0 -41 -41 -41h-561q-41 0 -41 41v418l-526 925q-12 22 -3.5 36t31.5 14h566q36 0 47 -31 l145 -352l61 -203l60 203l145 352q11 31 47 31h566z" />
<glyph unicode="&#xde;" horiz-adv-x="1587" d="M852 1237q165 0 282 -15t206.5 -49t141.5 -92.5t77.5 -142t25.5 -201.5q0 -140 -39 -236t-127 -159t-226 -91t-341 -28h-154v-182q0 -41 -41 -41h-512q-41 0 -41 41v1352q0 41 41 41h512q41 0 41 -41v-156h154zM852 600q94 0 130 37t36 100q0 57 -35.5 90t-130.5 33h-154 v-260h154z" />
<glyph unicode="&#xdf;" horiz-adv-x="1568" d="M1288 758q93 -36 144 -77t76.5 -109.5t25.5 -178.5q0 -75 -17 -134t-62.5 -113t-120 -89t-195 -56t-281.5 -21q-96 0 -119 2q-39 0 -39 43v270q0 41 45 35q14 -2 54 -2q90 0 126 25.5t36 90.5q0 101 -42.5 138t-175.5 41q-43 0 -43 41v204q0 41 43 41q142 0 185 16t43 76 t-37.5 82.5t-134.5 22.5q-102 0 -139 -24t-37 -85v-956q0 -41 -41 -41h-482q-41 0 -41 41v1018q0 76 17 132.5t65 108t129 84t214 51.5t315 19q179 0 309.5 -19t209.5 -51.5t126 -84t63.5 -108t16.5 -132.5q0 -117 -56.5 -184t-179.5 -117z" />
<glyph unicode="&#xe0;" horiz-adv-x="1533" d="M567 1169l-235 256q-20 20 -13 35t35 15h406q32 0 51 -25l184 -254q14 -20 7 -34.5t-31 -14.5h-355q-30 0 -49 22zM1413 1024q41 0 41 -41v-942q0 -41 -41 -41h-500q-41 0 -41 41v94q-136 -155 -383 -155q-92 0 -159 14t-121.5 49.5t-87.5 95.5t-50.5 151t-17.5 218 q0 159 25 263.5t81 164.5t134 84t196 24q245 0 383 -153v92q0 41 41 41h500zM735 315q58 0 108 57t50 146q0 79 -51 135t-107 56q-108 0 -108 -201q0 -193 108 -193z" />
<glyph unicode="&#xe1;" horiz-adv-x="1533" d="M592 1147q-25 0 -32.5 14.5t7.5 34.5l185 254q19 25 51 25h405q27 0 34 -15t-11 -35l-236 -256q-19 -22 -49 -22h-354zM1413 1024q41 0 41 -41v-942q0 -41 -41 -41h-500q-41 0 -41 41v94q-136 -155 -383 -155q-92 0 -159 14t-121.5 49.5t-87.5 95.5t-50.5 151t-17.5 218 q0 159 25 263.5t81 164.5t134 84t196 24q245 0 383 -153v92q0 41 41 41h500zM735 315q58 0 108 57t50 146q0 79 -51 135t-107 56q-108 0 -108 -201q0 -193 108 -193z" />
<glyph unicode="&#xe2;" horiz-adv-x="1533" d="M346 1147q-25 0 -32 13.5t8 35.5l219 295q17 25 49 25h356q32 0 49 -25l219 -295q15 -22 8 -35.5t-32 -13.5h-272q-30 0 -52 22l-98 105l-98 -105q-22 -22 -52 -22h-272zM1413 1024q41 0 41 -41v-942q0 -41 -41 -41h-500q-41 0 -41 41v94q-136 -155 -383 -155 q-92 0 -159 14t-121.5 49.5t-87.5 95.5t-50.5 151t-17.5 218q0 159 25 263.5t81 164.5t134 84t196 24q245 0 383 -153v92q0 41 41 41h500zM735 315q58 0 108 57t50 146q0 79 -51 135t-107 56q-108 0 -108 -201q0 -193 108 -193z" />
<glyph unicode="&#xe3;" horiz-adv-x="1533" d="M395 1194q-20 -15 -32.5 -10t-12.5 30v164q0 30 19 52q61 61 168 61q58 0 120 -16.5t107 -36t106 -36t117 -16.5q88 0 152 44q47 29 47 -21v-166q0 -31 -21 -49q-67 -61 -170 -61q-72 0 -149.5 26t-154 52t-146.5 26q-90 0 -150 -43zM1413 1024q41 0 41 -41v-942 q0 -41 -41 -41h-500q-41 0 -41 41v94q-136 -155 -383 -155q-92 0 -159 14t-121.5 49.5t-87.5 95.5t-50.5 151t-17.5 218q0 159 25 263.5t81 164.5t134 84t196 24q245 0 383 -153v92q0 41 41 41h500zM735 315q58 0 108 57t50 146q0 79 -51 135t-107 56q-108 0 -108 -201 q0 -193 108 -193z" />
<glyph unicode="&#xe4;" horiz-adv-x="1533" d="M338 1147q-41 0 -41 41v205q0 41 41 41h336q41 0 41 -41v-205q0 -41 -41 -41h-336zM858 1147q-41 0 -41 41v205q0 41 41 41h336q41 0 41 -41v-205q0 -41 -41 -41h-336zM1413 1024q41 0 41 -41v-942q0 -41 -41 -41h-500q-41 0 -41 41v94q-136 -155 -383 -155 q-92 0 -159 14t-121.5 49.5t-87.5 95.5t-50.5 151t-17.5 218q0 159 25 263.5t81 164.5t134 84t196 24q245 0 383 -153v92q0 41 41 41h500zM735 315q58 0 108 57t50 146q0 79 -51 135t-107 56q-108 0 -108 -201q0 -193 108 -193z" />
<glyph unicode="&#xe5;" horiz-adv-x="1533" d="M766 1053q-120 0 -205.5 85t-85.5 205t85.5 205.5t205.5 85.5q121 0 207 -85.5t86 -205.5t-86 -205t-207 -85zM766 1421q-32 0 -55 -23t-23 -55t23 -55.5t55 -23.5t56 23.5t24 55.5t-24 55t-56 23zM1413 1024q41 0 41 -41v-942q0 -41 -41 -41h-500q-41 0 -41 41v94 q-136 -155 -383 -155q-92 0 -159 14t-121.5 49.5t-87.5 95.5t-50.5 151t-17.5 218q0 159 25 263.5t81 164.5t134 84t196 24q245 0 383 -153v92q0 41 41 41h500zM735 315q58 0 108 57t50 146q0 79 -51 135t-107 56q-108 0 -108 -201q0 -193 108 -193z" />
<glyph unicode="&#xe6;" horiz-adv-x="2344" d="M2294 471q0 -41 -41 -41h-780q2 -92 29 -128t104 -36q54 0 74 12t32 50q11 34 45 34h484q45 0 36 -45q-27 -119 -98.5 -191t-215.5 -109t-376 -37q-361 0 -524 122q-60 -62 -195.5 -97.5t-330.5 -35.5q-262 0 -373 80.5t-111 267.5q0 79 36.5 136t96.5 86.5t136 48 t156 23t156 9.5t136 9t96.5 20t36.5 45q0 34 -22.5 49t-85.5 15q-65 0 -92 -12.5t-33 -49.5q-6 -41 -41 -41h-490q-41 0 -41 25q3 99 33.5 164t106 112t206 67.5t330.5 20.5q263 0 381 -79q158 79 432 79q149 0 254.5 -11t185 -40t128 -69.5t79.5 -108.5t43.5 -147.5 t16.5 -196.5zM1593 758q-58 0 -94 -41.5t-41 -104.5h271q-3 83 -39 114.5t-97 31.5zM750 272q87 0 120 20t33 85v43q-176 -19 -223 -35q-50 -19 -51 -49q0 -33 25.5 -48.5t95.5 -15.5z" />
<glyph unicode="&#xe7;" horiz-adv-x="1525" d="M1413 440q42 0 39 -41q-12 -182 -115.5 -278.5t-335.5 -126.5l-143 -295q-16 -31 -47 -31h-416q-25 0 -32.5 14.5t6.5 34.5l184 273q-116 14 -203 46.5t-141.5 77.5t-87.5 108.5t-45.5 131t-12.5 152.5q0 96 17 171.5t62.5 146.5t120.5 117.5t198 74.5t287 28t280 -14.5 t196.5 -43.5t128.5 -79t70.5 -114t28.5 -156q3 -41 -39 -41l-504 -2q-37 0 -43 39q-8 53 -29 74.5t-67 21.5q-70 0 -94.5 -54t-24.5 -169q0 -121 23.5 -166t95.5 -45q92 0 100 117q3 28 41 28h502z" />
<glyph unicode="&#xe8;" horiz-adv-x="1492" d="M541 1169l-236 256q-20 20 -12.5 35t35.5 15h405q32 0 51 -25l185 -254q14 -20 7 -34.5t-32 -14.5h-354q-30 0 -49 22zM1442 471q0 -41 -41 -41h-780q3 -92 30.5 -128t104.5 -36q53 0 72.5 12t31.5 50q11 34 45 34h484q45 0 36 -45q-27 -119 -98.5 -191t-215 -109 t-374.5 -37q-119 0 -215.5 13.5t-167.5 37t-124 60t-87 79t-55 98t-29 112.5t-8 126q0 96 16.5 171.5t62.5 146.5t121 117.5t198 74.5t288 28q148 0 253.5 -11t184.5 -40t127.5 -69.5t79.5 -108.5t43.5 -147.5t16.5 -196.5zM743 758q-59 0 -95.5 -41.5t-39.5 -104.5h269 q-3 82 -38.5 114t-95.5 32z" />
<glyph unicode="&#xe9;" horiz-adv-x="1492" d="M565 1147q-25 0 -32 14.5t8 34.5l184 254q19 25 51 25h406q27 0 33.5 -15t-11.5 -35l-235 -256q-19 -22 -49 -22h-355zM1442 471q0 -41 -41 -41h-780q3 -92 30.5 -128t104.5 -36q53 0 72.5 12t31.5 50q11 34 45 34h484q45 0 36 -45q-27 -119 -98.5 -191t-215 -109 t-374.5 -37q-119 0 -215.5 13.5t-167.5 37t-124 60t-87 79t-55 98t-29 112.5t-8 126q0 96 16.5 171.5t62.5 146.5t121 117.5t198 74.5t288 28q148 0 253.5 -11t184.5 -40t127.5 -69.5t79.5 -108.5t43.5 -147.5t16.5 -196.5zM743 758q-59 0 -95.5 -41.5t-39.5 -104.5h269 q-3 82 -38.5 114t-95.5 32z" />
<glyph unicode="&#xea;" horiz-adv-x="1492" d="M319 1147q-25 0 -32 13.5t8 35.5l219 295q17 25 49 25h357q32 0 49 -25l219 -295q15 -22 7.5 -35.5t-32.5 -13.5h-272q-29 0 -51 22l-99 105l-98 -105q-22 -22 -51 -22h-273zM1442 471q0 -41 -41 -41h-780q3 -92 30.5 -128t104.5 -36q53 0 72.5 12t31.5 50q11 34 45 34 h484q45 0 36 -45q-27 -119 -98.5 -191t-215 -109t-374.5 -37q-119 0 -215.5 13.5t-167.5 37t-124 60t-87 79t-55 98t-29 112.5t-8 126q0 96 16.5 171.5t62.5 146.5t121 117.5t198 74.5t288 28q148 0 253.5 -11t184.5 -40t127.5 -69.5t79.5 -108.5t43.5 -147.5t16.5 -196.5z M743 758q-59 0 -95.5 -41.5t-39.5 -104.5h269q-3 82 -38.5 114t-95.5 32z" />
<glyph unicode="&#xeb;" horiz-adv-x="1492" d="M313 1147q-41 0 -41 41v205q0 41 41 41h336q41 0 41 -41v-205q0 -41 -41 -41h-336zM834 1147q-41 0 -41 41v205q0 41 41 41h335q41 0 41 -41v-205q0 -41 -41 -41h-335zM1442 471q0 -41 -41 -41h-780q3 -92 30.5 -128t104.5 -36q53 0 72.5 12t31.5 50q11 34 45 34h484 q45 0 36 -45q-27 -119 -98.5 -191t-215 -109t-374.5 -37q-119 0 -215.5 13.5t-167.5 37t-124 60t-87 79t-55 98t-29 112.5t-8 126q0 96 16.5 171.5t62.5 146.5t121 117.5t198 74.5t288 28q148 0 253.5 -11t184.5 -40t127.5 -69.5t79.5 -108.5t43.5 -147.5t16.5 -196.5z M743 758q-59 0 -95.5 -41.5t-39.5 -104.5h269q-3 82 -38.5 114t-95.5 32z" />
<glyph unicode="&#xec;" horiz-adv-x="776" d="M614 1196q14 -20 7 -34.5t-31 -14.5h-354q-31 0 -50 22l-235 256q-20 20 -13 35t35 15h406q32 0 51 -25zM686 41q0 -41 -41 -41h-510q-41 0 -41 41v942q0 41 41 41h510q41 0 41 -41v-942z" />
<glyph unicode="&#xed;" horiz-adv-x="776" d="M213 1147q-25 0 -32.5 14.5t7.5 34.5l185 254q19 25 51 25h405q27 0 34 -15t-11 -35l-236 -256q-19 -22 -49 -22h-354zM686 41q0 -41 -41 -41h-510q-41 0 -41 41v942q0 41 41 41h510q41 0 41 -41v-942z" />
<glyph unicode="&#xee;" horiz-adv-x="776" d="M-35 1147q-25 0 -32 13.5t8 35.5l219 295q17 25 49 25h356q32 0 49 -25l220 -295q15 -22 7.5 -35.5t-32.5 -13.5h-272q-30 0 -52 22l-98 105l-98 -105q-22 -22 -51 -22h-273zM686 41q0 -41 -41 -41h-510q-41 0 -41 41v942q0 41 41 41h510q41 0 41 -41v-942z" />
<glyph unicode="&#xef;" horiz-adv-x="776" d="M336 1188q0 -41 -41 -41h-336q-41 0 -41 41v205q0 41 41 41h336q41 0 41 -41v-205zM856 1188q0 -41 -41 -41h-336q-41 0 -41 41v205q0 41 41 41h336q41 0 41 -41v-205zM686 41q0 -41 -41 -41h-510q-41 0 -41 41v942q0 41 41 41h510q41 0 41 -41v-942z" />
<glyph unicode="&#xf0;" horiz-adv-x="1540" d="M1204 1096q285 -337 285 -650q0 -91 -13.5 -157.5t-46 -120.5t-84.5 -88t-132.5 -57.5t-185 -33t-247.5 -9.5q-167 0 -289 18t-206 54t-134.5 94.5t-74 134t-25.5 178.5q-2 95 30.5 169.5t87.5 118.5t125.5 72t146 35.5t147 3.5t130 -19.5t93.5 -37.5q-43 76 -119 174 l-350 -82q-39 -9 -51 29l-55 192q-12 39 28 51l209 49q-79 76 -188 168q-23 19 -17.5 35.5t33.5 16.5h528q28 0 52 -21q55 -45 92 -82l311 74q38 12 51 -27l56 -194q13 -39 -27 -49zM782 207q76 0 95.5 41.5t19.5 169.5q0 106 -20 142t-95 36q-76 0 -98 -37t-22 -141 q0 -126 22 -168.5t98 -42.5z" />
<glyph unicode="&#xf1;" horiz-adv-x="1538" d="M397 1194q-20 -15 -32.5 -10t-12.5 30v164q0 30 19 52q61 61 168 61q58 0 120 -16.5t107 -36t106 -36t117 -16.5q88 0 152 44q47 29 47 -21v-166q0 -31 -21 -49q-67 -61 -170 -61q-72 0 -149.5 26t-154 52t-146.5 26q-90 0 -150 -43zM1063 1044q73 0 129 -9.5t97 -25.5 t69.5 -44.5t46 -60.5t27 -79t13 -94.5t3.5 -112.5v-577q0 -41 -41 -41h-502q-41 0 -41 41v522q0 64 -11.5 90.5t-39.5 26.5q-61 0 -98 -86.5t-37 -245.5v-307q0 -41 -41 -41h-502q-41 0 -41 41v942q0 41 41 41h502q41 0 41 -41v-135q50 87 147.5 141.5t237.5 54.5z" />
<glyph unicode="&#xf2;" d="M1006 1196q14 -20 7 -34.5t-32 -14.5h-354q-30 0 -49 22l-236 256q-20 20 -12.5 35t35.5 15h405q32 0 51 -25zM1487 506q0 191 -66.5 306.5t-222 173.5t-418.5 58q-200 0 -336 -31.5t-218.5 -99.5t-118 -166.5t-35.5 -240.5q0 -143 35 -239.5t117.5 -162t218 -95 t337.5 -29.5q203 0 339 30t217.5 96.5t116 162.5t34.5 237zM780 721q70 0 94.5 -53t24.5 -162q0 -114 -23.5 -158.5t-95.5 -44.5q-73 0 -97 44.5t-24 158.5q0 109 25 162t96 53z" />
<glyph unicode="&#xf3;" d="M602 1147q-25 0 -32 14.5t8 34.5l184 254q19 25 51 25h406q27 0 33.5 -15t-11.5 -35l-235 -256q-19 -22 -50 -22h-354zM1487 506q0 191 -66.5 306.5t-222 173.5t-418.5 58q-200 0 -336 -31.5t-218.5 -99.5t-118 -166.5t-35.5 -240.5q0 -143 35 -239.5t117.5 -162t218 -95 t337.5 -29.5q203 0 339 30t217.5 96.5t116 162.5t34.5 237zM780 721q70 0 94.5 -53t24.5 -162q0 -114 -23.5 -158.5t-95.5 -44.5q-73 0 -97 44.5t-24 158.5q0 109 25 162t96 53z" />
<glyph unicode="&#xf4;" d="M356 1147q-25 0 -32 13.5t8 35.5l219 295q17 25 49 25h356q33 0 50 -25l219 -295q15 -22 7.5 -35.5t-32.5 -13.5h-272q-29 0 -51 22l-99 105l-98 -105q-22 -22 -51 -22h-273zM1487 506q0 191 -66.5 306.5t-222 173.5t-418.5 58q-200 0 -336 -31.5t-218.5 -99.5 t-118 -166.5t-35.5 -240.5q0 -143 35 -239.5t117.5 -162t218 -95t337.5 -29.5q203 0 339 30t217.5 96.5t116 162.5t34.5 237zM780 721q70 0 94.5 -53t24.5 -162q0 -114 -23.5 -158.5t-95.5 -44.5q-73 0 -97 44.5t-24 158.5q0 109 25 162t96 53z" />
<glyph unicode="&#xf5;" d="M1149 1430q47 29 47 -21v-166q0 -31 -20 -49q-67 -61 -170 -61q-72 0 -149.5 26t-154.5 52t-147 26q-89 0 -149 -43q-20 -15 -33 -10t-13 30v164q0 30 19 52q61 61 168 61q58 0 120 -16.5t107 -36t106 -36t117 -16.5q88 0 152 44zM1487 506q0 191 -66.5 306.5t-222 173.5 t-418.5 58q-200 0 -336 -31.5t-218.5 -99.5t-118 -166.5t-35.5 -240.5q0 -143 35 -239.5t117.5 -162t218 -95t337.5 -29.5q203 0 339 30t217.5 96.5t116 162.5t34.5 237zM780 721q70 0 94.5 -53t24.5 -162q0 -114 -23.5 -158.5t-95.5 -44.5q-73 0 -97 44.5t-24 158.5 q0 109 25 162t96 53z" />
<glyph unicode="&#xf6;" d="M725 1188q0 -41 -41 -41h-336q-41 0 -41 41v205q0 41 41 41h336q41 0 41 -41v-205zM1245 1188q0 -41 -41 -41h-336q-41 0 -41 41v205q0 41 41 41h336q41 0 41 -41v-205zM1487 506q0 191 -66.5 306.5t-222 173.5t-418.5 58q-200 0 -336 -31.5t-218.5 -99.5t-118 -166.5 t-35.5 -240.5q0 -143 35 -239.5t117.5 -162t218 -95t337.5 -29.5q203 0 339 30t217.5 96.5t116 162.5t34.5 237zM780 721q70 0 94.5 -53t24.5 -162q0 -114 -23.5 -158.5t-95.5 -44.5q-73 0 -97 44.5t-24 158.5q0 109 25 162t96 53z" />
<glyph unicode="&#xf7;" horiz-adv-x="1216" d="M608 819q-57 0 -104 48.5t-47 113.5t48 114.5t107 49.5q63 0 108.5 -49t45.5 -115t-45.5 -114t-108.5 -48h-4zM141 473q-41 0 -41 41v129q0 41 41 41h932q41 0 41 -41v-129q0 -41 -41 -41h-932zM614 340q57 0 103.5 -48t46.5 -112t-47.5 -115t-106.5 -51q-65 0 -111 50 t-46 116t45.5 113t111.5 47h4z" />
<glyph unicode="&#xf8;" horiz-adv-x="1554" d="M1485 1196q22 15 36.5 7.5t14.5 -32.5v-321q0 -32 -25 -49l-63 -43q39 -101 39 -252q0 -141 -34.5 -237t-116 -162.5t-217.5 -96.5t-339 -30q-266 0 -424 55l-288 -207q-20 -15 -36 -7t-16 34v319q0 30 25 49l65 45q-34 90 -34 238q0 142 35.5 240.5t118 166.5 t218.5 99.5t336 31.5q259 0 414 -55zM780 303q72 0 95.5 44.5t23.5 158.5q0 109 -24.5 162t-94.5 53q-71 0 -96 -53t-25 -162q0 -114 24 -158.5t97 -44.5z" />
<glyph unicode="&#xf9;" horiz-adv-x="1558" d="M578 1169l-236 256q-20 20 -12.5 35t35.5 15h405q32 0 51 -25l185 -254q14 -20 7 -34.5t-32 -14.5h-354q-30 0 -49 22zM1407 1024q41 0 41 -41v-942q0 -41 -41 -41h-502q-41 0 -41 41v135q-50 -87 -147.5 -141.5t-237.5 -54.5q-73 0 -129 9.5t-97 25.5t-69.5 44.5 t-46 60.5t-27 79t-13 94.5t-3.5 112.5v577q0 41 41 41h502q41 0 41 -41v-522q0 -64 11.5 -90.5t37.5 -26.5q62 0 99.5 86t37.5 246v307q0 41 41 41h502z" />
<glyph unicode="&#xfa;" horiz-adv-x="1558" d="M604 1147q-25 0 -32 14.5t8 34.5l184 254q19 25 51 25h406q27 0 33.5 -15t-11.5 -35l-235 -256q-19 -22 -50 -22h-354zM1407 1024q41 0 41 -41v-942q0 -41 -41 -41h-502q-41 0 -41 41v135q-50 -87 -147.5 -141.5t-237.5 -54.5q-73 0 -129 9.5t-97 25.5t-69.5 44.5 t-46 60.5t-27 79t-13 94.5t-3.5 112.5v577q0 41 41 41h502q41 0 41 -41v-522q0 -64 11.5 -90.5t37.5 -26.5q62 0 99.5 86t37.5 246v307q0 41 41 41h502z" />
<glyph unicode="&#xfb;" horiz-adv-x="1558" d="M356 1147q-25 0 -32 13.5t8 35.5l219 295q17 25 49 25h356q33 0 50 -25l219 -295q15 -22 7.5 -35.5t-32.5 -13.5h-272q-29 0 -51 22l-99 105l-98 -105q-22 -22 -51 -22h-273zM1407 1024q41 0 41 -41v-942q0 -41 -41 -41h-502q-41 0 -41 41v135q-50 -87 -147.5 -141.5 t-237.5 -54.5q-73 0 -129 9.5t-97 25.5t-69.5 44.5t-46 60.5t-27 79t-13 94.5t-3.5 112.5v577q0 41 41 41h502q41 0 41 -41v-522q0 -64 11.5 -90.5t37.5 -26.5q62 0 99.5 86t37.5 246v307q0 41 41 41h502z" />
<glyph unicode="&#xfc;" horiz-adv-x="1558" d="M350 1147q-41 0 -41 41v205q0 41 41 41h336q41 0 41 -41v-205q0 -41 -41 -41h-336zM870 1147q-41 0 -41 41v205q0 41 41 41h336q41 0 41 -41v-205q0 -41 -41 -41h-336zM1407 1024q41 0 41 -41v-942q0 -41 -41 -41h-502q-41 0 -41 41v135q-50 -87 -147.5 -141.5 t-237.5 -54.5q-73 0 -129 9.5t-97 25.5t-69.5 44.5t-46 60.5t-27 79t-13 94.5t-3.5 112.5v577q0 41 41 41h502q41 0 41 -41v-522q0 -64 11.5 -90.5t37.5 -26.5q62 0 99.5 86t37.5 246v307q0 41 41 41h502z" />
<glyph unicode="&#xfd;" horiz-adv-x="1609" d="M631 1147q-25 0 -32.5 14.5t7.5 34.5l185 254q19 25 51 25h405q27 0 34 -15t-11 -35l-236 -256q-19 -22 -49 -22h-354zM1556 1024q23 0 32 -13t1 -34l-598 -1356q-15 -31 -49 -31h-496q-23 0 -31 13t1 35l143 327l-530 1012q-11 22 -3.5 34.5t31.5 12.5h535q36 0 45 -33 l151 -452l29 -154l27 154l143 450q11 35 47 35h522z" />
<glyph unicode="&#xfe;" horiz-adv-x="1574" d="M1059 1044q92 0 159 -14t121.5 -49.5t87.5 -95.5t50.5 -151t17.5 -218q0 -159 -25 -263.5t-81 -164.5t-134 -84t-196 -24q-247 0 -381 153v-502q0 -41 -41 -41h-502q-41 0 -41 41v1762q0 41 41 41h502q41 0 41 -41v-504q132 155 381 155zM813 315q109 0 109 201 q0 193 -109 193q-58 0 -107 -57t-49 -146q0 -79 50 -135t106 -56z" />
<glyph unicode="&#xff;" horiz-adv-x="1609" d="M377 1147q-41 0 -41 41v205q0 41 41 41h336q41 0 41 -41v-205q0 -41 -41 -41h-336zM897 1147q-41 0 -41 41v205q0 41 41 41h336q41 0 41 -41v-205q0 -41 -41 -41h-336zM1556 1024q23 0 32 -13t1 -34l-598 -1356q-15 -31 -49 -31h-496q-23 0 -31 13t1 35l143 327 l-530 1012q-11 22 -3.5 34.5t31.5 12.5h535q36 0 45 -33l151 -452l29 -154l27 154l143 450q11 35 47 35h522z" />
<glyph unicode="&#x100;" horiz-adv-x="1748" d="M498 1507q-41 0 -41 41v205q0 41 41 41h753q41 0 41 -41v-205q0 -41 -41 -41h-753zM1733 45q6 -20 -3.5 -32.5t-31.5 -12.5h-549q-35 0 -45 37l-45 196h-373l-45 -198q-10 -37 -45 -37l-551 2q-22 0 -31 12.5t-2 32.5l424 1354q8 35 47 35h777q39 0 47 -35zM760 567h223 l-96 424l-15 117l-16 -117z" />
<glyph unicode="&#x101;" horiz-adv-x="1533" d="M391 1147q-41 0 -41 41v205q0 41 41 41h754q41 0 41 -41v-205q0 -41 -41 -41h-754zM1413 1024q41 0 41 -41v-942q0 -41 -41 -41h-500q-41 0 -41 41v94q-136 -155 -383 -155q-92 0 -159 14t-121.5 49.5t-87.5 95.5t-50.5 151t-17.5 218q0 159 25 263.5t81 164.5t134 84 t196 24q245 0 383 -153v92q0 41 41 41h500zM735 315q58 0 108 57t50 146q0 79 -51 135t-107 56q-108 0 -108 -201q0 -193 108 -193z" />
<glyph unicode="&#x102;" horiz-adv-x="1748" d="M874 1487q-174 0 -285 66.5t-128 197.5q-3 43 41 43h213q11 0 19.5 -5t12 -9t13.5 -17q37 -43 114 -43q79 0 113 43q1 1 4 5t4 5t3.5 4.5t3.5 4.5t4 3.5t4.5 3t4 2t5 2t6 1t6.5 0.5h213q44 0 41 -43q-17 -131 -127.5 -197.5t-284.5 -66.5zM1733 45q6 -20 -3.5 -32.5 t-31.5 -12.5h-549q-35 0 -45 37l-45 196h-373l-45 -198q-10 -37 -45 -37l-551 2q-22 0 -31 12.5t-2 32.5l424 1354q8 35 47 35h777q39 0 47 -35zM760 567h223l-96 424l-15 117l-16 -117z" />
<glyph unicode="&#x103;" horiz-adv-x="1533" d="M768 1126q-174 0 -285.5 67t-128.5 198q-3 43 41 43h213q11 0 19.5 -5t12 -9t13.5 -17q37 -43 115 -43q79 0 113 43q1 1 4 5t4 5t3.5 4.5t3.5 4.5t4 3.5t4.5 3t4 2t5 2t6 1t6.5 0.5h213q44 0 41 -43q-17 -131 -127.5 -198t-284.5 -67zM1413 1024q41 0 41 -41v-942 q0 -41 -41 -41h-500q-41 0 -41 41v94q-136 -155 -383 -155q-92 0 -159 14t-121.5 49.5t-87.5 95.5t-50.5 151t-17.5 218q0 159 25 263.5t81 164.5t134 84t196 24q245 0 383 -153v92q0 41 41 41h500zM735 315q58 0 108 57t50 146q0 79 -51 135t-107 56q-108 0 -108 -201 q0 -193 108 -193z" />
<glyph unicode="&#x104;" horiz-adv-x="1748" d="M1733 45q4 -15 -1.5 -26.5t-19.5 -16.5h4q-97 -33 -152 -52.5t-96 -38t-53.5 -32t-7.5 -26.5q13 -28 135 18q39 16 53 -18l74 -152q19 -39 -20 -55q-100 -42 -205 -51t-187.5 13t-135 76.5t-52.5 131.5q0 150 191 184h-111q-35 0 -45 37l-45 196h-373l-45 -198 q-10 -37 -45 -37l-551 2q-22 0 -31 12.5t-2 32.5l424 1354q8 35 47 35h777q39 0 47 -35zM760 567h223l-96 424l-15 117l-16 -117z" />
<glyph unicode="&#x105;" horiz-adv-x="1533" d="M1413 1024q41 0 41 -41v-942q0 -38 -35 -41q-95 -32 -149 -51.5t-94 -37.5t-52.5 -31.5t-7.5 -26.5q13 -28 135 18q40 16 54 -18l73 -152q19 -39 -20 -55q-100 -42 -205 -51t-187.5 13t-135 76.5t-52.5 131.5q0 150 191 184h-56q-41 0 -41 41v94q-136 -155 -383 -155 q-92 0 -159 14t-121.5 49.5t-87.5 95.5t-50.5 151t-17.5 218q0 159 25 263.5t81 164.5t134 84t196 24q245 0 383 -153v92q0 41 41 41h500zM735 315q58 0 108 57t50 146q0 79 -51 135t-107 56q-108 0 -108 -201q0 -193 108 -193z" />
<glyph unicode="&#x106;" horiz-adv-x="1738" d="M719 1516q-25 0 -32.5 14.5t7.5 34.5l185 254q19 24 51 24h405q27 0 34 -14.5t-11 -34.5l-236 -256q-19 -22 -49 -22h-354zM1120 854q-37 0 -43 41q-10 91 -49.5 124.5t-134.5 33.5q-117 0 -161 -75t-44 -257q0 -194 42.5 -264t162.5 -70q105 0 142 37.5t46 148.5 q3 41 41 41h520q42 0 39 -43q-9 -161 -52 -270t-136.5 -185t-245 -110.5t-375.5 -34.5q-131 0 -240 19t-190 54t-143.5 86.5t-104 113.5t-68 139.5t-37.5 159.5t-11 178q0 132 22.5 238.5t78 202t144.5 160t228 101.5t321 37q188 0 321.5 -20t226 -60t147.5 -109t81.5 -158 t32.5 -216q3 -43 -39 -43h-522z" />
<glyph unicode="&#x107;" horiz-adv-x="1525" d="M588 1147q-25 0 -32.5 14.5t7.5 34.5l185 254q19 25 51 25h405q27 0 34 -15t-11 -35l-236 -256q-19 -22 -49 -22h-354zM909 594q-37 0 -43 39q-8 53 -29 74.5t-67 21.5q-70 0 -94.5 -54t-24.5 -169q0 -121 23.5 -166t95.5 -45q92 0 100 117q3 28 41 28h502q42 0 39 -41 q-10 -149 -77.5 -238.5t-219.5 -135t-407 -45.5q-138 0 -246 17t-182 51.5t-125 79t-79.5 106t-40.5 126.5t-12 146q0 96 17 171.5t62.5 146.5t120.5 117.5t198 74.5t287 28t280 -14.5t196.5 -43.5t128.5 -79t70.5 -114t28.5 -156q3 -41 -39 -41z" />
<glyph unicode="&#x108;" horiz-adv-x="1738" d="M471 1516q-25 0 -32.5 13.5t7.5 35.5l220 295q16 24 49 24h356q33 0 49 -24l219 -295q15 -22 8 -35.5t-32 -13.5h-273q-29 0 -51 22l-98 104l-98 -104q-22 -22 -52 -22h-272zM1120 854q-37 0 -43 41q-10 91 -49.5 124.5t-134.5 33.5q-117 0 -161 -75t-44 -257 q0 -194 42.5 -264t162.5 -70q105 0 142 37.5t46 148.5q3 41 41 41h520q42 0 39 -43q-9 -161 -52 -270t-136.5 -185t-245 -110.5t-375.5 -34.5q-131 0 -240 19t-190 54t-143.5 86.5t-104 113.5t-68 139.5t-37.5 159.5t-11 178q0 132 22.5 238.5t78 202t144.5 160t228 101.5 t321 37q188 0 321.5 -20t226 -60t147.5 -109t81.5 -158t32.5 -216q3 -43 -39 -43h-522z" />
<glyph unicode="&#x109;" horiz-adv-x="1525" d="M342 1147q-25 0 -32.5 13.5t7.5 35.5l220 295q17 25 49 25h356q32 0 49 -25l219 -295q15 -22 8 -35.5t-32 -13.5h-273q-29 0 -51 22l-98 105l-98 -105q-22 -22 -52 -22h-272zM909 594q-37 0 -43 39q-8 53 -29 74.5t-67 21.5q-70 0 -94.5 -54t-24.5 -169q0 -121 23.5 -166 t95.5 -45q92 0 100 117q3 28 41 28h502q42 0 39 -41q-10 -149 -77.5 -238.5t-219.5 -135t-407 -45.5q-138 0 -246 17t-182 51.5t-125 79t-79.5 106t-40.5 126.5t-12 146q0 96 17 171.5t62.5 146.5t120.5 117.5t198 74.5t287 28t280 -14.5t196.5 -43.5t128.5 -79t70.5 -114 t28.5 -156q3 -41 -39 -41z" />
<glyph unicode="&#x10a;" horiz-adv-x="1738" d="M1114 1556q0 -40 -41 -40h-358q-41 0 -41 40v205q0 41 41 41h358q41 0 41 -41v-205zM1120 854q-37 0 -43 41q-10 91 -49.5 124.5t-134.5 33.5q-117 0 -161 -75t-44 -257q0 -194 42.5 -264t162.5 -70q105 0 142 37.5t46 148.5q3 41 41 41h520q42 0 39 -43 q-9 -161 -52 -270t-136.5 -185t-245 -110.5t-375.5 -34.5q-131 0 -240 19t-190 54t-143.5 86.5t-104 113.5t-68 139.5t-37.5 159.5t-11 178q0 132 22.5 238.5t78 202t144.5 160t228 101.5t321 37q188 0 321.5 -20t226 -60t147.5 -109t81.5 -158t32.5 -216q3 -43 -39 -43 h-522z" />
<glyph unicode="&#x10b;" horiz-adv-x="1525" d="M983 1188q0 -41 -41 -41h-358q-41 0 -41 41v205q0 41 41 41h358q41 0 41 -41v-205zM909 594q-37 0 -43 39q-8 53 -29 74.5t-67 21.5q-70 0 -94.5 -54t-24.5 -169q0 -121 23.5 -166t95.5 -45q92 0 100 117q3 28 41 28h502q42 0 39 -41q-10 -149 -77.5 -238.5t-219.5 -135 t-407 -45.5q-138 0 -246 17t-182 51.5t-125 79t-79.5 106t-40.5 126.5t-12 146q0 96 17 171.5t62.5 146.5t120.5 117.5t198 74.5t287 28t280 -14.5t196.5 -43.5t128.5 -79t70.5 -114t28.5 -156q3 -41 -39 -41z" />
<glyph unicode="&#x10c;" horiz-adv-x="1738" d="M446 1835q-15 22 -7.5 35.5t32.5 13.5h272q30 0 52 -22l98 -105l98 105q22 22 51 22h273q25 0 32 -13.5t-8 -35.5l-219 -295q-16 -24 -49 -24h-356q-33 0 -49 24zM1120 854q-37 0 -43 41q-10 91 -49.5 124.5t-134.5 33.5q-117 0 -161 -75t-44 -257q0 -194 42.5 -264 t162.5 -70q105 0 142 37.5t46 148.5q3 41 41 41h520q42 0 39 -43q-9 -161 -52 -270t-136.5 -185t-245 -110.5t-375.5 -34.5q-131 0 -240 19t-190 54t-143.5 86.5t-104 113.5t-68 139.5t-37.5 159.5t-11 178q0 132 22.5 238.5t78 202t144.5 160t228 101.5t321 37 q188 0 321.5 -20t226 -60t147.5 -109t81.5 -158t32.5 -216q3 -43 -39 -43h-522z" />
<glyph unicode="&#x10d;" horiz-adv-x="1525" d="M317 1466q-15 22 -7.5 36t32.5 14h272q29 0 52 -23l98 -104l98 104q23 23 51 23h273q25 0 32 -14t-8 -36l-219 -295q-16 -24 -49 -24h-356q-33 0 -49 24zM909 594q-37 0 -43 39q-8 53 -29 74.5t-67 21.5q-70 0 -94.5 -54t-24.5 -169q0 -121 23.5 -166t95.5 -45 q92 0 100 117q3 28 41 28h502q42 0 39 -41q-10 -149 -77.5 -238.5t-219.5 -135t-407 -45.5q-138 0 -246 17t-182 51.5t-125 79t-79.5 106t-40.5 126.5t-12 146q0 96 17 171.5t62.5 146.5t120.5 117.5t198 74.5t287 28t280 -14.5t196.5 -43.5t128.5 -79t70.5 -114t28.5 -156 q3 -41 -39 -41z" />
<glyph unicode="&#x10e;" horiz-adv-x="1697" d="M575 1528l-219 295q-15 22 -7.5 35.5t32.5 13.5h272q29 0 52 -23l98 -104l98 104q23 23 51 23h273q25 0 32 -13.5t-8 -35.5l-219 -295q-17 -25 -49 -25h-356q-33 0 -50 25zM831 1434q428 0 616.5 -168.5t188.5 -540.5q0 -362 -191.5 -543.5t-613.5 -181.5h-665 q-41 0 -41 41v1352q0 41 41 41h665zM840 395q229 0 229 330q0 155 -53 234t-176 79h-142v-643h142z" />
<glyph unicode="&#x10f;" horiz-adv-x="1564" d="M549 1520l-219 295q-15 22 -8 35.5t32 13.5h273q28 0 51 -23l98 -104l98 104q23 23 52 23h272q25 0 32.5 -13.5t-7.5 -35.5l-219 -295q-17 -25 -50 -25h-356q-32 0 -49 25zM1444 1434q41 0 41 -41v-1352q0 -41 -41 -41h-502q-41 0 -41 41v94q-132 -155 -381 -155 q-93 0 -160 14t-122 49.5t-88 95.5t-50.5 151t-17.5 218q0 159 25 263.5t81 164.5t134.5 84t197.5 24q247 0 381 -153v502q0 41 41 41h502zM766 315q58 0 107 57t49 146q0 79 -50 135t-106 56q-109 0 -109 -201q0 -193 109 -193z" />
<glyph unicode="&#x110;" horiz-adv-x="1697" d="M831 1434q428 0 616.5 -168.5t188.5 -540.5q0 -362 -191.5 -543.5t-613.5 -181.5h-665q-41 0 -41 41v508h-82q-41 0 -41 41v254q0 41 41 41h82v508q0 41 41 41h665zM840 395q229 0 229 330q0 155 -53 234t-176 79h-142v-153h168q41 0 41 -41v-254q0 -41 -41 -41h-168 v-154h142z" />
<glyph unicode="&#x111;" horiz-adv-x="1564" d="M1604 1354q41 0 41 -41v-254q0 -41 -41 -41h-119v-977q0 -41 -41 -41h-502q-41 0 -41 41v94q-132 -155 -381 -155q-93 0 -160 14t-122 49.5t-88 95.5t-50.5 151t-17.5 218q0 159 25 263.5t81 164.5t134.5 84t197.5 24q247 0 381 -153v127h-121q-41 0 -41 41v254 q0 41 41 41h121v39q0 41 41 41h502q41 0 41 -41v-39h119zM766 315q58 0 107 57t49 146q0 79 -50 135t-106 56q-109 0 -109 -201q0 -193 109 -193z" />
<glyph unicode="&#x112;" horiz-adv-x="1525" d="M393 1511q-41 0 -41 41v205q0 41 41 41h754q41 0 41 -41v-205q0 -41 -41 -41h-754zM1382 1057h-704v-166h704q41 0 41 -41v-266q0 -41 -41 -41h-704v-166h704q41 0 41 -41v-295q0 -41 -41 -41h-1226q-41 0 -41 41v1352q0 41 41 41h1226q41 0 41 -41v-295q0 -41 -41 -41z " />
<glyph unicode="&#x113;" horiz-adv-x="1492" d="M365 1147q-41 0 -41 41v205q0 41 41 41h753q41 0 41 -41v-205q0 -41 -41 -41h-753zM1442 471q0 -41 -41 -41h-780q3 -92 30.5 -128t104.5 -36q53 0 72.5 12t31.5 50q11 34 45 34h484q45 0 36 -45q-27 -119 -98.5 -191t-215 -109t-374.5 -37q-119 0 -215.5 13.5t-167.5 37 t-124 60t-87 79t-55 98t-29 112.5t-8 126q0 96 16.5 171.5t62.5 146.5t121 117.5t198 74.5t288 28q148 0 253.5 -11t184.5 -40t127.5 -69.5t79.5 -108.5t43.5 -147.5t16.5 -196.5zM743 758q-59 0 -95.5 -41.5t-39.5 -104.5h269q-3 82 -38.5 114t-95.5 32z" />
<glyph unicode="&#x114;" horiz-adv-x="1525" d="M770 1491q-174 0 -285.5 66.5t-128.5 197.5q-3 43 41 43h213q11 0 19.5 -5t12 -9t13.5 -17q37 -43 115 -43q79 0 113 43q1 1 4 5t4 5t3.5 4.5t3.5 4.5t4 3.5t4.5 3t4 2t5 2t6 1t6.5 0.5h213q44 0 41 -43q-17 -131 -127.5 -197.5t-284.5 -66.5zM1382 1057h-704v-166h704 q41 0 41 -41v-266q0 -41 -41 -41h-704v-166h704q41 0 41 -41v-295q0 -41 -41 -41h-1226q-41 0 -41 41v1352q0 41 41 41h1226q41 0 41 -41v-295q0 -41 -41 -41z" />
<glyph unicode="&#x115;" horiz-adv-x="1492" d="M741 1126q-174 0 -285 67t-128 198q-3 43 41 43h213q11 0 19.5 -5t12 -9t13.5 -17q37 -43 114 -43q79 0 113 43q1 1 4 5t4 5t3.5 4.5t3.5 4.5t4 3.5t4.5 3t4 2t5 2t6 1t6.5 0.5h213q44 0 41 -43q-17 -131 -127.5 -198t-284.5 -67zM1442 471q0 -41 -41 -41h-780 q3 -92 30.5 -128t104.5 -36q53 0 72.5 12t31.5 50q11 34 45 34h484q45 0 36 -45q-27 -119 -98.5 -191t-215 -109t-374.5 -37q-119 0 -215.5 13.5t-167.5 37t-124 60t-87 79t-55 98t-29 112.5t-8 126q0 96 16.5 171.5t62.5 146.5t121 117.5t198 74.5t288 28q148 0 253.5 -11 t184.5 -40t127.5 -69.5t79.5 -108.5t43.5 -147.5t16.5 -196.5zM743 758q-59 0 -95.5 -41.5t-39.5 -104.5h269q-3 82 -38.5 114t-95.5 32z" />
<glyph unicode="&#x116;" horiz-adv-x="1525" d="M590 1511q-41 0 -41 41v205q0 41 41 41h358q41 0 41 -41v-205q0 -41 -41 -41h-358zM1382 1057h-704v-166h704q41 0 41 -41v-266q0 -41 -41 -41h-704v-166h704q41 0 41 -41v-295q0 -41 -41 -41h-1226q-41 0 -41 41v1352q0 41 41 41h1226q41 0 41 -41v-295q0 -41 -41 -41z " />
<glyph unicode="&#x117;" horiz-adv-x="1492" d="M561 1147q-41 0 -41 41v205q0 41 41 41h359q41 0 41 -41v-205q0 -41 -41 -41h-359zM1442 471q0 -41 -41 -41h-780q3 -92 30.5 -128t104.5 -36q53 0 72.5 12t31.5 50q11 34 45 34h484q45 0 36 -45q-27 -119 -98.5 -191t-215 -109t-374.5 -37q-119 0 -215.5 13.5t-167.5 37 t-124 60t-87 79t-55 98t-29 112.5t-8 126q0 96 16.5 171.5t62.5 146.5t121 117.5t198 74.5t288 28q148 0 253.5 -11t184.5 -40t127.5 -69.5t79.5 -108.5t43.5 -147.5t16.5 -196.5zM743 758q-59 0 -95.5 -41.5t-39.5 -104.5h269q-3 82 -38.5 114t-95.5 32z" />
<glyph unicode="&#x118;" horiz-adv-x="1525" d="M1382 1057h-704v-166h704q41 0 41 -41v-266q0 -41 -41 -41h-704v-166h704q41 0 41 -41v-295q0 -38 -34 -41q-95 -32 -149 -51.5t-94.5 -37.5t-53 -31.5t-7.5 -26.5q14 -28 136 18q39 16 53 -18l74 -152q19 -39 -21 -55q-100 -42 -205 -51t-187 13t-134.5 76.5 t-52.5 131.5q0 150 190 184h-782q-41 0 -41 41v1352q0 41 41 41h1226q41 0 41 -41v-295q0 -41 -41 -41z" />
<glyph unicode="&#x119;" horiz-adv-x="1492" d="M1442 471q0 -41 -41 -41h-780q3 -92 30.5 -128t104.5 -36q53 0 72.5 12t31.5 50q11 34 45 34h484q45 0 36 -45q-30 -135 -120 -211t-271 -106q-148 -51 -202.5 -78.5t-45.5 -50.5q14 -28 136 18q39 16 53 -18l74 -152q19 -39 -21 -55q-100 -42 -205 -51t-187 13 t-134.5 76.5t-52.5 131.5q0 105 98 156q-118 13 -206 45.5t-143 77.5t-88.5 109t-46 131.5t-12.5 152.5q0 96 16.5 171.5t62.5 146.5t121 117.5t198 74.5t288 28q148 0 253.5 -11t184.5 -40t127.5 -69.5t79.5 -108.5t43.5 -147.5t16.5 -196.5zM743 758q-59 0 -95.5 -41.5 t-39.5 -104.5h269q-3 82 -38.5 114t-95.5 32z" />
<glyph unicode="&#x11a;" horiz-adv-x="1525" d="M543 1536l-219 295q-15 22 -8 35.5t32 13.5h273q29 0 51 -22l98 -105l98 105q22 22 52 22h272q25 0 32.5 -13.5t-7.5 -35.5l-220 -295q-17 -25 -49 -25h-356q-32 0 -49 25zM1382 1057h-704v-166h704q41 0 41 -41v-266q0 -41 -41 -41h-704v-166h704q41 0 41 -41v-295 q0 -41 -41 -41h-1226q-41 0 -41 41v1352q0 41 41 41h1226q41 0 41 -41v-295q0 -41 -41 -41z" />
<glyph unicode="&#x11b;" horiz-adv-x="1492" d="M514 1171l-219 295q-15 22 -8 36t32 14h273q28 0 51 -23l98 -104l99 104q23 23 51 23h272q25 0 32.5 -14t-7.5 -36l-219 -295q-16 -24 -49 -24h-357q-33 0 -49 24zM1442 471q0 -41 -41 -41h-780q3 -92 30.5 -128t104.5 -36q53 0 72.5 12t31.5 50q11 34 45 34h484 q45 0 36 -45q-27 -119 -98.5 -191t-215 -109t-374.5 -37q-119 0 -215.5 13.5t-167.5 37t-124 60t-87 79t-55 98t-29 112.5t-8 126q0 96 16.5 171.5t62.5 146.5t121 117.5t198 74.5t288 28q148 0 253.5 -11t184.5 -40t127.5 -69.5t79.5 -108.5t43.5 -147.5t16.5 -196.5z M743 758q-59 0 -95.5 -41.5t-39.5 -104.5h269q-3 82 -38.5 114t-95.5 32z" />
<glyph unicode="&#x11c;" horiz-adv-x="1771" d="M481 1516q-25 0 -32 13.5t8 35.5l219 295q16 24 49 24h356q33 0 49 -24l220 -295q15 -22 7.5 -35.5t-32.5 -13.5h-272q-30 0 -52 22l-98 104l-98 -104q-22 -22 -51 -22h-273zM1665 788q41 0 41 -43q-2 -151 -17.5 -260t-53.5 -199t-98 -147t-155.5 -96t-221 -55.5 t-298.5 -16.5q-183 0 -320.5 37.5t-225 101.5t-141.5 161t-75.5 205.5t-21.5 244.5q0 132 23.5 239t82 202t151 159.5t236.5 101.5t332 37q178 0 306.5 -19t218 -56.5t143 -100.5t78 -144t28.5 -194q0 -41 -41 -41h-516q-38 0 -41 39q-5 48 -21.5 72.5t-54.5 35.5t-110 11 q-116 0 -160.5 -79.5t-44.5 -262.5q0 -199 44 -282t161 -83q122 0 173.5 31t55.5 125h-186q-41 0 -41 41v195q0 40 41 40h729z" />
<glyph unicode="&#x11d;" horiz-adv-x="1527" d="M348 1163q-25 0 -32 13.5t8 35.5l219 295q17 25 49 25h356q32 0 49 -25l220 -295q15 -22 7.5 -35.5t-32.5 -13.5h-272q-29 0 -52 23l-98 104l-98 -104q-23 -23 -51 -23h-273zM1573 1042q21 -37 -17 -55l-192 -82q96 -91 96 -276q0 -75 -11.5 -127.5t-43 -94t-79 -66.5 t-128 -41t-181.5 -22t-247 -6q-206 0 -344 27q-55 -27 -55 -51q0 -12 11 -18.5t52 -11.5t120 -7t216 -2q94 0 159 -1t133.5 -3.5t113 -7.5t90.5 -13.5t73 -19.5t54 -28t41 -38t25.5 -49.5t15.5 -61.5t4 -75q0 -69 -20 -119.5t-70 -92.5t-135 -67.5t-215 -39t-310 -13.5 q-167 0 -275.5 9t-185 29t-117 58.5t-58.5 89.5t-21 130q0 41 41 41l505 -3q38 0 44 -40q1 -34 22 -44t86 -10t93 16.5t28 57.5q0 45 -42 65.5t-161 20.5q-126 0 -207.5 2t-154 9t-112.5 18t-70 31t-41 46.5t-11 65.5q0 111 101 209q-130 83 -130 248q0 90 20.5 154 t68.5 113.5t130.5 79t201.5 44t286 14.5q179 0 305 -18l348 176q36 19 56 -14zM764 479q72 0 93.5 37t21.5 133q0 75 -21.5 106t-93.5 31q-71 0 -95 -32t-24 -105q0 -94 23.5 -132t95.5 -38z" />
<glyph unicode="&#x11e;" horiz-adv-x="1771" d="M903 1495q-174 0 -285.5 66.5t-128.5 197.5q-3 43 41 43h213q11 0 19.5 -4.5t12 -9t13.5 -16.5q37 -43 115 -43q79 0 113 43q19 24 31 28q6 2 14 2h213q44 0 41 -43q-17 -131 -127.5 -197.5t-284.5 -66.5zM1665 788q41 0 41 -43q-2 -151 -17.5 -260t-53.5 -199t-98 -147 t-155.5 -96t-221 -55.5t-298.5 -16.5q-183 0 -320.5 37.5t-225 101.5t-141.5 161t-75.5 205.5t-21.5 244.5q0 132 23.5 239t82 202t151 159.5t236.5 101.5t332 37q178 0 306.5 -19t218 -56.5t143 -100.5t78 -144t28.5 -194q0 -41 -41 -41h-516q-38 0 -41 39 q-5 48 -21.5 72.5t-54.5 35.5t-110 11q-116 0 -160.5 -79.5t-44.5 -262.5q0 -199 44 -282t161 -83q122 0 173.5 31t55.5 125h-186q-41 0 -41 41v195q0 40 41 40h729z" />
<glyph unicode="&#x11f;" horiz-adv-x="1527" d="M772 1143q-174 0 -285.5 66.5t-128.5 197.5q-3 43 41 43h213q11 0 19.5 -5t12 -9t13.5 -17q37 -43 115 -43q79 0 113 43q1 1 4 5t4 5t3.5 4.5t3.5 4.5t4 3.5t4.5 3t4 2t5 2t6 1t6.5 0.5h213q44 0 41 -43q-17 -131 -127.5 -197.5t-284.5 -66.5zM1573 1042q21 -37 -17 -55 l-192 -82q96 -91 96 -276q0 -75 -11.5 -127.5t-43 -94t-79 -66.5t-128 -41t-181.5 -22t-247 -6q-206 0 -344 27q-55 -27 -55 -51q0 -12 11 -18.5t52 -11.5t120 -7t216 -2q94 0 159 -1t133.5 -3.5t113 -7.5t90.5 -13.5t73 -19.5t54 -28t41 -38t25.5 -49.5t15.5 -61.5t4 -75 q0 -69 -20 -119.5t-70 -92.5t-135 -67.5t-215 -39t-310 -13.5q-167 0 -275.5 9t-185 29t-117 58.5t-58.5 89.5t-21 130q0 41 41 41l505 -3q38 0 44 -40q1 -34 22 -44t86 -10t93 16.5t28 57.5q0 45 -42 65.5t-161 20.5q-126 0 -207.5 2t-154 9t-112.5 18t-70 31t-41 46.5 t-11 65.5q0 111 101 209q-130 83 -130 248q0 90 20.5 154t68.5 113.5t130.5 79t201.5 44t286 14.5q179 0 305 -18l348 176q36 19 56 -14zM764 479q72 0 93.5 37t21.5 133q0 75 -21.5 106t-93.5 31q-71 0 -95 -32t-24 -105q0 -94 23.5 -132t95.5 -38z" />
<glyph unicode="&#x120;" horiz-adv-x="1771" d="M723 1516q-41 0 -41 40v205q0 41 41 41h358q41 0 41 -41v-205q0 -40 -41 -40h-358zM1665 788q41 0 41 -43q-2 -151 -17.5 -260t-53.5 -199t-98 -147t-155.5 -96t-221 -55.5t-298.5 -16.5q-183 0 -320.5 37.5t-225 101.5t-141.5 161t-75.5 205.5t-21.5 244.5 q0 132 23.5 239t82 202t151 159.5t236.5 101.5t332 37q178 0 306.5 -19t218 -56.5t143 -100.5t78 -144t28.5 -194q0 -41 -41 -41h-516q-38 0 -41 39q-5 48 -21.5 72.5t-54.5 35.5t-110 11q-116 0 -160.5 -79.5t-44.5 -262.5q0 -199 44 -282t161 -83q122 0 173.5 31t55.5 125 h-186q-41 0 -41 41v195q0 40 41 40h729z" />
<glyph unicode="&#x121;" horiz-adv-x="1527" d="M592 1163q-41 0 -41 41v205q0 41 41 41h358q41 0 41 -41v-205q0 -41 -41 -41h-358zM1573 1042q21 -37 -17 -55l-192 -82q96 -91 96 -276q0 -75 -11.5 -127.5t-43 -94t-79 -66.5t-128 -41t-181.5 -22t-247 -6q-206 0 -344 27q-55 -27 -55 -51q0 -12 11 -18.5t52 -11.5 t120 -7t216 -2q94 0 159 -1t133.5 -3.5t113 -7.5t90.5 -13.5t73 -19.5t54 -28t41 -38t25.5 -49.5t15.5 -61.5t4 -75q0 -69 -20 -119.5t-70 -92.5t-135 -67.5t-215 -39t-310 -13.5q-167 0 -275.5 9t-185 29t-117 58.5t-58.5 89.5t-21 130q0 41 41 41l505 -3q38 0 44 -40 q1 -34 22 -44t86 -10t93 16.5t28 57.5q0 45 -42 65.5t-161 20.5q-126 0 -207.5 2t-154 9t-112.5 18t-70 31t-41 46.5t-11 65.5q0 111 101 209q-130 83 -130 248q0 90 20.5 154t68.5 113.5t130.5 79t201.5 44t286 14.5q179 0 305 -18l348 176q36 19 56 -14zM764 479 q72 0 93.5 37t21.5 133q0 75 -21.5 106t-93.5 31q-71 0 -95 -32t-24 -105q0 -94 23.5 -132t95.5 -38z" />
<glyph unicode="&#x122;" horiz-adv-x="1771" d="M1665 788q41 0 41 -43q-2 -151 -17.5 -260t-53.5 -199t-98 -147t-155.5 -96t-221 -55.5t-298.5 -16.5q-183 0 -320.5 37.5t-225 101.5t-141.5 161t-75.5 205.5t-21.5 244.5q0 132 23.5 239t82 202t151 159.5t236.5 101.5t332 37q178 0 306.5 -19t218 -56.5t143 -100.5 t78 -144t28.5 -194q0 -41 -41 -41h-516q-38 0 -41 39q-5 48 -21.5 72.5t-54.5 35.5t-110 11q-116 0 -160.5 -79.5t-44.5 -262.5q0 -199 44 -282t161 -83q122 0 173.5 31t55.5 125h-186q-41 0 -41 41v195q0 40 41 40h729zM1108 -104q24 0 32.5 -14t-3.5 -36l-258 -434 q-14 -28 -48 -28h-276q-22 0 -32 12.5t-5 32.5l98 432q8 35 46 35h446z" />
<glyph unicode="&#x123;" horiz-adv-x="1515" d="M543 1124q-25 0 -33.5 14t2.5 36l258 434q14 28 47 28h277q22 0 31.5 -12t4.5 -33l-98 -432q-6 -35 -43 -35h-446zM1573 1042q21 -37 -17 -55l-192 -82q96 -91 96 -276q0 -75 -11.5 -127.5t-43 -94t-79 -66.5t-128 -41t-181.5 -22t-247 -6q-206 0 -344 27 q-55 -27 -55 -51q0 -12 11 -18.5t52 -11.5t120 -7t216 -2q94 0 159 -1t133.5 -3.5t113 -7.5t90.5 -13.5t73 -19.5t54 -28t41 -38t25.5 -49.5t15.5 -61.5t4 -75q0 -69 -20 -119.5t-70 -92.5t-135 -67.5t-215 -39t-310 -13.5q-167 0 -275.5 9t-185 29t-117 58.5t-58.5 89.5 t-21 130q0 41 41 41l505 -3q38 0 44 -40q1 -34 22 -44t86 -10t93 16.5t28 57.5q0 45 -42 65.5t-161 20.5q-126 0 -207.5 2t-154 9t-112.5 18t-70 31t-41 46.5t-11 65.5q0 111 101 209q-130 83 -130 248q0 90 20.5 154t68.5 113.5t130.5 79t201.5 44t286 14.5q179 0 305 -18 l348 176q36 19 56 -14zM764 479q72 0 93.5 37t21.5 133q0 75 -21.5 106t-93.5 31q-71 0 -95 -32t-24 -105q0 -94 23.5 -132t95.5 -38z" />
<glyph unicode="&#x124;" horiz-adv-x="1714" d="M434 1503q-25 0 -32 13.5t8 35.5l219 295q17 25 49 25h356q32 0 49 -25l220 -295q15 -22 7.5 -35.5t-32.5 -13.5h-272q-29 0 -52 23l-98 104l-98 -104q-23 -23 -51 -23h-273zM1579 1434q41 0 41 -41v-1352q0 -41 -41 -41h-522q-41 0 -41 41v475h-318v-475q0 -41 -41 -41 h-522q-41 0 -41 41v1352q0 41 41 41h522q41 0 41 -41v-475h318v475q0 41 41 41h522z" />
<glyph unicode="&#x125;" horiz-adv-x="1558" d="M356 1495q-25 0 -32 13.5t8 35.5l219 295q17 25 49 25h356q33 0 50 -25l219 -295q15 -22 7.5 -35.5t-32.5 -13.5h-272q-28 0 -51 23l-99 104l-98 -104q-23 -23 -51 -23h-273zM1063 1044q73 0 129 -9.5t97 -25.5t69.5 -44.5t46 -60.5t27 -79t13 -94.5t3.5 -112.5v-577 q0 -41 -41 -41h-502q-41 0 -41 41v522q0 64 -11.5 90.5t-39.5 26.5q-61 0 -98 -86.5t-37 -245.5v-307q0 -41 -41 -41h-502q-41 0 -41 41v1352q0 41 41 41h502q41 0 41 -41v-545q50 87 147.5 141.5t237.5 54.5z" />
<glyph unicode="&#x126;" horiz-adv-x="1714" d="M1720 1315q41 0 41 -41v-201q0 -41 -41 -41h-100v-991q0 -41 -41 -41h-522q-41 0 -41 41v475h-318v-475q0 -41 -41 -41h-522q-41 0 -41 41v991h-104q-41 0 -41 41v201q0 41 41 41h104v78q0 41 41 41h522q41 0 41 -41v-78h318v78q0 41 41 41h522q41 0 41 -41v-78h100z M1016 918v114h-318v-114h318z" />
<glyph unicode="&#x127;" horiz-adv-x="1558" d="M1063 1044q73 0 129 -9.5t97 -25.5t69.5 -44.5t46 -60.5t27 -79t13 -94.5t3.5 -112.5v-577q0 -41 -41 -41h-502q-41 0 -41 41v522q0 64 -11.5 90.5t-39.5 26.5q-61 0 -98 -86.5t-37 -245.5v-307q0 -41 -41 -41h-502q-41 0 -41 41v975h-80q-41 0 -41 41v254q0 41 41 41h80 v41q0 41 41 41h502q41 0 41 -41v-41h160q41 0 41 -41v-254q0 -41 -41 -41h-160v-168q50 87 147.5 141.5t237.5 54.5z" />
<glyph unicode="&#x128;" horiz-adv-x="888" d="M817 1786q47 29 47 -21v-166q0 -31 -20 -49q-67 -61 -170 -61q-72 0 -149.5 26t-154.5 52t-147 26q-89 0 -149 -43q-20 -15 -32.5 -9.5t-12.5 30.5v164q0 30 18 51q61 61 168 61q73 0 150.5 -26t154 -52t146.5 -26q89 0 151 43zM766 41q0 -41 -41 -41h-549q-41 0 -41 41 v1352q0 41 41 41h549q41 0 41 -41v-1352z" />
<glyph unicode="&#x129;" horiz-adv-x="776" d="M760 1430q47 29 47 -21v-166q0 -31 -21 -49q-67 -61 -170 -61q-72 0 -149.5 26t-154 52t-146.5 26q-90 0 -150 -43q-20 -15 -32.5 -10t-12.5 30v164q0 30 19 52q61 61 168 61q58 0 120 -16.5t107 -36t106 -36t117 -16.5q88 0 152 44zM686 41q0 -41 -41 -41h-510 q-41 0 -41 41v942q0 41 41 41h510q41 0 41 -41v-942z" />
<glyph unicode="&#x12a;" horiz-adv-x="888" d="M823 1790q41 0 41 -41v-205q0 -41 -41 -41h-753q-41 0 -41 41v205q0 41 41 41h753zM766 41q0 -41 -41 -41h-549q-41 0 -41 41v1352q0 41 41 41h549q41 0 41 -41v-1352z" />
<glyph unicode="&#x12b;" horiz-adv-x="776" d="M766 1434q41 0 41 -41v-205q0 -41 -41 -41h-754q-41 0 -41 41v205q0 41 41 41h754zM686 41q0 -41 -41 -41h-510q-41 0 -41 41v942q0 41 41 41h510q41 0 41 -41v-942z" />
<glyph unicode="&#x12c;" horiz-adv-x="888" d="M287 1790q11 0 19.5 -5t12 -9t13.5 -17q37 -43 114 -43q79 0 113 43q1 1 4 5t4 5t3.5 4.5t3.5 4.5t4 3.5t4.5 3t4 2t5 2t6 1t6.5 0.5h213q44 0 41 -43q-17 -131 -127.5 -197.5t-284.5 -66.5t-285 66.5t-128 197.5q-3 43 41 43h213zM766 41q0 -41 -41 -41h-549 q-41 0 -41 41v1352q0 41 41 41h549q41 0 41 -41v-1352z" />
<glyph unicode="&#x12d;" horiz-adv-x="776" d="M229 1434q11 0 19.5 -5t12 -9t13.5 -17q37 -43 115 -43q79 0 113 43q1 1 4 5t4 5t3.5 4.5t3.5 4.5t4 3.5t4.5 3t4 2t5 2t6 1t6.5 0.5h213q44 0 41 -43q-17 -131 -127.5 -198t-284.5 -67t-285.5 67t-128.5 198q-3 43 41 43h213zM686 41q0 -41 -41 -41h-510q-41 0 -41 41 v942q0 41 41 41h510q41 0 41 -41v-942z" />
<glyph unicode="&#x12e;" horiz-adv-x="888" d="M725 1434q41 0 41 -41v-1352q0 -38 -33 -41q-95 -31 -150.5 -51t-95 -38t-52 -31.5t-7.5 -26.5q13 -28 135 18q39 16 53 -18l74 -152q19 -39 -20 -55q-100 -42 -205 -51t-187.5 13t-135 76.5t-52.5 131.5q0 150 191 184h-105q-41 0 -41 41v1352q0 41 41 41h549z" />
<glyph unicode="&#x12f;" horiz-adv-x="776" d="M209 1147q-41 0 -41 41v205q0 41 41 41h358q41 0 41 -41v-205q0 -41 -41 -41h-358zM645 1024q41 0 41 -41v-942q0 -41 -41 -41h-43q-144 -48 -198.5 -76t-45.5 -51q14 -28 136 18q39 16 53 -18l74 -152q19 -39 -21 -55q-100 -42 -205 -51t-187.5 13t-135 76.5 t-52.5 131.5q0 116 119 164h-4q-41 0 -41 41v942q0 41 41 41h510z" />
<glyph unicode="&#x130;" horiz-adv-x="888" d="M666 1544q0 -41 -41 -41h-359q-41 0 -41 41v205q0 41 41 41h359q41 0 41 -41v-205zM766 41q0 -41 -41 -41h-549q-41 0 -41 41v1352q0 41 41 41h549q41 0 41 -41v-1352z" />
<glyph unicode="&#x131;" horiz-adv-x="776" d="M686 41q0 -41 -41 -41h-510q-41 0 -41 41v942q0 41 41 41h510q41 0 41 -41v-942z" />
<glyph unicode="&#x134;" horiz-adv-x="1077" d="M215 1503q-25 0 -32.5 13.5t7.5 35.5l220 295q17 25 49 25h356q32 0 49 -25l219 -295q15 -22 8 -35.5t-32 -13.5h-273q-28 0 -51 23l-98 104l-98 -104q-23 -23 -52 -23h-272zM61 365q0 44 48 34q36 -6 61 -9.5t48.5 -3t38.5 1.5t29 11.5t21.5 19t14 31.5t9 41t4.5 55.5 t2.5 68.5t0.5 85v693q0 41 41 41h512q41 0 41 -41v-830q0 -136 -14 -230.5t-51 -169.5t-96.5 -117.5t-154.5 -65t-220 -21t-298 22.5q-39 3 -39 43z" />
<glyph unicode="&#x135;" horiz-adv-x="776" d="M-35 1147q-25 0 -32 13.5t8 35.5l219 295q17 25 49 25h356q32 0 49 -25l220 -295q15 -22 7.5 -35.5t-32.5 -13.5h-272q-30 0 -52 22l-98 105l-98 -105q-22 -22 -51 -22h-273zM686 -369q0 -41 -41 -41h-510q-41 0 -41 41v1352q0 41 41 41h510q41 0 41 -41v-1352z" />
<glyph unicode="&#x136;" horiz-adv-x="1718" d="M1686 49q14 -20 6 -34.5t-33 -14.5h-598q-33 0 -49 29l-221 374l-93 -73v-289q0 -41 -41 -41h-512q-41 0 -41 41v1352q0 41 41 41h512q41 0 41 -41v-287l-12 -191l74 127l237 365q16 27 50 27h589q27 0 34.5 -15t-9.5 -35l-475 -589zM1081 -104q24 0 32.5 -14t-3.5 -36 l-258 -434q-14 -28 -47 -28h-277q-22 0 -31.5 12t-4.5 33l98 432q8 35 45 35h446z" />
<glyph unicode="&#x137;" horiz-adv-x="1574" d="M1528 49q14 -22 7 -35.5t-32 -13.5h-528q-31 0 -49 27l-162 241l-107 -61v-166q0 -41 -41 -41h-501q-41 0 -41 41v1352q0 41 41 41h501q41 0 41 -41v-574l-8 -153l74 120l162 213q19 25 49 25h528q26 0 33 -14.5t-8 -34.5l-332 -402zM1010 -104q23 0 31.5 -14t-3.5 -36 l-258 -434q-14 -28 -47 -28h-276q-22 0 -32 12.5t-5 32.5l98 432q8 35 45 35h447z" />
<glyph unicode="&#x138;" horiz-adv-x="1574" d="M1528 49q14 -22 7 -35.5t-32 -13.5h-528q-31 0 -49 27l-162 241l-107 -61v-166q0 -41 -41 -41h-501q-41 0 -41 41v942q0 41 41 41h501q41 0 41 -41v-164l-8 -153l74 120l162 213q19 25 49 25h528q26 0 33 -14.5t-8 -34.5l-332 -402z" />
<glyph unicode="&#x139;" horiz-adv-x="1386" d="M258 1503q-25 0 -32.5 14.5t7.5 34.5l185 254q19 25 51 25h405q27 0 34 -14.5t-11 -34.5l-235 -256q-20 -23 -50 -23h-354zM1307 395q41 0 41 -41v-313q0 -41 -41 -41h-1151q-41 0 -41 41v1352q0 41 41 41h553q41 0 41 -41v-998h557z" />
<glyph unicode="&#x13a;" horiz-adv-x="798" d="M225 1516q-25 0 -32 14.5t8 34.5l184 254q19 24 51 24h406q27 0 33.5 -14.5t-11.5 -34.5l-235 -256q-19 -22 -49 -22h-355zM698 41q0 -41 -41 -41h-510q-41 0 -41 41v1352q0 41 41 41h510q41 0 41 -41v-1352z" />
<glyph unicode="&#x13b;" horiz-adv-x="1386" d="M1307 395q41 0 41 -41v-313q0 -41 -41 -41h-1151q-41 0 -41 41v1352q0 41 41 41h553q41 0 41 -41v-998h557zM915 -104q24 0 32.5 -14t-3.5 -36l-258 -434q-14 -28 -47 -28h-277q-22 0 -31.5 12t-4.5 33l98 432q8 35 45 35h446z" />
<glyph unicode="&#x13c;" horiz-adv-x="798" d="M698 41q0 -41 -41 -41h-510q-41 0 -41 41v1352q0 41 41 41h510q41 0 41 -41v-1352zM393 -588q-14 -28 -47 -28h-276q-22 0 -32 12.5t-5 32.5l98 432q8 35 45 35h447q23 0 31.5 -14t-3.5 -36z" />
<glyph unicode="&#x13d;" horiz-adv-x="1386" d="M254 1503q-32 0 -49 25l-219 295q-15 22 -8 35.5t32 13.5h273q28 0 51 -23l98 -104l98 104q23 23 52 23h272q25 0 32.5 -13.5t-7.5 -35.5l-220 -295q-17 -25 -49 -25h-356zM1307 395q41 0 41 -41v-313q0 -41 -41 -41h-1151q-41 0 -41 41v1352q0 41 41 41h553q41 0 41 -41 v-998h557z" />
<glyph unicode="&#x13e;" horiz-adv-x="798" d="M-47 1835q-15 22 -8 35.5t32 13.5h273q29 0 51 -22l98 -105l99 105q22 22 51 22h272q25 0 32.5 -13.5t-7.5 -35.5l-219 -295q-16 -24 -49 -24h-357q-33 0 -49 24zM698 41q0 -41 -41 -41h-510q-41 0 -41 41v1352q0 41 41 41h510q41 0 41 -41v-1352z" />
<glyph unicode="&#x13f;" horiz-adv-x="1386" d="M1307 395q41 0 41 -41v-313q0 -41 -41 -41h-1151q-41 0 -41 41v1352q0 41 41 41h553q41 0 41 -41v-998h557zM1339 965q41 0 41 -41v-312q0 -41 -41 -41h-372q-41 0 -41 41v312q0 41 41 41h372z" />
<glyph unicode="&#x140;" horiz-adv-x="1228" d="M698 41q0 -41 -41 -41h-510q-41 0 -41 41v1352q0 41 41 41h510q41 0 41 -41v-1352zM1239 569q0 -41 -41 -41h-373q-41 0 -41 41v312q0 41 41 41h373q41 0 41 -41v-312z" />
<glyph unicode="&#x141;" horiz-adv-x="1386" d="M1307 395q41 0 41 -41v-313q0 -41 -41 -41h-1151q-41 0 -41 41v414l-66 -25q-22 -9 -35.5 0.5t-13.5 32.5v285q0 33 33 47l82 32v566q0 41 41 41h553q41 0 41 -41v-320l249 98q22 9 36 0t14 -32v-285q0 -30 -33 -47l-266 -105v-307h557z" />
<glyph unicode="&#x142;" horiz-adv-x="798" d="M895 1133q22 9 35.5 -0.5t13.5 -32.5v-285q0 -31 -33 -47l-213 -84v-643q0 -41 -41 -41h-510q-41 0 -41 41v414l-161 -64q-22 -9 -35.5 0.5t-13.5 32.5v285q0 33 32 47l178 69v568q0 41 41 41h510q41 0 41 -41v-338z" />
<glyph unicode="&#x143;" horiz-adv-x="1820" d="M735 1503q-25 0 -32 14.5t8 34.5l184 254q19 25 51 25h406q27 0 33.5 -14.5t-11.5 -34.5l-235 -256q-20 -23 -49 -23h-355zM1671 1434q41 0 41 -41v-1352q0 -41 -41 -41h-676q-34 0 -45 33l-299 837l27 -282l14 -547q0 -41 -39 -41h-489q-41 0 -41 41v1352q0 41 41 41 h674q36 0 47 -33l303 -848l-27 297l-10 543q0 41 41 41h479z" />
<glyph unicode="&#x144;" horiz-adv-x="1538" d="M594 1147q-25 0 -32.5 14.5t7.5 34.5l185 254q19 25 51 25h405q27 0 34 -15t-11 -35l-236 -256q-19 -22 -49 -22h-354zM1063 1044q73 0 129 -9.5t97 -25.5t69.5 -44.5t46 -60.5t27 -79t13 -94.5t3.5 -112.5v-577q0 -41 -41 -41h-502q-41 0 -41 41v522q0 64 -11.5 90.5 t-39.5 26.5q-61 0 -98 -86.5t-37 -245.5v-307q0 -41 -41 -41h-502q-41 0 -41 41v942q0 41 41 41h502q41 0 41 -41v-135q50 87 147.5 141.5t237.5 54.5z" />
<glyph unicode="&#x145;" horiz-adv-x="1820" d="M1671 1434q41 0 41 -41v-1352q0 -41 -41 -41h-676q-34 0 -45 33l-299 837l27 -282l14 -547q0 -41 -39 -41h-489q-41 0 -41 41v1352q0 41 41 41h674q36 0 47 -33l303 -848l-27 297l-10 543q0 41 41 41h479zM1133 -104q23 0 31.5 -14t-3.5 -36l-258 -434q-14 -28 -47 -28 h-276q-22 0 -32 12.5t-5 32.5l98 432q8 35 45 35h447z" />
<glyph unicode="&#x146;" horiz-adv-x="1538" d="M1063 1044q73 0 129 -9.5t97 -25.5t69.5 -44.5t46 -60.5t27 -79t13 -94.5t3.5 -112.5v-577q0 -41 -41 -41h-502q-41 0 -41 41v522q0 64 -11.5 90.5t-39.5 26.5q-61 0 -98 -86.5t-37 -245.5v-307q0 -41 -41 -41h-502q-41 0 -41 41v942q0 41 41 41h502q41 0 41 -41v-135 q50 87 147.5 141.5t237.5 54.5zM991 -104q24 0 32.5 -14t-3.5 -36l-258 -434q-14 -28 -47 -28h-277q-22 0 -32 12.5t-5 32.5l99 432q8 35 45 35h446z" />
<glyph unicode="&#x147;" horiz-adv-x="1820" d="M684 1528l-219 295q-15 22 -8 35.5t32 13.5h273q28 0 51 -23l98 -104l99 104q23 23 51 23h272q25 0 32.5 -13.5t-7.5 -35.5l-219 -295q-17 -25 -49 -25h-357q-32 0 -49 25zM1671 1434q41 0 41 -41v-1352q0 -41 -41 -41h-676q-34 0 -45 33l-299 837l27 -282l14 -547 q0 -41 -39 -41h-489q-41 0 -41 41v1352q0 41 41 41h674q36 0 47 -33l303 -848l-27 297l-10 543q0 41 41 41h479z" />
<glyph unicode="&#x148;" horiz-adv-x="1538" d="M543 1171l-219 295q-15 22 -8 36t32 14h273q28 0 51 -23l98 -104l98 104q23 23 52 23h272q25 0 32.5 -14t-7.5 -36l-220 -295q-16 -24 -49 -24h-356q-33 0 -49 24zM1063 1044q73 0 129 -9.5t97 -25.5t69.5 -44.5t46 -60.5t27 -79t13 -94.5t3.5 -112.5v-577q0 -41 -41 -41 h-502q-41 0 -41 41v522q0 64 -11.5 90.5t-39.5 26.5q-61 0 -98 -86.5t-37 -245.5v-307q0 -41 -41 -41h-502q-41 0 -41 41v942q0 41 41 41h502q41 0 41 -41v-135q50 87 147.5 141.5t237.5 54.5z" />
<glyph unicode="&#x149;" horiz-adv-x="1538" d="M281 1130q-14 -26 -48 -26h-276q-22 0 -32 12.5t-5 32.5l98 432q8 35 45 35h447q23 0 32 -14.5t-3 -34.5zM1063 1044q73 0 129 -9.5t97 -25.5t69.5 -44.5t46 -60.5t27 -79t13 -94.5t3.5 -112.5v-577q0 -41 -41 -41h-502q-41 0 -41 41v522q0 64 -11.5 90.5t-39.5 26.5 q-61 0 -98 -86.5t-37 -245.5v-307q0 -41 -41 -41h-502q-41 0 -41 41v942q0 41 41 41h502q41 0 41 -41v-135q50 87 147.5 141.5t237.5 54.5z" />
<glyph unicode="&#x14c;" horiz-adv-x="1738" d="M1247 1802q41 0 41 -41v-205q0 -40 -41 -40h-753q-41 0 -41 40v205q0 41 41 41h753zM872 -29q-189 0 -333.5 37t-238.5 102t-154 161t-84.5 205.5t-24.5 244.5q0 131 24.5 238.5t84.5 202.5t154 159.5t239 101.5t333 37q157 0 283.5 -25t216.5 -73.5t155 -113 t103.5 -149.5t56 -177t17.5 -201q0 -135 -25 -244.5t-84.5 -205.5t-153 -161t-238 -102t-331.5 -37zM872 397q121 0 171.5 70.5t50.5 253.5q0 176 -51 248.5t-171 72.5q-121 0 -173 -73t-52 -248q0 -183 51.5 -253.5t173.5 -70.5z" />
<glyph unicode="&#x14d;" d="M1155 1434q41 0 41 -41v-205q0 -41 -41 -41h-754q-41 0 -41 41v205q0 41 41 41h754zM1487 506q0 191 -66.5 306.5t-222 173.5t-418.5 58q-200 0 -336 -31.5t-218.5 -99.5t-118 -166.5t-35.5 -240.5q0 -143 35 -239.5t117.5 -162t218 -95t337.5 -29.5q203 0 339 30 t217.5 96.5t116 162.5t34.5 237zM780 721q70 0 94.5 -53t24.5 -162q0 -114 -23.5 -158.5t-95.5 -44.5q-73 0 -97 44.5t-24 158.5q0 109 25 162t96 53z" />
<glyph unicode="&#x14e;" horiz-adv-x="1738" d="M711 1802q11 0 19.5 -4.5t12 -9t13.5 -16.5q37 -43 114 -43q79 0 113 43q19 24 31 28q6 2 14 2h213q44 0 41 -43q-17 -131 -127.5 -197.5t-284.5 -66.5t-285 66.5t-128 197.5q-3 43 41 43h213zM872 -29q-189 0 -333.5 37t-238.5 102t-154 161t-84.5 205.5t-24.5 244.5 q0 131 24.5 238.5t84.5 202.5t154 159.5t239 101.5t333 37q157 0 283.5 -25t216.5 -73.5t155 -113t103.5 -149.5t56 -177t17.5 -201q0 -135 -25 -244.5t-84.5 -205.5t-153 -161t-238 -102t-331.5 -37zM872 397q121 0 171.5 70.5t50.5 253.5q0 176 -51 248.5t-171 72.5 q-121 0 -173 -73t-52 -248q0 -183 51.5 -253.5t173.5 -70.5z" />
<glyph unicode="&#x14f;" d="M618 1434q11 0 19.5 -5t12.5 -9.5t14 -16.5q37 -43 114 -43q79 0 113 43q1 1 4 5t4 5t3.5 4.5t3.5 4.5t4 3.5t4.5 3t4 2t5 2t6 1t6.5 0.5h213q44 0 41 -43q-17 -131 -127.5 -198t-284.5 -67t-285 67t-128 198q-3 43 41 43h212zM1487 506q0 191 -66.5 306.5t-222 173.5 t-418.5 58q-200 0 -336 -31.5t-218.5 -99.5t-118 -166.5t-35.5 -240.5q0 -143 35 -239.5t117.5 -162t218 -95t337.5 -29.5q203 0 339 30t217.5 96.5t116 162.5t34.5 237zM780 721q70 0 94.5 -53t24.5 -162q0 -114 -23.5 -158.5t-95.5 -44.5q-73 0 -97 44.5t-24 158.5 q0 109 25 162t96 53z" />
<glyph unicode="&#x150;" horiz-adv-x="1738" d="M438 1516q-23 0 -31 14.5t5 34.5l161 252q17 26 50 26h383q25 0 32 -14.5t-10 -34.5l-209 -256q-19 -22 -51 -22h-330zM979 1516q-26 0 -33 14.5t8 34.5l211 256q17 22 49 22h375q28 0 35 -15.5t-12 -35.5l-258 -256q-23 -20 -51 -20h-324zM872 -29q-189 0 -333.5 37 t-238.5 102t-154 161t-84.5 205.5t-24.5 244.5q0 131 24.5 238.5t84.5 202.5t154 159.5t239 101.5t333 37q157 0 283.5 -25t216.5 -73.5t155 -113t103.5 -149.5t56 -177t17.5 -201q0 -135 -25 -244.5t-84.5 -205.5t-153 -161t-238 -102t-331.5 -37zM872 397 q121 0 171.5 70.5t50.5 253.5q0 176 -51 248.5t-171 72.5q-121 0 -173 -73t-52 -248q0 -183 51.5 -253.5t173.5 -70.5z" />
<glyph unicode="&#x151;" d="M346 1147q-24 0 -32 14.5t5 34.5l162 252q18 27 49 27h383q25 0 32.5 -15t-9.5 -35l-209 -256q-19 -22 -51 -22h-330zM887 1147q-26 0 -33 14.5t8 34.5l211 256q17 23 49 23h375q28 0 35 -16t-12 -36l-258 -256q-23 -20 -52 -20h-323zM1487 506q0 191 -66.5 306.5 t-222 173.5t-418.5 58q-200 0 -336 -31.5t-218.5 -99.5t-118 -166.5t-35.5 -240.5q0 -143 35 -239.5t117.5 -162t218 -95t337.5 -29.5q203 0 339 30t217.5 96.5t116 162.5t34.5 237zM780 721q70 0 94.5 -53t24.5 -162q0 -114 -23.5 -158.5t-95.5 -44.5q-73 0 -97 44.5 t-24 158.5q0 109 25 162t96 53z" />
<glyph unicode="&#x152;" horiz-adv-x="2410" d="M2267 1057h-706v-166h706q41 0 41 -41v-266q0 -41 -41 -41h-706v-166h706q41 0 41 -41v-295q0 -41 -41 -41h-1423q-430 0 -618.5 168.5t-188.5 540.5q0 363 191.5 544t615.5 181h1423q41 0 41 -41v-295q0 -41 -41 -41zM834 395h143v643h-143q-230 0 -230 -329 q0 -154 54 -234t176 -80z" />
<glyph unicode="&#x153;" horiz-adv-x="2371" d="M2320 471q0 -41 -41 -41h-780q2 -92 29 -128t104 -36q54 0 74.5 12t32.5 50q11 34 45 34h483q22 0 32.5 -7.5t6.5 -20.5q-25 -127 -94.5 -201.5t-214.5 -113.5t-383 -39q-283 0 -406 90q-124 -90 -428 -90q-202 0 -337.5 29.5t-218 95t-117.5 162t-35 239.5 q0 142 35.5 240.5t118 166.5t218.5 99.5t336 31.5q306 0 428 -96q126 96 406 96q149 0 254.5 -11t185 -40t127.5 -69.5t79 -108.5t43.5 -147.5t16.5 -196.5zM1620 758q-58 0 -94 -41.5t-41 -104.5h270q-3 83 -38.5 114.5t-96.5 31.5zM780 303q72 0 95.5 44.5t23.5 158.5 q0 109 -24.5 162t-94.5 53q-71 0 -96 -53t-25 -162q0 -114 24 -158.5t97 -44.5z" />
<glyph unicode="&#x154;" horiz-adv-x="1626" d="M637 1503q-25 0 -32.5 14.5t7.5 34.5l185 254q19 25 51 25h405q27 0 34 -14.5t-11 -34.5l-236 -256q-20 -23 -49 -23h-354zM1593 47q10 -22 2.5 -34.5t-30.5 -12.5h-521q-36 0 -49 31l-196 389h-121v-379q0 -41 -41 -41h-492q-41 0 -41 41v1352q0 41 41 41h713 q172 0 295.5 -18.5t207.5 -55t133 -97.5t70 -138t21 -185q0 -105 -20 -184t-74.5 -147t-144.5 -111zM852 772q94 0 130 37t36 100q0 57 -35.5 90t-130.5 33h-174v-260h174z" />
<glyph unicode="&#x155;" horiz-adv-x="1112" d="M385 1147q-25 0 -32.5 14.5t7.5 34.5l185 254q19 25 51 25h405q27 0 34 -15t-11 -35l-236 -256q-19 -22 -49 -22h-354zM1059 1053q43 3 43 -41v-348q0 -41 -43 -41q-100 -2 -166 -13t-107.5 -30t-63 -55t-29 -76.5t-7.5 -106.5v-301q0 -41 -41 -41h-510q-41 0 -41 41v942 q0 41 41 41h510q41 0 41 -41v-147q52 86 147 146.5t226 70.5z" />
<glyph unicode="&#x156;" horiz-adv-x="1626" d="M1593 47q10 -22 2.5 -34.5t-30.5 -12.5h-521q-36 0 -49 31l-196 389h-121v-379q0 -41 -41 -41h-492q-41 0 -41 41v1352q0 41 41 41h713q172 0 295.5 -18.5t207.5 -55t133 -97.5t70 -138t21 -185q0 -105 -20 -184t-74.5 -147t-144.5 -111zM852 772q94 0 130 37t36 100 q0 57 -35.5 90t-130.5 33h-174v-260h174zM1034 -104q24 0 32.5 -14t-3.5 -36l-258 -434q-14 -28 -47 -28h-277q-22 0 -32 12.5t-5 32.5l99 432q8 35 45 35h446z" />
<glyph unicode="&#x157;" horiz-adv-x="1112" d="M1059 1053q43 3 43 -41v-348q0 -41 -43 -41q-100 -2 -166 -13t-107.5 -30t-63 -55t-29 -76.5t-7.5 -106.5v-301q0 -41 -41 -41h-510q-41 0 -41 41v942q0 41 41 41h510q41 0 41 -41v-147q52 86 147 146.5t226 70.5zM608 -104q24 0 32.5 -14t-3.5 -36l-258 -434 q-14 -28 -47 -28h-277q-22 0 -32 12.5t-5 32.5l99 432q8 35 45 35h446z" />
<glyph unicode="&#x158;" horiz-adv-x="1626" d="M586 1528l-219 295q-15 22 -8 35.5t32 13.5h273q28 0 51 -23l98 -104l98 104q23 23 52 23h272q25 0 32.5 -13.5t-7.5 -35.5l-220 -295q-17 -25 -49 -25h-356q-32 0 -49 25zM1593 47q10 -22 2.5 -34.5t-30.5 -12.5h-521q-36 0 -49 31l-196 389h-121v-379q0 -41 -41 -41 h-492q-41 0 -41 41v1352q0 41 41 41h713q172 0 295.5 -18.5t207.5 -55t133 -97.5t70 -138t21 -185q0 -105 -20 -184t-74.5 -147t-144.5 -111zM852 772q94 0 130 37t36 100q0 57 -35.5 90t-130.5 33h-174v-260h174z" />
<glyph unicode="&#x159;" horiz-adv-x="1112" d="M334 1171l-219 295q-15 22 -8 36t32 14h273q28 0 51 -23l98 -104l98 104q23 23 52 23h272q25 0 32.5 -14t-7.5 -36l-220 -295q-16 -24 -49 -24h-356q-33 0 -49 24zM1059 1053q43 3 43 -41v-348q0 -41 -43 -41q-100 -2 -166 -13t-107.5 -30t-63 -55t-29 -76.5t-7.5 -106.5 v-301q0 -41 -41 -41h-510q-41 0 -41 41v942q0 41 41 41h510q41 0 41 -41v-147q52 86 147 146.5t226 70.5z" />
<glyph unicode="&#x15a;" horiz-adv-x="1656" d="M657 1516q-25 0 -32 14.5t8 34.5l184 254q19 24 51 24h406q27 0 33.5 -14.5t-11.5 -34.5l-235 -256q-19 -22 -49 -22h-355zM1599 434q0 -128 -34.5 -213t-121 -145t-233.5 -86.5t-372 -26.5q-151 0 -264.5 11.5t-198 37t-141 62.5t-92 92.5t-51.5 122t-19 155.5 q0 41 41 41h510q38 0 41 -41q8 -63 44.5 -84.5t139.5 -21.5q94 0 127 22.5t33 71.5q0 35 -32 56.5t-85.5 32.5t-123.5 18t-147 17t-154 25.5t-147 47.5t-123.5 78.5t-85.5 123.5t-32 177q0 90 21.5 159t74.5 127.5t139 96t218.5 58.5t310.5 21q179 0 305 -17.5t210 -51.5 t133 -93t70.5 -132t24.5 -179q0 -41 -41 -41h-508q-38 0 -41 41q-8 65 -40 86t-124 21q-96 0 -127.5 -20.5t-31.5 -71.5q0 -35 31.5 -57t85.5 -33t123.5 -18.5t146.5 -17.5t153.5 -25.5t146 -47.5t123.5 -78.5t85.5 -123.5t31.5 -177z" />
<glyph unicode="&#x15b;" horiz-adv-x="1499" d="M575 1147q-25 0 -32 14.5t8 34.5l184 254q19 25 51 25h406q27 0 33.5 -15t-11.5 -35l-235 -256q-19 -22 -49 -22h-355zM1444 317q0 -128 -61 -199t-209 -104.5t-416 -33.5q-261 0 -406 34t-205.5 104.5t-66.5 196.5q-3 41 39 41h475q35 0 41 -41q6 -38 33 -50.5t94 -12.5 t92 15t25 48q0 25 -27 40t-73 21t-105.5 9.5t-125 9t-131.5 15.5t-125.5 32.5t-105.5 56.5t-73 91t-27 133q0 80 34 138t111.5 100t209 62.5t321.5 20.5q191 0 314 -17t198.5 -57.5t106.5 -100t36 -152.5q3 -41 -39 -41h-471q-35 0 -41 41q-6 37 -31.5 49t-89.5 12 q-61 0 -82.5 -14.5t-21.5 -48.5q0 -33 44.5 -49.5t115 -21.5t156 -9t171.5 -19.5t156.5 -45.5t115 -94.5t44.5 -158.5z" />
<glyph unicode="&#x15c;" horiz-adv-x="1656" d="M412 1516q-25 0 -32.5 13.5t7.5 35.5l219 295q16 24 49 24h357q33 0 49 -24l219 -295q15 -22 7.5 -35.5t-32.5 -13.5h-272q-29 0 -51 22l-98 104l-99 -104q-22 -22 -51 -22h-272zM1599 434q0 -128 -34.5 -213t-121 -145t-233.5 -86.5t-372 -26.5q-151 0 -264.5 11.5 t-198 37t-141 62.5t-92 92.5t-51.5 122t-19 155.5q0 41 41 41h510q38 0 41 -41q8 -63 44.5 -84.5t139.5 -21.5q94 0 127 22.5t33 71.5q0 35 -32 56.5t-85.5 32.5t-123.5 18t-147 17t-154 25.5t-147 47.5t-123.5 78.5t-85.5 123.5t-32 177q0 90 21.5 159t74.5 127.5t139 96 t218.5 58.5t310.5 21q179 0 305 -17.5t210 -51.5t133 -93t70.5 -132t24.5 -179q0 -41 -41 -41h-508q-38 0 -41 41q-8 65 -40 86t-124 21q-96 0 -127.5 -20.5t-31.5 -71.5q0 -35 31.5 -57t85.5 -33t123.5 -18.5t146.5 -17.5t153.5 -25.5t146 -47.5t123.5 -78.5t85.5 -123.5 t31.5 -177z" />
<glyph unicode="&#x15d;" horiz-adv-x="1499" d="M328 1147q-25 0 -32.5 13.5t7.5 35.5l219 295q17 25 49 25h357q32 0 49 -25l219 -295q15 -22 7.5 -35.5t-32.5 -13.5h-272q-29 0 -51 22l-98 105l-99 -105q-22 -22 -51 -22h-272zM1444 317q0 -128 -61 -199t-209 -104.5t-416 -33.5q-261 0 -406 34t-205.5 104.5 t-66.5 196.5q-3 41 39 41h475q35 0 41 -41q6 -38 33 -50.5t94 -12.5t92 15t25 48q0 25 -27 40t-73 21t-105.5 9.5t-125 9t-131.5 15.5t-125.5 32.5t-105.5 56.5t-73 91t-27 133q0 80 34 138t111.5 100t209 62.5t321.5 20.5q191 0 314 -17t198.5 -57.5t106.5 -100t36 -152.5 q3 -41 -39 -41h-471q-35 0 -41 41q-6 37 -31.5 49t-89.5 12q-61 0 -82.5 -14.5t-21.5 -48.5q0 -33 44.5 -49.5t115 -21.5t156 -9t171.5 -19.5t156.5 -45.5t115 -94.5t44.5 -158.5z" />
<glyph unicode="&#x15e;" horiz-adv-x="1656" d="M1599 434q0 -109 -25 -186.5t-85.5 -136.5t-164 -93t-257.5 -47l-133 -272q-16 -31 -47 -31h-416q-25 0 -33 14.5t6 34.5l172 254q-156 12 -259.5 45t-165.5 93t-88.5 139.5t-30.5 195.5q0 41 41 41h510q38 0 41 -41q8 -63 44.5 -84.5t139.5 -21.5q94 0 127 22.5t33 71.5 q0 35 -32 56.5t-85.5 32.5t-123.5 18t-147 17t-154 25.5t-147 47.5t-123.5 78.5t-85.5 123.5t-32 177q0 90 21.5 159t74.5 127.5t139 96t218.5 58.5t310.5 21q179 0 305 -17.5t210 -51.5t133 -93t70.5 -132t24.5 -179q0 -41 -41 -41h-508q-38 0 -41 41q-8 65 -40 86t-124 21 q-96 0 -127.5 -20.5t-31.5 -71.5q0 -35 31.5 -57t85.5 -33t123.5 -18.5t146.5 -17.5t153.5 -25.5t146 -47.5t123.5 -78.5t85.5 -123.5t31.5 -177z" />
<glyph unicode="&#x15f;" horiz-adv-x="1499" d="M1444 317q0 -108 -41 -174t-141 -104.5t-275 -50.5l-141 -289q-16 -31 -47 -31h-416q-25 0 -33 14.5t6 34.5l183 269q-172 13 -271 52.5t-141 105t-47 171.5q-3 41 39 41h475q35 0 41 -41q6 -38 33 -50.5t94 -12.5t92 15t25 48q0 25 -27 40t-73 21t-105.5 9.5t-125 9 t-131.5 15.5t-125.5 32.5t-105.5 56.5t-73 91t-27 133q0 80 34 138t111.5 100t209 62.5t321.5 20.5q191 0 314 -17t198.5 -57.5t106.5 -100t36 -152.5q3 -41 -39 -41h-471q-35 0 -41 41q-6 37 -31.5 49t-89.5 12q-61 0 -82.5 -14.5t-21.5 -48.5q0 -33 44.5 -49.5t115 -21.5 t156 -9t171.5 -19.5t156.5 -45.5t115 -94.5t44.5 -158.5z" />
<glyph unicode="&#x160;" horiz-adv-x="1656" d="M387 1835q-15 22 -7.5 35.5t32.5 13.5h272q29 0 51 -22l99 -105l98 105q22 22 51 22h272q25 0 32.5 -13.5t-7.5 -35.5l-219 -295q-16 -24 -49 -24h-357q-33 0 -49 24zM1599 434q0 -128 -34.5 -213t-121 -145t-233.5 -86.5t-372 -26.5q-151 0 -264.5 11.5t-198 37 t-141 62.5t-92 92.5t-51.5 122t-19 155.5q0 41 41 41h510q38 0 41 -41q8 -63 44.5 -84.5t139.5 -21.5q94 0 127 22.5t33 71.5q0 35 -32 56.5t-85.5 32.5t-123.5 18t-147 17t-154 25.5t-147 47.5t-123.5 78.5t-85.5 123.5t-32 177q0 90 21.5 159t74.5 127.5t139 96 t218.5 58.5t310.5 21q179 0 305 -17.5t210 -51.5t133 -93t70.5 -132t24.5 -179q0 -41 -41 -41h-508q-38 0 -41 41q-8 65 -40 86t-124 21q-96 0 -127.5 -20.5t-31.5 -71.5q0 -35 31.5 -57t85.5 -33t123.5 -18.5t146.5 -17.5t153.5 -25.5t146 -47.5t123.5 -78.5t85.5 -123.5 t31.5 -177z" />
<glyph unicode="&#x161;" horiz-adv-x="1499" d="M303 1466q-15 22 -7.5 36t32.5 14h272q28 0 51 -23l99 -104l98 104q23 23 51 23h272q25 0 32.5 -14t-7.5 -36l-219 -295q-16 -24 -49 -24h-357q-33 0 -49 24zM1444 317q0 -128 -61 -199t-209 -104.5t-416 -33.5q-261 0 -406 34t-205.5 104.5t-66.5 196.5q-3 41 39 41h475 q35 0 41 -41q6 -38 33 -50.5t94 -12.5t92 15t25 48q0 25 -27 40t-73 21t-105.5 9.5t-125 9t-131.5 15.5t-125.5 32.5t-105.5 56.5t-73 91t-27 133q0 80 34 138t111.5 100t209 62.5t321.5 20.5q191 0 314 -17t198.5 -57.5t106.5 -100t36 -152.5q3 -41 -39 -41h-471 q-35 0 -41 41q-6 37 -31.5 49t-89.5 12q-61 0 -82.5 -14.5t-21.5 -48.5q0 -33 44.5 -49.5t115 -21.5t156 -9t171.5 -19.5t156.5 -45.5t115 -94.5t44.5 -158.5z" />
<glyph unicode="&#x162;" horiz-adv-x="1605" d="M1550 1434q41 0 41 -41v-314q0 -41 -41 -41h-426v-997q0 -41 -41 -41h-34l-148 -301q-15 -31 -47 -31h-416q-25 0 -32.5 14.5t6.5 34.5l190 283h-59q-41 0 -41 41v997h-424q-41 0 -41 41v314q0 41 41 41h1472z" />
<glyph unicode="&#x163;" horiz-adv-x="1064" d="M766 672v-166q-2 -37 0 -66.5t4 -52t11 -37.5t21.5 -24t36 -11.5t54.5 -0.5t76 10q22 4 34.5 -5.5t12.5 -29.5v-248q0 -36 -58 -45q-40 -6 -122 -14l-138 -283q-16 -31 -47 -31h-415q-25 0 -33 14.5t6 34.5l199 293q-128 48 -178.5 162.5t-45.5 316.5v183h-108 q-41 0 -41 41v270q0 41 41 41h108v369q0 41 41 41h500q41 0 41 -41v-369h209q41 0 41 -41v-270q0 -41 -41 -41h-209z" />
<glyph unicode="&#x164;" horiz-adv-x="1605" d="M575 1528l-219 295q-15 22 -7.5 35.5t32.5 13.5h272q29 0 52 -23l98 -104l98 104q23 23 51 23h273q25 0 32 -13.5t-8 -35.5l-219 -295q-17 -25 -49 -25h-356q-33 0 -50 25zM1550 1434q41 0 41 -41v-314q0 -41 -41 -41h-426v-997q0 -41 -41 -41h-540q-41 0 -41 41v997 h-424q-41 0 -41 41v314q0 41 41 41h1472z" />
<glyph unicode="&#x165;" horiz-adv-x="1064" d="M301 1516q-33 0 -49 24l-219 295q-15 22 -8 35.5t32 13.5h273q29 0 51 -22l98 -105l99 105q22 22 51 22h272q25 0 32.5 -13.5t-7.5 -35.5l-219 -295q-16 -24 -50 -24h-356zM766 672v-166q-2 -37 0 -66.5t4 -52t11 -37.5t21.5 -24t36 -11.5t54.5 -0.5t76 10 q22 4 34.5 -5.5t12.5 -29.5v-248q0 -36 -58 -45q-158 -21 -275 -23t-205 17.5t-144.5 57t-91 101.5t-47.5 145.5t-11 194.5v183h-108q-41 0 -41 41v270q0 41 41 41h108v369q0 41 41 41h500q41 0 41 -41v-369h209q41 0 41 -41v-270q0 -41 -41 -41h-209z" />
<glyph unicode="&#x166;" horiz-adv-x="1605" d="M1550 1434q41 0 41 -41v-314q0 -41 -41 -41h-426v-196h111q41 0 41 -41v-254q0 -41 -41 -41h-111v-465q0 -41 -41 -41h-540q-41 0 -41 41v465h-90q-41 0 -41 41v254q0 41 41 41h90v196h-424q-41 0 -41 41v314q0 41 41 41h1472z" />
<glyph unicode="&#x167;" horiz-adv-x="1064" d="M975 672h-209v-70h207q41 0 41 -41v-123q0 -41 -41 -41h-203q6 -62 45.5 -77t153.5 4q22 4 34.5 -5.5t12.5 -29.5v-248q0 -36 -58 -45q-147 -19 -258 -22t-197 11.5t-144 45.5t-96 83.5t-56.5 120.5t-22.5 162h-108q-41 0 -41 41v123q0 41 41 41h108v70h-108 q-41 0 -41 41v270q0 41 41 41h108v369q0 41 41 41h500q41 0 41 -41v-369h209q41 0 41 -41v-270q0 -41 -41 -41z" />
<glyph unicode="&#x168;" horiz-adv-x="1796" d="M1268 1786q47 29 47 -21v-166q0 -31 -21 -49q-67 -61 -170 -61q-72 0 -149.5 26t-154 52t-146.5 26q-90 0 -150 -43q-20 -15 -32.5 -9.5t-12.5 30.5v164q0 29 19 51q61 61 168 61q73 0 150.5 -26t153.5 -52t146 -26q90 0 152 43zM1085 680v713q0 41 41 41h533 q41 0 41 -41v-713q0 -194 -39.5 -326t-132.5 -222t-245.5 -130.5t-379.5 -40.5t-379.5 40.5t-245.5 130.5t-132.5 222t-39.5 326v713q0 41 41 41h533q41 0 41 -41v-713q0 -121 18 -182t54.5 -82t109.5 -21t109.5 21t54.5 82t18 182z" />
<glyph unicode="&#x169;" horiz-adv-x="1558" d="M408 1194q-20 -15 -33 -10t-13 30v164q0 30 19 52q61 61 168 61q58 0 120 -16.5t107 -36t106 -36t117 -16.5q88 0 152 44q47 29 47 -21v-166q0 -31 -20 -49q-67 -61 -170 -61q-72 0 -149.5 26t-154.5 52t-147 26q-89 0 -149 -43zM1407 1024q41 0 41 -41v-942 q0 -41 -41 -41h-502q-41 0 -41 41v135q-50 -87 -147.5 -141.5t-237.5 -54.5q-73 0 -129 9.5t-97 25.5t-69.5 44.5t-46 60.5t-27 79t-13 94.5t-3.5 112.5v577q0 41 41 41h502q41 0 41 -41v-522q0 -64 11.5 -90.5t37.5 -26.5q62 0 99.5 86t37.5 246v307q0 41 41 41h502z" />
<glyph unicode="&#x16a;" horiz-adv-x="1796" d="M1274 1790q41 0 41 -41v-205q0 -41 -41 -41h-754q-41 0 -41 41v205q0 41 41 41h754zM1085 680v713q0 41 41 41h533q41 0 41 -41v-713q0 -194 -39.5 -326t-132.5 -222t-245.5 -130.5t-379.5 -40.5t-379.5 40.5t-245.5 130.5t-132.5 222t-39.5 326v713q0 41 41 41h533 q41 0 41 -41v-713q0 -121 18 -182t54.5 -82t109.5 -21t109.5 21t54.5 82t18 182z" />
<glyph unicode="&#x16b;" horiz-adv-x="1558" d="M403 1147q-41 0 -41 41v205q0 41 41 41h754q41 0 41 -41v-205q0 -41 -41 -41h-754zM1407 1024q41 0 41 -41v-942q0 -41 -41 -41h-502q-41 0 -41 41v135q-50 -87 -147.5 -141.5t-237.5 -54.5q-73 0 -129 9.5t-97 25.5t-69.5 44.5t-46 60.5t-27 79t-13 94.5t-3.5 112.5v577 q0 41 41 41h502q41 0 41 -41v-522q0 -64 11.5 -90.5t37.5 -26.5q62 0 99.5 86t37.5 246v307q0 41 41 41h502z" />
<glyph unicode="&#x16c;" horiz-adv-x="1796" d="M739 1790q11 0 19.5 -5t12 -9t13.5 -17q37 -43 115 -43q79 0 113 43q1 1 4 5t4 5t3.5 4.5t3.5 4.5t4 3.5t4.5 3t4 2t5 2t6 1t6.5 0.5h213q44 0 41 -43q-17 -131 -127.5 -197.5t-284.5 -66.5t-285.5 66.5t-128.5 197.5q-3 43 41 43h213zM1085 680v713q0 41 41 41h533 q41 0 41 -41v-713q0 -194 -39.5 -326t-132.5 -222t-245.5 -130.5t-379.5 -40.5t-379.5 40.5t-245.5 130.5t-132.5 222t-39.5 326v713q0 41 41 41h533q41 0 41 -41v-713q0 -121 18 -182t54.5 -82t109.5 -21t109.5 21t54.5 82t18 182z" />
<glyph unicode="&#x16d;" horiz-adv-x="1558" d="M780 1126q-174 0 -285 67t-128 198q-3 43 41 43h213q11 0 19.5 -5t12 -9t13.5 -17q37 -43 114 -43q79 0 113 43q1 1 4 5t4 5t3.5 4.5t3.5 4.5t4 3.5t4.5 3t4 2t5 2t6 1t6.5 0.5h213q44 0 41 -43q-17 -131 -127.5 -198t-284.5 -67zM1407 1024q41 0 41 -41v-942 q0 -41 -41 -41h-502q-41 0 -41 41v135q-50 -87 -147.5 -141.5t-237.5 -54.5q-73 0 -129 9.5t-97 25.5t-69.5 44.5t-46 60.5t-27 79t-13 94.5t-3.5 112.5v577q0 41 41 41h502q41 0 41 -41v-522q0 -64 11.5 -90.5t37.5 -26.5q62 0 99.5 86t37.5 246v307q0 41 41 41h502z" />
<glyph unicode="&#x16e;" horiz-adv-x="1796" d="M895 1409q-120 0 -205.5 85.5t-85.5 205.5t85.5 205.5t205.5 85.5q121 0 207 -85.5t86 -205.5t-86 -205.5t-207 -85.5zM895 1620q32 0 56 24t24 56t-24 55t-56 23t-55 -23t-23 -55t23 -56t55 -24zM1085 680v713q0 41 41 41h533q41 0 41 -41v-713q0 -194 -39.5 -326 t-132.5 -222t-245.5 -130.5t-379.5 -40.5t-379.5 40.5t-245.5 130.5t-132.5 222t-39.5 326v713q0 41 41 41h533q41 0 41 -41v-713q0 -121 18 -182t54.5 -82t109.5 -21t109.5 21t54.5 82t18 182z" />
<glyph unicode="&#x16f;" horiz-adv-x="1558" d="M776 1053q-120 0 -205.5 85t-85.5 205t85.5 205.5t205.5 85.5q121 0 207 -85.5t86 -205.5t-86 -205t-207 -85zM776 1421q-32 0 -55 -23t-23 -55t23 -55.5t55 -23.5t56 23.5t24 55.5t-24 55t-56 23zM1407 1024q41 0 41 -41v-942q0 -41 -41 -41h-502q-41 0 -41 41v135 q-50 -87 -147.5 -141.5t-237.5 -54.5q-73 0 -129 9.5t-97 25.5t-69.5 44.5t-46 60.5t-27 79t-13 94.5t-3.5 112.5v577q0 41 41 41h502q41 0 41 -41v-522q0 -64 11.5 -90.5t37.5 -26.5q62 0 99.5 86t37.5 246v307q0 41 41 41h502z" />
<glyph unicode="&#x170;" horiz-adv-x="1796" d="M467 1503q-24 0 -32 14.5t5 34.5l162 252q18 27 49 27h383q25 0 32.5 -14.5t-9.5 -34.5l-209 -256q-20 -23 -51 -23h-330zM1008 1503q-26 0 -33 14.5t8 34.5l211 256q17 23 49 23h375q28 0 34.5 -15.5t-12.5 -35.5l-258 -256q-24 -21 -51 -21h-323zM1085 680v713 q0 41 41 41h533q41 0 41 -41v-713q0 -194 -39.5 -326t-132.5 -222t-245.5 -130.5t-379.5 -40.5t-379.5 40.5t-245.5 130.5t-132.5 222t-39.5 326v713q0 41 41 41h533q41 0 41 -41v-713q0 -121 18 -182t54.5 -82t109.5 -21t109.5 21t54.5 82t18 182z" />
<glyph unicode="&#x171;" horiz-adv-x="1558" d="M348 1147q-23 0 -31 14.5t5 34.5l161 252q18 27 49 27h383q25 0 32.5 -15t-9.5 -35l-209 -256q-19 -22 -51 -22h-330zM1499 1475q28 0 35 -16t-12 -36l-258 -256q-23 -20 -52 -20h-323q-26 0 -33 14.5t8 34.5l211 256q17 23 49 23h375zM1407 1024q41 0 41 -41v-942 q0 -41 -41 -41h-502q-41 0 -41 41v135q-50 -87 -147.5 -141.5t-237.5 -54.5q-73 0 -129 9.5t-97 25.5t-69.5 44.5t-46 60.5t-27 79t-13 94.5t-3.5 112.5v577q0 41 41 41h502q41 0 41 -41v-522q0 -64 11.5 -90.5t37.5 -26.5q62 0 99.5 86t37.5 246v307q0 41 41 41h502z" />
<glyph unicode="&#x172;" horiz-adv-x="1796" d="M1659 1434q41 0 41 -41v-713q0 -315 -114 -480.5t-388 -215.5q-116 -40 -159.5 -65t-34.5 -46q13 -28 135 18q39 16 53 -18l74 -152q19 -39 -21 -55q-100 -42 -205 -51t-187 13t-134.5 76.5t-52.5 131.5q0 83 61 131q-174 15 -293 64.5t-192 139t-104.5 213t-31.5 296.5 v713q0 41 41 41h533q41 0 41 -41v-713q0 -121 18 -182t54.5 -82t109.5 -21t109.5 21t54.5 82t18 182v713q0 41 41 41h533z" />
<glyph unicode="&#x173;" horiz-adv-x="1558" d="M1407 1024q41 0 41 -41v-942q0 -41 -41 -41h-51q-172 -58 -233.5 -87.5t-51.5 -53.5q13 -28 135 18q40 16 54 -18l73 -152q19 -39 -20 -55q-100 -42 -205 -51t-187.5 13t-135 76.5t-52.5 131.5q0 139 164 178q-33 7 -33 41v135q-50 -87 -147.5 -141.5t-237.5 -54.5 q-73 0 -129 9.5t-97 25.5t-69.5 44.5t-46 60.5t-27 79t-13 94.5t-3.5 112.5v577q0 41 41 41h502q41 0 41 -41v-522q0 -64 11.5 -90.5t37.5 -26.5q62 0 99.5 86t37.5 246v307q0 41 41 41h502z" />
<glyph unicode="&#x174;" horiz-adv-x="2209" d="M702 1503q-25 0 -32 13.5t8 35.5l219 295q17 25 49 25h357q32 0 49 -25l219 -295q15 -22 7.5 -35.5t-32.5 -13.5h-272q-28 0 -51 23l-99 104l-98 -104q-23 -23 -51 -23h-273zM2150 1434q21 0 31.5 -11.5t7.5 -31.5l-204 -1354q-5 -37 -46 -37h-663q-40 0 -45 37l-45 291 l-62 534l-63 -534l-45 -291q-5 -37 -45 -37h-664q-40 0 -45 37l-205 1354q-3 20 7.5 31.5t31.5 11.5h494q40 0 43 -39l76 -908l30 242l123 668q6 37 43 37h436q37 0 43 -37l123 -668l31 -242l78 908q3 39 41 39h493z" />
<glyph unicode="&#x175;" horiz-adv-x="2015" d="M586 1147q-25 0 -32.5 13.5t7.5 35.5l219 295q17 25 49 25h357q32 0 49 -25l219 -295q15 -22 8 -35.5t-32 -13.5h-273q-29 0 -51 22l-98 105l-99 -105q-22 -22 -51 -22h-272zM1968 1024q22 0 32 -12.5t5 -32.5l-188 -942q-9 -37 -45 -37h-621q-37 0 -43 37l-41 203 l-51 360l-53 -360l-41 -203q-6 -37 -43 -37h-619q-36 0 -45 37l-205 942q-4 20 5.5 32.5t29.5 12.5h461q40 0 43 -39l78 -627l30 193l103 438q9 35 45 35h424q39 0 45 -37l98 -436l31 -193l78 627q3 39 43 39h444z" />
<glyph unicode="&#x176;" horiz-adv-x="1667" d="M412 1503q-25 0 -32.5 13.5t7.5 35.5l219 295q17 25 49 25h357q32 0 49 -25l219 -295q15 -22 7.5 -35.5t-32.5 -13.5h-272q-28 0 -51 23l-98 104l-99 -104q-23 -23 -51 -23h-272zM1649 1434q24 0 32.5 -14t-2.5 -36l-526 -935v-408q0 -41 -41 -41h-561q-41 0 -41 41v418 l-526 925q-12 22 -3.5 36t31.5 14h566q36 0 47 -31l145 -352l61 -203l60 203l145 352q11 31 47 31h566z" />
<glyph unicode="&#x177;" horiz-adv-x="1609" d="M383 1147q-25 0 -32.5 13.5t7.5 35.5l220 295q17 25 49 25h356q32 0 49 -25l219 -295q15 -22 8 -35.5t-32 -13.5h-273q-29 0 -51 22l-98 105l-98 -105q-22 -22 -52 -22h-272zM1556 1024q23 0 32 -13t1 -34l-598 -1356q-15 -31 -49 -31h-496q-23 0 -31 13t1 35l143 327 l-530 1012q-11 22 -3.5 34.5t31.5 12.5h535q36 0 45 -33l151 -452l29 -154l27 154l143 450q11 35 47 35h522z" />
<glyph unicode="&#x178;" horiz-adv-x="1667" d="M406 1503q-41 0 -41 41v205q0 41 41 41h335q41 0 41 -41v-205q0 -41 -41 -41h-335zM926 1503q-41 0 -41 41v205q0 41 41 41h336q41 0 41 -41v-205q0 -41 -41 -41h-336zM1649 1434q24 0 32.5 -14t-2.5 -36l-526 -935v-408q0 -41 -41 -41h-561q-41 0 -41 41v418l-526 925 q-12 22 -3.5 36t31.5 14h566q36 0 47 -31l145 -352l61 -203l60 203l145 352q11 31 47 31h566z" />
<glyph unicode="&#x179;" horiz-adv-x="1507" d="M578 1540q-25 0 -32.5 14.5t7.5 34.5l184 254q19 25 51 25h406q27 0 34 -14.5t-11 -34.5l-236 -256q-20 -23 -49 -23h-354zM1442 1102l-490 -604l-112 -103h579q41 0 41 -41v-313q0 -41 -41 -41h-1313q-40 0 -40 41v240q0 30 18 51l477 590l127 116h-565q-41 0 -41 41 v314q0 41 41 41h1296q41 0 41 -41v-240q0 -27 -18 -51z" />
<glyph unicode="&#x17a;" horiz-adv-x="1351" d="M500 1147q-25 0 -32.5 14.5t7.5 34.5l184 254q19 25 52 25h405q27 0 34 -15t-11 -35l-236 -256q-19 -22 -49 -22h-354zM1268 774l-346 -362l-109 -78h434q41 0 41 -41v-252q0 -41 -41 -41h-1104q-41 0 -41 41v158q0 30 21 51l346 364l104 76h-415q-41 0 -41 41v252 q0 41 41 41h1089q41 0 41 -41v-158q0 -28 -20 -51z" />
<glyph unicode="&#x17b;" horiz-adv-x="1507" d="M573 1540q-41 0 -41 41v205q0 41 41 41h359q41 0 41 -41v-205q0 -41 -41 -41h-359zM1442 1102l-490 -604l-112 -103h579q41 0 41 -41v-313q0 -41 -41 -41h-1313q-40 0 -40 41v240q0 30 18 51l477 590l127 116h-565q-41 0 -41 41v314q0 41 41 41h1296q41 0 41 -41v-240 q0 -27 -18 -51z" />
<glyph unicode="&#x17c;" horiz-adv-x="1351" d="M496 1147q-41 0 -41 41v205q0 41 41 41h358q41 0 41 -41v-205q0 -41 -41 -41h-358zM1268 774l-346 -362l-109 -78h434q41 0 41 -41v-252q0 -41 -41 -41h-1104q-41 0 -41 41v158q0 30 21 51l346 364l104 76h-415q-41 0 -41 41v252q0 41 41 41h1089q41 0 41 -41v-158 q0 -28 -20 -51z" />
<glyph unicode="&#x17d;" horiz-adv-x="1507" d="M526 1565l-219 295q-15 22 -7.5 35.5t32.5 13.5h272q28 0 51 -23l99 -104l98 104q23 23 51 23h273q25 0 32 -13.5t-8 -35.5l-219 -295q-17 -25 -49 -25h-357q-32 0 -49 25zM1442 1102l-490 -604l-112 -103h579q41 0 41 -41v-313q0 -41 -41 -41h-1313q-40 0 -40 41v240 q0 30 18 51l477 590l127 116h-565q-41 0 -41 41v314q0 41 41 41h1296q41 0 41 -41v-240q0 -27 -18 -51z" />
<glyph unicode="&#x17e;" horiz-adv-x="1351" d="M449 1171l-220 295q-15 22 -7.5 36t32.5 14h272q29 0 52 -23l98 -104l98 104q23 23 51 23h273q25 0 32 -14t-8 -36l-219 -295q-16 -24 -49 -24h-356q-33 0 -49 24zM1268 774l-346 -362l-109 -78h434q41 0 41 -41v-252q0 -41 -41 -41h-1104q-41 0 -41 41v158q0 30 21 51 l346 364l104 76h-415q-41 0 -41 41v252q0 41 41 41h1089q41 0 41 -41v-158q0 -28 -20 -51z" />
<glyph unicode="&#x1fa;" horiz-adv-x="1748" d="M731 1749q-26 0 -32.5 15.5t10.5 35.5l147 164q20 23 51 23h389q29 0 34.5 -17.5t-19.5 -34.5l-248 -170q-21 -16 -51 -16h-281zM1733 45q6 -20 -3.5 -32.5t-31.5 -12.5h-549q-35 0 -45 37l-45 196h-373l-45 -198q-10 -37 -45 -37l-551 2q-22 0 -31 12.5t-2 32.5 l385 1239q8 35 47 35h160q-22 55 -22 113q0 120 85 205t205 85t205.5 -85t85.5 -205q0 -58 -22 -113h157q40 0 48 -35zM872 1509q-32 0 -54.5 -22.5t-22.5 -54.5q0 -33 22.5 -56.5t54.5 -23.5t56 24t24 56t-23.5 54.5t-56.5 22.5zM760 567h223l-96 424l-15 117l-16 -117z " />
<glyph unicode="&#x1fb;" horiz-adv-x="1533" d="M592 1614q-25 0 -32.5 14.5t7.5 34.5l185 252q19 27 51 27h405q28 0 35.5 -15t-12.5 -37l-236 -254q-17 -22 -49 -22h-354zM1413 1024q41 0 41 -41v-942q0 -41 -41 -41h-500q-41 0 -41 41v94q-136 -155 -383 -155q-92 0 -159 14t-121.5 49.5t-87.5 95.5t-50.5 151 t-17.5 218q0 159 25 263.5t81 164.5t134 84t196 24q75 0 134 -12q-67 37 -107.5 104.5t-40.5 147.5q0 120 85.5 205.5t205.5 85.5t205.5 -85.5t85.5 -205.5t-85.5 -205.5t-205.5 -85.5q-23 0 -35 2q83 -40 141 -104v92q0 41 41 41h500zM766 1362q-32 0 -55 -23t-23 -55 t23 -56t55 -24t56 24t24 56t-24 55t-56 23zM735 315q58 0 108 57t50 146q0 79 -51 135t-107 56q-108 0 -108 -201q0 -193 108 -193z" />
<glyph unicode="&#x1fc;" horiz-adv-x="2299" d="M975 1495q-25 0 -32.5 14.5t7.5 34.5l185 254q19 25 51 25h405q27 0 34 -14.5t-11 -34.5l-236 -256q-20 -23 -49 -23h-354zM639 35q-10 -37 -45 -37l-549 2q-22 0 -31 12.5t-2 32.5l424 1354q8 35 47 35h1674q41 0 41 -41v-295q0 -41 -41 -41h-734l37 -166h697 q41 0 41 -41v-266q0 -41 -41 -41h-617l39 -166h578q41 0 41 -41v-295q0 -41 -41 -41h-1008q-41 0 -41 6v4l-49 223h-373zM760 567h223l-96 424l-15 117l-16 -117z" />
<glyph unicode="&#x1fd;" horiz-adv-x="2344" d="M989 1147q-25 0 -32 14.5t8 34.5l184 254q19 25 51 25h406q27 0 33.5 -15t-11.5 -35l-235 -256q-19 -22 -50 -22h-354zM2294 471q0 -41 -41 -41h-780q2 -92 29 -128t104 -36q54 0 74 12t32 50q11 34 45 34h484q45 0 36 -45q-27 -119 -98.5 -191t-215.5 -109t-376 -37 q-361 0 -524 122q-60 -62 -195.5 -97.5t-330.5 -35.5q-262 0 -373 80.5t-111 267.5q0 79 36.5 136t96.5 86.5t136 48t156 23t156 9.5t136 9t96.5 20t36.5 45q0 34 -22.5 49t-85.5 15q-65 0 -92 -12.5t-33 -49.5q-6 -41 -41 -41h-490q-41 0 -41 25q3 99 33.5 164t106 112 t206 67.5t330.5 20.5q263 0 381 -79q158 79 432 79q149 0 254.5 -11t185 -40t128 -69.5t79.5 -108.5t43.5 -147.5t16.5 -196.5zM1593 758q-58 0 -94 -41.5t-41 -104.5h271q-3 83 -39 114.5t-97 31.5zM750 272q87 0 120 20t33 85v43q-176 -19 -223 -35q-50 -19 -51 -49 q0 -33 25.5 -48.5t95.5 -15.5z" />
<glyph unicode="&#x1fe;" horiz-adv-x="1738" d="M694 1516q-25 0 -32 14.5t8 34.5l184 254q19 24 51 24h406q27 0 33.5 -14.5t-11.5 -34.5l-235 -256q-19 -22 -49 -22h-355zM1765 1409q20 12 33.5 4t13.5 -31v-325q0 -33 -26 -49l-105 -58q23 -104 23 -229q0 -135 -25 -244.5t-84.5 -205.5t-153 -161t-238 -102 t-331.5 -37q-440 0 -645 199l-252 -143q-22 -12 -35.5 -4.5t-13.5 30.5v326q0 33 27 49l106 59q-22 102 -22 234q0 131 24.5 238.5t84.5 202.5t154 159.5t239 101.5t333 37q432 0 639 -194zM872 397q121 0 171.5 70.5t50.5 253.5q0 176 -51 248.5t-171 72.5q-121 0 -173 -73 t-52 -248q0 -183 51.5 -253.5t173.5 -70.5z" />
<glyph unicode="&#x1ff;" horiz-adv-x="1554" d="M602 1147q-25 0 -32 14.5t8 34.5l184 254q19 25 51 25h406q27 0 33.5 -15t-11.5 -35l-235 -256q-19 -22 -50 -22h-354zM1485 1196q22 15 36.5 7.5t14.5 -32.5v-321q0 -32 -25 -49l-63 -43q39 -101 39 -252q0 -141 -34.5 -237t-116 -162.5t-217.5 -96.5t-339 -30 q-266 0 -424 55l-288 -207q-20 -15 -36 -7t-16 34v319q0 30 25 49l65 45q-34 90 -34 238q0 142 35.5 240.5t118 166.5t218.5 99.5t336 31.5q259 0 414 -55zM780 303q72 0 95.5 44.5t23.5 158.5q0 109 -24.5 162t-94.5 53q-71 0 -96 -53t-25 -162q0 -114 24 -158.5t97 -44.5z " />
<glyph unicode="&#x218;" horiz-adv-x="1656" d="M1599 434q0 -128 -34.5 -213t-121 -145t-233.5 -86.5t-372 -26.5q-151 0 -264.5 11.5t-198 37t-141 62.5t-92 92.5t-51.5 122t-19 155.5q0 41 41 41h510q38 0 41 -41q8 -63 44.5 -84.5t139.5 -21.5q94 0 127 22.5t33 71.5q0 35 -32 56.5t-85.5 32.5t-123.5 18t-147 17 t-154 25.5t-147 47.5t-123.5 78.5t-85.5 123.5t-32 177q0 90 21.5 159t74.5 127.5t139 96t218.5 58.5t310.5 21q179 0 305 -17.5t210 -51.5t133 -93t70.5 -132t24.5 -179q0 -41 -41 -41h-508q-38 0 -41 41q-8 65 -40 86t-124 21q-96 0 -127.5 -20.5t-31.5 -71.5 q0 -35 31.5 -57t85.5 -33t123.5 -18.5t146.5 -17.5t153.5 -25.5t146 -47.5t123.5 -78.5t85.5 -123.5t31.5 -177zM829 -588q-14 -28 -47 -28h-276q-22 0 -32 12.5t-5 32.5l98 432q8 35 45 35h447q23 0 31.5 -14t-3.5 -36z" />
<glyph unicode="&#x219;" horiz-adv-x="1499" d="M1444 317q0 -128 -61 -199t-209 -104.5t-416 -33.5q-261 0 -406 34t-205.5 104.5t-66.5 196.5q-3 41 39 41h475q35 0 41 -41q6 -38 33 -50.5t94 -12.5t92 15t25 48q0 25 -27 40t-73 21t-105.5 9.5t-125 9t-131.5 15.5t-125.5 32.5t-105.5 56.5t-73 91t-27 133 q0 80 34 138t111.5 100t209 62.5t321.5 20.5q191 0 314 -17t198.5 -57.5t106.5 -100t36 -152.5q3 -41 -39 -41h-471q-35 0 -41 41q-6 37 -31.5 49t-89.5 12q-61 0 -82.5 -14.5t-21.5 -48.5q0 -33 44.5 -49.5t115 -21.5t156 -9t171.5 -19.5t156.5 -45.5t115 -94.5 t44.5 -158.5zM743 -588q-14 -28 -47 -28h-276q-22 0 -32 12.5t-5 32.5l98 432q8 35 45 35h447q23 0 31.5 -14t-3.5 -36z" />
<glyph unicode="&#x21a;" horiz-adv-x="1605" d="M1550 1434q41 0 41 -41v-314q0 -41 -41 -41h-426v-997q0 -41 -41 -41h-540q-41 0 -41 41v997h-424q-41 0 -41 41v314q0 41 41 41h1472zM1028 -104q24 0 32.5 -14t-3.5 -36l-258 -434q-14 -28 -47 -28h-277q-22 0 -32 12.5t-5 32.5l99 432q8 35 45 35h446z" />
<glyph unicode="&#x21b;" horiz-adv-x="1064" d="M766 672v-166q-2 -37 0 -66.5t4 -52t11 -37.5t21.5 -24t36 -11.5t54.5 -0.5t76 10q22 4 34.5 -5.5t12.5 -29.5v-248q0 -36 -58 -45q-158 -21 -275 -23t-205 17.5t-144.5 57t-91 101.5t-47.5 145.5t-11 194.5v183h-108q-41 0 -41 41v270q0 41 41 41h108v369q0 41 41 41 h500q41 0 41 -41v-369h209q41 0 41 -41v-270q0 -41 -41 -41h-209zM823 -104q24 0 32.5 -14t-3.5 -36l-258 -434q-14 -28 -47 -28h-277q-22 0 -32 12.5t-5 32.5l99 432q8 35 45 35h446z" />
<glyph unicode="&#x237;" horiz-adv-x="776" d="M686 -369q0 -41 -41 -41h-510q-41 0 -41 41v1352q0 41 41 41h510q41 0 41 -41v-1352z" />
<glyph unicode="&#x300;" horiz-adv-x="0" d="M-37 1196q14 -20 7 -34.5t-31 -14.5h-355q-30 0 -49 22l-235 256q-20 20 -13 35t35 15h406q32 0 51 -25z" />
<glyph unicode="&#x301;" horiz-adv-x="0" d="M-686 1147q-25 0 -32.5 14.5t7.5 34.5l185 254q19 25 51 25h405q27 0 34 -15t-11 -35l-236 -256q-19 -22 -49 -22h-354z" />
<glyph unicode="&#x302;" horiz-adv-x="0" d="M-1034 1147q-25 0 -32.5 13.5t7.5 35.5l219 295q17 25 49 25h357q32 0 49 -25l219 -295q15 -22 8 -35.5t-32 -13.5h-273q-29 0 -51 22l-98 105l-99 -105q-22 -22 -51 -22h-272z" />
<glyph unicode="&#x303;" horiz-adv-x="0" d="M-47 1430q47 29 47 -21v-166q0 -31 -20 -49q-67 -61 -170 -61q-72 0 -149.5 26t-154.5 52t-147 26q-90 0 -150 -43q-20 -15 -32.5 -10t-12.5 30v164q0 30 19 52q61 61 168 61q58 0 120 -16.5t107 -36t106 -36t117 -16.5q88 0 152 44z" />
<glyph unicode="&#x304;" horiz-adv-x="0" d="M-41 1434q41 0 41 -41v-205q0 -41 -41 -41h-754q-41 0 -41 41v205q0 41 41 41h754z" />
<glyph unicode="&#x306;" horiz-adv-x="0" d="M-573 1434q11 0 19.5 -5t12 -9t13.5 -17q37 -43 114 -43q79 0 113 43q1 1 4 5t4 5t3.5 4.5t3.5 4.5t4 3.5t4.5 3t4 2t5 2t6 1t6.5 0.5h213q44 0 41 -43q-17 -131 -127.5 -198t-284.5 -67t-285 67t-128 198q-3 43 41 43h213z" />
<glyph unicode="&#x307;" horiz-adv-x="0" d="M0 1188q0 -41 -41 -41h-358q-41 0 -41 41v205q0 41 41 41h358q41 0 41 -41v-205z" />
<glyph unicode="&#x308;" horiz-adv-x="0" d="M-555 1188q0 -41 -41 -41h-336q-41 0 -41 41v205q0 41 41 41h336q41 0 41 -41v-205zM-35 1188q0 -41 -41 -41h-336q-41 0 -41 41v205q0 41 41 41h336q41 0 41 -41v-205z" />
<glyph unicode="&#x30a;" horiz-adv-x="0" d="M-244 1053q-120 0 -205.5 85t-85.5 205t85.5 205.5t205.5 85.5q121 0 207 -85.5t86 -205.5t-86 -205t-207 -85zM-244 1264q32 0 56 23.5t24 55.5t-24 55t-56 23t-55 -23t-23 -55t23 -55.5t55 -23.5z" />
<glyph unicode="&#x30b;" horiz-adv-x="0" d="M-1225 1147q-23 0 -31 14.5t5 34.5l161 252q18 27 50 27h383q25 0 32 -15t-10 -35l-209 -256q-19 -22 -51 -22h-330zM-684 1147q-26 0 -33 14.5t8 34.5l211 256q17 23 49 23h375q28 0 35 -16t-12 -36l-258 -256q-23 -20 -51 -20h-324z" />
<glyph unicode="&#x30c;" horiz-adv-x="0" d="M-944 1466q-15 22 -8 36t32 14h273q28 0 51 -23l98 -104l99 104q23 23 51 23h272q25 0 32.5 -14t-7.5 -36l-219 -295q-16 -24 -49 -24h-357q-33 0 -49 24z" />
<glyph unicode="&#x326;" horiz-adv-x="0" d="M-285 -588q-14 -28 -47 -28h-276q-22 0 -32 12.5t-5 32.5l98 432q8 35 45 35h447q23 0 31.5 -14t-3.5 -36z" />
<glyph unicode="&#x327;" horiz-adv-x="0" d="M-35 88q23 0 31 -13.5t-2 -35.5l-166 -340q-16 -31 -47 -31h-416q-25 0 -33 14.5t6 34.5l232 342q16 29 49 29h346z" />
<glyph unicode="&#x328;" horiz-adv-x="0" d="M-47 -301q19 -39 -21 -55q-100 -42 -205 -51t-187 13t-134.5 76.5t-52.5 131.5q0 81 54.5 126.5t148.5 59.5h444q-96 -32 -152 -52.5t-96 -39t-53 -32t-8 -26.5q13 -27 135 19q39 16 53 -19z" />
<glyph unicode="&#x335;" horiz-adv-x="0" d="M-1016 1376q0 41 41 41h823q41 0 41 -41v-254q0 -41 -41 -41h-823q-41 0 -41 41v254z" />
<glyph unicode="&#x336;" horiz-adv-x="0" d="M-1812 1350q0 41 40 41h1731q41 0 41 -41v-201q0 -41 -41 -41h-1731q-40 0 -40 41v201z" />
<glyph unicode="&#x401;" horiz-adv-x="1525" d="M334 1556q-41 0 -41 41v205q0 41 41 41h336q41 0 41 -41v-205q0 -41 -41 -41h-336zM854 1556q-41 0 -41 41v205q0 41 41 41h336q41 0 41 -41v-205q0 -41 -41 -41h-336zM1382 1057h-704v-166h704q41 0 41 -41v-266q0 -41 -41 -41h-704v-166h704q41 0 41 -41v-295 q0 -41 -41 -41h-1226q-41 0 -41 41v1352q0 41 41 41h1226q41 0 41 -41v-295q0 -41 -41 -41z" />
<glyph unicode="&#x404;" horiz-adv-x="1644" d="M1563 489q44 0 41 -40q-8 -95 -37.5 -168t-88 -132.5t-148 -98t-219 -59t-300.5 -20.5q-177 0 -312 37t-222.5 102t-142 161t-77 205.5t-22.5 244.5q0 132 22.5 239t77.5 202t141.5 159.5t222 101.5t312.5 37q178 0 310.5 -19.5t221 -55.5t144.5 -93t82.5 -125t34.5 -159 q3 -41 -41 -41h-508q-34 0 -43 39q-9 44 -52 65t-129 21q-98 0 -142.5 -55t-55.5 -187h440q41 0 41 -41v-184q0 -41 -41 -41h-440q10 -144 53 -196t145 -52q99 0 138 26t47 89q6 38 41 38h506z" />
<glyph unicode="&#x406;" horiz-adv-x="888" d="M766 41q0 -41 -41 -41h-549q-41 0 -41 41v1352q0 41 41 41h549q41 0 41 -41v-1352z" />
<glyph unicode="&#x407;" horiz-adv-x="888" d="M393 1544q0 -41 -41 -41h-336q-41 0 -41 41v205q0 41 41 41h336q41 0 41 -41v-205zM913 1544q0 -41 -41 -41h-335q-41 0 -41 41v205q0 41 41 41h335q41 0 41 -41v-205zM766 41q0 -41 -41 -41h-549q-41 0 -41 41v1352q0 41 41 41h549q41 0 41 -41v-1352z" />
<glyph unicode="&#x410;" horiz-adv-x="1748" d="M1733 45q6 -20 -3.5 -32.5t-31.5 -12.5h-549q-35 0 -45 37l-45 196h-373l-45 -198q-10 -37 -45 -37l-551 2q-22 0 -31 12.5t-2 32.5l424 1354q8 35 47 35h777q39 0 47 -35zM760 567h223l-96 424l-15 117l-16 -117z" />
<glyph unicode="&#x411;" horiz-adv-x="1636" d="M852 877q270 0 429 -43.5t231.5 -138.5t72.5 -255q0 -104 -25.5 -178t-77.5 -125.5t-141.5 -81t-206.5 -42.5t-282 -13h-707q-41 0 -41 41v1352q0 41 41 41h1227q41 0 41 -41v-324q0 -41 -41 -41h-674v-151h154zM842 369q90 0 123.5 22.5t33.5 65.5q0 48 -32.5 70 t-124.5 22h-144v-180h144z" />
<glyph unicode="&#x412;" horiz-adv-x="1677" d="M1368 737q133 -21 195.5 -109.5t62.5 -215.5q0 -223 -153 -317.5t-494 -94.5h-834q-41 0 -41 41v1352q0 41 41 41h793q141 0 240.5 -10t180.5 -34.5t128.5 -67t72.5 -107.5t25 -156q0 -61 -9.5 -110t-32.5 -94t-67 -75.5t-108 -42.5zM1038 971q0 46 -25.5 69t-86.5 23 h-258v-186h258q112 0 112 94zM946 379q113 0 113 96q0 53 -26 78t-87 25h-278v-199h278z" />
<glyph unicode="&#x413;" horiz-adv-x="1474" d="M1382 1434q41 0 41 -41v-324q0 -41 -41 -41h-673v-987q0 -41 -41 -41h-512q-41 0 -41 41v1352q0 41 41 41h1226z" />
<glyph unicode="&#x414;" horiz-adv-x="1753" d="M1710 369q41 0 41 -41v-533q0 -41 -41 -41h-455q-41 0 -41 41v205h-679v-205q0 -41 -41 -41h-455q-41 0 -41 41v533q0 41 41 41h108q122 83 164 333l127 695q6 37 45 37h1090q41 0 41 -41v-1024h96zM819 674q-21 -129 -49 -199.5t-74 -105.5h381v661h-207z" />
<glyph unicode="&#x415;" horiz-adv-x="1525" d="M1382 1057h-704v-166h704q41 0 41 -41v-266q0 -41 -41 -41h-704v-166h704q41 0 41 -41v-295q0 -41 -41 -41h-1226q-41 0 -41 41v1352q0 41 41 41h1226q41 0 41 -41v-295q0 -41 -41 -41z" />
<glyph unicode="&#x416;" horiz-adv-x="2281" d="M1823 717l426 -668q12 -20 4 -34.5t-31 -14.5h-551q-33 0 -47 29l-168 323l-55 187v-498q0 -41 -41 -41h-463q-41 0 -41 41v500l-53 -189l-168 -323q-15 -29 -47 -29h-555q-24 0 -32 14.5t5 34.5l432 668l-430 667q-13 20 -5 35t32 15h555q32 0 47 -29l166 -324l53 -186 v498q0 41 41 41h463q41 0 41 -41v-498l55 186l166 324q14 29 47 29h553q23 0 31 -15t-4 -35z" />
<glyph unicode="&#x417;" horiz-adv-x="1648" d="M1509 639q44 -51 63 -108.5t19 -137.5q0 -54 -8.5 -97.5t-31 -87t-59 -77t-94.5 -63t-135.5 -48.5t-185 -29.5t-239.5 -10.5q-154 0 -265 9.5t-195 33.5t-136.5 58.5t-85.5 91t-46.5 124.5t-15.5 164q0 41 41 41h496q41 0 41 -41q4 -77 36.5 -101t129.5 -24 q76 0 109.5 24.5t33.5 83.5q0 73 -37.5 102t-105.5 29h-306q-40 0 -40 41v218q0 40 40 40h306q38 0 60.5 3t46.5 13.5t35 35t11 63.5q0 60 -36.5 84.5t-127.5 24.5q-77 0 -103.5 -22t-29.5 -83q-3 -41 -43 -41h-495q-41 0 -41 41q3 93 16.5 158.5t46 119t83 87t131 56 t185 31.5t250.5 9q135 0 243 -10t186 -27t135.5 -44.5t94 -59t58 -73.5t29.5 -84.5t8 -96.5q0 -148 -72 -258q-27 -41 -118 -86q57 -27 79.5 -41.5t38.5 -34.5z" />
<glyph unicode="&#x418;" horiz-adv-x="1822" d="M1657 1434q41 0 41 -41v-1352q0 -41 -41 -41h-488q-41 0 -41 41l17 547l24 282l-297 -837q-11 -33 -47 -33h-675q-41 0 -41 41v1352q0 41 41 41h481q41 0 41 -41l-10 -543l-29 -295l305 846q11 33 45 33h674z" />
<glyph unicode="&#x419;" horiz-adv-x="1822" d="M911 1536q-174 0 -285 66.5t-128 197.5q-3 43 41 43h213q11 0 19.5 -5t12 -9t13.5 -17q37 -43 114 -43q79 0 113 43q1 1 4 5t4 5t3.5 4.5t3.5 4.5t4 3.5t4.5 3t4 2t5 2t6 1t6.5 0.5h213q44 0 41 -43q-17 -131 -127.5 -197.5t-284.5 -66.5zM1657 1434q41 0 41 -41v-1352 q0 -41 -41 -41h-488q-41 0 -41 41l17 547l24 282l-297 -837q-11 -33 -47 -33h-675q-41 0 -41 41v1352q0 41 41 41h481q41 0 41 -41l-10 -543l-29 -295l305 846q11 33 45 33h674z" />
<glyph unicode="&#x41a;" horiz-adv-x="1718" d="M1686 49q14 -20 6 -34.5t-33 -14.5h-598q-33 0 -49 29l-221 374l-93 -73v-289q0 -41 -41 -41h-512q-41 0 -41 41v1352q0 41 41 41h512q41 0 41 -41v-287l-12 -191l74 127l237 365q16 27 50 27h589q27 0 34.5 -15t-9.5 -35l-475 -589z" />
<glyph unicode="&#x41b;" horiz-adv-x="1748" d="M1614 1434q41 0 41 -41v-1352q0 -41 -41 -41h-520q-41 0 -41 41v989h-185l-75 -528q-43 -341 -166 -479q-20 -23 -52 -23h-520q-26 0 -31.5 13.5t9.5 35.5q123 162 186 481l158 867q9 37 45 37h1192z" />
<glyph unicode="&#x41c;" horiz-adv-x="2172" d="M2019 1434q41 0 41 -41v-1352q0 -41 -41 -41h-448q-41 0 -41 41l24 924l-127 -613q-48 -217 -79 -319q-9 -33 -45 -33h-451q-36 0 -45 33q-14 45 -34.5 125t-34.5 137l-13 57l-125 590l29 -901q0 -41 -39 -41h-457q-41 0 -41 41v1352q0 41 41 41h744q35 0 45 -37l53 -240 l84 -547l18 -178l17 178l84 547l53 240q10 37 45 37h743z" />
<glyph unicode="&#x41d;" horiz-adv-x="1714" d="M1579 1434q41 0 41 -41v-1352q0 -41 -41 -41h-522q-41 0 -41 41v475h-318v-475q0 -41 -41 -41h-522q-41 0 -41 41v1352q0 41 41 41h522q41 0 41 -41v-475h318v475q0 41 41 41h522z" />
<glyph unicode="&#x41e;" horiz-adv-x="1738" d="M872 -29q-189 0 -333.5 37t-238.5 102t-154 161t-84.5 205.5t-24.5 244.5q0 131 24.5 238.5t84.5 202.5t154 159.5t239 101.5t333 37q157 0 283.5 -25t216.5 -73.5t155 -113t103.5 -149.5t56 -177t17.5 -201q0 -135 -25 -244.5t-84.5 -205.5t-153 -161t-238 -102 t-331.5 -37zM872 397q121 0 171.5 70.5t50.5 253.5q0 176 -51 248.5t-171 72.5q-121 0 -173 -73t-52 -248q0 -183 51.5 -253.5t173.5 -70.5z" />
<glyph unicode="&#x41f;" horiz-adv-x="1714" d="M1579 1434q41 0 41 -41v-1352q0 -41 -41 -41h-522q-41 0 -41 41v989h-318v-989q0 -41 -41 -41h-522q-41 0 -41 41v1352q0 41 41 41h1444z" />
<glyph unicode="&#x420;" horiz-adv-x="1619" d="M852 1434q165 0 282 -15t206.5 -49t141.5 -92.5t77.5 -142t25.5 -201.5q0 -140 -39 -236t-127 -159t-226 -91t-341 -28h-154v-379q0 -41 -41 -41h-512q-41 0 -41 41v1352q0 41 41 41h707zM852 772q94 0 130 37t36 100q0 57 -35.5 90t-130.5 33h-154v-260h154z" />
<glyph unicode="&#x421;" horiz-adv-x="1738" d="M1120 854q-37 0 -43 41q-10 91 -49.5 124.5t-134.5 33.5q-117 0 -161 -75t-44 -257q0 -194 42.5 -264t162.5 -70q105 0 142 37.5t46 148.5q3 41 41 41h520q42 0 39 -43q-9 -161 -52 -270t-136.5 -185t-245 -110.5t-375.5 -34.5q-131 0 -240 19t-190 54t-143.5 86.5 t-104 113.5t-68 139.5t-37.5 159.5t-11 178q0 132 22.5 238.5t78 202t144.5 160t228 101.5t321 37q188 0 321.5 -20t226 -60t147.5 -109t81.5 -158t32.5 -216q3 -43 -39 -43h-522z" />
<glyph unicode="&#x422;" horiz-adv-x="1605" d="M1550 1434q41 0 41 -41v-314q0 -41 -41 -41h-426v-997q0 -41 -41 -41h-540q-41 0 -41 41v997h-424q-41 0 -41 41v314q0 41 41 41h1472z" />
<glyph unicode="&#x423;" horiz-adv-x="1525" d="M1511 1434q23 0 32 -13.5t1 -34.5l-598 -1355q-16 -31 -49 -31h-496q-23 0 -31 12.5t1 34.5l143 328l-532 1011q-20 48 30 48h535q36 0 45 -33l151 -453l29 -155l27 155l143 451q11 35 47 35h522z" />
<glyph unicode="&#x424;" horiz-adv-x="2156" d="M2101 709q0 -91 -12.5 -158.5t-44 -128.5t-86 -103t-138 -75.5t-200.5 -52.5t-272 -27v-164h-523v164q-185 10 -315.5 36.5t-216 68t-134.5 107.5t-68 144.5t-19 188.5t19 189.5t68.5 147.5t134.5 111.5t216 72t315 38.5v233h523v-233q183 -10 313.5 -37.5t216 -71 t135 -111t69 -148t19.5 -191.5zM625 709q0 -45 2 -70.5t9.5 -52.5t21.5 -40t40 -25.5t63.5 -18t92.5 -8.5v442q-55 -4 -92.5 -11t-63.5 -20.5t-40 -28t-21.5 -42.5t-9.5 -54t-2 -71zM1319 494q56 3 93 8.5t63.5 18t40.5 25.5t21.5 40.5t9 52t1.5 70.5t-1.5 71.5t-9 53.5 t-22 42.5t-40 28.5t-63.5 20.5t-93 10.5v-442z" />
<glyph unicode="&#x425;" horiz-adv-x="1728" d="M1290 717l406 -668q12 -20 4 -34.5t-31 -14.5h-563q-32 0 -47 29l-158 303l-49 145l-49 -145l-158 -303q-15 -29 -49 -29h-563q-25 0 -33 14.5t4 34.5l412 668l-410 667q-12 20 -4 35t33 15h563q33 0 49 -29l156 -303l49 -144l49 144l156 303q16 29 47 29h565 q23 0 31 -15t-4 -35z" />
<glyph unicode="&#x426;" horiz-adv-x="1802" d="M1759 403q41 0 41 -41v-567q0 -41 -41 -41h-469q-41 0 -41 41v205h-1114q-41 0 -41 41v1352q0 41 41 41h522q41 0 41 -41v-990h318v990q0 41 41 41h522q41 0 41 -41v-990h139z" />
<glyph unicode="&#x427;" horiz-adv-x="1687" d="M1552 1434q41 0 41 -41v-1352q0 -41 -41 -41h-526q-41 0 -41 41l2 448q-257 -100 -530 -100q-206 0 -293.5 98t-87.5 310v596q0 41 41 41h522q41 0 41 -41v-469q0 -74 20 -97.5t82 -23.5q96 0 205 41l2 549q0 41 41 41h522z" />
<glyph unicode="&#x428;" horiz-adv-x="2150" d="M2015 1434q41 0 41 -41v-1352q0 -41 -41 -41h-1880q-41 0 -41 41v1352q0 41 41 41h465q41 0 41 -41v-1016h193v1016q0 41 40 41h402q41 0 41 -41v-1016h192v1016q0 41 41 41h465z" />
<glyph unicode="&#x429;" horiz-adv-x="2238" d="M2195 403q41 0 41 -41v-567q0 -41 -41 -41h-469q-40 0 -40 41v205h-1551q-41 0 -41 41v1352q0 41 41 41h465q41 0 41 -41v-1016h193v1016q0 41 40 41h402q41 0 41 -41v-1016h192v1016q0 41 41 41h465q41 0 41 -41v-990h139z" />
<glyph unicode="&#x42a;" horiz-adv-x="2021" d="M1231 1014q203 0 341.5 -28t227 -91t127.5 -159t39 -236q0 -147 -38.5 -242.5t-129 -153.5t-225 -81t-342.5 -23h-707q-41 0 -41 41v987h-405q-41 0 -41 41v324q0 41 41 41h958q41 0 41 -41v-379h154zM1231 401q95 0 130.5 33t35.5 90q0 63 -36 100.5t-130 37.5h-154 v-261h154z" />
<glyph unicode="&#x42b;" horiz-adv-x="2508" d="M852 1014q203 0 341 -28t226 -91t127 -159t39 -236q0 -118 -25.5 -201.5t-77.5 -142t-141.5 -92.5t-206.5 -49t-282 -15h-707q-41 0 -41 41v1352q0 41 41 41h512q41 0 41 -41v-379h154zM2345 1434q41 0 41 -41v-1352q0 -41 -41 -41h-549q-41 0 -41 41v1352q0 41 41 41 h549zM852 401q95 0 130.5 33t35.5 90q0 63 -36 100.5t-130 37.5h-154v-261h154z" />
<glyph unicode="&#x42c;" horiz-adv-x="1619" d="M852 1014q203 0 341 -28t226 -91t127 -159t39 -236q0 -118 -25.5 -201.5t-77.5 -142t-141.5 -92.5t-206.5 -49t-282 -15h-707q-41 0 -41 41v1352q0 41 41 41h512q41 0 41 -41v-379h154zM852 401q95 0 130.5 33t35.5 90q0 63 -36 100.5t-130 37.5h-154v-261h154z" />
<glyph unicode="&#x42d;" horiz-adv-x="1642" d="M831 1460q177 0 312.5 -37t222.5 -101.5t142 -159.5t77.5 -202t22.5 -239q0 -135 -22.5 -244.5t-77.5 -205.5t-142 -161t-222.5 -102t-312.5 -37q-170 0 -299.5 20.5t-219 59t-148 98t-88 132.5t-37.5 168q-3 40 41 40h506q38 0 41 -38q8 -63 47.5 -89t136.5 -26 q102 0 146.5 52.5t54.5 195.5h-441q-41 0 -41 41v184q0 41 41 41h441q-12 132 -57.5 187t-143.5 55q-84 0 -126.5 -21t-53.5 -65q-9 -39 -43 -39h-508q-44 0 -41 41q8 91 34.5 159t82.5 125t144 93t220.5 55.5t310.5 19.5z" />
<glyph unicode="&#x42e;" horiz-adv-x="2439" d="M1606 1460q798 0 798 -739q0 -134 -24.5 -244t-82.5 -206t-148 -161t-227.5 -102t-315.5 -37q-660 0 -756 545h-152v-475q0 -41 -41 -41h-522q-41 0 -41 41v1352q0 41 41 41h522q41 0 41 -41v-475h150q97 542 758 542zM1581 397q121 0 171 70.5t50 253.5q0 176 -51 248.5 t-170 72.5q-121 0 -173 -73t-52 -248q0 -183 51.5 -253.5t173.5 -70.5z" />
<glyph unicode="&#x42f;" horiz-adv-x="1626" d="M1481 1434q41 0 41 -41v-1352q0 -41 -41 -41h-492q-41 0 -41 41v379h-121l-196 -389q-13 -31 -49 -31h-521q-23 0 -30.5 12.5t2.5 34.5l248 451q-132 62 -186 172.5t-54 269.5q0 108 21 185t70 138t133 97.5t207.5 55t295.5 18.5h713zM608 909q0 -63 36 -100t130 -37h174 v260h-174q-95 0 -130.5 -33t-35.5 -90z" />
<glyph unicode="&#x430;" d="M774 1044q195 0 330 -20.5t213.5 -63t112.5 -100t34 -137.5v-682q0 -41 -41 -41h-458q-41 0 -41 41v84q-132 -156 -387 -156q-262 0 -373 80.5t-111 267.5q0 82 36.5 141t96.5 90.5t136 51.5t156 26t156 12t136 10.5t96.5 21t36.5 45.5q0 34 -22.5 48.5t-85.5 14.5 q-66 0 -92.5 -12t-32.5 -49q-6 -41 -41 -41h-490q-41 0 -41 24q3 99 33 161t106.5 105t205 60.5t331.5 17.5zM750 272q87 0 120 20t33 85v43q-176 -19 -223 -35q-50 -19 -51 -49q0 -33 25.5 -48.5t95.5 -15.5z" />
<glyph unicode="&#x431;" horiz-adv-x="1724" d="M1192 969q123 0 205 -25t132.5 -83t71.5 -144.5t21 -216.5q0 -288 -168 -404t-577 -116q-180 0 -302 13t-209.5 52t-136 87.5t-75 142.5t-33.5 191.5t-6 258.5q0 72 3.5 126.5t13 115t26 105.5t44.5 92t66.5 79.5t93.5 62.5t125 48t161.5 28.5t201.5 10.5q61 0 85.5 6.5 t31.5 27.5q12 39 43 39h438q41 0 41 -28q-4 -139 -63 -220t-192.5 -120t-363.5 -39q-55 0 -83 -5.5t-47.5 -27t-26 -56.5t-8.5 -102q44 34 106.5 56t136 31t125.5 11.5t119 2.5zM889 346q91 0 125.5 41.5t34.5 110.5q0 78 -25.5 116.5t-97.5 38.5q-131 0 -219 -53 q2 -62 5.5 -102.5t13.5 -70t21 -45t34 -24t45.5 -10.5t62.5 -2z" />
<glyph unicode="&#x432;" horiz-adv-x="1646" d="M1354 528q96 -14 141 -77.5t45 -155.5q0 -111 -55.5 -173.5t-189.5 -92t-375 -29.5h-756q-41 0 -41 41v944q0 41 41 41h727q125 0 213 -4.5t160 -16.5t117 -31t75.5 -49.5t42.5 -70.5t12 -96q0 -43 -6.5 -78t-23 -67.5t-49 -54.5t-78.5 -30zM971 686q0 33 -18.5 49.5 t-61.5 16.5h-219v-134h219q80 0 80 68zM905 281q80 0 80 69q0 36 -18.5 54t-61.5 18h-233v-141h233z" />
<glyph unicode="&#x433;" horiz-adv-x="1165" d="M1112 1024q41 0 41 -41v-272q0 -41 -41 -41h-424v-629q0 -41 -41 -41h-500q-41 0 -41 41v942q0 41 41 41h965z" />
<glyph unicode="&#x434;" horiz-adv-x="1662" d="M1542 303q41 0 41 -41v-467q0 -41 -41 -41h-459q-41 0 -41 41v205h-446v-205q0 -41 -41 -41h-461q-41 0 -41 41v467q0 41 41 41h17q24 7 47.5 34t42 60t40 88t35 94.5t33.5 102.5l103 309q11 33 45 33h983q41 0 41 -41v-680h61zM803 637q-44 -208 -83 -280 q-22 -43 -46 -54h287v397h-144z" />
<glyph unicode="&#x435;" horiz-adv-x="1492" d="M1442 471q0 -41 -41 -41h-780q3 -92 30.5 -128t104.5 -36q53 0 72.5 12t31.5 50q11 34 45 34h484q45 0 36 -45q-27 -119 -98.5 -191t-215 -109t-374.5 -37q-119 0 -215.5 13.5t-167.5 37t-124 60t-87 79t-55 98t-29 112.5t-8 126q0 96 16.5 171.5t62.5 146.5t121 117.5 t198 74.5t288 28q148 0 253.5 -11t184.5 -40t127.5 -69.5t79.5 -108.5t43.5 -147.5t16.5 -196.5zM743 758q-59 0 -95.5 -41.5t-39.5 -104.5h269q-3 82 -38.5 114t-95.5 32z" />
<glyph unicode="&#x436;" horiz-adv-x="2011" d="M1653 512l348 -463q15 -22 7.5 -35.5t-32.5 -13.5h-473q-33 0 -49 27l-145 225l-52 123v-334q0 -41 -40 -41h-420q-41 0 -41 41v336l-51 -125l-140 -223q-16 -29 -49 -29h-477q-26 0 -33 14.5t8 34.5l353 465l-351 461q-15 20 -8 34.5t33 14.5h471q33 0 49 -27l144 -223 l51 -123v332q0 41 41 41h420q40 0 40 -41v-330l52 121l145 223q16 27 49 27h473q26 0 33 -13.5t-8 -35.5z" />
<glyph unicode="&#x437;" horiz-adv-x="1503" d="M1372 463q41 -37 57.5 -80t16.5 -104q0 -56 -14 -97t-57.5 -81t-119 -65t-204.5 -40.5t-308 -15.5q-147 0 -251.5 6.5t-182.5 23.5t-125 41t-76.5 64t-41 86t-13.5 114q0 41 41 41h481q40 0 43 -41q3 -47 28.5 -62t96.5 -15q62 0 87.5 17t25.5 60q0 54 -28.5 74.5 t-84.5 20.5h-251q-41 0 -41 41v135q0 41 41 41h251q25 0 40 1t32.5 5.5t26.5 13t15.5 24t6.5 38.5q0 43 -28.5 60t-100.5 17q-57 0 -78 -13t-24 -50q-6 -41 -43 -41h-481q-41 0 -41 41q3 79 21 130t59 90.5t118 60t188.5 30.5t280.5 10q182 0 311 -14t205 -36.5t118.5 -60.5 t55.5 -77.5t13 -95.5q0 -122 -66 -193q-19 -23 -86 -57q5 -2 13 -6q59 -27 73 -41z" />
<glyph unicode="&#x438;" horiz-adv-x="1660" d="M1530 1024q41 0 41 -41v-942q0 -41 -41 -41h-479q-39 0 -39 41l10 379l16 194l-192 -581q-11 -33 -45 -33h-666q-41 0 -41 41v942q0 41 41 41h473q41 0 41 -41l-6 -375l-20 -209l198 592q11 33 45 33h664z" />
<glyph unicode="&#x439;" horiz-adv-x="1660" d="M831 1126q-174 0 -285 67t-128 198q-3 43 41 43h213q11 0 19.5 -5t12 -9t13.5 -17q37 -43 114 -43q79 0 113 43q1 1 4 5t4 5t3.5 4.5t3.5 4.5t4 3.5t4.5 3t4 2t5 2t6 1t6.5 0.5h213q44 0 41 -43q-17 -131 -127.5 -198t-284.5 -67zM1530 1024q41 0 41 -41v-942 q0 -41 -41 -41h-479q-39 0 -39 41l10 379l16 194l-192 -581q-11 -33 -45 -33h-666q-41 0 -41 41v942q0 41 41 41h473q41 0 41 -41l-6 -375l-20 -209l198 592q11 33 45 33h664z" />
<glyph unicode="&#x43a;" horiz-adv-x="1574" d="M1528 49q14 -22 7 -35.5t-32 -13.5h-528q-31 0 -49 27l-162 241l-107 -61v-166q0 -41 -41 -41h-501q-41 0 -41 41v942q0 41 41 41h501q41 0 41 -41v-164l-8 -153l74 120l162 213q19 25 49 25h528q26 0 33 -14.5t-8 -34.5l-332 -402z" />
<glyph unicode="&#x43b;" horiz-adv-x="1619" d="M1489 1024q41 0 41 -41v-942q0 -41 -41 -41h-494q-41 0 -41 41v639h-141l-45 -322q-30 -236 -113 -335q-20 -23 -51 -23h-495q-24 0 -30.5 13.5t7.5 33.5q88 125 125 332l111 608q9 37 45 37h1122z" />
<glyph unicode="&#x43c;" horiz-adv-x="1841" d="M1710 1024q41 0 41 -41v-942q0 -41 -41 -41h-389q-41 0 -41 41l18 651l-90 -440q-34 -143 -57 -219q-9 -33 -45 -33h-367q-36 0 -45 33q-11 34 -26 88.5t-24 92.5l-9 38l-86 416l20 -627q0 -41 -39 -41h-395q-41 0 -41 41v942q0 41 41 41h653q37 0 46 -35l38 -162 l50 -368l49 368l39 162q9 35 45 35h655z" />
<glyph unicode="&#x43d;" horiz-adv-x="1566" d="M1436 1024q41 0 41 -41v-942q0 -41 -41 -41h-496q-41 0 -41 41v299h-227v-299q0 -41 -41 -41h-496q-41 0 -41 41v942q0 41 41 41h496q41 0 41 -41v-297h227v297q0 41 41 41h496z" />
<glyph unicode="&#x43e;" d="M1487 506q0 191 -66.5 306.5t-222 173.5t-418.5 58q-200 0 -336 -31.5t-218.5 -99.5t-118 -166.5t-35.5 -240.5q0 -143 35 -239.5t117.5 -162t218 -95t337.5 -29.5q203 0 339 30t217.5 96.5t116 162.5t34.5 237zM780 721q70 0 94.5 -53t24.5 -162q0 -114 -23.5 -158.5 t-95.5 -44.5q-73 0 -97 44.5t-24 158.5q0 109 25 162t96 53z" />
<glyph unicode="&#x43f;" horiz-adv-x="1576" d="M1446 1024q41 0 41 -41v-942q0 -41 -41 -41h-502q-41 0 -41 41v639h-225v-639q0 -41 -41 -41h-502q-41 0 -41 41v942q0 41 41 41h1311z" />
<glyph unicode="&#x440;" horiz-adv-x="1564" d="M1059 1044q92 0 159 -14t121.5 -49.5t87.5 -95.5t50.5 -151t17.5 -218q0 -159 -25 -263.5t-81 -164.5t-134 -84t-196 -24q-247 0 -381 153v-502q0 -41 -41 -41h-502q-41 0 -41 41v1352q0 41 41 41h502q41 0 41 -41v-94q132 155 381 155zM813 315q109 0 109 201 q0 193 -109 193q-58 0 -107 -57t-49 -146q0 -79 50 -135t106 -56z" />
<glyph unicode="&#x441;" horiz-adv-x="1525" d="M909 594q-37 0 -43 39q-8 53 -29 74.5t-67 21.5q-70 0 -94.5 -54t-24.5 -169q0 -121 23.5 -166t95.5 -45q92 0 100 117q3 28 41 28h502q42 0 39 -41q-10 -149 -77.5 -238.5t-219.5 -135t-407 -45.5q-138 0 -246 17t-182 51.5t-125 79t-79.5 106t-40.5 126.5t-12 146 q0 96 17 171.5t62.5 146.5t120.5 117.5t198 74.5t287 28t280 -14.5t196.5 -43.5t128.5 -79t70.5 -114t28.5 -156q3 -41 -39 -41z" />
<glyph unicode="&#x442;" horiz-adv-x="1298" d="M1243 1024q41 0 41 -41v-272q0 -41 -41 -41h-291v-629q0 -41 -41 -41h-501q-41 0 -41 41v629h-291q-41 0 -41 41v272q0 41 41 41h1165z" />
<glyph unicode="&#x443;" horiz-adv-x="1609" d="M1556 1024q23 0 32 -13t1 -34l-598 -1356q-15 -31 -49 -31h-496q-23 0 -31 13t1 35l143 327l-530 1012q-11 22 -3.5 34.5t31.5 12.5h535q36 0 45 -33l151 -452l29 -154l27 154l143 450q11 35 47 35h522z" />
<glyph unicode="&#x444;" horiz-adv-x="2394" d="M1833 1044q119 0 197.5 -24t134.5 -84t81 -164.5t25 -263.5q0 -127 -17.5 -218t-50.5 -151t-88 -95.5t-122 -49.5t-160 -14q-227 0 -354 153v-502q0 -41 -41 -41h-486q-41 0 -41 41v500q-128 -151 -354 -151q-92 0 -159 14t-121.5 49.5t-87.5 95.5t-50.5 151t-17.5 218 q0 159 25 263.5t81 164.5t134 84t196 24q224 0 354 -149v498q0 41 41 41h486q41 0 41 -41v-498q130 149 354 149zM803 315q54 0 101.5 50.5t53.5 130.5v41q-6 72 -54.5 122t-100.5 50q-109 0 -109 -201q0 -193 109 -193zM1587 315q109 0 109 193q0 201 -109 201 q-56 0 -105.5 -56t-49.5 -135q0 -90 49 -146.5t106 -56.5z" />
<glyph unicode="&#x445;" horiz-adv-x="1517" d="M1159 512l348 -463q15 -22 8 -35.5t-32 -13.5h-502q-33 0 -51 27l-137 204l-33 72l-35 -72l-129 -204q-18 -27 -49 -27h-508q-26 0 -33 14.5t8 34.5l353 465l-351 461q-15 20 -8 34.5t33 14.5h500q31 0 49 -27l135 -202l35 -70l33 70l137 202q18 27 51 27h502 q26 0 32.5 -13.5t-8.5 -35.5z" />
<glyph unicode="&#x446;" horiz-adv-x="1624" d="M1581 344q41 0 41 -41v-438q0 -41 -41 -41h-457q-41 0 -41 41v135h-948q-41 0 -41 41v942q0 41 41 41h492q41 0 41 -41v-639h229v639q0 41 41 41h494q41 0 41 -41v-639h108z" />
<glyph unicode="&#x447;" horiz-adv-x="1581" d="M1430 1024q40 0 40 -41v-942q0 -41 -40 -41h-504q-41 0 -41 41l2 309q-182 -71 -398 -71q-121 0 -198.5 17t-120.5 55t-59.5 89.5t-16.5 130.5v412q0 41 41 41h502q41 0 41 -41v-321q0 -53 14.5 -70t59.5 -17q71 0 135 27l2 381q0 41 41 41h500z" />
<glyph unicode="&#x448;" horiz-adv-x="2025" d="M1894 1024q41 0 41 -41v-942q0 -41 -41 -41h-1759q-41 0 -41 41v942q0 41 41 41h455q41 0 41 -41v-639h139v639q0 41 41 41h410q41 0 41 -41v-639h137v639q0 41 41 41h454z" />
<glyph unicode="&#x449;" horiz-adv-x="2103" d="M2058 344q41 0 41 -41v-438q0 -41 -41 -41h-454q-41 0 -41 41v135h-1428q-41 0 -41 41v942q0 41 41 41h455q41 0 41 -41v-639h139v639q0 41 41 41h410q41 0 41 -41v-639h137v639q0 41 41 41h454q41 0 41 -41v-639h123z" />
<glyph unicode="&#x44a;" horiz-adv-x="1720" d="M987 766q162 0 276 -13.5t192.5 -40.5t124 -73.5t64.5 -106.5t19 -145q0 -79 -12.5 -135.5t-44 -101t-80 -72.5t-126.5 -46t-176.5 -25t-236.5 -7h-653q-41 0 -41 41v639h-215q-41 0 -41 41v262q0 41 41 41h758q41 0 41 -41v-217h110zM987 309q69 0 94 21t25 65 q0 99 -119 99h-110v-185h110z" />
<glyph unicode="&#x44b;" horiz-adv-x="2330" d="M788 766q162 0 276 -13.5t192.5 -40.5t124 -73.5t64.5 -106.5t19 -145q0 -79 -12.5 -135.5t-44 -101t-80 -72.5t-126.5 -46t-176.5 -25t-236.5 -7h-653q-41 0 -41 41v942q0 41 41 41h502q41 0 41 -41v-217h110zM2200 1024q41 0 41 -41v-942q0 -41 -41 -41h-510 q-41 0 -41 41v942q0 41 41 41h510zM788 309q69 0 94 21t25 65q0 99 -119 99h-110v-185h110z" />
<glyph unicode="&#x44c;" horiz-adv-x="1554" d="M788 766q162 0 276 -13.5t192.5 -40.5t124 -73.5t64.5 -106.5t19 -145q0 -79 -12.5 -135.5t-44 -101t-80 -72.5t-126.5 -46t-176.5 -25t-236.5 -7h-653q-41 0 -41 41v942q0 41 41 41h502q41 0 41 -41v-217h110zM788 309q69 0 94 21t25 65q0 99 -119 99h-110v-185h110z " />
<glyph unicode="&#x44d;" horiz-adv-x="1597" d="M799 1047q180 0 312.5 -27t213.5 -72.5t129.5 -115.5t66 -145t17.5 -173q0 -101 -17.5 -177.5t-66 -148t-129.5 -117.5t-213.5 -73t-312.5 -27q-168 0 -293.5 15.5t-207 43t-134 71.5t-76.5 95t-31 119q-6 43 39 43h512q34 0 43 -41q6 -39 35.5 -55t97.5 -16 q79 0 116.5 35.5t47.5 128.5h-356q-41 0 -41 41v133q0 41 41 41h354q-12 77 -50.5 111t-111.5 34q-111 0 -129 -53q-6 -20 -15.5 -28.5t-27.5 -8.5h-516q-45 0 -39 41q7 65 29.5 113t73 90t131.5 68t208 40.5t300 14.5z" />
<glyph unicode="&#x44e;" horiz-adv-x="2330" d="M1567 1044q199 0 334.5 -31t218.5 -98.5t119 -166.5t36 -242q0 -141 -34.5 -237t-116 -162.5t-218 -96.5t-339.5 -30q-224 0 -367.5 38t-221.5 116t-104 206h-176v-299q0 -41 -41 -41h-510q-41 0 -41 41v942q0 41 41 41h510q41 0 41 -41v-299h179q43 187 204.5 273.5 t485.5 86.5zM1567 303q73 0 97 44.5t24 158.5q0 109 -25 162t-96 53q-70 0 -94.5 -53t-24.5 -162q0 -114 23.5 -158.5t95.5 -44.5z" />
<glyph unicode="&#x44f;" horiz-adv-x="1611" d="M1448 1024q41 0 41 -41v-942q0 -41 -41 -41h-494q-41 0 -41 41v174h-141l-110 -186q-14 -29 -48 -29h-495q-25 0 -32 13.5t5 35.5l176 273q-103 59 -142.5 138.5t-39.5 182.5q0 85 16 143t58.5 106t119 75.5t194 42t286.5 14.5h688zM672 604q0 -98 119 -98h122v184h-122 q-119 0 -119 -86z" />
<glyph unicode="&#x451;" horiz-adv-x="1492" d="M324 1147q-41 0 -41 41v205q0 41 41 41h335q41 0 41 -41v-205q0 -41 -41 -41h-335zM844 1147q-41 0 -41 41v205q0 41 41 41h336q41 0 41 -41v-205q0 -41 -41 -41h-336zM1442 471q0 -41 -41 -41h-780q3 -92 30.5 -128t104.5 -36q53 0 72.5 12t31.5 50q11 34 45 34h484 q45 0 36 -45q-27 -119 -98.5 -191t-215 -109t-374.5 -37q-119 0 -215.5 13.5t-167.5 37t-124 60t-87 79t-55 98t-29 112.5t-8 126q0 96 16.5 171.5t62.5 146.5t121 117.5t198 74.5t288 28q148 0 253.5 -11t184.5 -40t127.5 -69.5t79.5 -108.5t43.5 -147.5t16.5 -196.5z M743 758q-59 0 -95.5 -41.5t-39.5 -104.5h269q-3 82 -38.5 114t-95.5 32z" />
<glyph unicode="&#x454;" horiz-adv-x="1599" d="M1501 358q44 0 41 -43q-8 -68 -32 -119t-76.5 -95t-134 -71.5t-206 -43t-292.5 -15.5q-180 0 -312.5 27t-213.5 73t-130 117.5t-66.5 148t-17.5 177.5q0 97 17.5 172.5t66.5 145.5t130 115.5t213.5 72.5t312.5 27q173 0 299 -14.5t207 -40.5t131 -68t72.5 -90t29.5 -113 q6 -41 -39 -41h-514q-34 0 -43 37q-21 53 -129 53q-74 0 -112 -33.5t-50 -111.5h355q41 0 41 -41v-133q0 -41 -41 -41h-359q10 -93 48.5 -128.5t117.5 -35.5q68 0 96.5 16t34.5 55q9 41 43 41h512z" />
<glyph unicode="&#x456;" horiz-adv-x="798" d="M698 1180q0 -41 -41 -41h-510q-41 0 -41 41v213q0 41 41 41h510q41 0 41 -41v-213zM698 41q0 -41 -41 -41h-510q-41 0 -41 41v942q0 41 41 41h510q41 0 41 -41v-942z" />
<glyph unicode="&#x457;" horiz-adv-x="776" d="M336 1188q0 -41 -41 -41h-336q-41 0 -41 41v205q0 41 41 41h336q41 0 41 -41v-205zM856 1188q0 -41 -41 -41h-336q-41 0 -41 41v205q0 41 41 41h336q41 0 41 -41v-205zM686 41q0 -41 -41 -41h-510q-41 0 -41 41v942q0 41 41 41h510q41 0 41 -41v-942z" />
<glyph unicode="&#x490;" horiz-adv-x="1474" d="M1382 1638q41 0 41 -41v-528q0 -41 -41 -41h-673v-987q0 -41 -41 -41h-512q-41 0 -41 41v1352q0 41 41 41h786v163q0 41 41 41h399z" />
<glyph unicode="&#x491;" horiz-adv-x="1165" d="M1112 1243q41 0 41 -41v-491q0 -41 -41 -41h-424v-629q0 -41 -41 -41h-500q-41 0 -41 41v942q0 41 41 41h668v178q0 41 41 41h256z" />
<glyph unicode="&#x1e80;" horiz-adv-x="2209" d="M924 1526l-236 256q-20 20 -12.5 34.5t35.5 14.5h405q32 0 51 -25l185 -254q14 -20 7 -34.5t-32 -14.5h-354q-29 0 -49 23zM2150 1434q21 0 31.5 -11.5t7.5 -31.5l-204 -1354q-5 -37 -46 -37h-663q-40 0 -45 37l-45 291l-62 534l-63 -534l-45 -291q-5 -37 -45 -37h-664 q-40 0 -45 37l-205 1354q-3 20 7.5 31.5t31.5 11.5h494q40 0 43 -39l76 -908l30 242l123 668q6 37 43 37h436q37 0 43 -37l123 -668l31 -242l78 908q3 39 41 39h493z" />
<glyph unicode="&#x1e81;" horiz-adv-x="2015" d="M807 1169l-236 256q-20 20 -12.5 35t35.5 15h405q33 0 52 -25l184 -254q14 -20 7 -34.5t-32 -14.5h-354q-30 0 -49 22zM1968 1024q22 0 32 -12.5t5 -32.5l-188 -942q-9 -37 -45 -37h-621q-37 0 -43 37l-41 203l-51 360l-53 -360l-41 -203q-6 -37 -43 -37h-619 q-36 0 -45 37l-205 942q-4 20 5.5 32.5t29.5 12.5h461q40 0 43 -39l78 -627l30 193l103 438q9 35 45 35h424q39 0 45 -37l98 -436l31 -193l78 627q3 39 43 39h444z" />
<glyph unicode="&#x1e82;" horiz-adv-x="2209" d="M948 1503q-25 0 -32 14.5t8 34.5l184 254q19 25 51 25h406q27 0 33.5 -14.5t-11.5 -34.5l-235 -256q-20 -23 -49 -23h-355zM2150 1434q21 0 31.5 -11.5t7.5 -31.5l-204 -1354q-5 -37 -46 -37h-663q-40 0 -45 37l-45 291l-62 534l-63 -534l-45 -291q-5 -37 -45 -37h-664 q-40 0 -45 37l-205 1354q-3 20 7.5 31.5t31.5 11.5h494q40 0 43 -39l76 -908l30 242l123 668q6 37 43 37h436q37 0 43 -37l123 -668l31 -242l78 908q3 39 41 39h493z" />
<glyph unicode="&#x1e83;" horiz-adv-x="2015" d="M834 1147q-25 0 -32.5 14.5t7.5 34.5l184 254q19 25 51 25h406q27 0 34 -15t-11 -35l-236 -256q-19 -22 -49 -22h-354zM1968 1024q22 0 32 -12.5t5 -32.5l-188 -942q-9 -37 -45 -37h-621q-37 0 -43 37l-41 203l-51 360l-53 -360l-41 -203q-6 -37 -43 -37h-619 q-36 0 -45 37l-205 942q-4 20 5.5 32.5t29.5 12.5h461q40 0 43 -39l78 -627l30 193l103 438q9 35 45 35h424q39 0 45 -37l98 -436l31 -193l78 627q3 39 43 39h444z" />
<glyph unicode="&#x1e84;" horiz-adv-x="2209" d="M694 1503q-41 0 -41 41v205q0 41 41 41h336q41 0 41 -41v-205q0 -41 -41 -41h-336zM1214 1503q-40 0 -40 41v205q0 41 40 41h336q41 0 41 -41v-205q0 -41 -41 -41h-336zM2150 1434q21 0 31.5 -11.5t7.5 -31.5l-204 -1354q-5 -37 -46 -37h-663q-40 0 -45 37l-45 291 l-62 534l-63 -534l-45 -291q-5 -37 -45 -37h-664q-40 0 -45 37l-205 1354q-3 20 7.5 31.5t31.5 11.5h494q40 0 43 -39l76 -908l30 242l123 668q6 37 43 37h436q37 0 43 -37l123 -668l31 -242l78 908q3 39 41 39h493z" />
<glyph unicode="&#x1e85;" horiz-adv-x="2015" d="M580 1147q-41 0 -41 41v205q0 41 41 41h335q41 0 41 -41v-205q0 -41 -41 -41h-335zM1100 1147q-41 0 -41 41v205q0 41 41 41h336q41 0 41 -41v-205q0 -41 -41 -41h-336zM1968 1024q22 0 32 -12.5t5 -32.5l-188 -942q-9 -37 -45 -37h-621q-37 0 -43 37l-41 203l-51 360 l-53 -360l-41 -203q-6 -37 -43 -37h-619q-36 0 -45 37l-205 942q-4 20 5.5 32.5t29.5 12.5h461q40 0 43 -39l78 -627l30 193l103 438q9 35 45 35h424q39 0 45 -37l98 -436l31 -193l78 627q3 39 43 39h444z" />
<glyph unicode="&#x1ef2;" horiz-adv-x="1667" d="M633 1526l-236 256q-20 20 -12.5 34.5t35.5 14.5h405q33 0 52 -25l184 -254q14 -20 7 -34.5t-32 -14.5h-354q-29 0 -49 23zM1649 1434q24 0 32.5 -14t-2.5 -36l-526 -935v-408q0 -41 -41 -41h-561q-41 0 -41 41v418l-526 925q-12 22 -3.5 36t31.5 14h566q36 0 47 -31 l145 -352l61 -203l60 203l145 352q11 31 47 31h566z" />
<glyph unicode="&#x1ef3;" horiz-adv-x="1609" d="M604 1169l-235 256q-20 20 -13 35t35 15h406q32 0 51 -25l184 -254q14 -20 7 -34.5t-31 -14.5h-355q-30 0 -49 22zM1556 1024q23 0 32 -13t1 -34l-598 -1356q-15 -31 -49 -31h-496q-23 0 -31 13t1 35l143 327l-530 1012q-11 22 -3.5 34.5t31.5 12.5h535q36 0 45 -33 l151 -452l29 -154l27 154l143 450q11 35 47 35h522z" />
<glyph unicode="&#x2000;" horiz-adv-x="997" />
<glyph unicode="&#x2001;" horiz-adv-x="1995" />
<glyph unicode="&#x2002;" horiz-adv-x="997" />
<glyph unicode="&#x2003;" horiz-adv-x="1995" />
<glyph unicode="&#x2004;" horiz-adv-x="665" />
<glyph unicode="&#x2005;" horiz-adv-x="498" />
<glyph unicode="&#x2006;" horiz-adv-x="332" />
<glyph unicode="&#x2007;" horiz-adv-x="332" />
<glyph unicode="&#x2008;" horiz-adv-x="249" />
<glyph unicode="&#x2009;" horiz-adv-x="399" />
<glyph unicode="&#x200a;" horiz-adv-x="110" />
<glyph unicode="&#x2010;" horiz-adv-x="1171" d="M1028 367q0 -41 -41 -41h-803q-41 0 -41 41v311q0 41 41 41h803q41 0 41 -41v-311z" />
<glyph unicode="&#x2011;" horiz-adv-x="1171" d="M1028 367q0 -41 -41 -41h-803q-41 0 -41 41v311q0 41 41 41h803q41 0 41 -41v-311z" />
<glyph unicode="&#x2012;" horiz-adv-x="1171" d="M1028 367q0 -41 -41 -41h-803q-41 0 -41 41v311q0 41 41 41h803q41 0 41 -41v-311z" />
<glyph unicode="&#x2013;" horiz-adv-x="1441" d="M1298 367q0 -41 -41 -41h-1073q-41 0 -41 41v311q0 41 41 41h1073q41 0 41 -41v-311z" />
<glyph unicode="&#x2014;" horiz-adv-x="2244" d="M2101 367q0 -41 -41 -41h-1876q-41 0 -41 41v311q0 41 41 41h1876q41 0 41 -41v-311z" />
<glyph unicode="&#x2018;" horiz-adv-x="942" d="M428 1405q17 29 49 29h277q20 0 30.5 -12.5t6.5 -32.5l-101 -433q-5 -34 -43 -34h-446q-25 0 -33 13.5t4 35.5z" />
<glyph unicode="&#x2019;" horiz-adv-x="942" d="M514 950q-17 -28 -49 -28h-277q-20 0 -30 12.5t-6 32.5l100 432q6 35 43 35h446q25 0 33 -14t-4 -36z" />
<glyph unicode="&#x201a;" horiz-adv-x="956" d="M498 -176q-17 -29 -49 -29h-277q-20 0 -30.5 12.5t-6.5 32.5l101 432q6 35 43 35h446q25 0 33 -13.5t-4 -35.5z" />
<glyph unicode="&#x201c;" horiz-adv-x="1439" d="M436 1407q15 27 47 27h244q22 0 31.5 -11.5t5.5 -31.5l-88 -387q-5 -37 -45 -37h-395q-25 0 -33 14.5t4 34.5zM991 1407q15 27 47 27h246q21 0 31 -11.5t6 -31.5l-88 -387q-8 -37 -45 -37h-397q-23 0 -32 14.5t3 34.5z" />
<glyph unicode="&#x201d;" horiz-adv-x="1402" d="M446 995q-14 -28 -47 -28h-243q-45 0 -39 45l90 387q6 35 45 35h395q25 0 33 -14t-4 -36zM1001 995q-14 -28 -47 -28h-243q-46 0 -37 45l88 387q6 35 45 35h395q25 0 33.5 -14t-2.5 -36z" />
<glyph unicode="&#x201e;" horiz-adv-x="1404" d="M465 -94q-15 -27 -47 -27h-246q-21 0 -31 11.5t-6 31.5l88 387q8 37 45 37h398q23 0 31.5 -14.5t-3.5 -34.5zM1020 -94q-15 -27 -47 -27h-244q-22 0 -31.5 11.5t-5.5 31.5l88 387q5 37 45 37h396q24 0 32 -14.5t-4 -34.5z" />
<glyph unicode="&#x2020;" horiz-adv-x="1243" d="M760 1477q42 0 39 -43l-31 -377l358 22q20 1 31.5 -10t11.5 -31v-235q0 -20 -11.5 -31t-31.5 -10l-358 24l33 -854q0 -41 -39 -41h-281q-39 0 -39 41l31 854l-358 -24q-20 -1 -31.5 10t-11.5 31v235q0 20 11.5 31t31.5 10l358 -22l-29 377q-3 43 39 43h277z" />
<glyph unicode="&#x2021;" horiz-adv-x="1243" d="M752 1477q44 0 41 -43l-25 -330l358 24q20 1 31.5 -10t11.5 -31v-231q0 -20 -11.5 -31t-31.5 -10l-358 27v-305l358 26q20 1 31.5 -10t11.5 -31v-231q0 -20 -11.5 -31t-31.5 -10l-358 24l25 -340q3 -43 -41 -43h-265q-44 0 -41 43l23 340l-352 -24q-20 -1 -31.5 10 t-11.5 31v231q0 42 43 39l352 -24v305l-352 -25q-43 -3 -43 39v231q0 20 11.5 31t31.5 10l352 -24l-23 330q-3 43 41 43h265z" />
<glyph unicode="&#x2022;" horiz-adv-x="1044" d="M522 274q-154 0 -256 102.5t-102 256.5t102 256t256 102t256.5 -102t102.5 -256t-102.5 -256.5t-256.5 -102.5z" />
<glyph unicode="&#x2026;" horiz-adv-x="2068" d="M557 41q0 -41 -41 -41h-373q-41 0 -41 41v311q0 41 41 41h373q41 0 41 -41v-311zM1262 41q0 -41 -41 -41h-373q-41 0 -41 41v311q0 41 41 41h373q41 0 41 -41v-311zM1966 41q0 -41 -41 -41h-373q-41 0 -41 41v311q0 41 41 41h373q41 0 41 -41v-311z" />
<glyph unicode="&#x202f;" horiz-adv-x="399" />
<glyph unicode="&#x2030;" horiz-adv-x="3022" d="M496 1450q186 0 301.5 -114t115.5 -312q0 -144 -62 -250.5t-158.5 -157.5t-211.5 -51t-210.5 49.5t-155.5 149.5t-60 233q0 201 123 327t316 126h2zM561 -20q-25 0 -33 14.5t4 34.5l797 1386q15 29 49 29h121q25 0 33 -14.5t-4 -34.5l-797 -1387q-14 -28 -49 -28h-121z M485 1243q-133 0 -133 -235q0 -238 137 -238q63 0 95 57t32 181q0 119 -29.5 177t-99.5 58h-2zM1595 862q186 0 303 -113t117 -311q0 -109 -35.5 -197t-96 -143.5t-137.5 -85.5t-163 -30q-115 0 -210.5 49.5t-154.5 149t-59 231.5q0 202 120.5 326t313.5 124h2zM2546 862 q186 0 303 -113t117 -311q0 -109 -36 -197t-96.5 -143.5t-137.5 -85.5t-163 -30q-116 0 -211.5 49t-155 148.5t-59.5 232.5q0 201 122 325.5t315 124.5h2zM1587 657q-133 0 -133 -237q0 -236 137 -236q63 0 95 57t32 181q0 119 -29.5 177t-99.5 58h-2zM2537 657 q-133 0 -133 -235q0 -238 136 -238q129 0 129 238q0 119 -29.5 177t-99.5 58h-3z" />
<glyph unicode="&#x2039;" horiz-adv-x="616" d="M467 930q20 12 33.5 4t13.5 -31v-223q0 -31 -27 -49l-108 -84l108 -84q27 -18 27 -49v-224q0 -23 -13.5 -30.5t-33.5 4.5l-338 201q-27 18 -27 49v266q0 31 27 49z" />
<glyph unicode="&#x203a;" horiz-adv-x="616" d="M152 930l335 -201q27 -18 27 -49v-266q0 -31 -27 -49l-335 -201q-22 -12 -36 -4.5t-14 30.5v224q0 31 27 49l109 84l-109 84q-27 18 -27 49v223q0 23 14 31t36 -4z" />
<glyph unicode="&#x2044;" horiz-adv-x="1091" d="M795 1466q16 29 49 29h268q25 0 33 -14.5t-4 -34.5l-838 -1442q-16 -29 -49 -29h-272q-25 0 -33 15t4 35z" />
<glyph unicode="&#x205f;" horiz-adv-x="498" />
<glyph unicode="&#x20ac;" horiz-adv-x="1644" d="M1563 489q44 0 41 -40q-8 -95 -37.5 -168t-88 -132.5t-148 -98t-219 -59t-300.5 -20.5q-177 0 -312 37t-222.5 102t-142 161t-77 205.5t-22.5 244.5q0 132 22.5 239t77.5 202t141.5 159.5t222 101.5t312.5 37q178 0 310.5 -19.5t221 -55.5t144.5 -93t82.5 -125t34.5 -159 q3 -41 -41 -41h-508q-34 0 -43 39q-9 44 -52 65t-129 21q-98 0 -142.5 -55t-55.5 -187h440q41 0 41 -41v-184q0 -41 -41 -41h-440q10 -144 53 -196t145 -52q99 0 138 26t47 89q6 38 41 38h506z" />
<glyph unicode="&#x2113;" horiz-adv-x="1261" d="M1194 330q25 -26 6 -58q-182 -286 -518 -286q-350 0 -432 293q-2 6 -2 16q-23 -13 -66 -43q-38 -26 -57 14l-59 117q-16 36 14 57q25 18 79.5 55.5t80.5 57.5v436q0 286 120.5 433t333.5 147q93 0 165 -31t116 -85.5t66 -124t22 -150.5q0 -174 -111.5 -335.5 t-339.5 -350.5l4 -66q5 -60 49 -99.5t113 -39.5q131 0 258 145q31 34 60 2zM612 813q90 94 142.5 196.5t52.5 178.5q0 131 -88 131q-107 0 -107 -272v-234z" />
<glyph unicode="&#x2122;" horiz-adv-x="2240" d="M915 1434q41 0 41 -41v-154q0 -41 -41 -41h-239v-580q0 -40 -41 -40h-293q-41 0 -41 40v580h-238q-40 0 -40 41v154q0 41 40 41h852zM2159 1434q41 0 41 -41v-775q0 -40 -41 -40h-238q-39 0 -39 40l14 535l-75 -362q-27 -116 -45 -179q-8 -34 -45 -34h-244q-37 0 -45 34 l-45 179l-74 350l16 -523q0 -40 -39 -40h-241q-41 0 -41 40v775q0 41 41 41h416q35 0 45 -37l28 -129l51 -326l11 -102l8 102l51 326l29 129q10 37 45 37h416z" />
<glyph unicode="&#x212e;" horiz-adv-x="1785" d="M383 698q-12 0 -12 -8v-403q0 -23 18 -45q99 -103 229.5 -161t274.5 -58q157 0 294 65t236 180h117q-110 -132 -282 -209t-367 -77q-168 0 -320 58t-261.5 157t-174.5 235.5t-65 286.5q0 151 65 288.5t174.5 236.5t261.5 157.5t320 58.5t320 -58.5t262.5 -157.5 t175.5 -236.5t65 -288.5v-21h-1331zM1411 1157q0 29 -18 47q-100 98 -229 154.5t-271 56.5t-272 -58t-230 -159q-20 -20 -20 -49v-397q0 -4 3.5 -8.5t8.5 -4.5h1020q8 0 8 13v405z" />
<glyph unicode="&#x215b;" horiz-adv-x="2746" d="M1937 1495q25 0 33 -14.5t-4 -34.5l-838 -1442q-16 -29 -49 -29h-272q-25 0 -33 15t4 35l842 1441q16 29 49 29h268zM956 565q0 -26 -24 -26h-635q-27 0 -27 26v195q0 24 27 24h141v351l-137 -93q-13 -8 -22 -2.5t-9 21.5v233q0 20 17 29l192 104q15 9 31 9h278 q27 0 27 -27v-625h117q24 0 24 -24v-195zM2576 399q40 -32 55 -69.5t15 -91.5q0 -47 -11 -83.5t-41.5 -70.5t-81.5 -56t-134.5 -35t-196.5 -13q-114 0 -198 13t-135 35t-81.5 56t-41.5 70.5t-11 83.5q0 54 15.5 91.5t56.5 69.5q19 19 80 41q-66 28 -80 45q-66 63 -66 168 q0 48 10.5 83t40 67.5t80 53t133.5 32.5t197 12t196.5 -12t132.5 -32.5t79.5 -53t40 -67.5t10.5 -83q0 -105 -66 -168q-14 -18 -77 -45q61 -23 79 -41zM2181 537q53 0 81 16t28 59q0 34 -25 49t-84 15q-60 0 -84 -15t-24 -49q0 -43 27 -59t81 -16zM2181 205q58 0 81.5 14 t23.5 47q0 86 -105 86q-53 0 -78.5 -20t-25.5 -66q0 -33 23 -47t81 -14z" />
<glyph unicode="&#x215c;" horiz-adv-x="2934" d="M2126 1495q24 0 32 -14.5t-4 -34.5l-837 -1442q-16 -29 -49 -29h-273q-24 0 -32 15t4 35l841 1441q16 29 50 29h268zM1217 791q0 -47 -11 -83.5t-42 -70.5t-82.5 -56.5t-136.5 -35.5t-200 -13q-144 0 -231.5 14t-140 51t-71.5 91.5t-21 145.5q0 24 26 24h309q25 0 25 -24 q3 -49 22.5 -63.5t81.5 -14.5q49 0 70 15t21 52q0 82 -91 82h-190q-27 0 -27 25v135q0 12 7.5 19.5t19.5 7.5h190q24 0 38 1.5t29.5 8t22.5 22t7 39.5q0 37 -23 52.5t-80 15.5q-48 0 -65 -14t-19 -52q0 -24 -26 -24h-310q-26 0 -26 24q2 70 15 116t41.5 81.5t80 54.5 t125.5 28t184 9q117 0 202 -12t136.5 -32.5t81.5 -53t40.5 -67.5t10.5 -83q0 -97 -45 -162q-20 -25 -75 -53q51 -23 75 -47q52 -60 52 -153zM2763 399q39 -32 54 -69.5t15 -91.5q0 -47 -11 -83.5t-41.5 -70.5t-81.5 -56t-134.5 -35t-196.5 -13q-114 0 -197.5 13t-134.5 35 t-81.5 56t-41.5 70.5t-11 83.5q0 54 15 91.5t56 69.5q19 19 80 41q-66 28 -80 45q-65 62 -65 168q0 48 10.5 83t40 67.5t79.5 53t133 32.5t197 12t196.5 -12t132.5 -32.5t79.5 -53t40 -67.5t10.5 -83q0 -106 -65 -168q-14 -17 -78 -45q63 -24 80 -41zM2367 537q53 0 81 16 t28 59q0 34 -25 49t-84 15q-60 0 -84 -15t-24 -49q0 -43 27 -59t81 -16zM2367 205q58 0 81.5 14t23.5 47q0 86 -105 86q-53 0 -78.5 -20t-25.5 -66q0 -33 23 -47t81 -14z" />
<glyph unicode="&#x215d;" horiz-adv-x="2736" d="M1927 1495q25 0 33 -14.5t-4 -34.5l-838 -1442q-16 -29 -49 -29h-272q-25 0 -33 15t4 35l842 1441q16 29 49 29h268zM1020 836q0 -175 -95 -245.5t-345 -70.5q-188 0 -290.5 30.5t-143.5 93t-44 177.5q0 27 25 27h324q23 0 26 -27q3 -41 21 -56t63 -15q49 0 65.5 18 t16.5 66q0 57 -21.5 68t-113.5 11h-363q-26 0 -26 25v471q0 27 26 27h834q25 0 25 -27v-190q0 -25 -25 -25h-508v-72h137q89 0 147 -4t107.5 -15.5t77 -30.5t47 -52t26.5 -76.5t7 -107.5zM2564 399q40 -32 55 -69.5t15 -91.5q0 -47 -11 -83.5t-41.5 -70.5t-81.5 -56 t-134.5 -35t-196.5 -13q-114 0 -198 13t-135 35t-81.5 56t-41.5 70.5t-11 83.5q0 54 15.5 91.5t56.5 69.5q19 19 79 41q-65 27 -79 45q-66 63 -66 168q0 48 10.5 83t40 67.5t80 53t133.5 32.5t197 12t196.5 -12t132.5 -32.5t79.5 -53t40 -67.5t10.5 -83q0 -105 -66 -168 q-14 -17 -78 -45q63 -24 80 -41zM2169 537q52 0 80 16t28 59q0 34 -24.5 49t-83.5 15q-60 0 -84.5 -15t-24.5 -49q0 -43 27.5 -59t81.5 -16zM2169 205q58 0 81 14t23 47q0 86 -104 86q-53 0 -79 -20t-26 -66q0 -33 23.5 -47t81.5 -14z" />
<glyph unicode="&#x215e;" horiz-adv-x="2725" d="M1915 1495q25 0 33 -14.5t-4 -34.5l-838 -1442q-16 -29 -49 -29h-273q-24 0 -32 15t4 35l841 1441q16 29 50 29h268zM1130 1241l-376 -684q-9 -18 -31 -18h-334q-15 0 -20 8.5t2 21.5l288 529l66 90h-434q-25 0 -25 26v195q0 27 25 27h823q25 0 25 -27v-137q0 -16 -9 -31 zM2554 399q39 -32 54 -69.5t15 -91.5q0 -47 -11 -83.5t-41.5 -70.5t-81 -56t-134 -35t-196.5 -13q-114 0 -198 13t-135 35t-81.5 56t-41.5 70.5t-11 83.5q0 54 15 91.5t56 69.5q19 19 80 41q-66 28 -80 45q-65 62 -65 168q0 48 10.5 83t40 67.5t80 53t133.5 32.5t197 12 t196.5 -12t132.5 -32.5t79 -53t39.5 -67.5t10.5 -83q0 -106 -65 -168q-14 -17 -78 -45q63 -24 80 -41zM2159 537q52 0 80 16t28 59q0 34 -24.5 49t-83.5 15q-60 0 -84.5 -15t-24.5 -49q0 -43 27.5 -59t81.5 -16zM2159 205q58 0 81 14t23 47q0 86 -104 86q-53 0 -79 -20 t-26 -66q0 -33 23.5 -47t81.5 -14z" />
<glyph unicode="&#x2190;" horiz-adv-x="1863" d="M1710 1040q41 3 41 -39v-559q0 -42 -41 -39l-899 56l25 -273q3 -28 -12.5 -37.5t-35.5 9.5l-641 536q-32 29 0 58l641 534q22 19 36.5 10.5t11.5 -36.5l-27 -275z" />
<glyph unicode="&#x2191;" horiz-adv-x="1443" d="M1284 963q17 -20 9.5 -35.5t-33.5 -12.5l-275 25l55 -899q3 -41 -39 -41h-559q-42 0 -39 41l56 901l-275 -27q-26 -3 -33.5 12.5t9.5 35.5l532 641q29 37 58 0z" />
<glyph unicode="&#x2192;" horiz-adv-x="1863" d="M1716 752q32 -29 0 -58l-641 -534q-20 -19 -35 -10.5t-12 36.5l25 273l-899 -56q-41 -3 -41 39v559q0 42 41 39l901 -55l-27 275q-3 28 11 36t36 -10z" />
<glyph unicode="&#x2193;" horiz-adv-x="1443" d="M1260 723q26 3 34.5 -12t-8.5 -35l-536 -641q-29 -37 -58 0l-532 641q-17 20 -9.5 35t33.5 12l275 -27l-56 901q-3 41 39 41h559q42 0 39 -41l-55 -899z" />
<glyph unicode="&#x2194;" horiz-adv-x="2402" d="M2255 731q36 -28 0 -57l-639 -533q-20 -19 -35 -10.5t-12 37.5l30 244h-794l29 -244q3 -29 -11.5 -37.5t-36.5 10.5l-639 533q-32 29 0 57l639 533q23 19 38 10.5t10 -37.5l-31 -246h796l-30 246q-3 29 11 37.5t36 -10.5z" />
<glyph unicode="&#x2195;" horiz-adv-x="1443" d="M1257 336q28 3 36 -12t-11 -35l-532 -639q-29 -37 -58 0l-532 639q-19 22 -11.5 36t35.5 11l248 -31v797l-246 -31q-28 -4 -35.5 10.5t9.5 36.5l532 639q29 37 58 0l532 -639q19 -22 11 -36t-36 -11l-245 29l-2 -795z" />
<glyph unicode="&#x2196;" horiz-adv-x="1609" d="M1466 553q30 -29 2 -57l-395 -398q-27 -28 -57 2l-596 676l-176 -211q-17 -22 -34 -16.5t-20 33.5l-73 829q-3 44 41 41l829 -74q28 -3 33.5 -19.5t-16.5 -33.5l-213 -176z" />
<glyph unicode="&#x2197;" horiz-adv-x="1609" d="M1452 1452q44 3 41 -41l-76 -829q-2 -28 -18 -33.5t-33 16.5l-174 211l-598 -676q-28 -31 -57 -2l-396 398q-27 28 2 57l676 596l-213 176q-22 17 -16.5 33.5t33.5 19.5z" />
<glyph unicode="&#x2198;" horiz-adv-x="1611" d="M1495 111q2 -22 -9 -33t-32 -8l-829 73q-28 3 -33.5 19t16.5 35l211 174l-676 596q-29 29 -2 57l398 395q29 29 57 -2l596 -674l176 213q17 22 33.5 17t19.5 -33z" />
<glyph unicode="&#x2199;" horiz-adv-x="1611" d="M1470 1032q28 -28 -2 -57l-675 -596l211 -176q22 -17 16.5 -33.5t-33.5 -19.5l-829 -74q-21 -1 -32 9.5t-9 31.5l73 829q3 28 20 33.5t34 -16.5l176 -213l598 675q28 31 57 2z" />
<glyph unicode="&#x2202;" horiz-adv-x="1359" d="M135 1456q-12 35 17 55q184 109 432 109q145 0 270.5 -55t217.5 -155.5t145 -251t53 -331.5q0 -193 -51 -351t-142 -265t-219 -165t-280 -58q-101 0 -187.5 32.5t-145 84.5t-100 118t-60.5 133.5t-19 130.5q0 237 138.5 390t362.5 153q63 0 119.5 -17t96 -43.5t65 -50.5 t41.5 -47h2q2 8 2 41q0 74 -23.5 145.5t-67 130.5t-114.5 95.5t-158 36.5q-143 0 -268 -70q-37 -22 -53 19zM621 285q62 0 114.5 51.5t81.5 120.5t39 139q-11 48 -65.5 96.5t-133.5 48.5q-95 0 -153 -77.5t-58 -186.5q0 -82 49.5 -137t122.5 -55h3z" />
<glyph unicode="&#x220f;" horiz-adv-x="1667" d="M1399 1100v-1256q0 -41 -41 -41h-295q-41 0 -41 41v1256h-379v-1256q0 -41 -41 -41h-295q-41 0 -41 41v1256h-182q-41 0 -41 41v243q0 41 41 41h1499q41 0 41 -41v-243q0 -41 -41 -41h-184z" />
<glyph unicode="&#x2211;" horiz-adv-x="1294" d="M88 -197q-41 0 -41 41v148q0 26 19 51l479 567l-459 543q-18 24 -18 51v180q0 41 41 41h1067q41 0 41 -41v-231q0 -41 -41 -41h-586v-6l362 -416q23 -28 0 -57l-411 -494v-8h682q41 0 41 -41v-246q0 -41 -41 -41h-1135z" />
<glyph unicode="&#x2212;" horiz-adv-x="1216" d="M141 473q-41 0 -41 41v129q0 41 41 41h932q41 0 41 -41v-129q0 -41 -41 -41h-932z" />
<glyph unicode="&#x221a;" horiz-adv-x="1386" d="M920 -254q-9 -35 -48 -35h-223q-34 0 -47 33l-321 825l-123 -49q-39 -16 -52 25l-34 108q-12 36 24 52l367 153q42 17 53 -22l195 -555q41 -143 53 -189l4 -2q41 208 41 209l356 1380q9 35 45 35h181q22 0 31 -12.5t3 -32.5z" />
<glyph unicode="&#x221e;" horiz-adv-x="1665" d="M1569 588q0 -91 -30.5 -166.5t-81.5 -124t-115.5 -75.5t-133.5 -27q-47 0 -87 8.5t-89.5 31t-100.5 71t-100 120.5q-87 -115 -176 -173t-209 -58q-68 0 -131.5 27t-112.5 75t-78.5 120.5t-29.5 157.5q0 171 106.5 278.5t266.5 107.5q117 0 206 -54t171 -166 q4 5 28.5 32.5t34.5 38t36 35.5t43 37t46.5 30t55.5 26.5t60.5 15t70.5 5.5q146 0 248 -102.5t102 -268.5v-2zM473 385q71 0 131.5 49t124.5 133q-73 104 -101 134q-71 75 -163 75q-78 0 -128 -54.5t-50 -146.5q0 -77 53.5 -133.5t128.5 -56.5h4zM1198 776q-28 0 -54 -7.5 t-52 -26.5t-42 -31.5t-42.5 -44t-34 -41t-33.5 -43.5q86 -117 142.5 -157t129.5 -40q72 0 117 60.5t45 127.5q0 86 -47.5 144.5t-126.5 58.5h-2z" />
<glyph unicode="&#x222b;" horiz-adv-x="907" d="M848 1563q-5 -39 -47 -33q-24 4 -41 4q-75 0 -115 -59q-45 -67 -45 -322q0 -164 17.5 -450.5t17.5 -487.5q0 -267 -70 -401q-51 -97 -140.5 -143t-193.5 -46q-90 0 -161 23q-35 9 -29 49l29 168q6 40 47 31q28 -7 53 -7q67 0 100 41q28 36 40 101t12 184 q0 204 -18.5 500.5t-18.5 474.5q0 183 34.5 295t110.5 190q50 53 130 80t167 27q44 0 111 -13q36 -9 30 -47z" />
<glyph unicode="&#x2248;" horiz-adv-x="1210" d="M1116 877q27 -27 6 -58q-65 -94 -143 -144t-156 -50q-67 0 -118 18t-125 62q-37 23 -58.5 35t-55 22t-67.5 10q-53 0 -96 -29.5t-88 -83.5q-12 -15 -28 -15.5t-29 13.5l-70 70q-26 26 -8 57q58 84 146.5 138.5t181.5 54.5q70 0 121 -18t104 -50q54 -34 74 -45.5t49.5 -22 t58.5 -10.5q87 0 174 111q12 17 28.5 17.5t29.5 -13.5zM1116 453q27 -27 6 -58q-135 -196 -303 -196q-63 0 -114.5 19.5t-124.5 62.5q-57 35 -95 51t-84 16q-56 0 -97 -28t-89 -84q-12 -17 -28 -18t-29 13l-70 72q-26 29 -6 57q57 83 146 138t182 55q48 0 91.5 -11t69 -23.5 t60.5 -33.5q15 -9 45 -27.5t46 -27t41 -16.5t50 -8q51 0 91 27.5t85 84.5q12 17 28.5 17.5t29.5 -13.5z" />
<glyph unicode="&#x2260;" horiz-adv-x="1228" d="M844 911h229q41 0 41 -41v-120q0 -41 -41 -41h-311l-113 -260h424q41 0 41 -41v-121q0 -41 -41 -41h-508l-88 -203q-14 -36 -53 -20l-88 36q-38 15 -23 54l60 133h-232q-41 0 -41 41v121q0 41 41 41h314l112 260h-426q-41 0 -41 41v120q0 41 41 41h510l86 197 q15 35 54 20l88 -34q38 -15 22 -56z" />
<glyph unicode="&#x2264;" horiz-adv-x="1218" d="M137 684q-31 16 -31 47v156q0 31 31 47l924 422q22 10 34.5 1.5t12.5 -32.5v-141q0 -36 -31 -49l-760 -324v-4l762 -326q31 -13 31 -49v-141q0 -24 -12.5 -32.5t-34.5 1.5zM143 -41q-41 0 -41 41v127q0 41 41 41h932q41 0 41 -41v-127q0 -41 -41 -41h-932z" />
<glyph unicode="&#x2265;" horiz-adv-x="1216" d="M1081 934q31 -16 31 -47v-156q0 -31 -31 -47l-921 -422q-22 -10 -34.5 -1.5t-12.5 32.5v141q0 34 30 49l760 326v4l-762 324q-30 13 -30 49v141q0 24 12.5 32.5t34.5 -1.5zM145 -39q-41 0 -41 41v127q0 41 41 41h920q41 0 41 -41v-127q0 -41 -41 -41h-920z" />
<glyph unicode="&#x25ca;" horiz-adv-x="1386" d="M850 -74q-14 -28 -49 -28h-230q-33 0 -49 28l-409 756q-15 27 2 57l417 758q14 29 50 29h229q35 0 49 -29l414 -758q14 -25 -2 -57zM733 1137q-2 7 -18 49t-21 61h-6q-10 -43 -41 -110l-221 -420l225 -441q27 -64 37 -102h8q24 74 37 98l225 430z" />
<glyph unicode="&#x25fc;" horiz-adv-x="1024" d="M0 1024h1024v-1024h-1024v1024z" />
<glyph unicode="&#xfb00;" horiz-adv-x="1943" d="M1849 1120q-123 21 -159 2t-41 -98h206q41 0 41 -41v-272q0 -41 -41 -41h-206v-629q0 -41 -41 -41h-502q-41 0 -41 41v629h-109h-8h-182v-629q0 -41 -41 -41h-500q-41 0 -41 41v629h-108q-41 0 -41 41v272q0 41 41 41h108q4 97 22 167.5t56.5 124.5t98 85.5t147.5 46.5 t202.5 11.5t266.5 -23.5q39 -6 39 -43v-236q0 -43 -47 -37q-125 21 -161.5 2t-39.5 -98h297q4 97 22 167.5t57 124.5t98.5 85.5t147.5 46.5t202.5 11.5t265.5 -23.5q38 -6 38 -43v-236q0 -43 -47 -37z" />
<glyph unicode="&#xfb03;" horiz-adv-x="2740" d="M1886 1436q39 -6 39 -43v-236q0 -43 -47 -37q-123 21 -159.5 2t-41.5 -98h207q41 0 41 -41v-272q0 -41 -41 -41h-207v-629q0 -41 -41 -41h-501q-41 0 -41 41v629h-109h-8h-2h-209v-629q0 -41 -41 -41h-500q-41 0 -41 41v629h-108q-41 0 -41 41v272q0 41 41 41h108 q4 97 22 167.5t56.5 124.5t98 85.5t147.5 46.5t202.5 11.5t266.5 -23.5q39 -6 39 -43v-236q0 -43 -47 -37q-125 21 -161.5 2t-39.5 -98h207h4h6h109q4 97 22 167.5t57 124.5t98 85.5t147 46.5t202.5 11.5t265.5 -23.5zM2597 1434q41 0 41 -41v-213q0 -41 -41 -41h-510 q-41 0 -41 41v213q0 41 41 41h510zM2597 1024q41 0 41 -41v-942q0 -41 -41 -41h-510q-41 0 -41 41v942q0 41 41 41h510z" />
<glyph unicode="&#xfb04;" horiz-adv-x="2719" d="M1886 1436q39 -6 39 -43v-236q0 -43 -47 -37q-123 21 -159.5 2t-41.5 -98h207q41 0 41 -41v-272q0 -41 -41 -41h-207v-629q0 -41 -41 -41h-501q-41 0 -41 41v629h-109h-8h-2h-209v-629q0 -41 -41 -41h-500q-41 0 -41 41v629h-108q-41 0 -41 41v272q0 41 41 41h108 q4 97 22 167.5t56.5 124.5t98 85.5t147.5 46.5t202.5 11.5t266.5 -23.5q39 -6 39 -43v-236q0 -43 -47 -37q-125 21 -161.5 2t-39.5 -98h207h4h6h109q4 97 22 167.5t57 124.5t98 85.5t147 46.5t202.5 11.5t265.5 -23.5zM2576 1434q41 0 41 -41v-1352q0 -41 -41 -41h-510 q-41 0 -41 41v1352q0 41 41 41h510z" />
<glyph horiz-adv-x="1329" d="M1194 1038h-231v-643h231q41 0 41 -41v-313q0 -41 -41 -41h-1059q-41 0 -41 41v313q0 41 41 41h234v643h-234q-41 0 -41 41v314q0 41 41 41h1059q41 0 41 -41v-314q0 -41 -41 -41z" />
<glyph horiz-adv-x="1329" d="M492 1556q-25 0 -32.5 15t7.5 35l184 254q19 24 51 24h406q27 0 33.5 -14.5t-11.5 -34.5l-235 -256q-20 -23 -49 -23h-354zM1194 1038h-231v-643h231q41 0 41 -41v-313q0 -41 -41 -41h-1059q-41 0 -41 41v313q0 41 41 41h234v643h-234q-41 0 -41 41v314q0 41 41 41h1059 q41 0 41 -41v-314q0 -41 -41 -41z" />
<glyph horiz-adv-x="1329" d="M668 1536q-174 0 -285.5 66.5t-128.5 197.5q-3 43 41 43h213q11 0 19.5 -5t12 -9t13.5 -17q37 -43 115 -43t112 43q1 1 4 5t4 5t3.5 4.5t3.5 4.5t4 3.5t4.5 3t4 2t5 2t6 1t6.5 0.5h213q44 0 41 -43q-17 -131 -127 -197.5t-284 -66.5zM1194 1038h-231v-643h231 q41 0 41 -41v-313q0 -41 -41 -41h-1059q-41 0 -41 41v313q0 41 41 41h234v643h-234q-41 0 -41 41v314q0 41 41 41h1059q41 0 41 -41v-314q0 -41 -41 -41z" />
<glyph horiz-adv-x="1329" d="M244 1556q-25 0 -32.5 14t7.5 36l219 295q16 24 49 24h357q33 0 49 -24l219 -295q15 -22 7.5 -36t-32.5 -14h-272q-28 0 -51 23l-98 104l-99 -104q-23 -23 -51 -23h-272zM1194 1038h-231v-643h231q41 0 41 -41v-313q0 -41 -41 -41h-1059q-41 0 -41 41v313q0 41 41 41h234 v643h-234q-41 0 -41 41v314q0 41 41 41h1059q41 0 41 -41v-314q0 -41 -41 -41z" />
<glyph horiz-adv-x="1329" d="M238 1556q-41 0 -41 41v205q0 41 41 41h335q41 0 41 -41v-205q0 -41 -41 -41h-335zM758 1556q-41 0 -41 41v205q0 41 41 41h336q41 0 41 -41v-205q0 -41 -41 -41h-336zM1194 1038h-231v-643h231q41 0 41 -41v-313q0 -41 -41 -41h-1059q-41 0 -41 41v313q0 41 41 41h234 v643h-234q-41 0 -41 41v314q0 41 41 41h1059q41 0 41 -41v-314q0 -41 -41 -41z" />
<glyph horiz-adv-x="1329" d="M487 1556q-41 0 -41 41v205q0 41 41 41h359q41 0 41 -41v-205q0 -41 -41 -41h-359zM1194 1038h-231v-643h231q41 0 41 -41v-313q0 -41 -41 -41h-1059q-41 0 -41 41v313q0 41 41 41h234v643h-234q-41 0 -41 41v314q0 41 41 41h1059q41 0 41 -41v-314q0 -41 -41 -41z" />
<glyph horiz-adv-x="1329" d="M465 1579l-236 256q-20 20 -12.5 34.5t35.5 14.5h405q33 0 52 -24l184 -254q14 -20 6.5 -35t-31.5 -15h-354q-29 0 -49 23zM1194 1038h-231v-643h231q41 0 41 -41v-313q0 -41 -41 -41h-1059q-41 0 -41 41v313q0 41 41 41h234v643h-234q-41 0 -41 41v314q0 41 41 41h1059 q41 0 41 -41v-314q0 -41 -41 -41z" />
<glyph horiz-adv-x="1329" d="M289 1556q-41 0 -41 41v205q0 41 41 41h753q41 0 41 -41v-205q0 -41 -41 -41h-753zM1194 1038h-231v-643h231q41 0 41 -41v-313q0 -41 -41 -41h-1059q-41 0 -41 41v313q0 41 41 41h234v643h-234q-41 0 -41 41v314q0 41 41 41h1059q41 0 41 -41v-314q0 -41 -41 -41z" />
<glyph horiz-adv-x="1329" d="M1194 1038h-231v-643h231q41 0 41 -41v-313q0 -38 -35 -41q-95 -32 -149 -51.5t-94 -37.5t-52.5 -31.5t-7.5 -26.5q13 -28 135 18q39 16 53 -18l74 -152q19 -39 -20 -55q-100 -42 -205 -51t-187.5 13t-135 76.5t-52.5 131.5q0 150 191 184h-615q-41 0 -41 41v313 q0 41 41 41h234v643h-234q-41 0 -41 41v314q0 41 41 41h1059q41 0 41 -41v-314q0 -41 -41 -41z" />
<glyph horiz-adv-x="1329" d="M293 1604q-20 -15 -32.5 -10t-12.5 30v164q0 30 18 51q62 62 168 62q58 0 120 -16.5t107.5 -36t106.5 -36t117 -16.5q89 0 151 43q47 29 47 -20v-166q0 -31 -20 -49q-68 -62 -170 -62q-57 0 -119 16.5t-108 36t-107 36t-117 16.5q-89 0 -149 -43zM1194 1038h-231v-643 h231q41 0 41 -41v-313q0 -41 -41 -41h-1059q-41 0 -41 41v313q0 41 41 41h234v643h-234q-41 0 -41 41v314q0 41 41 41h1059q41 0 41 -41v-314q0 -41 -41 -41z" />
<glyph horiz-adv-x="1247" d="M1155 1434q41 0 41 -41v-314q0 -41 -41 -41h-182v-475q0 -136 -14 -230.5t-51 -169.5t-96.5 -117.5t-154.5 -65t-220 -21t-298 22.5q-39 3 -39 43l2 340q0 44 48 34q36 -6 61 -9.5t48.5 -3t38.5 1.5t29 11.5t21.5 19t14 31.5t9 41t4.5 55.5t2.5 68.5t0.5 85v338h-238 q-41 0 -41 41l2 314q0 41 41 41h1012z" />
<glyph horiz-adv-x="1247" d="M227 1556q-25 0 -32 14t8 36l219 295q16 24 49 24h356q34 0 50 -24l219 -295q15 -22 7.5 -36t-32.5 -14h-272q-28 0 -51 23l-99 104l-98 -104q-23 -23 -51 -23h-273zM1155 1434q41 0 41 -41v-314q0 -41 -41 -41h-182v-475q0 -136 -14 -230.5t-51 -169.5t-96.5 -117.5 t-154.5 -65t-220 -21t-298 22.5q-39 3 -39 43l2 340q0 44 48 34q36 -6 61 -9.5t48.5 -3t38.5 1.5t29 11.5t21.5 19t14 31.5t9 41t4.5 55.5t2.5 68.5t0.5 85v338h-238q-41 0 -41 41l2 314q0 41 41 41h1012z" />
<glyph d="M774 1044q195 0 330 -20.5t213.5 -63t112.5 -100t34 -137.5v-682q0 -41 -41 -41h-458q-41 0 -41 41v84q-132 -156 -387 -156q-262 0 -373 80.5t-111 267.5q0 82 36.5 141t96.5 90.5t136 51.5t156 26t156 12t136 10.5t96.5 21t36.5 45.5q0 34 -22.5 48.5t-85.5 14.5 q-66 0 -92.5 -12t-32.5 -49q-6 -41 -41 -41h-490q-41 0 -41 24q3 99 33 161t106.5 105t205 60.5t331.5 17.5zM750 272q87 0 120 20t33 85v43q-176 -19 -223 -35q-50 -19 -51 -49q0 -33 25.5 -48.5t95.5 -15.5z" />
<glyph d="M598 1147q-25 0 -32.5 14.5t7.5 34.5l185 254q19 25 51 25h405q27 0 34 -15t-11 -35l-236 -256q-19 -22 -49 -22h-354zM774 1044q195 0 330 -20.5t213.5 -63t112.5 -100t34 -137.5v-682q0 -41 -41 -41h-458q-41 0 -41 41v84q-132 -156 -387 -156q-262 0 -373 80.5 t-111 267.5q0 82 36.5 141t96.5 90.5t136 51.5t156 26t156 12t136 10.5t96.5 21t36.5 45.5q0 34 -22.5 48.5t-85.5 14.5q-66 0 -92.5 -12t-32.5 -49q-6 -41 -41 -41h-490q-41 0 -41 24q3 99 33 161t106.5 105t205 60.5t331.5 17.5zM750 272q87 0 120 20t33 85v43 q-176 -19 -223 -35q-50 -19 -51 -49q0 -33 25.5 -48.5t95.5 -15.5z" />
<glyph d="M774 1126q-174 0 -285.5 67t-128.5 198q-3 43 41 43h213q11 0 19.5 -5t12 -9t13.5 -17q37 -43 115 -43q79 0 113 43q1 1 4 5t4 5t3.5 4.5t3.5 4.5t4 3.5t4.5 3t4 2t5 2t6 1t6.5 0.5h213q44 0 41 -43q-17 -131 -127.5 -198t-284.5 -67zM774 1044q195 0 330 -20.5 t213.5 -63t112.5 -100t34 -137.5v-682q0 -41 -41 -41h-458q-41 0 -41 41v84q-132 -156 -387 -156q-262 0 -373 80.5t-111 267.5q0 82 36.5 141t96.5 90.5t136 51.5t156 26t156 12t136 10.5t96.5 21t36.5 45.5q0 34 -22.5 48.5t-85.5 14.5q-66 0 -92.5 -12t-32.5 -49 q-6 -41 -41 -41h-490q-41 0 -41 24q3 99 33 161t106.5 105t205 60.5t331.5 17.5zM750 272q87 0 120 20t33 85v43q-176 -19 -223 -35q-50 -19 -51 -49q0 -33 25.5 -48.5t95.5 -15.5z" />
<glyph d="M352 1147q-25 0 -32 13.5t8 35.5l219 295q17 25 49 25h356q32 0 49 -25l220 -295q15 -22 7.5 -35.5t-32.5 -13.5h-272q-30 0 -52 22l-98 105l-98 -105q-22 -22 -51 -22h-273zM774 1044q195 0 330 -20.5t213.5 -63t112.5 -100t34 -137.5v-682q0 -41 -41 -41h-458 q-41 0 -41 41v84q-132 -156 -387 -156q-262 0 -373 80.5t-111 267.5q0 82 36.5 141t96.5 90.5t136 51.5t156 26t156 12t136 10.5t96.5 21t36.5 45.5q0 34 -22.5 48.5t-85.5 14.5q-66 0 -92.5 -12t-32.5 -49q-6 -41 -41 -41h-490q-41 0 -41 24q3 99 33 161t106.5 105 t205 60.5t331.5 17.5zM750 272q87 0 120 20t33 85v43q-176 -19 -223 -35q-50 -19 -51 -49q0 -33 25.5 -48.5t95.5 -15.5z" />
<glyph d="M344 1147q-41 0 -41 41v205q0 41 41 41h336q41 0 41 -41v-205q0 -41 -41 -41h-336zM864 1147q-41 0 -41 41v205q0 41 41 41h336q41 0 41 -41v-205q0 -41 -41 -41h-336zM774 1044q195 0 330 -20.5t213.5 -63t112.5 -100t34 -137.5v-682q0 -41 -41 -41h-458q-41 0 -41 41 v84q-132 -156 -387 -156q-262 0 -373 80.5t-111 267.5q0 82 36.5 141t96.5 90.5t136 51.5t156 26t156 12t136 10.5t96.5 21t36.5 45.5q0 34 -22.5 48.5t-85.5 14.5q-66 0 -92.5 -12t-32.5 -49q-6 -41 -41 -41h-490q-41 0 -41 24q3 99 33 161t106.5 105t205 60.5t331.5 17.5z M750 272q87 0 120 20t33 85v43q-176 -19 -223 -35q-50 -19 -51 -49q0 -33 25.5 -48.5t95.5 -15.5z" />
<glyph d="M573 1169l-235 256q-20 20 -13 35t35 15h406q32 0 51 -25l184 -254q14 -20 7 -34.5t-31 -14.5h-354q-31 0 -50 22zM774 1044q195 0 330 -20.5t213.5 -63t112.5 -100t34 -137.5v-682q0 -41 -41 -41h-458q-41 0 -41 41v84q-132 -156 -387 -156q-262 0 -373 80.5t-111 267.5 q0 82 36.5 141t96.5 90.5t136 51.5t156 26t156 12t136 10.5t96.5 21t36.5 45.5q0 34 -22.5 48.5t-85.5 14.5q-66 0 -92.5 -12t-32.5 -49q-6 -41 -41 -41h-490q-41 0 -41 24q3 99 33 161t106.5 105t205 60.5t331.5 17.5zM750 272q87 0 120 20t33 85v43q-176 -19 -223 -35 q-50 -19 -51 -49q0 -33 25.5 -48.5t95.5 -15.5z" />
<glyph d="M397 1147q-41 0 -41 41v205q0 41 41 41h754q41 0 41 -41v-205q0 -41 -41 -41h-754zM774 1044q195 0 330 -20.5t213.5 -63t112.5 -100t34 -137.5v-682q0 -41 -41 -41h-458q-41 0 -41 41v84q-132 -156 -387 -156q-262 0 -373 80.5t-111 267.5q0 82 36.5 141t96.5 90.5 t136 51.5t156 26t156 12t136 10.5t96.5 21t36.5 45.5q0 34 -22.5 48.5t-85.5 14.5q-66 0 -92.5 -12t-32.5 -49q-6 -41 -41 -41h-490q-41 0 -41 24q3 99 33 161t106.5 105t205 60.5t331.5 17.5zM750 272q87 0 120 20t33 85v43q-176 -19 -223 -35q-50 -19 -51 -49 q0 -33 25.5 -48.5t95.5 -15.5z" />
<glyph d="M774 1044q195 0 330 -20.5t213.5 -63t112.5 -100t34 -137.5v-682q0 -38 -34 -41q-95 -32 -149 -51.5t-94.5 -37.5t-53 -31.5t-7.5 -26.5q14 -28 136 18q39 16 53 -18l74 -152q19 -39 -21 -55q-100 -42 -205 -51t-187.5 13t-135 76.5t-52.5 131.5q0 150 191 184h-14 q-41 0 -41 41v84q-132 -156 -387 -156q-262 0 -373 80.5t-111 267.5q0 82 36.5 141t96.5 90.5t136 51.5t156 26t156 12t136 10.5t96.5 21t36.5 45.5q0 34 -22.5 48.5t-85.5 14.5q-66 0 -92.5 -12t-32.5 -49q-6 -41 -41 -41h-490q-41 0 -41 24q3 99 33 161t106.5 105 t205 60.5t331.5 17.5zM750 272q87 0 120 20t33 85v43q-176 -19 -223 -35q-50 -19 -51 -49q0 -33 25.5 -48.5t95.5 -15.5z" />
<glyph d="M772 1053q-120 0 -205.5 85t-85.5 205t85.5 205.5t205.5 85.5q121 0 207 -85.5t86 -205.5t-86 -205t-207 -85zM772 1421q-32 0 -55 -23t-23 -55t23 -55.5t55 -23.5t56 23.5t24 55.5t-24 55t-56 23zM774 1044q195 0 330 -20.5t213.5 -63t112.5 -100t34 -137.5v-682 q0 -41 -41 -41h-458q-41 0 -41 41v84q-132 -156 -387 -156q-262 0 -373 80.5t-111 267.5q0 82 36.5 141t96.5 90.5t136 51.5t156 26t156 12t136 10.5t96.5 21t36.5 45.5q0 34 -22.5 48.5t-85.5 14.5q-66 0 -92.5 -12t-32.5 -49q-6 -41 -41 -41h-490q-41 0 -41 24 q3 99 33 161t106.5 105t205 60.5t331.5 17.5zM750 272q87 0 120 20t33 85v43q-176 -19 -223 -35q-50 -19 -51 -49q0 -33 25.5 -48.5t95.5 -15.5z" />
<glyph d="M598 1614q-25 0 -32.5 14.5t7.5 34.5l185 252q19 27 51 27h405q28 0 35.5 -15t-12.5 -37l-236 -254q-17 -22 -49 -22h-354zM944 1040q146 -9 247.5 -34t161 -66t85.5 -93.5t26 -123.5v-682q0 -41 -41 -41h-458q-41 0 -41 41v84q-132 -156 -387 -156q-262 0 -373 80.5 t-111 267.5q0 82 36.5 141t96.5 90.5t136 51.5t156 26t156 12t136 10.5t96.5 21t36.5 45.5q0 34 -22.5 48.5t-85.5 14.5q-66 0 -92.5 -12t-32.5 -49q-6 -41 -41 -41h-490q-41 0 -41 24q2 86 26 144t81 101t152.5 65.5t242.5 29.5q-55 40 -87 102t-32 132q0 121 85.5 207 t205.5 86t205.5 -86t85.5 -207q0 -71 -32 -132t-87 -102zM772 1354q-32 0 -55 -24t-23 -56t23 -55t55 -23t56 23t24 55t-24 56t-56 24zM750 272q87 0 120 20t33 85v43q-176 -19 -223 -35q-50 -19 -51 -49q0 -33 25.5 -48.5t95.5 -15.5z" />
<glyph d="M401 1194q-20 -15 -32.5 -10t-12.5 30v164q0 30 19 52q61 61 168 61q58 0 120 -16.5t107 -36t106 -36t117 -16.5q88 0 152 44q47 29 47 -21v-166q0 -31 -21 -49q-67 -61 -170 -61q-72 0 -149.5 26t-154 52t-146.5 26q-90 0 -150 -43zM774 1044q195 0 330 -20.5t213.5 -63 t112.5 -100t34 -137.5v-682q0 -41 -41 -41h-458q-41 0 -41 41v84q-132 -156 -387 -156q-262 0 -373 80.5t-111 267.5q0 82 36.5 141t96.5 90.5t136 51.5t156 26t156 12t136 10.5t96.5 21t36.5 45.5q0 34 -22.5 48.5t-85.5 14.5q-66 0 -92.5 -12t-32.5 -49q-6 -41 -41 -41 h-490q-41 0 -41 24q3 99 33 161t106.5 105t205 60.5t331.5 17.5zM750 272q87 0 120 20t33 85v43q-176 -19 -223 -35q-50 -19 -51 -49q0 -33 25.5 -48.5t95.5 -15.5z" />
<glyph horiz-adv-x="776" d="M608 1188q0 -41 -41 -41h-358q-41 0 -41 41v205q0 41 41 41h358q41 0 41 -41v-205zM686 41q0 -41 -41 -41h-510q-41 0 -41 41v942q0 41 41 41h510q41 0 41 -41v-942z" />
<glyph horiz-adv-x="1540" d="M1413 1024q41 0 41 -41v-850q0 -101 -9 -173t-35 -137t-67 -107t-111 -76t-160.5 -50t-222 -23t-289 -2.5t-367.5 19.5q-41 3 -41 43l-5 254q0 42 48 39q376 -32 489 -26q131 7 175 61q37 45 41 169l1 36v61q-49 -100 -158.5 -165.5t-273.5 -65.5q-71 0 -125.5 8.5 t-94 24t-67.5 43t-45 58.5t-26.5 77t-13 93t-3.5 112v577q0 41 41 41h508q41 0 41 -41v-532q0 -64 13.5 -90.5t45.5 -26.5q67 0 103.5 89t36.5 253v307q0 41 41 41h489z" />
<glyph horiz-adv-x="1540" d="M596 1147q-25 0 -32.5 14.5t7.5 34.5l185 254q19 25 51 25h405q27 0 34 -15t-11 -35l-236 -256q-19 -22 -49 -22h-354zM1413 1024q41 0 41 -41v-850q0 -101 -9 -173t-35 -137t-67 -107t-111 -76t-160.5 -50t-222 -23t-289 -2.5t-367.5 19.5q-41 3 -41 43l-5 254 q0 42 48 39q376 -32 489 -26q131 7 175 61q37 45 41 169l1 36v61q-49 -100 -158.5 -165.5t-273.5 -65.5q-71 0 -125.5 8.5t-94 24t-67.5 43t-45 58.5t-26.5 77t-13 93t-3.5 112v577q0 41 41 41h508q41 0 41 -41v-532q0 -64 13.5 -90.5t45.5 -26.5q67 0 103.5 89t36.5 253 v307q0 41 41 41h489z" />
<glyph horiz-adv-x="1540" d="M348 1147q-25 0 -32 13.5t8 35.5l219 295q17 25 49 25h356q32 0 49 -25l220 -295q15 -22 7.5 -35.5t-32.5 -13.5h-272q-30 0 -52 22l-98 105l-98 -105q-22 -22 -51 -22h-273zM1413 1024q41 0 41 -41v-850q0 -101 -9 -173t-35 -137t-67 -107t-111 -76t-160.5 -50t-222 -23 t-289 -2.5t-367.5 19.5q-41 3 -41 43l-5 254q0 42 48 39q376 -32 489 -26q131 7 175 61q37 45 41 169l1 36v61q-49 -100 -158.5 -165.5t-273.5 -65.5q-71 0 -125.5 8.5t-94 24t-67.5 43t-45 58.5t-26.5 77t-13 93t-3.5 112v577q0 41 41 41h508q41 0 41 -41v-532 q0 -64 13.5 -90.5t45.5 -26.5q67 0 103.5 89t36.5 253v307q0 41 41 41h489z" />
<glyph horiz-adv-x="1540" d="M342 1147q-41 0 -41 41v205q0 41 41 41h336q41 0 41 -41v-205q0 -41 -41 -41h-336zM862 1147q-41 0 -41 41v205q0 41 41 41h336q41 0 41 -41v-205q0 -41 -41 -41h-336zM1413 1024q41 0 41 -41v-850q0 -101 -9 -173t-35 -137t-67 -107t-111 -76t-160.5 -50t-222 -23 t-289 -2.5t-367.5 19.5q-41 3 -41 43l-5 254q0 42 48 39q376 -32 489 -26q131 7 175 61q37 45 41 169l1 36v61q-49 -100 -158.5 -165.5t-273.5 -65.5q-71 0 -125.5 8.5t-94 24t-67.5 43t-45 58.5t-26.5 77t-13 93t-3.5 112v577q0 41 41 41h508q41 0 41 -41v-532 q0 -64 13.5 -90.5t45.5 -26.5q67 0 103.5 89t36.5 253v307q0 41 41 41h489z" />
<glyph horiz-adv-x="1540" d="M569 1169l-235 256q-20 20 -13 35t35 15h406q32 0 51 -25l184 -254q14 -20 7 -34.5t-31 -14.5h-355q-30 0 -49 22zM1413 1024q41 0 41 -41v-850q0 -101 -9 -173t-35 -137t-67 -107t-111 -76t-160.5 -50t-222 -23t-289 -2.5t-367.5 19.5q-41 3 -41 43l-5 254q0 42 48 39 q376 -32 489 -26q131 7 175 61q37 45 41 169l1 36v61q-49 -100 -158.5 -165.5t-273.5 -65.5q-71 0 -125.5 8.5t-94 24t-67.5 43t-45 58.5t-26.5 77t-13 93t-3.5 112v577q0 41 41 41h508q41 0 41 -41v-532q0 -64 13.5 -90.5t45.5 -26.5q67 0 103.5 89t36.5 253v307 q0 41 41 41h489z" />
<glyph horiz-adv-x="1658" d="M831 -20q-136 0 -243 19t-183.5 51.5t-132 85.5t-89 111.5t-53 138.5t-26 157.5t-6.5 177.5q0 98 6.5 174t26.5 155.5t53 138t88.5 112t131.5 87t184 53t243 19.5q134 0 241.5 -19.5t183 -53t131 -87t88.5 -112t52.5 -138t26.5 -155.5t7 -174q0 -100 -7 -177.5 t-26.5 -157.5t-52.5 -138.5t-88.5 -111.5t-131.5 -85.5t-182.5 -51.5t-241.5 -19zM831 385q78 0 102.5 71.5t24.5 264.5q0 185 -24.5 259.5t-102.5 74.5q-80 0 -105.5 -74t-25.5 -260q0 -193 25 -264.5t106 -71.5z" />
<glyph horiz-adv-x="1320" d="M999 395h187q41 0 41 -41v-313q0 -41 -41 -41h-1016q-41 0 -41 41v313q0 41 41 41h227v559l-221 -147q-22 -13 -35.5 -5.5t-13.5 32.5v374q0 32 29 49l307 164q26 13 49 13h446q41 0 41 -41v-998z" />
<glyph horiz-adv-x="1624" d="M1497 395q41 0 41 -41v-313q0 -41 -41 -41h-1380q-41 0 -41 41v233q0 94 21 171t49.5 128.5t82.5 93.5t95.5 64.5t114.5 42.5t112.5 27.5t114.5 19.5q63 10 93 15.5t75 18t66 27t37.5 38t16.5 55.5q0 62 -34 87t-111 25q-92 0 -119.5 -21t-30.5 -93q0 -41 -41 -41h-487 q-41 0 -41 41q3 96 18 165.5t49.5 125t86.5 90.5t134.5 58t187 32.5t249.5 9.5q277 0 441 -53.5t232 -157t68 -272.5q0 -101 -28.5 -178t-76.5 -124.5t-111 -81t-133.5 -50t-141.5 -28t-137.5 -20.5t-119.5 -21t-89 -35t-45 -58l209 20h614z" />
<glyph horiz-adv-x="1619" d="M1481 639q44 -51 63 -108.5t19 -137.5q0 -76 -17.5 -134t-67 -112.5t-132 -89.5t-218 -56t-319.5 -21q-154 0 -265 9.5t-195 33.5t-136 58.5t-85 91t-46.5 124.5t-15.5 164q0 41 40 41h496q41 0 41 -41q4 -77 36.5 -101t129.5 -24q76 0 109.5 24.5t33.5 83.5 q0 73 -37.5 102t-105.5 29h-305q-41 0 -41 41v218q0 40 41 40h305q38 0 60.5 3t47 13.5t35.5 35t11 63.5q0 60 -36.5 84.5t-127.5 24.5q-77 0 -103.5 -22t-29.5 -83q-3 -41 -43 -41h-496q-41 0 -41 41q3 93 16.5 158.5t46 119t83 87t131 56t185.5 31.5t251 9 q188 0 323.5 -19t218 -51.5t130.5 -84.5t64.5 -108t16.5 -132q0 -149 -71 -258q-27 -40 -119 -86q58 -27 80.5 -41.5t38.5 -34.5z" />
<glyph horiz-adv-x="1718" d="M1618 606q41 0 41 -41v-270q0 -41 -41 -41h-143v-213q0 -41 -41 -41h-510q-41 0 -41 41v213h-729q-41 0 -41 41v303q0 27 18 51l655 760q19 25 50 25h598q41 0 41 -41v-787h143zM819 817l-186 -211h260v193l18 135z" />
<glyph horiz-adv-x="1597" d="M883 932q105 0 181 -3.5t145 -12.5t115 -24t85.5 -40.5t62 -58t38.5 -80.5t22 -105t6 -133q0 -142 -33 -235t-115 -155t-215 -88t-337 -26q-227 0 -371.5 24.5t-232 84.5t-122.5 147.5t-40 225.5q0 41 41 41h516q40 0 43 -41q4 -65 34 -90t101 -25q76 0 102.5 29 t26.5 106q0 20 -0.5 34.5t-4.5 27.5t-6.5 21.5t-12 16t-15 12t-22.5 7.5t-27 4.5t-35.5 2.5t-41 1h-50.5h-582q-41 0 -41 41v752q0 41 41 41h1334q40 0 40 -41v-303q0 -41 -40 -41h-811v-117h221z" />
<glyph horiz-adv-x="1705" d="M1237 874q72 0 127.5 -9t96 -24.5t68.5 -43t45.5 -58.5t27 -77.5t13 -92.5t3.5 -110q0 -134 -34.5 -221t-122 -147t-234 -85.5t-373.5 -25.5q-180 0 -302 13t-209.5 52t-136 87.5t-75 142.5t-33.5 191.5t-6 258.5q0 84 3.5 149.5t12.5 129.5t23.5 112t38 94t55 78.5 t75 61.5t98 47t124 31.5t152.5 19.5t184 6q213 0 352 -23.5t223 -79t119.5 -135.5t40.5 -202q0 -41 -41 -41h-497q-37 0 -43 39q-6 46 -37 58.5t-127 12.5q-35 0 -53.5 -1.5t-38 -10t-28.5 -23.5t-17 -44t-11.5 -68.5t-5.5 -101.5q182 28 262 34t281 6zM885 338q91 0 121 26 t30 93q0 68 -19 90t-75 22h-250q2 -56 5.5 -92.5t13 -63.5t21 -41t36 -22t49 -10t68.5 -2z" />
<glyph horiz-adv-x="1499" d="M1415 1434q41 0 41 -41v-219q0 -30 -14 -52l-604 -1093q-16 -29 -50 -29h-534q-24 0 -32.5 13.5t3.5 33.5l463 850l107 141h-697q-41 0 -41 41v314q0 41 41 41h1317z" />
<glyph horiz-adv-x="1585" d="M1432 651q63 -51 86.5 -112t23.5 -146q0 -76 -17.5 -134t-66.5 -112.5t-130 -89.5t-214.5 -56t-314.5 -21q-182 0 -316 21t-215.5 56t-130.5 89.5t-66.5 112.5t-17.5 134q0 85 24.5 146t88.5 112q41 33 127 66q-97 41 -127 71q-103 100 -103 271q0 76 16.5 132t64 108 t128 84.5t213 51.5t314.5 19q181 0 313 -19t212.5 -51.5t127.5 -84.5t63.5 -108t16.5 -132q0 -172 -102 -271q-30 -30 -125 -71q87 -34 127 -66zM799 872q85 0 128.5 25.5t43.5 95.5q0 55 -38 78t-134 23q-97 0 -135.5 -23t-38.5 -78q0 -70 44 -95.5t130 -25.5zM799 340 q93 0 130.5 23t37.5 77q0 138 -168 138t-168 -138q0 -54 37.5 -77t130.5 -23z" />
<glyph horiz-adv-x="1644" d="M840 1454q107 0 192 -4.5t157 -17.5t125.5 -28.5t97 -44.5t73 -59t51 -78t34 -95t19.5 -117.5t9 -138t1 -162.5q0 -84 -3.5 -149.5t-12.5 -129.5t-23.5 -112t-37.5 -94t-54.5 -78.5t-75 -61.5t-97.5 -47t-123.5 -31.5t-152 -19.5t-183.5 -6q-213 0 -352 23.5t-223.5 79 t-120 135.5t-40.5 202q0 41 41 41h498q37 0 43 -39q6 -46 37.5 -59t126.5 -13q41 0 62 3.5t41 15.5t28 41t14 72.5t8 117.5q-185 -29 -264.5 -35t-277.5 -6q-84 0 -145.5 11t-103.5 36t-68 56.5t-40 82.5t-19 103t-5 127q0 134 34.5 221t122 147t234 85.5t373.5 25.5z M657 977q0 -68 19.5 -90.5t75.5 -22.5h249q-2 57 -5 93t-13 63.5t-21.5 41t-35.5 22t-48.5 10.5t-68.5 2q-91 0 -121.5 -26t-30.5 -93z" />
<glyph horiz-adv-x="813" d="M254 -20q-117 0 -201.5 23t-133.5 61t-77.5 100t-37.5 125.5t-9 152.5q0 61 4.5 108.5t16.5 97.5t33 86.5t56 70t82.5 54.5t115 33.5t151.5 12.5t151 -12.5t114.5 -33.5t82 -54.5t55.5 -70t33 -86.5t16.5 -97.5t4.5 -108.5q0 -89 -9 -152.5t-37 -125.5t-77.5 -100 t-133 -61t-200.5 -23zM254 233q49 0 64.5 44.5t15.5 164.5q0 115 -16 162t-64 47q-51 0 -66.5 -46.5t-15.5 -162.5q0 -121 15 -165t67 -44z" />
<glyph horiz-adv-x="673" d="M348 246h117q27 0 27 -25v-194q0 -27 -27 -27h-635q-27 0 -27 27v194q0 25 27 25h141v350l-137 -92q-14 -9 -22.5 -3t-8.5 21v234q0 18 17 28l192 105q13 8 31 8h281q24 0 24 -27v-624z" />
<glyph horiz-adv-x="870" d="M684 246q27 0 27 -25v-194q0 -27 -27 -27h-862q-27 0 -27 27v145q0 74 19 130t50.5 90t73 57.5t87.5 35.5t91.5 20t87 14.5t73 16t50.5 28t19 46.5q0 38 -22 54t-70 16q-58 0 -75 -13.5t-19 -58.5q0 -26 -25 -26h-305q-27 0 -27 26q4 120 44.5 183t135.5 90.5t275 27.5 q256 0 359.5 -72t103.5 -231q0 -80 -28.5 -136t-74.5 -84.5t-102 -45.5t-113.5 -24.5t-106.5 -14.5t-84 -22.5t-42 -42.5l129 10h385z" />
<glyph horiz-adv-x="833" d="M680 391q51 -59 51 -153q0 -47 -11 -83.5t-42 -70.5t-82.5 -56t-136 -35t-199.5 -13q-116 0 -194 9.5t-132 29.5t-83 57t-42 84.5t-14 120.5q0 24 25 24h311q25 0 25 -24q3 -49 22.5 -63.5t81.5 -14.5q48 0 69 15t21 52q0 46 -23.5 64t-66.5 18h-190q-27 0 -27 25v135 q0 12 7.5 19.5t19.5 7.5h190q24 0 38 1.5t29 8t22 22t7 39.5q0 37 -22.5 52.5t-79.5 15.5q-48 0 -65 -14t-19 -52q0 -24 -27 -24h-309q-27 0 -27 24q2 70 15 116t41.5 81.5t80.5 54.5t126 28t184 9q117 0 202 -12t136.5 -32.5t81.5 -53t40.5 -67.5t10.5 -83q0 -96 -45 -161 q-21 -26 -76 -54q53 -24 76 -47z" />
<glyph horiz-adv-x="790" d="M633 379q26 0 26 -25v-170q0 -26 -26 -26h-90v-131q0 -27 -25 -27h-319q-27 0 -27 27v131h-455q-26 0 -26 26v191q0 16 12 31l410 475q13 16 30 16h375q25 0 25 -27v-491h90zM133 510l-117 -131h162v121l12 84z" />
<glyph horiz-adv-x="815" d="M301 573q89 0 147 -4t107.5 -15.5t77 -30.5t47 -52t26.5 -76.5t7 -107.5q0 -118 -40 -185t-135.5 -99t-265.5 -32q-114 0 -193.5 10.5t-134.5 31.5t-87 58t-46 84.5t-16 116.5q0 27 25 27h323q11 0 18 -7.5t9 -19.5q3 -41 21 -56t63 -15q49 0 65.5 18t16.5 66 q0 57 -22 68.5t-113 11.5h-363q-26 0 -26 24v471q0 27 26 27h834q24 0 24 -27v-190q0 -25 -24 -25h-508v-72h137z" />
</font>
</defs>
</svg>
