<?xml version="1.0" encoding="utf-8"?>
<!-- Generator: Adobe Illustrator 20.1.0, SVG Export Plug-In . SVG Version: 6.00 Build 0)  -->
<svg version="1.1" id="Layer_1" xmlns="http://www.w3.org/2000/svg" xmlns:xlink="http://www.w3.org/1999/xlink" x="0px" y="0px"
	 width="643.9px" height="231.3px" viewBox="0 0 643.9 231.3" style="enable-background:new 0 0 643.9 231.3;" xml:space="preserve"
	>
<style type="text/css">
	.st0{fill:#181817;}
</style>
<g>
	<path class="st0" d="M617.2,175.6c-14.9,0-28.4,10.8-29.1,27.1c-0.7,17.1,11.7,28.6,26.6,28.6c14.9,0,28.4-11.5,29.1-28.6
		C644.6,186.3,632.1,175.6,617.2,175.6z"/>
	<path class="st0" d="M553.8,34.4c0,0,0,0.1,0,0.1c0,0.1,0,0.2,0,0.3L553.8,34.4z"/>
	<path class="st0" d="M570.6,69.7c-9.4,0-19.7,3.1-19.7-6.2c0-5,2.2-22.5,2.8-28.9c1-8.9-4.3-11.7-12.3-11.7
		c-12.6,0-29.2,1.6-40.5,7.1c-8.8,4.2-14.1,13.2-15.2,23.3l-11.9,109l0,0c0,0-2.1,20.4-14.8,20.4c-6.8,0-11.7-4.1-11.5-10.9
		L464.6,15c0-12.2-6.9-15-17.8-15c-15.9,0-36.6,5-51.9,10c-12.5,4.1-26.9,9.1-26.9,24.7c0,6.2,3.4,9.1,9.7,9.1c2.5,0,5-0.6,7.5-0.6
		c5.3,0,6.6,2.5,5.9,7.5c-3.1,28.2-9.9,72.3-14.9,114.2c-0.6,4-3.5,18.7-14.1,18.7c-5.5,0-10.7-3.9-10.6-10.3
		c0-4.2,0.5-8.7,0.7-11.6c2.5-33.7,8.1-61.9,9.4-80.6c0.6-8.7-4.1-11.9-12.8-11.9c-9.7,0-17.8,3.7-26.6,8.1c-2.8,1.6-8.4,5-11.9,5
		c-9.1,0-17.8-15-39.7-12.8c-35.2,3.2-63.4,32.2-76.9,69.5l0-0.1c0,0-0.9,3.4-3,3.4c-2.1,0-3.8-6.9-3.8-6.9l0,0.1
		c-8-27.5-33.5-40.6-60.1-55c-9.1-4.7-19.4-10.9-19.4-22.5c0-8.7,6.6-13.1,14.7-13.1c20.9,0,27.5,32.5,50.3,32.5
		c14.4,0,24.4-12.8,24.4-26.6c0-16.2-15.3-44.7-33.7-44.7c-8.7,0-14.4,5.3-18.4,5.3c-4.1,0-16.2-5.3-31.6-5.3
		c-43.1,0-85,25.6-85,72.5c0,59.7,74.4,71.2,74.4,98.7c0,11.9-10.3,14.7-20.9,14.7c-16.9,0-26.2-12.5-31.9-26.6
		c-4.7-12.2-9.4-26.9-25.3-26.9C7.5,138.7,0,152.4,0,167.7c0,47.2,44.7,63.4,85.9,63.4c27.6,0,62.4-8.5,79-24.1
		c12.1-11.5,13.7-11.8,17.4-11.8c2.9,0,3.8,2.2,4.4,5.3l0-0.1c4.1,17.4,16.2,30.6,37.8,30.6c32.2,0,47.5-28.1,55.6-28.1
		c10,0-3.4,28.1,24.4,28.1c9,0,25.8-4.9,39.8-12.4l0,0.2c0,0,11.1-6.2,19.1-6.2c0,0,7.4,0,11.1,6.2l0,0c3.8,8.9,12.1,12.4,23.3,12.4
		c11.2,0,31.9-4.2,48-12.4l0,0c0,0,11.9-6.2,17.9-6.2c0,0,4.4-0.3,7.8,6.2l0.2-0.3c4.3,8.5,13.7,12.5,26.1,12.5
		c18.1,0,77.5-20,77.5-44.4c0-5.3-1.9-11.2-8.4-11.2c-4.7,0-10.3,5.9-17.8,5.9c-7.8,0-10.5-8.7-9.1-22.2l3.5-30.9
		c3-27.3,4.7-26.2,26.3-26.2c8.4,0,8.4-6.6,9.4-13.4c0.6-4.1,1.6-9.1,1.6-13.4C580.7,70.6,574.7,69.7,570.6,69.7z M262,184.1
		c-6.2,0.6-7.2-7.5-7.2-12.2c-0.3-20,20.6-66.5,37.2-67.8c5-0.3,6.2,5.9,6.2,10C298.8,129.8,278.5,182.9,262,184.1z"/>
</g>
</svg>
